<?xml version="1.0" encoding="utf-8" standalone="no"?>
<!DOCTYPE svg PUBLIC "-//W3C//DTD SVG 1.1//EN"
  "http://www.w3.org/Graphics/SVG/1.1/DTD/svg11.dtd">
<!-- Created with matplotlib (https://matplotlib.org/) -->
<svg height="576pt" version="1.1" viewBox="0 0 720 576" width="720pt" xmlns="http://www.w3.org/2000/svg" xmlns:xlink="http://www.w3.org/1999/xlink">
 <defs>
  <style type="text/css">
*{stroke-linecap:butt;stroke-linejoin:round;}
  </style>
 </defs>
 <g id="figure_1">
  <g id="patch_1">
   <path d="M 0 576 
L 720 576 
L 720 0 
L 0 0 
z
" style="fill:#ffffff;"/>
  </g>
  <g id="axes_1">
   <g id="patch_2">
    <path d="M 90 512.64 
L 648 512.64 
L 648 69.12 
L 90 69.12 
z
" style="fill:#ffffff;"/>
   </g>
   <g id="patch_3">
    <path clip-path="url(#p30bfa06da6)" d="M 90 507.36 
L 507.696788 507.36 
L 507.696788 496.8 
L 90 496.8 
z
" style="fill:#0165fc;"/>
   </g>
   <g id="patch_4">
    <path clip-path="url(#p30bfa06da6)" d="M 90 486.24 
L 162.699425 486.24 
L 162.699425 475.68 
L 90 475.68 
z
" style="fill:#0165fc;"/>
   </g>
   <g id="patch_5">
    <path clip-path="url(#p30bfa06da6)" d="M 90 465.12 
L 143.585194 465.12 
L 143.585194 454.56 
L 90 454.56 
z
" style="fill:#0165fc;"/>
   </g>
   <g id="patch_6">
    <path clip-path="url(#p30bfa06da6)" d="M 90 444 
L 135.972451 444 
L 135.972451 433.44 
L 90 433.44 
z
" style="fill:#0165fc;"/>
   </g>
   <g id="patch_7">
    <path clip-path="url(#p30bfa06da6)" d="M 90 422.88 
L 132.742232 422.88 
L 132.742232 412.32 
L 90 412.32 
z
" style="fill:#0165fc;"/>
   </g>
   <g id="patch_8">
    <path clip-path="url(#p30bfa06da6)" d="M 90 401.76 
L 123.637595 401.76 
L 123.637595 391.2 
L 90 391.2 
z
" style="fill:#0165fc;"/>
   </g>
   <g id="patch_9">
    <path clip-path="url(#p30bfa06da6)" d="M 90 380.64 
L 117.303356 380.64 
L 117.303356 370.08 
L 90 370.08 
z
" style="fill:#0165fc;"/>
   </g>
   <g id="patch_10">
    <path clip-path="url(#p30bfa06da6)" d="M 90 359.52 
L 113.763837 359.52 
L 113.763837 348.96 
L 90 348.96 
z
" style="fill:#0165fc;"/>
   </g>
   <g id="patch_11">
    <path clip-path="url(#p30bfa06da6)" d="M 90 338.4 
L 106.318134 338.4 
L 106.318134 327.84 
L 90 327.84 
z
" style="fill:#0165fc;"/>
   </g>
   <g id="patch_12">
    <path clip-path="url(#p30bfa06da6)" d="M 90 317.28 
L 104.587611 317.28 
L 104.587611 306.72 
L 90 306.72 
z
" style="fill:#0165fc;"/>
   </g>
   <g id="patch_13">
    <path clip-path="url(#p30bfa06da6)" d="M 90 296.16 
L 104.268214 296.16 
L 104.268214 285.6 
L 90 285.6 
z
" style="fill:#0165fc;"/>
   </g>
   <g id="patch_14">
    <path clip-path="url(#p30bfa06da6)" d="M 90 275.04 
L 103.653743 275.04 
L 103.653743 264.48 
L 90 264.48 
z
" style="fill:#0165fc;"/>
   </g>
   <g id="patch_15">
    <path clip-path="url(#p30bfa06da6)" d="M 90 253.92 
L 103.534428 253.92 
L 103.534428 243.36 
L 90 243.36 
z
" style="fill:#0165fc;"/>
   </g>
   <g id="patch_16">
    <path clip-path="url(#p30bfa06da6)" d="M 90 232.8 
L 101.976452 232.8 
L 101.976452 222.24 
L 90 222.24 
z
" style="fill:#0165fc;"/>
   </g>
   <g id="patch_17">
    <path clip-path="url(#p30bfa06da6)" d="M 90 211.68 
L 101.322974 211.68 
L 101.322974 201.12 
L 90 201.12 
z
" style="fill:#0165fc;"/>
   </g>
   <g id="patch_18">
    <path clip-path="url(#p30bfa06da6)" d="M 90 190.56 
L 100.413887 190.56 
L 100.413887 180 
L 90 180 
z
" style="fill:#0165fc;"/>
   </g>
   <g id="patch_19">
    <path clip-path="url(#p30bfa06da6)" d="M 90 169.44 
L 100.348264 169.44 
L 100.348264 158.88 
L 90 158.88 
z
" style="fill:#0165fc;"/>
   </g>
   <g id="patch_20">
    <path clip-path="url(#p30bfa06da6)" d="M 90 148.32 
L 98.550741 148.32 
L 98.550741 137.76 
L 90 137.76 
z
" style="fill:#0165fc;"/>
   </g>
   <g id="patch_21">
    <path clip-path="url(#p30bfa06da6)" d="M 90 127.2 
L 97.962886 127.2 
L 97.962886 116.64 
L 90 116.64 
z
" style="fill:#0165fc;"/>
   </g>
   <g id="patch_22">
    <path clip-path="url(#p30bfa06da6)" d="M 90 106.08 
L 96.486136 106.08 
L 96.486136 95.52 
L 90 95.52 
z
" style="fill:#0165fc;"/>
   </g>
   <g id="patch_23">
    <path clip-path="url(#p30bfa06da6)" d="M 90 84.96 
L 90.295075 84.96 
L 90.295075 74.4 
L 90 74.4 
z
" style="fill:#0165fc;"/>
   </g>
   <g id="patch_24">
    <path clip-path="url(#p30bfa06da6)" d="M 507.696788 507.36 
L 590.369094 507.36 
L 590.369094 496.8 
L 507.696788 496.8 
z
" style="fill:#5ca904;"/>
   </g>
   <g id="patch_25">
    <path clip-path="url(#p30bfa06da6)" d="M 162.699425 486.24 
L 163.113355 486.24 
L 163.113355 475.68 
L 162.699425 475.68 
z
" style="fill:#5ca904;"/>
   </g>
   <g id="patch_26">
    <path clip-path="url(#p30bfa06da6)" d="M 143.585194 465.12 
L 151.220882 465.12 
L 151.220882 454.56 
L 143.585194 454.56 
z
" style="fill:#5ca904;"/>
   </g>
   <g id="patch_27">
    <path clip-path="url(#p30bfa06da6)" d="M 135.972451 444 
L 173.443722 444 
L 173.443722 433.44 
L 135.972451 433.44 
z
" style="fill:#5ca904;"/>
   </g>
   <g id="patch_28">
    <path clip-path="url(#p30bfa06da6)" d="M 132.742232 422.88 
L 156.093515 422.88 
L 156.093515 412.32 
L 132.742232 412.32 
z
" style="fill:#5ca904;"/>
   </g>
   <g id="patch_29">
    <path clip-path="url(#p30bfa06da6)" d="M 123.637595 401.76 
L 178.202088 401.76 
L 178.202088 391.2 
L 123.637595 391.2 
z
" style="fill:#5ca904;"/>
   </g>
   <g id="patch_30">
    <path clip-path="url(#p30bfa06da6)" d="M 117.303356 380.64 
L 146.283544 380.64 
L 146.283544 370.08 
L 117.303356 370.08 
z
" style="fill:#5ca904;"/>
   </g>
   <g id="patch_31">
    <path clip-path="url(#p30bfa06da6)" d="M 113.763837 359.52 
L 133.492539 359.52 
L 133.492539 348.96 
L 113.763837 348.96 
z
" style="fill:#5ca904;"/>
   </g>
   <g id="patch_32">
    <path clip-path="url(#p30bfa06da6)" d="M 106.318134 338.4 
L 106.381463 338.4 
L 106.381463 327.84 
L 106.318134 327.84 
z
" style="fill:#5ca904;"/>
   </g>
   <g id="patch_33">
    <path clip-path="url(#p30bfa06da6)" d="M 104.587611 317.28 
L 116.023934 317.28 
L 116.023934 306.72 
L 104.587611 306.72 
z
" style="fill:#5ca904;"/>
   </g>
   <g id="patch_34">
    <path clip-path="url(#p30bfa06da6)" d="M 104.268214 296.16 
L 110.486351 296.16 
L 110.486351 285.6 
L 104.268214 285.6 
z
" style="fill:#5ca904;"/>
   </g>
   <g id="patch_35">
    <path clip-path="url(#p30bfa06da6)" d="M 103.653743 275.04 
L 109.302381 275.04 
L 109.302381 264.48 
L 103.653743 264.48 
z
" style="fill:#5ca904;"/>
   </g>
   <g id="patch_36">
    <path clip-path="url(#p30bfa06da6)" d="M 103.534428 253.92 
L 108.941224 253.92 
L 108.941224 243.36 
L 103.534428 243.36 
z
" style="fill:#5ca904;"/>
   </g>
   <g id="patch_37">
    <path clip-path="url(#p30bfa06da6)" d="M 101.976452 232.8 
L 162.87289 232.8 
L 162.87289 222.24 
L 101.976452 222.24 
z
" style="fill:#5ca904;"/>
   </g>
   <g id="patch_38">
    <path clip-path="url(#p30bfa06da6)" d="M 101.322974 211.68 
L 102.837355 211.68 
L 102.837355 201.12 
L 101.322974 201.12 
z
" style="fill:#5ca904;"/>
   </g>
   <g id="patch_39">
    <path clip-path="url(#p30bfa06da6)" d="M 100.413887 190.56 
L 102.310993 190.56 
L 102.310993 180 
L 100.413887 180 
z
" style="fill:#5ca904;"/>
   </g>
   <g id="patch_40">
    <path clip-path="url(#p30bfa06da6)" d="M 100.348264 169.44 
L 101.123352 169.44 
L 101.123352 158.88 
L 100.348264 158.88 
z
" style="fill:#5ca904;"/>
   </g>
   <g id="patch_41">
    <path clip-path="url(#p30bfa06da6)" d="M 98.550741 148.32 
L 99.011939 148.32 
L 99.011939 137.76 
L 98.550741 137.76 
z
" style="fill:#5ca904;"/>
   </g>
   <g id="patch_42">
    <path clip-path="url(#p30bfa06da6)" d="M 97.962886 127.2 
L 98.609022 127.2 
L 98.609022 116.64 
L 97.962886 116.64 
z
" style="fill:#5ca904;"/>
   </g>
   <g id="patch_43">
    <path clip-path="url(#p30bfa06da6)" d="M 96.486136 106.08 
L 99.051404 106.08 
L 99.051404 95.52 
L 96.486136 95.52 
z
" style="fill:#5ca904;"/>
   </g>
   <g id="patch_44">
    <path clip-path="url(#p30bfa06da6)" d="M 90.295075 84.96 
L 126.403404 84.96 
L 126.403404 74.4 
L 90.295075 74.4 
z
" style="fill:#5ca904;"/>
   </g>
   <g id="patch_45">
    <path clip-path="url(#p30bfa06da6)" d="M 590.369094 507.36 
L 621.428571 507.36 
L 621.428571 496.8 
L 590.369094 496.8 
z
" style="fill:#997570;"/>
   </g>
   <g id="patch_46">
    <path clip-path="url(#p30bfa06da6)" d="M 163.113355 486.24 
L 176.201271 486.24 
L 176.201271 475.68 
L 163.113355 475.68 
z
" style="fill:#997570;"/>
   </g>
   <g id="patch_47">
    <path clip-path="url(#p30bfa06da6)" d="M 151.220882 465.12 
L 151.808278 465.12 
L 151.808278 454.56 
L 151.220882 454.56 
z
" style="fill:#997570;"/>
   </g>
   <g id="patch_48">
    <path clip-path="url(#p30bfa06da6)" d="M 173.443722 444 
L 186.698678 444 
L 186.698678 433.44 
L 173.443722 433.44 
z
" style="fill:#997570;"/>
   </g>
   <g id="patch_49">
    <path clip-path="url(#p30bfa06da6)" d="M 156.093515 422.88 
L 167.520201 422.88 
L 167.520201 412.32 
L 156.093515 412.32 
z
" style="fill:#997570;"/>
   </g>
   <g id="patch_50">
    <path clip-path="url(#p30bfa06da6)" d="M 178.202088 401.76 
L 189.795815 401.76 
L 189.795815 391.2 
L 178.202088 391.2 
z
" style="fill:#997570;"/>
   </g>
   <g id="patch_51">
    <path clip-path="url(#p30bfa06da6)" d="M 146.283544 380.64 
L 147.842438 380.64 
L 147.842438 370.08 
L 146.283544 370.08 
z
" style="fill:#997570;"/>
   </g>
   <g id="patch_52">
    <path clip-path="url(#p30bfa06da6)" d="M 133.492539 359.52 
L 136.728264 359.52 
L 136.728264 348.96 
L 133.492539 348.96 
z
" style="fill:#997570;"/>
   </g>
   <g id="patch_53">
    <path clip-path="url(#p30bfa06da6)" d="M 106.381463 338.4 
L 108.709019 338.4 
L 108.709019 327.84 
L 106.381463 327.84 
z
" style="fill:#997570;"/>
   </g>
   <g id="patch_54">
    <path clip-path="url(#p30bfa06da6)" d="M 116.023934 317.28 
L 117.765471 317.28 
L 117.765471 306.72 
L 116.023934 306.72 
z
" style="fill:#997570;"/>
   </g>
   <g id="patch_55">
    <path clip-path="url(#p30bfa06da6)" d="M 110.486351 296.16 
L 111.0765 296.16 
L 111.0765 285.6 
L 110.486351 285.6 
z
" style="fill:#997570;"/>
   </g>
   <g id="patch_56">
    <path clip-path="url(#p30bfa06da6)" d="M 109.302381 275.04 
L 112.902017 275.04 
L 112.902017 264.48 
L 109.302381 264.48 
z
" style="fill:#997570;"/>
   </g>
   <g id="patch_57">
    <path clip-path="url(#p30bfa06da6)" d="M 108.941224 253.92 
L 109.581394 253.92 
L 109.581394 243.36 
L 108.941224 243.36 
z
" style="fill:#997570;"/>
   </g>
   <g id="patch_58">
    <path clip-path="url(#p30bfa06da6)" d="M 162.87289 232.8 
L 166.023718 232.8 
L 166.023718 222.24 
L 162.87289 222.24 
z
" style="fill:#997570;"/>
   </g>
   <g id="patch_59">
    <path clip-path="url(#p30bfa06da6)" d="M 102.837355 211.68 
L 103.555079 211.68 
L 103.555079 201.12 
L 102.837355 201.12 
z
" style="fill:#997570;"/>
   </g>
   <g id="patch_60">
    <path clip-path="url(#p30bfa06da6)" d="M 102.310993 190.56 
L 102.395431 190.56 
L 102.395431 180 
L 102.310993 180 
z
" style="fill:#997570;"/>
   </g>
   <g id="patch_61">
    <path clip-path="url(#p30bfa06da6)" d="M 101.123352 169.44 
L 101.601987 169.44 
L 101.601987 158.88 
L 101.123352 158.88 
z
" style="fill:#997570;"/>
   </g>
   <g id="patch_62">
    <path clip-path="url(#p30bfa06da6)" d="M 99.011939 148.32 
L 100.24134 148.32 
L 100.24134 137.76 
L 99.011939 137.76 
z
" style="fill:#997570;"/>
   </g>
   <g id="patch_63">
    <path clip-path="url(#p30bfa06da6)" d="M 98.609022 127.2 
L 98.617282 127.2 
L 98.617282 116.64 
L 98.609022 116.64 
z
" style="fill:#997570;"/>
   </g>
   <g id="patch_64">
    <path clip-path="url(#p30bfa06da6)" d="M 99.051404 106.08 
L 99.263417 106.08 
L 99.263417 95.52 
L 99.051404 95.52 
z
" style="fill:#997570;"/>
   </g>
   <g id="patch_65">
    <path clip-path="url(#p30bfa06da6)" d="M 126.403404 84.96 
L 128.531337 84.96 
L 128.531337 74.4 
L 126.403404 74.4 
z
" style="fill:#997570;"/>
   </g>
   <g id="matplotlib.axis_1">
    <g id="xtick_1">
     <g id="line2d_1">
      <defs>
       <path d="M 0 0 
L 0 3.5 
" id="mc9922912fc" style="stroke:#000000;stroke-width:0.8;"/>
      </defs>
      <g>
       <use style="stroke:#000000;stroke-width:0.8;" x="90" xlink:href="#mc9922912fc" y="512.64"/>
      </g>
     </g>
     <g id="text_1">
      <!-- 0.0 -->
      <defs>
       <path d="M 31.78125 66.40625 
Q 24.171875 66.40625 20.328125 58.90625 
Q 16.5 51.421875 16.5 36.375 
Q 16.5 21.390625 20.328125 13.890625 
Q 24.171875 6.390625 31.78125 6.390625 
Q 39.453125 6.390625 43.28125 13.890625 
Q 47.125 21.390625 47.125 36.375 
Q 47.125 51.421875 43.28125 58.90625 
Q 39.453125 66.40625 31.78125 66.40625 
z
M 31.78125 74.21875 
Q 44.046875 74.21875 50.515625 64.515625 
Q 56.984375 54.828125 56.984375 36.375 
Q 56.984375 17.96875 50.515625 8.265625 
Q 44.046875 -1.421875 31.78125 -1.421875 
Q 19.53125 -1.421875 13.0625 8.265625 
Q 6.59375 17.96875 6.59375 36.375 
Q 6.59375 54.828125 13.0625 64.515625 
Q 19.53125 74.21875 31.78125 74.21875 
z
" id="DejaVuSans-48"/>
       <path d="M 10.6875 12.40625 
L 21 12.40625 
L 21 0 
L 10.6875 0 
z
" id="DejaVuSans-46"/>
      </defs>
      <g transform="translate(82.048438 527.238438)scale(0.1 -0.1)">
       <use xlink:href="#DejaVuSans-48"/>
       <use x="63.623047" xlink:href="#DejaVuSans-46"/>
       <use x="95.410156" xlink:href="#DejaVuSans-48"/>
      </g>
     </g>
    </g>
    <g id="xtick_2">
     <g id="line2d_2">
      <g>
       <use style="stroke:#000000;stroke-width:0.8;" x="181.780614" xlink:href="#mc9922912fc" y="512.64"/>
      </g>
     </g>
     <g id="text_2">
      <!-- 0.2 -->
      <defs>
       <path d="M 19.1875 8.296875 
L 53.609375 8.296875 
L 53.609375 0 
L 7.328125 0 
L 7.328125 8.296875 
Q 12.9375 14.109375 22.625 23.890625 
Q 32.328125 33.6875 34.8125 36.53125 
Q 39.546875 41.84375 41.421875 45.53125 
Q 43.3125 49.21875 43.3125 52.78125 
Q 43.3125 58.59375 39.234375 62.25 
Q 35.15625 65.921875 28.609375 65.921875 
Q 23.96875 65.921875 18.8125 64.3125 
Q 13.671875 62.703125 7.8125 59.421875 
L 7.8125 69.390625 
Q 13.765625 71.78125 18.9375 73 
Q 24.125 74.21875 28.421875 74.21875 
Q 39.75 74.21875 46.484375 68.546875 
Q 53.21875 62.890625 53.21875 53.421875 
Q 53.21875 48.921875 51.53125 44.890625 
Q 49.859375 40.875 45.40625 35.40625 
Q 44.1875 33.984375 37.640625 27.21875 
Q 31.109375 20.453125 19.1875 8.296875 
z
" id="DejaVuSans-50"/>
      </defs>
      <g transform="translate(173.829052 527.238438)scale(0.1 -0.1)">
       <use xlink:href="#DejaVuSans-48"/>
       <use x="63.623047" xlink:href="#DejaVuSans-46"/>
       <use x="95.410156" xlink:href="#DejaVuSans-50"/>
      </g>
     </g>
    </g>
    <g id="xtick_3">
     <g id="line2d_3">
      <g>
       <use style="stroke:#000000;stroke-width:0.8;" x="273.561228" xlink:href="#mc9922912fc" y="512.64"/>
      </g>
     </g>
     <g id="text_3">
      <!-- 0.4 -->
      <defs>
       <path d="M 37.796875 64.3125 
L 12.890625 25.390625 
L 37.796875 25.390625 
z
M 35.203125 72.90625 
L 47.609375 72.90625 
L 47.609375 25.390625 
L 58.015625 25.390625 
L 58.015625 17.1875 
L 47.609375 17.1875 
L 47.609375 0 
L 37.796875 0 
L 37.796875 17.1875 
L 4.890625 17.1875 
L 4.890625 26.703125 
z
" id="DejaVuSans-52"/>
      </defs>
      <g transform="translate(265.609666 527.238438)scale(0.1 -0.1)">
       <use xlink:href="#DejaVuSans-48"/>
       <use x="63.623047" xlink:href="#DejaVuSans-46"/>
       <use x="95.410156" xlink:href="#DejaVuSans-52"/>
      </g>
     </g>
    </g>
    <g id="xtick_4">
     <g id="line2d_4">
      <g>
       <use style="stroke:#000000;stroke-width:0.8;" x="365.341843" xlink:href="#mc9922912fc" y="512.64"/>
      </g>
     </g>
     <g id="text_4">
      <!-- 0.6 -->
      <defs>
       <path d="M 33.015625 40.375 
Q 26.375 40.375 22.484375 35.828125 
Q 18.609375 31.296875 18.609375 23.390625 
Q 18.609375 15.53125 22.484375 10.953125 
Q 26.375 6.390625 33.015625 6.390625 
Q 39.65625 6.390625 43.53125 10.953125 
Q 47.40625 15.53125 47.40625 23.390625 
Q 47.40625 31.296875 43.53125 35.828125 
Q 39.65625 40.375 33.015625 40.375 
z
M 52.59375 71.296875 
L 52.59375 62.3125 
Q 48.875 64.0625 45.09375 64.984375 
Q 41.3125 65.921875 37.59375 65.921875 
Q 27.828125 65.921875 22.671875 59.328125 
Q 17.53125 52.734375 16.796875 39.40625 
Q 19.671875 43.65625 24.015625 45.921875 
Q 28.375 48.1875 33.59375 48.1875 
Q 44.578125 48.1875 50.953125 41.515625 
Q 57.328125 34.859375 57.328125 23.390625 
Q 57.328125 12.15625 50.6875 5.359375 
Q 44.046875 -1.421875 33.015625 -1.421875 
Q 20.359375 -1.421875 13.671875 8.265625 
Q 6.984375 17.96875 6.984375 36.375 
Q 6.984375 53.65625 15.1875 63.9375 
Q 23.390625 74.21875 37.203125 74.21875 
Q 40.921875 74.21875 44.703125 73.484375 
Q 48.484375 72.75 52.59375 71.296875 
z
" id="DejaVuSans-54"/>
      </defs>
      <g transform="translate(357.39028 527.238438)scale(0.1 -0.1)">
       <use xlink:href="#DejaVuSans-48"/>
       <use x="63.623047" xlink:href="#DejaVuSans-46"/>
       <use x="95.410156" xlink:href="#DejaVuSans-54"/>
      </g>
     </g>
    </g>
    <g id="xtick_5">
     <g id="line2d_5">
      <g>
       <use style="stroke:#000000;stroke-width:0.8;" x="457.122457" xlink:href="#mc9922912fc" y="512.64"/>
      </g>
     </g>
     <g id="text_5">
      <!-- 0.8 -->
      <defs>
       <path d="M 31.78125 34.625 
Q 24.75 34.625 20.71875 30.859375 
Q 16.703125 27.09375 16.703125 20.515625 
Q 16.703125 13.921875 20.71875 10.15625 
Q 24.75 6.390625 31.78125 6.390625 
Q 38.8125 6.390625 42.859375 10.171875 
Q 46.921875 13.96875 46.921875 20.515625 
Q 46.921875 27.09375 42.890625 30.859375 
Q 38.875 34.625 31.78125 34.625 
z
M 21.921875 38.8125 
Q 15.578125 40.375 12.03125 44.71875 
Q 8.5 49.078125 8.5 55.328125 
Q 8.5 64.0625 14.71875 69.140625 
Q 20.953125 74.21875 31.78125 74.21875 
Q 42.671875 74.21875 48.875 69.140625 
Q 55.078125 64.0625 55.078125 55.328125 
Q 55.078125 49.078125 51.53125 44.71875 
Q 48 40.375 41.703125 38.8125 
Q 48.828125 37.15625 52.796875 32.3125 
Q 56.78125 27.484375 56.78125 20.515625 
Q 56.78125 9.90625 50.3125 4.234375 
Q 43.84375 -1.421875 31.78125 -1.421875 
Q 19.734375 -1.421875 13.25 4.234375 
Q 6.78125 9.90625 6.78125 20.515625 
Q 6.78125 27.484375 10.78125 32.3125 
Q 14.796875 37.15625 21.921875 38.8125 
z
M 18.3125 54.390625 
Q 18.3125 48.734375 21.84375 45.5625 
Q 25.390625 42.390625 31.78125 42.390625 
Q 38.140625 42.390625 41.71875 45.5625 
Q 45.3125 48.734375 45.3125 54.390625 
Q 45.3125 60.0625 41.71875 63.234375 
Q 38.140625 66.40625 31.78125 66.40625 
Q 25.390625 66.40625 21.84375 63.234375 
Q 18.3125 60.0625 18.3125 54.390625 
z
" id="DejaVuSans-56"/>
      </defs>
      <g transform="translate(449.170894 527.238438)scale(0.1 -0.1)">
       <use xlink:href="#DejaVuSans-48"/>
       <use x="63.623047" xlink:href="#DejaVuSans-46"/>
       <use x="95.410156" xlink:href="#DejaVuSans-56"/>
      </g>
     </g>
    </g>
    <g id="xtick_6">
     <g id="line2d_6">
      <g>
       <use style="stroke:#000000;stroke-width:0.8;" x="548.903071" xlink:href="#mc9922912fc" y="512.64"/>
      </g>
     </g>
     <g id="text_6">
      <!-- 1.0 -->
      <defs>
       <path d="M 12.40625 8.296875 
L 28.515625 8.296875 
L 28.515625 63.921875 
L 10.984375 60.40625 
L 10.984375 69.390625 
L 28.421875 72.90625 
L 38.28125 72.90625 
L 38.28125 8.296875 
L 54.390625 8.296875 
L 54.390625 0 
L 12.40625 0 
z
" id="DejaVuSans-49"/>
      </defs>
      <g transform="translate(540.951509 527.238438)scale(0.1 -0.1)">
       <use xlink:href="#DejaVuSans-49"/>
       <use x="63.623047" xlink:href="#DejaVuSans-46"/>
       <use x="95.410156" xlink:href="#DejaVuSans-48"/>
      </g>
     </g>
    </g>
    <g id="xtick_7">
     <g id="line2d_7">
      <g>
       <use style="stroke:#000000;stroke-width:0.8;" x="640.683685" xlink:href="#mc9922912fc" y="512.64"/>
      </g>
     </g>
     <g id="text_7">
      <!-- 1.2 -->
      <g transform="translate(632.732123 527.238438)scale(0.1 -0.1)">
       <use xlink:href="#DejaVuSans-49"/>
       <use x="63.623047" xlink:href="#DejaVuSans-46"/>
       <use x="95.410156" xlink:href="#DejaVuSans-50"/>
      </g>
     </g>
    </g>
    <g id="text_8">
     <!-- capita -->
     <defs>
      <path d="M 48.78125 52.59375 
L 48.78125 44.1875 
Q 44.96875 46.296875 41.140625 47.34375 
Q 37.3125 48.390625 33.40625 48.390625 
Q 24.65625 48.390625 19.8125 42.84375 
Q 14.984375 37.3125 14.984375 27.296875 
Q 14.984375 17.28125 19.8125 11.734375 
Q 24.65625 6.203125 33.40625 6.203125 
Q 37.3125 6.203125 41.140625 7.25 
Q 44.96875 8.296875 48.78125 10.40625 
L 48.78125 2.09375 
Q 45.015625 0.34375 40.984375 -0.53125 
Q 36.96875 -1.421875 32.421875 -1.421875 
Q 20.0625 -1.421875 12.78125 6.34375 
Q 5.515625 14.109375 5.515625 27.296875 
Q 5.515625 40.671875 12.859375 48.328125 
Q 20.21875 56 33.015625 56 
Q 37.15625 56 41.109375 55.140625 
Q 45.0625 54.296875 48.78125 52.59375 
z
" id="DejaVuSans-99"/>
      <path d="M 34.28125 27.484375 
Q 23.390625 27.484375 19.1875 25 
Q 14.984375 22.515625 14.984375 16.5 
Q 14.984375 11.71875 18.140625 8.90625 
Q 21.296875 6.109375 26.703125 6.109375 
Q 34.1875 6.109375 38.703125 11.40625 
Q 43.21875 16.703125 43.21875 25.484375 
L 43.21875 27.484375 
z
M 52.203125 31.203125 
L 52.203125 0 
L 43.21875 0 
L 43.21875 8.296875 
Q 40.140625 3.328125 35.546875 0.953125 
Q 30.953125 -1.421875 24.3125 -1.421875 
Q 15.921875 -1.421875 10.953125 3.296875 
Q 6 8.015625 6 15.921875 
Q 6 25.140625 12.171875 29.828125 
Q 18.359375 34.515625 30.609375 34.515625 
L 43.21875 34.515625 
L 43.21875 35.40625 
Q 43.21875 41.609375 39.140625 45 
Q 35.0625 48.390625 27.6875 48.390625 
Q 23 48.390625 18.546875 47.265625 
Q 14.109375 46.140625 10.015625 43.890625 
L 10.015625 52.203125 
Q 14.9375 54.109375 19.578125 55.046875 
Q 24.21875 56 28.609375 56 
Q 40.484375 56 46.34375 49.84375 
Q 52.203125 43.703125 52.203125 31.203125 
z
" id="DejaVuSans-97"/>
      <path d="M 18.109375 8.203125 
L 18.109375 -20.796875 
L 9.078125 -20.796875 
L 9.078125 54.6875 
L 18.109375 54.6875 
L 18.109375 46.390625 
Q 20.953125 51.265625 25.265625 53.625 
Q 29.59375 56 35.59375 56 
Q 45.5625 56 51.78125 48.09375 
Q 58.015625 40.1875 58.015625 27.296875 
Q 58.015625 14.40625 51.78125 6.484375 
Q 45.5625 -1.421875 35.59375 -1.421875 
Q 29.59375 -1.421875 25.265625 0.953125 
Q 20.953125 3.328125 18.109375 8.203125 
z
M 48.6875 27.296875 
Q 48.6875 37.203125 44.609375 42.84375 
Q 40.53125 48.484375 33.40625 48.484375 
Q 26.265625 48.484375 22.1875 42.84375 
Q 18.109375 37.203125 18.109375 27.296875 
Q 18.109375 17.390625 22.1875 11.75 
Q 26.265625 6.109375 33.40625 6.109375 
Q 40.53125 6.109375 44.609375 11.75 
Q 48.6875 17.390625 48.6875 27.296875 
z
" id="DejaVuSans-112"/>
      <path d="M 9.421875 54.6875 
L 18.40625 54.6875 
L 18.40625 0 
L 9.421875 0 
z
M 9.421875 75.984375 
L 18.40625 75.984375 
L 18.40625 64.59375 
L 9.421875 64.59375 
z
" id="DejaVuSans-105"/>
      <path d="M 18.3125 70.21875 
L 18.3125 54.6875 
L 36.8125 54.6875 
L 36.8125 47.703125 
L 18.3125 47.703125 
L 18.3125 18.015625 
Q 18.3125 11.328125 20.140625 9.421875 
Q 21.96875 7.515625 27.59375 7.515625 
L 36.8125 7.515625 
L 36.8125 0 
L 27.59375 0 
Q 17.1875 0 13.234375 3.875 
Q 9.28125 7.765625 9.28125 18.015625 
L 9.28125 47.703125 
L 2.6875 47.703125 
L 2.6875 54.6875 
L 9.28125 54.6875 
L 9.28125 70.21875 
z
" id="DejaVuSans-116"/>
     </defs>
     <g transform="translate(353.599219 540.916563)scale(0.1 -0.1)">
      <use xlink:href="#DejaVuSans-99"/>
      <use x="54.980469" xlink:href="#DejaVuSans-97"/>
      <use x="116.259766" xlink:href="#DejaVuSans-112"/>
      <use x="179.736328" xlink:href="#DejaVuSans-105"/>
      <use x="207.519531" xlink:href="#DejaVuSans-116"/>
      <use x="246.728516" xlink:href="#DejaVuSans-97"/>
     </g>
    </g>
    <g id="text_9">
     <!-- 1e6 -->
     <defs>
      <path d="M 56.203125 29.59375 
L 56.203125 25.203125 
L 14.890625 25.203125 
Q 15.484375 15.921875 20.484375 11.0625 
Q 25.484375 6.203125 34.421875 6.203125 
Q 39.59375 6.203125 44.453125 7.46875 
Q 49.3125 8.734375 54.109375 11.28125 
L 54.109375 2.78125 
Q 49.265625 0.734375 44.1875 -0.34375 
Q 39.109375 -1.421875 33.890625 -1.421875 
Q 20.796875 -1.421875 13.15625 6.1875 
Q 5.515625 13.8125 5.515625 26.8125 
Q 5.515625 40.234375 12.765625 48.109375 
Q 20.015625 56 32.328125 56 
Q 43.359375 56 49.78125 48.890625 
Q 56.203125 41.796875 56.203125 29.59375 
z
M 47.21875 32.234375 
Q 47.125 39.59375 43.09375 43.984375 
Q 39.0625 48.390625 32.421875 48.390625 
Q 24.90625 48.390625 20.390625 44.140625 
Q 15.875 39.890625 15.1875 32.171875 
z
" id="DejaVuSans-101"/>
     </defs>
     <g transform="translate(629.121875 539.916563)scale(0.1 -0.1)">
      <use xlink:href="#DejaVuSans-49"/>
      <use x="63.623047" xlink:href="#DejaVuSans-101"/>
      <use x="125.146484" xlink:href="#DejaVuSans-54"/>
     </g>
    </g>
   </g>
   <g id="matplotlib.axis_2">
    <g id="ytick_1">
     <g id="line2d_8">
      <defs>
       <path d="M 0 0 
L -3.5 0 
" id="m61892d018a" style="stroke:#000000;stroke-width:0.8;"/>
      </defs>
      <g>
       <use style="stroke:#000000;stroke-width:0.8;" x="90" xlink:href="#m61892d018a" y="502.08"/>
      </g>
     </g>
     <g id="text_10">
      <!-- US -->
      <defs>
       <path d="M 8.6875 72.90625 
L 18.609375 72.90625 
L 18.609375 28.609375 
Q 18.609375 16.890625 22.84375 11.734375 
Q 27.09375 6.59375 36.625 6.59375 
Q 46.09375 6.59375 50.34375 11.734375 
Q 54.59375 16.890625 54.59375 28.609375 
L 54.59375 72.90625 
L 64.5 72.90625 
L 64.5 27.390625 
Q 64.5 13.140625 57.4375 5.859375 
Q 50.390625 -1.421875 36.625 -1.421875 
Q 22.796875 -1.421875 15.734375 5.859375 
Q 8.6875 13.140625 8.6875 27.390625 
z
" id="DejaVuSans-85"/>
       <path d="M 53.515625 70.515625 
L 53.515625 60.890625 
Q 47.90625 63.578125 42.921875 64.890625 
Q 37.9375 66.21875 33.296875 66.21875 
Q 25.25 66.21875 20.875 63.09375 
Q 16.5 59.96875 16.5 54.203125 
Q 16.5 49.359375 19.40625 46.890625 
Q 22.3125 44.4375 30.421875 42.921875 
L 36.375 41.703125 
Q 47.40625 39.59375 52.65625 34.296875 
Q 57.90625 29 57.90625 20.125 
Q 57.90625 9.515625 50.796875 4.046875 
Q 43.703125 -1.421875 29.984375 -1.421875 
Q 24.8125 -1.421875 18.96875 -0.25 
Q 13.140625 0.921875 6.890625 3.21875 
L 6.890625 13.375 
Q 12.890625 10.015625 18.65625 8.296875 
Q 24.421875 6.59375 29.984375 6.59375 
Q 38.421875 6.59375 43.015625 9.90625 
Q 47.609375 13.234375 47.609375 19.390625 
Q 47.609375 24.75 44.3125 27.78125 
Q 41.015625 30.8125 33.5 32.328125 
L 27.484375 33.5 
Q 16.453125 35.6875 11.515625 40.375 
Q 6.59375 45.0625 6.59375 53.421875 
Q 6.59375 63.09375 13.40625 68.65625 
Q 20.21875 74.21875 32.171875 74.21875 
Q 37.3125 74.21875 42.625 73.28125 
Q 47.953125 72.359375 53.515625 70.515625 
z
" id="DejaVuSans-83"/>
      </defs>
      <g transform="translate(69.332813 505.879219)scale(0.1 -0.1)">
       <use xlink:href="#DejaVuSans-85"/>
       <use x="73.193359" xlink:href="#DejaVuSans-83"/>
      </g>
     </g>
    </g>
    <g id="ytick_2">
     <g id="line2d_9">
      <g>
       <use style="stroke:#000000;stroke-width:0.8;" x="90" xlink:href="#m61892d018a" y="480.96"/>
      </g>
     </g>
     <g id="text_11">
      <!-- United Kingdom -->
      <defs>
       <path d="M 54.890625 33.015625 
L 54.890625 0 
L 45.90625 0 
L 45.90625 32.71875 
Q 45.90625 40.484375 42.875 44.328125 
Q 39.84375 48.1875 33.796875 48.1875 
Q 26.515625 48.1875 22.3125 43.546875 
Q 18.109375 38.921875 18.109375 30.90625 
L 18.109375 0 
L 9.078125 0 
L 9.078125 54.6875 
L 18.109375 54.6875 
L 18.109375 46.1875 
Q 21.34375 51.125 25.703125 53.5625 
Q 30.078125 56 35.796875 56 
Q 45.21875 56 50.046875 50.171875 
Q 54.890625 44.34375 54.890625 33.015625 
z
" id="DejaVuSans-110"/>
       <path d="M 45.40625 46.390625 
L 45.40625 75.984375 
L 54.390625 75.984375 
L 54.390625 0 
L 45.40625 0 
L 45.40625 8.203125 
Q 42.578125 3.328125 38.25 0.953125 
Q 33.9375 -1.421875 27.875 -1.421875 
Q 17.96875 -1.421875 11.734375 6.484375 
Q 5.515625 14.40625 5.515625 27.296875 
Q 5.515625 40.1875 11.734375 48.09375 
Q 17.96875 56 27.875 56 
Q 33.9375 56 38.25 53.625 
Q 42.578125 51.265625 45.40625 46.390625 
z
M 14.796875 27.296875 
Q 14.796875 17.390625 18.875 11.75 
Q 22.953125 6.109375 30.078125 6.109375 
Q 37.203125 6.109375 41.296875 11.75 
Q 45.40625 17.390625 45.40625 27.296875 
Q 45.40625 37.203125 41.296875 42.84375 
Q 37.203125 48.484375 30.078125 48.484375 
Q 22.953125 48.484375 18.875 42.84375 
Q 14.796875 37.203125 14.796875 27.296875 
z
" id="DejaVuSans-100"/>
       <path id="DejaVuSans-32"/>
       <path d="M 9.8125 72.90625 
L 19.671875 72.90625 
L 19.671875 42.09375 
L 52.390625 72.90625 
L 65.09375 72.90625 
L 28.90625 38.921875 
L 67.671875 0 
L 54.6875 0 
L 19.671875 35.109375 
L 19.671875 0 
L 9.8125 0 
z
" id="DejaVuSans-75"/>
       <path d="M 45.40625 27.984375 
Q 45.40625 37.75 41.375 43.109375 
Q 37.359375 48.484375 30.078125 48.484375 
Q 22.859375 48.484375 18.828125 43.109375 
Q 14.796875 37.75 14.796875 27.984375 
Q 14.796875 18.265625 18.828125 12.890625 
Q 22.859375 7.515625 30.078125 7.515625 
Q 37.359375 7.515625 41.375 12.890625 
Q 45.40625 18.265625 45.40625 27.984375 
z
M 54.390625 6.78125 
Q 54.390625 -7.171875 48.1875 -13.984375 
Q 42 -20.796875 29.203125 -20.796875 
Q 24.46875 -20.796875 20.265625 -20.09375 
Q 16.0625 -19.390625 12.109375 -17.921875 
L 12.109375 -9.1875 
Q 16.0625 -11.328125 19.921875 -12.34375 
Q 23.78125 -13.375 27.78125 -13.375 
Q 36.625 -13.375 41.015625 -8.765625 
Q 45.40625 -4.15625 45.40625 5.171875 
L 45.40625 9.625 
Q 42.625 4.78125 38.28125 2.390625 
Q 33.9375 0 27.875 0 
Q 17.828125 0 11.671875 7.65625 
Q 5.515625 15.328125 5.515625 27.984375 
Q 5.515625 40.671875 11.671875 48.328125 
Q 17.828125 56 27.875 56 
Q 33.9375 56 38.28125 53.609375 
Q 42.625 51.21875 45.40625 46.390625 
L 45.40625 54.6875 
L 54.390625 54.6875 
z
" id="DejaVuSans-103"/>
       <path d="M 30.609375 48.390625 
Q 23.390625 48.390625 19.1875 42.75 
Q 14.984375 37.109375 14.984375 27.296875 
Q 14.984375 17.484375 19.15625 11.84375 
Q 23.34375 6.203125 30.609375 6.203125 
Q 37.796875 6.203125 41.984375 11.859375 
Q 46.1875 17.53125 46.1875 27.296875 
Q 46.1875 37.015625 41.984375 42.703125 
Q 37.796875 48.390625 30.609375 48.390625 
z
M 30.609375 56 
Q 42.328125 56 49.015625 48.375 
Q 55.71875 40.765625 55.71875 27.296875 
Q 55.71875 13.875 49.015625 6.21875 
Q 42.328125 -1.421875 30.609375 -1.421875 
Q 18.84375 -1.421875 12.171875 6.21875 
Q 5.515625 13.875 5.515625 27.296875 
Q 5.515625 40.765625 12.171875 48.375 
Q 18.84375 56 30.609375 56 
z
" id="DejaVuSans-111"/>
       <path d="M 52 44.1875 
Q 55.375 50.25 60.0625 53.125 
Q 64.75 56 71.09375 56 
Q 79.640625 56 84.28125 50.015625 
Q 88.921875 44.046875 88.921875 33.015625 
L 88.921875 0 
L 79.890625 0 
L 79.890625 32.71875 
Q 79.890625 40.578125 77.09375 44.375 
Q 74.3125 48.1875 68.609375 48.1875 
Q 61.625 48.1875 57.5625 43.546875 
Q 53.515625 38.921875 53.515625 30.90625 
L 53.515625 0 
L 44.484375 0 
L 44.484375 32.71875 
Q 44.484375 40.625 41.703125 44.40625 
Q 38.921875 48.1875 33.109375 48.1875 
Q 26.21875 48.1875 22.15625 43.53125 
Q 18.109375 38.875 18.109375 30.90625 
L 18.109375 0 
L 9.078125 0 
L 9.078125 54.6875 
L 18.109375 54.6875 
L 18.109375 46.1875 
Q 21.1875 51.21875 25.484375 53.609375 
Q 29.78125 56 35.6875 56 
Q 41.65625 56 45.828125 52.96875 
Q 50 49.953125 52 44.1875 
z
" id="DejaVuSans-109"/>
      </defs>
      <g transform="translate(2.735937 484.759219)scale(0.1 -0.1)">
       <use xlink:href="#DejaVuSans-85"/>
       <use x="73.193359" xlink:href="#DejaVuSans-110"/>
       <use x="136.572266" xlink:href="#DejaVuSans-105"/>
       <use x="164.355469" xlink:href="#DejaVuSans-116"/>
       <use x="203.564453" xlink:href="#DejaVuSans-101"/>
       <use x="265.087891" xlink:href="#DejaVuSans-100"/>
       <use x="328.564453" xlink:href="#DejaVuSans-32"/>
       <use x="360.351562" xlink:href="#DejaVuSans-75"/>
       <use x="425.927734" xlink:href="#DejaVuSans-105"/>
       <use x="453.710938" xlink:href="#DejaVuSans-110"/>
       <use x="517.089844" xlink:href="#DejaVuSans-103"/>
       <use x="580.566406" xlink:href="#DejaVuSans-100"/>
       <use x="644.042969" xlink:href="#DejaVuSans-111"/>
       <use x="705.224609" xlink:href="#DejaVuSans-109"/>
      </g>
     </g>
    </g>
    <g id="ytick_3">
     <g id="line2d_10">
      <g>
       <use style="stroke:#000000;stroke-width:0.8;" x="90" xlink:href="#m61892d018a" y="459.84"/>
      </g>
     </g>
     <g id="text_12">
      <!-- Russia -->
      <defs>
       <path d="M 44.390625 34.1875 
Q 47.5625 33.109375 50.5625 29.59375 
Q 53.5625 26.078125 56.59375 19.921875 
L 66.609375 0 
L 56 0 
L 46.6875 18.703125 
Q 43.0625 26.03125 39.671875 28.421875 
Q 36.28125 30.8125 30.421875 30.8125 
L 19.671875 30.8125 
L 19.671875 0 
L 9.8125 0 
L 9.8125 72.90625 
L 32.078125 72.90625 
Q 44.578125 72.90625 50.734375 67.671875 
Q 56.890625 62.453125 56.890625 51.90625 
Q 56.890625 45.015625 53.6875 40.46875 
Q 50.484375 35.9375 44.390625 34.1875 
z
M 19.671875 64.796875 
L 19.671875 38.921875 
L 32.078125 38.921875 
Q 39.203125 38.921875 42.84375 42.21875 
Q 46.484375 45.515625 46.484375 51.90625 
Q 46.484375 58.296875 42.84375 61.546875 
Q 39.203125 64.796875 32.078125 64.796875 
z
" id="DejaVuSans-82"/>
       <path d="M 8.5 21.578125 
L 8.5 54.6875 
L 17.484375 54.6875 
L 17.484375 21.921875 
Q 17.484375 14.15625 20.5 10.265625 
Q 23.53125 6.390625 29.59375 6.390625 
Q 36.859375 6.390625 41.078125 11.03125 
Q 45.3125 15.671875 45.3125 23.6875 
L 45.3125 54.6875 
L 54.296875 54.6875 
L 54.296875 0 
L 45.3125 0 
L 45.3125 8.40625 
Q 42.046875 3.421875 37.71875 1 
Q 33.40625 -1.421875 27.6875 -1.421875 
Q 18.265625 -1.421875 13.375 4.4375 
Q 8.5 10.296875 8.5 21.578125 
z
M 31.109375 56 
z
" id="DejaVuSans-117"/>
       <path d="M 44.28125 53.078125 
L 44.28125 44.578125 
Q 40.484375 46.53125 36.375 47.5 
Q 32.28125 48.484375 27.875 48.484375 
Q 21.1875 48.484375 17.84375 46.4375 
Q 14.5 44.390625 14.5 40.28125 
Q 14.5 37.15625 16.890625 35.375 
Q 19.28125 33.59375 26.515625 31.984375 
L 29.59375 31.296875 
Q 39.15625 29.25 43.1875 25.515625 
Q 47.21875 21.78125 47.21875 15.09375 
Q 47.21875 7.46875 41.1875 3.015625 
Q 35.15625 -1.421875 24.609375 -1.421875 
Q 20.21875 -1.421875 15.453125 -0.5625 
Q 10.6875 0.296875 5.421875 2 
L 5.421875 11.28125 
Q 10.40625 8.6875 15.234375 7.390625 
Q 20.0625 6.109375 24.8125 6.109375 
Q 31.15625 6.109375 34.5625 8.28125 
Q 37.984375 10.453125 37.984375 14.40625 
Q 37.984375 18.0625 35.515625 20.015625 
Q 33.0625 21.96875 24.703125 23.78125 
L 21.578125 24.515625 
Q 13.234375 26.265625 9.515625 29.90625 
Q 5.8125 33.546875 5.8125 39.890625 
Q 5.8125 47.609375 11.28125 51.796875 
Q 16.75 56 26.8125 56 
Q 31.78125 56 36.171875 55.265625 
Q 40.578125 54.546875 44.28125 53.078125 
z
" id="DejaVuSans-115"/>
      </defs>
      <g transform="translate(50.839062 463.639219)scale(0.1 -0.1)">
       <use xlink:href="#DejaVuSans-82"/>
       <use x="64.982422" xlink:href="#DejaVuSans-117"/>
       <use x="128.361328" xlink:href="#DejaVuSans-115"/>
       <use x="180.460938" xlink:href="#DejaVuSans-115"/>
       <use x="232.560547" xlink:href="#DejaVuSans-105"/>
       <use x="260.34375" xlink:href="#DejaVuSans-97"/>
      </g>
     </g>
    </g>
    <g id="ytick_4">
     <g id="line2d_11">
      <g>
       <use style="stroke:#000000;stroke-width:0.8;" x="90" xlink:href="#m61892d018a" y="438.72"/>
      </g>
     </g>
     <g id="text_13">
      <!-- Italy -->
      <defs>
       <path d="M 9.8125 72.90625 
L 19.671875 72.90625 
L 19.671875 0 
L 9.8125 0 
z
" id="DejaVuSans-73"/>
       <path d="M 9.421875 75.984375 
L 18.40625 75.984375 
L 18.40625 0 
L 9.421875 0 
z
" id="DejaVuSans-108"/>
       <path d="M 32.171875 -5.078125 
Q 28.375 -14.84375 24.75 -17.8125 
Q 21.140625 -20.796875 15.09375 -20.796875 
L 7.90625 -20.796875 
L 7.90625 -13.28125 
L 13.1875 -13.28125 
Q 16.890625 -13.28125 18.9375 -11.515625 
Q 21 -9.765625 23.484375 -3.21875 
L 25.09375 0.875 
L 2.984375 54.6875 
L 12.5 54.6875 
L 29.59375 11.921875 
L 46.6875 54.6875 
L 56.203125 54.6875 
z
" id="DejaVuSans-121"/>
      </defs>
      <g transform="translate(61.304688 442.519219)scale(0.1 -0.1)">
       <use xlink:href="#DejaVuSans-73"/>
       <use x="29.492188" xlink:href="#DejaVuSans-116"/>
       <use x="68.701172" xlink:href="#DejaVuSans-97"/>
       <use x="129.980469" xlink:href="#DejaVuSans-108"/>
       <use x="157.763672" xlink:href="#DejaVuSans-121"/>
      </g>
     </g>
    </g>
    <g id="ytick_5">
     <g id="line2d_12">
      <g>
       <use style="stroke:#000000;stroke-width:0.8;" x="90" xlink:href="#m61892d018a" y="417.6"/>
      </g>
     </g>
     <g id="text_14">
      <!-- France -->
      <defs>
       <path d="M 9.8125 72.90625 
L 51.703125 72.90625 
L 51.703125 64.59375 
L 19.671875 64.59375 
L 19.671875 43.109375 
L 48.578125 43.109375 
L 48.578125 34.8125 
L 19.671875 34.8125 
L 19.671875 0 
L 9.8125 0 
z
" id="DejaVuSans-70"/>
       <path d="M 41.109375 46.296875 
Q 39.59375 47.171875 37.8125 47.578125 
Q 36.03125 48 33.890625 48 
Q 26.265625 48 22.1875 43.046875 
Q 18.109375 38.09375 18.109375 28.8125 
L 18.109375 0 
L 9.078125 0 
L 9.078125 54.6875 
L 18.109375 54.6875 
L 18.109375 46.1875 
Q 20.953125 51.171875 25.484375 53.578125 
Q 30.03125 56 36.53125 56 
Q 37.453125 56 38.578125 55.875 
Q 39.703125 55.765625 41.0625 55.515625 
z
" id="DejaVuSans-114"/>
      </defs>
      <g transform="translate(49.745312 421.399219)scale(0.1 -0.1)">
       <use xlink:href="#DejaVuSans-70"/>
       <use x="50.269531" xlink:href="#DejaVuSans-114"/>
       <use x="91.382812" xlink:href="#DejaVuSans-97"/>
       <use x="152.662109" xlink:href="#DejaVuSans-110"/>
       <use x="216.041016" xlink:href="#DejaVuSans-99"/>
       <use x="271.021484" xlink:href="#DejaVuSans-101"/>
      </g>
     </g>
    </g>
    <g id="ytick_6">
     <g id="line2d_13">
      <g>
       <use style="stroke:#000000;stroke-width:0.8;" x="90" xlink:href="#m61892d018a" y="396.48"/>
      </g>
     </g>
     <g id="text_15">
      <!-- Spain -->
      <g transform="translate(55.059375 400.279219)scale(0.1 -0.1)">
       <use xlink:href="#DejaVuSans-83"/>
       <use x="63.476562" xlink:href="#DejaVuSans-112"/>
       <use x="126.953125" xlink:href="#DejaVuSans-97"/>
       <use x="188.232422" xlink:href="#DejaVuSans-105"/>
       <use x="216.015625" xlink:href="#DejaVuSans-110"/>
      </g>
     </g>
    </g>
    <g id="ytick_7">
     <g id="line2d_14">
      <g>
       <use style="stroke:#000000;stroke-width:0.8;" x="90" xlink:href="#m61892d018a" y="375.36"/>
      </g>
     </g>
     <g id="text_16">
      <!-- Turkey -->
      <defs>
       <path d="M -0.296875 72.90625 
L 61.375 72.90625 
L 61.375 64.59375 
L 35.5 64.59375 
L 35.5 0 
L 25.59375 0 
L 25.59375 64.59375 
L -0.296875 64.59375 
z
" id="DejaVuSans-84"/>
       <path d="M 9.078125 75.984375 
L 18.109375 75.984375 
L 18.109375 31.109375 
L 44.921875 54.6875 
L 56.390625 54.6875 
L 27.390625 29.109375 
L 57.625 0 
L 45.90625 0 
L 18.109375 26.703125 
L 18.109375 0 
L 9.078125 0 
z
" id="DejaVuSans-107"/>
      </defs>
      <g transform="translate(50.45625 379.159219)scale(0.1 -0.1)">
       <use xlink:href="#DejaVuSans-84"/>
       <use x="45.958984" xlink:href="#DejaVuSans-117"/>
       <use x="109.337891" xlink:href="#DejaVuSans-114"/>
       <use x="150.451172" xlink:href="#DejaVuSans-107"/>
       <use x="204.736328" xlink:href="#DejaVuSans-101"/>
       <use x="266.259766" xlink:href="#DejaVuSans-121"/>
      </g>
     </g>
    </g>
    <g id="ytick_8">
     <g id="line2d_15">
      <g>
       <use style="stroke:#000000;stroke-width:0.8;" x="90" xlink:href="#m61892d018a" y="354.24"/>
      </g>
     </g>
     <g id="text_17">
      <!-- Brazil -->
      <defs>
       <path d="M 19.671875 34.8125 
L 19.671875 8.109375 
L 35.5 8.109375 
Q 43.453125 8.109375 47.28125 11.40625 
Q 51.125 14.703125 51.125 21.484375 
Q 51.125 28.328125 47.28125 31.5625 
Q 43.453125 34.8125 35.5 34.8125 
z
M 19.671875 64.796875 
L 19.671875 42.828125 
L 34.28125 42.828125 
Q 41.5 42.828125 45.03125 45.53125 
Q 48.578125 48.25 48.578125 53.8125 
Q 48.578125 59.328125 45.03125 62.0625 
Q 41.5 64.796875 34.28125 64.796875 
z
M 9.8125 72.90625 
L 35.015625 72.90625 
Q 46.296875 72.90625 52.390625 68.21875 
Q 58.5 63.53125 58.5 54.890625 
Q 58.5 48.1875 55.375 44.234375 
Q 52.25 40.28125 46.1875 39.3125 
Q 53.46875 37.75 57.5 32.78125 
Q 61.53125 27.828125 61.53125 20.40625 
Q 61.53125 10.640625 54.890625 5.3125 
Q 48.25 0 35.984375 0 
L 9.8125 0 
z
" id="DejaVuSans-66"/>
       <path d="M 5.515625 54.6875 
L 48.1875 54.6875 
L 48.1875 46.484375 
L 14.40625 7.171875 
L 48.1875 7.171875 
L 48.1875 0 
L 4.296875 0 
L 4.296875 8.203125 
L 38.09375 47.515625 
L 5.515625 47.515625 
z
" id="DejaVuSans-122"/>
      </defs>
      <g transform="translate(55.095312 358.039219)scale(0.1 -0.1)">
       <use xlink:href="#DejaVuSans-66"/>
       <use x="68.603516" xlink:href="#DejaVuSans-114"/>
       <use x="109.716797" xlink:href="#DejaVuSans-97"/>
       <use x="170.996094" xlink:href="#DejaVuSans-122"/>
       <use x="223.486328" xlink:href="#DejaVuSans-105"/>
       <use x="251.269531" xlink:href="#DejaVuSans-108"/>
      </g>
     </g>
    </g>
    <g id="ytick_9">
     <g id="line2d_16">
      <g>
       <use style="stroke:#000000;stroke-width:0.8;" x="90" xlink:href="#m61892d018a" y="333.12"/>
      </g>
     </g>
     <g id="text_18">
      <!-- Netherlands -->
      <defs>
       <path d="M 9.8125 72.90625 
L 23.09375 72.90625 
L 55.421875 11.921875 
L 55.421875 72.90625 
L 64.984375 72.90625 
L 64.984375 0 
L 51.703125 0 
L 19.390625 60.984375 
L 19.390625 0 
L 9.8125 0 
z
" id="DejaVuSans-78"/>
       <path d="M 54.890625 33.015625 
L 54.890625 0 
L 45.90625 0 
L 45.90625 32.71875 
Q 45.90625 40.484375 42.875 44.328125 
Q 39.84375 48.1875 33.796875 48.1875 
Q 26.515625 48.1875 22.3125 43.546875 
Q 18.109375 38.921875 18.109375 30.90625 
L 18.109375 0 
L 9.078125 0 
L 9.078125 75.984375 
L 18.109375 75.984375 
L 18.109375 46.1875 
Q 21.34375 51.125 25.703125 53.5625 
Q 30.078125 56 35.796875 56 
Q 45.21875 56 50.046875 50.171875 
Q 54.890625 44.34375 54.890625 33.015625 
z
" id="DejaVuSans-104"/>
      </defs>
      <g transform="translate(22.042187 336.919219)scale(0.1 -0.1)">
       <use xlink:href="#DejaVuSans-78"/>
       <use x="74.804688" xlink:href="#DejaVuSans-101"/>
       <use x="136.328125" xlink:href="#DejaVuSans-116"/>
       <use x="175.537109" xlink:href="#DejaVuSans-104"/>
       <use x="238.916016" xlink:href="#DejaVuSans-101"/>
       <use x="300.439453" xlink:href="#DejaVuSans-114"/>
       <use x="341.552734" xlink:href="#DejaVuSans-108"/>
       <use x="369.335938" xlink:href="#DejaVuSans-97"/>
       <use x="430.615234" xlink:href="#DejaVuSans-110"/>
       <use x="493.994141" xlink:href="#DejaVuSans-100"/>
       <use x="557.470703" xlink:href="#DejaVuSans-115"/>
      </g>
     </g>
    </g>
    <g id="ytick_10">
     <g id="line2d_17">
      <g>
       <use style="stroke:#000000;stroke-width:0.8;" x="90" xlink:href="#m61892d018a" y="312"/>
      </g>
     </g>
     <g id="text_19">
      <!-- Canada -->
      <defs>
       <path d="M 64.40625 67.28125 
L 64.40625 56.890625 
Q 59.421875 61.53125 53.78125 63.8125 
Q 48.140625 66.109375 41.796875 66.109375 
Q 29.296875 66.109375 22.65625 58.46875 
Q 16.015625 50.828125 16.015625 36.375 
Q 16.015625 21.96875 22.65625 14.328125 
Q 29.296875 6.6875 41.796875 6.6875 
Q 48.140625 6.6875 53.78125 8.984375 
Q 59.421875 11.28125 64.40625 15.921875 
L 64.40625 5.609375 
Q 59.234375 2.09375 53.4375 0.328125 
Q 47.65625 -1.421875 41.21875 -1.421875 
Q 24.65625 -1.421875 15.125 8.703125 
Q 5.609375 18.84375 5.609375 36.375 
Q 5.609375 53.953125 15.125 64.078125 
Q 24.65625 74.21875 41.21875 74.21875 
Q 47.75 74.21875 53.53125 72.484375 
Q 59.328125 70.75 64.40625 67.28125 
z
" id="DejaVuSans-67"/>
      </defs>
      <g transform="translate(44.946875 315.799219)scale(0.1 -0.1)">
       <use xlink:href="#DejaVuSans-67"/>
       <use x="69.824219" xlink:href="#DejaVuSans-97"/>
       <use x="131.103516" xlink:href="#DejaVuSans-110"/>
       <use x="194.482422" xlink:href="#DejaVuSans-97"/>
       <use x="255.761719" xlink:href="#DejaVuSans-100"/>
       <use x="319.238281" xlink:href="#DejaVuSans-97"/>
      </g>
     </g>
    </g>
    <g id="ytick_11">
     <g id="line2d_18">
      <g>
       <use style="stroke:#000000;stroke-width:0.8;" x="90" xlink:href="#m61892d018a" y="290.88"/>
      </g>
     </g>
     <g id="text_20">
      <!-- Peru -->
      <defs>
       <path d="M 19.671875 64.796875 
L 19.671875 37.40625 
L 32.078125 37.40625 
Q 38.96875 37.40625 42.71875 40.96875 
Q 46.484375 44.53125 46.484375 51.125 
Q 46.484375 57.671875 42.71875 61.234375 
Q 38.96875 64.796875 32.078125 64.796875 
z
M 9.8125 72.90625 
L 32.078125 72.90625 
Q 44.34375 72.90625 50.609375 67.359375 
Q 56.890625 61.8125 56.890625 51.125 
Q 56.890625 40.328125 50.609375 34.8125 
Q 44.34375 29.296875 32.078125 29.296875 
L 19.671875 29.296875 
L 19.671875 0 
L 9.8125 0 
z
" id="DejaVuSans-80"/>
      </defs>
      <g transform="translate(60.73125 294.679219)scale(0.1 -0.1)">
       <use xlink:href="#DejaVuSans-80"/>
       <use x="56.677734" xlink:href="#DejaVuSans-101"/>
       <use x="118.201172" xlink:href="#DejaVuSans-114"/>
       <use x="159.314453" xlink:href="#DejaVuSans-117"/>
      </g>
     </g>
    </g>
    <g id="ytick_12">
     <g id="line2d_19">
      <g>
       <use style="stroke:#000000;stroke-width:0.8;" x="90" xlink:href="#m61892d018a" y="269.76"/>
      </g>
     </g>
     <g id="text_21">
      <!-- Belgium -->
      <g transform="translate(42.003125 273.559219)scale(0.1 -0.1)">
       <use xlink:href="#DejaVuSans-66"/>
       <use x="68.603516" xlink:href="#DejaVuSans-101"/>
       <use x="130.126953" xlink:href="#DejaVuSans-108"/>
       <use x="157.910156" xlink:href="#DejaVuSans-103"/>
       <use x="221.386719" xlink:href="#DejaVuSans-105"/>
       <use x="249.169922" xlink:href="#DejaVuSans-117"/>
       <use x="312.548828" xlink:href="#DejaVuSans-109"/>
      </g>
     </g>
    </g>
    <g id="ytick_13">
     <g id="line2d_20">
      <g>
       <use style="stroke:#000000;stroke-width:0.8;" x="90" xlink:href="#m61892d018a" y="248.64"/>
      </g>
     </g>
     <g id="text_22">
      <!-- India -->
      <g transform="translate(58.457813 252.439219)scale(0.1 -0.1)">
       <use xlink:href="#DejaVuSans-73"/>
       <use x="29.492188" xlink:href="#DejaVuSans-110"/>
       <use x="92.871094" xlink:href="#DejaVuSans-100"/>
       <use x="156.347656" xlink:href="#DejaVuSans-105"/>
       <use x="184.130859" xlink:href="#DejaVuSans-97"/>
      </g>
     </g>
    </g>
    <g id="ytick_14">
     <g id="line2d_21">
      <g>
       <use style="stroke:#000000;stroke-width:0.8;" x="90" xlink:href="#m61892d018a" y="227.52"/>
      </g>
     </g>
     <g id="text_23">
      <!-- Germany -->
      <defs>
       <path d="M 59.515625 10.40625 
L 59.515625 29.984375 
L 43.40625 29.984375 
L 43.40625 38.09375 
L 69.28125 38.09375 
L 69.28125 6.78125 
Q 63.578125 2.734375 56.6875 0.65625 
Q 49.8125 -1.421875 42 -1.421875 
Q 24.90625 -1.421875 15.25 8.5625 
Q 5.609375 18.5625 5.609375 36.375 
Q 5.609375 54.25 15.25 64.234375 
Q 24.90625 74.21875 42 74.21875 
Q 49.125 74.21875 55.546875 72.453125 
Q 61.96875 70.703125 67.390625 67.28125 
L 67.390625 56.78125 
Q 61.921875 61.421875 55.765625 63.765625 
Q 49.609375 66.109375 42.828125 66.109375 
Q 29.4375 66.109375 22.71875 58.640625 
Q 16.015625 51.171875 16.015625 36.375 
Q 16.015625 21.625 22.71875 14.15625 
Q 29.4375 6.6875 42.828125 6.6875 
Q 48.046875 6.6875 52.140625 7.59375 
Q 56.25 8.5 59.515625 10.40625 
z
" id="DejaVuSans-71"/>
      </defs>
      <g transform="translate(37.0375 231.319219)scale(0.1 -0.1)">
       <use xlink:href="#DejaVuSans-71"/>
       <use x="77.490234" xlink:href="#DejaVuSans-101"/>
       <use x="139.013672" xlink:href="#DejaVuSans-114"/>
       <use x="178.376953" xlink:href="#DejaVuSans-109"/>
       <use x="275.789062" xlink:href="#DejaVuSans-97"/>
       <use x="337.068359" xlink:href="#DejaVuSans-110"/>
       <use x="400.447266" xlink:href="#DejaVuSans-121"/>
      </g>
     </g>
    </g>
    <g id="ytick_15">
     <g id="line2d_22">
      <g>
       <use style="stroke:#000000;stroke-width:0.8;" x="90" xlink:href="#m61892d018a" y="206.4"/>
      </g>
     </g>
     <g id="text_24">
      <!-- Ecuador -->
      <defs>
       <path d="M 9.8125 72.90625 
L 55.90625 72.90625 
L 55.90625 64.59375 
L 19.671875 64.59375 
L 19.671875 43.015625 
L 54.390625 43.015625 
L 54.390625 34.71875 
L 19.671875 34.71875 
L 19.671875 8.296875 
L 56.78125 8.296875 
L 56.78125 0 
L 9.8125 0 
z
" id="DejaVuSans-69"/>
      </defs>
      <g transform="translate(42.139062 210.199219)scale(0.1 -0.1)">
       <use xlink:href="#DejaVuSans-69"/>
       <use x="63.183594" xlink:href="#DejaVuSans-99"/>
       <use x="118.164062" xlink:href="#DejaVuSans-117"/>
       <use x="181.542969" xlink:href="#DejaVuSans-97"/>
       <use x="242.822266" xlink:href="#DejaVuSans-100"/>
       <use x="306.298828" xlink:href="#DejaVuSans-111"/>
       <use x="367.480469" xlink:href="#DejaVuSans-114"/>
      </g>
     </g>
    </g>
    <g id="ytick_16">
     <g id="line2d_23">
      <g>
       <use style="stroke:#000000;stroke-width:0.8;" x="90" xlink:href="#m61892d018a" y="185.28"/>
      </g>
     </g>
     <g id="text_25">
      <!-- Saudi Arabia -->
      <defs>
       <path d="M 34.1875 63.1875 
L 20.796875 26.90625 
L 47.609375 26.90625 
z
M 28.609375 72.90625 
L 39.796875 72.90625 
L 67.578125 0 
L 57.328125 0 
L 50.6875 18.703125 
L 17.828125 18.703125 
L 11.1875 0 
L 0.78125 0 
z
" id="DejaVuSans-65"/>
       <path d="M 48.6875 27.296875 
Q 48.6875 37.203125 44.609375 42.84375 
Q 40.53125 48.484375 33.40625 48.484375 
Q 26.265625 48.484375 22.1875 42.84375 
Q 18.109375 37.203125 18.109375 27.296875 
Q 18.109375 17.390625 22.1875 11.75 
Q 26.265625 6.109375 33.40625 6.109375 
Q 40.53125 6.109375 44.609375 11.75 
Q 48.6875 17.390625 48.6875 27.296875 
z
M 18.109375 46.390625 
Q 20.953125 51.265625 25.265625 53.625 
Q 29.59375 56 35.59375 56 
Q 45.5625 56 51.78125 48.09375 
Q 58.015625 40.1875 58.015625 27.296875 
Q 58.015625 14.40625 51.78125 6.484375 
Q 45.5625 -1.421875 35.59375 -1.421875 
Q 29.59375 -1.421875 25.265625 0.953125 
Q 20.953125 3.328125 18.109375 8.203125 
L 18.109375 0 
L 9.078125 0 
L 9.078125 75.984375 
L 18.109375 75.984375 
z
" id="DejaVuSans-98"/>
      </defs>
      <g transform="translate(19.546875 189.079219)scale(0.1 -0.1)">
       <use xlink:href="#DejaVuSans-83"/>
       <use x="63.476562" xlink:href="#DejaVuSans-97"/>
       <use x="124.755859" xlink:href="#DejaVuSans-117"/>
       <use x="188.134766" xlink:href="#DejaVuSans-100"/>
       <use x="251.611328" xlink:href="#DejaVuSans-105"/>
       <use x="279.394531" xlink:href="#DejaVuSans-32"/>
       <use x="311.181641" xlink:href="#DejaVuSans-65"/>
       <use x="379.589844" xlink:href="#DejaVuSans-114"/>
       <use x="420.703125" xlink:href="#DejaVuSans-97"/>
       <use x="481.982422" xlink:href="#DejaVuSans-98"/>
       <use x="545.458984" xlink:href="#DejaVuSans-105"/>
       <use x="573.242188" xlink:href="#DejaVuSans-97"/>
      </g>
     </g>
    </g>
    <g id="ytick_17">
     <g id="line2d_24">
      <g>
       <use style="stroke:#000000;stroke-width:0.8;" x="90" xlink:href="#m61892d018a" y="164.16"/>
      </g>
     </g>
     <g id="text_26">
      <!-- Portugal -->
      <g transform="translate(41.590625 167.959219)scale(0.1 -0.1)">
       <use xlink:href="#DejaVuSans-80"/>
       <use x="56.677734" xlink:href="#DejaVuSans-111"/>
       <use x="117.859375" xlink:href="#DejaVuSans-114"/>
       <use x="158.972656" xlink:href="#DejaVuSans-116"/>
       <use x="198.181641" xlink:href="#DejaVuSans-117"/>
       <use x="261.560547" xlink:href="#DejaVuSans-103"/>
       <use x="325.037109" xlink:href="#DejaVuSans-97"/>
       <use x="386.316406" xlink:href="#DejaVuSans-108"/>
      </g>
     </g>
    </g>
    <g id="ytick_18">
     <g id="line2d_25">
      <g>
       <use style="stroke:#000000;stroke-width:0.8;" x="90" xlink:href="#m61892d018a" y="143.04"/>
      </g>
     </g>
     <g id="text_27">
      <!-- Sweden -->
      <defs>
       <path d="M 4.203125 54.6875 
L 13.1875 54.6875 
L 24.421875 12.015625 
L 35.59375 54.6875 
L 46.1875 54.6875 
L 57.421875 12.015625 
L 68.609375 54.6875 
L 77.59375 54.6875 
L 63.28125 0 
L 52.6875 0 
L 40.921875 44.828125 
L 29.109375 0 
L 18.5 0 
z
" id="DejaVuSans-119"/>
      </defs>
      <g transform="translate(43.48125 146.839219)scale(0.1 -0.1)">
       <use xlink:href="#DejaVuSans-83"/>
       <use x="63.476562" xlink:href="#DejaVuSans-119"/>
       <use x="145.263672" xlink:href="#DejaVuSans-101"/>
       <use x="206.787109" xlink:href="#DejaVuSans-100"/>
       <use x="270.263672" xlink:href="#DejaVuSans-101"/>
       <use x="331.787109" xlink:href="#DejaVuSans-110"/>
      </g>
     </g>
    </g>
    <g id="ytick_19">
     <g id="line2d_26">
      <g>
       <use style="stroke:#000000;stroke-width:0.8;" x="90" xlink:href="#m61892d018a" y="121.92"/>
      </g>
     </g>
     <g id="text_28">
      <!-- Singapore -->
      <g transform="translate(32.553125 125.719219)scale(0.1 -0.1)">
       <use xlink:href="#DejaVuSans-83"/>
       <use x="63.476562" xlink:href="#DejaVuSans-105"/>
       <use x="91.259766" xlink:href="#DejaVuSans-110"/>
       <use x="154.638672" xlink:href="#DejaVuSans-103"/>
       <use x="218.115234" xlink:href="#DejaVuSans-97"/>
       <use x="279.394531" xlink:href="#DejaVuSans-112"/>
       <use x="342.871094" xlink:href="#DejaVuSans-111"/>
       <use x="404.052734" xlink:href="#DejaVuSans-114"/>
       <use x="442.916016" xlink:href="#DejaVuSans-101"/>
      </g>
     </g>
    </g>
    <g id="ytick_20">
     <g id="line2d_27">
      <g>
       <use style="stroke:#000000;stroke-width:0.8;" x="90" xlink:href="#m61892d018a" y="100.8"/>
      </g>
     </g>
     <g id="text_29">
      <!-- Pakistan -->
      <g transform="translate(41.128125 104.599219)scale(0.1 -0.1)">
       <use xlink:href="#DejaVuSans-80"/>
       <use x="55.802734" xlink:href="#DejaVuSans-97"/>
       <use x="117.082031" xlink:href="#DejaVuSans-107"/>
       <use x="174.992188" xlink:href="#DejaVuSans-105"/>
       <use x="202.775391" xlink:href="#DejaVuSans-115"/>
       <use x="254.875" xlink:href="#DejaVuSans-116"/>
       <use x="294.083984" xlink:href="#DejaVuSans-97"/>
       <use x="355.363281" xlink:href="#DejaVuSans-110"/>
      </g>
     </g>
    </g>
    <g id="ytick_21">
     <g id="line2d_28">
      <g>
       <use style="stroke:#000000;stroke-width:0.8;" x="90" xlink:href="#m61892d018a" y="79.68"/>
      </g>
     </g>
     <g id="text_30">
      <!-- China -->
      <g transform="translate(54.435937 83.479219)scale(0.1 -0.1)">
       <use xlink:href="#DejaVuSans-67"/>
       <use x="69.824219" xlink:href="#DejaVuSans-104"/>
       <use x="133.203125" xlink:href="#DejaVuSans-105"/>
       <use x="160.986328" xlink:href="#DejaVuSans-110"/>
       <use x="224.365234" xlink:href="#DejaVuSans-97"/>
      </g>
     </g>
    </g>
    <g id="text_31">
     <!-- Country -->
     <g transform="translate(-3.34375 310.743281)rotate(-90)scale(0.1 -0.1)">
      <use xlink:href="#DejaVuSans-67"/>
      <use x="69.824219" xlink:href="#DejaVuSans-111"/>
      <use x="131.005859" xlink:href="#DejaVuSans-117"/>
      <use x="194.384766" xlink:href="#DejaVuSans-110"/>
      <use x="257.763672" xlink:href="#DejaVuSans-116"/>
      <use x="296.972656" xlink:href="#DejaVuSans-114"/>
      <use x="338.085938" xlink:href="#DejaVuSans-121"/>
     </g>
    </g>
   </g>
   <g id="patch_66">
    <path d="M 90 512.64 
L 90 69.12 
" style="fill:none;stroke:#000000;stroke-linecap:square;stroke-linejoin:miter;stroke-width:0.8;"/>
   </g>
   <g id="patch_67">
    <path d="M 648 512.64 
L 648 69.12 
" style="fill:none;stroke:#000000;stroke-linecap:square;stroke-linejoin:miter;stroke-width:0.8;"/>
   </g>
   <g id="patch_68">
    <path d="M 90 512.64 
L 648 512.64 
" style="fill:none;stroke:#000000;stroke-linecap:square;stroke-linejoin:miter;stroke-width:0.8;"/>
   </g>
   <g id="patch_69">
    <path d="M 90 69.12 
L 648 69.12 
" style="fill:none;stroke:#000000;stroke-linecap:square;stroke-linejoin:miter;stroke-width:0.8;"/>
   </g>
   <g id="text_32">
    <!-- Case numbers (2020-05-04) -->
    <defs>
     <path d="M 31 75.875 
Q 24.46875 64.65625 21.28125 53.65625 
Q 18.109375 42.671875 18.109375 31.390625 
Q 18.109375 20.125 21.3125 9.0625 
Q 24.515625 -2 31 -13.1875 
L 23.1875 -13.1875 
Q 15.875 -1.703125 12.234375 9.375 
Q 8.59375 20.453125 8.59375 31.390625 
Q 8.59375 42.28125 12.203125 53.3125 
Q 15.828125 64.359375 23.1875 75.875 
z
" id="DejaVuSans-40"/>
     <path d="M 4.890625 31.390625 
L 31.203125 31.390625 
L 31.203125 23.390625 
L 4.890625 23.390625 
z
" id="DejaVuSans-45"/>
     <path d="M 10.796875 72.90625 
L 49.515625 72.90625 
L 49.515625 64.59375 
L 19.828125 64.59375 
L 19.828125 46.734375 
Q 21.96875 47.46875 24.109375 47.828125 
Q 26.265625 48.1875 28.421875 48.1875 
Q 40.625 48.1875 47.75 41.5 
Q 54.890625 34.8125 54.890625 23.390625 
Q 54.890625 11.625 47.5625 5.09375 
Q 40.234375 -1.421875 26.90625 -1.421875 
Q 22.3125 -1.421875 17.546875 -0.640625 
Q 12.796875 0.140625 7.71875 1.703125 
L 7.71875 11.625 
Q 12.109375 9.234375 16.796875 8.0625 
Q 21.484375 6.890625 26.703125 6.890625 
Q 35.15625 6.890625 40.078125 11.328125 
Q 45.015625 15.765625 45.015625 23.390625 
Q 45.015625 31 40.078125 35.4375 
Q 35.15625 39.890625 26.703125 39.890625 
Q 22.75 39.890625 18.8125 39.015625 
Q 14.890625 38.140625 10.796875 36.28125 
z
" id="DejaVuSans-53"/>
     <path d="M 8.015625 75.875 
L 15.828125 75.875 
Q 23.140625 64.359375 26.78125 53.3125 
Q 30.421875 42.28125 30.421875 31.390625 
Q 30.421875 20.453125 26.78125 9.375 
Q 23.140625 -1.703125 15.828125 -13.1875 
L 8.015625 -13.1875 
Q 14.5 -2 17.703125 9.0625 
Q 20.90625 20.125 20.90625 31.390625 
Q 20.90625 42.671875 17.703125 53.65625 
Q 14.5 64.65625 8.015625 75.875 
z
" id="DejaVuSans-41"/>
    </defs>
    <g transform="translate(284.408437 63.12)scale(0.12 -0.12)">
     <use xlink:href="#DejaVuSans-67"/>
     <use x="69.824219" xlink:href="#DejaVuSans-97"/>
     <use x="131.103516" xlink:href="#DejaVuSans-115"/>
     <use x="183.203125" xlink:href="#DejaVuSans-101"/>
     <use x="244.726562" xlink:href="#DejaVuSans-32"/>
     <use x="276.513672" xlink:href="#DejaVuSans-110"/>
     <use x="339.892578" xlink:href="#DejaVuSans-117"/>
     <use x="403.271484" xlink:href="#DejaVuSans-109"/>
     <use x="500.683594" xlink:href="#DejaVuSans-98"/>
     <use x="564.160156" xlink:href="#DejaVuSans-101"/>
     <use x="625.683594" xlink:href="#DejaVuSans-114"/>
     <use x="666.796875" xlink:href="#DejaVuSans-115"/>
     <use x="718.896484" xlink:href="#DejaVuSans-32"/>
     <use x="750.683594" xlink:href="#DejaVuSans-40"/>
     <use x="789.697266" xlink:href="#DejaVuSans-50"/>
     <use x="853.320312" xlink:href="#DejaVuSans-48"/>
     <use x="916.943359" xlink:href="#DejaVuSans-50"/>
     <use x="980.566406" xlink:href="#DejaVuSans-48"/>
     <use x="1044.189453" xlink:href="#DejaVuSans-45"/>
     <use x="1080.273438" xlink:href="#DejaVuSans-48"/>
     <use x="1143.896484" xlink:href="#DejaVuSans-53"/>
     <use x="1207.519531" xlink:href="#DejaVuSans-45"/>
     <use x="1243.603516" xlink:href="#DejaVuSans-48"/>
     <use x="1307.226562" xlink:href="#DejaVuSans-52"/>
     <use x="1370.849609" xlink:href="#DejaVuSans-41"/>
    </g>
   </g>
   <g id="legend_1">
    <g id="patch_70">
     <path d="M 558.884375 121.154375 
L 641 121.154375 
Q 643 121.154375 643 119.154375 
L 643 76.12 
Q 643 74.12 641 74.12 
L 558.884375 74.12 
Q 556.884375 74.12 556.884375 76.12 
L 556.884375 119.154375 
Q 556.884375 121.154375 558.884375 121.154375 
z
" style="fill:#ffffff;opacity:0.8;stroke:#cccccc;stroke-linejoin:miter;"/>
    </g>
    <g id="patch_71">
     <path d="M 560.884375 85.718438 
L 580.884375 85.718438 
L 580.884375 78.718438 
L 560.884375 78.718438 
z
" style="fill:#0165fc;"/>
    </g>
    <g id="text_33">
     <!-- active -->
     <defs>
      <path d="M 2.984375 54.6875 
L 12.5 54.6875 
L 29.59375 8.796875 
L 46.6875 54.6875 
L 56.203125 54.6875 
L 35.6875 0 
L 23.484375 0 
z
" id="DejaVuSans-118"/>
     </defs>
     <g transform="translate(588.884375 85.718438)scale(0.1 -0.1)">
      <use xlink:href="#DejaVuSans-97"/>
      <use x="61.279297" xlink:href="#DejaVuSans-99"/>
      <use x="116.259766" xlink:href="#DejaVuSans-116"/>
      <use x="155.46875" xlink:href="#DejaVuSans-105"/>
      <use x="183.251953" xlink:href="#DejaVuSans-118"/>
      <use x="242.431641" xlink:href="#DejaVuSans-101"/>
     </g>
    </g>
    <g id="patch_72">
     <path d="M 560.884375 100.396563 
L 580.884375 100.396563 
L 580.884375 93.396563 
L 560.884375 93.396563 
z
" style="fill:#5ca904;"/>
    </g>
    <g id="text_34">
     <!-- recovered -->
     <g transform="translate(588.884375 100.396563)scale(0.1 -0.1)">
      <use xlink:href="#DejaVuSans-114"/>
      <use x="38.863281" xlink:href="#DejaVuSans-101"/>
      <use x="100.386719" xlink:href="#DejaVuSans-99"/>
      <use x="155.367188" xlink:href="#DejaVuSans-111"/>
      <use x="216.548828" xlink:href="#DejaVuSans-118"/>
      <use x="275.728516" xlink:href="#DejaVuSans-101"/>
      <use x="337.251953" xlink:href="#DejaVuSans-114"/>
      <use x="376.115234" xlink:href="#DejaVuSans-101"/>
      <use x="437.638672" xlink:href="#DejaVuSans-100"/>
     </g>
    </g>
    <g id="patch_73">
     <path d="M 560.884375 115.074688 
L 580.884375 115.074688 
L 580.884375 108.074688 
L 560.884375 108.074688 
z
" style="fill:#997570;"/>
    </g>
    <g id="text_35">
     <!-- deaths -->
     <g transform="translate(588.884375 115.074688)scale(0.1 -0.1)">
      <use xlink:href="#DejaVuSans-100"/>
      <use x="63.476562" xlink:href="#DejaVuSans-101"/>
      <use x="125" xlink:href="#DejaVuSans-97"/>
      <use x="186.279297" xlink:href="#DejaVuSans-116"/>
      <use x="225.488281" xlink:href="#DejaVuSans-104"/>
      <use x="288.867188" xlink:href="#DejaVuSans-115"/>
     </g>
    </g>
   </g>
  </g>
 </g>
 <defs>
  <clipPath id="p30bfa06da6">
   <rect height="443.52" width="558" x="90" y="69.12"/>
  </clipPath>
 </defs>
</svg>
