<?xml version="1.0" encoding="utf-8" standalone="no"?>
<!DOCTYPE svg PUBLIC "-//W3C//DTD SVG 1.1//EN"
  "http://www.w3.org/Graphics/SVG/1.1/DTD/svg11.dtd">
<!-- Created with matplotlib (https://matplotlib.org/) -->
<svg height="720pt" version="1.1" viewBox="0 0 720 720" width="720pt" xmlns="http://www.w3.org/2000/svg" xmlns:xlink="http://www.w3.org/1999/xlink">
 <metadata>
  <rdf:RDF xmlns:cc="http://creativecommons.org/ns#" xmlns:dc="http://purl.org/dc/elements/1.1/" xmlns:rdf="http://www.w3.org/1999/02/22-rdf-syntax-ns#">
   <cc:Work>
    <dc:type rdf:resource="http://purl.org/dc/dcmitype/StillImage"/>
    <dc:date>2020-11-19T09:56:03.659793</dc:date>
    <dc:format>image/svg+xml</dc:format>
    <dc:creator>
     <cc:Agent>
      <dc:title>Matplotlib v3.3.3, https://matplotlib.org/</dc:title>
     </cc:Agent>
    </dc:creator>
   </cc:Work>
  </rdf:RDF>
 </metadata>
 <defs>
  <style type="text/css">*{stroke-linecap:butt;stroke-linejoin:round;}</style>
 </defs>
 <g id="figure_1">
  <g id="patch_1">
   <path d="M 0 720 
L 720 720 
L 720 0 
L 0 0 
z
" style="fill:#ffffff;"/>
  </g>
  <g id="axes_1">
   <g id="patch_2">
    <path d="M 90 640.8 
L 648 640.8 
L 648 86.4 
L 90 86.4 
z
" style="fill:#ffffff;"/>
   </g>
   <g id="patch_3">
    <path clip-path="url(#pdee26a40a4)" d="M -126425.423569 636.329032 
L 442.874749 636.329032 
L 442.874749 631.858065 
L -126425.423569 631.858065 
z
" style="fill:#997570;"/>
   </g>
   <g id="patch_4">
    <path clip-path="url(#pdee26a40a4)" d="M -126425.423569 618.445161 
L 441.061177 618.445161 
L 441.061177 613.974194 
L -126425.423569 613.974194 
z
" style="fill:#997570;"/>
   </g>
   <g id="patch_5">
    <path clip-path="url(#pdee26a40a4)" d="M -126425.423569 600.56129 
L 433.241744 600.56129 
L 433.241744 596.090323 
L -126425.423569 596.090323 
z
" style="fill:#997570;"/>
   </g>
   <g id="patch_6">
    <path clip-path="url(#pdee26a40a4)" d="M -126425.423569 582.677419 
L 421.991436 582.677419 
L 421.991436 578.206452 
L -126425.423569 578.206452 
z
" style="fill:#997570;"/>
   </g>
   <g id="patch_7">
    <path clip-path="url(#pdee26a40a4)" d="M -126425.423569 564.793548 
L 416.680252 564.793548 
L 416.680252 560.322581 
L -126425.423569 560.322581 
z
" style="fill:#997570;"/>
   </g>
   <g id="patch_8">
    <path clip-path="url(#pdee26a40a4)" d="M -126425.423569 546.909677 
L 415.714163 546.909677 
L 415.714163 542.43871 
L -126425.423569 542.43871 
z
" style="fill:#997570;"/>
   </g>
   <g id="patch_9">
    <path clip-path="url(#pdee26a40a4)" d="M -126425.423569 529.025806 
L 415.492168 529.025806 
L 415.492168 524.554839 
L -126425.423569 524.554839 
z
" style="fill:#997570;"/>
   </g>
   <g id="patch_10">
    <path clip-path="url(#pdee26a40a4)" d="M -126425.423569 511.141935 
L 415.214008 511.141935 
L 415.214008 506.670968 
L -126425.423569 506.670968 
z
" style="fill:#997570;"/>
   </g>
   <g id="patch_11">
    <path clip-path="url(#pdee26a40a4)" d="M -126425.423569 493.258065 
L 414.750286 493.258065 
L 414.750286 488.787097 
L -126425.423569 488.787097 
z
" style="fill:#997570;"/>
   </g>
   <g id="patch_12">
    <path clip-path="url(#pdee26a40a4)" d="M -126425.423569 475.374194 
L 414.260934 475.374194 
L 414.260934 470.903226 
L -126425.423569 470.903226 
z
" style="fill:#997570;"/>
   </g>
   <g id="patch_13">
    <path clip-path="url(#pdee26a40a4)" d="M -126425.423569 457.490323 
L 414.233625 457.490323 
L 414.233625 453.019355 
L -126425.423569 453.019355 
z
" style="fill:#997570;"/>
   </g>
   <g id="patch_14">
    <path clip-path="url(#pdee26a40a4)" d="M -126425.423569 439.606452 
L 413.127803 439.606452 
L 413.127803 435.135484 
L -126425.423569 435.135484 
z
" style="fill:#997570;"/>
   </g>
   <g id="patch_15">
    <path clip-path="url(#pdee26a40a4)" d="M -126425.423569 421.722581 
L 412.998243 421.722581 
L 412.998243 417.251613 
L -126425.423569 417.251613 
z
" style="fill:#997570;"/>
   </g>
   <g id="patch_16">
    <path clip-path="url(#pdee26a40a4)" d="M -126425.423569 403.83871 
L 408.050132 403.83871 
L 408.050132 399.367742 
L -126425.423569 399.367742 
z
" style="fill:#997570;"/>
   </g>
   <g id="patch_17">
    <path clip-path="url(#pdee26a40a4)" d="M -126425.423569 385.954839 
L 407.886799 385.954839 
L 407.886799 381.483871 
L -126425.423569 381.483871 
z
" style="fill:#997570;"/>
   </g>
   <g id="patch_18">
    <path clip-path="url(#pdee26a40a4)" d="M -126425.423569 368.070968 
L 407.872883 368.070968 
L 407.872883 363.6 
L -126425.423569 363.6 
z
" style="fill:#997570;"/>
   </g>
   <g id="patch_19">
    <path clip-path="url(#pdee26a40a4)" d="M -126425.423569 350.187097 
L 405.837425 350.187097 
L 405.837425 345.716129 
L -126425.423569 345.716129 
z
" style="fill:#997570;"/>
   </g>
   <g id="patch_20">
    <path clip-path="url(#pdee26a40a4)" d="M -126425.423569 332.303226 
L 405.388405 332.303226 
L 405.388405 327.832258 
L -126425.423569 327.832258 
z
" style="fill:#997570;"/>
   </g>
   <g id="patch_21">
    <path clip-path="url(#pdee26a40a4)" d="M -126425.423569 314.419355 
L 402.772015 314.419355 
L 402.772015 309.948387 
L -126425.423569 309.948387 
z
" style="fill:#997570;"/>
   </g>
   <g id="patch_22">
    <path clip-path="url(#pdee26a40a4)" d="M -126425.423569 296.535484 
L 402.703101 296.535484 
L 402.703101 292.064516 
L -126425.423569 292.064516 
z
" style="fill:#997570;"/>
   </g>
   <g id="patch_23">
    <path clip-path="url(#pdee26a40a4)" d="M -126425.423569 278.651613 
L 402.263608 278.651613 
L 402.263608 274.180645 
L -126425.423569 274.180645 
z
" style="fill:#997570;"/>
   </g>
   <g id="patch_24">
    <path clip-path="url(#pdee26a40a4)" d="M -126425.423569 260.767742 
L 401.581979 260.767742 
L 401.581979 256.296774 
L -126425.423569 256.296774 
z
" style="fill:#997570;"/>
   </g>
   <g id="patch_25">
    <path clip-path="url(#pdee26a40a4)" d="M -126425.423569 242.883871 
L 398.260345 242.883871 
L 398.260345 238.412903 
L -126425.423569 238.412903 
z
" style="fill:#997570;"/>
   </g>
   <g id="patch_26">
    <path clip-path="url(#pdee26a40a4)" d="M -126425.423569 225 
L 392.367376 225 
L 392.367376 220.529032 
L -126425.423569 220.529032 
z
" style="fill:#997570;"/>
   </g>
   <g id="patch_27">
    <path clip-path="url(#pdee26a40a4)" d="M -126425.423569 207.116129 
L 390.679834 207.116129 
L 390.679834 202.645161 
L -126425.423569 202.645161 
z
" style="fill:#997570;"/>
   </g>
   <g id="patch_28">
    <path clip-path="url(#pdee26a40a4)" d="M -126425.423569 189.232258 
L 387.923016 189.232258 
L 387.923016 184.76129 
L -126425.423569 184.76129 
z
" style="fill:#997570;"/>
   </g>
   <g id="patch_29">
    <path clip-path="url(#pdee26a40a4)" d="M -126425.423569 171.348387 
L 385.823933 171.348387 
L 385.823933 166.877419 
L -126425.423569 166.877419 
z
" style="fill:#997570;"/>
   </g>
   <g id="patch_30">
    <path clip-path="url(#pdee26a40a4)" d="M -126425.423569 153.464516 
L 383.224254 153.464516 
L 383.224254 148.993548 
L -126425.423569 148.993548 
z
" style="fill:#997570;"/>
   </g>
   <g id="patch_31">
    <path clip-path="url(#pdee26a40a4)" d="M -126425.423569 135.580645 
L 382.921016 135.580645 
L 382.921016 131.109677 
L -126425.423569 131.109677 
z
" style="fill:#997570;"/>
   </g>
   <g id="patch_32">
    <path clip-path="url(#pdee26a40a4)" d="M -126425.423569 117.696774 
L 380.452808 117.696774 
L 380.452808 113.225806 
L -126425.423569 113.225806 
z
" style="fill:#997570;"/>
   </g>
   <g id="patch_33">
    <path clip-path="url(#pdee26a40a4)" d="M -126425.423569 99.812903 
L 115.363636 99.812903 
L 115.363636 95.341935 
L -126425.423569 95.341935 
z
" style="fill:#997570;"/>
   </g>
   <g id="patch_34">
    <path clip-path="url(#pdee26a40a4)" d="M -126425.423569 631.858065 
L -126425.423569 631.858065 
L -126425.423569 627.387097 
L -126425.423569 627.387097 
z
" style="fill:#5ca904;"/>
   </g>
   <g id="patch_35">
    <path clip-path="url(#pdee26a40a4)" d="M -126425.423569 613.974194 
L 615.098955 613.974194 
L 615.098955 609.503226 
L -126425.423569 609.503226 
z
" style="fill:#5ca904;"/>
   </g>
   <g id="patch_36">
    <path clip-path="url(#pdee26a40a4)" d="M -126425.423569 596.090323 
L 609.239647 596.090323 
L 609.239647 591.619355 
L -126425.423569 591.619355 
z
" style="fill:#5ca904;"/>
   </g>
   <g id="patch_37">
    <path clip-path="url(#pdee26a40a4)" d="M -126425.423569 578.206452 
L 492.06786 578.206452 
L 492.06786 573.735484 
L -126425.423569 573.735484 
z
" style="fill:#5ca904;"/>
   </g>
   <g id="patch_38">
    <path clip-path="url(#pdee26a40a4)" d="M -126425.423569 560.322581 
L 606.917969 560.322581 
L 606.917969 555.851613 
L -126425.423569 555.851613 
z
" style="fill:#5ca904;"/>
   </g>
   <g id="patch_39">
    <path clip-path="url(#pdee26a40a4)" d="M -126425.423569 542.43871 
L 261.095349 542.43871 
L 261.095349 537.967742 
L -126425.423569 537.967742 
z
" style="fill:#5ca904;"/>
   </g>
   <g id="patch_40">
    <path clip-path="url(#pdee26a40a4)" d="M -126425.423569 524.554839 
L 606.298321 524.554839 
L 606.298321 520.083871 
L -126425.423569 520.083871 
z
" style="fill:#5ca904;"/>
   </g>
   <g id="patch_41">
    <path clip-path="url(#pdee26a40a4)" d="M -126425.423569 506.670968 
L 609.560637 506.670968 
L 609.560637 502.2 
L -126425.423569 502.2 
z
" style="fill:#5ca904;"/>
   </g>
   <g id="patch_42">
    <path clip-path="url(#pdee26a40a4)" d="M -126425.423569 488.787097 
L 526.667738 488.787097 
L 526.667738 484.316129 
L -126425.423569 484.316129 
z
" style="fill:#5ca904;"/>
   </g>
   <g id="patch_43">
    <path clip-path="url(#pdee26a40a4)" d="M -126425.423569 470.903226 
L 556.678051 470.903226 
L 556.678051 466.432258 
L -126425.423569 466.432258 
z
" style="fill:#5ca904;"/>
   </g>
   <g id="patch_44">
    <path clip-path="url(#pdee26a40a4)" d="M -126425.423569 453.019355 
L 541.962783 453.019355 
L 541.962783 448.548387 
L -126425.423569 448.548387 
z
" style="fill:#5ca904;"/>
   </g>
   <g id="patch_45">
    <path clip-path="url(#pdee26a40a4)" d="M -126425.423569 435.135484 
L 570.073365 435.135484 
L 570.073365 430.664516 
L -126425.423569 430.664516 
z
" style="fill:#5ca904;"/>
   </g>
   <g id="patch_46">
    <path clip-path="url(#pdee26a40a4)" d="M -126425.423569 417.251613 
L 551.014288 417.251613 
L 551.014288 412.780645 
L -126425.423569 412.780645 
z
" style="fill:#5ca904;"/>
   </g>
   <g id="patch_47">
    <path clip-path="url(#pdee26a40a4)" d="M -126425.423569 399.367742 
L 472.476024 399.367742 
L 472.476024 394.896774 
L -126425.423569 394.896774 
z
" style="fill:#5ca904;"/>
   </g>
   <g id="patch_48">
    <path clip-path="url(#pdee26a40a4)" d="M -126425.423569 381.483871 
L 599.383529 381.483871 
L 599.383529 377.012903 
L -126425.423569 377.012903 
z
" style="fill:#5ca904;"/>
   </g>
   <g id="patch_49">
    <path clip-path="url(#pdee26a40a4)" d="M -126425.423569 363.6 
L 616.722293 363.6 
L 616.722293 359.129032 
L -126425.423569 359.129032 
z
" style="fill:#5ca904;"/>
   </g>
   <g id="patch_50">
    <path clip-path="url(#pdee26a40a4)" d="M -126425.423569 345.716129 
L 573.689536 345.716129 
L 573.689536 341.245161 
L -126425.423569 341.245161 
z
" style="fill:#5ca904;"/>
   </g>
   <g id="patch_51">
    <path clip-path="url(#pdee26a40a4)" d="M -126425.423569 327.832258 
L 614.032011 327.832258 
L 614.032011 323.36129 
L -126425.423569 323.36129 
z
" style="fill:#5ca904;"/>
   </g>
   <g id="patch_52">
    <path clip-path="url(#pdee26a40a4)" d="M -126425.423569 309.948387 
L 622.636364 309.948387 
L 622.636364 305.477419 
L -126425.423569 305.477419 
z
" style="fill:#5ca904;"/>
   </g>
   <g id="patch_53">
    <path clip-path="url(#pdee26a40a4)" d="M -126425.423569 292.064516 
L 614.701387 292.064516 
L 614.701387 287.593548 
L -126425.423569 287.593548 
z
" style="fill:#5ca904;"/>
   </g>
   <g id="patch_54">
    <path clip-path="url(#pdee26a40a4)" d="M -126425.423569 274.180645 
L 564.423306 274.180645 
L 564.423306 269.709677 
L -126425.423569 269.709677 
z
" style="fill:#5ca904;"/>
   </g>
   <g id="patch_55">
    <path clip-path="url(#pdee26a40a4)" d="M -126425.423569 256.296774 
L -126425.423569 256.296774 
L -126425.423569 251.825806 
L -126425.423569 251.825806 
z
" style="fill:#5ca904;"/>
   </g>
   <g id="patch_56">
    <path clip-path="url(#pdee26a40a4)" d="M -126425.423569 238.412903 
L 595.020058 238.412903 
L 595.020058 233.941935 
L -126425.423569 233.941935 
z
" style="fill:#5ca904;"/>
   </g>
   <g id="patch_57">
    <path clip-path="url(#pdee26a40a4)" d="M -126425.423569 220.529032 
L 535.209026 220.529032 
L 535.209026 216.058065 
L -126425.423569 216.058065 
z
" style="fill:#5ca904;"/>
   </g>
   <g id="patch_58">
    <path clip-path="url(#pdee26a40a4)" d="M -126425.423569 202.645161 
L 374.50205 202.645161 
L 374.50205 198.174194 
L -126425.423569 198.174194 
z
" style="fill:#5ca904;"/>
   </g>
   <g id="patch_59">
    <path clip-path="url(#pdee26a40a4)" d="M -126425.423569 184.76129 
L 570.583853 184.76129 
L 570.583853 180.290323 
L -126425.423569 180.290323 
z
" style="fill:#5ca904;"/>
   </g>
   <g id="patch_60">
    <path clip-path="url(#pdee26a40a4)" d="M -126425.423569 166.877419 
L 554.083798 166.877419 
L 554.083798 162.406452 
L -126425.423569 162.406452 
z
" style="fill:#5ca904;"/>
   </g>
   <g id="patch_61">
    <path clip-path="url(#pdee26a40a4)" d="M -126425.423569 148.993548 
L 588.597873 148.993548 
L 588.597873 144.522581 
L -126425.423569 144.522581 
z
" style="fill:#5ca904;"/>
   </g>
   <g id="patch_62">
    <path clip-path="url(#pdee26a40a4)" d="M -126425.423569 131.109677 
L 595.760112 131.109677 
L 595.760112 126.63871 
L -126425.423569 126.63871 
z
" style="fill:#5ca904;"/>
   </g>
   <g id="patch_63">
    <path clip-path="url(#pdee26a40a4)" d="M -126425.423569 113.225806 
L 573.749604 113.225806 
L 573.749604 108.754839 
L -126425.423569 108.754839 
z
" style="fill:#5ca904;"/>
   </g>
   <g id="patch_64">
    <path clip-path="url(#pdee26a40a4)" d="M -126425.423569 95.341935 
L 275.140152 95.341935 
L 275.140152 90.870968 
L -126425.423569 90.870968 
z
" style="fill:#5ca904;"/>
   </g>
   <g id="matplotlib.axis_1">
    <g id="xtick_1">
     <g id="line2d_1">
      <defs>
       <path d="M 0 0 
L 0 3.5 
" id="m23b82ee1e7" style="stroke:#000000;stroke-width:0.8;"/>
      </defs>
      <g>
       <use style="stroke:#000000;stroke-width:0.8;" x="174.600469" xlink:href="#m23b82ee1e7" y="640.8"/>
      </g>
     </g>
     <g id="text_1">
      <!-- $\mathdefault{10^{0}}$ -->
      <g transform="translate(165.800469 655.398438)scale(0.1 -0.1)">
       <defs>
        <path d="M 12.40625 8.296875 
L 28.515625 8.296875 
L 28.515625 63.921875 
L 10.984375 60.40625 
L 10.984375 69.390625 
L 28.421875 72.90625 
L 38.28125 72.90625 
L 38.28125 8.296875 
L 54.390625 8.296875 
L 54.390625 0 
L 12.40625 0 
z
" id="DejaVuSans-49"/>
        <path d="M 31.78125 66.40625 
Q 24.171875 66.40625 20.328125 58.90625 
Q 16.5 51.421875 16.5 36.375 
Q 16.5 21.390625 20.328125 13.890625 
Q 24.171875 6.390625 31.78125 6.390625 
Q 39.453125 6.390625 43.28125 13.890625 
Q 47.125 21.390625 47.125 36.375 
Q 47.125 51.421875 43.28125 58.90625 
Q 39.453125 66.40625 31.78125 66.40625 
z
M 31.78125 74.21875 
Q 44.046875 74.21875 50.515625 64.515625 
Q 56.984375 54.828125 56.984375 36.375 
Q 56.984375 17.96875 50.515625 8.265625 
Q 44.046875 -1.421875 31.78125 -1.421875 
Q 19.53125 -1.421875 13.0625 8.265625 
Q 6.59375 17.96875 6.59375 36.375 
Q 6.59375 54.828125 13.0625 64.515625 
Q 19.53125 74.21875 31.78125 74.21875 
z
" id="DejaVuSans-48"/>
       </defs>
       <use transform="translate(0 0.765625)" xlink:href="#DejaVuSans-49"/>
       <use transform="translate(63.623047 0.765625)" xlink:href="#DejaVuSans-48"/>
       <use transform="translate(128.203125 39.046875)scale(0.7)" xlink:href="#DejaVuSans-48"/>
      </g>
     </g>
    </g>
    <g id="xtick_2">
     <g id="line2d_2">
      <g>
       <use style="stroke:#000000;stroke-width:0.8;" x="301.200493" xlink:href="#m23b82ee1e7" y="640.8"/>
      </g>
     </g>
     <g id="text_2">
      <!-- $\mathdefault{10^{1}}$ -->
      <g transform="translate(292.400493 655.398438)scale(0.1 -0.1)">
       <use transform="translate(0 0.684375)" xlink:href="#DejaVuSans-49"/>
       <use transform="translate(63.623047 0.684375)" xlink:href="#DejaVuSans-48"/>
       <use transform="translate(128.203125 38.965625)scale(0.7)" xlink:href="#DejaVuSans-49"/>
      </g>
     </g>
    </g>
    <g id="xtick_3">
     <g id="line2d_3">
      <g>
       <use style="stroke:#000000;stroke-width:0.8;" x="427.800517" xlink:href="#m23b82ee1e7" y="640.8"/>
      </g>
     </g>
     <g id="text_3">
      <!-- $\mathdefault{10^{2}}$ -->
      <g transform="translate(419.000517 655.398438)scale(0.1 -0.1)">
       <defs>
        <path d="M 19.1875 8.296875 
L 53.609375 8.296875 
L 53.609375 0 
L 7.328125 0 
L 7.328125 8.296875 
Q 12.9375 14.109375 22.625 23.890625 
Q 32.328125 33.6875 34.8125 36.53125 
Q 39.546875 41.84375 41.421875 45.53125 
Q 43.3125 49.21875 43.3125 52.78125 
Q 43.3125 58.59375 39.234375 62.25 
Q 35.15625 65.921875 28.609375 65.921875 
Q 23.96875 65.921875 18.8125 64.3125 
Q 13.671875 62.703125 7.8125 59.421875 
L 7.8125 69.390625 
Q 13.765625 71.78125 18.9375 73 
Q 24.125 74.21875 28.421875 74.21875 
Q 39.75 74.21875 46.484375 68.546875 
Q 53.21875 62.890625 53.21875 53.421875 
Q 53.21875 48.921875 51.53125 44.890625 
Q 49.859375 40.875 45.40625 35.40625 
Q 44.1875 33.984375 37.640625 27.21875 
Q 31.109375 20.453125 19.1875 8.296875 
z
" id="DejaVuSans-50"/>
       </defs>
       <use transform="translate(0 0.765625)" xlink:href="#DejaVuSans-49"/>
       <use transform="translate(63.623047 0.765625)" xlink:href="#DejaVuSans-48"/>
       <use transform="translate(128.203125 39.046875)scale(0.7)" xlink:href="#DejaVuSans-50"/>
      </g>
     </g>
    </g>
    <g id="xtick_4">
     <g id="line2d_4">
      <g>
       <use style="stroke:#000000;stroke-width:0.8;" x="554.400541" xlink:href="#m23b82ee1e7" y="640.8"/>
      </g>
     </g>
     <g id="text_4">
      <!-- $\mathdefault{10^{3}}$ -->
      <g transform="translate(545.600541 655.398438)scale(0.1 -0.1)">
       <defs>
        <path d="M 40.578125 39.3125 
Q 47.65625 37.796875 51.625 33 
Q 55.609375 28.21875 55.609375 21.1875 
Q 55.609375 10.40625 48.1875 4.484375 
Q 40.765625 -1.421875 27.09375 -1.421875 
Q 22.515625 -1.421875 17.65625 -0.515625 
Q 12.796875 0.390625 7.625 2.203125 
L 7.625 11.71875 
Q 11.71875 9.328125 16.59375 8.109375 
Q 21.484375 6.890625 26.8125 6.890625 
Q 36.078125 6.890625 40.9375 10.546875 
Q 45.796875 14.203125 45.796875 21.1875 
Q 45.796875 27.640625 41.28125 31.265625 
Q 36.765625 34.90625 28.71875 34.90625 
L 20.21875 34.90625 
L 20.21875 43.015625 
L 29.109375 43.015625 
Q 36.375 43.015625 40.234375 45.921875 
Q 44.09375 48.828125 44.09375 54.296875 
Q 44.09375 59.90625 40.109375 62.90625 
Q 36.140625 65.921875 28.71875 65.921875 
Q 24.65625 65.921875 20.015625 65.03125 
Q 15.375 64.15625 9.8125 62.3125 
L 9.8125 71.09375 
Q 15.4375 72.65625 20.34375 73.4375 
Q 25.25 74.21875 29.59375 74.21875 
Q 40.828125 74.21875 47.359375 69.109375 
Q 53.90625 64.015625 53.90625 55.328125 
Q 53.90625 49.265625 50.4375 45.09375 
Q 46.96875 40.921875 40.578125 39.3125 
z
" id="DejaVuSans-51"/>
       </defs>
       <use transform="translate(0 0.765625)" xlink:href="#DejaVuSans-49"/>
       <use transform="translate(63.623047 0.765625)" xlink:href="#DejaVuSans-48"/>
       <use transform="translate(128.203125 39.046875)scale(0.7)" xlink:href="#DejaVuSans-51"/>
      </g>
     </g>
    </g>
    <g id="xtick_5">
     <g id="line2d_5">
      <defs>
       <path d="M 0 0 
L 0 2 
" id="m39f5863c19" style="stroke:#000000;stroke-width:0.6;"/>
      </defs>
      <g>
       <use style="stroke:#000000;stroke-width:0.6;" x="108.404007" xlink:href="#m39f5863c19" y="640.8"/>
      </g>
     </g>
    </g>
    <g id="xtick_6">
     <g id="line2d_6">
      <g>
       <use style="stroke:#000000;stroke-width:0.6;" x="124.221254" xlink:href="#m39f5863c19" y="640.8"/>
      </g>
     </g>
    </g>
    <g id="xtick_7">
     <g id="line2d_7">
      <g>
       <use style="stroke:#000000;stroke-width:0.6;" x="136.490064" xlink:href="#m39f5863c19" y="640.8"/>
      </g>
     </g>
    </g>
    <g id="xtick_8">
     <g id="line2d_8">
      <g>
       <use style="stroke:#000000;stroke-width:0.6;" x="146.514412" xlink:href="#m39f5863c19" y="640.8"/>
      </g>
     </g>
    </g>
    <g id="xtick_9">
     <g id="line2d_9">
      <g>
       <use style="stroke:#000000;stroke-width:0.6;" x="154.989877" xlink:href="#m39f5863c19" y="640.8"/>
      </g>
     </g>
    </g>
    <g id="xtick_10">
     <g id="line2d_10">
      <g>
       <use style="stroke:#000000;stroke-width:0.6;" x="162.331659" xlink:href="#m39f5863c19" y="640.8"/>
      </g>
     </g>
    </g>
    <g id="xtick_11">
     <g id="line2d_11">
      <g>
       <use style="stroke:#000000;stroke-width:0.6;" x="168.807569" xlink:href="#m39f5863c19" y="640.8"/>
      </g>
     </g>
    </g>
    <g id="xtick_12">
     <g id="line2d_12">
      <g>
       <use style="stroke:#000000;stroke-width:0.6;" x="212.710874" xlink:href="#m39f5863c19" y="640.8"/>
      </g>
     </g>
    </g>
    <g id="xtick_13">
     <g id="line2d_13">
      <g>
       <use style="stroke:#000000;stroke-width:0.6;" x="235.004031" xlink:href="#m39f5863c19" y="640.8"/>
      </g>
     </g>
    </g>
    <g id="xtick_14">
     <g id="line2d_14">
      <g>
       <use style="stroke:#000000;stroke-width:0.6;" x="250.821278" xlink:href="#m39f5863c19" y="640.8"/>
      </g>
     </g>
    </g>
    <g id="xtick_15">
     <g id="line2d_15">
      <g>
       <use style="stroke:#000000;stroke-width:0.6;" x="263.090088" xlink:href="#m39f5863c19" y="640.8"/>
      </g>
     </g>
    </g>
    <g id="xtick_16">
     <g id="line2d_16">
      <g>
       <use style="stroke:#000000;stroke-width:0.6;" x="273.114436" xlink:href="#m39f5863c19" y="640.8"/>
      </g>
     </g>
    </g>
    <g id="xtick_17">
     <g id="line2d_17">
      <g>
       <use style="stroke:#000000;stroke-width:0.6;" x="281.589901" xlink:href="#m39f5863c19" y="640.8"/>
      </g>
     </g>
    </g>
    <g id="xtick_18">
     <g id="line2d_18">
      <g>
       <use style="stroke:#000000;stroke-width:0.6;" x="288.931683" xlink:href="#m39f5863c19" y="640.8"/>
      </g>
     </g>
    </g>
    <g id="xtick_19">
     <g id="line2d_19">
      <g>
       <use style="stroke:#000000;stroke-width:0.6;" x="295.407593" xlink:href="#m39f5863c19" y="640.8"/>
      </g>
     </g>
    </g>
    <g id="xtick_20">
     <g id="line2d_20">
      <g>
       <use style="stroke:#000000;stroke-width:0.6;" x="339.310898" xlink:href="#m39f5863c19" y="640.8"/>
      </g>
     </g>
    </g>
    <g id="xtick_21">
     <g id="line2d_21">
      <g>
       <use style="stroke:#000000;stroke-width:0.6;" x="361.604055" xlink:href="#m39f5863c19" y="640.8"/>
      </g>
     </g>
    </g>
    <g id="xtick_22">
     <g id="line2d_22">
      <g>
       <use style="stroke:#000000;stroke-width:0.6;" x="377.421302" xlink:href="#m39f5863c19" y="640.8"/>
      </g>
     </g>
    </g>
    <g id="xtick_23">
     <g id="line2d_23">
      <g>
       <use style="stroke:#000000;stroke-width:0.6;" x="389.690112" xlink:href="#m39f5863c19" y="640.8"/>
      </g>
     </g>
    </g>
    <g id="xtick_24">
     <g id="line2d_24">
      <g>
       <use style="stroke:#000000;stroke-width:0.6;" x="399.71446" xlink:href="#m39f5863c19" y="640.8"/>
      </g>
     </g>
    </g>
    <g id="xtick_25">
     <g id="line2d_25">
      <g>
       <use style="stroke:#000000;stroke-width:0.6;" x="408.189925" xlink:href="#m39f5863c19" y="640.8"/>
      </g>
     </g>
    </g>
    <g id="xtick_26">
     <g id="line2d_26">
      <g>
       <use style="stroke:#000000;stroke-width:0.6;" x="415.531707" xlink:href="#m39f5863c19" y="640.8"/>
      </g>
     </g>
    </g>
    <g id="xtick_27">
     <g id="line2d_27">
      <g>
       <use style="stroke:#000000;stroke-width:0.6;" x="422.007618" xlink:href="#m39f5863c19" y="640.8"/>
      </g>
     </g>
    </g>
    <g id="xtick_28">
     <g id="line2d_28">
      <g>
       <use style="stroke:#000000;stroke-width:0.6;" x="465.910922" xlink:href="#m39f5863c19" y="640.8"/>
      </g>
     </g>
    </g>
    <g id="xtick_29">
     <g id="line2d_29">
      <g>
       <use style="stroke:#000000;stroke-width:0.6;" x="488.204079" xlink:href="#m39f5863c19" y="640.8"/>
      </g>
     </g>
    </g>
    <g id="xtick_30">
     <g id="line2d_30">
      <g>
       <use style="stroke:#000000;stroke-width:0.6;" x="504.021326" xlink:href="#m39f5863c19" y="640.8"/>
      </g>
     </g>
    </g>
    <g id="xtick_31">
     <g id="line2d_31">
      <g>
       <use style="stroke:#000000;stroke-width:0.6;" x="516.290136" xlink:href="#m39f5863c19" y="640.8"/>
      </g>
     </g>
    </g>
    <g id="xtick_32">
     <g id="line2d_32">
      <g>
       <use style="stroke:#000000;stroke-width:0.6;" x="526.314484" xlink:href="#m39f5863c19" y="640.8"/>
      </g>
     </g>
    </g>
    <g id="xtick_33">
     <g id="line2d_33">
      <g>
       <use style="stroke:#000000;stroke-width:0.6;" x="534.789949" xlink:href="#m39f5863c19" y="640.8"/>
      </g>
     </g>
    </g>
    <g id="xtick_34">
     <g id="line2d_34">
      <g>
       <use style="stroke:#000000;stroke-width:0.6;" x="542.131731" xlink:href="#m39f5863c19" y="640.8"/>
      </g>
     </g>
    </g>
    <g id="xtick_35">
     <g id="line2d_35">
      <g>
       <use style="stroke:#000000;stroke-width:0.6;" x="548.607642" xlink:href="#m39f5863c19" y="640.8"/>
      </g>
     </g>
    </g>
    <g id="xtick_36">
     <g id="line2d_36">
      <g>
       <use style="stroke:#000000;stroke-width:0.6;" x="592.510946" xlink:href="#m39f5863c19" y="640.8"/>
      </g>
     </g>
    </g>
    <g id="xtick_37">
     <g id="line2d_37">
      <g>
       <use style="stroke:#000000;stroke-width:0.6;" x="614.804103" xlink:href="#m39f5863c19" y="640.8"/>
      </g>
     </g>
    </g>
    <g id="xtick_38">
     <g id="line2d_38">
      <g>
       <use style="stroke:#000000;stroke-width:0.6;" x="630.62135" xlink:href="#m39f5863c19" y="640.8"/>
      </g>
     </g>
    </g>
    <g id="xtick_39">
     <g id="line2d_39">
      <g>
       <use style="stroke:#000000;stroke-width:0.6;" x="642.89016" xlink:href="#m39f5863c19" y="640.8"/>
      </g>
     </g>
    </g>
    <g id="text_5">
     <!-- capita / 100000 -->
     <g transform="translate(329.649219 669.076563)scale(0.1 -0.1)">
      <defs>
       <path d="M 48.78125 52.59375 
L 48.78125 44.1875 
Q 44.96875 46.296875 41.140625 47.34375 
Q 37.3125 48.390625 33.40625 48.390625 
Q 24.65625 48.390625 19.8125 42.84375 
Q 14.984375 37.3125 14.984375 27.296875 
Q 14.984375 17.28125 19.8125 11.734375 
Q 24.65625 6.203125 33.40625 6.203125 
Q 37.3125 6.203125 41.140625 7.25 
Q 44.96875 8.296875 48.78125 10.40625 
L 48.78125 2.09375 
Q 45.015625 0.34375 40.984375 -0.53125 
Q 36.96875 -1.421875 32.421875 -1.421875 
Q 20.0625 -1.421875 12.78125 6.34375 
Q 5.515625 14.109375 5.515625 27.296875 
Q 5.515625 40.671875 12.859375 48.328125 
Q 20.21875 56 33.015625 56 
Q 37.15625 56 41.109375 55.140625 
Q 45.0625 54.296875 48.78125 52.59375 
z
" id="DejaVuSans-99"/>
       <path d="M 34.28125 27.484375 
Q 23.390625 27.484375 19.1875 25 
Q 14.984375 22.515625 14.984375 16.5 
Q 14.984375 11.71875 18.140625 8.90625 
Q 21.296875 6.109375 26.703125 6.109375 
Q 34.1875 6.109375 38.703125 11.40625 
Q 43.21875 16.703125 43.21875 25.484375 
L 43.21875 27.484375 
z
M 52.203125 31.203125 
L 52.203125 0 
L 43.21875 0 
L 43.21875 8.296875 
Q 40.140625 3.328125 35.546875 0.953125 
Q 30.953125 -1.421875 24.3125 -1.421875 
Q 15.921875 -1.421875 10.953125 3.296875 
Q 6 8.015625 6 15.921875 
Q 6 25.140625 12.171875 29.828125 
Q 18.359375 34.515625 30.609375 34.515625 
L 43.21875 34.515625 
L 43.21875 35.40625 
Q 43.21875 41.609375 39.140625 45 
Q 35.0625 48.390625 27.6875 48.390625 
Q 23 48.390625 18.546875 47.265625 
Q 14.109375 46.140625 10.015625 43.890625 
L 10.015625 52.203125 
Q 14.9375 54.109375 19.578125 55.046875 
Q 24.21875 56 28.609375 56 
Q 40.484375 56 46.34375 49.84375 
Q 52.203125 43.703125 52.203125 31.203125 
z
" id="DejaVuSans-97"/>
       <path d="M 18.109375 8.203125 
L 18.109375 -20.796875 
L 9.078125 -20.796875 
L 9.078125 54.6875 
L 18.109375 54.6875 
L 18.109375 46.390625 
Q 20.953125 51.265625 25.265625 53.625 
Q 29.59375 56 35.59375 56 
Q 45.5625 56 51.78125 48.09375 
Q 58.015625 40.1875 58.015625 27.296875 
Q 58.015625 14.40625 51.78125 6.484375 
Q 45.5625 -1.421875 35.59375 -1.421875 
Q 29.59375 -1.421875 25.265625 0.953125 
Q 20.953125 3.328125 18.109375 8.203125 
z
M 48.6875 27.296875 
Q 48.6875 37.203125 44.609375 42.84375 
Q 40.53125 48.484375 33.40625 48.484375 
Q 26.265625 48.484375 22.1875 42.84375 
Q 18.109375 37.203125 18.109375 27.296875 
Q 18.109375 17.390625 22.1875 11.75 
Q 26.265625 6.109375 33.40625 6.109375 
Q 40.53125 6.109375 44.609375 11.75 
Q 48.6875 17.390625 48.6875 27.296875 
z
" id="DejaVuSans-112"/>
       <path d="M 9.421875 54.6875 
L 18.40625 54.6875 
L 18.40625 0 
L 9.421875 0 
z
M 9.421875 75.984375 
L 18.40625 75.984375 
L 18.40625 64.59375 
L 9.421875 64.59375 
z
" id="DejaVuSans-105"/>
       <path d="M 18.3125 70.21875 
L 18.3125 54.6875 
L 36.8125 54.6875 
L 36.8125 47.703125 
L 18.3125 47.703125 
L 18.3125 18.015625 
Q 18.3125 11.328125 20.140625 9.421875 
Q 21.96875 7.515625 27.59375 7.515625 
L 36.8125 7.515625 
L 36.8125 0 
L 27.59375 0 
Q 17.1875 0 13.234375 3.875 
Q 9.28125 7.765625 9.28125 18.015625 
L 9.28125 47.703125 
L 2.6875 47.703125 
L 2.6875 54.6875 
L 9.28125 54.6875 
L 9.28125 70.21875 
z
" id="DejaVuSans-116"/>
       <path id="DejaVuSans-32"/>
       <path d="M 25.390625 72.90625 
L 33.6875 72.90625 
L 8.296875 -9.28125 
L 0 -9.28125 
z
" id="DejaVuSans-47"/>
      </defs>
      <use xlink:href="#DejaVuSans-99"/>
      <use x="54.980469" xlink:href="#DejaVuSans-97"/>
      <use x="116.259766" xlink:href="#DejaVuSans-112"/>
      <use x="179.736328" xlink:href="#DejaVuSans-105"/>
      <use x="207.519531" xlink:href="#DejaVuSans-116"/>
      <use x="246.728516" xlink:href="#DejaVuSans-97"/>
      <use x="308.007812" xlink:href="#DejaVuSans-32"/>
      <use x="339.794922" xlink:href="#DejaVuSans-47"/>
      <use x="373.486328" xlink:href="#DejaVuSans-32"/>
      <use x="405.273438" xlink:href="#DejaVuSans-49"/>
      <use x="468.896484" xlink:href="#DejaVuSans-48"/>
      <use x="532.519531" xlink:href="#DejaVuSans-48"/>
      <use x="596.142578" xlink:href="#DejaVuSans-48"/>
      <use x="659.765625" xlink:href="#DejaVuSans-48"/>
      <use x="723.388672" xlink:href="#DejaVuSans-48"/>
     </g>
    </g>
   </g>
   <g id="matplotlib.axis_2">
    <g id="ytick_1">
     <g id="line2d_40">
      <defs>
       <path d="M 0 0 
L -3.5 0 
" id="m9a27e0d3c8" style="stroke:#000000;stroke-width:0.8;"/>
      </defs>
      <g>
       <use style="stroke:#000000;stroke-width:0.8;" x="90" xlink:href="#m9a27e0d3c8" y="631.858065"/>
      </g>
     </g>
     <g id="text_6">
      <!-- Belgium -->
      <g transform="translate(42.003125 635.657283)scale(0.1 -0.1)">
       <defs>
        <path d="M 19.671875 34.8125 
L 19.671875 8.109375 
L 35.5 8.109375 
Q 43.453125 8.109375 47.28125 11.40625 
Q 51.125 14.703125 51.125 21.484375 
Q 51.125 28.328125 47.28125 31.5625 
Q 43.453125 34.8125 35.5 34.8125 
z
M 19.671875 64.796875 
L 19.671875 42.828125 
L 34.28125 42.828125 
Q 41.5 42.828125 45.03125 45.53125 
Q 48.578125 48.25 48.578125 53.8125 
Q 48.578125 59.328125 45.03125 62.0625 
Q 41.5 64.796875 34.28125 64.796875 
z
M 9.8125 72.90625 
L 35.015625 72.90625 
Q 46.296875 72.90625 52.390625 68.21875 
Q 58.5 63.53125 58.5 54.890625 
Q 58.5 48.1875 55.375 44.234375 
Q 52.25 40.28125 46.1875 39.3125 
Q 53.46875 37.75 57.5 32.78125 
Q 61.53125 27.828125 61.53125 20.40625 
Q 61.53125 10.640625 54.890625 5.3125 
Q 48.25 0 35.984375 0 
L 9.8125 0 
z
" id="DejaVuSans-66"/>
        <path d="M 56.203125 29.59375 
L 56.203125 25.203125 
L 14.890625 25.203125 
Q 15.484375 15.921875 20.484375 11.0625 
Q 25.484375 6.203125 34.421875 6.203125 
Q 39.59375 6.203125 44.453125 7.46875 
Q 49.3125 8.734375 54.109375 11.28125 
L 54.109375 2.78125 
Q 49.265625 0.734375 44.1875 -0.34375 
Q 39.109375 -1.421875 33.890625 -1.421875 
Q 20.796875 -1.421875 13.15625 6.1875 
Q 5.515625 13.8125 5.515625 26.8125 
Q 5.515625 40.234375 12.765625 48.109375 
Q 20.015625 56 32.328125 56 
Q 43.359375 56 49.78125 48.890625 
Q 56.203125 41.796875 56.203125 29.59375 
z
M 47.21875 32.234375 
Q 47.125 39.59375 43.09375 43.984375 
Q 39.0625 48.390625 32.421875 48.390625 
Q 24.90625 48.390625 20.390625 44.140625 
Q 15.875 39.890625 15.1875 32.171875 
z
" id="DejaVuSans-101"/>
        <path d="M 9.421875 75.984375 
L 18.40625 75.984375 
L 18.40625 0 
L 9.421875 0 
z
" id="DejaVuSans-108"/>
        <path d="M 45.40625 27.984375 
Q 45.40625 37.75 41.375 43.109375 
Q 37.359375 48.484375 30.078125 48.484375 
Q 22.859375 48.484375 18.828125 43.109375 
Q 14.796875 37.75 14.796875 27.984375 
Q 14.796875 18.265625 18.828125 12.890625 
Q 22.859375 7.515625 30.078125 7.515625 
Q 37.359375 7.515625 41.375 12.890625 
Q 45.40625 18.265625 45.40625 27.984375 
z
M 54.390625 6.78125 
Q 54.390625 -7.171875 48.1875 -13.984375 
Q 42 -20.796875 29.203125 -20.796875 
Q 24.46875 -20.796875 20.265625 -20.09375 
Q 16.0625 -19.390625 12.109375 -17.921875 
L 12.109375 -9.1875 
Q 16.0625 -11.328125 19.921875 -12.34375 
Q 23.78125 -13.375 27.78125 -13.375 
Q 36.625 -13.375 41.015625 -8.765625 
Q 45.40625 -4.15625 45.40625 5.171875 
L 45.40625 9.625 
Q 42.625 4.78125 38.28125 2.390625 
Q 33.9375 0 27.875 0 
Q 17.828125 0 11.671875 7.65625 
Q 5.515625 15.328125 5.515625 27.984375 
Q 5.515625 40.671875 11.671875 48.328125 
Q 17.828125 56 27.875 56 
Q 33.9375 56 38.28125 53.609375 
Q 42.625 51.21875 45.40625 46.390625 
L 45.40625 54.6875 
L 54.390625 54.6875 
z
" id="DejaVuSans-103"/>
        <path d="M 8.5 21.578125 
L 8.5 54.6875 
L 17.484375 54.6875 
L 17.484375 21.921875 
Q 17.484375 14.15625 20.5 10.265625 
Q 23.53125 6.390625 29.59375 6.390625 
Q 36.859375 6.390625 41.078125 11.03125 
Q 45.3125 15.671875 45.3125 23.6875 
L 45.3125 54.6875 
L 54.296875 54.6875 
L 54.296875 0 
L 45.3125 0 
L 45.3125 8.40625 
Q 42.046875 3.421875 37.71875 1 
Q 33.40625 -1.421875 27.6875 -1.421875 
Q 18.265625 -1.421875 13.375 4.4375 
Q 8.5 10.296875 8.5 21.578125 
z
M 31.109375 56 
z
" id="DejaVuSans-117"/>
        <path d="M 52 44.1875 
Q 55.375 50.25 60.0625 53.125 
Q 64.75 56 71.09375 56 
Q 79.640625 56 84.28125 50.015625 
Q 88.921875 44.046875 88.921875 33.015625 
L 88.921875 0 
L 79.890625 0 
L 79.890625 32.71875 
Q 79.890625 40.578125 77.09375 44.375 
Q 74.3125 48.1875 68.609375 48.1875 
Q 61.625 48.1875 57.5625 43.546875 
Q 53.515625 38.921875 53.515625 30.90625 
L 53.515625 0 
L 44.484375 0 
L 44.484375 32.71875 
Q 44.484375 40.625 41.703125 44.40625 
Q 38.921875 48.1875 33.109375 48.1875 
Q 26.21875 48.1875 22.15625 43.53125 
Q 18.109375 38.875 18.109375 30.90625 
L 18.109375 0 
L 9.078125 0 
L 9.078125 54.6875 
L 18.109375 54.6875 
L 18.109375 46.1875 
Q 21.1875 51.21875 25.484375 53.609375 
Q 29.78125 56 35.6875 56 
Q 41.65625 56 45.828125 52.96875 
Q 50 49.953125 52 44.1875 
z
" id="DejaVuSans-109"/>
       </defs>
       <use xlink:href="#DejaVuSans-66"/>
       <use x="68.603516" xlink:href="#DejaVuSans-101"/>
       <use x="130.126953" xlink:href="#DejaVuSans-108"/>
       <use x="157.910156" xlink:href="#DejaVuSans-103"/>
       <use x="221.386719" xlink:href="#DejaVuSans-105"/>
       <use x="249.169922" xlink:href="#DejaVuSans-117"/>
       <use x="312.548828" xlink:href="#DejaVuSans-109"/>
      </g>
     </g>
    </g>
    <g id="ytick_2">
     <g id="line2d_41">
      <g>
       <use style="stroke:#000000;stroke-width:0.8;" x="90" xlink:href="#m9a27e0d3c8" y="613.974194"/>
      </g>
     </g>
     <g id="text_7">
      <!-- San Marino -->
      <g transform="translate(26.90625 617.773412)scale(0.1 -0.1)">
       <defs>
        <path d="M 53.515625 70.515625 
L 53.515625 60.890625 
Q 47.90625 63.578125 42.921875 64.890625 
Q 37.9375 66.21875 33.296875 66.21875 
Q 25.25 66.21875 20.875 63.09375 
Q 16.5 59.96875 16.5 54.203125 
Q 16.5 49.359375 19.40625 46.890625 
Q 22.3125 44.4375 30.421875 42.921875 
L 36.375 41.703125 
Q 47.40625 39.59375 52.65625 34.296875 
Q 57.90625 29 57.90625 20.125 
Q 57.90625 9.515625 50.796875 4.046875 
Q 43.703125 -1.421875 29.984375 -1.421875 
Q 24.8125 -1.421875 18.96875 -0.25 
Q 13.140625 0.921875 6.890625 3.21875 
L 6.890625 13.375 
Q 12.890625 10.015625 18.65625 8.296875 
Q 24.421875 6.59375 29.984375 6.59375 
Q 38.421875 6.59375 43.015625 9.90625 
Q 47.609375 13.234375 47.609375 19.390625 
Q 47.609375 24.75 44.3125 27.78125 
Q 41.015625 30.8125 33.5 32.328125 
L 27.484375 33.5 
Q 16.453125 35.6875 11.515625 40.375 
Q 6.59375 45.0625 6.59375 53.421875 
Q 6.59375 63.09375 13.40625 68.65625 
Q 20.21875 74.21875 32.171875 74.21875 
Q 37.3125 74.21875 42.625 73.28125 
Q 47.953125 72.359375 53.515625 70.515625 
z
" id="DejaVuSans-83"/>
        <path d="M 54.890625 33.015625 
L 54.890625 0 
L 45.90625 0 
L 45.90625 32.71875 
Q 45.90625 40.484375 42.875 44.328125 
Q 39.84375 48.1875 33.796875 48.1875 
Q 26.515625 48.1875 22.3125 43.546875 
Q 18.109375 38.921875 18.109375 30.90625 
L 18.109375 0 
L 9.078125 0 
L 9.078125 54.6875 
L 18.109375 54.6875 
L 18.109375 46.1875 
Q 21.34375 51.125 25.703125 53.5625 
Q 30.078125 56 35.796875 56 
Q 45.21875 56 50.046875 50.171875 
Q 54.890625 44.34375 54.890625 33.015625 
z
" id="DejaVuSans-110"/>
        <path d="M 9.8125 72.90625 
L 24.515625 72.90625 
L 43.109375 23.296875 
L 61.8125 72.90625 
L 76.515625 72.90625 
L 76.515625 0 
L 66.890625 0 
L 66.890625 64.015625 
L 48.09375 14.015625 
L 38.1875 14.015625 
L 19.390625 64.015625 
L 19.390625 0 
L 9.8125 0 
z
" id="DejaVuSans-77"/>
        <path d="M 41.109375 46.296875 
Q 39.59375 47.171875 37.8125 47.578125 
Q 36.03125 48 33.890625 48 
Q 26.265625 48 22.1875 43.046875 
Q 18.109375 38.09375 18.109375 28.8125 
L 18.109375 0 
L 9.078125 0 
L 9.078125 54.6875 
L 18.109375 54.6875 
L 18.109375 46.1875 
Q 20.953125 51.171875 25.484375 53.578125 
Q 30.03125 56 36.53125 56 
Q 37.453125 56 38.578125 55.875 
Q 39.703125 55.765625 41.0625 55.515625 
z
" id="DejaVuSans-114"/>
        <path d="M 30.609375 48.390625 
Q 23.390625 48.390625 19.1875 42.75 
Q 14.984375 37.109375 14.984375 27.296875 
Q 14.984375 17.484375 19.15625 11.84375 
Q 23.34375 6.203125 30.609375 6.203125 
Q 37.796875 6.203125 41.984375 11.859375 
Q 46.1875 17.53125 46.1875 27.296875 
Q 46.1875 37.015625 41.984375 42.703125 
Q 37.796875 48.390625 30.609375 48.390625 
z
M 30.609375 56 
Q 42.328125 56 49.015625 48.375 
Q 55.71875 40.765625 55.71875 27.296875 
Q 55.71875 13.875 49.015625 6.21875 
Q 42.328125 -1.421875 30.609375 -1.421875 
Q 18.84375 -1.421875 12.171875 6.21875 
Q 5.515625 13.875 5.515625 27.296875 
Q 5.515625 40.765625 12.171875 48.375 
Q 18.84375 56 30.609375 56 
z
" id="DejaVuSans-111"/>
       </defs>
       <use xlink:href="#DejaVuSans-83"/>
       <use x="63.476562" xlink:href="#DejaVuSans-97"/>
       <use x="124.755859" xlink:href="#DejaVuSans-110"/>
       <use x="188.134766" xlink:href="#DejaVuSans-32"/>
       <use x="219.921875" xlink:href="#DejaVuSans-77"/>
       <use x="306.201172" xlink:href="#DejaVuSans-97"/>
       <use x="367.480469" xlink:href="#DejaVuSans-114"/>
       <use x="408.59375" xlink:href="#DejaVuSans-105"/>
       <use x="436.376953" xlink:href="#DejaVuSans-110"/>
       <use x="499.755859" xlink:href="#DejaVuSans-111"/>
      </g>
     </g>
    </g>
    <g id="ytick_3">
     <g id="line2d_42">
      <g>
       <use style="stroke:#000000;stroke-width:0.8;" x="90" xlink:href="#m9a27e0d3c8" y="596.090323"/>
      </g>
     </g>
     <g id="text_8">
      <!-- Peru -->
      <g transform="translate(60.73125 599.889541)scale(0.1 -0.1)">
       <defs>
        <path d="M 19.671875 64.796875 
L 19.671875 37.40625 
L 32.078125 37.40625 
Q 38.96875 37.40625 42.71875 40.96875 
Q 46.484375 44.53125 46.484375 51.125 
Q 46.484375 57.671875 42.71875 61.234375 
Q 38.96875 64.796875 32.078125 64.796875 
z
M 9.8125 72.90625 
L 32.078125 72.90625 
Q 44.34375 72.90625 50.609375 67.359375 
Q 56.890625 61.8125 56.890625 51.125 
Q 56.890625 40.328125 50.609375 34.8125 
Q 44.34375 29.296875 32.078125 29.296875 
L 19.671875 29.296875 
L 19.671875 0 
L 9.8125 0 
z
" id="DejaVuSans-80"/>
       </defs>
       <use xlink:href="#DejaVuSans-80"/>
       <use x="56.677734" xlink:href="#DejaVuSans-101"/>
       <use x="118.201172" xlink:href="#DejaVuSans-114"/>
       <use x="159.314453" xlink:href="#DejaVuSans-117"/>
      </g>
     </g>
    </g>
    <g id="ytick_4">
     <g id="line2d_43">
      <g>
       <use style="stroke:#000000;stroke-width:0.8;" x="90" xlink:href="#m9a27e0d3c8" y="578.206452"/>
      </g>
     </g>
     <g id="text_9">
      <!-- Spain -->
      <g transform="translate(55.059375 582.00567)scale(0.1 -0.1)">
       <use xlink:href="#DejaVuSans-83"/>
       <use x="63.476562" xlink:href="#DejaVuSans-112"/>
       <use x="126.953125" xlink:href="#DejaVuSans-97"/>
       <use x="188.232422" xlink:href="#DejaVuSans-105"/>
       <use x="216.015625" xlink:href="#DejaVuSans-110"/>
      </g>
     </g>
    </g>
    <g id="ytick_5">
     <g id="line2d_44">
      <g>
       <use style="stroke:#000000;stroke-width:0.8;" x="90" xlink:href="#m9a27e0d3c8" y="560.322581"/>
      </g>
     </g>
     <g id="text_10">
      <!-- Argentina -->
      <g transform="translate(34.220312 564.121799)scale(0.1 -0.1)">
       <defs>
        <path d="M 34.1875 63.1875 
L 20.796875 26.90625 
L 47.609375 26.90625 
z
M 28.609375 72.90625 
L 39.796875 72.90625 
L 67.578125 0 
L 57.328125 0 
L 50.6875 18.703125 
L 17.828125 18.703125 
L 11.1875 0 
L 0.78125 0 
z
" id="DejaVuSans-65"/>
       </defs>
       <use xlink:href="#DejaVuSans-65"/>
       <use x="68.408203" xlink:href="#DejaVuSans-114"/>
       <use x="107.771484" xlink:href="#DejaVuSans-103"/>
       <use x="171.248047" xlink:href="#DejaVuSans-101"/>
       <use x="232.771484" xlink:href="#DejaVuSans-110"/>
       <use x="296.150391" xlink:href="#DejaVuSans-116"/>
       <use x="335.359375" xlink:href="#DejaVuSans-105"/>
       <use x="363.142578" xlink:href="#DejaVuSans-110"/>
       <use x="426.521484" xlink:href="#DejaVuSans-97"/>
      </g>
     </g>
    </g>
    <g id="ytick_6">
     <g id="line2d_45">
      <g>
       <use style="stroke:#000000;stroke-width:0.8;" x="90" xlink:href="#m9a27e0d3c8" y="542.43871"/>
      </g>
     </g>
     <g id="text_11">
      <!-- United Kingdom -->
      <g transform="translate(2.735937 546.237928)scale(0.1 -0.1)">
       <defs>
        <path d="M 8.6875 72.90625 
L 18.609375 72.90625 
L 18.609375 28.609375 
Q 18.609375 16.890625 22.84375 11.734375 
Q 27.09375 6.59375 36.625 6.59375 
Q 46.09375 6.59375 50.34375 11.734375 
Q 54.59375 16.890625 54.59375 28.609375 
L 54.59375 72.90625 
L 64.5 72.90625 
L 64.5 27.390625 
Q 64.5 13.140625 57.4375 5.859375 
Q 50.390625 -1.421875 36.625 -1.421875 
Q 22.796875 -1.421875 15.734375 5.859375 
Q 8.6875 13.140625 8.6875 27.390625 
z
" id="DejaVuSans-85"/>
        <path d="M 45.40625 46.390625 
L 45.40625 75.984375 
L 54.390625 75.984375 
L 54.390625 0 
L 45.40625 0 
L 45.40625 8.203125 
Q 42.578125 3.328125 38.25 0.953125 
Q 33.9375 -1.421875 27.875 -1.421875 
Q 17.96875 -1.421875 11.734375 6.484375 
Q 5.515625 14.40625 5.515625 27.296875 
Q 5.515625 40.1875 11.734375 48.09375 
Q 17.96875 56 27.875 56 
Q 33.9375 56 38.25 53.625 
Q 42.578125 51.265625 45.40625 46.390625 
z
M 14.796875 27.296875 
Q 14.796875 17.390625 18.875 11.75 
Q 22.953125 6.109375 30.078125 6.109375 
Q 37.203125 6.109375 41.296875 11.75 
Q 45.40625 17.390625 45.40625 27.296875 
Q 45.40625 37.203125 41.296875 42.84375 
Q 37.203125 48.484375 30.078125 48.484375 
Q 22.953125 48.484375 18.875 42.84375 
Q 14.796875 37.203125 14.796875 27.296875 
z
" id="DejaVuSans-100"/>
        <path d="M 9.8125 72.90625 
L 19.671875 72.90625 
L 19.671875 42.09375 
L 52.390625 72.90625 
L 65.09375 72.90625 
L 28.90625 38.921875 
L 67.671875 0 
L 54.6875 0 
L 19.671875 35.109375 
L 19.671875 0 
L 9.8125 0 
z
" id="DejaVuSans-75"/>
       </defs>
       <use xlink:href="#DejaVuSans-85"/>
       <use x="73.193359" xlink:href="#DejaVuSans-110"/>
       <use x="136.572266" xlink:href="#DejaVuSans-105"/>
       <use x="164.355469" xlink:href="#DejaVuSans-116"/>
       <use x="203.564453" xlink:href="#DejaVuSans-101"/>
       <use x="265.087891" xlink:href="#DejaVuSans-100"/>
       <use x="328.564453" xlink:href="#DejaVuSans-32"/>
       <use x="360.351562" xlink:href="#DejaVuSans-75"/>
       <use x="425.927734" xlink:href="#DejaVuSans-105"/>
       <use x="453.710938" xlink:href="#DejaVuSans-110"/>
       <use x="517.089844" xlink:href="#DejaVuSans-103"/>
       <use x="580.566406" xlink:href="#DejaVuSans-100"/>
       <use x="644.042969" xlink:href="#DejaVuSans-111"/>
       <use x="705.224609" xlink:href="#DejaVuSans-109"/>
      </g>
     </g>
    </g>
    <g id="ytick_7">
     <g id="line2d_46">
      <g>
       <use style="stroke:#000000;stroke-width:0.8;" x="90" xlink:href="#m9a27e0d3c8" y="524.554839"/>
      </g>
     </g>
     <g id="text_12">
      <!-- Brazil -->
      <g transform="translate(55.095312 528.354057)scale(0.1 -0.1)">
       <defs>
        <path d="M 5.515625 54.6875 
L 48.1875 54.6875 
L 48.1875 46.484375 
L 14.40625 7.171875 
L 48.1875 7.171875 
L 48.1875 0 
L 4.296875 0 
L 4.296875 8.203125 
L 38.09375 47.515625 
L 5.515625 47.515625 
z
" id="DejaVuSans-122"/>
       </defs>
       <use xlink:href="#DejaVuSans-66"/>
       <use x="68.603516" xlink:href="#DejaVuSans-114"/>
       <use x="109.716797" xlink:href="#DejaVuSans-97"/>
       <use x="170.996094" xlink:href="#DejaVuSans-122"/>
       <use x="223.486328" xlink:href="#DejaVuSans-105"/>
       <use x="251.269531" xlink:href="#DejaVuSans-108"/>
      </g>
     </g>
    </g>
    <g id="ytick_8">
     <g id="line2d_47">
      <g>
       <use style="stroke:#000000;stroke-width:0.8;" x="90" xlink:href="#m9a27e0d3c8" y="506.670968"/>
      </g>
     </g>
     <g id="text_13">
      <!-- Chile -->
      <g transform="translate(57.970312 510.470186)scale(0.1 -0.1)">
       <defs>
        <path d="M 64.40625 67.28125 
L 64.40625 56.890625 
Q 59.421875 61.53125 53.78125 63.8125 
Q 48.140625 66.109375 41.796875 66.109375 
Q 29.296875 66.109375 22.65625 58.46875 
Q 16.015625 50.828125 16.015625 36.375 
Q 16.015625 21.96875 22.65625 14.328125 
Q 29.296875 6.6875 41.796875 6.6875 
Q 48.140625 6.6875 53.78125 8.984375 
Q 59.421875 11.28125 64.40625 15.921875 
L 64.40625 5.609375 
Q 59.234375 2.09375 53.4375 0.328125 
Q 47.65625 -1.421875 41.21875 -1.421875 
Q 24.65625 -1.421875 15.125 8.703125 
Q 5.609375 18.84375 5.609375 36.375 
Q 5.609375 53.953125 15.125 64.078125 
Q 24.65625 74.21875 41.21875 74.21875 
Q 47.75 74.21875 53.53125 72.484375 
Q 59.328125 70.75 64.40625 67.28125 
z
" id="DejaVuSans-67"/>
        <path d="M 54.890625 33.015625 
L 54.890625 0 
L 45.90625 0 
L 45.90625 32.71875 
Q 45.90625 40.484375 42.875 44.328125 
Q 39.84375 48.1875 33.796875 48.1875 
Q 26.515625 48.1875 22.3125 43.546875 
Q 18.109375 38.921875 18.109375 30.90625 
L 18.109375 0 
L 9.078125 0 
L 9.078125 75.984375 
L 18.109375 75.984375 
L 18.109375 46.1875 
Q 21.34375 51.125 25.703125 53.5625 
Q 30.078125 56 35.796875 56 
Q 45.21875 56 50.046875 50.171875 
Q 54.890625 44.34375 54.890625 33.015625 
z
" id="DejaVuSans-104"/>
       </defs>
       <use xlink:href="#DejaVuSans-67"/>
       <use x="69.824219" xlink:href="#DejaVuSans-104"/>
       <use x="133.203125" xlink:href="#DejaVuSans-105"/>
       <use x="160.986328" xlink:href="#DejaVuSans-108"/>
       <use x="188.769531" xlink:href="#DejaVuSans-101"/>
      </g>
     </g>
    </g>
    <g id="ytick_9">
     <g id="line2d_48">
      <g>
       <use style="stroke:#000000;stroke-width:0.8;" x="90" xlink:href="#m9a27e0d3c8" y="488.787097"/>
      </g>
     </g>
     <g id="text_14">
      <!-- Mexico -->
      <g transform="translate(48.079687 492.586316)scale(0.1 -0.1)">
       <defs>
        <path d="M 54.890625 54.6875 
L 35.109375 28.078125 
L 55.90625 0 
L 45.3125 0 
L 29.390625 21.484375 
L 13.484375 0 
L 2.875 0 
L 24.125 28.609375 
L 4.6875 54.6875 
L 15.28125 54.6875 
L 29.78125 35.203125 
L 44.28125 54.6875 
z
" id="DejaVuSans-120"/>
       </defs>
       <use xlink:href="#DejaVuSans-77"/>
       <use x="86.279297" xlink:href="#DejaVuSans-101"/>
       <use x="146.052734" xlink:href="#DejaVuSans-120"/>
       <use x="205.232422" xlink:href="#DejaVuSans-105"/>
       <use x="233.015625" xlink:href="#DejaVuSans-99"/>
       <use x="287.996094" xlink:href="#DejaVuSans-111"/>
      </g>
     </g>
    </g>
    <g id="ytick_10">
     <g id="line2d_49">
      <g>
       <use style="stroke:#000000;stroke-width:0.8;" x="90" xlink:href="#m9a27e0d3c8" y="470.903226"/>
      </g>
     </g>
     <g id="text_15">
      <!-- Bolivia -->
      <g transform="translate(49.639063 474.702445)scale(0.1 -0.1)">
       <defs>
        <path d="M 2.984375 54.6875 
L 12.5 54.6875 
L 29.59375 8.796875 
L 46.6875 54.6875 
L 56.203125 54.6875 
L 35.6875 0 
L 23.484375 0 
z
" id="DejaVuSans-118"/>
       </defs>
       <use xlink:href="#DejaVuSans-66"/>
       <use x="68.603516" xlink:href="#DejaVuSans-111"/>
       <use x="129.785156" xlink:href="#DejaVuSans-108"/>
       <use x="157.568359" xlink:href="#DejaVuSans-105"/>
       <use x="185.351562" xlink:href="#DejaVuSans-118"/>
       <use x="244.53125" xlink:href="#DejaVuSans-105"/>
       <use x="272.314453" xlink:href="#DejaVuSans-97"/>
      </g>
     </g>
    </g>
    <g id="ytick_11">
     <g id="line2d_50">
      <g>
       <use style="stroke:#000000;stroke-width:0.8;" x="90" xlink:href="#m9a27e0d3c8" y="453.019355"/>
      </g>
     </g>
     <g id="text_16">
      <!-- Italy -->
      <g transform="translate(61.304688 456.818574)scale(0.1 -0.1)">
       <defs>
        <path d="M 9.8125 72.90625 
L 19.671875 72.90625 
L 19.671875 0 
L 9.8125 0 
z
" id="DejaVuSans-73"/>
        <path d="M 32.171875 -5.078125 
Q 28.375 -14.84375 24.75 -17.8125 
Q 21.140625 -20.796875 15.09375 -20.796875 
L 7.90625 -20.796875 
L 7.90625 -13.28125 
L 13.1875 -13.28125 
Q 16.890625 -13.28125 18.9375 -11.515625 
Q 21 -9.765625 23.484375 -3.21875 
L 25.09375 0.875 
L 2.984375 54.6875 
L 12.5 54.6875 
L 29.59375 11.921875 
L 46.6875 54.6875 
L 56.203125 54.6875 
z
" id="DejaVuSans-121"/>
       </defs>
       <use xlink:href="#DejaVuSans-73"/>
       <use x="29.492188" xlink:href="#DejaVuSans-116"/>
       <use x="68.701172" xlink:href="#DejaVuSans-97"/>
       <use x="129.980469" xlink:href="#DejaVuSans-108"/>
       <use x="157.763672" xlink:href="#DejaVuSans-121"/>
      </g>
     </g>
    </g>
    <g id="ytick_12">
     <g id="line2d_51">
      <g>
       <use style="stroke:#000000;stroke-width:0.8;" x="90" xlink:href="#m9a27e0d3c8" y="435.135484"/>
      </g>
     </g>
     <g id="text_17">
      <!-- US -->
      <g transform="translate(69.332813 438.934703)scale(0.1 -0.1)">
       <use xlink:href="#DejaVuSans-85"/>
       <use x="73.193359" xlink:href="#DejaVuSans-83"/>
      </g>
     </g>
    </g>
    <g id="ytick_13">
     <g id="line2d_52">
      <g>
       <use style="stroke:#000000;stroke-width:0.8;" x="90" xlink:href="#m9a27e0d3c8" y="417.251613"/>
      </g>
     </g>
     <g id="text_18">
      <!-- Ecuador -->
      <g transform="translate(42.139062 421.050832)scale(0.1 -0.1)">
       <defs>
        <path d="M 9.8125 72.90625 
L 55.90625 72.90625 
L 55.90625 64.59375 
L 19.671875 64.59375 
L 19.671875 43.015625 
L 54.390625 43.015625 
L 54.390625 34.71875 
L 19.671875 34.71875 
L 19.671875 8.296875 
L 56.78125 8.296875 
L 56.78125 0 
L 9.8125 0 
z
" id="DejaVuSans-69"/>
       </defs>
       <use xlink:href="#DejaVuSans-69"/>
       <use x="63.183594" xlink:href="#DejaVuSans-99"/>
       <use x="118.164062" xlink:href="#DejaVuSans-117"/>
       <use x="181.542969" xlink:href="#DejaVuSans-97"/>
       <use x="242.822266" xlink:href="#DejaVuSans-100"/>
       <use x="306.298828" xlink:href="#DejaVuSans-111"/>
       <use x="367.480469" xlink:href="#DejaVuSans-114"/>
      </g>
     </g>
    </g>
    <g id="ytick_14">
     <g id="line2d_53">
      <g>
       <use style="stroke:#000000;stroke-width:0.8;" x="90" xlink:href="#m9a27e0d3c8" y="399.367742"/>
      </g>
     </g>
     <g id="text_19">
      <!-- France -->
      <g transform="translate(49.745312 403.166961)scale(0.1 -0.1)">
       <defs>
        <path d="M 9.8125 72.90625 
L 51.703125 72.90625 
L 51.703125 64.59375 
L 19.671875 64.59375 
L 19.671875 43.109375 
L 48.578125 43.109375 
L 48.578125 34.8125 
L 19.671875 34.8125 
L 19.671875 0 
L 9.8125 0 
z
" id="DejaVuSans-70"/>
       </defs>
       <use xlink:href="#DejaVuSans-70"/>
       <use x="50.269531" xlink:href="#DejaVuSans-114"/>
       <use x="91.382812" xlink:href="#DejaVuSans-97"/>
       <use x="152.662109" xlink:href="#DejaVuSans-110"/>
       <use x="216.041016" xlink:href="#DejaVuSans-99"/>
       <use x="271.021484" xlink:href="#DejaVuSans-101"/>
      </g>
     </g>
    </g>
    <g id="ytick_15">
     <g id="line2d_54">
      <g>
       <use style="stroke:#000000;stroke-width:0.8;" x="90" xlink:href="#m9a27e0d3c8" y="381.483871"/>
      </g>
     </g>
     <g id="text_20">
      <!-- Colombia -->
      <g transform="translate(36.00625 385.28309)scale(0.1 -0.1)">
       <defs>
        <path d="M 48.6875 27.296875 
Q 48.6875 37.203125 44.609375 42.84375 
Q 40.53125 48.484375 33.40625 48.484375 
Q 26.265625 48.484375 22.1875 42.84375 
Q 18.109375 37.203125 18.109375 27.296875 
Q 18.109375 17.390625 22.1875 11.75 
Q 26.265625 6.109375 33.40625 6.109375 
Q 40.53125 6.109375 44.609375 11.75 
Q 48.6875 17.390625 48.6875 27.296875 
z
M 18.109375 46.390625 
Q 20.953125 51.265625 25.265625 53.625 
Q 29.59375 56 35.59375 56 
Q 45.5625 56 51.78125 48.09375 
Q 58.015625 40.1875 58.015625 27.296875 
Q 58.015625 14.40625 51.78125 6.484375 
Q 45.5625 -1.421875 35.59375 -1.421875 
Q 29.59375 -1.421875 25.265625 0.953125 
Q 20.953125 3.328125 18.109375 8.203125 
L 18.109375 0 
L 9.078125 0 
L 9.078125 75.984375 
L 18.109375 75.984375 
z
" id="DejaVuSans-98"/>
       </defs>
       <use xlink:href="#DejaVuSans-67"/>
       <use x="69.824219" xlink:href="#DejaVuSans-111"/>
       <use x="131.005859" xlink:href="#DejaVuSans-108"/>
       <use x="158.789062" xlink:href="#DejaVuSans-111"/>
       <use x="219.970703" xlink:href="#DejaVuSans-109"/>
       <use x="317.382812" xlink:href="#DejaVuSans-98"/>
       <use x="380.859375" xlink:href="#DejaVuSans-105"/>
       <use x="408.642578" xlink:href="#DejaVuSans-97"/>
      </g>
     </g>
    </g>
    <g id="ytick_16">
     <g id="line2d_55">
      <g>
       <use style="stroke:#000000;stroke-width:0.8;" x="90" xlink:href="#m9a27e0d3c8" y="363.6"/>
      </g>
     </g>
     <g id="text_21">
      <!-- Panama -->
      <g transform="translate(42.957812 367.399219)scale(0.1 -0.1)">
       <use xlink:href="#DejaVuSans-80"/>
       <use x="55.802734" xlink:href="#DejaVuSans-97"/>
       <use x="117.082031" xlink:href="#DejaVuSans-110"/>
       <use x="180.460938" xlink:href="#DejaVuSans-97"/>
       <use x="241.740234" xlink:href="#DejaVuSans-109"/>
       <use x="339.152344" xlink:href="#DejaVuSans-97"/>
      </g>
     </g>
    </g>
    <g id="ytick_17">
     <g id="line2d_56">
      <g>
       <use style="stroke:#000000;stroke-width:0.8;" x="90" xlink:href="#m9a27e0d3c8" y="345.716129"/>
      </g>
     </g>
     <g id="text_22">
      <!-- North Macedonia -->
      <g transform="translate(-2.265625 349.515348)scale(0.1 -0.1)">
       <defs>
        <path d="M 9.8125 72.90625 
L 23.09375 72.90625 
L 55.421875 11.921875 
L 55.421875 72.90625 
L 64.984375 72.90625 
L 64.984375 0 
L 51.703125 0 
L 19.390625 60.984375 
L 19.390625 0 
L 9.8125 0 
z
" id="DejaVuSans-78"/>
       </defs>
       <use xlink:href="#DejaVuSans-78"/>
       <use x="74.804688" xlink:href="#DejaVuSans-111"/>
       <use x="135.986328" xlink:href="#DejaVuSans-114"/>
       <use x="177.099609" xlink:href="#DejaVuSans-116"/>
       <use x="216.308594" xlink:href="#DejaVuSans-104"/>
       <use x="279.6875" xlink:href="#DejaVuSans-32"/>
       <use x="311.474609" xlink:href="#DejaVuSans-77"/>
       <use x="397.753906" xlink:href="#DejaVuSans-97"/>
       <use x="459.033203" xlink:href="#DejaVuSans-99"/>
       <use x="514.013672" xlink:href="#DejaVuSans-101"/>
       <use x="575.537109" xlink:href="#DejaVuSans-100"/>
       <use x="639.013672" xlink:href="#DejaVuSans-111"/>
       <use x="700.195312" xlink:href="#DejaVuSans-110"/>
       <use x="763.574219" xlink:href="#DejaVuSans-105"/>
       <use x="791.357422" xlink:href="#DejaVuSans-97"/>
      </g>
     </g>
    </g>
    <g id="ytick_18">
     <g id="line2d_57">
      <g>
       <use style="stroke:#000000;stroke-width:0.8;" x="90" xlink:href="#m9a27e0d3c8" y="327.832258"/>
      </g>
     </g>
     <g id="text_23">
      <!-- Montenegro -->
      <g transform="translate(22.998437 331.631477)scale(0.1 -0.1)">
       <use xlink:href="#DejaVuSans-77"/>
       <use x="86.279297" xlink:href="#DejaVuSans-111"/>
       <use x="147.460938" xlink:href="#DejaVuSans-110"/>
       <use x="210.839844" xlink:href="#DejaVuSans-116"/>
       <use x="250.048828" xlink:href="#DejaVuSans-101"/>
       <use x="311.572266" xlink:href="#DejaVuSans-110"/>
       <use x="374.951172" xlink:href="#DejaVuSans-101"/>
       <use x="436.474609" xlink:href="#DejaVuSans-103"/>
       <use x="499.951172" xlink:href="#DejaVuSans-114"/>
       <use x="538.814453" xlink:href="#DejaVuSans-111"/>
      </g>
     </g>
    </g>
    <g id="ytick_19">
     <g id="line2d_58">
      <g>
       <use style="stroke:#000000;stroke-width:0.8;" x="90" xlink:href="#m9a27e0d3c8" y="309.948387"/>
      </g>
     </g>
     <g id="text_24">
      <!-- Czechia -->
      <g transform="translate(43.873437 313.747606)scale(0.1 -0.1)">
       <use xlink:href="#DejaVuSans-67"/>
       <use x="69.824219" xlink:href="#DejaVuSans-122"/>
       <use x="122.314453" xlink:href="#DejaVuSans-101"/>
       <use x="183.837891" xlink:href="#DejaVuSans-99"/>
       <use x="238.818359" xlink:href="#DejaVuSans-104"/>
       <use x="302.197266" xlink:href="#DejaVuSans-105"/>
       <use x="329.980469" xlink:href="#DejaVuSans-97"/>
      </g>
     </g>
    </g>
    <g id="ytick_20">
     <g id="line2d_59">
      <g>
       <use style="stroke:#000000;stroke-width:0.8;" x="90" xlink:href="#m9a27e0d3c8" y="292.064516"/>
      </g>
     </g>
     <g id="text_25">
      <!-- Armenia -->
      <g transform="translate(41.085938 295.863735)scale(0.1 -0.1)">
       <use xlink:href="#DejaVuSans-65"/>
       <use x="68.408203" xlink:href="#DejaVuSans-114"/>
       <use x="107.771484" xlink:href="#DejaVuSans-109"/>
       <use x="205.183594" xlink:href="#DejaVuSans-101"/>
       <use x="266.707031" xlink:href="#DejaVuSans-110"/>
       <use x="330.085938" xlink:href="#DejaVuSans-105"/>
       <use x="357.869141" xlink:href="#DejaVuSans-97"/>
      </g>
     </g>
    </g>
    <g id="ytick_21">
     <g id="line2d_60">
      <g>
       <use style="stroke:#000000;stroke-width:0.8;" x="90" xlink:href="#m9a27e0d3c8" y="274.180645"/>
      </g>
     </g>
     <g id="text_26">
      <!-- Bosnia and Herzegovina -->
      <g transform="translate(-38.41875 277.979864)scale(0.1 -0.1)">
       <defs>
        <path d="M 44.28125 53.078125 
L 44.28125 44.578125 
Q 40.484375 46.53125 36.375 47.5 
Q 32.28125 48.484375 27.875 48.484375 
Q 21.1875 48.484375 17.84375 46.4375 
Q 14.5 44.390625 14.5 40.28125 
Q 14.5 37.15625 16.890625 35.375 
Q 19.28125 33.59375 26.515625 31.984375 
L 29.59375 31.296875 
Q 39.15625 29.25 43.1875 25.515625 
Q 47.21875 21.78125 47.21875 15.09375 
Q 47.21875 7.46875 41.1875 3.015625 
Q 35.15625 -1.421875 24.609375 -1.421875 
Q 20.21875 -1.421875 15.453125 -0.5625 
Q 10.6875 0.296875 5.421875 2 
L 5.421875 11.28125 
Q 10.40625 8.6875 15.234375 7.390625 
Q 20.0625 6.109375 24.8125 6.109375 
Q 31.15625 6.109375 34.5625 8.28125 
Q 37.984375 10.453125 37.984375 14.40625 
Q 37.984375 18.0625 35.515625 20.015625 
Q 33.0625 21.96875 24.703125 23.78125 
L 21.578125 24.515625 
Q 13.234375 26.265625 9.515625 29.90625 
Q 5.8125 33.546875 5.8125 39.890625 
Q 5.8125 47.609375 11.28125 51.796875 
Q 16.75 56 26.8125 56 
Q 31.78125 56 36.171875 55.265625 
Q 40.578125 54.546875 44.28125 53.078125 
z
" id="DejaVuSans-115"/>
        <path d="M 9.8125 72.90625 
L 19.671875 72.90625 
L 19.671875 43.015625 
L 55.515625 43.015625 
L 55.515625 72.90625 
L 65.375 72.90625 
L 65.375 0 
L 55.515625 0 
L 55.515625 34.71875 
L 19.671875 34.71875 
L 19.671875 0 
L 9.8125 0 
z
" id="DejaVuSans-72"/>
       </defs>
       <use xlink:href="#DejaVuSans-66"/>
       <use x="68.603516" xlink:href="#DejaVuSans-111"/>
       <use x="129.785156" xlink:href="#DejaVuSans-115"/>
       <use x="181.884766" xlink:href="#DejaVuSans-110"/>
       <use x="245.263672" xlink:href="#DejaVuSans-105"/>
       <use x="273.046875" xlink:href="#DejaVuSans-97"/>
       <use x="334.326172" xlink:href="#DejaVuSans-32"/>
       <use x="366.113281" xlink:href="#DejaVuSans-97"/>
       <use x="427.392578" xlink:href="#DejaVuSans-110"/>
       <use x="490.771484" xlink:href="#DejaVuSans-100"/>
       <use x="554.248047" xlink:href="#DejaVuSans-32"/>
       <use x="586.035156" xlink:href="#DejaVuSans-72"/>
       <use x="661.230469" xlink:href="#DejaVuSans-101"/>
       <use x="722.753906" xlink:href="#DejaVuSans-114"/>
       <use x="763.867188" xlink:href="#DejaVuSans-122"/>
       <use x="816.357422" xlink:href="#DejaVuSans-101"/>
       <use x="877.880859" xlink:href="#DejaVuSans-103"/>
       <use x="941.357422" xlink:href="#DejaVuSans-111"/>
       <use x="1002.539062" xlink:href="#DejaVuSans-118"/>
       <use x="1061.71875" xlink:href="#DejaVuSans-105"/>
       <use x="1089.501953" xlink:href="#DejaVuSans-110"/>
       <use x="1152.880859" xlink:href="#DejaVuSans-97"/>
      </g>
     </g>
    </g>
    <g id="ytick_22">
     <g id="line2d_61">
      <g>
       <use style="stroke:#000000;stroke-width:0.8;" x="90" xlink:href="#m9a27e0d3c8" y="256.296774"/>
      </g>
     </g>
     <g id="text_27">
      <!-- Sweden -->
      <g transform="translate(43.48125 260.095993)scale(0.1 -0.1)">
       <defs>
        <path d="M 4.203125 54.6875 
L 13.1875 54.6875 
L 24.421875 12.015625 
L 35.59375 54.6875 
L 46.1875 54.6875 
L 57.421875 12.015625 
L 68.609375 54.6875 
L 77.59375 54.6875 
L 63.28125 0 
L 52.6875 0 
L 40.921875 44.828125 
L 29.109375 0 
L 18.5 0 
z
" id="DejaVuSans-119"/>
       </defs>
       <use xlink:href="#DejaVuSans-83"/>
       <use x="63.476562" xlink:href="#DejaVuSans-119"/>
       <use x="145.263672" xlink:href="#DejaVuSans-101"/>
       <use x="206.787109" xlink:href="#DejaVuSans-100"/>
       <use x="270.263672" xlink:href="#DejaVuSans-101"/>
       <use x="331.787109" xlink:href="#DejaVuSans-110"/>
      </g>
     </g>
    </g>
    <g id="ytick_23">
     <g id="line2d_62">
      <g>
       <use style="stroke:#000000;stroke-width:0.8;" x="90" xlink:href="#m9a27e0d3c8" y="238.412903"/>
      </g>
     </g>
     <g id="text_28">
      <!-- Moldova -->
      <g transform="translate(40.960938 242.212122)scale(0.1 -0.1)">
       <use xlink:href="#DejaVuSans-77"/>
       <use x="86.279297" xlink:href="#DejaVuSans-111"/>
       <use x="147.460938" xlink:href="#DejaVuSans-108"/>
       <use x="175.244141" xlink:href="#DejaVuSans-100"/>
       <use x="238.720703" xlink:href="#DejaVuSans-111"/>
       <use x="299.902344" xlink:href="#DejaVuSans-118"/>
       <use x="359.082031" xlink:href="#DejaVuSans-97"/>
      </g>
     </g>
    </g>
    <g id="ytick_24">
     <g id="line2d_63">
      <g>
       <use style="stroke:#000000;stroke-width:0.8;" x="90" xlink:href="#m9a27e0d3c8" y="220.529032"/>
      </g>
     </g>
     <g id="text_29">
      <!-- Iran -->
      <g transform="translate(63.473438 224.328251)scale(0.1 -0.1)">
       <use xlink:href="#DejaVuSans-73"/>
       <use x="29.492188" xlink:href="#DejaVuSans-114"/>
       <use x="70.605469" xlink:href="#DejaVuSans-97"/>
       <use x="131.884766" xlink:href="#DejaVuSans-110"/>
      </g>
     </g>
    </g>
    <g id="ytick_25">
     <g id="line2d_64">
      <g>
       <use style="stroke:#000000;stroke-width:0.8;" x="90" xlink:href="#m9a27e0d3c8" y="202.645161"/>
      </g>
     </g>
     <g id="text_30">
      <!-- Netherlands -->
      <g transform="translate(22.042187 206.44438)scale(0.1 -0.1)">
       <use xlink:href="#DejaVuSans-78"/>
       <use x="74.804688" xlink:href="#DejaVuSans-101"/>
       <use x="136.328125" xlink:href="#DejaVuSans-116"/>
       <use x="175.537109" xlink:href="#DejaVuSans-104"/>
       <use x="238.916016" xlink:href="#DejaVuSans-101"/>
       <use x="300.439453" xlink:href="#DejaVuSans-114"/>
       <use x="341.552734" xlink:href="#DejaVuSans-108"/>
       <use x="369.335938" xlink:href="#DejaVuSans-97"/>
       <use x="430.615234" xlink:href="#DejaVuSans-110"/>
       <use x="493.994141" xlink:href="#DejaVuSans-100"/>
       <use x="557.470703" xlink:href="#DejaVuSans-115"/>
      </g>
     </g>
    </g>
    <g id="ytick_26">
     <g id="line2d_65">
      <g>
       <use style="stroke:#000000;stroke-width:0.8;" x="90" xlink:href="#m9a27e0d3c8" y="184.76129"/>
      </g>
     </g>
     <g id="text_31">
      <!-- Romania -->
      <g transform="translate(39.270312 188.560509)scale(0.1 -0.1)">
       <defs>
        <path d="M 44.390625 34.1875 
Q 47.5625 33.109375 50.5625 29.59375 
Q 53.5625 26.078125 56.59375 19.921875 
L 66.609375 0 
L 56 0 
L 46.6875 18.703125 
Q 43.0625 26.03125 39.671875 28.421875 
Q 36.28125 30.8125 30.421875 30.8125 
L 19.671875 30.8125 
L 19.671875 0 
L 9.8125 0 
L 9.8125 72.90625 
L 32.078125 72.90625 
Q 44.578125 72.90625 50.734375 67.671875 
Q 56.890625 62.453125 56.890625 51.90625 
Q 56.890625 45.015625 53.6875 40.46875 
Q 50.484375 35.9375 44.390625 34.1875 
z
M 19.671875 64.796875 
L 19.671875 38.921875 
L 32.078125 38.921875 
Q 39.203125 38.921875 42.84375 42.21875 
Q 46.484375 45.515625 46.484375 51.90625 
Q 46.484375 58.296875 42.84375 61.546875 
Q 39.203125 64.796875 32.078125 64.796875 
z
" id="DejaVuSans-82"/>
       </defs>
       <use xlink:href="#DejaVuSans-82"/>
       <use x="64.982422" xlink:href="#DejaVuSans-111"/>
       <use x="126.164062" xlink:href="#DejaVuSans-109"/>
       <use x="223.576172" xlink:href="#DejaVuSans-97"/>
       <use x="284.855469" xlink:href="#DejaVuSans-110"/>
       <use x="348.234375" xlink:href="#DejaVuSans-105"/>
       <use x="376.017578" xlink:href="#DejaVuSans-97"/>
      </g>
     </g>
    </g>
    <g id="ytick_27">
     <g id="line2d_66">
      <g>
       <use style="stroke:#000000;stroke-width:0.8;" x="90" xlink:href="#m9a27e0d3c8" y="166.877419"/>
      </g>
     </g>
     <g id="text_32">
      <!-- Kosovo -->
      <g transform="translate(47.457812 170.676638)scale(0.1 -0.1)">
       <use xlink:href="#DejaVuSans-75"/>
       <use x="60.576172" xlink:href="#DejaVuSans-111"/>
       <use x="121.757812" xlink:href="#DejaVuSans-115"/>
       <use x="173.857422" xlink:href="#DejaVuSans-111"/>
       <use x="235.039062" xlink:href="#DejaVuSans-118"/>
       <use x="294.21875" xlink:href="#DejaVuSans-111"/>
      </g>
     </g>
    </g>
    <g id="ytick_28">
     <g id="line2d_67">
      <g>
       <use style="stroke:#000000;stroke-width:0.8;" x="90" xlink:href="#m9a27e0d3c8" y="148.993548"/>
      </g>
     </g>
     <g id="text_33">
      <!-- Slovenia -->
      <g transform="translate(40.439062 152.792767)scale(0.1 -0.1)">
       <use xlink:href="#DejaVuSans-83"/>
       <use x="63.476562" xlink:href="#DejaVuSans-108"/>
       <use x="91.259766" xlink:href="#DejaVuSans-111"/>
       <use x="152.441406" xlink:href="#DejaVuSans-118"/>
       <use x="211.621094" xlink:href="#DejaVuSans-101"/>
       <use x="273.144531" xlink:href="#DejaVuSans-110"/>
       <use x="336.523438" xlink:href="#DejaVuSans-105"/>
       <use x="364.306641" xlink:href="#DejaVuSans-97"/>
      </g>
     </g>
    </g>
    <g id="ytick_29">
     <g id="line2d_68">
      <g>
       <use style="stroke:#000000;stroke-width:0.8;" x="90" xlink:href="#m9a27e0d3c8" y="131.109677"/>
      </g>
     </g>
     <g id="text_34">
      <!-- Switzerland -->
      <g transform="translate(24.670312 134.908896)scale(0.1 -0.1)">
       <use xlink:href="#DejaVuSans-83"/>
       <use x="63.476562" xlink:href="#DejaVuSans-119"/>
       <use x="145.263672" xlink:href="#DejaVuSans-105"/>
       <use x="173.046875" xlink:href="#DejaVuSans-116"/>
       <use x="212.255859" xlink:href="#DejaVuSans-122"/>
       <use x="264.746094" xlink:href="#DejaVuSans-101"/>
       <use x="326.269531" xlink:href="#DejaVuSans-114"/>
       <use x="367.382812" xlink:href="#DejaVuSans-108"/>
       <use x="395.166016" xlink:href="#DejaVuSans-97"/>
       <use x="456.445312" xlink:href="#DejaVuSans-110"/>
       <use x="519.824219" xlink:href="#DejaVuSans-100"/>
      </g>
     </g>
    </g>
    <g id="ytick_30">
     <g id="line2d_69">
      <g>
       <use style="stroke:#000000;stroke-width:0.8;" x="90" xlink:href="#m9a27e0d3c8" y="113.225806"/>
      </g>
     </g>
     <g id="text_35">
      <!-- Bahamas -->
      <g transform="translate(36.467187 117.025025)scale(0.1 -0.1)">
       <use xlink:href="#DejaVuSans-66"/>
       <use x="68.603516" xlink:href="#DejaVuSans-97"/>
       <use x="129.882812" xlink:href="#DejaVuSans-104"/>
       <use x="193.261719" xlink:href="#DejaVuSans-97"/>
       <use x="254.541016" xlink:href="#DejaVuSans-109"/>
       <use x="351.953125" xlink:href="#DejaVuSans-97"/>
       <use x="413.232422" xlink:href="#DejaVuSans-115"/>
      </g>
     </g>
    </g>
    <g id="ytick_31">
     <g id="line2d_70">
      <g>
       <use style="stroke:#000000;stroke-width:0.8;" x="90" xlink:href="#m9a27e0d3c8" y="95.341935"/>
      </g>
     </g>
     <g id="text_36">
      <!-- China -->
      <g transform="translate(54.435937 99.141154)scale(0.1 -0.1)">
       <use xlink:href="#DejaVuSans-67"/>
       <use x="69.824219" xlink:href="#DejaVuSans-104"/>
       <use x="133.203125" xlink:href="#DejaVuSans-105"/>
       <use x="160.986328" xlink:href="#DejaVuSans-110"/>
       <use x="224.365234" xlink:href="#DejaVuSans-97"/>
      </g>
     </g>
    </g>
    <g id="text_37">
     <!-- Country -->
     <g transform="translate(-44.498438 383.463281)rotate(-90)scale(0.1 -0.1)">
      <use xlink:href="#DejaVuSans-67"/>
      <use x="69.824219" xlink:href="#DejaVuSans-111"/>
      <use x="131.005859" xlink:href="#DejaVuSans-117"/>
      <use x="194.384766" xlink:href="#DejaVuSans-110"/>
      <use x="257.763672" xlink:href="#DejaVuSans-116"/>
      <use x="296.972656" xlink:href="#DejaVuSans-114"/>
      <use x="338.085938" xlink:href="#DejaVuSans-121"/>
     </g>
    </g>
   </g>
   <g id="patch_65">
    <path d="M 90 640.8 
L 90 86.4 
" style="fill:none;stroke:#000000;stroke-linecap:square;stroke-linejoin:miter;stroke-width:0.8;"/>
   </g>
   <g id="patch_66">
    <path d="M 648 640.8 
L 648 86.4 
" style="fill:none;stroke:#000000;stroke-linecap:square;stroke-linejoin:miter;stroke-width:0.8;"/>
   </g>
   <g id="patch_67">
    <path d="M 90 640.8 
L 648 640.8 
" style="fill:none;stroke:#000000;stroke-linecap:square;stroke-linejoin:miter;stroke-width:0.8;"/>
   </g>
   <g id="patch_68">
    <path d="M 90 86.4 
L 648 86.4 
" style="fill:none;stroke:#000000;stroke-linecap:square;stroke-linejoin:miter;stroke-width:0.8;"/>
   </g>
   <g id="text_38">
    <!-- Fatalities / Recovered rate (2020-11-19) -->
    <g transform="translate(249.195938 80.4)scale(0.12 -0.12)">
     <defs>
      <path d="M 31 75.875 
Q 24.46875 64.65625 21.28125 53.65625 
Q 18.109375 42.671875 18.109375 31.390625 
Q 18.109375 20.125 21.3125 9.0625 
Q 24.515625 -2 31 -13.1875 
L 23.1875 -13.1875 
Q 15.875 -1.703125 12.234375 9.375 
Q 8.59375 20.453125 8.59375 31.390625 
Q 8.59375 42.28125 12.203125 53.3125 
Q 15.828125 64.359375 23.1875 75.875 
z
" id="DejaVuSans-40"/>
      <path d="M 4.890625 31.390625 
L 31.203125 31.390625 
L 31.203125 23.390625 
L 4.890625 23.390625 
z
" id="DejaVuSans-45"/>
      <path d="M 10.984375 1.515625 
L 10.984375 10.5 
Q 14.703125 8.734375 18.5 7.8125 
Q 22.3125 6.890625 25.984375 6.890625 
Q 35.75 6.890625 40.890625 13.453125 
Q 46.046875 20.015625 46.78125 33.40625 
Q 43.953125 29.203125 39.59375 26.953125 
Q 35.25 24.703125 29.984375 24.703125 
Q 19.046875 24.703125 12.671875 31.3125 
Q 6.296875 37.9375 6.296875 49.421875 
Q 6.296875 60.640625 12.9375 67.421875 
Q 19.578125 74.21875 30.609375 74.21875 
Q 43.265625 74.21875 49.921875 64.515625 
Q 56.59375 54.828125 56.59375 36.375 
Q 56.59375 19.140625 48.40625 8.859375 
Q 40.234375 -1.421875 26.421875 -1.421875 
Q 22.703125 -1.421875 18.890625 -0.6875 
Q 15.09375 0.046875 10.984375 1.515625 
z
M 30.609375 32.421875 
Q 37.25 32.421875 41.125 36.953125 
Q 45.015625 41.5 45.015625 49.421875 
Q 45.015625 57.28125 41.125 61.84375 
Q 37.25 66.40625 30.609375 66.40625 
Q 23.96875 66.40625 20.09375 61.84375 
Q 16.21875 57.28125 16.21875 49.421875 
Q 16.21875 41.5 20.09375 36.953125 
Q 23.96875 32.421875 30.609375 32.421875 
z
" id="DejaVuSans-57"/>
      <path d="M 8.015625 75.875 
L 15.828125 75.875 
Q 23.140625 64.359375 26.78125 53.3125 
Q 30.421875 42.28125 30.421875 31.390625 
Q 30.421875 20.453125 26.78125 9.375 
Q 23.140625 -1.703125 15.828125 -13.1875 
L 8.015625 -13.1875 
Q 14.5 -2 17.703125 9.0625 
Q 20.90625 20.125 20.90625 31.390625 
Q 20.90625 42.671875 17.703125 53.65625 
Q 14.5 64.65625 8.015625 75.875 
z
" id="DejaVuSans-41"/>
     </defs>
     <use xlink:href="#DejaVuSans-70"/>
     <use x="48.394531" xlink:href="#DejaVuSans-97"/>
     <use x="109.673828" xlink:href="#DejaVuSans-116"/>
     <use x="148.882812" xlink:href="#DejaVuSans-97"/>
     <use x="210.162109" xlink:href="#DejaVuSans-108"/>
     <use x="237.945312" xlink:href="#DejaVuSans-105"/>
     <use x="265.728516" xlink:href="#DejaVuSans-116"/>
     <use x="304.9375" xlink:href="#DejaVuSans-105"/>
     <use x="332.720703" xlink:href="#DejaVuSans-101"/>
     <use x="394.244141" xlink:href="#DejaVuSans-115"/>
     <use x="446.34375" xlink:href="#DejaVuSans-32"/>
     <use x="478.130859" xlink:href="#DejaVuSans-47"/>
     <use x="511.822266" xlink:href="#DejaVuSans-32"/>
     <use x="543.609375" xlink:href="#DejaVuSans-82"/>
     <use x="608.591797" xlink:href="#DejaVuSans-101"/>
     <use x="670.115234" xlink:href="#DejaVuSans-99"/>
     <use x="725.095703" xlink:href="#DejaVuSans-111"/>
     <use x="786.277344" xlink:href="#DejaVuSans-118"/>
     <use x="845.457031" xlink:href="#DejaVuSans-101"/>
     <use x="906.980469" xlink:href="#DejaVuSans-114"/>
     <use x="945.84375" xlink:href="#DejaVuSans-101"/>
     <use x="1007.367188" xlink:href="#DejaVuSans-100"/>
     <use x="1070.84375" xlink:href="#DejaVuSans-32"/>
     <use x="1102.630859" xlink:href="#DejaVuSans-114"/>
     <use x="1143.744141" xlink:href="#DejaVuSans-97"/>
     <use x="1205.023438" xlink:href="#DejaVuSans-116"/>
     <use x="1244.232422" xlink:href="#DejaVuSans-101"/>
     <use x="1305.755859" xlink:href="#DejaVuSans-32"/>
     <use x="1337.542969" xlink:href="#DejaVuSans-40"/>
     <use x="1376.556641" xlink:href="#DejaVuSans-50"/>
     <use x="1440.179688" xlink:href="#DejaVuSans-48"/>
     <use x="1503.802734" xlink:href="#DejaVuSans-50"/>
     <use x="1567.425781" xlink:href="#DejaVuSans-48"/>
     <use x="1631.048828" xlink:href="#DejaVuSans-45"/>
     <use x="1667.132812" xlink:href="#DejaVuSans-49"/>
     <use x="1730.755859" xlink:href="#DejaVuSans-49"/>
     <use x="1794.378906" xlink:href="#DejaVuSans-45"/>
     <use x="1830.462891" xlink:href="#DejaVuSans-49"/>
     <use x="1894.085938" xlink:href="#DejaVuSans-57"/>
     <use x="1957.708984" xlink:href="#DejaVuSans-41"/>
    </g>
   </g>
   <g id="legend_1">
    <g id="patch_69">
     <path d="M 538.571875 123.75625 
L 641 123.75625 
Q 643 123.75625 643 121.75625 
L 643 93.4 
Q 643 91.4 641 91.4 
L 538.571875 91.4 
Q 536.571875 91.4 536.571875 93.4 
L 536.571875 121.75625 
Q 536.571875 123.75625 538.571875 123.75625 
z
" style="fill:#ffffff;opacity:0.8;stroke:#cccccc;stroke-linejoin:miter;"/>
    </g>
    <g id="patch_70">
     <path d="M 540.571875 102.998437 
L 560.571875 102.998437 
L 560.571875 95.998437 
L 540.571875 95.998437 
z
" style="fill:#997570;"/>
    </g>
    <g id="text_39">
     <!-- deathrate -->
     <g transform="translate(568.571875 102.998437)scale(0.1 -0.1)">
      <use xlink:href="#DejaVuSans-100"/>
      <use x="63.476562" xlink:href="#DejaVuSans-101"/>
      <use x="125" xlink:href="#DejaVuSans-97"/>
      <use x="186.279297" xlink:href="#DejaVuSans-116"/>
      <use x="225.488281" xlink:href="#DejaVuSans-104"/>
      <use x="288.867188" xlink:href="#DejaVuSans-114"/>
      <use x="329.980469" xlink:href="#DejaVuSans-97"/>
      <use x="391.259766" xlink:href="#DejaVuSans-116"/>
      <use x="430.46875" xlink:href="#DejaVuSans-101"/>
     </g>
    </g>
    <g id="patch_71">
     <path d="M 540.571875 117.676562 
L 560.571875 117.676562 
L 560.571875 110.676562 
L 540.571875 110.676562 
z
" style="fill:#5ca904;"/>
    </g>
    <g id="text_40">
     <!-- recoveredrate -->
     <g transform="translate(568.571875 117.676562)scale(0.1 -0.1)">
      <use xlink:href="#DejaVuSans-114"/>
      <use x="38.863281" xlink:href="#DejaVuSans-101"/>
      <use x="100.386719" xlink:href="#DejaVuSans-99"/>
      <use x="155.367188" xlink:href="#DejaVuSans-111"/>
      <use x="216.548828" xlink:href="#DejaVuSans-118"/>
      <use x="275.728516" xlink:href="#DejaVuSans-101"/>
      <use x="337.251953" xlink:href="#DejaVuSans-114"/>
      <use x="376.115234" xlink:href="#DejaVuSans-101"/>
      <use x="437.638672" xlink:href="#DejaVuSans-100"/>
      <use x="501.115234" xlink:href="#DejaVuSans-114"/>
      <use x="542.228516" xlink:href="#DejaVuSans-97"/>
      <use x="603.507812" xlink:href="#DejaVuSans-116"/>
      <use x="642.716797" xlink:href="#DejaVuSans-101"/>
     </g>
    </g>
   </g>
  </g>
 </g>
 <defs>
  <clipPath id="pdee26a40a4">
   <rect height="554.4" width="558" x="90" y="86.4"/>
  </clipPath>
 </defs>
</svg>
