<?xml version="1.0" encoding="utf-8" standalone="no"?>
<!DOCTYPE svg PUBLIC "-//W3C//DTD SVG 1.1//EN"
  "http://www.w3.org/Graphics/SVG/1.1/DTD/svg11.dtd">
<!-- Created with matplotlib (https://matplotlib.org/) -->
<svg height="720pt" version="1.1" viewBox="0 0 720 720" width="720pt" xmlns="http://www.w3.org/2000/svg" xmlns:xlink="http://www.w3.org/1999/xlink">
 <defs>
  <style type="text/css">
*{stroke-linecap:butt;stroke-linejoin:round;}
  </style>
 </defs>
 <g id="figure_1">
  <g id="patch_1">
   <path d="M 0 720 
L 720 720 
L 720 0 
L 0 0 
z
" style="fill:#ffffff;"/>
  </g>
  <g id="axes_1">
   <g id="patch_2">
    <path d="M 90 640.8 
L 648 640.8 
L 648 86.4 
L 90 86.4 
z
" style="fill:#ffffff;"/>
   </g>
   <g id="patch_3">
    <path clip-path="url(#p40923f5a92)" d="M -143871.249618 636.18 
L 622.636364 636.18 
L 622.636364 631.56 
L -143871.249618 631.56 
z
" style="fill:#997570;"/>
   </g>
   <g id="patch_4">
    <path clip-path="url(#p40923f5a92)" d="M -143871.249618 617.7 
L 529.726846 617.7 
L 529.726846 613.08 
L -143871.249618 613.08 
z
" style="fill:#997570;"/>
   </g>
   <g id="patch_5">
    <path clip-path="url(#p40923f5a92)" d="M -143871.249618 599.22 
L 510.000709 599.22 
L 510.000709 594.6 
L -143871.249618 594.6 
z
" style="fill:#997570;"/>
   </g>
   <g id="patch_6">
    <path clip-path="url(#p40923f5a92)" d="M -143871.249618 580.74 
L 439.263663 580.74 
L 439.263663 576.12 
L -143871.249618 576.12 
z
" style="fill:#997570;"/>
   </g>
   <g id="patch_7">
    <path clip-path="url(#p40923f5a92)" d="M -143871.249618 562.26 
L 434.051388 562.26 
L 434.051388 557.64 
L -143871.249618 557.64 
z
" style="fill:#997570;"/>
   </g>
   <g id="patch_8">
    <path clip-path="url(#p40923f5a92)" d="M -143871.249618 543.78 
L 430.222121 543.78 
L 430.222121 539.16 
L -143871.249618 539.16 
z
" style="fill:#997570;"/>
   </g>
   <g id="patch_9">
    <path clip-path="url(#p40923f5a92)" d="M -143871.249618 525.3 
L 430.057846 525.3 
L 430.057846 520.68 
L -143871.249618 520.68 
z
" style="fill:#997570;"/>
   </g>
   <g id="patch_10">
    <path clip-path="url(#p40923f5a92)" d="M -143871.249618 506.82 
L 429.318016 506.82 
L 429.318016 502.2 
L -143871.249618 502.2 
z
" style="fill:#997570;"/>
   </g>
   <g id="patch_11">
    <path clip-path="url(#p40923f5a92)" d="M -143871.249618 488.34 
L 428.6516 488.34 
L 428.6516 483.72 
L -143871.249618 483.72 
z
" style="fill:#997570;"/>
   </g>
   <g id="patch_12">
    <path clip-path="url(#p40923f5a92)" d="M -143871.249618 469.86 
L 423.527693 469.86 
L 423.527693 465.24 
L -143871.249618 465.24 
z
" style="fill:#997570;"/>
   </g>
   <g id="patch_13">
    <path clip-path="url(#p40923f5a92)" d="M -143871.249618 451.38 
L 372.011311 451.38 
L 372.011311 446.76 
L -143871.249618 446.76 
z
" style="fill:#997570;"/>
   </g>
   <g id="patch_14">
    <path clip-path="url(#p40923f5a92)" d="M -143871.249618 432.9 
L 363.665569 432.9 
L 363.665569 428.28 
L -143871.249618 428.28 
z
" style="fill:#997570;"/>
   </g>
   <g id="patch_15">
    <path clip-path="url(#p40923f5a92)" d="M -143871.249618 414.42 
L 356.195957 414.42 
L 356.195957 409.8 
L -143871.249618 409.8 
z
" style="fill:#997570;"/>
   </g>
   <g id="patch_16">
    <path clip-path="url(#p40923f5a92)" d="M -143871.249618 395.94 
L 338.239099 395.94 
L 338.239099 391.32 
L -143871.249618 391.32 
z
" style="fill:#997570;"/>
   </g>
   <g id="patch_17">
    <path clip-path="url(#p40923f5a92)" d="M -143871.249618 377.46 
L 337.798385 377.46 
L 337.798385 372.84 
L -143871.249618 372.84 
z
" style="fill:#997570;"/>
   </g>
   <g id="patch_18">
    <path clip-path="url(#p40923f5a92)" d="M -143871.249618 358.98 
L 332.295782 358.98 
L 332.295782 354.36 
L -143871.249618 354.36 
z
" style="fill:#997570;"/>
   </g>
   <g id="patch_19">
    <path clip-path="url(#p40923f5a92)" d="M -143871.249618 340.5 
L 321.161634 340.5 
L 321.161634 335.88 
L -143871.249618 335.88 
z
" style="fill:#997570;"/>
   </g>
   <g id="patch_20">
    <path clip-path="url(#p40923f5a92)" d="M -143871.249618 322.02 
L 317.302422 322.02 
L 317.302422 317.4 
L -143871.249618 317.4 
z
" style="fill:#997570;"/>
   </g>
   <g id="patch_21">
    <path clip-path="url(#p40923f5a92)" d="M -143871.249618 303.54 
L 313.013361 303.54 
L 313.013361 298.92 
L -143871.249618 298.92 
z
" style="fill:#997570;"/>
   </g>
   <g id="patch_22">
    <path clip-path="url(#p40923f5a92)" d="M -143871.249618 285.06 
L 309.986693 285.06 
L 309.986693 280.44 
L -143871.249618 280.44 
z
" style="fill:#997570;"/>
   </g>
   <g id="patch_23">
    <path clip-path="url(#p40923f5a92)" d="M -143871.249618 266.58 
L 309.290556 266.58 
L 309.290556 261.96 
L -143871.249618 261.96 
z
" style="fill:#997570;"/>
   </g>
   <g id="patch_24">
    <path clip-path="url(#p40923f5a92)" d="M -143871.249618 248.1 
L 304.900991 248.1 
L 304.900991 243.48 
L -143871.249618 243.48 
z
" style="fill:#997570;"/>
   </g>
   <g id="patch_25">
    <path clip-path="url(#p40923f5a92)" d="M -143871.249618 229.62 
L 298.804175 229.62 
L 298.804175 225 
L -143871.249618 225 
z
" style="fill:#997570;"/>
   </g>
   <g id="patch_26">
    <path clip-path="url(#p40923f5a92)" d="M -143871.249618 211.14 
L 277.006892 211.14 
L 277.006892 206.52 
L -143871.249618 206.52 
z
" style="fill:#997570;"/>
   </g>
   <g id="patch_27">
    <path clip-path="url(#p40923f5a92)" d="M -143871.249618 192.66 
L 276.075204 192.66 
L 276.075204 188.04 
L -143871.249618 188.04 
z
" style="fill:#997570;"/>
   </g>
   <g id="patch_28">
    <path clip-path="url(#p40923f5a92)" d="M -143871.249618 174.18 
L 273.819911 174.18 
L 273.819911 169.56 
L -143871.249618 169.56 
z
" style="fill:#997570;"/>
   </g>
   <g id="patch_29">
    <path clip-path="url(#p40923f5a92)" d="M -143871.249618 155.7 
L 272.140466 155.7 
L 272.140466 151.08 
L -143871.249618 151.08 
z
" style="fill:#997570;"/>
   </g>
   <g id="patch_30">
    <path clip-path="url(#p40923f5a92)" d="M -143871.249618 137.22 
L 271.014785 137.22 
L 271.014785 132.6 
L -143871.249618 132.6 
z
" style="fill:#997570;"/>
   </g>
   <g id="patch_31">
    <path clip-path="url(#p40923f5a92)" d="M -143871.249618 118.74 
L 259.827249 118.74 
L 259.827249 114.12 
L -143871.249618 114.12 
z
" style="fill:#997570;"/>
   </g>
   <g id="patch_32">
    <path clip-path="url(#p40923f5a92)" d="M -143871.249618 100.26 
L 256.782605 100.26 
L 256.782605 95.64 
L -143871.249618 95.64 
z
" style="fill:#997570;"/>
   </g>
   <g id="patch_33">
    <path clip-path="url(#p40923f5a92)" d="M -143871.249618 631.56 
L 518.767228 631.56 
L 518.767228 626.94 
L -143871.249618 626.94 
z
" style="fill:#5ca904;"/>
   </g>
   <g id="patch_34">
    <path clip-path="url(#p40923f5a92)" d="M -143871.249618 613.08 
L 541.085469 613.08 
L 541.085469 608.46 
L -143871.249618 608.46 
z
" style="fill:#5ca904;"/>
   </g>
   <g id="patch_35">
    <path clip-path="url(#p40923f5a92)" d="M -143871.249618 594.6 
L 547.550114 594.6 
L 547.550114 589.98 
L -143871.249618 589.98 
z
" style="fill:#5ca904;"/>
   </g>
   <g id="patch_36">
    <path clip-path="url(#p40923f5a92)" d="M -143871.249618 576.12 
L 370.448094 576.12 
L 370.448094 571.5 
L -143871.249618 571.5 
z
" style="fill:#5ca904;"/>
   </g>
   <g id="patch_37">
    <path clip-path="url(#p40923f5a92)" d="M -143871.249618 557.64 
L 151.382709 557.64 
L 151.382709 553.02 
L -143871.249618 553.02 
z
" style="fill:#5ca904;"/>
   </g>
   <g id="patch_38">
    <path clip-path="url(#p40923f5a92)" d="M -143871.249618 539.16 
L 526.914485 539.16 
L 526.914485 534.54 
L -143871.249618 534.54 
z
" style="fill:#5ca904;"/>
   </g>
   <g id="patch_39">
    <path clip-path="url(#p40923f5a92)" d="M -143871.249618 520.68 
L 495.831379 520.68 
L 495.831379 516.06 
L -143871.249618 516.06 
z
" style="fill:#5ca904;"/>
   </g>
   <g id="patch_40">
    <path clip-path="url(#p40923f5a92)" d="M -143871.249618 502.2 
L 547.742943 502.2 
L 547.742943 497.58 
L -143871.249618 497.58 
z
" style="fill:#5ca904;"/>
   </g>
   <g id="patch_41">
    <path clip-path="url(#p40923f5a92)" d="M -143871.249618 483.72 
L 490.089401 483.72 
L 490.089401 479.1 
L -143871.249618 479.1 
z
" style="fill:#5ca904;"/>
   </g>
   <g id="patch_42">
    <path clip-path="url(#p40923f5a92)" d="M -143871.249618 465.24 
L 491.689635 465.24 
L 491.689635 460.62 
L -143871.249618 460.62 
z
" style="fill:#5ca904;"/>
   </g>
   <g id="patch_43">
    <path clip-path="url(#p40923f5a92)" d="M -143871.249618 446.76 
L 270.702502 446.76 
L 270.702502 442.14 
L -143871.249618 442.14 
z
" style="fill:#5ca904;"/>
   </g>
   <g id="patch_44">
    <path clip-path="url(#p40923f5a92)" d="M -143871.249618 428.28 
L 245.819027 428.28 
L 245.819027 423.66 
L -143871.249618 423.66 
z
" style="fill:#5ca904;"/>
   </g>
   <g id="patch_45">
    <path clip-path="url(#p40923f5a92)" d="M -143871.249618 409.8 
L 361.946656 409.8 
L 361.946656 405.18 
L -143871.249618 405.18 
z
" style="fill:#5ca904;"/>
   </g>
   <g id="patch_46">
    <path clip-path="url(#p40923f5a92)" d="M -143871.249618 391.32 
L 302.564318 391.32 
L 302.564318 386.7 
L -143871.249618 386.7 
z
" style="fill:#5ca904;"/>
   </g>
   <g id="patch_47">
    <path clip-path="url(#p40923f5a92)" d="M -143871.249618 372.84 
L 422.714907 372.84 
L 422.714907 368.22 
L -143871.249618 368.22 
z
" style="fill:#5ca904;"/>
   </g>
   <g id="patch_48">
    <path clip-path="url(#p40923f5a92)" d="M -143871.249618 354.36 
L 575.431622 354.36 
L 575.431622 349.74 
L -143871.249618 349.74 
z
" style="fill:#5ca904;"/>
   </g>
   <g id="patch_49">
    <path clip-path="url(#p40923f5a92)" d="M -143871.249618 335.88 
L 574.137493 335.88 
L 574.137493 331.26 
L -143871.249618 331.26 
z
" style="fill:#5ca904;"/>
   </g>
   <g id="patch_50">
    <path clip-path="url(#p40923f5a92)" d="M -143871.249618 317.4 
L 279.815099 317.4 
L 279.815099 312.78 
L -143871.249618 312.78 
z
" style="fill:#5ca904;"/>
   </g>
   <g id="patch_51">
    <path clip-path="url(#p40923f5a92)" d="M -143871.249618 298.92 
L 220.207682 298.92 
L 220.207682 294.3 
L -143871.249618 294.3 
z
" style="fill:#5ca904;"/>
   </g>
   <g id="patch_52">
    <path clip-path="url(#p40923f5a92)" d="M -143871.249618 280.44 
L 378.802262 280.44 
L 378.802262 275.82 
L -143871.249618 275.82 
z
" style="fill:#5ca904;"/>
   </g>
   <g id="patch_53">
    <path clip-path="url(#p40923f5a92)" d="M -143871.249618 261.96 
L 315.890194 261.96 
L 315.890194 257.34 
L -143871.249618 257.34 
z
" style="fill:#5ca904;"/>
   </g>
   <g id="patch_54">
    <path clip-path="url(#p40923f5a92)" d="M -143871.249618 243.48 
L 490.860282 243.48 
L 490.860282 238.86 
L -143871.249618 238.86 
z
" style="fill:#5ca904;"/>
   </g>
   <g id="patch_55">
    <path clip-path="url(#p40923f5a92)" d="M -143871.249618 225 
L 226.601909 225 
L 226.601909 220.38 
L -143871.249618 220.38 
z
" style="fill:#5ca904;"/>
   </g>
   <g id="patch_56">
    <path clip-path="url(#p40923f5a92)" d="M -143871.249618 206.52 
L 361.853777 206.52 
L 361.853777 201.9 
L -143871.249618 201.9 
z
" style="fill:#5ca904;"/>
   </g>
   <g id="patch_57">
    <path clip-path="url(#p40923f5a92)" d="M -143871.249618 188.04 
L 181.861856 188.04 
L 181.861856 183.42 
L -143871.249618 183.42 
z
" style="fill:#5ca904;"/>
   </g>
   <g id="patch_58">
    <path clip-path="url(#p40923f5a92)" d="M -143871.249618 169.56 
L 312.59568 169.56 
L 312.59568 164.94 
L -143871.249618 164.94 
z
" style="fill:#5ca904;"/>
   </g>
   <g id="patch_59">
    <path clip-path="url(#p40923f5a92)" d="M -143871.249618 151.08 
L 467.638023 151.08 
L 467.638023 146.46 
L -143871.249618 146.46 
z
" style="fill:#5ca904;"/>
   </g>
   <g id="patch_60">
    <path clip-path="url(#p40923f5a92)" d="M -143871.249618 132.6 
L 115.363636 132.6 
L 115.363636 127.98 
L -143871.249618 127.98 
z
" style="fill:#5ca904;"/>
   </g>
   <g id="patch_61">
    <path clip-path="url(#p40923f5a92)" d="M -143871.249618 114.12 
L 140.994251 114.12 
L 140.994251 109.5 
L -143871.249618 109.5 
z
" style="fill:#5ca904;"/>
   </g>
   <g id="patch_62">
    <path clip-path="url(#p40923f5a92)" d="M -143871.249618 95.64 
L 332.975942 95.64 
L 332.975942 91.02 
L -143871.249618 91.02 
z
" style="fill:#5ca904;"/>
   </g>
   <g id="matplotlib.axis_1">
    <g id="xtick_1">
     <g id="line2d_1">
      <defs>
       <path d="M 0 0 
L 0 3.5 
" id="mc3a58543af" style="stroke:#000000;stroke-width:0.8;"/>
      </defs>
      <g>
       <use style="stroke:#000000;stroke-width:0.8;" x="215.29606" xlink:href="#mc3a58543af" y="640.8"/>
      </g>
     </g>
     <g id="text_1">
      <!-- $\mathdefault{10^{-1}}$ -->
      <defs>
       <path d="M 12.40625 8.296875 
L 28.515625 8.296875 
L 28.515625 63.921875 
L 10.984375 60.40625 
L 10.984375 69.390625 
L 28.421875 72.90625 
L 38.28125 72.90625 
L 38.28125 8.296875 
L 54.390625 8.296875 
L 54.390625 0 
L 12.40625 0 
z
" id="DejaVuSans-49"/>
       <path d="M 31.78125 66.40625 
Q 24.171875 66.40625 20.328125 58.90625 
Q 16.5 51.421875 16.5 36.375 
Q 16.5 21.390625 20.328125 13.890625 
Q 24.171875 6.390625 31.78125 6.390625 
Q 39.453125 6.390625 43.28125 13.890625 
Q 47.125 21.390625 47.125 36.375 
Q 47.125 51.421875 43.28125 58.90625 
Q 39.453125 66.40625 31.78125 66.40625 
z
M 31.78125 74.21875 
Q 44.046875 74.21875 50.515625 64.515625 
Q 56.984375 54.828125 56.984375 36.375 
Q 56.984375 17.96875 50.515625 8.265625 
Q 44.046875 -1.421875 31.78125 -1.421875 
Q 19.53125 -1.421875 13.0625 8.265625 
Q 6.59375 17.96875 6.59375 36.375 
Q 6.59375 54.828125 13.0625 64.515625 
Q 19.53125 74.21875 31.78125 74.21875 
z
" id="DejaVuSans-48"/>
       <path d="M 10.59375 35.5 
L 73.1875 35.5 
L 73.1875 27.203125 
L 10.59375 27.203125 
z
" id="DejaVuSans-8722"/>
      </defs>
      <g transform="translate(203.54606 655.398438)scale(0.1 -0.1)">
       <use transform="translate(0 0.684375)" xlink:href="#DejaVuSans-49"/>
       <use transform="translate(63.623047 0.684375)" xlink:href="#DejaVuSans-48"/>
       <use transform="translate(128.203125 38.965625)scale(0.7)" xlink:href="#DejaVuSans-8722"/>
       <use transform="translate(186.855469 38.965625)scale(0.7)" xlink:href="#DejaVuSans-49"/>
      </g>
     </g>
    </g>
    <g id="xtick_2">
     <g id="line2d_2">
      <g>
       <use style="stroke:#000000;stroke-width:0.8;" x="359.526837" xlink:href="#mc3a58543af" y="640.8"/>
      </g>
     </g>
     <g id="text_2">
      <!-- $\mathdefault{10^{0}}$ -->
      <g transform="translate(350.726837 655.398438)scale(0.1 -0.1)">
       <use transform="translate(0 0.765625)" xlink:href="#DejaVuSans-49"/>
       <use transform="translate(63.623047 0.765625)" xlink:href="#DejaVuSans-48"/>
       <use transform="translate(128.203125 39.046875)scale(0.7)" xlink:href="#DejaVuSans-48"/>
      </g>
     </g>
    </g>
    <g id="xtick_3">
     <g id="line2d_3">
      <g>
       <use style="stroke:#000000;stroke-width:0.8;" x="503.757613" xlink:href="#mc3a58543af" y="640.8"/>
      </g>
     </g>
     <g id="text_3">
      <!-- $\mathdefault{10^{1}}$ -->
      <g transform="translate(494.957613 655.398438)scale(0.1 -0.1)">
       <use transform="translate(0 0.684375)" xlink:href="#DejaVuSans-49"/>
       <use transform="translate(63.623047 0.684375)" xlink:href="#DejaVuSans-48"/>
       <use transform="translate(128.203125 38.965625)scale(0.7)" xlink:href="#DejaVuSans-49"/>
      </g>
     </g>
    </g>
    <g id="xtick_4">
     <g id="line2d_4">
      <g>
       <use style="stroke:#000000;stroke-width:0.8;" x="647.98839" xlink:href="#mc3a58543af" y="640.8"/>
      </g>
     </g>
     <g id="text_4">
      <!-- $\mathdefault{10^{2}}$ -->
      <defs>
       <path d="M 19.1875 8.296875 
L 53.609375 8.296875 
L 53.609375 0 
L 7.328125 0 
L 7.328125 8.296875 
Q 12.9375 14.109375 22.625 23.890625 
Q 32.328125 33.6875 34.8125 36.53125 
Q 39.546875 41.84375 41.421875 45.53125 
Q 43.3125 49.21875 43.3125 52.78125 
Q 43.3125 58.59375 39.234375 62.25 
Q 35.15625 65.921875 28.609375 65.921875 
Q 23.96875 65.921875 18.8125 64.3125 
Q 13.671875 62.703125 7.8125 59.421875 
L 7.8125 69.390625 
Q 13.765625 71.78125 18.9375 73 
Q 24.125 74.21875 28.421875 74.21875 
Q 39.75 74.21875 46.484375 68.546875 
Q 53.21875 62.890625 53.21875 53.421875 
Q 53.21875 48.921875 51.53125 44.890625 
Q 49.859375 40.875 45.40625 35.40625 
Q 44.1875 33.984375 37.640625 27.21875 
Q 31.109375 20.453125 19.1875 8.296875 
z
" id="DejaVuSans-50"/>
      </defs>
      <g transform="translate(639.18839 655.398438)scale(0.1 -0.1)">
       <use transform="translate(0 0.765625)" xlink:href="#DejaVuSans-49"/>
       <use transform="translate(63.623047 0.765625)" xlink:href="#DejaVuSans-48"/>
       <use transform="translate(128.203125 39.046875)scale(0.7)" xlink:href="#DejaVuSans-50"/>
      </g>
     </g>
    </g>
    <g id="xtick_5">
     <g id="line2d_5">
      <defs>
       <path d="M 0 0 
L 0 2 
" id="m6067fd3f24" style="stroke:#000000;stroke-width:0.6;"/>
      </defs>
      <g>
       <use style="stroke:#000000;stroke-width:0.6;" x="114.483074" xlink:href="#m6067fd3f24" y="640.8"/>
      </g>
     </g>
    </g>
    <g id="xtick_6">
     <g id="line2d_6">
      <g>
       <use style="stroke:#000000;stroke-width:0.6;" x="139.880853" xlink:href="#m6067fd3f24" y="640.8"/>
      </g>
     </g>
    </g>
    <g id="xtick_7">
     <g id="line2d_7">
      <g>
       <use style="stroke:#000000;stroke-width:0.6;" x="157.900864" xlink:href="#m6067fd3f24" y="640.8"/>
      </g>
     </g>
    </g>
    <g id="xtick_8">
     <g id="line2d_8">
      <g>
       <use style="stroke:#000000;stroke-width:0.6;" x="171.87827" xlink:href="#m6067fd3f24" y="640.8"/>
      </g>
     </g>
    </g>
    <g id="xtick_9">
     <g id="line2d_9">
      <g>
       <use style="stroke:#000000;stroke-width:0.6;" x="183.298643" xlink:href="#m6067fd3f24" y="640.8"/>
      </g>
     </g>
    </g>
    <g id="xtick_10">
     <g id="line2d_10">
      <g>
       <use style="stroke:#000000;stroke-width:0.6;" x="192.95443" xlink:href="#m6067fd3f24" y="640.8"/>
      </g>
     </g>
    </g>
    <g id="xtick_11">
     <g id="line2d_11">
      <g>
       <use style="stroke:#000000;stroke-width:0.6;" x="201.318654" xlink:href="#m6067fd3f24" y="640.8"/>
      </g>
     </g>
    </g>
    <g id="xtick_12">
     <g id="line2d_12">
      <g>
       <use style="stroke:#000000;stroke-width:0.6;" x="208.696422" xlink:href="#m6067fd3f24" y="640.8"/>
      </g>
     </g>
    </g>
    <g id="xtick_13">
     <g id="line2d_13">
      <g>
       <use style="stroke:#000000;stroke-width:0.6;" x="258.71385" xlink:href="#m6067fd3f24" y="640.8"/>
      </g>
     </g>
    </g>
    <g id="xtick_14">
     <g id="line2d_14">
      <g>
       <use style="stroke:#000000;stroke-width:0.6;" x="284.111629" xlink:href="#m6067fd3f24" y="640.8"/>
      </g>
     </g>
    </g>
    <g id="xtick_15">
     <g id="line2d_15">
      <g>
       <use style="stroke:#000000;stroke-width:0.6;" x="302.13164" xlink:href="#m6067fd3f24" y="640.8"/>
      </g>
     </g>
    </g>
    <g id="xtick_16">
     <g id="line2d_16">
      <g>
       <use style="stroke:#000000;stroke-width:0.6;" x="316.109047" xlink:href="#m6067fd3f24" y="640.8"/>
      </g>
     </g>
    </g>
    <g id="xtick_17">
     <g id="line2d_17">
      <g>
       <use style="stroke:#000000;stroke-width:0.6;" x="327.529419" xlink:href="#m6067fd3f24" y="640.8"/>
      </g>
     </g>
    </g>
    <g id="xtick_18">
     <g id="line2d_18">
      <g>
       <use style="stroke:#000000;stroke-width:0.6;" x="337.185207" xlink:href="#m6067fd3f24" y="640.8"/>
      </g>
     </g>
    </g>
    <g id="xtick_19">
     <g id="line2d_19">
      <g>
       <use style="stroke:#000000;stroke-width:0.6;" x="345.54943" xlink:href="#m6067fd3f24" y="640.8"/>
      </g>
     </g>
    </g>
    <g id="xtick_20">
     <g id="line2d_20">
      <g>
       <use style="stroke:#000000;stroke-width:0.6;" x="352.927199" xlink:href="#m6067fd3f24" y="640.8"/>
      </g>
     </g>
    </g>
    <g id="xtick_21">
     <g id="line2d_21">
      <g>
       <use style="stroke:#000000;stroke-width:0.6;" x="402.944627" xlink:href="#m6067fd3f24" y="640.8"/>
      </g>
     </g>
    </g>
    <g id="xtick_22">
     <g id="line2d_22">
      <g>
       <use style="stroke:#000000;stroke-width:0.6;" x="428.342406" xlink:href="#m6067fd3f24" y="640.8"/>
      </g>
     </g>
    </g>
    <g id="xtick_23">
     <g id="line2d_23">
      <g>
       <use style="stroke:#000000;stroke-width:0.6;" x="446.362417" xlink:href="#m6067fd3f24" y="640.8"/>
      </g>
     </g>
    </g>
    <g id="xtick_24">
     <g id="line2d_24">
      <g>
       <use style="stroke:#000000;stroke-width:0.6;" x="460.339823" xlink:href="#m6067fd3f24" y="640.8"/>
      </g>
     </g>
    </g>
    <g id="xtick_25">
     <g id="line2d_25">
      <g>
       <use style="stroke:#000000;stroke-width:0.6;" x="471.760196" xlink:href="#m6067fd3f24" y="640.8"/>
      </g>
     </g>
    </g>
    <g id="xtick_26">
     <g id="line2d_26">
      <g>
       <use style="stroke:#000000;stroke-width:0.6;" x="481.415983" xlink:href="#m6067fd3f24" y="640.8"/>
      </g>
     </g>
    </g>
    <g id="xtick_27">
     <g id="line2d_27">
      <g>
       <use style="stroke:#000000;stroke-width:0.6;" x="489.780207" xlink:href="#m6067fd3f24" y="640.8"/>
      </g>
     </g>
    </g>
    <g id="xtick_28">
     <g id="line2d_28">
      <g>
       <use style="stroke:#000000;stroke-width:0.6;" x="497.157975" xlink:href="#m6067fd3f24" y="640.8"/>
      </g>
     </g>
    </g>
    <g id="xtick_29">
     <g id="line2d_29">
      <g>
       <use style="stroke:#000000;stroke-width:0.6;" x="547.175403" xlink:href="#m6067fd3f24" y="640.8"/>
      </g>
     </g>
    </g>
    <g id="xtick_30">
     <g id="line2d_30">
      <g>
       <use style="stroke:#000000;stroke-width:0.6;" x="572.573182" xlink:href="#m6067fd3f24" y="640.8"/>
      </g>
     </g>
    </g>
    <g id="xtick_31">
     <g id="line2d_31">
      <g>
       <use style="stroke:#000000;stroke-width:0.6;" x="590.593193" xlink:href="#m6067fd3f24" y="640.8"/>
      </g>
     </g>
    </g>
    <g id="xtick_32">
     <g id="line2d_32">
      <g>
       <use style="stroke:#000000;stroke-width:0.6;" x="604.5706" xlink:href="#m6067fd3f24" y="640.8"/>
      </g>
     </g>
    </g>
    <g id="xtick_33">
     <g id="line2d_33">
      <g>
       <use style="stroke:#000000;stroke-width:0.6;" x="615.990972" xlink:href="#m6067fd3f24" y="640.8"/>
      </g>
     </g>
    </g>
    <g id="xtick_34">
     <g id="line2d_34">
      <g>
       <use style="stroke:#000000;stroke-width:0.6;" x="625.64676" xlink:href="#m6067fd3f24" y="640.8"/>
      </g>
     </g>
    </g>
    <g id="xtick_35">
     <g id="line2d_35">
      <g>
       <use style="stroke:#000000;stroke-width:0.6;" x="634.010983" xlink:href="#m6067fd3f24" y="640.8"/>
      </g>
     </g>
    </g>
    <g id="xtick_36">
     <g id="line2d_36">
      <g>
       <use style="stroke:#000000;stroke-width:0.6;" x="641.388751" xlink:href="#m6067fd3f24" y="640.8"/>
      </g>
     </g>
    </g>
    <g id="text_5">
     <!-- capita / 100000 -->
     <defs>
      <path d="M 48.78125 52.59375 
L 48.78125 44.1875 
Q 44.96875 46.296875 41.140625 47.34375 
Q 37.3125 48.390625 33.40625 48.390625 
Q 24.65625 48.390625 19.8125 42.84375 
Q 14.984375 37.3125 14.984375 27.296875 
Q 14.984375 17.28125 19.8125 11.734375 
Q 24.65625 6.203125 33.40625 6.203125 
Q 37.3125 6.203125 41.140625 7.25 
Q 44.96875 8.296875 48.78125 10.40625 
L 48.78125 2.09375 
Q 45.015625 0.34375 40.984375 -0.53125 
Q 36.96875 -1.421875 32.421875 -1.421875 
Q 20.0625 -1.421875 12.78125 6.34375 
Q 5.515625 14.109375 5.515625 27.296875 
Q 5.515625 40.671875 12.859375 48.328125 
Q 20.21875 56 33.015625 56 
Q 37.15625 56 41.109375 55.140625 
Q 45.0625 54.296875 48.78125 52.59375 
z
" id="DejaVuSans-99"/>
      <path d="M 34.28125 27.484375 
Q 23.390625 27.484375 19.1875 25 
Q 14.984375 22.515625 14.984375 16.5 
Q 14.984375 11.71875 18.140625 8.90625 
Q 21.296875 6.109375 26.703125 6.109375 
Q 34.1875 6.109375 38.703125 11.40625 
Q 43.21875 16.703125 43.21875 25.484375 
L 43.21875 27.484375 
z
M 52.203125 31.203125 
L 52.203125 0 
L 43.21875 0 
L 43.21875 8.296875 
Q 40.140625 3.328125 35.546875 0.953125 
Q 30.953125 -1.421875 24.3125 -1.421875 
Q 15.921875 -1.421875 10.953125 3.296875 
Q 6 8.015625 6 15.921875 
Q 6 25.140625 12.171875 29.828125 
Q 18.359375 34.515625 30.609375 34.515625 
L 43.21875 34.515625 
L 43.21875 35.40625 
Q 43.21875 41.609375 39.140625 45 
Q 35.0625 48.390625 27.6875 48.390625 
Q 23 48.390625 18.546875 47.265625 
Q 14.109375 46.140625 10.015625 43.890625 
L 10.015625 52.203125 
Q 14.9375 54.109375 19.578125 55.046875 
Q 24.21875 56 28.609375 56 
Q 40.484375 56 46.34375 49.84375 
Q 52.203125 43.703125 52.203125 31.203125 
z
" id="DejaVuSans-97"/>
      <path d="M 18.109375 8.203125 
L 18.109375 -20.796875 
L 9.078125 -20.796875 
L 9.078125 54.6875 
L 18.109375 54.6875 
L 18.109375 46.390625 
Q 20.953125 51.265625 25.265625 53.625 
Q 29.59375 56 35.59375 56 
Q 45.5625 56 51.78125 48.09375 
Q 58.015625 40.1875 58.015625 27.296875 
Q 58.015625 14.40625 51.78125 6.484375 
Q 45.5625 -1.421875 35.59375 -1.421875 
Q 29.59375 -1.421875 25.265625 0.953125 
Q 20.953125 3.328125 18.109375 8.203125 
z
M 48.6875 27.296875 
Q 48.6875 37.203125 44.609375 42.84375 
Q 40.53125 48.484375 33.40625 48.484375 
Q 26.265625 48.484375 22.1875 42.84375 
Q 18.109375 37.203125 18.109375 27.296875 
Q 18.109375 17.390625 22.1875 11.75 
Q 26.265625 6.109375 33.40625 6.109375 
Q 40.53125 6.109375 44.609375 11.75 
Q 48.6875 17.390625 48.6875 27.296875 
z
" id="DejaVuSans-112"/>
      <path d="M 9.421875 54.6875 
L 18.40625 54.6875 
L 18.40625 0 
L 9.421875 0 
z
M 9.421875 75.984375 
L 18.40625 75.984375 
L 18.40625 64.59375 
L 9.421875 64.59375 
z
" id="DejaVuSans-105"/>
      <path d="M 18.3125 70.21875 
L 18.3125 54.6875 
L 36.8125 54.6875 
L 36.8125 47.703125 
L 18.3125 47.703125 
L 18.3125 18.015625 
Q 18.3125 11.328125 20.140625 9.421875 
Q 21.96875 7.515625 27.59375 7.515625 
L 36.8125 7.515625 
L 36.8125 0 
L 27.59375 0 
Q 17.1875 0 13.234375 3.875 
Q 9.28125 7.765625 9.28125 18.015625 
L 9.28125 47.703125 
L 2.6875 47.703125 
L 2.6875 54.6875 
L 9.28125 54.6875 
L 9.28125 70.21875 
z
" id="DejaVuSans-116"/>
      <path id="DejaVuSans-32"/>
      <path d="M 25.390625 72.90625 
L 33.6875 72.90625 
L 8.296875 -9.28125 
L 0 -9.28125 
z
" id="DejaVuSans-47"/>
     </defs>
     <g transform="translate(329.649219 669.076563)scale(0.1 -0.1)">
      <use xlink:href="#DejaVuSans-99"/>
      <use x="54.980469" xlink:href="#DejaVuSans-97"/>
      <use x="116.259766" xlink:href="#DejaVuSans-112"/>
      <use x="179.736328" xlink:href="#DejaVuSans-105"/>
      <use x="207.519531" xlink:href="#DejaVuSans-116"/>
      <use x="246.728516" xlink:href="#DejaVuSans-97"/>
      <use x="308.007812" xlink:href="#DejaVuSans-32"/>
      <use x="339.794922" xlink:href="#DejaVuSans-47"/>
      <use x="373.486328" xlink:href="#DejaVuSans-32"/>
      <use x="405.273438" xlink:href="#DejaVuSans-49"/>
      <use x="468.896484" xlink:href="#DejaVuSans-48"/>
      <use x="532.519531" xlink:href="#DejaVuSans-48"/>
      <use x="596.142578" xlink:href="#DejaVuSans-48"/>
      <use x="659.765625" xlink:href="#DejaVuSans-48"/>
      <use x="723.388672" xlink:href="#DejaVuSans-48"/>
     </g>
    </g>
   </g>
   <g id="matplotlib.axis_2">
    <g id="ytick_1">
     <g id="line2d_37">
      <defs>
       <path d="M 0 0 
L -3.5 0 
" id="m53ad44bd69" style="stroke:#000000;stroke-width:0.8;"/>
      </defs>
      <g>
       <use style="stroke:#000000;stroke-width:0.8;" x="90" xlink:href="#m53ad44bd69" y="631.56"/>
      </g>
     </g>
     <g id="text_6">
      <!-- San Marino -->
      <defs>
       <path d="M 53.515625 70.515625 
L 53.515625 60.890625 
Q 47.90625 63.578125 42.921875 64.890625 
Q 37.9375 66.21875 33.296875 66.21875 
Q 25.25 66.21875 20.875 63.09375 
Q 16.5 59.96875 16.5 54.203125 
Q 16.5 49.359375 19.40625 46.890625 
Q 22.3125 44.4375 30.421875 42.921875 
L 36.375 41.703125 
Q 47.40625 39.59375 52.65625 34.296875 
Q 57.90625 29 57.90625 20.125 
Q 57.90625 9.515625 50.796875 4.046875 
Q 43.703125 -1.421875 29.984375 -1.421875 
Q 24.8125 -1.421875 18.96875 -0.25 
Q 13.140625 0.921875 6.890625 3.21875 
L 6.890625 13.375 
Q 12.890625 10.015625 18.65625 8.296875 
Q 24.421875 6.59375 29.984375 6.59375 
Q 38.421875 6.59375 43.015625 9.90625 
Q 47.609375 13.234375 47.609375 19.390625 
Q 47.609375 24.75 44.3125 27.78125 
Q 41.015625 30.8125 33.5 32.328125 
L 27.484375 33.5 
Q 16.453125 35.6875 11.515625 40.375 
Q 6.59375 45.0625 6.59375 53.421875 
Q 6.59375 63.09375 13.40625 68.65625 
Q 20.21875 74.21875 32.171875 74.21875 
Q 37.3125 74.21875 42.625 73.28125 
Q 47.953125 72.359375 53.515625 70.515625 
z
" id="DejaVuSans-83"/>
       <path d="M 54.890625 33.015625 
L 54.890625 0 
L 45.90625 0 
L 45.90625 32.71875 
Q 45.90625 40.484375 42.875 44.328125 
Q 39.84375 48.1875 33.796875 48.1875 
Q 26.515625 48.1875 22.3125 43.546875 
Q 18.109375 38.921875 18.109375 30.90625 
L 18.109375 0 
L 9.078125 0 
L 9.078125 54.6875 
L 18.109375 54.6875 
L 18.109375 46.1875 
Q 21.34375 51.125 25.703125 53.5625 
Q 30.078125 56 35.796875 56 
Q 45.21875 56 50.046875 50.171875 
Q 54.890625 44.34375 54.890625 33.015625 
z
" id="DejaVuSans-110"/>
       <path d="M 9.8125 72.90625 
L 24.515625 72.90625 
L 43.109375 23.296875 
L 61.8125 72.90625 
L 76.515625 72.90625 
L 76.515625 0 
L 66.890625 0 
L 66.890625 64.015625 
L 48.09375 14.015625 
L 38.1875 14.015625 
L 19.390625 64.015625 
L 19.390625 0 
L 9.8125 0 
z
" id="DejaVuSans-77"/>
       <path d="M 41.109375 46.296875 
Q 39.59375 47.171875 37.8125 47.578125 
Q 36.03125 48 33.890625 48 
Q 26.265625 48 22.1875 43.046875 
Q 18.109375 38.09375 18.109375 28.8125 
L 18.109375 0 
L 9.078125 0 
L 9.078125 54.6875 
L 18.109375 54.6875 
L 18.109375 46.1875 
Q 20.953125 51.171875 25.484375 53.578125 
Q 30.03125 56 36.53125 56 
Q 37.453125 56 38.578125 55.875 
Q 39.703125 55.765625 41.0625 55.515625 
z
" id="DejaVuSans-114"/>
       <path d="M 30.609375 48.390625 
Q 23.390625 48.390625 19.1875 42.75 
Q 14.984375 37.109375 14.984375 27.296875 
Q 14.984375 17.484375 19.15625 11.84375 
Q 23.34375 6.203125 30.609375 6.203125 
Q 37.796875 6.203125 41.984375 11.859375 
Q 46.1875 17.53125 46.1875 27.296875 
Q 46.1875 37.015625 41.984375 42.703125 
Q 37.796875 48.390625 30.609375 48.390625 
z
M 30.609375 56 
Q 42.328125 56 49.015625 48.375 
Q 55.71875 40.765625 55.71875 27.296875 
Q 55.71875 13.875 49.015625 6.21875 
Q 42.328125 -1.421875 30.609375 -1.421875 
Q 18.84375 -1.421875 12.171875 6.21875 
Q 5.515625 13.875 5.515625 27.296875 
Q 5.515625 40.765625 12.171875 48.375 
Q 18.84375 56 30.609375 56 
z
" id="DejaVuSans-111"/>
      </defs>
      <g transform="translate(26.90625 635.359219)scale(0.1 -0.1)">
       <use xlink:href="#DejaVuSans-83"/>
       <use x="63.476562" xlink:href="#DejaVuSans-97"/>
       <use x="124.755859" xlink:href="#DejaVuSans-110"/>
       <use x="188.134766" xlink:href="#DejaVuSans-32"/>
       <use x="219.921875" xlink:href="#DejaVuSans-77"/>
       <use x="306.201172" xlink:href="#DejaVuSans-97"/>
       <use x="367.480469" xlink:href="#DejaVuSans-114"/>
       <use x="408.59375" xlink:href="#DejaVuSans-105"/>
       <use x="436.376953" xlink:href="#DejaVuSans-110"/>
       <use x="499.755859" xlink:href="#DejaVuSans-111"/>
      </g>
     </g>
    </g>
    <g id="ytick_2">
     <g id="line2d_38">
      <g>
       <use style="stroke:#000000;stroke-width:0.8;" x="90" xlink:href="#m53ad44bd69" y="613.08"/>
      </g>
     </g>
     <g id="text_7">
      <!-- Italy -->
      <defs>
       <path d="M 9.8125 72.90625 
L 19.671875 72.90625 
L 19.671875 0 
L 9.8125 0 
z
" id="DejaVuSans-73"/>
       <path d="M 9.421875 75.984375 
L 18.40625 75.984375 
L 18.40625 0 
L 9.421875 0 
z
" id="DejaVuSans-108"/>
       <path d="M 32.171875 -5.078125 
Q 28.375 -14.84375 24.75 -17.8125 
Q 21.140625 -20.796875 15.09375 -20.796875 
L 7.90625 -20.796875 
L 7.90625 -13.28125 
L 13.1875 -13.28125 
Q 16.890625 -13.28125 18.9375 -11.515625 
Q 21 -9.765625 23.484375 -3.21875 
L 25.09375 0.875 
L 2.984375 54.6875 
L 12.5 54.6875 
L 29.59375 11.921875 
L 46.6875 54.6875 
L 56.203125 54.6875 
z
" id="DejaVuSans-121"/>
      </defs>
      <g transform="translate(61.304688 616.879219)scale(0.1 -0.1)">
       <use xlink:href="#DejaVuSans-73"/>
       <use x="29.492188" xlink:href="#DejaVuSans-116"/>
       <use x="68.701172" xlink:href="#DejaVuSans-97"/>
       <use x="129.980469" xlink:href="#DejaVuSans-108"/>
       <use x="157.763672" xlink:href="#DejaVuSans-121"/>
      </g>
     </g>
    </g>
    <g id="ytick_3">
     <g id="line2d_39">
      <g>
       <use style="stroke:#000000;stroke-width:0.8;" x="90" xlink:href="#m53ad44bd69" y="594.6"/>
      </g>
     </g>
     <g id="text_8">
      <!-- Spain -->
      <g transform="translate(55.059375 598.399219)scale(0.1 -0.1)">
       <use xlink:href="#DejaVuSans-83"/>
       <use x="63.476562" xlink:href="#DejaVuSans-112"/>
       <use x="126.953125" xlink:href="#DejaVuSans-97"/>
       <use x="188.232422" xlink:href="#DejaVuSans-105"/>
       <use x="216.015625" xlink:href="#DejaVuSans-110"/>
      </g>
     </g>
    </g>
    <g id="ytick_4">
     <g id="line2d_40">
      <g>
       <use style="stroke:#000000;stroke-width:0.8;" x="90" xlink:href="#m53ad44bd69" y="576.12"/>
      </g>
     </g>
     <g id="text_9">
      <!-- Andorra -->
      <defs>
       <path d="M 34.1875 63.1875 
L 20.796875 26.90625 
L 47.609375 26.90625 
z
M 28.609375 72.90625 
L 39.796875 72.90625 
L 67.578125 0 
L 57.328125 0 
L 50.6875 18.703125 
L 17.828125 18.703125 
L 11.1875 0 
L 0.78125 0 
z
" id="DejaVuSans-65"/>
       <path d="M 45.40625 46.390625 
L 45.40625 75.984375 
L 54.390625 75.984375 
L 54.390625 0 
L 45.40625 0 
L 45.40625 8.203125 
Q 42.578125 3.328125 38.25 0.953125 
Q 33.9375 -1.421875 27.875 -1.421875 
Q 17.96875 -1.421875 11.734375 6.484375 
Q 5.515625 14.40625 5.515625 27.296875 
Q 5.515625 40.1875 11.734375 48.09375 
Q 17.96875 56 27.875 56 
Q 33.9375 56 38.25 53.625 
Q 42.578125 51.265625 45.40625 46.390625 
z
M 14.796875 27.296875 
Q 14.796875 17.390625 18.875 11.75 
Q 22.953125 6.109375 30.078125 6.109375 
Q 37.203125 6.109375 41.296875 11.75 
Q 45.40625 17.390625 45.40625 27.296875 
Q 45.40625 37.203125 41.296875 42.84375 
Q 37.203125 48.484375 30.078125 48.484375 
Q 22.953125 48.484375 18.875 42.84375 
Q 14.796875 37.203125 14.796875 27.296875 
z
" id="DejaVuSans-100"/>
      </defs>
      <g transform="translate(43.179688 579.919219)scale(0.1 -0.1)">
       <use xlink:href="#DejaVuSans-65"/>
       <use x="68.408203" xlink:href="#DejaVuSans-110"/>
       <use x="131.787109" xlink:href="#DejaVuSans-100"/>
       <use x="195.263672" xlink:href="#DejaVuSans-111"/>
       <use x="256.445312" xlink:href="#DejaVuSans-114"/>
       <use x="295.808594" xlink:href="#DejaVuSans-114"/>
       <use x="336.921875" xlink:href="#DejaVuSans-97"/>
      </g>
     </g>
    </g>
    <g id="ytick_5">
     <g id="line2d_41">
      <g>
       <use style="stroke:#000000;stroke-width:0.8;" x="90" xlink:href="#m53ad44bd69" y="557.64"/>
      </g>
     </g>
     <g id="text_10">
      <!-- Netherlands -->
      <defs>
       <path d="M 9.8125 72.90625 
L 23.09375 72.90625 
L 55.421875 11.921875 
L 55.421875 72.90625 
L 64.984375 72.90625 
L 64.984375 0 
L 51.703125 0 
L 19.390625 60.984375 
L 19.390625 0 
L 9.8125 0 
z
" id="DejaVuSans-78"/>
       <path d="M 56.203125 29.59375 
L 56.203125 25.203125 
L 14.890625 25.203125 
Q 15.484375 15.921875 20.484375 11.0625 
Q 25.484375 6.203125 34.421875 6.203125 
Q 39.59375 6.203125 44.453125 7.46875 
Q 49.3125 8.734375 54.109375 11.28125 
L 54.109375 2.78125 
Q 49.265625 0.734375 44.1875 -0.34375 
Q 39.109375 -1.421875 33.890625 -1.421875 
Q 20.796875 -1.421875 13.15625 6.1875 
Q 5.515625 13.8125 5.515625 26.8125 
Q 5.515625 40.234375 12.765625 48.109375 
Q 20.015625 56 32.328125 56 
Q 43.359375 56 49.78125 48.890625 
Q 56.203125 41.796875 56.203125 29.59375 
z
M 47.21875 32.234375 
Q 47.125 39.59375 43.09375 43.984375 
Q 39.0625 48.390625 32.421875 48.390625 
Q 24.90625 48.390625 20.390625 44.140625 
Q 15.875 39.890625 15.1875 32.171875 
z
" id="DejaVuSans-101"/>
       <path d="M 54.890625 33.015625 
L 54.890625 0 
L 45.90625 0 
L 45.90625 32.71875 
Q 45.90625 40.484375 42.875 44.328125 
Q 39.84375 48.1875 33.796875 48.1875 
Q 26.515625 48.1875 22.3125 43.546875 
Q 18.109375 38.921875 18.109375 30.90625 
L 18.109375 0 
L 9.078125 0 
L 9.078125 75.984375 
L 18.109375 75.984375 
L 18.109375 46.1875 
Q 21.34375 51.125 25.703125 53.5625 
Q 30.078125 56 35.796875 56 
Q 45.21875 56 50.046875 50.171875 
Q 54.890625 44.34375 54.890625 33.015625 
z
" id="DejaVuSans-104"/>
       <path d="M 44.28125 53.078125 
L 44.28125 44.578125 
Q 40.484375 46.53125 36.375 47.5 
Q 32.28125 48.484375 27.875 48.484375 
Q 21.1875 48.484375 17.84375 46.4375 
Q 14.5 44.390625 14.5 40.28125 
Q 14.5 37.15625 16.890625 35.375 
Q 19.28125 33.59375 26.515625 31.984375 
L 29.59375 31.296875 
Q 39.15625 29.25 43.1875 25.515625 
Q 47.21875 21.78125 47.21875 15.09375 
Q 47.21875 7.46875 41.1875 3.015625 
Q 35.15625 -1.421875 24.609375 -1.421875 
Q 20.21875 -1.421875 15.453125 -0.5625 
Q 10.6875 0.296875 5.421875 2 
L 5.421875 11.28125 
Q 10.40625 8.6875 15.234375 7.390625 
Q 20.0625 6.109375 24.8125 6.109375 
Q 31.15625 6.109375 34.5625 8.28125 
Q 37.984375 10.453125 37.984375 14.40625 
Q 37.984375 18.0625 35.515625 20.015625 
Q 33.0625 21.96875 24.703125 23.78125 
L 21.578125 24.515625 
Q 13.234375 26.265625 9.515625 29.90625 
Q 5.8125 33.546875 5.8125 39.890625 
Q 5.8125 47.609375 11.28125 51.796875 
Q 16.75 56 26.8125 56 
Q 31.78125 56 36.171875 55.265625 
Q 40.578125 54.546875 44.28125 53.078125 
z
" id="DejaVuSans-115"/>
      </defs>
      <g transform="translate(22.042187 561.439219)scale(0.1 -0.1)">
       <use xlink:href="#DejaVuSans-78"/>
       <use x="74.804688" xlink:href="#DejaVuSans-101"/>
       <use x="136.328125" xlink:href="#DejaVuSans-116"/>
       <use x="175.537109" xlink:href="#DejaVuSans-104"/>
       <use x="238.916016" xlink:href="#DejaVuSans-101"/>
       <use x="300.439453" xlink:href="#DejaVuSans-114"/>
       <use x="341.552734" xlink:href="#DejaVuSans-108"/>
       <use x="369.335938" xlink:href="#DejaVuSans-97"/>
       <use x="430.615234" xlink:href="#DejaVuSans-110"/>
       <use x="493.994141" xlink:href="#DejaVuSans-100"/>
       <use x="557.470703" xlink:href="#DejaVuSans-115"/>
      </g>
     </g>
    </g>
    <g id="ytick_6">
     <g id="line2d_42">
      <g>
       <use style="stroke:#000000;stroke-width:0.8;" x="90" xlink:href="#m53ad44bd69" y="539.16"/>
      </g>
     </g>
     <g id="text_11">
      <!-- Iran -->
      <g transform="translate(63.473438 542.959219)scale(0.1 -0.1)">
       <use xlink:href="#DejaVuSans-73"/>
       <use x="29.492188" xlink:href="#DejaVuSans-114"/>
       <use x="70.605469" xlink:href="#DejaVuSans-97"/>
       <use x="131.884766" xlink:href="#DejaVuSans-110"/>
      </g>
     </g>
    </g>
    <g id="ytick_7">
     <g id="line2d_43">
      <g>
       <use style="stroke:#000000;stroke-width:0.8;" x="90" xlink:href="#m53ad44bd69" y="520.68"/>
      </g>
     </g>
     <g id="text_12">
      <!-- France -->
      <defs>
       <path d="M 9.8125 72.90625 
L 51.703125 72.90625 
L 51.703125 64.59375 
L 19.671875 64.59375 
L 19.671875 43.109375 
L 48.578125 43.109375 
L 48.578125 34.8125 
L 19.671875 34.8125 
L 19.671875 0 
L 9.8125 0 
z
" id="DejaVuSans-70"/>
      </defs>
      <g transform="translate(49.745312 524.479219)scale(0.1 -0.1)">
       <use xlink:href="#DejaVuSans-70"/>
       <use x="50.269531" xlink:href="#DejaVuSans-114"/>
       <use x="91.382812" xlink:href="#DejaVuSans-97"/>
       <use x="152.662109" xlink:href="#DejaVuSans-110"/>
       <use x="216.041016" xlink:href="#DejaVuSans-99"/>
       <use x="271.021484" xlink:href="#DejaVuSans-101"/>
      </g>
     </g>
    </g>
    <g id="ytick_8">
     <g id="line2d_44">
      <g>
       <use style="stroke:#000000;stroke-width:0.8;" x="90" xlink:href="#m53ad44bd69" y="502.2"/>
      </g>
     </g>
     <g id="text_13">
      <!-- Switzerland -->
      <defs>
       <path d="M 4.203125 54.6875 
L 13.1875 54.6875 
L 24.421875 12.015625 
L 35.59375 54.6875 
L 46.1875 54.6875 
L 57.421875 12.015625 
L 68.609375 54.6875 
L 77.59375 54.6875 
L 63.28125 0 
L 52.6875 0 
L 40.921875 44.828125 
L 29.109375 0 
L 18.5 0 
z
" id="DejaVuSans-119"/>
       <path d="M 5.515625 54.6875 
L 48.1875 54.6875 
L 48.1875 46.484375 
L 14.40625 7.171875 
L 48.1875 7.171875 
L 48.1875 0 
L 4.296875 0 
L 4.296875 8.203125 
L 38.09375 47.515625 
L 5.515625 47.515625 
z
" id="DejaVuSans-122"/>
      </defs>
      <g transform="translate(24.670312 505.999219)scale(0.1 -0.1)">
       <use xlink:href="#DejaVuSans-83"/>
       <use x="63.476562" xlink:href="#DejaVuSans-119"/>
       <use x="145.263672" xlink:href="#DejaVuSans-105"/>
       <use x="173.046875" xlink:href="#DejaVuSans-116"/>
       <use x="212.255859" xlink:href="#DejaVuSans-122"/>
       <use x="264.746094" xlink:href="#DejaVuSans-101"/>
       <use x="326.269531" xlink:href="#DejaVuSans-114"/>
       <use x="367.382812" xlink:href="#DejaVuSans-108"/>
       <use x="395.166016" xlink:href="#DejaVuSans-97"/>
       <use x="456.445312" xlink:href="#DejaVuSans-110"/>
       <use x="519.824219" xlink:href="#DejaVuSans-100"/>
      </g>
     </g>
    </g>
    <g id="ytick_9">
     <g id="line2d_45">
      <g>
       <use style="stroke:#000000;stroke-width:0.8;" x="90" xlink:href="#m53ad44bd69" y="483.72"/>
      </g>
     </g>
     <g id="text_14">
      <!-- Luxembourg -->
      <defs>
       <path d="M 9.8125 72.90625 
L 19.671875 72.90625 
L 19.671875 8.296875 
L 55.171875 8.296875 
L 55.171875 0 
L 9.8125 0 
z
" id="DejaVuSans-76"/>
       <path d="M 8.5 21.578125 
L 8.5 54.6875 
L 17.484375 54.6875 
L 17.484375 21.921875 
Q 17.484375 14.15625 20.5 10.265625 
Q 23.53125 6.390625 29.59375 6.390625 
Q 36.859375 6.390625 41.078125 11.03125 
Q 45.3125 15.671875 45.3125 23.6875 
L 45.3125 54.6875 
L 54.296875 54.6875 
L 54.296875 0 
L 45.3125 0 
L 45.3125 8.40625 
Q 42.046875 3.421875 37.71875 1 
Q 33.40625 -1.421875 27.6875 -1.421875 
Q 18.265625 -1.421875 13.375 4.4375 
Q 8.5 10.296875 8.5 21.578125 
z
M 31.109375 56 
z
" id="DejaVuSans-117"/>
       <path d="M 54.890625 54.6875 
L 35.109375 28.078125 
L 55.90625 0 
L 45.3125 0 
L 29.390625 21.484375 
L 13.484375 0 
L 2.875 0 
L 24.125 28.609375 
L 4.6875 54.6875 
L 15.28125 54.6875 
L 29.78125 35.203125 
L 44.28125 54.6875 
z
" id="DejaVuSans-120"/>
       <path d="M 52 44.1875 
Q 55.375 50.25 60.0625 53.125 
Q 64.75 56 71.09375 56 
Q 79.640625 56 84.28125 50.015625 
Q 88.921875 44.046875 88.921875 33.015625 
L 88.921875 0 
L 79.890625 0 
L 79.890625 32.71875 
Q 79.890625 40.578125 77.09375 44.375 
Q 74.3125 48.1875 68.609375 48.1875 
Q 61.625 48.1875 57.5625 43.546875 
Q 53.515625 38.921875 53.515625 30.90625 
L 53.515625 0 
L 44.484375 0 
L 44.484375 32.71875 
Q 44.484375 40.625 41.703125 44.40625 
Q 38.921875 48.1875 33.109375 48.1875 
Q 26.21875 48.1875 22.15625 43.53125 
Q 18.109375 38.875 18.109375 30.90625 
L 18.109375 0 
L 9.078125 0 
L 9.078125 54.6875 
L 18.109375 54.6875 
L 18.109375 46.1875 
Q 21.1875 51.21875 25.484375 53.609375 
Q 29.78125 56 35.6875 56 
Q 41.65625 56 45.828125 52.96875 
Q 50 49.953125 52 44.1875 
z
" id="DejaVuSans-109"/>
       <path d="M 48.6875 27.296875 
Q 48.6875 37.203125 44.609375 42.84375 
Q 40.53125 48.484375 33.40625 48.484375 
Q 26.265625 48.484375 22.1875 42.84375 
Q 18.109375 37.203125 18.109375 27.296875 
Q 18.109375 17.390625 22.1875 11.75 
Q 26.265625 6.109375 33.40625 6.109375 
Q 40.53125 6.109375 44.609375 11.75 
Q 48.6875 17.390625 48.6875 27.296875 
z
M 18.109375 46.390625 
Q 20.953125 51.265625 25.265625 53.625 
Q 29.59375 56 35.59375 56 
Q 45.5625 56 51.78125 48.09375 
Q 58.015625 40.1875 58.015625 27.296875 
Q 58.015625 14.40625 51.78125 6.484375 
Q 45.5625 -1.421875 35.59375 -1.421875 
Q 29.59375 -1.421875 25.265625 0.953125 
Q 20.953125 3.328125 18.109375 8.203125 
L 18.109375 0 
L 9.078125 0 
L 9.078125 75.984375 
L 18.109375 75.984375 
z
" id="DejaVuSans-98"/>
       <path d="M 45.40625 27.984375 
Q 45.40625 37.75 41.375 43.109375 
Q 37.359375 48.484375 30.078125 48.484375 
Q 22.859375 48.484375 18.828125 43.109375 
Q 14.796875 37.75 14.796875 27.984375 
Q 14.796875 18.265625 18.828125 12.890625 
Q 22.859375 7.515625 30.078125 7.515625 
Q 37.359375 7.515625 41.375 12.890625 
Q 45.40625 18.265625 45.40625 27.984375 
z
M 54.390625 6.78125 
Q 54.390625 -7.171875 48.1875 -13.984375 
Q 42 -20.796875 29.203125 -20.796875 
Q 24.46875 -20.796875 20.265625 -20.09375 
Q 16.0625 -19.390625 12.109375 -17.921875 
L 12.109375 -9.1875 
Q 16.0625 -11.328125 19.921875 -12.34375 
Q 23.78125 -13.375 27.78125 -13.375 
Q 36.625 -13.375 41.015625 -8.765625 
Q 45.40625 -4.15625 45.40625 5.171875 
L 45.40625 9.625 
Q 42.625 4.78125 38.28125 2.390625 
Q 33.9375 0 27.875 0 
Q 17.828125 0 11.671875 7.65625 
Q 5.515625 15.328125 5.515625 27.984375 
Q 5.515625 40.671875 11.671875 48.328125 
Q 17.828125 56 27.875 56 
Q 33.9375 56 38.28125 53.609375 
Q 42.625 51.21875 45.40625 46.390625 
L 45.40625 54.6875 
L 54.390625 54.6875 
z
" id="DejaVuSans-103"/>
      </defs>
      <g transform="translate(20.676562 487.519219)scale(0.1 -0.1)">
       <use xlink:href="#DejaVuSans-76"/>
       <use x="53.962891" xlink:href="#DejaVuSans-117"/>
       <use x="117.341797" xlink:href="#DejaVuSans-120"/>
       <use x="173.396484" xlink:href="#DejaVuSans-101"/>
       <use x="234.919922" xlink:href="#DejaVuSans-109"/>
       <use x="332.332031" xlink:href="#DejaVuSans-98"/>
       <use x="395.808594" xlink:href="#DejaVuSans-111"/>
       <use x="456.990234" xlink:href="#DejaVuSans-117"/>
       <use x="520.369141" xlink:href="#DejaVuSans-114"/>
       <use x="559.732422" xlink:href="#DejaVuSans-103"/>
      </g>
     </g>
    </g>
    <g id="ytick_10">
     <g id="line2d_46">
      <g>
       <use style="stroke:#000000;stroke-width:0.8;" x="90" xlink:href="#m53ad44bd69" y="465.24"/>
      </g>
     </g>
     <g id="text_15">
      <!-- Belgium -->
      <defs>
       <path d="M 19.671875 34.8125 
L 19.671875 8.109375 
L 35.5 8.109375 
Q 43.453125 8.109375 47.28125 11.40625 
Q 51.125 14.703125 51.125 21.484375 
Q 51.125 28.328125 47.28125 31.5625 
Q 43.453125 34.8125 35.5 34.8125 
z
M 19.671875 64.796875 
L 19.671875 42.828125 
L 34.28125 42.828125 
Q 41.5 42.828125 45.03125 45.53125 
Q 48.578125 48.25 48.578125 53.8125 
Q 48.578125 59.328125 45.03125 62.0625 
Q 41.5 64.796875 34.28125 64.796875 
z
M 9.8125 72.90625 
L 35.015625 72.90625 
Q 46.296875 72.90625 52.390625 68.21875 
Q 58.5 63.53125 58.5 54.890625 
Q 58.5 48.1875 55.375 44.234375 
Q 52.25 40.28125 46.1875 39.3125 
Q 53.46875 37.75 57.5 32.78125 
Q 61.53125 27.828125 61.53125 20.40625 
Q 61.53125 10.640625 54.890625 5.3125 
Q 48.25 0 35.984375 0 
L 9.8125 0 
z
" id="DejaVuSans-66"/>
      </defs>
      <g transform="translate(42.003125 469.039219)scale(0.1 -0.1)">
       <use xlink:href="#DejaVuSans-66"/>
       <use x="68.603516" xlink:href="#DejaVuSans-101"/>
       <use x="130.126953" xlink:href="#DejaVuSans-108"/>
       <use x="157.910156" xlink:href="#DejaVuSans-103"/>
       <use x="221.386719" xlink:href="#DejaVuSans-105"/>
       <use x="249.169922" xlink:href="#DejaVuSans-117"/>
       <use x="312.548828" xlink:href="#DejaVuSans-109"/>
      </g>
     </g>
    </g>
    <g id="ytick_11">
     <g id="line2d_47">
      <g>
       <use style="stroke:#000000;stroke-width:0.8;" x="90" xlink:href="#m53ad44bd69" y="446.76"/>
      </g>
     </g>
     <g id="text_16">
      <!-- United Kingdom -->
      <defs>
       <path d="M 8.6875 72.90625 
L 18.609375 72.90625 
L 18.609375 28.609375 
Q 18.609375 16.890625 22.84375 11.734375 
Q 27.09375 6.59375 36.625 6.59375 
Q 46.09375 6.59375 50.34375 11.734375 
Q 54.59375 16.890625 54.59375 28.609375 
L 54.59375 72.90625 
L 64.5 72.90625 
L 64.5 27.390625 
Q 64.5 13.140625 57.4375 5.859375 
Q 50.390625 -1.421875 36.625 -1.421875 
Q 22.796875 -1.421875 15.734375 5.859375 
Q 8.6875 13.140625 8.6875 27.390625 
z
" id="DejaVuSans-85"/>
       <path d="M 9.8125 72.90625 
L 19.671875 72.90625 
L 19.671875 42.09375 
L 52.390625 72.90625 
L 65.09375 72.90625 
L 28.90625 38.921875 
L 67.671875 0 
L 54.6875 0 
L 19.671875 35.109375 
L 19.671875 0 
L 9.8125 0 
z
" id="DejaVuSans-75"/>
      </defs>
      <g transform="translate(2.735937 450.559219)scale(0.1 -0.1)">
       <use xlink:href="#DejaVuSans-85"/>
       <use x="73.193359" xlink:href="#DejaVuSans-110"/>
       <use x="136.572266" xlink:href="#DejaVuSans-105"/>
       <use x="164.355469" xlink:href="#DejaVuSans-116"/>
       <use x="203.564453" xlink:href="#DejaVuSans-101"/>
       <use x="265.087891" xlink:href="#DejaVuSans-100"/>
       <use x="328.564453" xlink:href="#DejaVuSans-32"/>
       <use x="360.351562" xlink:href="#DejaVuSans-75"/>
       <use x="425.927734" xlink:href="#DejaVuSans-105"/>
       <use x="453.710938" xlink:href="#DejaVuSans-110"/>
       <use x="517.089844" xlink:href="#DejaVuSans-103"/>
       <use x="580.566406" xlink:href="#DejaVuSans-100"/>
       <use x="644.042969" xlink:href="#DejaVuSans-111"/>
       <use x="705.224609" xlink:href="#DejaVuSans-109"/>
      </g>
     </g>
    </g>
    <g id="ytick_12">
     <g id="line2d_48">
      <g>
       <use style="stroke:#000000;stroke-width:0.8;" x="90" xlink:href="#m53ad44bd69" y="428.28"/>
      </g>
     </g>
     <g id="text_17">
      <!-- Sweden -->
      <g transform="translate(43.48125 432.079219)scale(0.1 -0.1)">
       <use xlink:href="#DejaVuSans-83"/>
       <use x="63.476562" xlink:href="#DejaVuSans-119"/>
       <use x="145.263672" xlink:href="#DejaVuSans-101"/>
       <use x="206.787109" xlink:href="#DejaVuSans-100"/>
       <use x="270.263672" xlink:href="#DejaVuSans-101"/>
       <use x="331.787109" xlink:href="#DejaVuSans-110"/>
      </g>
     </g>
    </g>
    <g id="ytick_13">
     <g id="line2d_49">
      <g>
       <use style="stroke:#000000;stroke-width:0.8;" x="90" xlink:href="#m53ad44bd69" y="409.8"/>
      </g>
     </g>
     <g id="text_18">
      <!-- Denmark -->
      <defs>
       <path d="M 19.671875 64.796875 
L 19.671875 8.109375 
L 31.59375 8.109375 
Q 46.6875 8.109375 53.6875 14.9375 
Q 60.6875 21.78125 60.6875 36.53125 
Q 60.6875 51.171875 53.6875 57.984375 
Q 46.6875 64.796875 31.59375 64.796875 
z
M 9.8125 72.90625 
L 30.078125 72.90625 
Q 51.265625 72.90625 61.171875 64.09375 
Q 71.09375 55.28125 71.09375 36.53125 
Q 71.09375 17.671875 61.125 8.828125 
Q 51.171875 0 30.078125 0 
L 9.8125 0 
z
" id="DejaVuSans-68"/>
       <path d="M 9.078125 75.984375 
L 18.109375 75.984375 
L 18.109375 31.109375 
L 44.921875 54.6875 
L 56.390625 54.6875 
L 27.390625 29.109375 
L 57.625 0 
L 45.90625 0 
L 18.109375 26.703125 
L 18.109375 0 
L 9.078125 0 
z
" id="DejaVuSans-107"/>
      </defs>
      <g transform="translate(37.039062 413.599219)scale(0.1 -0.1)">
       <use xlink:href="#DejaVuSans-68"/>
       <use x="77.001953" xlink:href="#DejaVuSans-101"/>
       <use x="138.525391" xlink:href="#DejaVuSans-110"/>
       <use x="201.904297" xlink:href="#DejaVuSans-109"/>
       <use x="299.316406" xlink:href="#DejaVuSans-97"/>
       <use x="360.595703" xlink:href="#DejaVuSans-114"/>
       <use x="401.708984" xlink:href="#DejaVuSans-107"/>
      </g>
     </g>
    </g>
    <g id="ytick_14">
     <g id="line2d_50">
      <g>
       <use style="stroke:#000000;stroke-width:0.8;" x="90" xlink:href="#m53ad44bd69" y="391.32"/>
      </g>
     </g>
     <g id="text_19">
      <!-- Portugal -->
      <defs>
       <path d="M 19.671875 64.796875 
L 19.671875 37.40625 
L 32.078125 37.40625 
Q 38.96875 37.40625 42.71875 40.96875 
Q 46.484375 44.53125 46.484375 51.125 
Q 46.484375 57.671875 42.71875 61.234375 
Q 38.96875 64.796875 32.078125 64.796875 
z
M 9.8125 72.90625 
L 32.078125 72.90625 
Q 44.34375 72.90625 50.609375 67.359375 
Q 56.890625 61.8125 56.890625 51.125 
Q 56.890625 40.328125 50.609375 34.8125 
Q 44.34375 29.296875 32.078125 29.296875 
L 19.671875 29.296875 
L 19.671875 0 
L 9.8125 0 
z
" id="DejaVuSans-80"/>
      </defs>
      <g transform="translate(41.590625 395.119219)scale(0.1 -0.1)">
       <use xlink:href="#DejaVuSans-80"/>
       <use x="56.677734" xlink:href="#DejaVuSans-111"/>
       <use x="117.859375" xlink:href="#DejaVuSans-114"/>
       <use x="158.972656" xlink:href="#DejaVuSans-116"/>
       <use x="198.181641" xlink:href="#DejaVuSans-117"/>
       <use x="261.560547" xlink:href="#DejaVuSans-103"/>
       <use x="325.037109" xlink:href="#DejaVuSans-97"/>
       <use x="386.316406" xlink:href="#DejaVuSans-108"/>
      </g>
     </g>
    </g>
    <g id="ytick_15">
     <g id="line2d_51">
      <g>
       <use style="stroke:#000000;stroke-width:0.8;" x="90" xlink:href="#m53ad44bd69" y="372.84"/>
      </g>
     </g>
     <g id="text_20">
      <!-- Austria -->
      <g transform="translate(47.675 376.639219)scale(0.1 -0.1)">
       <use xlink:href="#DejaVuSans-65"/>
       <use x="68.408203" xlink:href="#DejaVuSans-117"/>
       <use x="131.787109" xlink:href="#DejaVuSans-115"/>
       <use x="183.886719" xlink:href="#DejaVuSans-116"/>
       <use x="223.095703" xlink:href="#DejaVuSans-114"/>
       <use x="264.208984" xlink:href="#DejaVuSans-105"/>
       <use x="291.992188" xlink:href="#DejaVuSans-97"/>
      </g>
     </g>
    </g>
    <g id="ytick_16">
     <g id="line2d_52">
      <g>
       <use style="stroke:#000000;stroke-width:0.8;" x="90" xlink:href="#m53ad44bd69" y="354.36"/>
      </g>
     </g>
     <g id="text_21">
      <!-- Iceland -->
      <g transform="translate(46.80625 358.159219)scale(0.1 -0.1)">
       <use xlink:href="#DejaVuSans-73"/>
       <use x="29.492188" xlink:href="#DejaVuSans-99"/>
       <use x="84.472656" xlink:href="#DejaVuSans-101"/>
       <use x="145.996094" xlink:href="#DejaVuSans-108"/>
       <use x="173.779297" xlink:href="#DejaVuSans-97"/>
       <use x="235.058594" xlink:href="#DejaVuSans-110"/>
       <use x="298.4375" xlink:href="#DejaVuSans-100"/>
      </g>
     </g>
    </g>
    <g id="ytick_17">
     <g id="line2d_53">
      <g>
       <use style="stroke:#000000;stroke-width:0.8;" x="90" xlink:href="#m53ad44bd69" y="335.88"/>
      </g>
     </g>
     <g id="text_22">
      <!-- Bahrain -->
      <g transform="translate(44.31875 339.679219)scale(0.1 -0.1)">
       <use xlink:href="#DejaVuSans-66"/>
       <use x="68.603516" xlink:href="#DejaVuSans-97"/>
       <use x="129.882812" xlink:href="#DejaVuSans-104"/>
       <use x="193.261719" xlink:href="#DejaVuSans-114"/>
       <use x="234.375" xlink:href="#DejaVuSans-97"/>
       <use x="295.654297" xlink:href="#DejaVuSans-105"/>
       <use x="323.4375" xlink:href="#DejaVuSans-110"/>
      </g>
     </g>
    </g>
    <g id="ytick_18">
     <g id="line2d_54">
      <g>
       <use style="stroke:#000000;stroke-width:0.8;" x="90" xlink:href="#m53ad44bd69" y="317.4"/>
      </g>
     </g>
     <g id="text_23">
      <!-- US -->
      <g transform="translate(69.332813 321.199219)scale(0.1 -0.1)">
       <use xlink:href="#DejaVuSans-85"/>
       <use x="73.193359" xlink:href="#DejaVuSans-83"/>
      </g>
     </g>
    </g>
    <g id="ytick_19">
     <g id="line2d_55">
      <g>
       <use style="stroke:#000000;stroke-width:0.8;" x="90" xlink:href="#m53ad44bd69" y="298.92"/>
      </g>
     </g>
     <g id="text_24">
      <!-- Ireland -->
      <g transform="translate(48.41875 302.719219)scale(0.1 -0.1)">
       <use xlink:href="#DejaVuSans-73"/>
       <use x="29.492188" xlink:href="#DejaVuSans-114"/>
       <use x="68.355469" xlink:href="#DejaVuSans-101"/>
       <use x="129.878906" xlink:href="#DejaVuSans-108"/>
       <use x="157.662109" xlink:href="#DejaVuSans-97"/>
       <use x="218.941406" xlink:href="#DejaVuSans-110"/>
       <use x="282.320312" xlink:href="#DejaVuSans-100"/>
      </g>
     </g>
    </g>
    <g id="ytick_20">
     <g id="line2d_56">
      <g>
       <use style="stroke:#000000;stroke-width:0.8;" x="90" xlink:href="#m53ad44bd69" y="280.44"/>
      </g>
     </g>
     <g id="text_25">
      <!-- Cyprus -->
      <defs>
       <path d="M 64.40625 67.28125 
L 64.40625 56.890625 
Q 59.421875 61.53125 53.78125 63.8125 
Q 48.140625 66.109375 41.796875 66.109375 
Q 29.296875 66.109375 22.65625 58.46875 
Q 16.015625 50.828125 16.015625 36.375 
Q 16.015625 21.96875 22.65625 14.328125 
Q 29.296875 6.6875 41.796875 6.6875 
Q 48.140625 6.6875 53.78125 8.984375 
Q 59.421875 11.28125 64.40625 15.921875 
L 64.40625 5.609375 
Q 59.234375 2.09375 53.4375 0.328125 
Q 47.65625 -1.421875 41.21875 -1.421875 
Q 24.65625 -1.421875 15.125 8.703125 
Q 5.609375 18.84375 5.609375 36.375 
Q 5.609375 53.953125 15.125 64.078125 
Q 24.65625 74.21875 41.21875 74.21875 
Q 47.75 74.21875 53.53125 72.484375 
Q 59.328125 70.75 64.40625 67.28125 
z
" id="DejaVuSans-67"/>
      </defs>
      <g transform="translate(48.092188 284.239219)scale(0.1 -0.1)">
       <use xlink:href="#DejaVuSans-67"/>
       <use x="69.824219" xlink:href="#DejaVuSans-121"/>
       <use x="129.003906" xlink:href="#DejaVuSans-112"/>
       <use x="192.480469" xlink:href="#DejaVuSans-114"/>
       <use x="233.59375" xlink:href="#DejaVuSans-117"/>
       <use x="296.972656" xlink:href="#DejaVuSans-115"/>
      </g>
     </g>
    </g>
    <g id="ytick_21">
     <g id="line2d_57">
      <g>
       <use style="stroke:#000000;stroke-width:0.8;" x="90" xlink:href="#m53ad44bd69" y="261.96"/>
      </g>
     </g>
     <g id="text_26">
      <!-- Slovenia -->
      <defs>
       <path d="M 2.984375 54.6875 
L 12.5 54.6875 
L 29.59375 8.796875 
L 46.6875 54.6875 
L 56.203125 54.6875 
L 35.6875 0 
L 23.484375 0 
z
" id="DejaVuSans-118"/>
      </defs>
      <g transform="translate(40.439062 265.759219)scale(0.1 -0.1)">
       <use xlink:href="#DejaVuSans-83"/>
       <use x="63.476562" xlink:href="#DejaVuSans-108"/>
       <use x="91.259766" xlink:href="#DejaVuSans-111"/>
       <use x="152.441406" xlink:href="#DejaVuSans-118"/>
       <use x="211.621094" xlink:href="#DejaVuSans-101"/>
       <use x="273.144531" xlink:href="#DejaVuSans-110"/>
       <use x="336.523438" xlink:href="#DejaVuSans-105"/>
       <use x="364.306641" xlink:href="#DejaVuSans-97"/>
      </g>
     </g>
    </g>
    <g id="ytick_22">
     <g id="line2d_58">
      <g>
       <use style="stroke:#000000;stroke-width:0.8;" x="90" xlink:href="#m53ad44bd69" y="243.48"/>
      </g>
     </g>
     <g id="text_27">
      <!-- Germany -->
      <defs>
       <path d="M 59.515625 10.40625 
L 59.515625 29.984375 
L 43.40625 29.984375 
L 43.40625 38.09375 
L 69.28125 38.09375 
L 69.28125 6.78125 
Q 63.578125 2.734375 56.6875 0.65625 
Q 49.8125 -1.421875 42 -1.421875 
Q 24.90625 -1.421875 15.25 8.5625 
Q 5.609375 18.5625 5.609375 36.375 
Q 5.609375 54.25 15.25 64.234375 
Q 24.90625 74.21875 42 74.21875 
Q 49.125 74.21875 55.546875 72.453125 
Q 61.96875 70.703125 67.390625 67.28125 
L 67.390625 56.78125 
Q 61.921875 61.421875 55.765625 63.765625 
Q 49.609375 66.109375 42.828125 66.109375 
Q 29.4375 66.109375 22.71875 58.640625 
Q 16.015625 51.171875 16.015625 36.375 
Q 16.015625 21.625 22.71875 14.15625 
Q 29.4375 6.6875 42.828125 6.6875 
Q 48.046875 6.6875 52.140625 7.59375 
Q 56.25 8.5 59.515625 10.40625 
z
" id="DejaVuSans-71"/>
      </defs>
      <g transform="translate(37.0375 247.279219)scale(0.1 -0.1)">
       <use xlink:href="#DejaVuSans-71"/>
       <use x="77.490234" xlink:href="#DejaVuSans-101"/>
       <use x="139.013672" xlink:href="#DejaVuSans-114"/>
       <use x="178.376953" xlink:href="#DejaVuSans-109"/>
       <use x="275.789062" xlink:href="#DejaVuSans-97"/>
       <use x="337.068359" xlink:href="#DejaVuSans-110"/>
       <use x="400.447266" xlink:href="#DejaVuSans-121"/>
      </g>
     </g>
    </g>
    <g id="ytick_23">
     <g id="line2d_59">
      <g>
       <use style="stroke:#000000;stroke-width:0.8;" x="90" xlink:href="#m53ad44bd69" y="225"/>
      </g>
     </g>
     <g id="text_28">
      <!-- Norway -->
      <g transform="translate(45.064062 228.799219)scale(0.1 -0.1)">
       <use xlink:href="#DejaVuSans-78"/>
       <use x="74.804688" xlink:href="#DejaVuSans-111"/>
       <use x="135.986328" xlink:href="#DejaVuSans-114"/>
       <use x="177.099609" xlink:href="#DejaVuSans-119"/>
       <use x="258.886719" xlink:href="#DejaVuSans-97"/>
       <use x="320.166016" xlink:href="#DejaVuSans-121"/>
      </g>
     </g>
    </g>
    <g id="ytick_24">
     <g id="line2d_60">
      <g>
       <use style="stroke:#000000;stroke-width:0.8;" x="90" xlink:href="#m53ad44bd69" y="206.52"/>
      </g>
     </g>
     <g id="text_29">
      <!-- Albania -->
      <g transform="translate(45.660937 210.319219)scale(0.1 -0.1)">
       <use xlink:href="#DejaVuSans-65"/>
       <use x="68.408203" xlink:href="#DejaVuSans-108"/>
       <use x="96.191406" xlink:href="#DejaVuSans-98"/>
       <use x="159.667969" xlink:href="#DejaVuSans-97"/>
       <use x="220.947266" xlink:href="#DejaVuSans-110"/>
       <use x="284.326172" xlink:href="#DejaVuSans-105"/>
       <use x="312.109375" xlink:href="#DejaVuSans-97"/>
      </g>
     </g>
    </g>
    <g id="ytick_25">
     <g id="line2d_61">
      <g>
       <use style="stroke:#000000;stroke-width:0.8;" x="90" xlink:href="#m53ad44bd69" y="188.04"/>
      </g>
     </g>
     <g id="text_30">
      <!-- Panama -->
      <g transform="translate(42.957812 191.839219)scale(0.1 -0.1)">
       <use xlink:href="#DejaVuSans-80"/>
       <use x="55.802734" xlink:href="#DejaVuSans-97"/>
       <use x="117.082031" xlink:href="#DejaVuSans-110"/>
       <use x="180.460938" xlink:href="#DejaVuSans-97"/>
       <use x="241.740234" xlink:href="#DejaVuSans-109"/>
       <use x="339.152344" xlink:href="#DejaVuSans-97"/>
      </g>
     </g>
    </g>
    <g id="ytick_26">
     <g id="line2d_62">
      <g>
       <use style="stroke:#000000;stroke-width:0.8;" x="90" xlink:href="#m53ad44bd69" y="169.56"/>
      </g>
     </g>
     <g id="text_31">
      <!-- Greece -->
      <g transform="translate(47.407812 173.359219)scale(0.1 -0.1)">
       <use xlink:href="#DejaVuSans-71"/>
       <use x="77.490234" xlink:href="#DejaVuSans-114"/>
       <use x="116.353516" xlink:href="#DejaVuSans-101"/>
       <use x="177.876953" xlink:href="#DejaVuSans-101"/>
       <use x="239.400391" xlink:href="#DejaVuSans-99"/>
       <use x="294.380859" xlink:href="#DejaVuSans-101"/>
      </g>
     </g>
    </g>
    <g id="ytick_27">
     <g id="line2d_63">
      <g>
       <use style="stroke:#000000;stroke-width:0.8;" x="90" xlink:href="#m53ad44bd69" y="151.08"/>
      </g>
     </g>
     <g id="text_32">
      <!-- China -->
      <g transform="translate(54.435937 154.879219)scale(0.1 -0.1)">
       <use xlink:href="#DejaVuSans-67"/>
       <use x="69.824219" xlink:href="#DejaVuSans-104"/>
       <use x="133.203125" xlink:href="#DejaVuSans-105"/>
       <use x="160.986328" xlink:href="#DejaVuSans-110"/>
       <use x="224.365234" xlink:href="#DejaVuSans-97"/>
      </g>
     </g>
    </g>
    <g id="ytick_28">
     <g id="line2d_64">
      <g>
       <use style="stroke:#000000;stroke-width:0.8;" x="90" xlink:href="#m53ad44bd69" y="132.6"/>
      </g>
     </g>
     <g id="text_33">
      <!-- Ecuador -->
      <defs>
       <path d="M 9.8125 72.90625 
L 55.90625 72.90625 
L 55.90625 64.59375 
L 19.671875 64.59375 
L 19.671875 43.015625 
L 54.390625 43.015625 
L 54.390625 34.71875 
L 19.671875 34.71875 
L 19.671875 8.296875 
L 56.78125 8.296875 
L 56.78125 0 
L 9.8125 0 
z
" id="DejaVuSans-69"/>
      </defs>
      <g transform="translate(42.139062 136.399219)scale(0.1 -0.1)">
       <use xlink:href="#DejaVuSans-69"/>
       <use x="63.183594" xlink:href="#DejaVuSans-99"/>
       <use x="118.164062" xlink:href="#DejaVuSans-117"/>
       <use x="181.542969" xlink:href="#DejaVuSans-97"/>
       <use x="242.822266" xlink:href="#DejaVuSans-100"/>
       <use x="306.298828" xlink:href="#DejaVuSans-111"/>
       <use x="367.480469" xlink:href="#DejaVuSans-114"/>
      </g>
     </g>
    </g>
    <g id="ytick_29">
     <g id="line2d_65">
      <g>
       <use style="stroke:#000000;stroke-width:0.8;" x="90" xlink:href="#m53ad44bd69" y="114.12"/>
      </g>
     </g>
     <g id="text_34">
      <!-- Dominican Republic -->
      <defs>
       <path d="M 44.390625 34.1875 
Q 47.5625 33.109375 50.5625 29.59375 
Q 53.5625 26.078125 56.59375 19.921875 
L 66.609375 0 
L 56 0 
L 46.6875 18.703125 
Q 43.0625 26.03125 39.671875 28.421875 
Q 36.28125 30.8125 30.421875 30.8125 
L 19.671875 30.8125 
L 19.671875 0 
L 9.8125 0 
L 9.8125 72.90625 
L 32.078125 72.90625 
Q 44.578125 72.90625 50.734375 67.671875 
Q 56.890625 62.453125 56.890625 51.90625 
Q 56.890625 45.015625 53.6875 40.46875 
Q 50.484375 35.9375 44.390625 34.1875 
z
M 19.671875 64.796875 
L 19.671875 38.921875 
L 32.078125 38.921875 
Q 39.203125 38.921875 42.84375 42.21875 
Q 46.484375 45.515625 46.484375 51.90625 
Q 46.484375 58.296875 42.84375 61.546875 
Q 39.203125 64.796875 32.078125 64.796875 
z
" id="DejaVuSans-82"/>
      </defs>
      <g transform="translate(-16.335938 117.919219)scale(0.1 -0.1)">
       <use xlink:href="#DejaVuSans-68"/>
       <use x="77.001953" xlink:href="#DejaVuSans-111"/>
       <use x="138.183594" xlink:href="#DejaVuSans-109"/>
       <use x="235.595703" xlink:href="#DejaVuSans-105"/>
       <use x="263.378906" xlink:href="#DejaVuSans-110"/>
       <use x="326.757812" xlink:href="#DejaVuSans-105"/>
       <use x="354.541016" xlink:href="#DejaVuSans-99"/>
       <use x="409.521484" xlink:href="#DejaVuSans-97"/>
       <use x="470.800781" xlink:href="#DejaVuSans-110"/>
       <use x="534.179688" xlink:href="#DejaVuSans-32"/>
       <use x="565.966797" xlink:href="#DejaVuSans-82"/>
       <use x="630.949219" xlink:href="#DejaVuSans-101"/>
       <use x="692.472656" xlink:href="#DejaVuSans-112"/>
       <use x="755.949219" xlink:href="#DejaVuSans-117"/>
       <use x="819.328125" xlink:href="#DejaVuSans-98"/>
       <use x="882.804688" xlink:href="#DejaVuSans-108"/>
       <use x="910.587891" xlink:href="#DejaVuSans-105"/>
       <use x="938.371094" xlink:href="#DejaVuSans-99"/>
      </g>
     </g>
    </g>
    <g id="ytick_30">
     <g id="line2d_66">
      <g>
       <use style="stroke:#000000;stroke-width:0.8;" x="90" xlink:href="#m53ad44bd69" y="95.64"/>
      </g>
     </g>
     <g id="text_35">
      <!-- Lebanon -->
      <g transform="translate(40.179688 99.439219)scale(0.1 -0.1)">
       <use xlink:href="#DejaVuSans-76"/>
       <use x="53.962891" xlink:href="#DejaVuSans-101"/>
       <use x="115.486328" xlink:href="#DejaVuSans-98"/>
       <use x="178.962891" xlink:href="#DejaVuSans-97"/>
       <use x="240.242188" xlink:href="#DejaVuSans-110"/>
       <use x="303.621094" xlink:href="#DejaVuSans-111"/>
       <use x="364.802734" xlink:href="#DejaVuSans-110"/>
      </g>
     </g>
    </g>
    <g id="text_36">
     <!-- Country -->
     <g transform="translate(-22.415625 383.463281)rotate(-90)scale(0.1 -0.1)">
      <use xlink:href="#DejaVuSans-67"/>
      <use x="69.824219" xlink:href="#DejaVuSans-111"/>
      <use x="131.005859" xlink:href="#DejaVuSans-117"/>
      <use x="194.384766" xlink:href="#DejaVuSans-110"/>
      <use x="257.763672" xlink:href="#DejaVuSans-116"/>
      <use x="296.972656" xlink:href="#DejaVuSans-114"/>
      <use x="338.085938" xlink:href="#DejaVuSans-121"/>
     </g>
    </g>
   </g>
   <g id="patch_63">
    <path d="M 90 640.8 
L 90 86.4 
" style="fill:none;stroke:#000000;stroke-linecap:square;stroke-linejoin:miter;stroke-width:0.8;"/>
   </g>
   <g id="patch_64">
    <path d="M 648 640.8 
L 648 86.4 
" style="fill:none;stroke:#000000;stroke-linecap:square;stroke-linejoin:miter;stroke-width:0.8;"/>
   </g>
   <g id="patch_65">
    <path d="M 90 640.8 
L 648 640.8 
" style="fill:none;stroke:#000000;stroke-linecap:square;stroke-linejoin:miter;stroke-width:0.8;"/>
   </g>
   <g id="patch_66">
    <path d="M 90 86.4 
L 648 86.4 
" style="fill:none;stroke:#000000;stroke-linecap:square;stroke-linejoin:miter;stroke-width:0.8;"/>
   </g>
   <g id="text_37">
    <!-- Fatalities / Recovered rate (03-27-2020) -->
    <defs>
     <path d="M 31 75.875 
Q 24.46875 64.65625 21.28125 53.65625 
Q 18.109375 42.671875 18.109375 31.390625 
Q 18.109375 20.125 21.3125 9.0625 
Q 24.515625 -2 31 -13.1875 
L 23.1875 -13.1875 
Q 15.875 -1.703125 12.234375 9.375 
Q 8.59375 20.453125 8.59375 31.390625 
Q 8.59375 42.28125 12.203125 53.3125 
Q 15.828125 64.359375 23.1875 75.875 
z
" id="DejaVuSans-40"/>
     <path d="M 40.578125 39.3125 
Q 47.65625 37.796875 51.625 33 
Q 55.609375 28.21875 55.609375 21.1875 
Q 55.609375 10.40625 48.1875 4.484375 
Q 40.765625 -1.421875 27.09375 -1.421875 
Q 22.515625 -1.421875 17.65625 -0.515625 
Q 12.796875 0.390625 7.625 2.203125 
L 7.625 11.71875 
Q 11.71875 9.328125 16.59375 8.109375 
Q 21.484375 6.890625 26.8125 6.890625 
Q 36.078125 6.890625 40.9375 10.546875 
Q 45.796875 14.203125 45.796875 21.1875 
Q 45.796875 27.640625 41.28125 31.265625 
Q 36.765625 34.90625 28.71875 34.90625 
L 20.21875 34.90625 
L 20.21875 43.015625 
L 29.109375 43.015625 
Q 36.375 43.015625 40.234375 45.921875 
Q 44.09375 48.828125 44.09375 54.296875 
Q 44.09375 59.90625 40.109375 62.90625 
Q 36.140625 65.921875 28.71875 65.921875 
Q 24.65625 65.921875 20.015625 65.03125 
Q 15.375 64.15625 9.8125 62.3125 
L 9.8125 71.09375 
Q 15.4375 72.65625 20.34375 73.4375 
Q 25.25 74.21875 29.59375 74.21875 
Q 40.828125 74.21875 47.359375 69.109375 
Q 53.90625 64.015625 53.90625 55.328125 
Q 53.90625 49.265625 50.4375 45.09375 
Q 46.96875 40.921875 40.578125 39.3125 
z
" id="DejaVuSans-51"/>
     <path d="M 4.890625 31.390625 
L 31.203125 31.390625 
L 31.203125 23.390625 
L 4.890625 23.390625 
z
" id="DejaVuSans-45"/>
     <path d="M 8.203125 72.90625 
L 55.078125 72.90625 
L 55.078125 68.703125 
L 28.609375 0 
L 18.3125 0 
L 43.21875 64.59375 
L 8.203125 64.59375 
z
" id="DejaVuSans-55"/>
     <path d="M 8.015625 75.875 
L 15.828125 75.875 
Q 23.140625 64.359375 26.78125 53.3125 
Q 30.421875 42.28125 30.421875 31.390625 
Q 30.421875 20.453125 26.78125 9.375 
Q 23.140625 -1.703125 15.828125 -13.1875 
L 8.015625 -13.1875 
Q 14.5 -2 17.703125 9.0625 
Q 20.90625 20.125 20.90625 31.390625 
Q 20.90625 42.671875 17.703125 53.65625 
Q 14.5 64.65625 8.015625 75.875 
z
" id="DejaVuSans-41"/>
    </defs>
    <g transform="translate(249.195938 80.4)scale(0.12 -0.12)">
     <use xlink:href="#DejaVuSans-70"/>
     <use x="48.394531" xlink:href="#DejaVuSans-97"/>
     <use x="109.673828" xlink:href="#DejaVuSans-116"/>
     <use x="148.882812" xlink:href="#DejaVuSans-97"/>
     <use x="210.162109" xlink:href="#DejaVuSans-108"/>
     <use x="237.945312" xlink:href="#DejaVuSans-105"/>
     <use x="265.728516" xlink:href="#DejaVuSans-116"/>
     <use x="304.9375" xlink:href="#DejaVuSans-105"/>
     <use x="332.720703" xlink:href="#DejaVuSans-101"/>
     <use x="394.244141" xlink:href="#DejaVuSans-115"/>
     <use x="446.34375" xlink:href="#DejaVuSans-32"/>
     <use x="478.130859" xlink:href="#DejaVuSans-47"/>
     <use x="511.822266" xlink:href="#DejaVuSans-32"/>
     <use x="543.609375" xlink:href="#DejaVuSans-82"/>
     <use x="608.591797" xlink:href="#DejaVuSans-101"/>
     <use x="670.115234" xlink:href="#DejaVuSans-99"/>
     <use x="725.095703" xlink:href="#DejaVuSans-111"/>
     <use x="786.277344" xlink:href="#DejaVuSans-118"/>
     <use x="845.457031" xlink:href="#DejaVuSans-101"/>
     <use x="906.980469" xlink:href="#DejaVuSans-114"/>
     <use x="945.84375" xlink:href="#DejaVuSans-101"/>
     <use x="1007.367188" xlink:href="#DejaVuSans-100"/>
     <use x="1070.84375" xlink:href="#DejaVuSans-32"/>
     <use x="1102.630859" xlink:href="#DejaVuSans-114"/>
     <use x="1143.744141" xlink:href="#DejaVuSans-97"/>
     <use x="1205.023438" xlink:href="#DejaVuSans-116"/>
     <use x="1244.232422" xlink:href="#DejaVuSans-101"/>
     <use x="1305.755859" xlink:href="#DejaVuSans-32"/>
     <use x="1337.542969" xlink:href="#DejaVuSans-40"/>
     <use x="1376.556641" xlink:href="#DejaVuSans-48"/>
     <use x="1440.179688" xlink:href="#DejaVuSans-51"/>
     <use x="1503.802734" xlink:href="#DejaVuSans-45"/>
     <use x="1539.886719" xlink:href="#DejaVuSans-50"/>
     <use x="1603.509766" xlink:href="#DejaVuSans-55"/>
     <use x="1667.132812" xlink:href="#DejaVuSans-45"/>
     <use x="1703.216797" xlink:href="#DejaVuSans-50"/>
     <use x="1766.839844" xlink:href="#DejaVuSans-48"/>
     <use x="1830.462891" xlink:href="#DejaVuSans-50"/>
     <use x="1894.085938" xlink:href="#DejaVuSans-48"/>
     <use x="1957.708984" xlink:href="#DejaVuSans-41"/>
    </g>
   </g>
   <g id="legend_1">
    <g id="patch_67">
     <path d="M 538.571875 123.75625 
L 641 123.75625 
Q 643 123.75625 643 121.75625 
L 643 93.4 
Q 643 91.4 641 91.4 
L 538.571875 91.4 
Q 536.571875 91.4 536.571875 93.4 
L 536.571875 121.75625 
Q 536.571875 123.75625 538.571875 123.75625 
z
" style="fill:#ffffff;opacity:0.8;stroke:#cccccc;stroke-linejoin:miter;"/>
    </g>
    <g id="patch_68">
     <path d="M 540.571875 102.998437 
L 560.571875 102.998437 
L 560.571875 95.998437 
L 540.571875 95.998437 
z
" style="fill:#997570;"/>
    </g>
    <g id="text_38">
     <!-- deathrate -->
     <g transform="translate(568.571875 102.998437)scale(0.1 -0.1)">
      <use xlink:href="#DejaVuSans-100"/>
      <use x="63.476562" xlink:href="#DejaVuSans-101"/>
      <use x="125" xlink:href="#DejaVuSans-97"/>
      <use x="186.279297" xlink:href="#DejaVuSans-116"/>
      <use x="225.488281" xlink:href="#DejaVuSans-104"/>
      <use x="288.867188" xlink:href="#DejaVuSans-114"/>
      <use x="329.980469" xlink:href="#DejaVuSans-97"/>
      <use x="391.259766" xlink:href="#DejaVuSans-116"/>
      <use x="430.46875" xlink:href="#DejaVuSans-101"/>
     </g>
    </g>
    <g id="patch_69">
     <path d="M 540.571875 117.676562 
L 560.571875 117.676562 
L 560.571875 110.676562 
L 540.571875 110.676562 
z
" style="fill:#5ca904;"/>
    </g>
    <g id="text_39">
     <!-- recoveredrate -->
     <g transform="translate(568.571875 117.676562)scale(0.1 -0.1)">
      <use xlink:href="#DejaVuSans-114"/>
      <use x="38.863281" xlink:href="#DejaVuSans-101"/>
      <use x="100.386719" xlink:href="#DejaVuSans-99"/>
      <use x="155.367188" xlink:href="#DejaVuSans-111"/>
      <use x="216.548828" xlink:href="#DejaVuSans-118"/>
      <use x="275.728516" xlink:href="#DejaVuSans-101"/>
      <use x="337.251953" xlink:href="#DejaVuSans-114"/>
      <use x="376.115234" xlink:href="#DejaVuSans-101"/>
      <use x="437.638672" xlink:href="#DejaVuSans-100"/>
      <use x="501.115234" xlink:href="#DejaVuSans-114"/>
      <use x="542.228516" xlink:href="#DejaVuSans-97"/>
      <use x="603.507812" xlink:href="#DejaVuSans-116"/>
      <use x="642.716797" xlink:href="#DejaVuSans-101"/>
     </g>
    </g>
   </g>
  </g>
 </g>
 <defs>
  <clipPath id="p40923f5a92">
   <rect height="554.4" width="558" x="90" y="86.4"/>
  </clipPath>
 </defs>
</svg>
