<?xml version="1.0" encoding="utf-8" standalone="no"?>
<!DOCTYPE svg PUBLIC "-//W3C//DTD SVG 1.1//EN"
  "http://www.w3.org/Graphics/SVG/1.1/DTD/svg11.dtd">
<svg xmlns:xlink="http://www.w3.org/1999/xlink" width="720pt" height="720pt" viewBox="0 0 720 720" xmlns="http://www.w3.org/2000/svg" version="1.1">
 <metadata>
  <rdf:RDF xmlns:dc="http://purl.org/dc/elements/1.1/" xmlns:cc="http://creativecommons.org/ns#" xmlns:rdf="http://www.w3.org/1999/02/22-rdf-syntax-ns#">
   <cc:Work>
    <dc:type rdf:resource="http://purl.org/dc/dcmitype/StillImage"/>
    <dc:date>2022-05-12T19:32:59.406066</dc:date>
    <dc:format>image/svg+xml</dc:format>
    <dc:creator>
     <cc:Agent>
      <dc:title>Matplotlib v3.5.2, https://matplotlib.org/</dc:title>
     </cc:Agent>
    </dc:creator>
   </cc:Work>
  </rdf:RDF>
 </metadata>
 <defs>
  <style type="text/css">*{stroke-linejoin: round; stroke-linecap: butt}</style>
 </defs>
 <g id="figure_1">
  <g id="patch_1">
   <path d="M 0 720 
L 720 720 
L 720 0 
L 0 0 
z
" style="fill: #ffffff"/>
  </g>
  <g id="axes_1">
   <g id="patch_2">
    <path d="M 90 640.8 
L 648 640.8 
L 648 86.4 
L 90 86.4 
z
" style="fill: #ffffff"/>
   </g>
   <g id="patch_3">
    <path d="M -180795.567391 636.329032 
L 622.636364 636.329032 
L 622.636364 631.858065 
L -180795.567391 631.858065 
z
" clip-path="url(#p97f365f28f)" style="fill: #997570"/>
   </g>
   <g id="patch_4">
    <path d="M -180795.567391 618.445161 
L 604.548154 618.445161 
L 604.548154 613.974194 
L -180795.567391 613.974194 
z
" clip-path="url(#p97f365f28f)" style="fill: #997570"/>
   </g>
   <g id="patch_5">
    <path d="M -180795.567391 600.56129 
L 596.044311 600.56129 
L 596.044311 596.090323 
L -180795.567391 596.090323 
z
" clip-path="url(#p97f365f28f)" style="fill: #997570"/>
   </g>
   <g id="patch_6">
    <path d="M -180795.567391 582.677419 
L 596.012826 582.677419 
L 596.012826 578.206452 
L -180795.567391 578.206452 
z
" clip-path="url(#p97f365f28f)" style="fill: #997570"/>
   </g>
   <g id="patch_7">
    <path d="M -180795.567391 564.793548 
L 591.964969 564.793548 
L 591.964969 560.322581 
L -180795.567391 560.322581 
z
" clip-path="url(#p97f365f28f)" style="fill: #997570"/>
   </g>
   <g id="patch_8">
    <path d="M -180795.567391 546.909677 
L 591.137613 546.909677 
L 591.137613 542.43871 
L -180795.567391 542.43871 
z
" clip-path="url(#p97f365f28f)" style="fill: #997570"/>
   </g>
   <g id="patch_9">
    <path d="M -180795.567391 529.025806 
L 589.513664 529.025806 
L 589.513664 524.554839 
L -180795.567391 524.554839 
z
" clip-path="url(#p97f365f28f)" style="fill: #997570"/>
   </g>
   <g id="patch_10">
    <path d="M -180795.567391 511.141935 
L 580.4406 511.141935 
L 580.4406 506.670968 
L -180795.567391 506.670968 
z
" clip-path="url(#p97f365f28f)" style="fill: #997570"/>
   </g>
   <g id="patch_11">
    <path d="M -180795.567391 493.258065 
L 578.306447 493.258065 
L 578.306447 488.787097 
L -180795.567391 488.787097 
z
" clip-path="url(#p97f365f28f)" style="fill: #997570"/>
   </g>
   <g id="patch_12">
    <path d="M -180795.567391 475.374194 
L 575.92612 475.374194 
L 575.92612 470.903226 
L -180795.567391 470.903226 
z
" clip-path="url(#p97f365f28f)" style="fill: #997570"/>
   </g>
   <g id="patch_13">
    <path d="M -180795.567391 457.490323 
L 569.931458 457.490323 
L 569.931458 453.019355 
L -180795.567391 453.019355 
z
" clip-path="url(#p97f365f28f)" style="fill: #997570"/>
   </g>
   <g id="patch_14">
    <path d="M -180795.567391 439.606452 
L 569.107078 439.606452 
L 569.107078 435.135484 
L -180795.567391 435.135484 
z
" clip-path="url(#p97f365f28f)" style="fill: #997570"/>
   </g>
   <g id="patch_15">
    <path d="M -180795.567391 421.722581 
L 566.823944 421.722581 
L 566.823944 417.251613 
L -180795.567391 417.251613 
z
" clip-path="url(#p97f365f28f)" style="fill: #997570"/>
   </g>
   <g id="patch_16">
    <path d="M -180795.567391 403.83871 
L 566.24155 403.83871 
L 566.24155 399.367742 
L -180795.567391 399.367742 
z
" clip-path="url(#p97f365f28f)" style="fill: #997570"/>
   </g>
   <g id="patch_17">
    <path d="M -180795.567391 385.954839 
L 565.095547 385.954839 
L 565.095547 381.483871 
L -180795.567391 381.483871 
z
" clip-path="url(#p97f365f28f)" style="fill: #997570"/>
   </g>
   <g id="patch_18">
    <path d="M -180795.567391 368.070968 
L 564.425356 368.070968 
L 564.425356 363.6 
L -180795.567391 363.6 
z
" clip-path="url(#p97f365f28f)" style="fill: #997570"/>
   </g>
   <g id="patch_19">
    <path d="M -180795.567391 350.187097 
L 562.067961 350.187097 
L 562.067961 345.716129 
L -180795.567391 345.716129 
z
" clip-path="url(#p97f365f28f)" style="fill: #997570"/>
   </g>
   <g id="patch_20">
    <path d="M -180795.567391 332.303226 
L 561.537427 332.303226 
L 561.537427 327.832258 
L -180795.567391 327.832258 
z
" clip-path="url(#p97f365f28f)" style="fill: #997570"/>
   </g>
   <g id="patch_21">
    <path d="M -180795.567391 314.419355 
L 561.382674 314.419355 
L 561.382674 309.948387 
L -180795.567391 309.948387 
z
" clip-path="url(#p97f365f28f)" style="fill: #997570"/>
   </g>
   <g id="patch_22">
    <path d="M -180795.567391 296.535484 
L 560.230474 296.535484 
L 560.230474 292.064516 
L -180795.567391 292.064516 
z
" clip-path="url(#p97f365f28f)" style="fill: #997570"/>
   </g>
   <g id="patch_23">
    <path d="M -180795.567391 278.651613 
L 557.919398 278.651613 
L 557.919398 274.180645 
L -180795.567391 274.180645 
z
" clip-path="url(#p97f365f28f)" style="fill: #997570"/>
   </g>
   <g id="patch_24">
    <path d="M -180795.567391 260.767742 
L 557.158692 260.767742 
L 557.158692 256.296774 
L -180795.567391 256.296774 
z
" clip-path="url(#p97f365f28f)" style="fill: #997570"/>
   </g>
   <g id="patch_25">
    <path d="M -180795.567391 242.883871 
L 555.034357 242.883871 
L 555.034357 238.412903 
L -180795.567391 238.412903 
z
" clip-path="url(#p97f365f28f)" style="fill: #997570"/>
   </g>
   <g id="patch_26">
    <path d="M -180795.567391 225 
L 554.00805 225 
L 554.00805 220.529032 
L -180795.567391 220.529032 
z
" clip-path="url(#p97f365f28f)" style="fill: #997570"/>
   </g>
   <g id="patch_27">
    <path d="M -180795.567391 207.116129 
L 553.594334 207.116129 
L 553.594334 202.645161 
L -180795.567391 202.645161 
z
" clip-path="url(#p97f365f28f)" style="fill: #997570"/>
   </g>
   <g id="patch_28">
    <path d="M -180795.567391 189.232258 
L 553.145103 189.232258 
L 553.145103 184.76129 
L -180795.567391 184.76129 
z
" clip-path="url(#p97f365f28f)" style="fill: #997570"/>
   </g>
   <g id="patch_29">
    <path d="M -180795.567391 171.348387 
L 552.597818 171.348387 
L 552.597818 166.877419 
L -180795.567391 166.877419 
z
" clip-path="url(#p97f365f28f)" style="fill: #997570"/>
   </g>
   <g id="patch_30">
    <path d="M -180795.567391 153.464516 
L 552.108458 153.464516 
L 552.108458 148.993548 
L -180795.567391 148.993548 
z
" clip-path="url(#p97f365f28f)" style="fill: #997570"/>
   </g>
   <g id="patch_31">
    <path d="M -180795.567391 135.580645 
L 550.95261 135.580645 
L 550.95261 131.109677 
L -180795.567391 131.109677 
z
" clip-path="url(#p97f365f28f)" style="fill: #997570"/>
   </g>
   <g id="patch_32">
    <path d="M -180795.567391 117.696774 
L 547.890833 117.696774 
L 547.890833 113.225806 
L -180795.567391 113.225806 
z
" clip-path="url(#p97f365f28f)" style="fill: #997570"/>
   </g>
   <g id="patch_33">
    <path d="M -180795.567391 99.812903 
L 115.363636 99.812903 
L 115.363636 95.341935 
L -180795.567391 95.341935 
z
" clip-path="url(#p97f365f28f)" style="fill: #997570"/>
   </g>
   <g id="patch_34">
    <path d="M -180795.567391 631.858065 
L -180795.567391 631.858065 
L -180795.567391 627.387097 
L -180795.567391 627.387097 
z
" clip-path="url(#p97f365f28f)" style="fill: #5ca904"/>
   </g>
   <g id="patch_35">
    <path d="M -180795.567391 613.974194 
L -180795.567391 613.974194 
L -180795.567391 609.503226 
L -180795.567391 609.503226 
z
" clip-path="url(#p97f365f28f)" style="fill: #5ca904"/>
   </g>
   <g id="patch_36">
    <path d="M -180795.567391 596.090323 
L -180795.567391 596.090323 
L -180795.567391 591.619355 
L -180795.567391 591.619355 
z
" clip-path="url(#p97f365f28f)" style="fill: #5ca904"/>
   </g>
   <g id="patch_37">
    <path d="M -180795.567391 578.206452 
L -180795.567391 578.206452 
L -180795.567391 573.735484 
L -180795.567391 573.735484 
z
" clip-path="url(#p97f365f28f)" style="fill: #5ca904"/>
   </g>
   <g id="patch_38">
    <path d="M -180795.567391 560.322581 
L -180795.567391 560.322581 
L -180795.567391 555.851613 
L -180795.567391 555.851613 
z
" clip-path="url(#p97f365f28f)" style="fill: #5ca904"/>
   </g>
   <g id="patch_39">
    <path d="M -180795.567391 542.43871 
L -180795.567391 542.43871 
L -180795.567391 537.967742 
L -180795.567391 537.967742 
z
" clip-path="url(#p97f365f28f)" style="fill: #5ca904"/>
   </g>
   <g id="patch_40">
    <path d="M -180795.567391 524.554839 
L -180795.567391 524.554839 
L -180795.567391 520.083871 
L -180795.567391 520.083871 
z
" clip-path="url(#p97f365f28f)" style="fill: #5ca904"/>
   </g>
   <g id="patch_41">
    <path d="M -180795.567391 506.670968 
L -180795.567391 506.670968 
L -180795.567391 502.2 
L -180795.567391 502.2 
z
" clip-path="url(#p97f365f28f)" style="fill: #5ca904"/>
   </g>
   <g id="patch_42">
    <path d="M -180795.567391 488.787097 
L -180795.567391 488.787097 
L -180795.567391 484.316129 
L -180795.567391 484.316129 
z
" clip-path="url(#p97f365f28f)" style="fill: #5ca904"/>
   </g>
   <g id="patch_43">
    <path d="M -180795.567391 470.903226 
L -180795.567391 470.903226 
L -180795.567391 466.432258 
L -180795.567391 466.432258 
z
" clip-path="url(#p97f365f28f)" style="fill: #5ca904"/>
   </g>
   <g id="patch_44">
    <path d="M -180795.567391 453.019355 
L -180795.567391 453.019355 
L -180795.567391 448.548387 
L -180795.567391 448.548387 
z
" clip-path="url(#p97f365f28f)" style="fill: #5ca904"/>
   </g>
   <g id="patch_45">
    <path d="M -180795.567391 435.135484 
L -180795.567391 435.135484 
L -180795.567391 430.664516 
L -180795.567391 430.664516 
z
" clip-path="url(#p97f365f28f)" style="fill: #5ca904"/>
   </g>
   <g id="patch_46">
    <path d="M -180795.567391 417.251613 
L -180795.567391 417.251613 
L -180795.567391 412.780645 
L -180795.567391 412.780645 
z
" clip-path="url(#p97f365f28f)" style="fill: #5ca904"/>
   </g>
   <g id="patch_47">
    <path d="M -180795.567391 399.367742 
L -180795.567391 399.367742 
L -180795.567391 394.896774 
L -180795.567391 394.896774 
z
" clip-path="url(#p97f365f28f)" style="fill: #5ca904"/>
   </g>
   <g id="patch_48">
    <path d="M -180795.567391 381.483871 
L -180795.567391 381.483871 
L -180795.567391 377.012903 
L -180795.567391 377.012903 
z
" clip-path="url(#p97f365f28f)" style="fill: #5ca904"/>
   </g>
   <g id="patch_49">
    <path d="M -180795.567391 363.6 
L -180795.567391 363.6 
L -180795.567391 359.129032 
L -180795.567391 359.129032 
z
" clip-path="url(#p97f365f28f)" style="fill: #5ca904"/>
   </g>
   <g id="patch_50">
    <path d="M -180795.567391 345.716129 
L -180795.567391 345.716129 
L -180795.567391 341.245161 
L -180795.567391 341.245161 
z
" clip-path="url(#p97f365f28f)" style="fill: #5ca904"/>
   </g>
   <g id="patch_51">
    <path d="M -180795.567391 327.832258 
L -180795.567391 327.832258 
L -180795.567391 323.36129 
L -180795.567391 323.36129 
z
" clip-path="url(#p97f365f28f)" style="fill: #5ca904"/>
   </g>
   <g id="patch_52">
    <path d="M -180795.567391 309.948387 
L -180795.567391 309.948387 
L -180795.567391 305.477419 
L -180795.567391 305.477419 
z
" clip-path="url(#p97f365f28f)" style="fill: #5ca904"/>
   </g>
   <g id="patch_53">
    <path d="M -180795.567391 292.064516 
L -180795.567391 292.064516 
L -180795.567391 287.593548 
L -180795.567391 287.593548 
z
" clip-path="url(#p97f365f28f)" style="fill: #5ca904"/>
   </g>
   <g id="patch_54">
    <path d="M -180795.567391 274.180645 
L -180795.567391 274.180645 
L -180795.567391 269.709677 
L -180795.567391 269.709677 
z
" clip-path="url(#p97f365f28f)" style="fill: #5ca904"/>
   </g>
   <g id="patch_55">
    <path d="M -180795.567391 256.296774 
L -180795.567391 256.296774 
L -180795.567391 251.825806 
L -180795.567391 251.825806 
z
" clip-path="url(#p97f365f28f)" style="fill: #5ca904"/>
   </g>
   <g id="patch_56">
    <path d="M -180795.567391 238.412903 
L -180795.567391 238.412903 
L -180795.567391 233.941935 
L -180795.567391 233.941935 
z
" clip-path="url(#p97f365f28f)" style="fill: #5ca904"/>
   </g>
   <g id="patch_57">
    <path d="M -180795.567391 220.529032 
L -180795.567391 220.529032 
L -180795.567391 216.058065 
L -180795.567391 216.058065 
z
" clip-path="url(#p97f365f28f)" style="fill: #5ca904"/>
   </g>
   <g id="patch_58">
    <path d="M -180795.567391 202.645161 
L -180795.567391 202.645161 
L -180795.567391 198.174194 
L -180795.567391 198.174194 
z
" clip-path="url(#p97f365f28f)" style="fill: #5ca904"/>
   </g>
   <g id="patch_59">
    <path d="M -180795.567391 184.76129 
L -180795.567391 184.76129 
L -180795.567391 180.290323 
L -180795.567391 180.290323 
z
" clip-path="url(#p97f365f28f)" style="fill: #5ca904"/>
   </g>
   <g id="patch_60">
    <path d="M -180795.567391 166.877419 
L -180795.567391 166.877419 
L -180795.567391 162.406452 
L -180795.567391 162.406452 
z
" clip-path="url(#p97f365f28f)" style="fill: #5ca904"/>
   </g>
   <g id="patch_61">
    <path d="M -180795.567391 148.993548 
L -180795.567391 148.993548 
L -180795.567391 144.522581 
L -180795.567391 144.522581 
z
" clip-path="url(#p97f365f28f)" style="fill: #5ca904"/>
   </g>
   <g id="patch_62">
    <path d="M -180795.567391 131.109677 
L -180795.567391 131.109677 
L -180795.567391 126.63871 
L -180795.567391 126.63871 
z
" clip-path="url(#p97f365f28f)" style="fill: #5ca904"/>
   </g>
   <g id="patch_63">
    <path d="M -180795.567391 113.225806 
L -180795.567391 113.225806 
L -180795.567391 108.754839 
L -180795.567391 108.754839 
z
" clip-path="url(#p97f365f28f)" style="fill: #5ca904"/>
   </g>
   <g id="patch_64">
    <path d="M -180795.567391 95.341935 
L -180795.567391 95.341935 
L -180795.567391 90.870968 
L -180795.567391 90.870968 
z
" clip-path="url(#p97f365f28f)" style="fill: #5ca904"/>
   </g>
   <g id="matplotlib.axis_1">
    <g id="xtick_1">
     <g id="line2d_1">
      <defs>
       <path id="ma74fb61230" d="M 0 0 
L 0 3.5 
" style="stroke: #000000; stroke-width: 0.8"/>
      </defs>
      <g>
       <use xlink:href="#ma74fb61230" x="111.878524" y="640.8" style="stroke: #000000; stroke-width: 0.8"/>
      </g>
     </g>
     <g id="text_1">
      <!-- $\mathdefault{10^{0}}$ -->
      <g transform="translate(103.078524 655.398438)scale(0.1 -0.1)">
       <defs>
        <path id="DejaVuSans-31" d="M 794 531 
L 1825 531 
L 1825 4091 
L 703 3866 
L 703 4441 
L 1819 4666 
L 2450 4666 
L 2450 531 
L 3481 531 
L 3481 0 
L 794 0 
L 794 531 
z
" transform="scale(0.015625)"/>
        <path id="DejaVuSans-30" d="M 2034 4250 
Q 1547 4250 1301 3770 
Q 1056 3291 1056 2328 
Q 1056 1369 1301 889 
Q 1547 409 2034 409 
Q 2525 409 2770 889 
Q 3016 1369 3016 2328 
Q 3016 3291 2770 3770 
Q 2525 4250 2034 4250 
z
M 2034 4750 
Q 2819 4750 3233 4129 
Q 3647 3509 3647 2328 
Q 3647 1150 3233 529 
Q 2819 -91 2034 -91 
Q 1250 -91 836 529 
Q 422 1150 422 2328 
Q 422 3509 836 4129 
Q 1250 4750 2034 4750 
z
" transform="scale(0.015625)"/>
       </defs>
       <use xlink:href="#DejaVuSans-31" transform="translate(0 0.765625)"/>
       <use xlink:href="#DejaVuSans-30" transform="translate(63.623047 0.765625)"/>
       <use xlink:href="#DejaVuSans-30" transform="translate(128.203125 39.046875)scale(0.7)"/>
      </g>
     </g>
    </g>
    <g id="xtick_2">
     <g id="line2d_2">
      <g>
       <use xlink:href="#ma74fb61230" x="292.78597" y="640.8" style="stroke: #000000; stroke-width: 0.8"/>
      </g>
     </g>
     <g id="text_2">
      <!-- $\mathdefault{10^{1}}$ -->
      <g transform="translate(283.98597 655.398438)scale(0.1 -0.1)">
       <use xlink:href="#DejaVuSans-31" transform="translate(0 0.684375)"/>
       <use xlink:href="#DejaVuSans-30" transform="translate(63.623047 0.684375)"/>
       <use xlink:href="#DejaVuSans-31" transform="translate(128.203125 38.965625)scale(0.7)"/>
      </g>
     </g>
    </g>
    <g id="xtick_3">
     <g id="line2d_3">
      <g>
       <use xlink:href="#ma74fb61230" x="473.693416" y="640.8" style="stroke: #000000; stroke-width: 0.8"/>
      </g>
     </g>
     <g id="text_3">
      <!-- $\mathdefault{10^{2}}$ -->
      <g transform="translate(464.893416 655.398438)scale(0.1 -0.1)">
       <defs>
        <path id="DejaVuSans-32" d="M 1228 531 
L 3431 531 
L 3431 0 
L 469 0 
L 469 531 
Q 828 903 1448 1529 
Q 2069 2156 2228 2338 
Q 2531 2678 2651 2914 
Q 2772 3150 2772 3378 
Q 2772 3750 2511 3984 
Q 2250 4219 1831 4219 
Q 1534 4219 1204 4116 
Q 875 4013 500 3803 
L 500 4441 
Q 881 4594 1212 4672 
Q 1544 4750 1819 4750 
Q 2544 4750 2975 4387 
Q 3406 4025 3406 3419 
Q 3406 3131 3298 2873 
Q 3191 2616 2906 2266 
Q 2828 2175 2409 1742 
Q 1991 1309 1228 531 
z
" transform="scale(0.015625)"/>
       </defs>
       <use xlink:href="#DejaVuSans-31" transform="translate(0 0.765625)"/>
       <use xlink:href="#DejaVuSans-30" transform="translate(63.623047 0.765625)"/>
       <use xlink:href="#DejaVuSans-32" transform="translate(128.203125 39.046875)scale(0.7)"/>
      </g>
     </g>
    </g>
    <g id="xtick_4">
     <g id="line2d_4">
      <defs>
       <path id="me9c2466403" d="M 0 0 
L 0 2 
" style="stroke: #000000; stroke-width: 0.6"/>
      </defs>
      <g>
       <use xlink:href="#me9c2466403" x="94.346781" y="640.8" style="stroke: #000000; stroke-width: 0.6"/>
      </g>
     </g>
    </g>
    <g id="xtick_5">
     <g id="line2d_5">
      <g>
       <use xlink:href="#me9c2466403" x="103.600653" y="640.8" style="stroke: #000000; stroke-width: 0.6"/>
      </g>
     </g>
    </g>
    <g id="xtick_6">
     <g id="line2d_6">
      <g>
       <use xlink:href="#me9c2466403" x="166.337092" y="640.8" style="stroke: #000000; stroke-width: 0.6"/>
      </g>
     </g>
    </g>
    <g id="xtick_7">
     <g id="line2d_7">
      <g>
       <use xlink:href="#me9c2466403" x="198.193312" y="640.8" style="stroke: #000000; stroke-width: 0.6"/>
      </g>
     </g>
    </g>
    <g id="xtick_8">
     <g id="line2d_8">
      <g>
       <use xlink:href="#me9c2466403" x="220.795659" y="640.8" style="stroke: #000000; stroke-width: 0.6"/>
      </g>
     </g>
    </g>
    <g id="xtick_9">
     <g id="line2d_9">
      <g>
       <use xlink:href="#me9c2466403" x="238.327402" y="640.8" style="stroke: #000000; stroke-width: 0.6"/>
      </g>
     </g>
    </g>
    <g id="xtick_10">
     <g id="line2d_10">
      <g>
       <use xlink:href="#me9c2466403" x="252.651879" y="640.8" style="stroke: #000000; stroke-width: 0.6"/>
      </g>
     </g>
    </g>
    <g id="xtick_11">
     <g id="line2d_11">
      <g>
       <use xlink:href="#me9c2466403" x="264.763052" y="640.8" style="stroke: #000000; stroke-width: 0.6"/>
      </g>
     </g>
    </g>
    <g id="xtick_12">
     <g id="line2d_12">
      <g>
       <use xlink:href="#me9c2466403" x="275.254227" y="640.8" style="stroke: #000000; stroke-width: 0.6"/>
      </g>
     </g>
    </g>
    <g id="xtick_13">
     <g id="line2d_13">
      <g>
       <use xlink:href="#me9c2466403" x="284.508099" y="640.8" style="stroke: #000000; stroke-width: 0.6"/>
      </g>
     </g>
    </g>
    <g id="xtick_14">
     <g id="line2d_14">
      <g>
       <use xlink:href="#me9c2466403" x="347.244538" y="640.8" style="stroke: #000000; stroke-width: 0.6"/>
      </g>
     </g>
    </g>
    <g id="xtick_15">
     <g id="line2d_15">
      <g>
       <use xlink:href="#me9c2466403" x="379.100757" y="640.8" style="stroke: #000000; stroke-width: 0.6"/>
      </g>
     </g>
    </g>
    <g id="xtick_16">
     <g id="line2d_16">
      <g>
       <use xlink:href="#me9c2466403" x="401.703105" y="640.8" style="stroke: #000000; stroke-width: 0.6"/>
      </g>
     </g>
    </g>
    <g id="xtick_17">
     <g id="line2d_17">
      <g>
       <use xlink:href="#me9c2466403" x="419.234848" y="640.8" style="stroke: #000000; stroke-width: 0.6"/>
      </g>
     </g>
    </g>
    <g id="xtick_18">
     <g id="line2d_18">
      <g>
       <use xlink:href="#me9c2466403" x="433.559325" y="640.8" style="stroke: #000000; stroke-width: 0.6"/>
      </g>
     </g>
    </g>
    <g id="xtick_19">
     <g id="line2d_19">
      <g>
       <use xlink:href="#me9c2466403" x="445.670498" y="640.8" style="stroke: #000000; stroke-width: 0.6"/>
      </g>
     </g>
    </g>
    <g id="xtick_20">
     <g id="line2d_20">
      <g>
       <use xlink:href="#me9c2466403" x="456.161673" y="640.8" style="stroke: #000000; stroke-width: 0.6"/>
      </g>
     </g>
    </g>
    <g id="xtick_21">
     <g id="line2d_21">
      <g>
       <use xlink:href="#me9c2466403" x="465.415545" y="640.8" style="stroke: #000000; stroke-width: 0.6"/>
      </g>
     </g>
    </g>
    <g id="xtick_22">
     <g id="line2d_22">
      <g>
       <use xlink:href="#me9c2466403" x="528.151983" y="640.8" style="stroke: #000000; stroke-width: 0.6"/>
      </g>
     </g>
    </g>
    <g id="xtick_23">
     <g id="line2d_23">
      <g>
       <use xlink:href="#me9c2466403" x="560.008203" y="640.8" style="stroke: #000000; stroke-width: 0.6"/>
      </g>
     </g>
    </g>
    <g id="xtick_24">
     <g id="line2d_24">
      <g>
       <use xlink:href="#me9c2466403" x="582.610551" y="640.8" style="stroke: #000000; stroke-width: 0.6"/>
      </g>
     </g>
    </g>
    <g id="xtick_25">
     <g id="line2d_25">
      <g>
       <use xlink:href="#me9c2466403" x="600.142294" y="640.8" style="stroke: #000000; stroke-width: 0.6"/>
      </g>
     </g>
    </g>
    <g id="xtick_26">
     <g id="line2d_26">
      <g>
       <use xlink:href="#me9c2466403" x="614.466771" y="640.8" style="stroke: #000000; stroke-width: 0.6"/>
      </g>
     </g>
    </g>
    <g id="xtick_27">
     <g id="line2d_27">
      <g>
       <use xlink:href="#me9c2466403" x="626.577944" y="640.8" style="stroke: #000000; stroke-width: 0.6"/>
      </g>
     </g>
    </g>
    <g id="xtick_28">
     <g id="line2d_28">
      <g>
       <use xlink:href="#me9c2466403" x="637.069119" y="640.8" style="stroke: #000000; stroke-width: 0.6"/>
      </g>
     </g>
    </g>
    <g id="xtick_29">
     <g id="line2d_29">
      <g>
       <use xlink:href="#me9c2466403" x="646.322991" y="640.8" style="stroke: #000000; stroke-width: 0.6"/>
      </g>
     </g>
    </g>
    <g id="text_4">
     <!-- capita / 100000 -->
     <g transform="translate(329.649219 669.076563)scale(0.1 -0.1)">
      <defs>
       <path id="DejaVuSans-63" d="M 3122 3366 
L 3122 2828 
Q 2878 2963 2633 3030 
Q 2388 3097 2138 3097 
Q 1578 3097 1268 2742 
Q 959 2388 959 1747 
Q 959 1106 1268 751 
Q 1578 397 2138 397 
Q 2388 397 2633 464 
Q 2878 531 3122 666 
L 3122 134 
Q 2881 22 2623 -34 
Q 2366 -91 2075 -91 
Q 1284 -91 818 406 
Q 353 903 353 1747 
Q 353 2603 823 3093 
Q 1294 3584 2113 3584 
Q 2378 3584 2631 3529 
Q 2884 3475 3122 3366 
z
" transform="scale(0.015625)"/>
       <path id="DejaVuSans-61" d="M 2194 1759 
Q 1497 1759 1228 1600 
Q 959 1441 959 1056 
Q 959 750 1161 570 
Q 1363 391 1709 391 
Q 2188 391 2477 730 
Q 2766 1069 2766 1631 
L 2766 1759 
L 2194 1759 
z
M 3341 1997 
L 3341 0 
L 2766 0 
L 2766 531 
Q 2569 213 2275 61 
Q 1981 -91 1556 -91 
Q 1019 -91 701 211 
Q 384 513 384 1019 
Q 384 1609 779 1909 
Q 1175 2209 1959 2209 
L 2766 2209 
L 2766 2266 
Q 2766 2663 2505 2880 
Q 2244 3097 1772 3097 
Q 1472 3097 1187 3025 
Q 903 2953 641 2809 
L 641 3341 
Q 956 3463 1253 3523 
Q 1550 3584 1831 3584 
Q 2591 3584 2966 3190 
Q 3341 2797 3341 1997 
z
" transform="scale(0.015625)"/>
       <path id="DejaVuSans-70" d="M 1159 525 
L 1159 -1331 
L 581 -1331 
L 581 3500 
L 1159 3500 
L 1159 2969 
Q 1341 3281 1617 3432 
Q 1894 3584 2278 3584 
Q 2916 3584 3314 3078 
Q 3713 2572 3713 1747 
Q 3713 922 3314 415 
Q 2916 -91 2278 -91 
Q 1894 -91 1617 61 
Q 1341 213 1159 525 
z
M 3116 1747 
Q 3116 2381 2855 2742 
Q 2594 3103 2138 3103 
Q 1681 3103 1420 2742 
Q 1159 2381 1159 1747 
Q 1159 1113 1420 752 
Q 1681 391 2138 391 
Q 2594 391 2855 752 
Q 3116 1113 3116 1747 
z
" transform="scale(0.015625)"/>
       <path id="DejaVuSans-69" d="M 603 3500 
L 1178 3500 
L 1178 0 
L 603 0 
L 603 3500 
z
M 603 4863 
L 1178 4863 
L 1178 4134 
L 603 4134 
L 603 4863 
z
" transform="scale(0.015625)"/>
       <path id="DejaVuSans-74" d="M 1172 4494 
L 1172 3500 
L 2356 3500 
L 2356 3053 
L 1172 3053 
L 1172 1153 
Q 1172 725 1289 603 
Q 1406 481 1766 481 
L 2356 481 
L 2356 0 
L 1766 0 
Q 1100 0 847 248 
Q 594 497 594 1153 
L 594 3053 
L 172 3053 
L 172 3500 
L 594 3500 
L 594 4494 
L 1172 4494 
z
" transform="scale(0.015625)"/>
       <path id="DejaVuSans-20" transform="scale(0.015625)"/>
       <path id="DejaVuSans-2f" d="M 1625 4666 
L 2156 4666 
L 531 -594 
L 0 -594 
L 1625 4666 
z
" transform="scale(0.015625)"/>
      </defs>
      <use xlink:href="#DejaVuSans-63"/>
      <use xlink:href="#DejaVuSans-61" x="54.980469"/>
      <use xlink:href="#DejaVuSans-70" x="116.259766"/>
      <use xlink:href="#DejaVuSans-69" x="179.736328"/>
      <use xlink:href="#DejaVuSans-74" x="207.519531"/>
      <use xlink:href="#DejaVuSans-61" x="246.728516"/>
      <use xlink:href="#DejaVuSans-20" x="308.007812"/>
      <use xlink:href="#DejaVuSans-2f" x="339.794922"/>
      <use xlink:href="#DejaVuSans-20" x="373.486328"/>
      <use xlink:href="#DejaVuSans-31" x="405.273438"/>
      <use xlink:href="#DejaVuSans-30" x="468.896484"/>
      <use xlink:href="#DejaVuSans-30" x="532.519531"/>
      <use xlink:href="#DejaVuSans-30" x="596.142578"/>
      <use xlink:href="#DejaVuSans-30" x="659.765625"/>
      <use xlink:href="#DejaVuSans-30" x="723.388672"/>
     </g>
    </g>
   </g>
   <g id="matplotlib.axis_2">
    <g id="ytick_1">
     <g id="line2d_30">
      <defs>
       <path id="ma68a2ee6f0" d="M 0 0 
L -3.5 0 
" style="stroke: #000000; stroke-width: 0.8"/>
      </defs>
      <g>
       <use xlink:href="#ma68a2ee6f0" x="90" y="631.858065" style="stroke: #000000; stroke-width: 0.8"/>
      </g>
     </g>
     <g id="text_5">
      <!-- Peru -->
      <g transform="translate(60.73125 635.657283)scale(0.1 -0.1)">
       <defs>
        <path id="DejaVuSans-50" d="M 1259 4147 
L 1259 2394 
L 2053 2394 
Q 2494 2394 2734 2622 
Q 2975 2850 2975 3272 
Q 2975 3691 2734 3919 
Q 2494 4147 2053 4147 
L 1259 4147 
z
M 628 4666 
L 2053 4666 
Q 2838 4666 3239 4311 
Q 3641 3956 3641 3272 
Q 3641 2581 3239 2228 
Q 2838 1875 2053 1875 
L 1259 1875 
L 1259 0 
L 628 0 
L 628 4666 
z
" transform="scale(0.015625)"/>
        <path id="DejaVuSans-65" d="M 3597 1894 
L 3597 1613 
L 953 1613 
Q 991 1019 1311 708 
Q 1631 397 2203 397 
Q 2534 397 2845 478 
Q 3156 559 3463 722 
L 3463 178 
Q 3153 47 2828 -22 
Q 2503 -91 2169 -91 
Q 1331 -91 842 396 
Q 353 884 353 1716 
Q 353 2575 817 3079 
Q 1281 3584 2069 3584 
Q 2775 3584 3186 3129 
Q 3597 2675 3597 1894 
z
M 3022 2063 
Q 3016 2534 2758 2815 
Q 2500 3097 2075 3097 
Q 1594 3097 1305 2825 
Q 1016 2553 972 2059 
L 3022 2063 
z
" transform="scale(0.015625)"/>
        <path id="DejaVuSans-72" d="M 2631 2963 
Q 2534 3019 2420 3045 
Q 2306 3072 2169 3072 
Q 1681 3072 1420 2755 
Q 1159 2438 1159 1844 
L 1159 0 
L 581 0 
L 581 3500 
L 1159 3500 
L 1159 2956 
Q 1341 3275 1631 3429 
Q 1922 3584 2338 3584 
Q 2397 3584 2469 3576 
Q 2541 3569 2628 3553 
L 2631 2963 
z
" transform="scale(0.015625)"/>
        <path id="DejaVuSans-75" d="M 544 1381 
L 544 3500 
L 1119 3500 
L 1119 1403 
Q 1119 906 1312 657 
Q 1506 409 1894 409 
Q 2359 409 2629 706 
Q 2900 1003 2900 1516 
L 2900 3500 
L 3475 3500 
L 3475 0 
L 2900 0 
L 2900 538 
Q 2691 219 2414 64 
Q 2138 -91 1772 -91 
Q 1169 -91 856 284 
Q 544 659 544 1381 
z
M 1991 3584 
L 1991 3584 
z
" transform="scale(0.015625)"/>
       </defs>
       <use xlink:href="#DejaVuSans-50"/>
       <use xlink:href="#DejaVuSans-65" x="56.677734"/>
       <use xlink:href="#DejaVuSans-72" x="118.201172"/>
       <use xlink:href="#DejaVuSans-75" x="159.314453"/>
      </g>
     </g>
    </g>
    <g id="ytick_2">
     <g id="line2d_31">
      <g>
       <use xlink:href="#ma68a2ee6f0" x="90" y="613.974194" style="stroke: #000000; stroke-width: 0.8"/>
      </g>
     </g>
     <g id="text_6">
      <!-- Bulgaria -->
      <g transform="translate(41.529687 617.773412)scale(0.1 -0.1)">
       <defs>
        <path id="DejaVuSans-42" d="M 1259 2228 
L 1259 519 
L 2272 519 
Q 2781 519 3026 730 
Q 3272 941 3272 1375 
Q 3272 1813 3026 2020 
Q 2781 2228 2272 2228 
L 1259 2228 
z
M 1259 4147 
L 1259 2741 
L 2194 2741 
Q 2656 2741 2882 2914 
Q 3109 3088 3109 3444 
Q 3109 3797 2882 3972 
Q 2656 4147 2194 4147 
L 1259 4147 
z
M 628 4666 
L 2241 4666 
Q 2963 4666 3353 4366 
Q 3744 4066 3744 3513 
Q 3744 3084 3544 2831 
Q 3344 2578 2956 2516 
Q 3422 2416 3680 2098 
Q 3938 1781 3938 1306 
Q 3938 681 3513 340 
Q 3088 0 2303 0 
L 628 0 
L 628 4666 
z
" transform="scale(0.015625)"/>
        <path id="DejaVuSans-6c" d="M 603 4863 
L 1178 4863 
L 1178 0 
L 603 0 
L 603 4863 
z
" transform="scale(0.015625)"/>
        <path id="DejaVuSans-67" d="M 2906 1791 
Q 2906 2416 2648 2759 
Q 2391 3103 1925 3103 
Q 1463 3103 1205 2759 
Q 947 2416 947 1791 
Q 947 1169 1205 825 
Q 1463 481 1925 481 
Q 2391 481 2648 825 
Q 2906 1169 2906 1791 
z
M 3481 434 
Q 3481 -459 3084 -895 
Q 2688 -1331 1869 -1331 
Q 1566 -1331 1297 -1286 
Q 1028 -1241 775 -1147 
L 775 -588 
Q 1028 -725 1275 -790 
Q 1522 -856 1778 -856 
Q 2344 -856 2625 -561 
Q 2906 -266 2906 331 
L 2906 616 
Q 2728 306 2450 153 
Q 2172 0 1784 0 
Q 1141 0 747 490 
Q 353 981 353 1791 
Q 353 2603 747 3093 
Q 1141 3584 1784 3584 
Q 2172 3584 2450 3431 
Q 2728 3278 2906 2969 
L 2906 3500 
L 3481 3500 
L 3481 434 
z
" transform="scale(0.015625)"/>
       </defs>
       <use xlink:href="#DejaVuSans-42"/>
       <use xlink:href="#DejaVuSans-75" x="68.603516"/>
       <use xlink:href="#DejaVuSans-6c" x="131.982422"/>
       <use xlink:href="#DejaVuSans-67" x="159.765625"/>
       <use xlink:href="#DejaVuSans-61" x="223.242188"/>
       <use xlink:href="#DejaVuSans-72" x="284.521484"/>
       <use xlink:href="#DejaVuSans-69" x="325.634766"/>
       <use xlink:href="#DejaVuSans-61" x="353.417969"/>
      </g>
     </g>
    </g>
    <g id="ytick_3">
     <g id="line2d_32">
      <g>
       <use xlink:href="#ma68a2ee6f0" x="90" y="596.090323" style="stroke: #000000; stroke-width: 0.8"/>
      </g>
     </g>
     <g id="text_7">
      <!-- Bosnia and Herzegovina -->
      <g transform="translate(-38.41875 599.889541)scale(0.1 -0.1)">
       <defs>
        <path id="DejaVuSans-6f" d="M 1959 3097 
Q 1497 3097 1228 2736 
Q 959 2375 959 1747 
Q 959 1119 1226 758 
Q 1494 397 1959 397 
Q 2419 397 2687 759 
Q 2956 1122 2956 1747 
Q 2956 2369 2687 2733 
Q 2419 3097 1959 3097 
z
M 1959 3584 
Q 2709 3584 3137 3096 
Q 3566 2609 3566 1747 
Q 3566 888 3137 398 
Q 2709 -91 1959 -91 
Q 1206 -91 779 398 
Q 353 888 353 1747 
Q 353 2609 779 3096 
Q 1206 3584 1959 3584 
z
" transform="scale(0.015625)"/>
        <path id="DejaVuSans-73" d="M 2834 3397 
L 2834 2853 
Q 2591 2978 2328 3040 
Q 2066 3103 1784 3103 
Q 1356 3103 1142 2972 
Q 928 2841 928 2578 
Q 928 2378 1081 2264 
Q 1234 2150 1697 2047 
L 1894 2003 
Q 2506 1872 2764 1633 
Q 3022 1394 3022 966 
Q 3022 478 2636 193 
Q 2250 -91 1575 -91 
Q 1294 -91 989 -36 
Q 684 19 347 128 
L 347 722 
Q 666 556 975 473 
Q 1284 391 1588 391 
Q 1994 391 2212 530 
Q 2431 669 2431 922 
Q 2431 1156 2273 1281 
Q 2116 1406 1581 1522 
L 1381 1569 
Q 847 1681 609 1914 
Q 372 2147 372 2553 
Q 372 3047 722 3315 
Q 1072 3584 1716 3584 
Q 2034 3584 2315 3537 
Q 2597 3491 2834 3397 
z
" transform="scale(0.015625)"/>
        <path id="DejaVuSans-6e" d="M 3513 2113 
L 3513 0 
L 2938 0 
L 2938 2094 
Q 2938 2591 2744 2837 
Q 2550 3084 2163 3084 
Q 1697 3084 1428 2787 
Q 1159 2491 1159 1978 
L 1159 0 
L 581 0 
L 581 3500 
L 1159 3500 
L 1159 2956 
Q 1366 3272 1645 3428 
Q 1925 3584 2291 3584 
Q 2894 3584 3203 3211 
Q 3513 2838 3513 2113 
z
" transform="scale(0.015625)"/>
        <path id="DejaVuSans-64" d="M 2906 2969 
L 2906 4863 
L 3481 4863 
L 3481 0 
L 2906 0 
L 2906 525 
Q 2725 213 2448 61 
Q 2172 -91 1784 -91 
Q 1150 -91 751 415 
Q 353 922 353 1747 
Q 353 2572 751 3078 
Q 1150 3584 1784 3584 
Q 2172 3584 2448 3432 
Q 2725 3281 2906 2969 
z
M 947 1747 
Q 947 1113 1208 752 
Q 1469 391 1925 391 
Q 2381 391 2643 752 
Q 2906 1113 2906 1747 
Q 2906 2381 2643 2742 
Q 2381 3103 1925 3103 
Q 1469 3103 1208 2742 
Q 947 2381 947 1747 
z
" transform="scale(0.015625)"/>
        <path id="DejaVuSans-48" d="M 628 4666 
L 1259 4666 
L 1259 2753 
L 3553 2753 
L 3553 4666 
L 4184 4666 
L 4184 0 
L 3553 0 
L 3553 2222 
L 1259 2222 
L 1259 0 
L 628 0 
L 628 4666 
z
" transform="scale(0.015625)"/>
        <path id="DejaVuSans-7a" d="M 353 3500 
L 3084 3500 
L 3084 2975 
L 922 459 
L 3084 459 
L 3084 0 
L 275 0 
L 275 525 
L 2438 3041 
L 353 3041 
L 353 3500 
z
" transform="scale(0.015625)"/>
        <path id="DejaVuSans-76" d="M 191 3500 
L 800 3500 
L 1894 563 
L 2988 3500 
L 3597 3500 
L 2284 0 
L 1503 0 
L 191 3500 
z
" transform="scale(0.015625)"/>
       </defs>
       <use xlink:href="#DejaVuSans-42"/>
       <use xlink:href="#DejaVuSans-6f" x="68.603516"/>
       <use xlink:href="#DejaVuSans-73" x="129.785156"/>
       <use xlink:href="#DejaVuSans-6e" x="181.884766"/>
       <use xlink:href="#DejaVuSans-69" x="245.263672"/>
       <use xlink:href="#DejaVuSans-61" x="273.046875"/>
       <use xlink:href="#DejaVuSans-20" x="334.326172"/>
       <use xlink:href="#DejaVuSans-61" x="366.113281"/>
       <use xlink:href="#DejaVuSans-6e" x="427.392578"/>
       <use xlink:href="#DejaVuSans-64" x="490.771484"/>
       <use xlink:href="#DejaVuSans-20" x="554.248047"/>
       <use xlink:href="#DejaVuSans-48" x="586.035156"/>
       <use xlink:href="#DejaVuSans-65" x="661.230469"/>
       <use xlink:href="#DejaVuSans-72" x="722.753906"/>
       <use xlink:href="#DejaVuSans-7a" x="763.867188"/>
       <use xlink:href="#DejaVuSans-65" x="816.357422"/>
       <use xlink:href="#DejaVuSans-67" x="877.880859"/>
       <use xlink:href="#DejaVuSans-6f" x="941.357422"/>
       <use xlink:href="#DejaVuSans-76" x="1002.539062"/>
       <use xlink:href="#DejaVuSans-69" x="1061.71875"/>
       <use xlink:href="#DejaVuSans-6e" x="1089.501953"/>
       <use xlink:href="#DejaVuSans-61" x="1152.880859"/>
      </g>
     </g>
    </g>
    <g id="ytick_4">
     <g id="line2d_33">
      <g>
       <use xlink:href="#ma68a2ee6f0" x="90" y="578.206452" style="stroke: #000000; stroke-width: 0.8"/>
      </g>
     </g>
     <g id="text_8">
      <!-- Hungary -->
      <g transform="translate(40.298437 582.00567)scale(0.1 -0.1)">
       <defs>
        <path id="DejaVuSans-79" d="M 2059 -325 
Q 1816 -950 1584 -1140 
Q 1353 -1331 966 -1331 
L 506 -1331 
L 506 -850 
L 844 -850 
Q 1081 -850 1212 -737 
Q 1344 -625 1503 -206 
L 1606 56 
L 191 3500 
L 800 3500 
L 1894 763 
L 2988 3500 
L 3597 3500 
L 2059 -325 
z
" transform="scale(0.015625)"/>
       </defs>
       <use xlink:href="#DejaVuSans-48"/>
       <use xlink:href="#DejaVuSans-75" x="75.195312"/>
       <use xlink:href="#DejaVuSans-6e" x="138.574219"/>
       <use xlink:href="#DejaVuSans-67" x="201.953125"/>
       <use xlink:href="#DejaVuSans-61" x="265.429688"/>
       <use xlink:href="#DejaVuSans-72" x="326.708984"/>
       <use xlink:href="#DejaVuSans-79" x="367.822266"/>
      </g>
     </g>
    </g>
    <g id="ytick_5">
     <g id="line2d_34">
      <g>
       <use xlink:href="#ma68a2ee6f0" x="90" y="560.322581" style="stroke: #000000; stroke-width: 0.8"/>
      </g>
     </g>
     <g id="text_9">
      <!-- Georgia -->
      <g transform="translate(43.789062 564.121799)scale(0.1 -0.1)">
       <defs>
        <path id="DejaVuSans-47" d="M 3809 666 
L 3809 1919 
L 2778 1919 
L 2778 2438 
L 4434 2438 
L 4434 434 
Q 4069 175 3628 42 
Q 3188 -91 2688 -91 
Q 1594 -91 976 548 
Q 359 1188 359 2328 
Q 359 3472 976 4111 
Q 1594 4750 2688 4750 
Q 3144 4750 3555 4637 
Q 3966 4525 4313 4306 
L 4313 3634 
Q 3963 3931 3569 4081 
Q 3175 4231 2741 4231 
Q 1884 4231 1454 3753 
Q 1025 3275 1025 2328 
Q 1025 1384 1454 906 
Q 1884 428 2741 428 
Q 3075 428 3337 486 
Q 3600 544 3809 666 
z
" transform="scale(0.015625)"/>
       </defs>
       <use xlink:href="#DejaVuSans-47"/>
       <use xlink:href="#DejaVuSans-65" x="77.490234"/>
       <use xlink:href="#DejaVuSans-6f" x="139.013672"/>
       <use xlink:href="#DejaVuSans-72" x="200.195312"/>
       <use xlink:href="#DejaVuSans-67" x="239.558594"/>
       <use xlink:href="#DejaVuSans-69" x="303.035156"/>
       <use xlink:href="#DejaVuSans-61" x="330.818359"/>
      </g>
     </g>
    </g>
    <g id="ytick_6">
     <g id="line2d_35">
      <g>
       <use xlink:href="#ma68a2ee6f0" x="90" y="542.43871" style="stroke: #000000; stroke-width: 0.8"/>
      </g>
     </g>
     <g id="text_10">
      <!-- North Macedonia -->
      <g transform="translate(-2.265625 546.237928)scale(0.1 -0.1)">
       <defs>
        <path id="DejaVuSans-4e" d="M 628 4666 
L 1478 4666 
L 3547 763 
L 3547 4666 
L 4159 4666 
L 4159 0 
L 3309 0 
L 1241 3903 
L 1241 0 
L 628 0 
L 628 4666 
z
" transform="scale(0.015625)"/>
        <path id="DejaVuSans-68" d="M 3513 2113 
L 3513 0 
L 2938 0 
L 2938 2094 
Q 2938 2591 2744 2837 
Q 2550 3084 2163 3084 
Q 1697 3084 1428 2787 
Q 1159 2491 1159 1978 
L 1159 0 
L 581 0 
L 581 4863 
L 1159 4863 
L 1159 2956 
Q 1366 3272 1645 3428 
Q 1925 3584 2291 3584 
Q 2894 3584 3203 3211 
Q 3513 2838 3513 2113 
z
" transform="scale(0.015625)"/>
        <path id="DejaVuSans-4d" d="M 628 4666 
L 1569 4666 
L 2759 1491 
L 3956 4666 
L 4897 4666 
L 4897 0 
L 4281 0 
L 4281 4097 
L 3078 897 
L 2444 897 
L 1241 4097 
L 1241 0 
L 628 0 
L 628 4666 
z
" transform="scale(0.015625)"/>
       </defs>
       <use xlink:href="#DejaVuSans-4e"/>
       <use xlink:href="#DejaVuSans-6f" x="74.804688"/>
       <use xlink:href="#DejaVuSans-72" x="135.986328"/>
       <use xlink:href="#DejaVuSans-74" x="177.099609"/>
       <use xlink:href="#DejaVuSans-68" x="216.308594"/>
       <use xlink:href="#DejaVuSans-20" x="279.6875"/>
       <use xlink:href="#DejaVuSans-4d" x="311.474609"/>
       <use xlink:href="#DejaVuSans-61" x="397.753906"/>
       <use xlink:href="#DejaVuSans-63" x="459.033203"/>
       <use xlink:href="#DejaVuSans-65" x="514.013672"/>
       <use xlink:href="#DejaVuSans-64" x="575.537109"/>
       <use xlink:href="#DejaVuSans-6f" x="639.013672"/>
       <use xlink:href="#DejaVuSans-6e" x="700.195312"/>
       <use xlink:href="#DejaVuSans-69" x="763.574219"/>
       <use xlink:href="#DejaVuSans-61" x="791.357422"/>
      </g>
     </g>
    </g>
    <g id="ytick_7">
     <g id="line2d_36">
      <g>
       <use xlink:href="#ma68a2ee6f0" x="90" y="524.554839" style="stroke: #000000; stroke-width: 0.8"/>
      </g>
     </g>
     <g id="text_11">
      <!-- Montenegro -->
      <g transform="translate(22.998437 528.354057)scale(0.1 -0.1)">
       <use xlink:href="#DejaVuSans-4d"/>
       <use xlink:href="#DejaVuSans-6f" x="86.279297"/>
       <use xlink:href="#DejaVuSans-6e" x="147.460938"/>
       <use xlink:href="#DejaVuSans-74" x="210.839844"/>
       <use xlink:href="#DejaVuSans-65" x="250.048828"/>
       <use xlink:href="#DejaVuSans-6e" x="311.572266"/>
       <use xlink:href="#DejaVuSans-65" x="374.951172"/>
       <use xlink:href="#DejaVuSans-67" x="436.474609"/>
       <use xlink:href="#DejaVuSans-72" x="499.951172"/>
       <use xlink:href="#DejaVuSans-6f" x="538.814453"/>
      </g>
     </g>
    </g>
    <g id="ytick_8">
     <g id="line2d_37">
      <g>
       <use xlink:href="#ma68a2ee6f0" x="90" y="506.670968" style="stroke: #000000; stroke-width: 0.8"/>
      </g>
     </g>
     <g id="text_12">
      <!-- Croatia -->
      <g transform="translate(47.057812 510.470186)scale(0.1 -0.1)">
       <defs>
        <path id="DejaVuSans-43" d="M 4122 4306 
L 4122 3641 
Q 3803 3938 3442 4084 
Q 3081 4231 2675 4231 
Q 1875 4231 1450 3742 
Q 1025 3253 1025 2328 
Q 1025 1406 1450 917 
Q 1875 428 2675 428 
Q 3081 428 3442 575 
Q 3803 722 4122 1019 
L 4122 359 
Q 3791 134 3420 21 
Q 3050 -91 2638 -91 
Q 1578 -91 968 557 
Q 359 1206 359 2328 
Q 359 3453 968 4101 
Q 1578 4750 2638 4750 
Q 3056 4750 3426 4639 
Q 3797 4528 4122 4306 
z
" transform="scale(0.015625)"/>
       </defs>
       <use xlink:href="#DejaVuSans-43"/>
       <use xlink:href="#DejaVuSans-72" x="69.824219"/>
       <use xlink:href="#DejaVuSans-6f" x="108.6875"/>
       <use xlink:href="#DejaVuSans-61" x="169.869141"/>
       <use xlink:href="#DejaVuSans-74" x="231.148438"/>
       <use xlink:href="#DejaVuSans-69" x="270.357422"/>
       <use xlink:href="#DejaVuSans-61" x="298.140625"/>
      </g>
     </g>
    </g>
    <g id="ytick_9">
     <g id="line2d_38">
      <g>
       <use xlink:href="#ma68a2ee6f0" x="90" y="488.787097" style="stroke: #000000; stroke-width: 0.8"/>
      </g>
     </g>
     <g id="text_13">
      <!-- Czechia -->
      <g transform="translate(43.873437 492.586316)scale(0.1 -0.1)">
       <use xlink:href="#DejaVuSans-43"/>
       <use xlink:href="#DejaVuSans-7a" x="69.824219"/>
       <use xlink:href="#DejaVuSans-65" x="122.314453"/>
       <use xlink:href="#DejaVuSans-63" x="183.837891"/>
       <use xlink:href="#DejaVuSans-68" x="238.818359"/>
       <use xlink:href="#DejaVuSans-69" x="302.197266"/>
       <use xlink:href="#DejaVuSans-61" x="329.980469"/>
      </g>
     </g>
    </g>
    <g id="ytick_10">
     <g id="line2d_39">
      <g>
       <use xlink:href="#ma68a2ee6f0" x="90" y="470.903226" style="stroke: #000000; stroke-width: 0.8"/>
      </g>
     </g>
     <g id="text_14">
      <!-- Slovakia -->
      <g transform="translate(41.010937 474.702445)scale(0.1 -0.1)">
       <defs>
        <path id="DejaVuSans-53" d="M 3425 4513 
L 3425 3897 
Q 3066 4069 2747 4153 
Q 2428 4238 2131 4238 
Q 1616 4238 1336 4038 
Q 1056 3838 1056 3469 
Q 1056 3159 1242 3001 
Q 1428 2844 1947 2747 
L 2328 2669 
Q 3034 2534 3370 2195 
Q 3706 1856 3706 1288 
Q 3706 609 3251 259 
Q 2797 -91 1919 -91 
Q 1588 -91 1214 -16 
Q 841 59 441 206 
L 441 856 
Q 825 641 1194 531 
Q 1563 422 1919 422 
Q 2459 422 2753 634 
Q 3047 847 3047 1241 
Q 3047 1584 2836 1778 
Q 2625 1972 2144 2069 
L 1759 2144 
Q 1053 2284 737 2584 
Q 422 2884 422 3419 
Q 422 4038 858 4394 
Q 1294 4750 2059 4750 
Q 2388 4750 2728 4690 
Q 3069 4631 3425 4513 
z
" transform="scale(0.015625)"/>
        <path id="DejaVuSans-6b" d="M 581 4863 
L 1159 4863 
L 1159 1991 
L 2875 3500 
L 3609 3500 
L 1753 1863 
L 3688 0 
L 2938 0 
L 1159 1709 
L 1159 0 
L 581 0 
L 581 4863 
z
" transform="scale(0.015625)"/>
       </defs>
       <use xlink:href="#DejaVuSans-53"/>
       <use xlink:href="#DejaVuSans-6c" x="63.476562"/>
       <use xlink:href="#DejaVuSans-6f" x="91.259766"/>
       <use xlink:href="#DejaVuSans-76" x="152.441406"/>
       <use xlink:href="#DejaVuSans-61" x="211.621094"/>
       <use xlink:href="#DejaVuSans-6b" x="272.900391"/>
       <use xlink:href="#DejaVuSans-69" x="330.810547"/>
       <use xlink:href="#DejaVuSans-61" x="358.59375"/>
      </g>
     </g>
    </g>
    <g id="ytick_11">
     <g id="line2d_40">
      <g>
       <use xlink:href="#ma68a2ee6f0" x="90" y="453.019355" style="stroke: #000000; stroke-width: 0.8"/>
      </g>
     </g>
     <g id="text_15">
      <!-- San Marino -->
      <g transform="translate(26.90625 456.818574)scale(0.1 -0.1)">
       <use xlink:href="#DejaVuSans-53"/>
       <use xlink:href="#DejaVuSans-61" x="63.476562"/>
       <use xlink:href="#DejaVuSans-6e" x="124.755859"/>
       <use xlink:href="#DejaVuSans-20" x="188.134766"/>
       <use xlink:href="#DejaVuSans-4d" x="219.921875"/>
       <use xlink:href="#DejaVuSans-61" x="306.201172"/>
       <use xlink:href="#DejaVuSans-72" x="367.480469"/>
       <use xlink:href="#DejaVuSans-69" x="408.59375"/>
       <use xlink:href="#DejaVuSans-6e" x="436.376953"/>
       <use xlink:href="#DejaVuSans-6f" x="499.755859"/>
      </g>
     </g>
    </g>
    <g id="ytick_12">
     <g id="line2d_41">
      <g>
       <use xlink:href="#ma68a2ee6f0" x="90" y="435.135484" style="stroke: #000000; stroke-width: 0.8"/>
      </g>
     </g>
     <g id="text_16">
      <!-- Romania -->
      <g transform="translate(39.270312 438.934703)scale(0.1 -0.1)">
       <defs>
        <path id="DejaVuSans-52" d="M 2841 2188 
Q 3044 2119 3236 1894 
Q 3428 1669 3622 1275 
L 4263 0 
L 3584 0 
L 2988 1197 
Q 2756 1666 2539 1819 
Q 2322 1972 1947 1972 
L 1259 1972 
L 1259 0 
L 628 0 
L 628 4666 
L 2053 4666 
Q 2853 4666 3247 4331 
Q 3641 3997 3641 3322 
Q 3641 2881 3436 2590 
Q 3231 2300 2841 2188 
z
M 1259 4147 
L 1259 2491 
L 2053 2491 
Q 2509 2491 2742 2702 
Q 2975 2913 2975 3322 
Q 2975 3731 2742 3939 
Q 2509 4147 2053 4147 
L 1259 4147 
z
" transform="scale(0.015625)"/>
        <path id="DejaVuSans-6d" d="M 3328 2828 
Q 3544 3216 3844 3400 
Q 4144 3584 4550 3584 
Q 5097 3584 5394 3201 
Q 5691 2819 5691 2113 
L 5691 0 
L 5113 0 
L 5113 2094 
Q 5113 2597 4934 2840 
Q 4756 3084 4391 3084 
Q 3944 3084 3684 2787 
Q 3425 2491 3425 1978 
L 3425 0 
L 2847 0 
L 2847 2094 
Q 2847 2600 2669 2842 
Q 2491 3084 2119 3084 
Q 1678 3084 1418 2786 
Q 1159 2488 1159 1978 
L 1159 0 
L 581 0 
L 581 3500 
L 1159 3500 
L 1159 2956 
Q 1356 3278 1631 3431 
Q 1906 3584 2284 3584 
Q 2666 3584 2933 3390 
Q 3200 3197 3328 2828 
z
" transform="scale(0.015625)"/>
       </defs>
       <use xlink:href="#DejaVuSans-52"/>
       <use xlink:href="#DejaVuSans-6f" x="64.982422"/>
       <use xlink:href="#DejaVuSans-6d" x="126.164062"/>
       <use xlink:href="#DejaVuSans-61" x="223.576172"/>
       <use xlink:href="#DejaVuSans-6e" x="284.855469"/>
       <use xlink:href="#DejaVuSans-69" x="348.234375"/>
       <use xlink:href="#DejaVuSans-61" x="376.017578"/>
      </g>
     </g>
    </g>
    <g id="ytick_13">
     <g id="line2d_42">
      <g>
       <use xlink:href="#ma68a2ee6f0" x="90" y="417.251613" style="stroke: #000000; stroke-width: 0.8"/>
      </g>
     </g>
     <g id="text_17">
      <!-- Lithuania -->
      <g transform="translate(36.682812 421.050832)scale(0.1 -0.1)">
       <defs>
        <path id="DejaVuSans-4c" d="M 628 4666 
L 1259 4666 
L 1259 531 
L 3531 531 
L 3531 0 
L 628 0 
L 628 4666 
z
" transform="scale(0.015625)"/>
       </defs>
       <use xlink:href="#DejaVuSans-4c"/>
       <use xlink:href="#DejaVuSans-69" x="55.712891"/>
       <use xlink:href="#DejaVuSans-74" x="83.496094"/>
       <use xlink:href="#DejaVuSans-68" x="122.705078"/>
       <use xlink:href="#DejaVuSans-75" x="186.083984"/>
       <use xlink:href="#DejaVuSans-61" x="249.462891"/>
       <use xlink:href="#DejaVuSans-6e" x="310.742188"/>
       <use xlink:href="#DejaVuSans-69" x="374.121094"/>
       <use xlink:href="#DejaVuSans-61" x="401.904297"/>
      </g>
     </g>
    </g>
    <g id="ytick_14">
     <g id="line2d_43">
      <g>
       <use xlink:href="#ma68a2ee6f0" x="90" y="399.367742" style="stroke: #000000; stroke-width: 0.8"/>
      </g>
     </g>
     <g id="text_18">
      <!-- Moldova -->
      <g transform="translate(40.960938 403.166961)scale(0.1 -0.1)">
       <use xlink:href="#DejaVuSans-4d"/>
       <use xlink:href="#DejaVuSans-6f" x="86.279297"/>
       <use xlink:href="#DejaVuSans-6c" x="147.460938"/>
       <use xlink:href="#DejaVuSans-64" x="175.244141"/>
       <use xlink:href="#DejaVuSans-6f" x="238.720703"/>
       <use xlink:href="#DejaVuSans-76" x="299.902344"/>
       <use xlink:href="#DejaVuSans-61" x="359.082031"/>
      </g>
     </g>
    </g>
    <g id="ytick_15">
     <g id="line2d_44">
      <g>
       <use xlink:href="#ma68a2ee6f0" x="90" y="381.483871" style="stroke: #000000; stroke-width: 0.8"/>
      </g>
     </g>
     <g id="text_19">
      <!-- Slovenia -->
      <g transform="translate(40.439062 385.28309)scale(0.1 -0.1)">
       <use xlink:href="#DejaVuSans-53"/>
       <use xlink:href="#DejaVuSans-6c" x="63.476562"/>
       <use xlink:href="#DejaVuSans-6f" x="91.259766"/>
       <use xlink:href="#DejaVuSans-76" x="152.441406"/>
       <use xlink:href="#DejaVuSans-65" x="211.621094"/>
       <use xlink:href="#DejaVuSans-6e" x="273.144531"/>
       <use xlink:href="#DejaVuSans-69" x="336.523438"/>
       <use xlink:href="#DejaVuSans-61" x="364.306641"/>
      </g>
     </g>
    </g>
    <g id="ytick_16">
     <g id="line2d_45">
      <g>
       <use xlink:href="#ma68a2ee6f0" x="90" y="363.6" style="stroke: #000000; stroke-width: 0.8"/>
      </g>
     </g>
     <g id="text_20">
      <!-- Brazil -->
      <g transform="translate(55.095312 367.399219)scale(0.1 -0.1)">
       <use xlink:href="#DejaVuSans-42"/>
       <use xlink:href="#DejaVuSans-72" x="68.603516"/>
       <use xlink:href="#DejaVuSans-61" x="109.716797"/>
       <use xlink:href="#DejaVuSans-7a" x="170.996094"/>
       <use xlink:href="#DejaVuSans-69" x="223.486328"/>
       <use xlink:href="#DejaVuSans-6c" x="251.269531"/>
      </g>
     </g>
    </g>
    <g id="ytick_17">
     <g id="line2d_46">
      <g>
       <use xlink:href="#ma68a2ee6f0" x="90" y="345.716129" style="stroke: #000000; stroke-width: 0.8"/>
      </g>
     </g>
     <g id="text_21">
      <!-- Chile -->
      <g transform="translate(57.970312 349.515348)scale(0.1 -0.1)">
       <use xlink:href="#DejaVuSans-43"/>
       <use xlink:href="#DejaVuSans-68" x="69.824219"/>
       <use xlink:href="#DejaVuSans-69" x="133.203125"/>
       <use xlink:href="#DejaVuSans-6c" x="160.986328"/>
       <use xlink:href="#DejaVuSans-65" x="188.769531"/>
      </g>
     </g>
    </g>
    <g id="ytick_18">
     <g id="line2d_47">
      <g>
       <use xlink:href="#ma68a2ee6f0" x="90" y="327.832258" style="stroke: #000000; stroke-width: 0.8"/>
      </g>
     </g>
     <g id="text_22">
      <!-- Poland -->
      <g transform="translate(49.621875 331.631477)scale(0.1 -0.1)">
       <use xlink:href="#DejaVuSans-50"/>
       <use xlink:href="#DejaVuSans-6f" x="56.677734"/>
       <use xlink:href="#DejaVuSans-6c" x="117.859375"/>
       <use xlink:href="#DejaVuSans-61" x="145.642578"/>
       <use xlink:href="#DejaVuSans-6e" x="206.921875"/>
       <use xlink:href="#DejaVuSans-64" x="270.300781"/>
      </g>
     </g>
    </g>
    <g id="ytick_19">
     <g id="line2d_48">
      <g>
       <use xlink:href="#ma68a2ee6f0" x="90" y="309.948387" style="stroke: #000000; stroke-width: 0.8"/>
      </g>
     </g>
     <g id="text_23">
      <!-- US -->
      <g transform="translate(69.332813 313.747606)scale(0.1 -0.1)">
       <defs>
        <path id="DejaVuSans-55" d="M 556 4666 
L 1191 4666 
L 1191 1831 
Q 1191 1081 1462 751 
Q 1734 422 2344 422 
Q 2950 422 3222 751 
Q 3494 1081 3494 1831 
L 3494 4666 
L 4128 4666 
L 4128 1753 
Q 4128 841 3676 375 
Q 3225 -91 2344 -91 
Q 1459 -91 1007 375 
Q 556 841 556 1753 
L 556 4666 
z
" transform="scale(0.015625)"/>
       </defs>
       <use xlink:href="#DejaVuSans-55"/>
       <use xlink:href="#DejaVuSans-53" x="73.193359"/>
      </g>
     </g>
    </g>
    <g id="ytick_20">
     <g id="line2d_49">
      <g>
       <use xlink:href="#ma68a2ee6f0" x="90" y="292.064516" style="stroke: #000000; stroke-width: 0.8"/>
      </g>
     </g>
     <g id="text_24">
      <!-- Latvia -->
      <g transform="translate(52.554688 295.863735)scale(0.1 -0.1)">
       <use xlink:href="#DejaVuSans-4c"/>
       <use xlink:href="#DejaVuSans-61" x="55.712891"/>
       <use xlink:href="#DejaVuSans-74" x="116.992188"/>
       <use xlink:href="#DejaVuSans-76" x="156.201172"/>
       <use xlink:href="#DejaVuSans-69" x="215.380859"/>
       <use xlink:href="#DejaVuSans-61" x="243.164062"/>
      </g>
     </g>
    </g>
    <g id="ytick_21">
     <g id="line2d_50">
      <g>
       <use xlink:href="#ma68a2ee6f0" x="90" y="274.180645" style="stroke: #000000; stroke-width: 0.8"/>
      </g>
     </g>
     <g id="text_25">
      <!-- Armenia -->
      <g transform="translate(41.085938 277.979864)scale(0.1 -0.1)">
       <defs>
        <path id="DejaVuSans-41" d="M 2188 4044 
L 1331 1722 
L 3047 1722 
L 2188 4044 
z
M 1831 4666 
L 2547 4666 
L 4325 0 
L 3669 0 
L 3244 1197 
L 1141 1197 
L 716 0 
L 50 0 
L 1831 4666 
z
" transform="scale(0.015625)"/>
       </defs>
       <use xlink:href="#DejaVuSans-41"/>
       <use xlink:href="#DejaVuSans-72" x="68.408203"/>
       <use xlink:href="#DejaVuSans-6d" x="107.771484"/>
       <use xlink:href="#DejaVuSans-65" x="205.183594"/>
       <use xlink:href="#DejaVuSans-6e" x="266.707031"/>
       <use xlink:href="#DejaVuSans-69" x="330.085938"/>
       <use xlink:href="#DejaVuSans-61" x="357.869141"/>
      </g>
     </g>
    </g>
    <g id="ytick_22">
     <g id="line2d_51">
      <g>
       <use xlink:href="#ma68a2ee6f0" x="90" y="256.296774" style="stroke: #000000; stroke-width: 0.8"/>
      </g>
     </g>
     <g id="text_26">
      <!-- Argentina -->
      <g transform="translate(34.220312 260.095993)scale(0.1 -0.1)">
       <use xlink:href="#DejaVuSans-41"/>
       <use xlink:href="#DejaVuSans-72" x="68.408203"/>
       <use xlink:href="#DejaVuSans-67" x="107.771484"/>
       <use xlink:href="#DejaVuSans-65" x="171.248047"/>
       <use xlink:href="#DejaVuSans-6e" x="232.771484"/>
       <use xlink:href="#DejaVuSans-74" x="296.150391"/>
       <use xlink:href="#DejaVuSans-69" x="335.359375"/>
       <use xlink:href="#DejaVuSans-6e" x="363.142578"/>
       <use xlink:href="#DejaVuSans-61" x="426.521484"/>
      </g>
     </g>
    </g>
    <g id="ytick_23">
     <g id="line2d_52">
      <g>
       <use xlink:href="#ma68a2ee6f0" x="90" y="238.412903" style="stroke: #000000; stroke-width: 0.8"/>
      </g>
     </g>
     <g id="text_27">
      <!-- Colombia -->
      <g transform="translate(36.00625 242.212122)scale(0.1 -0.1)">
       <defs>
        <path id="DejaVuSans-62" d="M 3116 1747 
Q 3116 2381 2855 2742 
Q 2594 3103 2138 3103 
Q 1681 3103 1420 2742 
Q 1159 2381 1159 1747 
Q 1159 1113 1420 752 
Q 1681 391 2138 391 
Q 2594 391 2855 752 
Q 3116 1113 3116 1747 
z
M 1159 2969 
Q 1341 3281 1617 3432 
Q 1894 3584 2278 3584 
Q 2916 3584 3314 3078 
Q 3713 2572 3713 1747 
Q 3713 922 3314 415 
Q 2916 -91 2278 -91 
Q 1894 -91 1617 61 
Q 1341 213 1159 525 
L 1159 0 
L 581 0 
L 581 4863 
L 1159 4863 
L 1159 2969 
z
" transform="scale(0.015625)"/>
       </defs>
       <use xlink:href="#DejaVuSans-43"/>
       <use xlink:href="#DejaVuSans-6f" x="69.824219"/>
       <use xlink:href="#DejaVuSans-6c" x="131.005859"/>
       <use xlink:href="#DejaVuSans-6f" x="158.789062"/>
       <use xlink:href="#DejaVuSans-6d" x="219.970703"/>
       <use xlink:href="#DejaVuSans-62" x="317.382812"/>
       <use xlink:href="#DejaVuSans-69" x="380.859375"/>
       <use xlink:href="#DejaVuSans-61" x="408.642578"/>
      </g>
     </g>
    </g>
    <g id="ytick_24">
     <g id="line2d_53">
      <g>
       <use xlink:href="#ma68a2ee6f0" x="90" y="220.529032" style="stroke: #000000; stroke-width: 0.8"/>
      </g>
     </g>
     <g id="text_28">
      <!-- Trinidad and Tobago -->
      <g transform="translate(-17.103125 224.328251)scale(0.1 -0.1)">
       <defs>
        <path id="DejaVuSans-54" d="M -19 4666 
L 3928 4666 
L 3928 4134 
L 2272 4134 
L 2272 0 
L 1638 0 
L 1638 4134 
L -19 4134 
L -19 4666 
z
" transform="scale(0.015625)"/>
       </defs>
       <use xlink:href="#DejaVuSans-54"/>
       <use xlink:href="#DejaVuSans-72" x="46.333984"/>
       <use xlink:href="#DejaVuSans-69" x="87.447266"/>
       <use xlink:href="#DejaVuSans-6e" x="115.230469"/>
       <use xlink:href="#DejaVuSans-69" x="178.609375"/>
       <use xlink:href="#DejaVuSans-64" x="206.392578"/>
       <use xlink:href="#DejaVuSans-61" x="269.869141"/>
       <use xlink:href="#DejaVuSans-64" x="331.148438"/>
       <use xlink:href="#DejaVuSans-20" x="394.625"/>
       <use xlink:href="#DejaVuSans-61" x="426.412109"/>
       <use xlink:href="#DejaVuSans-6e" x="487.691406"/>
       <use xlink:href="#DejaVuSans-64" x="551.070312"/>
       <use xlink:href="#DejaVuSans-20" x="614.546875"/>
       <use xlink:href="#DejaVuSans-54" x="646.333984"/>
       <use xlink:href="#DejaVuSans-6f" x="690.417969"/>
       <use xlink:href="#DejaVuSans-62" x="751.599609"/>
       <use xlink:href="#DejaVuSans-61" x="815.076172"/>
       <use xlink:href="#DejaVuSans-67" x="876.355469"/>
       <use xlink:href="#DejaVuSans-6f" x="939.832031"/>
      </g>
     </g>
    </g>
    <g id="ytick_25">
     <g id="line2d_54">
      <g>
       <use xlink:href="#ma68a2ee6f0" x="90" y="202.645161" style="stroke: #000000; stroke-width: 0.8"/>
      </g>
     </g>
     <g id="text_29">
      <!-- Belgium -->
      <g transform="translate(42.003125 206.44438)scale(0.1 -0.1)">
       <use xlink:href="#DejaVuSans-42"/>
       <use xlink:href="#DejaVuSans-65" x="68.603516"/>
       <use xlink:href="#DejaVuSans-6c" x="130.126953"/>
       <use xlink:href="#DejaVuSans-67" x="157.910156"/>
       <use xlink:href="#DejaVuSans-69" x="221.386719"/>
       <use xlink:href="#DejaVuSans-75" x="249.169922"/>
       <use xlink:href="#DejaVuSans-6d" x="312.548828"/>
      </g>
     </g>
    </g>
    <g id="ytick_26">
     <g id="line2d_55">
      <g>
       <use xlink:href="#ma68a2ee6f0" x="90" y="184.76129" style="stroke: #000000; stroke-width: 0.8"/>
      </g>
     </g>
     <g id="text_30">
      <!-- Greece -->
      <g transform="translate(47.407812 188.560509)scale(0.1 -0.1)">
       <use xlink:href="#DejaVuSans-47"/>
       <use xlink:href="#DejaVuSans-72" x="77.490234"/>
       <use xlink:href="#DejaVuSans-65" x="116.353516"/>
       <use xlink:href="#DejaVuSans-65" x="177.876953"/>
       <use xlink:href="#DejaVuSans-63" x="239.400391"/>
       <use xlink:href="#DejaVuSans-65" x="294.380859"/>
      </g>
     </g>
    </g>
    <g id="ytick_27">
     <g id="line2d_56">
      <g>
       <use xlink:href="#ma68a2ee6f0" x="90" y="166.877419" style="stroke: #000000; stroke-width: 0.8"/>
      </g>
     </g>
     <g id="text_31">
      <!-- Italy -->
      <g transform="translate(61.304688 170.676638)scale(0.1 -0.1)">
       <defs>
        <path id="DejaVuSans-49" d="M 628 4666 
L 1259 4666 
L 1259 0 
L 628 0 
L 628 4666 
z
" transform="scale(0.015625)"/>
       </defs>
       <use xlink:href="#DejaVuSans-49"/>
       <use xlink:href="#DejaVuSans-74" x="29.492188"/>
       <use xlink:href="#DejaVuSans-61" x="68.701172"/>
       <use xlink:href="#DejaVuSans-6c" x="129.980469"/>
       <use xlink:href="#DejaVuSans-79" x="157.763672"/>
      </g>
     </g>
    </g>
    <g id="ytick_28">
     <g id="line2d_57">
      <g>
       <use xlink:href="#ma68a2ee6f0" x="90" y="148.993548" style="stroke: #000000; stroke-width: 0.8"/>
      </g>
     </g>
     <g id="text_32">
      <!-- Paraguay -->
      <g transform="translate(36.320312 152.792767)scale(0.1 -0.1)">
       <use xlink:href="#DejaVuSans-50"/>
       <use xlink:href="#DejaVuSans-61" x="55.802734"/>
       <use xlink:href="#DejaVuSans-72" x="117.082031"/>
       <use xlink:href="#DejaVuSans-61" x="158.195312"/>
       <use xlink:href="#DejaVuSans-67" x="219.474609"/>
       <use xlink:href="#DejaVuSans-75" x="282.951172"/>
       <use xlink:href="#DejaVuSans-61" x="346.330078"/>
       <use xlink:href="#DejaVuSans-79" x="407.609375"/>
      </g>
     </g>
    </g>
    <g id="ytick_29">
     <g id="line2d_58">
      <g>
       <use xlink:href="#ma68a2ee6f0" x="90" y="131.109677" style="stroke: #000000; stroke-width: 0.8"/>
      </g>
     </g>
     <g id="text_33">
      <!-- United Kingdom -->
      <g transform="translate(2.735937 134.908896)scale(0.1 -0.1)">
       <defs>
        <path id="DejaVuSans-4b" d="M 628 4666 
L 1259 4666 
L 1259 2694 
L 3353 4666 
L 4166 4666 
L 1850 2491 
L 4331 0 
L 3500 0 
L 1259 2247 
L 1259 0 
L 628 0 
L 628 4666 
z
" transform="scale(0.015625)"/>
       </defs>
       <use xlink:href="#DejaVuSans-55"/>
       <use xlink:href="#DejaVuSans-6e" x="73.193359"/>
       <use xlink:href="#DejaVuSans-69" x="136.572266"/>
       <use xlink:href="#DejaVuSans-74" x="164.355469"/>
       <use xlink:href="#DejaVuSans-65" x="203.564453"/>
       <use xlink:href="#DejaVuSans-64" x="265.087891"/>
       <use xlink:href="#DejaVuSans-20" x="328.564453"/>
       <use xlink:href="#DejaVuSans-4b" x="360.351562"/>
       <use xlink:href="#DejaVuSans-69" x="425.927734"/>
       <use xlink:href="#DejaVuSans-6e" x="453.710938"/>
       <use xlink:href="#DejaVuSans-67" x="517.089844"/>
       <use xlink:href="#DejaVuSans-64" x="580.566406"/>
       <use xlink:href="#DejaVuSans-6f" x="644.042969"/>
       <use xlink:href="#DejaVuSans-6d" x="705.224609"/>
      </g>
     </g>
    </g>
    <g id="ytick_30">
     <g id="line2d_59">
      <g>
       <use xlink:href="#ma68a2ee6f0" x="90" y="113.225806" style="stroke: #000000; stroke-width: 0.8"/>
      </g>
     </g>
     <g id="text_34">
      <!-- Mexico -->
      <g transform="translate(48.079687 117.025025)scale(0.1 -0.1)">
       <defs>
        <path id="DejaVuSans-78" d="M 3513 3500 
L 2247 1797 
L 3578 0 
L 2900 0 
L 1881 1375 
L 863 0 
L 184 0 
L 1544 1831 
L 300 3500 
L 978 3500 
L 1906 2253 
L 2834 3500 
L 3513 3500 
z
" transform="scale(0.015625)"/>
       </defs>
       <use xlink:href="#DejaVuSans-4d"/>
       <use xlink:href="#DejaVuSans-65" x="86.279297"/>
       <use xlink:href="#DejaVuSans-78" x="146.052734"/>
       <use xlink:href="#DejaVuSans-69" x="205.232422"/>
       <use xlink:href="#DejaVuSans-63" x="233.015625"/>
       <use xlink:href="#DejaVuSans-6f" x="287.996094"/>
      </g>
     </g>
    </g>
    <g id="ytick_31">
     <g id="line2d_60">
      <g>
       <use xlink:href="#ma68a2ee6f0" x="90" y="95.341935" style="stroke: #000000; stroke-width: 0.8"/>
      </g>
     </g>
     <g id="text_35">
      <!-- China -->
      <g transform="translate(54.435937 99.141154)scale(0.1 -0.1)">
       <use xlink:href="#DejaVuSans-43"/>
       <use xlink:href="#DejaVuSans-68" x="69.824219"/>
       <use xlink:href="#DejaVuSans-69" x="133.203125"/>
       <use xlink:href="#DejaVuSans-6e" x="160.986328"/>
       <use xlink:href="#DejaVuSans-61" x="224.365234"/>
      </g>
     </g>
    </g>
    <g id="text_36">
     <!-- Country -->
     <g transform="translate(-44.498438 383.463281)rotate(-90)scale(0.1 -0.1)">
      <use xlink:href="#DejaVuSans-43"/>
      <use xlink:href="#DejaVuSans-6f" x="69.824219"/>
      <use xlink:href="#DejaVuSans-75" x="131.005859"/>
      <use xlink:href="#DejaVuSans-6e" x="194.384766"/>
      <use xlink:href="#DejaVuSans-74" x="257.763672"/>
      <use xlink:href="#DejaVuSans-72" x="296.972656"/>
      <use xlink:href="#DejaVuSans-79" x="338.085938"/>
     </g>
    </g>
   </g>
   <g id="patch_65">
    <path d="M 90 640.8 
L 90 86.4 
" style="fill: none; stroke: #000000; stroke-width: 0.8; stroke-linejoin: miter; stroke-linecap: square"/>
   </g>
   <g id="patch_66">
    <path d="M 648 640.8 
L 648 86.4 
" style="fill: none; stroke: #000000; stroke-width: 0.8; stroke-linejoin: miter; stroke-linecap: square"/>
   </g>
   <g id="patch_67">
    <path d="M 90 640.8 
L 648 640.8 
" style="fill: none; stroke: #000000; stroke-width: 0.8; stroke-linejoin: miter; stroke-linecap: square"/>
   </g>
   <g id="patch_68">
    <path d="M 90 86.4 
L 648 86.4 
" style="fill: none; stroke: #000000; stroke-width: 0.8; stroke-linejoin: miter; stroke-linecap: square"/>
   </g>
   <g id="text_37">
    <!-- Fatalities / Recovered rate (2022-05-12) -->
    <g transform="translate(249.195938 80.4)scale(0.12 -0.12)">
     <defs>
      <path id="DejaVuSans-46" d="M 628 4666 
L 3309 4666 
L 3309 4134 
L 1259 4134 
L 1259 2759 
L 3109 2759 
L 3109 2228 
L 1259 2228 
L 1259 0 
L 628 0 
L 628 4666 
z
" transform="scale(0.015625)"/>
      <path id="DejaVuSans-28" d="M 1984 4856 
Q 1566 4138 1362 3434 
Q 1159 2731 1159 2009 
Q 1159 1288 1364 580 
Q 1569 -128 1984 -844 
L 1484 -844 
Q 1016 -109 783 600 
Q 550 1309 550 2009 
Q 550 2706 781 3412 
Q 1013 4119 1484 4856 
L 1984 4856 
z
" transform="scale(0.015625)"/>
      <path id="DejaVuSans-2d" d="M 313 2009 
L 1997 2009 
L 1997 1497 
L 313 1497 
L 313 2009 
z
" transform="scale(0.015625)"/>
      <path id="DejaVuSans-35" d="M 691 4666 
L 3169 4666 
L 3169 4134 
L 1269 4134 
L 1269 2991 
Q 1406 3038 1543 3061 
Q 1681 3084 1819 3084 
Q 2600 3084 3056 2656 
Q 3513 2228 3513 1497 
Q 3513 744 3044 326 
Q 2575 -91 1722 -91 
Q 1428 -91 1123 -41 
Q 819 9 494 109 
L 494 744 
Q 775 591 1075 516 
Q 1375 441 1709 441 
Q 2250 441 2565 725 
Q 2881 1009 2881 1497 
Q 2881 1984 2565 2268 
Q 2250 2553 1709 2553 
Q 1456 2553 1204 2497 
Q 953 2441 691 2322 
L 691 4666 
z
" transform="scale(0.015625)"/>
      <path id="DejaVuSans-29" d="M 513 4856 
L 1013 4856 
Q 1481 4119 1714 3412 
Q 1947 2706 1947 2009 
Q 1947 1309 1714 600 
Q 1481 -109 1013 -844 
L 513 -844 
Q 928 -128 1133 580 
Q 1338 1288 1338 2009 
Q 1338 2731 1133 3434 
Q 928 4138 513 4856 
z
" transform="scale(0.015625)"/>
     </defs>
     <use xlink:href="#DejaVuSans-46"/>
     <use xlink:href="#DejaVuSans-61" x="48.394531"/>
     <use xlink:href="#DejaVuSans-74" x="109.673828"/>
     <use xlink:href="#DejaVuSans-61" x="148.882812"/>
     <use xlink:href="#DejaVuSans-6c" x="210.162109"/>
     <use xlink:href="#DejaVuSans-69" x="237.945312"/>
     <use xlink:href="#DejaVuSans-74" x="265.728516"/>
     <use xlink:href="#DejaVuSans-69" x="304.9375"/>
     <use xlink:href="#DejaVuSans-65" x="332.720703"/>
     <use xlink:href="#DejaVuSans-73" x="394.244141"/>
     <use xlink:href="#DejaVuSans-20" x="446.34375"/>
     <use xlink:href="#DejaVuSans-2f" x="478.130859"/>
     <use xlink:href="#DejaVuSans-20" x="511.822266"/>
     <use xlink:href="#DejaVuSans-52" x="543.609375"/>
     <use xlink:href="#DejaVuSans-65" x="608.591797"/>
     <use xlink:href="#DejaVuSans-63" x="670.115234"/>
     <use xlink:href="#DejaVuSans-6f" x="725.095703"/>
     <use xlink:href="#DejaVuSans-76" x="786.277344"/>
     <use xlink:href="#DejaVuSans-65" x="845.457031"/>
     <use xlink:href="#DejaVuSans-72" x="906.980469"/>
     <use xlink:href="#DejaVuSans-65" x="945.84375"/>
     <use xlink:href="#DejaVuSans-64" x="1007.367188"/>
     <use xlink:href="#DejaVuSans-20" x="1070.84375"/>
     <use xlink:href="#DejaVuSans-72" x="1102.630859"/>
     <use xlink:href="#DejaVuSans-61" x="1143.744141"/>
     <use xlink:href="#DejaVuSans-74" x="1205.023438"/>
     <use xlink:href="#DejaVuSans-65" x="1244.232422"/>
     <use xlink:href="#DejaVuSans-20" x="1305.755859"/>
     <use xlink:href="#DejaVuSans-28" x="1337.542969"/>
     <use xlink:href="#DejaVuSans-32" x="1376.556641"/>
     <use xlink:href="#DejaVuSans-30" x="1440.179688"/>
     <use xlink:href="#DejaVuSans-32" x="1503.802734"/>
     <use xlink:href="#DejaVuSans-32" x="1567.425781"/>
     <use xlink:href="#DejaVuSans-2d" x="1631.048828"/>
     <use xlink:href="#DejaVuSans-30" x="1667.132812"/>
     <use xlink:href="#DejaVuSans-35" x="1730.755859"/>
     <use xlink:href="#DejaVuSans-2d" x="1794.378906"/>
     <use xlink:href="#DejaVuSans-31" x="1830.462891"/>
     <use xlink:href="#DejaVuSans-32" x="1894.085938"/>
     <use xlink:href="#DejaVuSans-29" x="1957.708984"/>
    </g>
   </g>
   <g id="legend_1">
    <g id="patch_69">
     <path d="M 538.571875 123.75625 
L 641 123.75625 
Q 643 123.75625 643 121.75625 
L 643 93.4 
Q 643 91.4 641 91.4 
L 538.571875 91.4 
Q 536.571875 91.4 536.571875 93.4 
L 536.571875 121.75625 
Q 536.571875 123.75625 538.571875 123.75625 
z
" style="fill: #ffffff; opacity: 0.8; stroke: #cccccc; stroke-linejoin: miter"/>
    </g>
    <g id="patch_70">
     <path d="M 540.571875 102.998437 
L 560.571875 102.998437 
L 560.571875 95.998437 
L 540.571875 95.998437 
z
" style="fill: #997570"/>
    </g>
    <g id="text_38">
     <!-- deathrate -->
     <g transform="translate(568.571875 102.998437)scale(0.1 -0.1)">
      <use xlink:href="#DejaVuSans-64"/>
      <use xlink:href="#DejaVuSans-65" x="63.476562"/>
      <use xlink:href="#DejaVuSans-61" x="125"/>
      <use xlink:href="#DejaVuSans-74" x="186.279297"/>
      <use xlink:href="#DejaVuSans-68" x="225.488281"/>
      <use xlink:href="#DejaVuSans-72" x="288.867188"/>
      <use xlink:href="#DejaVuSans-61" x="329.980469"/>
      <use xlink:href="#DejaVuSans-74" x="391.259766"/>
      <use xlink:href="#DejaVuSans-65" x="430.46875"/>
     </g>
    </g>
    <g id="patch_71">
     <path d="M 540.571875 117.676562 
L 560.571875 117.676562 
L 560.571875 110.676562 
L 540.571875 110.676562 
z
" style="fill: #5ca904"/>
    </g>
    <g id="text_39">
     <!-- recoveredrate -->
     <g transform="translate(568.571875 117.676562)scale(0.1 -0.1)">
      <use xlink:href="#DejaVuSans-72"/>
      <use xlink:href="#DejaVuSans-65" x="38.863281"/>
      <use xlink:href="#DejaVuSans-63" x="100.386719"/>
      <use xlink:href="#DejaVuSans-6f" x="155.367188"/>
      <use xlink:href="#DejaVuSans-76" x="216.548828"/>
      <use xlink:href="#DejaVuSans-65" x="275.728516"/>
      <use xlink:href="#DejaVuSans-72" x="337.251953"/>
      <use xlink:href="#DejaVuSans-65" x="376.115234"/>
      <use xlink:href="#DejaVuSans-64" x="437.638672"/>
      <use xlink:href="#DejaVuSans-72" x="501.115234"/>
      <use xlink:href="#DejaVuSans-61" x="542.228516"/>
      <use xlink:href="#DejaVuSans-74" x="603.507812"/>
      <use xlink:href="#DejaVuSans-65" x="642.716797"/>
     </g>
    </g>
   </g>
  </g>
 </g>
 <defs>
  <clipPath id="p97f365f28f">
   <rect x="90" y="86.4" width="558" height="554.4"/>
  </clipPath>
 </defs>
</svg>
