<?xml version="1.0" encoding="utf-8" standalone="no"?>
<!DOCTYPE svg PUBLIC "-//W3C//DTD SVG 1.1//EN"
  "http://www.w3.org/Graphics/SVG/1.1/DTD/svg11.dtd">
<svg height="576pt" version="1.1" viewBox="0 0 720 576" width="720pt" xmlns="http://www.w3.org/2000/svg" xmlns:xlink="http://www.w3.org/1999/xlink">
 <metadata>
  <rdf:RDF xmlns:cc="http://creativecommons.org/ns#" xmlns:dc="http://purl.org/dc/elements/1.1/" xmlns:rdf="http://www.w3.org/1999/02/22-rdf-syntax-ns#">
   <cc:Work>
    <dc:type rdf:resource="http://purl.org/dc/dcmitype/StillImage"/>
    <dc:date>2021-09-09T00:37:44.777442</dc:date>
    <dc:format>image/svg+xml</dc:format>
    <dc:creator>
     <cc:Agent>
      <dc:title>Matplotlib v3.4.3, https://matplotlib.org/</dc:title>
     </cc:Agent>
    </dc:creator>
   </cc:Work>
  </rdf:RDF>
 </metadata>
 <defs>
  <style type="text/css">*{stroke-linecap:butt;stroke-linejoin:round;}</style>
 </defs>
 <g id="figure_1">
  <g id="patch_1">
   <path d="M 0 576 
L 720 576 
L 720 0 
L 0 0 
z
" style="fill:#ffffff;"/>
  </g>
  <g id="axes_1">
   <g id="patch_2">
    <path d="M 90 512.64 
L 648 512.64 
L 648 69.12 
L 90 69.12 
z
" style="fill:#ffffff;"/>
   </g>
   <g id="patch_3">
    <path clip-path="url(#pe9ca4b3cd8)" d="M 90 509.063226 
L 621.428571 509.063226 
L 621.428571 501.909677 
L 90 501.909677 
z
" style="fill:#0165fc;"/>
   </g>
   <g id="patch_4">
    <path clip-path="url(#pe9ca4b3cd8)" d="M 90 494.756129 
L 577.267683 494.756129 
L 577.267683 487.602581 
L 90 487.602581 
z
" style="fill:#0165fc;"/>
   </g>
   <g id="patch_5">
    <path clip-path="url(#pe9ca4b3cd8)" d="M 90 480.449032 
L 531.447722 480.449032 
L 531.447722 473.295484 
L 90 473.295484 
z
" style="fill:#0165fc;"/>
   </g>
   <g id="patch_6">
    <path clip-path="url(#pe9ca4b3cd8)" d="M 90 466.141935 
L 494.952457 466.141935 
L 494.952457 458.988387 
L 90 458.988387 
z
" style="fill:#0165fc;"/>
   </g>
   <g id="patch_7">
    <path clip-path="url(#pe9ca4b3cd8)" d="M 90 451.834839 
L 492.104707 451.834839 
L 492.104707 444.68129 
L 90 444.68129 
z
" style="fill:#0165fc;"/>
   </g>
   <g id="patch_8">
    <path clip-path="url(#pe9ca4b3cd8)" d="M 90 437.527742 
L 491.279194 437.527742 
L 491.279194 430.374194 
L 90 430.374194 
z
" style="fill:#0165fc;"/>
   </g>
   <g id="patch_9">
    <path clip-path="url(#pe9ca4b3cd8)" d="M 90 423.220645 
L 477.690753 423.220645 
L 477.690753 416.067097 
L 90 416.067097 
z
" style="fill:#0165fc;"/>
   </g>
   <g id="patch_10">
    <path clip-path="url(#pe9ca4b3cd8)" d="M 90 408.913548 
L 424.216104 408.913548 
L 424.216104 401.76 
L 90 401.76 
z
" style="fill:#0165fc;"/>
   </g>
   <g id="patch_11">
    <path clip-path="url(#pe9ca4b3cd8)" d="M 90 394.606452 
L 415.329465 394.606452 
L 415.329465 387.452903 
L 90 387.452903 
z
" style="fill:#0165fc;"/>
   </g>
   <g id="patch_12">
    <path clip-path="url(#pe9ca4b3cd8)" d="M 90 380.299355 
L 408.975273 380.299355 
L 408.975273 373.145806 
L 90 373.145806 
z
" style="fill:#0165fc;"/>
   </g>
   <g id="patch_13">
    <path clip-path="url(#pe9ca4b3cd8)" d="M 90 365.992258 
L 403.018849 365.992258 
L 403.018849 358.83871 
L 90 358.83871 
z
" style="fill:#0165fc;"/>
   </g>
   <g id="patch_14">
    <path clip-path="url(#pe9ca4b3cd8)" d="M 90 351.685161 
L 386.990013 351.685161 
L 386.990013 344.531613 
L 90 344.531613 
z
" style="fill:#0165fc;"/>
   </g>
   <g id="patch_15">
    <path clip-path="url(#pe9ca4b3cd8)" d="M 90 337.378065 
L 383.962334 337.378065 
L 383.962334 330.224516 
L 90 330.224516 
z
" style="fill:#0165fc;"/>
   </g>
   <g id="patch_16">
    <path clip-path="url(#pe9ca4b3cd8)" d="M 90 323.070968 
L 378.525703 323.070968 
L 378.525703 315.917419 
L 90 315.917419 
z
" style="fill:#0165fc;"/>
   </g>
   <g id="patch_17">
    <path clip-path="url(#pe9ca4b3cd8)" d="M 90 308.763871 
L 373.683167 308.763871 
L 373.683167 301.610323 
L 90 301.610323 
z
" style="fill:#0165fc;"/>
   </g>
   <g id="patch_18">
    <path clip-path="url(#pe9ca4b3cd8)" d="M 90 294.456774 
L 372.640403 294.456774 
L 372.640403 287.303226 
L 90 287.303226 
z
" style="fill:#0165fc;"/>
   </g>
   <g id="patch_19">
    <path clip-path="url(#pe9ca4b3cd8)" d="M 90 280.149677 
L 369.536029 280.149677 
L 369.536029 272.996129 
L 90 272.996129 
z
" style="fill:#0165fc;"/>
   </g>
   <g id="patch_20">
    <path clip-path="url(#pe9ca4b3cd8)" d="M 90 265.842581 
L 368.098172 265.842581 
L 368.098172 258.689032 
L 90 258.689032 
z
" style="fill:#0165fc;"/>
   </g>
   <g id="patch_21">
    <path clip-path="url(#pe9ca4b3cd8)" d="M 90 251.535484 
L 366.859077 251.535484 
L 366.859077 244.381935 
L 90 244.381935 
z
" style="fill:#0165fc;"/>
   </g>
   <g id="patch_22">
    <path clip-path="url(#pe9ca4b3cd8)" d="M 90 237.228387 
L 361.800678 237.228387 
L 361.800678 230.074839 
L 90 230.074839 
z
" style="fill:#0165fc;"/>
   </g>
   <g id="patch_23">
    <path clip-path="url(#pe9ca4b3cd8)" d="M 90 222.92129 
L 356.044788 222.92129 
L 356.044788 215.767742 
L 90 215.767742 
z
" style="fill:#0165fc;"/>
   </g>
   <g id="patch_24">
    <path clip-path="url(#pe9ca4b3cd8)" d="M 90 208.614194 
L 355.805734 208.614194 
L 355.805734 201.460645 
L 90 201.460645 
z
" style="fill:#0165fc;"/>
   </g>
   <g id="patch_25">
    <path clip-path="url(#pe9ca4b3cd8)" d="M 90 194.307097 
L 352.862005 194.307097 
L 352.862005 187.153548 
L 90 187.153548 
z
" style="fill:#0165fc;"/>
   </g>
   <g id="patch_26">
    <path clip-path="url(#pe9ca4b3cd8)" d="M 90 180 
L 349.107158 180 
L 349.107158 172.846452 
L 90 172.846452 
z
" style="fill:#0165fc;"/>
   </g>
   <g id="patch_27">
    <path clip-path="url(#pe9ca4b3cd8)" d="M 90 165.692903 
L 343.15234 165.692903 
L 343.15234 158.539355 
L 90 158.539355 
z
" style="fill:#0165fc;"/>
   </g>
   <g id="patch_28">
    <path clip-path="url(#pe9ca4b3cd8)" d="M 90 151.385806 
L 341.565652 151.385806 
L 341.565652 144.232258 
L 90 144.232258 
z
" style="fill:#0165fc;"/>
   </g>
   <g id="patch_29">
    <path clip-path="url(#pe9ca4b3cd8)" d="M 90 137.07871 
L 341.328748 137.07871 
L 341.328748 129.925161 
L 90 129.925161 
z
" style="fill:#0165fc;"/>
   </g>
   <g id="patch_30">
    <path clip-path="url(#pe9ca4b3cd8)" d="M 90 122.771613 
L 336.189601 122.771613 
L 336.189601 115.618065 
L 90 115.618065 
z
" style="fill:#0165fc;"/>
   </g>
   <g id="patch_31">
    <path clip-path="url(#pe9ca4b3cd8)" d="M 90 108.464516 
L 333.991266 108.464516 
L 333.991266 101.310968 
L 90 101.310968 
z
" style="fill:#0165fc;"/>
   </g>
   <g id="patch_32">
    <path clip-path="url(#pe9ca4b3cd8)" d="M 90 94.157419 
L 328.779692 94.157419 
L 328.779692 87.003871 
L 90 87.003871 
z
" style="fill:#0165fc;"/>
   </g>
   <g id="patch_33">
    <path clip-path="url(#pe9ca4b3cd8)" d="M 90 79.850323 
L 90.195299 79.850323 
L 90.195299 72.696774 
L 90 72.696774 
z
" style="fill:#0165fc;"/>
   </g>
   <g id="matplotlib.axis_1">
    <g id="xtick_1">
     <g id="line2d_1">
      <defs>
       <path d="M 0 0 
L 0 3.5 
" id="m0685ab310f" style="stroke:#000000;stroke-width:0.8;"/>
      </defs>
      <g>
       <use style="stroke:#000000;stroke-width:0.8;" x="90" xlink:href="#m0685ab310f" y="512.64"/>
      </g>
     </g>
     <g id="text_1">
      <!-- 0 -->
      <g transform="translate(86.81875 527.238438)scale(0.1 -0.1)">
       <defs>
        <path d="M 2034 4250 
Q 1547 4250 1301 3770 
Q 1056 3291 1056 2328 
Q 1056 1369 1301 889 
Q 1547 409 2034 409 
Q 2525 409 2770 889 
Q 3016 1369 3016 2328 
Q 3016 3291 2770 3770 
Q 2525 4250 2034 4250 
z
M 2034 4750 
Q 2819 4750 3233 4129 
Q 3647 3509 3647 2328 
Q 3647 1150 3233 529 
Q 2819 -91 2034 -91 
Q 1250 -91 836 529 
Q 422 1150 422 2328 
Q 422 3509 836 4129 
Q 1250 4750 2034 4750 
z
" id="DejaVuSans-30" transform="scale(0.015625)"/>
       </defs>
       <use xlink:href="#DejaVuSans-30"/>
      </g>
     </g>
    </g>
    <g id="xtick_2">
     <g id="line2d_2">
      <g>
       <use style="stroke:#000000;stroke-width:0.8;" x="153.387027" xlink:href="#m0685ab310f" y="512.64"/>
      </g>
     </g>
     <g id="text_2">
      <!-- 2500 -->
      <g transform="translate(140.662027 527.238438)scale(0.1 -0.1)">
       <defs>
        <path d="M 1228 531 
L 3431 531 
L 3431 0 
L 469 0 
L 469 531 
Q 828 903 1448 1529 
Q 2069 2156 2228 2338 
Q 2531 2678 2651 2914 
Q 2772 3150 2772 3378 
Q 2772 3750 2511 3984 
Q 2250 4219 1831 4219 
Q 1534 4219 1204 4116 
Q 875 4013 500 3803 
L 500 4441 
Q 881 4594 1212 4672 
Q 1544 4750 1819 4750 
Q 2544 4750 2975 4387 
Q 3406 4025 3406 3419 
Q 3406 3131 3298 2873 
Q 3191 2616 2906 2266 
Q 2828 2175 2409 1742 
Q 1991 1309 1228 531 
z
" id="DejaVuSans-32" transform="scale(0.015625)"/>
        <path d="M 691 4666 
L 3169 4666 
L 3169 4134 
L 1269 4134 
L 1269 2991 
Q 1406 3038 1543 3061 
Q 1681 3084 1819 3084 
Q 2600 3084 3056 2656 
Q 3513 2228 3513 1497 
Q 3513 744 3044 326 
Q 2575 -91 1722 -91 
Q 1428 -91 1123 -41 
Q 819 9 494 109 
L 494 744 
Q 775 591 1075 516 
Q 1375 441 1709 441 
Q 2250 441 2565 725 
Q 2881 1009 2881 1497 
Q 2881 1984 2565 2268 
Q 2250 2553 1709 2553 
Q 1456 2553 1204 2497 
Q 953 2441 691 2322 
L 691 4666 
z
" id="DejaVuSans-35" transform="scale(0.015625)"/>
       </defs>
       <use xlink:href="#DejaVuSans-32"/>
       <use x="63.623047" xlink:href="#DejaVuSans-35"/>
       <use x="127.246094" xlink:href="#DejaVuSans-30"/>
       <use x="190.869141" xlink:href="#DejaVuSans-30"/>
      </g>
     </g>
    </g>
    <g id="xtick_3">
     <g id="line2d_3">
      <g>
       <use style="stroke:#000000;stroke-width:0.8;" x="216.774053" xlink:href="#m0685ab310f" y="512.64"/>
      </g>
     </g>
     <g id="text_3">
      <!-- 5000 -->
      <g transform="translate(204.049053 527.238438)scale(0.1 -0.1)">
       <use xlink:href="#DejaVuSans-35"/>
       <use x="63.623047" xlink:href="#DejaVuSans-30"/>
       <use x="127.246094" xlink:href="#DejaVuSans-30"/>
       <use x="190.869141" xlink:href="#DejaVuSans-30"/>
      </g>
     </g>
    </g>
    <g id="xtick_4">
     <g id="line2d_4">
      <g>
       <use style="stroke:#000000;stroke-width:0.8;" x="280.16108" xlink:href="#m0685ab310f" y="512.64"/>
      </g>
     </g>
     <g id="text_4">
      <!-- 7500 -->
      <g transform="translate(267.43608 527.238438)scale(0.1 -0.1)">
       <defs>
        <path d="M 525 4666 
L 3525 4666 
L 3525 4397 
L 1831 0 
L 1172 0 
L 2766 4134 
L 525 4134 
L 525 4666 
z
" id="DejaVuSans-37" transform="scale(0.015625)"/>
       </defs>
       <use xlink:href="#DejaVuSans-37"/>
       <use x="63.623047" xlink:href="#DejaVuSans-35"/>
       <use x="127.246094" xlink:href="#DejaVuSans-30"/>
       <use x="190.869141" xlink:href="#DejaVuSans-30"/>
      </g>
     </g>
    </g>
    <g id="xtick_5">
     <g id="line2d_5">
      <g>
       <use style="stroke:#000000;stroke-width:0.8;" x="343.548106" xlink:href="#m0685ab310f" y="512.64"/>
      </g>
     </g>
     <g id="text_5">
      <!-- 10000 -->
      <g transform="translate(327.641856 527.238438)scale(0.1 -0.1)">
       <defs>
        <path d="M 794 531 
L 1825 531 
L 1825 4091 
L 703 3866 
L 703 4441 
L 1819 4666 
L 2450 4666 
L 2450 531 
L 3481 531 
L 3481 0 
L 794 0 
L 794 531 
z
" id="DejaVuSans-31" transform="scale(0.015625)"/>
       </defs>
       <use xlink:href="#DejaVuSans-31"/>
       <use x="63.623047" xlink:href="#DejaVuSans-30"/>
       <use x="127.246094" xlink:href="#DejaVuSans-30"/>
       <use x="190.869141" xlink:href="#DejaVuSans-30"/>
       <use x="254.492188" xlink:href="#DejaVuSans-30"/>
      </g>
     </g>
    </g>
    <g id="xtick_6">
     <g id="line2d_6">
      <g>
       <use style="stroke:#000000;stroke-width:0.8;" x="406.935133" xlink:href="#m0685ab310f" y="512.64"/>
      </g>
     </g>
     <g id="text_6">
      <!-- 12500 -->
      <g transform="translate(391.028883 527.238438)scale(0.1 -0.1)">
       <use xlink:href="#DejaVuSans-31"/>
       <use x="63.623047" xlink:href="#DejaVuSans-32"/>
       <use x="127.246094" xlink:href="#DejaVuSans-35"/>
       <use x="190.869141" xlink:href="#DejaVuSans-30"/>
       <use x="254.492188" xlink:href="#DejaVuSans-30"/>
      </g>
     </g>
    </g>
    <g id="xtick_7">
     <g id="line2d_7">
      <g>
       <use style="stroke:#000000;stroke-width:0.8;" x="470.322159" xlink:href="#m0685ab310f" y="512.64"/>
      </g>
     </g>
     <g id="text_7">
      <!-- 15000 -->
      <g transform="translate(454.415909 527.238438)scale(0.1 -0.1)">
       <use xlink:href="#DejaVuSans-31"/>
       <use x="63.623047" xlink:href="#DejaVuSans-35"/>
       <use x="127.246094" xlink:href="#DejaVuSans-30"/>
       <use x="190.869141" xlink:href="#DejaVuSans-30"/>
       <use x="254.492188" xlink:href="#DejaVuSans-30"/>
      </g>
     </g>
    </g>
    <g id="xtick_8">
     <g id="line2d_8">
      <g>
       <use style="stroke:#000000;stroke-width:0.8;" x="533.709186" xlink:href="#m0685ab310f" y="512.64"/>
      </g>
     </g>
     <g id="text_8">
      <!-- 17500 -->
      <g transform="translate(517.802936 527.238438)scale(0.1 -0.1)">
       <use xlink:href="#DejaVuSans-31"/>
       <use x="63.623047" xlink:href="#DejaVuSans-37"/>
       <use x="127.246094" xlink:href="#DejaVuSans-35"/>
       <use x="190.869141" xlink:href="#DejaVuSans-30"/>
       <use x="254.492188" xlink:href="#DejaVuSans-30"/>
      </g>
     </g>
    </g>
    <g id="xtick_9">
     <g id="line2d_9">
      <g>
       <use style="stroke:#000000;stroke-width:0.8;" x="597.096213" xlink:href="#m0685ab310f" y="512.64"/>
      </g>
     </g>
     <g id="text_9">
      <!-- 20000 -->
      <g transform="translate(581.189963 527.238438)scale(0.1 -0.1)">
       <use xlink:href="#DejaVuSans-32"/>
       <use x="63.623047" xlink:href="#DejaVuSans-30"/>
       <use x="127.246094" xlink:href="#DejaVuSans-30"/>
       <use x="190.869141" xlink:href="#DejaVuSans-30"/>
       <use x="254.492188" xlink:href="#DejaVuSans-30"/>
      </g>
     </g>
    </g>
    <g id="text_10">
     <!-- capita / 100000 -->
     <g transform="translate(329.649219 540.916563)scale(0.1 -0.1)">
      <defs>
       <path d="M 3122 3366 
L 3122 2828 
Q 2878 2963 2633 3030 
Q 2388 3097 2138 3097 
Q 1578 3097 1268 2742 
Q 959 2388 959 1747 
Q 959 1106 1268 751 
Q 1578 397 2138 397 
Q 2388 397 2633 464 
Q 2878 531 3122 666 
L 3122 134 
Q 2881 22 2623 -34 
Q 2366 -91 2075 -91 
Q 1284 -91 818 406 
Q 353 903 353 1747 
Q 353 2603 823 3093 
Q 1294 3584 2113 3584 
Q 2378 3584 2631 3529 
Q 2884 3475 3122 3366 
z
" id="DejaVuSans-63" transform="scale(0.015625)"/>
       <path d="M 2194 1759 
Q 1497 1759 1228 1600 
Q 959 1441 959 1056 
Q 959 750 1161 570 
Q 1363 391 1709 391 
Q 2188 391 2477 730 
Q 2766 1069 2766 1631 
L 2766 1759 
L 2194 1759 
z
M 3341 1997 
L 3341 0 
L 2766 0 
L 2766 531 
Q 2569 213 2275 61 
Q 1981 -91 1556 -91 
Q 1019 -91 701 211 
Q 384 513 384 1019 
Q 384 1609 779 1909 
Q 1175 2209 1959 2209 
L 2766 2209 
L 2766 2266 
Q 2766 2663 2505 2880 
Q 2244 3097 1772 3097 
Q 1472 3097 1187 3025 
Q 903 2953 641 2809 
L 641 3341 
Q 956 3463 1253 3523 
Q 1550 3584 1831 3584 
Q 2591 3584 2966 3190 
Q 3341 2797 3341 1997 
z
" id="DejaVuSans-61" transform="scale(0.015625)"/>
       <path d="M 1159 525 
L 1159 -1331 
L 581 -1331 
L 581 3500 
L 1159 3500 
L 1159 2969 
Q 1341 3281 1617 3432 
Q 1894 3584 2278 3584 
Q 2916 3584 3314 3078 
Q 3713 2572 3713 1747 
Q 3713 922 3314 415 
Q 2916 -91 2278 -91 
Q 1894 -91 1617 61 
Q 1341 213 1159 525 
z
M 3116 1747 
Q 3116 2381 2855 2742 
Q 2594 3103 2138 3103 
Q 1681 3103 1420 2742 
Q 1159 2381 1159 1747 
Q 1159 1113 1420 752 
Q 1681 391 2138 391 
Q 2594 391 2855 752 
Q 3116 1113 3116 1747 
z
" id="DejaVuSans-70" transform="scale(0.015625)"/>
       <path d="M 603 3500 
L 1178 3500 
L 1178 0 
L 603 0 
L 603 3500 
z
M 603 4863 
L 1178 4863 
L 1178 4134 
L 603 4134 
L 603 4863 
z
" id="DejaVuSans-69" transform="scale(0.015625)"/>
       <path d="M 1172 4494 
L 1172 3500 
L 2356 3500 
L 2356 3053 
L 1172 3053 
L 1172 1153 
Q 1172 725 1289 603 
Q 1406 481 1766 481 
L 2356 481 
L 2356 0 
L 1766 0 
Q 1100 0 847 248 
Q 594 497 594 1153 
L 594 3053 
L 172 3053 
L 172 3500 
L 594 3500 
L 594 4494 
L 1172 4494 
z
" id="DejaVuSans-74" transform="scale(0.015625)"/>
       <path id="DejaVuSans-20" transform="scale(0.015625)"/>
       <path d="M 1625 4666 
L 2156 4666 
L 531 -594 
L 0 -594 
L 1625 4666 
z
" id="DejaVuSans-2f" transform="scale(0.015625)"/>
      </defs>
      <use xlink:href="#DejaVuSans-63"/>
      <use x="54.980469" xlink:href="#DejaVuSans-61"/>
      <use x="116.259766" xlink:href="#DejaVuSans-70"/>
      <use x="179.736328" xlink:href="#DejaVuSans-69"/>
      <use x="207.519531" xlink:href="#DejaVuSans-74"/>
      <use x="246.728516" xlink:href="#DejaVuSans-61"/>
      <use x="308.007812" xlink:href="#DejaVuSans-20"/>
      <use x="339.794922" xlink:href="#DejaVuSans-2f"/>
      <use x="373.486328" xlink:href="#DejaVuSans-20"/>
      <use x="405.273438" xlink:href="#DejaVuSans-31"/>
      <use x="468.896484" xlink:href="#DejaVuSans-30"/>
      <use x="532.519531" xlink:href="#DejaVuSans-30"/>
      <use x="596.142578" xlink:href="#DejaVuSans-30"/>
      <use x="659.765625" xlink:href="#DejaVuSans-30"/>
      <use x="723.388672" xlink:href="#DejaVuSans-30"/>
     </g>
    </g>
   </g>
   <g id="matplotlib.axis_2">
    <g id="ytick_1">
     <g id="line2d_10">
      <defs>
       <path d="M 0 0 
L -3.5 0 
" id="m5ca54f2cc6" style="stroke:#000000;stroke-width:0.8;"/>
      </defs>
      <g>
       <use style="stroke:#000000;stroke-width:0.8;" x="90" xlink:href="#m5ca54f2cc6" y="505.486452"/>
      </g>
     </g>
     <g id="text_11">
      <!-- Seychelles -->
      <g transform="translate(29.671875 509.28567)scale(0.1 -0.1)">
       <defs>
        <path d="M 3425 4513 
L 3425 3897 
Q 3066 4069 2747 4153 
Q 2428 4238 2131 4238 
Q 1616 4238 1336 4038 
Q 1056 3838 1056 3469 
Q 1056 3159 1242 3001 
Q 1428 2844 1947 2747 
L 2328 2669 
Q 3034 2534 3370 2195 
Q 3706 1856 3706 1288 
Q 3706 609 3251 259 
Q 2797 -91 1919 -91 
Q 1588 -91 1214 -16 
Q 841 59 441 206 
L 441 856 
Q 825 641 1194 531 
Q 1563 422 1919 422 
Q 2459 422 2753 634 
Q 3047 847 3047 1241 
Q 3047 1584 2836 1778 
Q 2625 1972 2144 2069 
L 1759 2144 
Q 1053 2284 737 2584 
Q 422 2884 422 3419 
Q 422 4038 858 4394 
Q 1294 4750 2059 4750 
Q 2388 4750 2728 4690 
Q 3069 4631 3425 4513 
z
" id="DejaVuSans-53" transform="scale(0.015625)"/>
        <path d="M 3597 1894 
L 3597 1613 
L 953 1613 
Q 991 1019 1311 708 
Q 1631 397 2203 397 
Q 2534 397 2845 478 
Q 3156 559 3463 722 
L 3463 178 
Q 3153 47 2828 -22 
Q 2503 -91 2169 -91 
Q 1331 -91 842 396 
Q 353 884 353 1716 
Q 353 2575 817 3079 
Q 1281 3584 2069 3584 
Q 2775 3584 3186 3129 
Q 3597 2675 3597 1894 
z
M 3022 2063 
Q 3016 2534 2758 2815 
Q 2500 3097 2075 3097 
Q 1594 3097 1305 2825 
Q 1016 2553 972 2059 
L 3022 2063 
z
" id="DejaVuSans-65" transform="scale(0.015625)"/>
        <path d="M 2059 -325 
Q 1816 -950 1584 -1140 
Q 1353 -1331 966 -1331 
L 506 -1331 
L 506 -850 
L 844 -850 
Q 1081 -850 1212 -737 
Q 1344 -625 1503 -206 
L 1606 56 
L 191 3500 
L 800 3500 
L 1894 763 
L 2988 3500 
L 3597 3500 
L 2059 -325 
z
" id="DejaVuSans-79" transform="scale(0.015625)"/>
        <path d="M 3513 2113 
L 3513 0 
L 2938 0 
L 2938 2094 
Q 2938 2591 2744 2837 
Q 2550 3084 2163 3084 
Q 1697 3084 1428 2787 
Q 1159 2491 1159 1978 
L 1159 0 
L 581 0 
L 581 4863 
L 1159 4863 
L 1159 2956 
Q 1366 3272 1645 3428 
Q 1925 3584 2291 3584 
Q 2894 3584 3203 3211 
Q 3513 2838 3513 2113 
z
" id="DejaVuSans-68" transform="scale(0.015625)"/>
        <path d="M 603 4863 
L 1178 4863 
L 1178 0 
L 603 0 
L 603 4863 
z
" id="DejaVuSans-6c" transform="scale(0.015625)"/>
        <path d="M 2834 3397 
L 2834 2853 
Q 2591 2978 2328 3040 
Q 2066 3103 1784 3103 
Q 1356 3103 1142 2972 
Q 928 2841 928 2578 
Q 928 2378 1081 2264 
Q 1234 2150 1697 2047 
L 1894 2003 
Q 2506 1872 2764 1633 
Q 3022 1394 3022 966 
Q 3022 478 2636 193 
Q 2250 -91 1575 -91 
Q 1294 -91 989 -36 
Q 684 19 347 128 
L 347 722 
Q 666 556 975 473 
Q 1284 391 1588 391 
Q 1994 391 2212 530 
Q 2431 669 2431 922 
Q 2431 1156 2273 1281 
Q 2116 1406 1581 1522 
L 1381 1569 
Q 847 1681 609 1914 
Q 372 2147 372 2553 
Q 372 3047 722 3315 
Q 1072 3584 1716 3584 
Q 2034 3584 2315 3537 
Q 2597 3491 2834 3397 
z
" id="DejaVuSans-73" transform="scale(0.015625)"/>
       </defs>
       <use xlink:href="#DejaVuSans-53"/>
       <use x="63.476562" xlink:href="#DejaVuSans-65"/>
       <use x="125" xlink:href="#DejaVuSans-79"/>
       <use x="184.179688" xlink:href="#DejaVuSans-63"/>
       <use x="239.160156" xlink:href="#DejaVuSans-68"/>
       <use x="302.539062" xlink:href="#DejaVuSans-65"/>
       <use x="364.0625" xlink:href="#DejaVuSans-6c"/>
       <use x="391.845703" xlink:href="#DejaVuSans-6c"/>
       <use x="419.628906" xlink:href="#DejaVuSans-65"/>
       <use x="481.152344" xlink:href="#DejaVuSans-73"/>
      </g>
     </g>
    </g>
    <g id="ytick_2">
     <g id="line2d_11">
      <g>
       <use style="stroke:#000000;stroke-width:0.8;" x="90" xlink:href="#m5ca54f2cc6" y="491.179355"/>
      </g>
     </g>
     <g id="text_12">
      <!-- Montenegro -->
      <g transform="translate(22.998437 494.978574)scale(0.1 -0.1)">
       <defs>
        <path d="M 628 4666 
L 1569 4666 
L 2759 1491 
L 3956 4666 
L 4897 4666 
L 4897 0 
L 4281 0 
L 4281 4097 
L 3078 897 
L 2444 897 
L 1241 4097 
L 1241 0 
L 628 0 
L 628 4666 
z
" id="DejaVuSans-4d" transform="scale(0.015625)"/>
        <path d="M 1959 3097 
Q 1497 3097 1228 2736 
Q 959 2375 959 1747 
Q 959 1119 1226 758 
Q 1494 397 1959 397 
Q 2419 397 2687 759 
Q 2956 1122 2956 1747 
Q 2956 2369 2687 2733 
Q 2419 3097 1959 3097 
z
M 1959 3584 
Q 2709 3584 3137 3096 
Q 3566 2609 3566 1747 
Q 3566 888 3137 398 
Q 2709 -91 1959 -91 
Q 1206 -91 779 398 
Q 353 888 353 1747 
Q 353 2609 779 3096 
Q 1206 3584 1959 3584 
z
" id="DejaVuSans-6f" transform="scale(0.015625)"/>
        <path d="M 3513 2113 
L 3513 0 
L 2938 0 
L 2938 2094 
Q 2938 2591 2744 2837 
Q 2550 3084 2163 3084 
Q 1697 3084 1428 2787 
Q 1159 2491 1159 1978 
L 1159 0 
L 581 0 
L 581 3500 
L 1159 3500 
L 1159 2956 
Q 1366 3272 1645 3428 
Q 1925 3584 2291 3584 
Q 2894 3584 3203 3211 
Q 3513 2838 3513 2113 
z
" id="DejaVuSans-6e" transform="scale(0.015625)"/>
        <path d="M 2906 1791 
Q 2906 2416 2648 2759 
Q 2391 3103 1925 3103 
Q 1463 3103 1205 2759 
Q 947 2416 947 1791 
Q 947 1169 1205 825 
Q 1463 481 1925 481 
Q 2391 481 2648 825 
Q 2906 1169 2906 1791 
z
M 3481 434 
Q 3481 -459 3084 -895 
Q 2688 -1331 1869 -1331 
Q 1566 -1331 1297 -1286 
Q 1028 -1241 775 -1147 
L 775 -588 
Q 1028 -725 1275 -790 
Q 1522 -856 1778 -856 
Q 2344 -856 2625 -561 
Q 2906 -266 2906 331 
L 2906 616 
Q 2728 306 2450 153 
Q 2172 0 1784 0 
Q 1141 0 747 490 
Q 353 981 353 1791 
Q 353 2603 747 3093 
Q 1141 3584 1784 3584 
Q 2172 3584 2450 3431 
Q 2728 3278 2906 2969 
L 2906 3500 
L 3481 3500 
L 3481 434 
z
" id="DejaVuSans-67" transform="scale(0.015625)"/>
        <path d="M 2631 2963 
Q 2534 3019 2420 3045 
Q 2306 3072 2169 3072 
Q 1681 3072 1420 2755 
Q 1159 2438 1159 1844 
L 1159 0 
L 581 0 
L 581 3500 
L 1159 3500 
L 1159 2956 
Q 1341 3275 1631 3429 
Q 1922 3584 2338 3584 
Q 2397 3584 2469 3576 
Q 2541 3569 2628 3553 
L 2631 2963 
z
" id="DejaVuSans-72" transform="scale(0.015625)"/>
       </defs>
       <use xlink:href="#DejaVuSans-4d"/>
       <use x="86.279297" xlink:href="#DejaVuSans-6f"/>
       <use x="147.460938" xlink:href="#DejaVuSans-6e"/>
       <use x="210.839844" xlink:href="#DejaVuSans-74"/>
       <use x="250.048828" xlink:href="#DejaVuSans-65"/>
       <use x="311.572266" xlink:href="#DejaVuSans-6e"/>
       <use x="374.951172" xlink:href="#DejaVuSans-65"/>
       <use x="436.474609" xlink:href="#DejaVuSans-67"/>
       <use x="499.951172" xlink:href="#DejaVuSans-72"/>
       <use x="538.814453" xlink:href="#DejaVuSans-6f"/>
      </g>
     </g>
    </g>
    <g id="ytick_3">
     <g id="line2d_12">
      <g>
       <use style="stroke:#000000;stroke-width:0.8;" x="90" xlink:href="#m5ca54f2cc6" y="476.872258"/>
      </g>
     </g>
     <g id="text_13">
      <!-- Bahrain -->
      <g transform="translate(44.31875 480.671477)scale(0.1 -0.1)">
       <defs>
        <path d="M 1259 2228 
L 1259 519 
L 2272 519 
Q 2781 519 3026 730 
Q 3272 941 3272 1375 
Q 3272 1813 3026 2020 
Q 2781 2228 2272 2228 
L 1259 2228 
z
M 1259 4147 
L 1259 2741 
L 2194 2741 
Q 2656 2741 2882 2914 
Q 3109 3088 3109 3444 
Q 3109 3797 2882 3972 
Q 2656 4147 2194 4147 
L 1259 4147 
z
M 628 4666 
L 2241 4666 
Q 2963 4666 3353 4366 
Q 3744 4066 3744 3513 
Q 3744 3084 3544 2831 
Q 3344 2578 2956 2516 
Q 3422 2416 3680 2098 
Q 3938 1781 3938 1306 
Q 3938 681 3513 340 
Q 3088 0 2303 0 
L 628 0 
L 628 4666 
z
" id="DejaVuSans-42" transform="scale(0.015625)"/>
       </defs>
       <use xlink:href="#DejaVuSans-42"/>
       <use x="68.603516" xlink:href="#DejaVuSans-61"/>
       <use x="129.882812" xlink:href="#DejaVuSans-68"/>
       <use x="193.261719" xlink:href="#DejaVuSans-72"/>
       <use x="234.375" xlink:href="#DejaVuSans-61"/>
       <use x="295.654297" xlink:href="#DejaVuSans-69"/>
       <use x="323.4375" xlink:href="#DejaVuSans-6e"/>
      </g>
     </g>
    </g>
    <g id="ytick_4">
     <g id="line2d_13">
      <g>
       <use style="stroke:#000000;stroke-width:0.8;" x="90" xlink:href="#m5ca54f2cc6" y="462.565161"/>
      </g>
     </g>
     <g id="text_14">
      <!-- Maldives -->
      <g transform="translate(39.057812 466.36438)scale(0.1 -0.1)">
       <defs>
        <path d="M 2906 2969 
L 2906 4863 
L 3481 4863 
L 3481 0 
L 2906 0 
L 2906 525 
Q 2725 213 2448 61 
Q 2172 -91 1784 -91 
Q 1150 -91 751 415 
Q 353 922 353 1747 
Q 353 2572 751 3078 
Q 1150 3584 1784 3584 
Q 2172 3584 2448 3432 
Q 2725 3281 2906 2969 
z
M 947 1747 
Q 947 1113 1208 752 
Q 1469 391 1925 391 
Q 2381 391 2643 752 
Q 2906 1113 2906 1747 
Q 2906 2381 2643 2742 
Q 2381 3103 1925 3103 
Q 1469 3103 1208 2742 
Q 947 2381 947 1747 
z
" id="DejaVuSans-64" transform="scale(0.015625)"/>
        <path d="M 191 3500 
L 800 3500 
L 1894 563 
L 2988 3500 
L 3597 3500 
L 2284 0 
L 1503 0 
L 191 3500 
z
" id="DejaVuSans-76" transform="scale(0.015625)"/>
       </defs>
       <use xlink:href="#DejaVuSans-4d"/>
       <use x="86.279297" xlink:href="#DejaVuSans-61"/>
       <use x="147.558594" xlink:href="#DejaVuSans-6c"/>
       <use x="175.341797" xlink:href="#DejaVuSans-64"/>
       <use x="238.818359" xlink:href="#DejaVuSans-69"/>
       <use x="266.601562" xlink:href="#DejaVuSans-76"/>
       <use x="325.78125" xlink:href="#DejaVuSans-65"/>
       <use x="387.304688" xlink:href="#DejaVuSans-73"/>
      </g>
     </g>
    </g>
    <g id="ytick_5">
     <g id="line2d_14">
      <g>
       <use style="stroke:#000000;stroke-width:0.8;" x="90" xlink:href="#m5ca54f2cc6" y="448.258065"/>
      </g>
     </g>
     <g id="text_15">
      <!-- San Marino -->
      <g transform="translate(26.90625 452.057283)scale(0.1 -0.1)">
       <use xlink:href="#DejaVuSans-53"/>
       <use x="63.476562" xlink:href="#DejaVuSans-61"/>
       <use x="124.755859" xlink:href="#DejaVuSans-6e"/>
       <use x="188.134766" xlink:href="#DejaVuSans-20"/>
       <use x="219.921875" xlink:href="#DejaVuSans-4d"/>
       <use x="306.201172" xlink:href="#DejaVuSans-61"/>
       <use x="367.480469" xlink:href="#DejaVuSans-72"/>
       <use x="408.59375" xlink:href="#DejaVuSans-69"/>
       <use x="436.376953" xlink:href="#DejaVuSans-6e"/>
       <use x="499.755859" xlink:href="#DejaVuSans-6f"/>
      </g>
     </g>
    </g>
    <g id="ytick_6">
     <g id="line2d_15">
      <g>
       <use style="stroke:#000000;stroke-width:0.8;" x="90" xlink:href="#m5ca54f2cc6" y="433.950968"/>
      </g>
     </g>
     <g id="text_16">
      <!-- Czechia -->
      <g transform="translate(43.873437 437.750186)scale(0.1 -0.1)">
       <defs>
        <path d="M 4122 4306 
L 4122 3641 
Q 3803 3938 3442 4084 
Q 3081 4231 2675 4231 
Q 1875 4231 1450 3742 
Q 1025 3253 1025 2328 
Q 1025 1406 1450 917 
Q 1875 428 2675 428 
Q 3081 428 3442 575 
Q 3803 722 4122 1019 
L 4122 359 
Q 3791 134 3420 21 
Q 3050 -91 2638 -91 
Q 1578 -91 968 557 
Q 359 1206 359 2328 
Q 359 3453 968 4101 
Q 1578 4750 2638 4750 
Q 3056 4750 3426 4639 
Q 3797 4528 4122 4306 
z
" id="DejaVuSans-43" transform="scale(0.015625)"/>
        <path d="M 353 3500 
L 3084 3500 
L 3084 2975 
L 922 459 
L 3084 459 
L 3084 0 
L 275 0 
L 275 525 
L 2438 3041 
L 353 3041 
L 353 3500 
z
" id="DejaVuSans-7a" transform="scale(0.015625)"/>
       </defs>
       <use xlink:href="#DejaVuSans-43"/>
       <use x="69.824219" xlink:href="#DejaVuSans-7a"/>
       <use x="122.314453" xlink:href="#DejaVuSans-65"/>
       <use x="183.837891" xlink:href="#DejaVuSans-63"/>
       <use x="238.818359" xlink:href="#DejaVuSans-68"/>
       <use x="302.197266" xlink:href="#DejaVuSans-69"/>
       <use x="329.980469" xlink:href="#DejaVuSans-61"/>
      </g>
     </g>
    </g>
    <g id="ytick_7">
     <g id="line2d_16">
      <g>
       <use style="stroke:#000000;stroke-width:0.8;" x="90" xlink:href="#m5ca54f2cc6" y="419.643871"/>
      </g>
     </g>
     <g id="text_17">
      <!-- Georgia -->
      <g transform="translate(43.789062 423.44309)scale(0.1 -0.1)">
       <defs>
        <path d="M 3809 666 
L 3809 1919 
L 2778 1919 
L 2778 2438 
L 4434 2438 
L 4434 434 
Q 4069 175 3628 42 
Q 3188 -91 2688 -91 
Q 1594 -91 976 548 
Q 359 1188 359 2328 
Q 359 3472 976 4111 
Q 1594 4750 2688 4750 
Q 3144 4750 3555 4637 
Q 3966 4525 4313 4306 
L 4313 3634 
Q 3963 3931 3569 4081 
Q 3175 4231 2741 4231 
Q 1884 4231 1454 3753 
Q 1025 3275 1025 2328 
Q 1025 1384 1454 906 
Q 1884 428 2741 428 
Q 3075 428 3337 486 
Q 3600 544 3809 666 
z
" id="DejaVuSans-47" transform="scale(0.015625)"/>
       </defs>
       <use xlink:href="#DejaVuSans-47"/>
       <use x="77.490234" xlink:href="#DejaVuSans-65"/>
       <use x="139.013672" xlink:href="#DejaVuSans-6f"/>
       <use x="200.195312" xlink:href="#DejaVuSans-72"/>
       <use x="239.558594" xlink:href="#DejaVuSans-67"/>
       <use x="303.035156" xlink:href="#DejaVuSans-69"/>
       <use x="330.818359" xlink:href="#DejaVuSans-61"/>
      </g>
     </g>
    </g>
    <g id="ytick_8">
     <g id="line2d_17">
      <g>
       <use style="stroke:#000000;stroke-width:0.8;" x="90" xlink:href="#m5ca54f2cc6" y="405.336774"/>
      </g>
     </g>
     <g id="text_18">
      <!-- Slovenia -->
      <g transform="translate(40.439062 409.135993)scale(0.1 -0.1)">
       <use xlink:href="#DejaVuSans-53"/>
       <use x="63.476562" xlink:href="#DejaVuSans-6c"/>
       <use x="91.259766" xlink:href="#DejaVuSans-6f"/>
       <use x="152.441406" xlink:href="#DejaVuSans-76"/>
       <use x="211.621094" xlink:href="#DejaVuSans-65"/>
       <use x="273.144531" xlink:href="#DejaVuSans-6e"/>
       <use x="336.523438" xlink:href="#DejaVuSans-69"/>
       <use x="364.306641" xlink:href="#DejaVuSans-61"/>
      </g>
     </g>
    </g>
    <g id="ytick_9">
     <g id="line2d_18">
      <g>
       <use style="stroke:#000000;stroke-width:0.8;" x="90" xlink:href="#m5ca54f2cc6" y="391.029677"/>
      </g>
     </g>
     <g id="text_19">
      <!-- Israel -->
      <g transform="translate(55.670312 394.828896)scale(0.1 -0.1)">
       <defs>
        <path d="M 628 4666 
L 1259 4666 
L 1259 0 
L 628 0 
L 628 4666 
z
" id="DejaVuSans-49" transform="scale(0.015625)"/>
       </defs>
       <use xlink:href="#DejaVuSans-49"/>
       <use x="29.492188" xlink:href="#DejaVuSans-73"/>
       <use x="81.591797" xlink:href="#DejaVuSans-72"/>
       <use x="122.705078" xlink:href="#DejaVuSans-61"/>
       <use x="183.984375" xlink:href="#DejaVuSans-65"/>
       <use x="245.507812" xlink:href="#DejaVuSans-6c"/>
      </g>
     </g>
    </g>
    <g id="ytick_10">
     <g id="line2d_19">
      <g>
       <use style="stroke:#000000;stroke-width:0.8;" x="90" xlink:href="#m5ca54f2cc6" y="376.722581"/>
      </g>
     </g>
     <g id="text_20">
      <!-- Luxembourg -->
      <g transform="translate(20.676562 380.521799)scale(0.1 -0.1)">
       <defs>
        <path d="M 628 4666 
L 1259 4666 
L 1259 531 
L 3531 531 
L 3531 0 
L 628 0 
L 628 4666 
z
" id="DejaVuSans-4c" transform="scale(0.015625)"/>
        <path d="M 544 1381 
L 544 3500 
L 1119 3500 
L 1119 1403 
Q 1119 906 1312 657 
Q 1506 409 1894 409 
Q 2359 409 2629 706 
Q 2900 1003 2900 1516 
L 2900 3500 
L 3475 3500 
L 3475 0 
L 2900 0 
L 2900 538 
Q 2691 219 2414 64 
Q 2138 -91 1772 -91 
Q 1169 -91 856 284 
Q 544 659 544 1381 
z
M 1991 3584 
L 1991 3584 
z
" id="DejaVuSans-75" transform="scale(0.015625)"/>
        <path d="M 3513 3500 
L 2247 1797 
L 3578 0 
L 2900 0 
L 1881 1375 
L 863 0 
L 184 0 
L 1544 1831 
L 300 3500 
L 978 3500 
L 1906 2253 
L 2834 3500 
L 3513 3500 
z
" id="DejaVuSans-78" transform="scale(0.015625)"/>
        <path d="M 3328 2828 
Q 3544 3216 3844 3400 
Q 4144 3584 4550 3584 
Q 5097 3584 5394 3201 
Q 5691 2819 5691 2113 
L 5691 0 
L 5113 0 
L 5113 2094 
Q 5113 2597 4934 2840 
Q 4756 3084 4391 3084 
Q 3944 3084 3684 2787 
Q 3425 2491 3425 1978 
L 3425 0 
L 2847 0 
L 2847 2094 
Q 2847 2600 2669 2842 
Q 2491 3084 2119 3084 
Q 1678 3084 1418 2786 
Q 1159 2488 1159 1978 
L 1159 0 
L 581 0 
L 581 3500 
L 1159 3500 
L 1159 2956 
Q 1356 3278 1631 3431 
Q 1906 3584 2284 3584 
Q 2666 3584 2933 3390 
Q 3200 3197 3328 2828 
z
" id="DejaVuSans-6d" transform="scale(0.015625)"/>
        <path d="M 3116 1747 
Q 3116 2381 2855 2742 
Q 2594 3103 2138 3103 
Q 1681 3103 1420 2742 
Q 1159 2381 1159 1747 
Q 1159 1113 1420 752 
Q 1681 391 2138 391 
Q 2594 391 2855 752 
Q 3116 1113 3116 1747 
z
M 1159 2969 
Q 1341 3281 1617 3432 
Q 1894 3584 2278 3584 
Q 2916 3584 3314 3078 
Q 3713 2572 3713 1747 
Q 3713 922 3314 415 
Q 2916 -91 2278 -91 
Q 1894 -91 1617 61 
Q 1341 213 1159 525 
L 1159 0 
L 581 0 
L 581 4863 
L 1159 4863 
L 1159 2969 
z
" id="DejaVuSans-62" transform="scale(0.015625)"/>
       </defs>
       <use xlink:href="#DejaVuSans-4c"/>
       <use x="53.962891" xlink:href="#DejaVuSans-75"/>
       <use x="117.341797" xlink:href="#DejaVuSans-78"/>
       <use x="173.396484" xlink:href="#DejaVuSans-65"/>
       <use x="234.919922" xlink:href="#DejaVuSans-6d"/>
       <use x="332.332031" xlink:href="#DejaVuSans-62"/>
       <use x="395.808594" xlink:href="#DejaVuSans-6f"/>
       <use x="456.990234" xlink:href="#DejaVuSans-75"/>
       <use x="520.369141" xlink:href="#DejaVuSans-72"/>
       <use x="559.732422" xlink:href="#DejaVuSans-67"/>
      </g>
     </g>
    </g>
    <g id="ytick_11">
     <g id="line2d_20">
      <g>
       <use style="stroke:#000000;stroke-width:0.8;" x="90" xlink:href="#m5ca54f2cc6" y="362.415484"/>
      </g>
     </g>
     <g id="text_21">
      <!-- US -->
      <g transform="translate(69.332813 366.214703)scale(0.1 -0.1)">
       <defs>
        <path d="M 556 4666 
L 1191 4666 
L 1191 1831 
Q 1191 1081 1462 751 
Q 1734 422 2344 422 
Q 2950 422 3222 751 
Q 3494 1081 3494 1831 
L 3494 4666 
L 4128 4666 
L 4128 1753 
Q 4128 841 3676 375 
Q 3225 -91 2344 -91 
Q 1459 -91 1007 375 
Q 556 841 556 1753 
L 556 4666 
z
" id="DejaVuSans-55" transform="scale(0.015625)"/>
       </defs>
       <use xlink:href="#DejaVuSans-55"/>
       <use x="73.193359" xlink:href="#DejaVuSans-53"/>
      </g>
     </g>
    </g>
    <g id="ytick_12">
     <g id="line2d_21">
      <g>
       <use style="stroke:#000000;stroke-width:0.8;" x="90" xlink:href="#m5ca54f2cc6" y="348.108387"/>
      </g>
     </g>
     <g id="text_22">
      <!-- Argentina -->
      <g transform="translate(34.220312 351.907606)scale(0.1 -0.1)">
       <defs>
        <path d="M 2188 4044 
L 1331 1722 
L 3047 1722 
L 2188 4044 
z
M 1831 4666 
L 2547 4666 
L 4325 0 
L 3669 0 
L 3244 1197 
L 1141 1197 
L 716 0 
L 50 0 
L 1831 4666 
z
" id="DejaVuSans-41" transform="scale(0.015625)"/>
       </defs>
       <use xlink:href="#DejaVuSans-41"/>
       <use x="68.408203" xlink:href="#DejaVuSans-72"/>
       <use x="107.771484" xlink:href="#DejaVuSans-67"/>
       <use x="171.248047" xlink:href="#DejaVuSans-65"/>
       <use x="232.771484" xlink:href="#DejaVuSans-6e"/>
       <use x="296.150391" xlink:href="#DejaVuSans-74"/>
       <use x="335.359375" xlink:href="#DejaVuSans-69"/>
       <use x="363.142578" xlink:href="#DejaVuSans-6e"/>
       <use x="426.521484" xlink:href="#DejaVuSans-61"/>
      </g>
     </g>
    </g>
    <g id="ytick_13">
     <g id="line2d_22">
      <g>
       <use style="stroke:#000000;stroke-width:0.8;" x="90" xlink:href="#m5ca54f2cc6" y="333.80129"/>
      </g>
     </g>
     <g id="text_23">
      <!-- Netherlands -->
      <g transform="translate(22.042187 337.600509)scale(0.1 -0.1)">
       <defs>
        <path d="M 628 4666 
L 1478 4666 
L 3547 763 
L 3547 4666 
L 4159 4666 
L 4159 0 
L 3309 0 
L 1241 3903 
L 1241 0 
L 628 0 
L 628 4666 
z
" id="DejaVuSans-4e" transform="scale(0.015625)"/>
       </defs>
       <use xlink:href="#DejaVuSans-4e"/>
       <use x="74.804688" xlink:href="#DejaVuSans-65"/>
       <use x="136.328125" xlink:href="#DejaVuSans-74"/>
       <use x="175.537109" xlink:href="#DejaVuSans-68"/>
       <use x="238.916016" xlink:href="#DejaVuSans-65"/>
       <use x="300.439453" xlink:href="#DejaVuSans-72"/>
       <use x="341.552734" xlink:href="#DejaVuSans-6c"/>
       <use x="369.335938" xlink:href="#DejaVuSans-61"/>
       <use x="430.615234" xlink:href="#DejaVuSans-6e"/>
       <use x="493.994141" xlink:href="#DejaVuSans-64"/>
       <use x="557.470703" xlink:href="#DejaVuSans-73"/>
      </g>
     </g>
    </g>
    <g id="ytick_14">
     <g id="line2d_23">
      <g>
       <use style="stroke:#000000;stroke-width:0.8;" x="90" xlink:href="#m5ca54f2cc6" y="319.494194"/>
      </g>
     </g>
     <g id="text_24">
      <!-- Serbia -->
      <g transform="translate(51.132812 323.293412)scale(0.1 -0.1)">
       <use xlink:href="#DejaVuSans-53"/>
       <use x="63.476562" xlink:href="#DejaVuSans-65"/>
       <use x="125" xlink:href="#DejaVuSans-72"/>
       <use x="166.113281" xlink:href="#DejaVuSans-62"/>
       <use x="229.589844" xlink:href="#DejaVuSans-69"/>
       <use x="257.373047" xlink:href="#DejaVuSans-61"/>
      </g>
     </g>
    </g>
    <g id="ytick_15">
     <g id="line2d_24">
      <g>
       <use style="stroke:#000000;stroke-width:0.8;" x="90" xlink:href="#m5ca54f2cc6" y="305.187097"/>
      </g>
     </g>
     <g id="text_25">
      <!-- Uruguay -->
      <g transform="translate(40.5 308.986316)scale(0.1 -0.1)">
       <use xlink:href="#DejaVuSans-55"/>
       <use x="73.193359" xlink:href="#DejaVuSans-72"/>
       <use x="114.306641" xlink:href="#DejaVuSans-75"/>
       <use x="177.685547" xlink:href="#DejaVuSans-67"/>
       <use x="241.162109" xlink:href="#DejaVuSans-75"/>
       <use x="304.541016" xlink:href="#DejaVuSans-61"/>
       <use x="365.820312" xlink:href="#DejaVuSans-79"/>
      </g>
     </g>
    </g>
    <g id="ytick_16">
     <g id="line2d_25">
      <g>
       <use style="stroke:#000000;stroke-width:0.8;" x="90" xlink:href="#m5ca54f2cc6" y="290.88"/>
      </g>
     </g>
     <g id="text_26">
      <!-- Sweden -->
      <g transform="translate(43.48125 294.679219)scale(0.1 -0.1)">
       <defs>
        <path d="M 269 3500 
L 844 3500 
L 1563 769 
L 2278 3500 
L 2956 3500 
L 3675 769 
L 4391 3500 
L 4966 3500 
L 4050 0 
L 3372 0 
L 2619 2869 
L 1863 0 
L 1184 0 
L 269 3500 
z
" id="DejaVuSans-77" transform="scale(0.015625)"/>
       </defs>
       <use xlink:href="#DejaVuSans-53"/>
       <use x="63.476562" xlink:href="#DejaVuSans-77"/>
       <use x="145.263672" xlink:href="#DejaVuSans-65"/>
       <use x="206.787109" xlink:href="#DejaVuSans-64"/>
       <use x="270.263672" xlink:href="#DejaVuSans-65"/>
       <use x="331.787109" xlink:href="#DejaVuSans-6e"/>
      </g>
     </g>
    </g>
    <g id="ytick_17">
     <g id="line2d_26">
      <g>
       <use style="stroke:#000000;stroke-width:0.8;" x="90" xlink:href="#m5ca54f2cc6" y="276.572903"/>
      </g>
     </g>
     <g id="text_27">
      <!-- Panama -->
      <g transform="translate(42.957812 280.372122)scale(0.1 -0.1)">
       <defs>
        <path d="M 1259 4147 
L 1259 2394 
L 2053 2394 
Q 2494 2394 2734 2622 
Q 2975 2850 2975 3272 
Q 2975 3691 2734 3919 
Q 2494 4147 2053 4147 
L 1259 4147 
z
M 628 4666 
L 2053 4666 
Q 2838 4666 3239 4311 
Q 3641 3956 3641 3272 
Q 3641 2581 3239 2228 
Q 2838 1875 2053 1875 
L 1259 1875 
L 1259 0 
L 628 0 
L 628 4666 
z
" id="DejaVuSans-50" transform="scale(0.015625)"/>
       </defs>
       <use xlink:href="#DejaVuSans-50"/>
       <use x="55.802734" xlink:href="#DejaVuSans-61"/>
       <use x="117.082031" xlink:href="#DejaVuSans-6e"/>
       <use x="180.460938" xlink:href="#DejaVuSans-61"/>
       <use x="241.740234" xlink:href="#DejaVuSans-6d"/>
       <use x="339.152344" xlink:href="#DejaVuSans-61"/>
      </g>
     </g>
    </g>
    <g id="ytick_18">
     <g id="line2d_27">
      <g>
       <use style="stroke:#000000;stroke-width:0.8;" x="90" xlink:href="#m5ca54f2cc6" y="262.265806"/>
      </g>
     </g>
     <g id="text_28">
      <!-- Estonia -->
      <g transform="translate(46.189062 266.065025)scale(0.1 -0.1)">
       <defs>
        <path d="M 628 4666 
L 3578 4666 
L 3578 4134 
L 1259 4134 
L 1259 2753 
L 3481 2753 
L 3481 2222 
L 1259 2222 
L 1259 531 
L 3634 531 
L 3634 0 
L 628 0 
L 628 4666 
z
" id="DejaVuSans-45" transform="scale(0.015625)"/>
       </defs>
       <use xlink:href="#DejaVuSans-45"/>
       <use x="63.183594" xlink:href="#DejaVuSans-73"/>
       <use x="115.283203" xlink:href="#DejaVuSans-74"/>
       <use x="154.492188" xlink:href="#DejaVuSans-6f"/>
       <use x="215.673828" xlink:href="#DejaVuSans-6e"/>
       <use x="279.052734" xlink:href="#DejaVuSans-69"/>
       <use x="306.835938" xlink:href="#DejaVuSans-61"/>
      </g>
     </g>
    </g>
    <g id="ytick_19">
     <g id="line2d_28">
      <g>
       <use style="stroke:#000000;stroke-width:0.8;" x="90" xlink:href="#m5ca54f2cc6" y="247.95871"/>
      </g>
     </g>
     <g id="text_29">
      <!-- Lithuania -->
      <g transform="translate(36.682812 251.757928)scale(0.1 -0.1)">
       <use xlink:href="#DejaVuSans-4c"/>
       <use x="55.712891" xlink:href="#DejaVuSans-69"/>
       <use x="83.496094" xlink:href="#DejaVuSans-74"/>
       <use x="122.705078" xlink:href="#DejaVuSans-68"/>
       <use x="186.083984" xlink:href="#DejaVuSans-75"/>
       <use x="249.462891" xlink:href="#DejaVuSans-61"/>
       <use x="310.742188" xlink:href="#DejaVuSans-6e"/>
       <use x="374.121094" xlink:href="#DejaVuSans-69"/>
       <use x="401.904297" xlink:href="#DejaVuSans-61"/>
      </g>
     </g>
    </g>
    <g id="ytick_20">
     <g id="line2d_29">
      <g>
       <use style="stroke:#000000;stroke-width:0.8;" x="90" xlink:href="#m5ca54f2cc6" y="233.651613"/>
      </g>
     </g>
     <g id="text_30">
      <!-- United Kingdom -->
      <g transform="translate(2.735937 237.450832)scale(0.1 -0.1)">
       <defs>
        <path d="M 628 4666 
L 1259 4666 
L 1259 2694 
L 3353 4666 
L 4166 4666 
L 1850 2491 
L 4331 0 
L 3500 0 
L 1259 2247 
L 1259 0 
L 628 0 
L 628 4666 
z
" id="DejaVuSans-4b" transform="scale(0.015625)"/>
       </defs>
       <use xlink:href="#DejaVuSans-55"/>
       <use x="73.193359" xlink:href="#DejaVuSans-6e"/>
       <use x="136.572266" xlink:href="#DejaVuSans-69"/>
       <use x="164.355469" xlink:href="#DejaVuSans-74"/>
       <use x="203.564453" xlink:href="#DejaVuSans-65"/>
       <use x="265.087891" xlink:href="#DejaVuSans-64"/>
       <use x="328.564453" xlink:href="#DejaVuSans-20"/>
       <use x="360.351562" xlink:href="#DejaVuSans-4b"/>
       <use x="425.927734" xlink:href="#DejaVuSans-69"/>
       <use x="453.710938" xlink:href="#DejaVuSans-6e"/>
       <use x="517.089844" xlink:href="#DejaVuSans-67"/>
       <use x="580.566406" xlink:href="#DejaVuSans-64"/>
       <use x="644.042969" xlink:href="#DejaVuSans-6f"/>
       <use x="705.224609" xlink:href="#DejaVuSans-6d"/>
      </g>
     </g>
    </g>
    <g id="ytick_21">
     <g id="line2d_30">
      <g>
       <use style="stroke:#000000;stroke-width:0.8;" x="90" xlink:href="#m5ca54f2cc6" y="219.344516"/>
      </g>
     </g>
     <g id="text_31">
      <!-- Belgium -->
      <g transform="translate(42.003125 223.143735)scale(0.1 -0.1)">
       <use xlink:href="#DejaVuSans-42"/>
       <use x="68.603516" xlink:href="#DejaVuSans-65"/>
       <use x="130.126953" xlink:href="#DejaVuSans-6c"/>
       <use x="157.910156" xlink:href="#DejaVuSans-67"/>
       <use x="221.386719" xlink:href="#DejaVuSans-69"/>
       <use x="249.169922" xlink:href="#DejaVuSans-75"/>
       <use x="312.548828" xlink:href="#DejaVuSans-6d"/>
      </g>
     </g>
    </g>
    <g id="ytick_22">
     <g id="line2d_31">
      <g>
       <use style="stroke:#000000;stroke-width:0.8;" x="90" xlink:href="#m5ca54f2cc6" y="205.037419"/>
      </g>
     </g>
     <g id="text_32">
      <!-- Spain -->
      <g transform="translate(55.059375 208.836638)scale(0.1 -0.1)">
       <use xlink:href="#DejaVuSans-53"/>
       <use x="63.476562" xlink:href="#DejaVuSans-70"/>
       <use x="126.953125" xlink:href="#DejaVuSans-61"/>
       <use x="188.232422" xlink:href="#DejaVuSans-69"/>
       <use x="216.015625" xlink:href="#DejaVuSans-6e"/>
      </g>
     </g>
    </g>
    <g id="ytick_23">
     <g id="line2d_32">
      <g>
       <use style="stroke:#000000;stroke-width:0.8;" x="90" xlink:href="#m5ca54f2cc6" y="190.730323"/>
      </g>
     </g>
     <g id="text_33">
      <!-- France -->
      <g transform="translate(49.745312 194.529541)scale(0.1 -0.1)">
       <defs>
        <path d="M 628 4666 
L 3309 4666 
L 3309 4134 
L 1259 4134 
L 1259 2759 
L 3109 2759 
L 3109 2228 
L 1259 2228 
L 1259 0 
L 628 0 
L 628 4666 
z
" id="DejaVuSans-46" transform="scale(0.015625)"/>
       </defs>
       <use xlink:href="#DejaVuSans-46"/>
       <use x="50.269531" xlink:href="#DejaVuSans-72"/>
       <use x="91.382812" xlink:href="#DejaVuSans-61"/>
       <use x="152.662109" xlink:href="#DejaVuSans-6e"/>
       <use x="216.041016" xlink:href="#DejaVuSans-63"/>
       <use x="271.021484" xlink:href="#DejaVuSans-65"/>
      </g>
     </g>
    </g>
    <g id="ytick_24">
     <g id="line2d_33">
      <g>
       <use style="stroke:#000000;stroke-width:0.8;" x="90" xlink:href="#m5ca54f2cc6" y="176.423226"/>
      </g>
     </g>
     <g id="text_34">
      <!-- Portugal -->
      <g transform="translate(41.590625 180.222445)scale(0.1 -0.1)">
       <use xlink:href="#DejaVuSans-50"/>
       <use x="56.677734" xlink:href="#DejaVuSans-6f"/>
       <use x="117.859375" xlink:href="#DejaVuSans-72"/>
       <use x="158.972656" xlink:href="#DejaVuSans-74"/>
       <use x="198.181641" xlink:href="#DejaVuSans-75"/>
       <use x="261.560547" xlink:href="#DejaVuSans-67"/>
       <use x="325.037109" xlink:href="#DejaVuSans-61"/>
       <use x="386.316406" xlink:href="#DejaVuSans-6c"/>
      </g>
     </g>
    </g>
    <g id="ytick_25">
     <g id="line2d_34">
      <g>
       <use style="stroke:#000000;stroke-width:0.8;" x="90" xlink:href="#m5ca54f2cc6" y="162.116129"/>
      </g>
     </g>
     <g id="text_35">
      <!-- Brazil -->
      <g transform="translate(55.095312 165.915348)scale(0.1 -0.1)">
       <use xlink:href="#DejaVuSans-42"/>
       <use x="68.603516" xlink:href="#DejaVuSans-72"/>
       <use x="109.716797" xlink:href="#DejaVuSans-61"/>
       <use x="170.996094" xlink:href="#DejaVuSans-7a"/>
       <use x="223.486328" xlink:href="#DejaVuSans-69"/>
       <use x="251.269531" xlink:href="#DejaVuSans-6c"/>
      </g>
     </g>
    </g>
    <g id="ytick_26">
     <g id="line2d_35">
      <g>
       <use style="stroke:#000000;stroke-width:0.8;" x="90" xlink:href="#m5ca54f2cc6" y="147.809032"/>
      </g>
     </g>
     <g id="text_36">
      <!-- Kuwait -->
      <g transform="translate(49.6 151.608251)scale(0.1 -0.1)">
       <use xlink:href="#DejaVuSans-4b"/>
       <use x="60.576172" xlink:href="#DejaVuSans-75"/>
       <use x="123.955078" xlink:href="#DejaVuSans-77"/>
       <use x="205.742188" xlink:href="#DejaVuSans-61"/>
       <use x="267.021484" xlink:href="#DejaVuSans-69"/>
       <use x="294.804688" xlink:href="#DejaVuSans-74"/>
      </g>
     </g>
    </g>
    <g id="ytick_27">
     <g id="line2d_36">
      <g>
       <use style="stroke:#000000;stroke-width:0.8;" x="90" xlink:href="#m5ca54f2cc6" y="133.501935"/>
      </g>
     </g>
     <g id="text_37">
      <!-- Colombia -->
      <g transform="translate(36.00625 137.301154)scale(0.1 -0.1)">
       <use xlink:href="#DejaVuSans-43"/>
       <use x="69.824219" xlink:href="#DejaVuSans-6f"/>
       <use x="131.005859" xlink:href="#DejaVuSans-6c"/>
       <use x="158.789062" xlink:href="#DejaVuSans-6f"/>
       <use x="219.970703" xlink:href="#DejaVuSans-6d"/>
       <use x="317.382812" xlink:href="#DejaVuSans-62"/>
       <use x="380.859375" xlink:href="#DejaVuSans-69"/>
       <use x="408.642578" xlink:href="#DejaVuSans-61"/>
      </g>
     </g>
    </g>
    <g id="ytick_28">
     <g id="line2d_37">
      <g>
       <use style="stroke:#000000;stroke-width:0.8;" x="90" xlink:href="#m5ca54f2cc6" y="119.194839"/>
      </g>
     </g>
     <g id="text_38">
      <!-- Cyprus -->
      <g transform="translate(48.092188 122.994057)scale(0.1 -0.1)">
       <use xlink:href="#DejaVuSans-43"/>
       <use x="69.824219" xlink:href="#DejaVuSans-79"/>
       <use x="129.003906" xlink:href="#DejaVuSans-70"/>
       <use x="192.480469" xlink:href="#DejaVuSans-72"/>
       <use x="233.59375" xlink:href="#DejaVuSans-75"/>
       <use x="296.972656" xlink:href="#DejaVuSans-73"/>
      </g>
     </g>
    </g>
    <g id="ytick_29">
     <g id="line2d_38">
      <g>
       <use style="stroke:#000000;stroke-width:0.8;" x="90" xlink:href="#m5ca54f2cc6" y="104.887742"/>
      </g>
     </g>
     <g id="text_39">
      <!-- Costa Rica -->
      <g transform="translate(30.109375 108.686961)scale(0.1 -0.1)">
       <defs>
        <path d="M 2841 2188 
Q 3044 2119 3236 1894 
Q 3428 1669 3622 1275 
L 4263 0 
L 3584 0 
L 2988 1197 
Q 2756 1666 2539 1819 
Q 2322 1972 1947 1972 
L 1259 1972 
L 1259 0 
L 628 0 
L 628 4666 
L 2053 4666 
Q 2853 4666 3247 4331 
Q 3641 3997 3641 3322 
Q 3641 2881 3436 2590 
Q 3231 2300 2841 2188 
z
M 1259 4147 
L 1259 2491 
L 2053 2491 
Q 2509 2491 2742 2702 
Q 2975 2913 2975 3322 
Q 2975 3731 2742 3939 
Q 2509 4147 2053 4147 
L 1259 4147 
z
" id="DejaVuSans-52" transform="scale(0.015625)"/>
       </defs>
       <use xlink:href="#DejaVuSans-43"/>
       <use x="69.824219" xlink:href="#DejaVuSans-6f"/>
       <use x="131.005859" xlink:href="#DejaVuSans-73"/>
       <use x="183.105469" xlink:href="#DejaVuSans-74"/>
       <use x="222.314453" xlink:href="#DejaVuSans-61"/>
       <use x="283.59375" xlink:href="#DejaVuSans-20"/>
       <use x="315.380859" xlink:href="#DejaVuSans-52"/>
       <use x="384.863281" xlink:href="#DejaVuSans-69"/>
       <use x="412.646484" xlink:href="#DejaVuSans-63"/>
       <use x="467.626953" xlink:href="#DejaVuSans-61"/>
      </g>
     </g>
    </g>
    <g id="ytick_30">
     <g id="line2d_39">
      <g>
       <use style="stroke:#000000;stroke-width:0.8;" x="90" xlink:href="#m5ca54f2cc6" y="90.580645"/>
      </g>
     </g>
     <g id="text_40">
      <!-- Switzerland -->
      <g transform="translate(24.670312 94.379864)scale(0.1 -0.1)">
       <use xlink:href="#DejaVuSans-53"/>
       <use x="63.476562" xlink:href="#DejaVuSans-77"/>
       <use x="145.263672" xlink:href="#DejaVuSans-69"/>
       <use x="173.046875" xlink:href="#DejaVuSans-74"/>
       <use x="212.255859" xlink:href="#DejaVuSans-7a"/>
       <use x="264.746094" xlink:href="#DejaVuSans-65"/>
       <use x="326.269531" xlink:href="#DejaVuSans-72"/>
       <use x="367.382812" xlink:href="#DejaVuSans-6c"/>
       <use x="395.166016" xlink:href="#DejaVuSans-61"/>
       <use x="456.445312" xlink:href="#DejaVuSans-6e"/>
       <use x="519.824219" xlink:href="#DejaVuSans-64"/>
      </g>
     </g>
    </g>
    <g id="ytick_31">
     <g id="line2d_40">
      <g>
       <use style="stroke:#000000;stroke-width:0.8;" x="90" xlink:href="#m5ca54f2cc6" y="76.273548"/>
      </g>
     </g>
     <g id="text_41">
      <!-- China -->
      <g transform="translate(54.435937 80.072767)scale(0.1 -0.1)">
       <use xlink:href="#DejaVuSans-43"/>
       <use x="69.824219" xlink:href="#DejaVuSans-68"/>
       <use x="133.203125" xlink:href="#DejaVuSans-69"/>
       <use x="160.986328" xlink:href="#DejaVuSans-6e"/>
       <use x="224.365234" xlink:href="#DejaVuSans-61"/>
      </g>
     </g>
    </g>
    <g id="text_42">
     <!-- Country -->
     <g transform="translate(-3.34375 310.743281)rotate(-90)scale(0.1 -0.1)">
      <use xlink:href="#DejaVuSans-43"/>
      <use x="69.824219" xlink:href="#DejaVuSans-6f"/>
      <use x="131.005859" xlink:href="#DejaVuSans-75"/>
      <use x="194.384766" xlink:href="#DejaVuSans-6e"/>
      <use x="257.763672" xlink:href="#DejaVuSans-74"/>
      <use x="296.972656" xlink:href="#DejaVuSans-72"/>
      <use x="338.085938" xlink:href="#DejaVuSans-79"/>
     </g>
    </g>
   </g>
   <g id="patch_34">
    <path d="M 90 512.64 
L 90 69.12 
" style="fill:none;stroke:#000000;stroke-linecap:square;stroke-linejoin:miter;stroke-width:0.8;"/>
   </g>
   <g id="patch_35">
    <path d="M 648 512.64 
L 648 69.12 
" style="fill:none;stroke:#000000;stroke-linecap:square;stroke-linejoin:miter;stroke-width:0.8;"/>
   </g>
   <g id="patch_36">
    <path d="M 90 512.64 
L 648 512.64 
" style="fill:none;stroke:#000000;stroke-linecap:square;stroke-linejoin:miter;stroke-width:0.8;"/>
   </g>
   <g id="patch_37">
    <path d="M 90 69.12 
L 648 69.12 
" style="fill:none;stroke:#000000;stroke-linecap:square;stroke-linejoin:miter;stroke-width:0.8;"/>
   </g>
   <g id="text_43">
    <!-- Prevalence::agregate (2021-09-08) -->
    <g transform="translate(263.543437 63.12)scale(0.12 -0.12)">
     <defs>
      <path d="M 750 794 
L 1409 794 
L 1409 0 
L 750 0 
L 750 794 
z
M 750 3309 
L 1409 3309 
L 1409 2516 
L 750 2516 
L 750 3309 
z
" id="DejaVuSans-3a" transform="scale(0.015625)"/>
      <path d="M 1984 4856 
Q 1566 4138 1362 3434 
Q 1159 2731 1159 2009 
Q 1159 1288 1364 580 
Q 1569 -128 1984 -844 
L 1484 -844 
Q 1016 -109 783 600 
Q 550 1309 550 2009 
Q 550 2706 781 3412 
Q 1013 4119 1484 4856 
L 1984 4856 
z
" id="DejaVuSans-28" transform="scale(0.015625)"/>
      <path d="M 313 2009 
L 1997 2009 
L 1997 1497 
L 313 1497 
L 313 2009 
z
" id="DejaVuSans-2d" transform="scale(0.015625)"/>
      <path d="M 703 97 
L 703 672 
Q 941 559 1184 500 
Q 1428 441 1663 441 
Q 2288 441 2617 861 
Q 2947 1281 2994 2138 
Q 2813 1869 2534 1725 
Q 2256 1581 1919 1581 
Q 1219 1581 811 2004 
Q 403 2428 403 3163 
Q 403 3881 828 4315 
Q 1253 4750 1959 4750 
Q 2769 4750 3195 4129 
Q 3622 3509 3622 2328 
Q 3622 1225 3098 567 
Q 2575 -91 1691 -91 
Q 1453 -91 1209 -44 
Q 966 3 703 97 
z
M 1959 2075 
Q 2384 2075 2632 2365 
Q 2881 2656 2881 3163 
Q 2881 3666 2632 3958 
Q 2384 4250 1959 4250 
Q 1534 4250 1286 3958 
Q 1038 3666 1038 3163 
Q 1038 2656 1286 2365 
Q 1534 2075 1959 2075 
z
" id="DejaVuSans-39" transform="scale(0.015625)"/>
      <path d="M 2034 2216 
Q 1584 2216 1326 1975 
Q 1069 1734 1069 1313 
Q 1069 891 1326 650 
Q 1584 409 2034 409 
Q 2484 409 2743 651 
Q 3003 894 3003 1313 
Q 3003 1734 2745 1975 
Q 2488 2216 2034 2216 
z
M 1403 2484 
Q 997 2584 770 2862 
Q 544 3141 544 3541 
Q 544 4100 942 4425 
Q 1341 4750 2034 4750 
Q 2731 4750 3128 4425 
Q 3525 4100 3525 3541 
Q 3525 3141 3298 2862 
Q 3072 2584 2669 2484 
Q 3125 2378 3379 2068 
Q 3634 1759 3634 1313 
Q 3634 634 3220 271 
Q 2806 -91 2034 -91 
Q 1263 -91 848 271 
Q 434 634 434 1313 
Q 434 1759 690 2068 
Q 947 2378 1403 2484 
z
M 1172 3481 
Q 1172 3119 1398 2916 
Q 1625 2713 2034 2713 
Q 2441 2713 2670 2916 
Q 2900 3119 2900 3481 
Q 2900 3844 2670 4047 
Q 2441 4250 2034 4250 
Q 1625 4250 1398 4047 
Q 1172 3844 1172 3481 
z
" id="DejaVuSans-38" transform="scale(0.015625)"/>
      <path d="M 513 4856 
L 1013 4856 
Q 1481 4119 1714 3412 
Q 1947 2706 1947 2009 
Q 1947 1309 1714 600 
Q 1481 -109 1013 -844 
L 513 -844 
Q 928 -128 1133 580 
Q 1338 1288 1338 2009 
Q 1338 2731 1133 3434 
Q 928 4138 513 4856 
z
" id="DejaVuSans-29" transform="scale(0.015625)"/>
     </defs>
     <use xlink:href="#DejaVuSans-50"/>
     <use x="58.552734" xlink:href="#DejaVuSans-72"/>
     <use x="97.416016" xlink:href="#DejaVuSans-65"/>
     <use x="158.939453" xlink:href="#DejaVuSans-76"/>
     <use x="218.119141" xlink:href="#DejaVuSans-61"/>
     <use x="279.398438" xlink:href="#DejaVuSans-6c"/>
     <use x="307.181641" xlink:href="#DejaVuSans-65"/>
     <use x="368.705078" xlink:href="#DejaVuSans-6e"/>
     <use x="432.083984" xlink:href="#DejaVuSans-63"/>
     <use x="487.064453" xlink:href="#DejaVuSans-65"/>
     <use x="548.587891" xlink:href="#DejaVuSans-3a"/>
     <use x="582.279297" xlink:href="#DejaVuSans-3a"/>
     <use x="615.970703" xlink:href="#DejaVuSans-61"/>
     <use x="677.25" xlink:href="#DejaVuSans-67"/>
     <use x="740.726562" xlink:href="#DejaVuSans-72"/>
     <use x="779.589844" xlink:href="#DejaVuSans-65"/>
     <use x="841.113281" xlink:href="#DejaVuSans-67"/>
     <use x="904.589844" xlink:href="#DejaVuSans-61"/>
     <use x="965.869141" xlink:href="#DejaVuSans-74"/>
     <use x="1005.078125" xlink:href="#DejaVuSans-65"/>
     <use x="1066.601562" xlink:href="#DejaVuSans-20"/>
     <use x="1098.388672" xlink:href="#DejaVuSans-28"/>
     <use x="1137.402344" xlink:href="#DejaVuSans-32"/>
     <use x="1201.025391" xlink:href="#DejaVuSans-30"/>
     <use x="1264.648438" xlink:href="#DejaVuSans-32"/>
     <use x="1328.271484" xlink:href="#DejaVuSans-31"/>
     <use x="1391.894531" xlink:href="#DejaVuSans-2d"/>
     <use x="1427.978516" xlink:href="#DejaVuSans-30"/>
     <use x="1491.601562" xlink:href="#DejaVuSans-39"/>
     <use x="1555.224609" xlink:href="#DejaVuSans-2d"/>
     <use x="1591.308594" xlink:href="#DejaVuSans-30"/>
     <use x="1654.931641" xlink:href="#DejaVuSans-38"/>
     <use x="1718.554688" xlink:href="#DejaVuSans-29"/>
    </g>
   </g>
   <g id="legend_1">
    <g id="patch_38">
     <path d="M 529.820312 92.07625 
L 641 92.07625 
Q 643 92.07625 643 90.07625 
L 643 76.12 
Q 643 74.12 641 74.12 
L 529.820312 74.12 
Q 527.820312 74.12 527.820312 76.12 
L 527.820312 90.07625 
Q 527.820312 92.07625 529.820312 92.07625 
z
" style="fill:#ffffff;opacity:0.8;stroke:#cccccc;stroke-linejoin:miter;"/>
    </g>
    <g id="patch_39">
     <path d="M 531.820312 85.718438 
L 551.820312 85.718438 
L 551.820312 78.718438 
L 531.820312 78.718438 
z
" style="fill:#0165fc;"/>
    </g>
    <g id="text_44">
     <!-- prevalence_agg -->
     <g transform="translate(559.820312 85.718438)scale(0.1 -0.1)">
      <defs>
       <path d="M 3263 -1063 
L 3263 -1509 
L -63 -1509 
L -63 -1063 
L 3263 -1063 
z
" id="DejaVuSans-5f" transform="scale(0.015625)"/>
      </defs>
      <use xlink:href="#DejaVuSans-70"/>
      <use x="63.476562" xlink:href="#DejaVuSans-72"/>
      <use x="102.339844" xlink:href="#DejaVuSans-65"/>
      <use x="163.863281" xlink:href="#DejaVuSans-76"/>
      <use x="223.042969" xlink:href="#DejaVuSans-61"/>
      <use x="284.322266" xlink:href="#DejaVuSans-6c"/>
      <use x="312.105469" xlink:href="#DejaVuSans-65"/>
      <use x="373.628906" xlink:href="#DejaVuSans-6e"/>
      <use x="437.007812" xlink:href="#DejaVuSans-63"/>
      <use x="491.988281" xlink:href="#DejaVuSans-65"/>
      <use x="553.511719" xlink:href="#DejaVuSans-5f"/>
      <use x="603.511719" xlink:href="#DejaVuSans-61"/>
      <use x="664.791016" xlink:href="#DejaVuSans-67"/>
      <use x="728.267578" xlink:href="#DejaVuSans-67"/>
     </g>
    </g>
   </g>
  </g>
 </g>
 <defs>
  <clipPath id="pe9ca4b3cd8">
   <rect height="443.52" width="558" x="90" y="69.12"/>
  </clipPath>
 </defs>
</svg>
