<?xml version="1.0" encoding="utf-8" standalone="no"?>
<!DOCTYPE svg PUBLIC "-//W3C//DTD SVG 1.1//EN"
  "http://www.w3.org/Graphics/SVG/1.1/DTD/svg11.dtd">
<!-- Created with matplotlib (https://matplotlib.org/) -->
<svg height="576pt" version="1.1" viewBox="0 0 936 576" width="936pt" xmlns="http://www.w3.org/2000/svg" xmlns:xlink="http://www.w3.org/1999/xlink">
 <metadata>
  <rdf:RDF xmlns:cc="http://creativecommons.org/ns#" xmlns:dc="http://purl.org/dc/elements/1.1/" xmlns:rdf="http://www.w3.org/1999/02/22-rdf-syntax-ns#">
   <cc:Work>
    <dc:type rdf:resource="http://purl.org/dc/dcmitype/StillImage"/>
    <dc:date>2021-02-05T11:42:33.598096</dc:date>
    <dc:format>image/svg+xml</dc:format>
    <dc:creator>
     <cc:Agent>
      <dc:title>Matplotlib v3.3.3, https://matplotlib.org/</dc:title>
     </cc:Agent>
    </dc:creator>
   </cc:Work>
  </rdf:RDF>
 </metadata>
 <defs>
  <style type="text/css">*{stroke-linecap:butt;stroke-linejoin:round;}</style>
 </defs>
 <g id="figure_1">
  <g id="patch_1">
   <path d="M 0 576 
L 936 576 
L 936 0 
L 0 0 
z
" style="fill:#ffffff;"/>
  </g>
  <g id="axes_1">
   <g id="patch_2">
    <path d="M 117 512.64 
L 842.4 512.64 
L 842.4 69.12 
L 117 69.12 
z
" style="fill:#ffffff;"/>
   </g>
   <g id="matplotlib.axis_1">
    <g id="xtick_1">
     <g id="line2d_1">
      <path clip-path="url(#pe6dbe748e3)" d="M 133.712204 512.64 
L 133.712204 69.12 
" style="fill:none;stroke:#d8dcd6;stroke-dasharray:0.8,1.32;stroke-dashoffset:0;stroke-width:0.8;"/>
     </g>
     <g id="line2d_2">
      <defs>
       <path d="M 0 0 
L 0 3.5 
" id="md288c8679e" style="stroke:#000000;stroke-width:0.8;"/>
      </defs>
      <g>
       <use style="stroke:#000000;stroke-width:0.8;" x="133.712204" xlink:href="#md288c8679e" y="512.64"/>
      </g>
     </g>
     <g id="text_1">
      <!-- 2020-01-22 -->
      <g transform="translate(87.856255 562.816745)rotate(-40)scale(0.1 -0.1)">
       <defs>
        <path d="M 19.1875 8.296875 
L 53.609375 8.296875 
L 53.609375 0 
L 7.328125 0 
L 7.328125 8.296875 
Q 12.9375 14.109375 22.625 23.890625 
Q 32.328125 33.6875 34.8125 36.53125 
Q 39.546875 41.84375 41.421875 45.53125 
Q 43.3125 49.21875 43.3125 52.78125 
Q 43.3125 58.59375 39.234375 62.25 
Q 35.15625 65.921875 28.609375 65.921875 
Q 23.96875 65.921875 18.8125 64.3125 
Q 13.671875 62.703125 7.8125 59.421875 
L 7.8125 69.390625 
Q 13.765625 71.78125 18.9375 73 
Q 24.125 74.21875 28.421875 74.21875 
Q 39.75 74.21875 46.484375 68.546875 
Q 53.21875 62.890625 53.21875 53.421875 
Q 53.21875 48.921875 51.53125 44.890625 
Q 49.859375 40.875 45.40625 35.40625 
Q 44.1875 33.984375 37.640625 27.21875 
Q 31.109375 20.453125 19.1875 8.296875 
z
" id="DejaVuSans-50"/>
        <path d="M 31.78125 66.40625 
Q 24.171875 66.40625 20.328125 58.90625 
Q 16.5 51.421875 16.5 36.375 
Q 16.5 21.390625 20.328125 13.890625 
Q 24.171875 6.390625 31.78125 6.390625 
Q 39.453125 6.390625 43.28125 13.890625 
Q 47.125 21.390625 47.125 36.375 
Q 47.125 51.421875 43.28125 58.90625 
Q 39.453125 66.40625 31.78125 66.40625 
z
M 31.78125 74.21875 
Q 44.046875 74.21875 50.515625 64.515625 
Q 56.984375 54.828125 56.984375 36.375 
Q 56.984375 17.96875 50.515625 8.265625 
Q 44.046875 -1.421875 31.78125 -1.421875 
Q 19.53125 -1.421875 13.0625 8.265625 
Q 6.59375 17.96875 6.59375 36.375 
Q 6.59375 54.828125 13.0625 64.515625 
Q 19.53125 74.21875 31.78125 74.21875 
z
" id="DejaVuSans-48"/>
        <path d="M 4.890625 31.390625 
L 31.203125 31.390625 
L 31.203125 23.390625 
L 4.890625 23.390625 
z
" id="DejaVuSans-45"/>
        <path d="M 12.40625 8.296875 
L 28.515625 8.296875 
L 28.515625 63.921875 
L 10.984375 60.40625 
L 10.984375 69.390625 
L 28.421875 72.90625 
L 38.28125 72.90625 
L 38.28125 8.296875 
L 54.390625 8.296875 
L 54.390625 0 
L 12.40625 0 
z
" id="DejaVuSans-49"/>
       </defs>
       <use xlink:href="#DejaVuSans-50"/>
       <use x="63.623047" xlink:href="#DejaVuSans-48"/>
       <use x="127.246094" xlink:href="#DejaVuSans-50"/>
       <use x="190.869141" xlink:href="#DejaVuSans-48"/>
       <use x="254.492188" xlink:href="#DejaVuSans-45"/>
       <use x="290.576172" xlink:href="#DejaVuSans-48"/>
       <use x="354.199219" xlink:href="#DejaVuSans-49"/>
       <use x="417.822266" xlink:href="#DejaVuSans-45"/>
       <use x="453.90625" xlink:href="#DejaVuSans-50"/>
       <use x="517.529297" xlink:href="#DejaVuSans-50"/>
      </g>
     </g>
    </g>
    <g id="xtick_2">
     <g id="line2d_3">
      <path clip-path="url(#pe6dbe748e3)" d="M 224.048443 512.64 
L 224.048443 69.12 
" style="fill:none;stroke:#d8dcd6;stroke-dasharray:0.8,1.32;stroke-dashoffset:0;stroke-width:0.8;"/>
     </g>
     <g id="line2d_4">
      <g>
       <use style="stroke:#000000;stroke-width:0.8;" x="224.048443" xlink:href="#md288c8679e" y="512.64"/>
      </g>
     </g>
     <g id="text_2">
      <!-- 2020-03-12 -->
      <g transform="translate(178.192494 562.816745)rotate(-40)scale(0.1 -0.1)">
       <defs>
        <path d="M 40.578125 39.3125 
Q 47.65625 37.796875 51.625 33 
Q 55.609375 28.21875 55.609375 21.1875 
Q 55.609375 10.40625 48.1875 4.484375 
Q 40.765625 -1.421875 27.09375 -1.421875 
Q 22.515625 -1.421875 17.65625 -0.515625 
Q 12.796875 0.390625 7.625 2.203125 
L 7.625 11.71875 
Q 11.71875 9.328125 16.59375 8.109375 
Q 21.484375 6.890625 26.8125 6.890625 
Q 36.078125 6.890625 40.9375 10.546875 
Q 45.796875 14.203125 45.796875 21.1875 
Q 45.796875 27.640625 41.28125 31.265625 
Q 36.765625 34.90625 28.71875 34.90625 
L 20.21875 34.90625 
L 20.21875 43.015625 
L 29.109375 43.015625 
Q 36.375 43.015625 40.234375 45.921875 
Q 44.09375 48.828125 44.09375 54.296875 
Q 44.09375 59.90625 40.109375 62.90625 
Q 36.140625 65.921875 28.71875 65.921875 
Q 24.65625 65.921875 20.015625 65.03125 
Q 15.375 64.15625 9.8125 62.3125 
L 9.8125 71.09375 
Q 15.4375 72.65625 20.34375 73.4375 
Q 25.25 74.21875 29.59375 74.21875 
Q 40.828125 74.21875 47.359375 69.109375 
Q 53.90625 64.015625 53.90625 55.328125 
Q 53.90625 49.265625 50.4375 45.09375 
Q 46.96875 40.921875 40.578125 39.3125 
z
" id="DejaVuSans-51"/>
       </defs>
       <use xlink:href="#DejaVuSans-50"/>
       <use x="63.623047" xlink:href="#DejaVuSans-48"/>
       <use x="127.246094" xlink:href="#DejaVuSans-50"/>
       <use x="190.869141" xlink:href="#DejaVuSans-48"/>
       <use x="254.492188" xlink:href="#DejaVuSans-45"/>
       <use x="290.576172" xlink:href="#DejaVuSans-48"/>
       <use x="354.199219" xlink:href="#DejaVuSans-51"/>
       <use x="417.822266" xlink:href="#DejaVuSans-45"/>
       <use x="453.90625" xlink:href="#DejaVuSans-49"/>
       <use x="517.529297" xlink:href="#DejaVuSans-50"/>
      </g>
     </g>
    </g>
    <g id="xtick_3">
     <g id="line2d_5">
      <path clip-path="url(#pe6dbe748e3)" d="M 314.384682 512.64 
L 314.384682 69.12 
" style="fill:none;stroke:#d8dcd6;stroke-dasharray:0.8,1.32;stroke-dashoffset:0;stroke-width:0.8;"/>
     </g>
     <g id="line2d_6">
      <g>
       <use style="stroke:#000000;stroke-width:0.8;" x="314.384682" xlink:href="#md288c8679e" y="512.64"/>
      </g>
     </g>
     <g id="text_3">
      <!-- 2020-05-01 -->
      <g transform="translate(268.528733 562.816745)rotate(-40)scale(0.1 -0.1)">
       <defs>
        <path d="M 10.796875 72.90625 
L 49.515625 72.90625 
L 49.515625 64.59375 
L 19.828125 64.59375 
L 19.828125 46.734375 
Q 21.96875 47.46875 24.109375 47.828125 
Q 26.265625 48.1875 28.421875 48.1875 
Q 40.625 48.1875 47.75 41.5 
Q 54.890625 34.8125 54.890625 23.390625 
Q 54.890625 11.625 47.5625 5.09375 
Q 40.234375 -1.421875 26.90625 -1.421875 
Q 22.3125 -1.421875 17.546875 -0.640625 
Q 12.796875 0.140625 7.71875 1.703125 
L 7.71875 11.625 
Q 12.109375 9.234375 16.796875 8.0625 
Q 21.484375 6.890625 26.703125 6.890625 
Q 35.15625 6.890625 40.078125 11.328125 
Q 45.015625 15.765625 45.015625 23.390625 
Q 45.015625 31 40.078125 35.4375 
Q 35.15625 39.890625 26.703125 39.890625 
Q 22.75 39.890625 18.8125 39.015625 
Q 14.890625 38.140625 10.796875 36.28125 
z
" id="DejaVuSans-53"/>
       </defs>
       <use xlink:href="#DejaVuSans-50"/>
       <use x="63.623047" xlink:href="#DejaVuSans-48"/>
       <use x="127.246094" xlink:href="#DejaVuSans-50"/>
       <use x="190.869141" xlink:href="#DejaVuSans-48"/>
       <use x="254.492188" xlink:href="#DejaVuSans-45"/>
       <use x="290.576172" xlink:href="#DejaVuSans-48"/>
       <use x="354.199219" xlink:href="#DejaVuSans-53"/>
       <use x="417.822266" xlink:href="#DejaVuSans-45"/>
       <use x="453.90625" xlink:href="#DejaVuSans-48"/>
       <use x="517.529297" xlink:href="#DejaVuSans-49"/>
      </g>
     </g>
    </g>
    <g id="xtick_4">
     <g id="line2d_7">
      <path clip-path="url(#pe6dbe748e3)" d="M 404.720922 512.64 
L 404.720922 69.12 
" style="fill:none;stroke:#d8dcd6;stroke-dasharray:0.8,1.32;stroke-dashoffset:0;stroke-width:0.8;"/>
     </g>
     <g id="line2d_8">
      <g>
       <use style="stroke:#000000;stroke-width:0.8;" x="404.720922" xlink:href="#md288c8679e" y="512.64"/>
      </g>
     </g>
     <g id="text_4">
      <!-- 2020-06-20 -->
      <g transform="translate(358.864973 562.816745)rotate(-40)scale(0.1 -0.1)">
       <defs>
        <path d="M 33.015625 40.375 
Q 26.375 40.375 22.484375 35.828125 
Q 18.609375 31.296875 18.609375 23.390625 
Q 18.609375 15.53125 22.484375 10.953125 
Q 26.375 6.390625 33.015625 6.390625 
Q 39.65625 6.390625 43.53125 10.953125 
Q 47.40625 15.53125 47.40625 23.390625 
Q 47.40625 31.296875 43.53125 35.828125 
Q 39.65625 40.375 33.015625 40.375 
z
M 52.59375 71.296875 
L 52.59375 62.3125 
Q 48.875 64.0625 45.09375 64.984375 
Q 41.3125 65.921875 37.59375 65.921875 
Q 27.828125 65.921875 22.671875 59.328125 
Q 17.53125 52.734375 16.796875 39.40625 
Q 19.671875 43.65625 24.015625 45.921875 
Q 28.375 48.1875 33.59375 48.1875 
Q 44.578125 48.1875 50.953125 41.515625 
Q 57.328125 34.859375 57.328125 23.390625 
Q 57.328125 12.15625 50.6875 5.359375 
Q 44.046875 -1.421875 33.015625 -1.421875 
Q 20.359375 -1.421875 13.671875 8.265625 
Q 6.984375 17.96875 6.984375 36.375 
Q 6.984375 53.65625 15.1875 63.9375 
Q 23.390625 74.21875 37.203125 74.21875 
Q 40.921875 74.21875 44.703125 73.484375 
Q 48.484375 72.75 52.59375 71.296875 
z
" id="DejaVuSans-54"/>
       </defs>
       <use xlink:href="#DejaVuSans-50"/>
       <use x="63.623047" xlink:href="#DejaVuSans-48"/>
       <use x="127.246094" xlink:href="#DejaVuSans-50"/>
       <use x="190.869141" xlink:href="#DejaVuSans-48"/>
       <use x="254.492188" xlink:href="#DejaVuSans-45"/>
       <use x="290.576172" xlink:href="#DejaVuSans-48"/>
       <use x="354.199219" xlink:href="#DejaVuSans-54"/>
       <use x="417.822266" xlink:href="#DejaVuSans-45"/>
       <use x="453.90625" xlink:href="#DejaVuSans-50"/>
       <use x="517.529297" xlink:href="#DejaVuSans-48"/>
      </g>
     </g>
    </g>
    <g id="xtick_5">
     <g id="line2d_9">
      <path clip-path="url(#pe6dbe748e3)" d="M 495.057161 512.64 
L 495.057161 69.12 
" style="fill:none;stroke:#d8dcd6;stroke-dasharray:0.8,1.32;stroke-dashoffset:0;stroke-width:0.8;"/>
     </g>
     <g id="line2d_10">
      <g>
       <use style="stroke:#000000;stroke-width:0.8;" x="495.057161" xlink:href="#md288c8679e" y="512.64"/>
      </g>
     </g>
     <g id="text_5">
      <!-- 2020-08-09 -->
      <g transform="translate(449.201212 562.816745)rotate(-40)scale(0.1 -0.1)">
       <defs>
        <path d="M 31.78125 34.625 
Q 24.75 34.625 20.71875 30.859375 
Q 16.703125 27.09375 16.703125 20.515625 
Q 16.703125 13.921875 20.71875 10.15625 
Q 24.75 6.390625 31.78125 6.390625 
Q 38.8125 6.390625 42.859375 10.171875 
Q 46.921875 13.96875 46.921875 20.515625 
Q 46.921875 27.09375 42.890625 30.859375 
Q 38.875 34.625 31.78125 34.625 
z
M 21.921875 38.8125 
Q 15.578125 40.375 12.03125 44.71875 
Q 8.5 49.078125 8.5 55.328125 
Q 8.5 64.0625 14.71875 69.140625 
Q 20.953125 74.21875 31.78125 74.21875 
Q 42.671875 74.21875 48.875 69.140625 
Q 55.078125 64.0625 55.078125 55.328125 
Q 55.078125 49.078125 51.53125 44.71875 
Q 48 40.375 41.703125 38.8125 
Q 48.828125 37.15625 52.796875 32.3125 
Q 56.78125 27.484375 56.78125 20.515625 
Q 56.78125 9.90625 50.3125 4.234375 
Q 43.84375 -1.421875 31.78125 -1.421875 
Q 19.734375 -1.421875 13.25 4.234375 
Q 6.78125 9.90625 6.78125 20.515625 
Q 6.78125 27.484375 10.78125 32.3125 
Q 14.796875 37.15625 21.921875 38.8125 
z
M 18.3125 54.390625 
Q 18.3125 48.734375 21.84375 45.5625 
Q 25.390625 42.390625 31.78125 42.390625 
Q 38.140625 42.390625 41.71875 45.5625 
Q 45.3125 48.734375 45.3125 54.390625 
Q 45.3125 60.0625 41.71875 63.234375 
Q 38.140625 66.40625 31.78125 66.40625 
Q 25.390625 66.40625 21.84375 63.234375 
Q 18.3125 60.0625 18.3125 54.390625 
z
" id="DejaVuSans-56"/>
        <path d="M 10.984375 1.515625 
L 10.984375 10.5 
Q 14.703125 8.734375 18.5 7.8125 
Q 22.3125 6.890625 25.984375 6.890625 
Q 35.75 6.890625 40.890625 13.453125 
Q 46.046875 20.015625 46.78125 33.40625 
Q 43.953125 29.203125 39.59375 26.953125 
Q 35.25 24.703125 29.984375 24.703125 
Q 19.046875 24.703125 12.671875 31.3125 
Q 6.296875 37.9375 6.296875 49.421875 
Q 6.296875 60.640625 12.9375 67.421875 
Q 19.578125 74.21875 30.609375 74.21875 
Q 43.265625 74.21875 49.921875 64.515625 
Q 56.59375 54.828125 56.59375 36.375 
Q 56.59375 19.140625 48.40625 8.859375 
Q 40.234375 -1.421875 26.421875 -1.421875 
Q 22.703125 -1.421875 18.890625 -0.6875 
Q 15.09375 0.046875 10.984375 1.515625 
z
M 30.609375 32.421875 
Q 37.25 32.421875 41.125 36.953125 
Q 45.015625 41.5 45.015625 49.421875 
Q 45.015625 57.28125 41.125 61.84375 
Q 37.25 66.40625 30.609375 66.40625 
Q 23.96875 66.40625 20.09375 61.84375 
Q 16.21875 57.28125 16.21875 49.421875 
Q 16.21875 41.5 20.09375 36.953125 
Q 23.96875 32.421875 30.609375 32.421875 
z
" id="DejaVuSans-57"/>
       </defs>
       <use xlink:href="#DejaVuSans-50"/>
       <use x="63.623047" xlink:href="#DejaVuSans-48"/>
       <use x="127.246094" xlink:href="#DejaVuSans-50"/>
       <use x="190.869141" xlink:href="#DejaVuSans-48"/>
       <use x="254.492188" xlink:href="#DejaVuSans-45"/>
       <use x="290.576172" xlink:href="#DejaVuSans-48"/>
       <use x="354.199219" xlink:href="#DejaVuSans-56"/>
       <use x="417.822266" xlink:href="#DejaVuSans-45"/>
       <use x="453.90625" xlink:href="#DejaVuSans-48"/>
       <use x="517.529297" xlink:href="#DejaVuSans-57"/>
      </g>
     </g>
    </g>
    <g id="xtick_6">
     <g id="line2d_11">
      <path clip-path="url(#pe6dbe748e3)" d="M 585.3934 512.64 
L 585.3934 69.12 
" style="fill:none;stroke:#d8dcd6;stroke-dasharray:0.8,1.32;stroke-dashoffset:0;stroke-width:0.8;"/>
     </g>
     <g id="line2d_12">
      <g>
       <use style="stroke:#000000;stroke-width:0.8;" x="585.3934" xlink:href="#md288c8679e" y="512.64"/>
      </g>
     </g>
     <g id="text_6">
      <!-- 2020-09-28 -->
      <g transform="translate(539.537451 562.816745)rotate(-40)scale(0.1 -0.1)">
       <use xlink:href="#DejaVuSans-50"/>
       <use x="63.623047" xlink:href="#DejaVuSans-48"/>
       <use x="127.246094" xlink:href="#DejaVuSans-50"/>
       <use x="190.869141" xlink:href="#DejaVuSans-48"/>
       <use x="254.492188" xlink:href="#DejaVuSans-45"/>
       <use x="290.576172" xlink:href="#DejaVuSans-48"/>
       <use x="354.199219" xlink:href="#DejaVuSans-57"/>
       <use x="417.822266" xlink:href="#DejaVuSans-45"/>
       <use x="453.90625" xlink:href="#DejaVuSans-50"/>
       <use x="517.529297" xlink:href="#DejaVuSans-56"/>
      </g>
     </g>
    </g>
    <g id="xtick_7">
     <g id="line2d_13">
      <path clip-path="url(#pe6dbe748e3)" d="M 675.729639 512.64 
L 675.729639 69.12 
" style="fill:none;stroke:#d8dcd6;stroke-dasharray:0.8,1.32;stroke-dashoffset:0;stroke-width:0.8;"/>
     </g>
     <g id="line2d_14">
      <g>
       <use style="stroke:#000000;stroke-width:0.8;" x="675.729639" xlink:href="#md288c8679e" y="512.64"/>
      </g>
     </g>
     <g id="text_7">
      <!-- 2020-11-17 -->
      <g transform="translate(629.87369 562.816745)rotate(-40)scale(0.1 -0.1)">
       <defs>
        <path d="M 8.203125 72.90625 
L 55.078125 72.90625 
L 55.078125 68.703125 
L 28.609375 0 
L 18.3125 0 
L 43.21875 64.59375 
L 8.203125 64.59375 
z
" id="DejaVuSans-55"/>
       </defs>
       <use xlink:href="#DejaVuSans-50"/>
       <use x="63.623047" xlink:href="#DejaVuSans-48"/>
       <use x="127.246094" xlink:href="#DejaVuSans-50"/>
       <use x="190.869141" xlink:href="#DejaVuSans-48"/>
       <use x="254.492188" xlink:href="#DejaVuSans-45"/>
       <use x="290.576172" xlink:href="#DejaVuSans-49"/>
       <use x="354.199219" xlink:href="#DejaVuSans-49"/>
       <use x="417.822266" xlink:href="#DejaVuSans-45"/>
       <use x="453.90625" xlink:href="#DejaVuSans-49"/>
       <use x="517.529297" xlink:href="#DejaVuSans-55"/>
      </g>
     </g>
    </g>
    <g id="xtick_8">
     <g id="line2d_15">
      <path clip-path="url(#pe6dbe748e3)" d="M 766.065878 512.64 
L 766.065878 69.12 
" style="fill:none;stroke:#d8dcd6;stroke-dasharray:0.8,1.32;stroke-dashoffset:0;stroke-width:0.8;"/>
     </g>
     <g id="line2d_16">
      <g>
       <use style="stroke:#000000;stroke-width:0.8;" x="766.065878" xlink:href="#md288c8679e" y="512.64"/>
      </g>
     </g>
     <g id="text_8">
      <!-- 2021-01-06 -->
      <g transform="translate(720.209929 562.816745)rotate(-40)scale(0.1 -0.1)">
       <use xlink:href="#DejaVuSans-50"/>
       <use x="63.623047" xlink:href="#DejaVuSans-48"/>
       <use x="127.246094" xlink:href="#DejaVuSans-50"/>
       <use x="190.869141" xlink:href="#DejaVuSans-49"/>
       <use x="254.492188" xlink:href="#DejaVuSans-45"/>
       <use x="290.576172" xlink:href="#DejaVuSans-48"/>
       <use x="354.199219" xlink:href="#DejaVuSans-49"/>
       <use x="417.822266" xlink:href="#DejaVuSans-45"/>
       <use x="453.90625" xlink:href="#DejaVuSans-48"/>
       <use x="517.529297" xlink:href="#DejaVuSans-54"/>
      </g>
     </g>
    </g>
    <g id="xtick_9">
     <g id="line2d_17">
      <path clip-path="url(#pe6dbe748e3)" d="M 151.779452 512.64 
L 151.779452 69.12 
" style="fill:none;stroke:#d8dcd6;stroke-dasharray:0.8,1.32;stroke-dashoffset:0;stroke-width:0.8;"/>
     </g>
     <g id="line2d_18">
      <defs>
       <path d="M 0 0 
L 0 2 
" id="mc9a0b6b107" style="stroke:#000000;stroke-width:0.6;"/>
      </defs>
      <g>
       <use style="stroke:#000000;stroke-width:0.6;" x="151.779452" xlink:href="#mc9a0b6b107" y="512.64"/>
      </g>
     </g>
    </g>
    <g id="xtick_10">
     <g id="line2d_19">
      <path clip-path="url(#pe6dbe748e3)" d="M 169.8467 512.64 
L 169.8467 69.12 
" style="fill:none;stroke:#d8dcd6;stroke-dasharray:0.8,1.32;stroke-dashoffset:0;stroke-width:0.8;"/>
     </g>
     <g id="line2d_20">
      <g>
       <use style="stroke:#000000;stroke-width:0.6;" x="169.8467" xlink:href="#mc9a0b6b107" y="512.64"/>
      </g>
     </g>
    </g>
    <g id="xtick_11">
     <g id="line2d_21">
      <path clip-path="url(#pe6dbe748e3)" d="M 187.913948 512.64 
L 187.913948 69.12 
" style="fill:none;stroke:#d8dcd6;stroke-dasharray:0.8,1.32;stroke-dashoffset:0;stroke-width:0.8;"/>
     </g>
     <g id="line2d_22">
      <g>
       <use style="stroke:#000000;stroke-width:0.6;" x="187.913948" xlink:href="#mc9a0b6b107" y="512.64"/>
      </g>
     </g>
    </g>
    <g id="xtick_12">
     <g id="line2d_23">
      <path clip-path="url(#pe6dbe748e3)" d="M 205.981196 512.64 
L 205.981196 69.12 
" style="fill:none;stroke:#d8dcd6;stroke-dasharray:0.8,1.32;stroke-dashoffset:0;stroke-width:0.8;"/>
     </g>
     <g id="line2d_24">
      <g>
       <use style="stroke:#000000;stroke-width:0.6;" x="205.981196" xlink:href="#mc9a0b6b107" y="512.64"/>
      </g>
     </g>
    </g>
    <g id="xtick_13">
     <g id="line2d_25">
      <path clip-path="url(#pe6dbe748e3)" d="M 242.115691 512.64 
L 242.115691 69.12 
" style="fill:none;stroke:#d8dcd6;stroke-dasharray:0.8,1.32;stroke-dashoffset:0;stroke-width:0.8;"/>
     </g>
     <g id="line2d_26">
      <g>
       <use style="stroke:#000000;stroke-width:0.6;" x="242.115691" xlink:href="#mc9a0b6b107" y="512.64"/>
      </g>
     </g>
    </g>
    <g id="xtick_14">
     <g id="line2d_27">
      <path clip-path="url(#pe6dbe748e3)" d="M 260.182939 512.64 
L 260.182939 69.12 
" style="fill:none;stroke:#d8dcd6;stroke-dasharray:0.8,1.32;stroke-dashoffset:0;stroke-width:0.8;"/>
     </g>
     <g id="line2d_28">
      <g>
       <use style="stroke:#000000;stroke-width:0.6;" x="260.182939" xlink:href="#mc9a0b6b107" y="512.64"/>
      </g>
     </g>
    </g>
    <g id="xtick_15">
     <g id="line2d_29">
      <path clip-path="url(#pe6dbe748e3)" d="M 278.250187 512.64 
L 278.250187 69.12 
" style="fill:none;stroke:#d8dcd6;stroke-dasharray:0.8,1.32;stroke-dashoffset:0;stroke-width:0.8;"/>
     </g>
     <g id="line2d_30">
      <g>
       <use style="stroke:#000000;stroke-width:0.6;" x="278.250187" xlink:href="#mc9a0b6b107" y="512.64"/>
      </g>
     </g>
    </g>
    <g id="xtick_16">
     <g id="line2d_31">
      <path clip-path="url(#pe6dbe748e3)" d="M 296.317435 512.64 
L 296.317435 69.12 
" style="fill:none;stroke:#d8dcd6;stroke-dasharray:0.8,1.32;stroke-dashoffset:0;stroke-width:0.8;"/>
     </g>
     <g id="line2d_32">
      <g>
       <use style="stroke:#000000;stroke-width:0.6;" x="296.317435" xlink:href="#mc9a0b6b107" y="512.64"/>
      </g>
     </g>
    </g>
    <g id="xtick_17">
     <g id="line2d_33">
      <path clip-path="url(#pe6dbe748e3)" d="M 332.45193 512.64 
L 332.45193 69.12 
" style="fill:none;stroke:#d8dcd6;stroke-dasharray:0.8,1.32;stroke-dashoffset:0;stroke-width:0.8;"/>
     </g>
     <g id="line2d_34">
      <g>
       <use style="stroke:#000000;stroke-width:0.6;" x="332.45193" xlink:href="#mc9a0b6b107" y="512.64"/>
      </g>
     </g>
    </g>
    <g id="xtick_18">
     <g id="line2d_35">
      <path clip-path="url(#pe6dbe748e3)" d="M 350.519178 512.64 
L 350.519178 69.12 
" style="fill:none;stroke:#d8dcd6;stroke-dasharray:0.8,1.32;stroke-dashoffset:0;stroke-width:0.8;"/>
     </g>
     <g id="line2d_36">
      <g>
       <use style="stroke:#000000;stroke-width:0.6;" x="350.519178" xlink:href="#mc9a0b6b107" y="512.64"/>
      </g>
     </g>
    </g>
    <g id="xtick_19">
     <g id="line2d_37">
      <path clip-path="url(#pe6dbe748e3)" d="M 368.586426 512.64 
L 368.586426 69.12 
" style="fill:none;stroke:#d8dcd6;stroke-dasharray:0.8,1.32;stroke-dashoffset:0;stroke-width:0.8;"/>
     </g>
     <g id="line2d_38">
      <g>
       <use style="stroke:#000000;stroke-width:0.6;" x="368.586426" xlink:href="#mc9a0b6b107" y="512.64"/>
      </g>
     </g>
    </g>
    <g id="xtick_20">
     <g id="line2d_39">
      <path clip-path="url(#pe6dbe748e3)" d="M 386.653674 512.64 
L 386.653674 69.12 
" style="fill:none;stroke:#d8dcd6;stroke-dasharray:0.8,1.32;stroke-dashoffset:0;stroke-width:0.8;"/>
     </g>
     <g id="line2d_40">
      <g>
       <use style="stroke:#000000;stroke-width:0.6;" x="386.653674" xlink:href="#mc9a0b6b107" y="512.64"/>
      </g>
     </g>
    </g>
    <g id="xtick_21">
     <g id="line2d_41">
      <path clip-path="url(#pe6dbe748e3)" d="M 422.788169 512.64 
L 422.788169 69.12 
" style="fill:none;stroke:#d8dcd6;stroke-dasharray:0.8,1.32;stroke-dashoffset:0;stroke-width:0.8;"/>
     </g>
     <g id="line2d_42">
      <g>
       <use style="stroke:#000000;stroke-width:0.6;" x="422.788169" xlink:href="#mc9a0b6b107" y="512.64"/>
      </g>
     </g>
    </g>
    <g id="xtick_22">
     <g id="line2d_43">
      <path clip-path="url(#pe6dbe748e3)" d="M 440.855417 512.64 
L 440.855417 69.12 
" style="fill:none;stroke:#d8dcd6;stroke-dasharray:0.8,1.32;stroke-dashoffset:0;stroke-width:0.8;"/>
     </g>
     <g id="line2d_44">
      <g>
       <use style="stroke:#000000;stroke-width:0.6;" x="440.855417" xlink:href="#mc9a0b6b107" y="512.64"/>
      </g>
     </g>
    </g>
    <g id="xtick_23">
     <g id="line2d_45">
      <path clip-path="url(#pe6dbe748e3)" d="M 458.922665 512.64 
L 458.922665 69.12 
" style="fill:none;stroke:#d8dcd6;stroke-dasharray:0.8,1.32;stroke-dashoffset:0;stroke-width:0.8;"/>
     </g>
     <g id="line2d_46">
      <g>
       <use style="stroke:#000000;stroke-width:0.6;" x="458.922665" xlink:href="#mc9a0b6b107" y="512.64"/>
      </g>
     </g>
    </g>
    <g id="xtick_24">
     <g id="line2d_47">
      <path clip-path="url(#pe6dbe748e3)" d="M 476.989913 512.64 
L 476.989913 69.12 
" style="fill:none;stroke:#d8dcd6;stroke-dasharray:0.8,1.32;stroke-dashoffset:0;stroke-width:0.8;"/>
     </g>
     <g id="line2d_48">
      <g>
       <use style="stroke:#000000;stroke-width:0.6;" x="476.989913" xlink:href="#mc9a0b6b107" y="512.64"/>
      </g>
     </g>
    </g>
    <g id="xtick_25">
     <g id="line2d_49">
      <path clip-path="url(#pe6dbe748e3)" d="M 513.124408 512.64 
L 513.124408 69.12 
" style="fill:none;stroke:#d8dcd6;stroke-dasharray:0.8,1.32;stroke-dashoffset:0;stroke-width:0.8;"/>
     </g>
     <g id="line2d_50">
      <g>
       <use style="stroke:#000000;stroke-width:0.6;" x="513.124408" xlink:href="#mc9a0b6b107" y="512.64"/>
      </g>
     </g>
    </g>
    <g id="xtick_26">
     <g id="line2d_51">
      <path clip-path="url(#pe6dbe748e3)" d="M 531.191656 512.64 
L 531.191656 69.12 
" style="fill:none;stroke:#d8dcd6;stroke-dasharray:0.8,1.32;stroke-dashoffset:0;stroke-width:0.8;"/>
     </g>
     <g id="line2d_52">
      <g>
       <use style="stroke:#000000;stroke-width:0.6;" x="531.191656" xlink:href="#mc9a0b6b107" y="512.64"/>
      </g>
     </g>
    </g>
    <g id="xtick_27">
     <g id="line2d_53">
      <path clip-path="url(#pe6dbe748e3)" d="M 549.258904 512.64 
L 549.258904 69.12 
" style="fill:none;stroke:#d8dcd6;stroke-dasharray:0.8,1.32;stroke-dashoffset:0;stroke-width:0.8;"/>
     </g>
     <g id="line2d_54">
      <g>
       <use style="stroke:#000000;stroke-width:0.6;" x="549.258904" xlink:href="#mc9a0b6b107" y="512.64"/>
      </g>
     </g>
    </g>
    <g id="xtick_28">
     <g id="line2d_55">
      <path clip-path="url(#pe6dbe748e3)" d="M 567.326152 512.64 
L 567.326152 69.12 
" style="fill:none;stroke:#d8dcd6;stroke-dasharray:0.8,1.32;stroke-dashoffset:0;stroke-width:0.8;"/>
     </g>
     <g id="line2d_56">
      <g>
       <use style="stroke:#000000;stroke-width:0.6;" x="567.326152" xlink:href="#mc9a0b6b107" y="512.64"/>
      </g>
     </g>
    </g>
    <g id="xtick_29">
     <g id="line2d_57">
      <path clip-path="url(#pe6dbe748e3)" d="M 603.460648 512.64 
L 603.460648 69.12 
" style="fill:none;stroke:#d8dcd6;stroke-dasharray:0.8,1.32;stroke-dashoffset:0;stroke-width:0.8;"/>
     </g>
     <g id="line2d_58">
      <g>
       <use style="stroke:#000000;stroke-width:0.6;" x="603.460648" xlink:href="#mc9a0b6b107" y="512.64"/>
      </g>
     </g>
    </g>
    <g id="xtick_30">
     <g id="line2d_59">
      <path clip-path="url(#pe6dbe748e3)" d="M 621.527895 512.64 
L 621.527895 69.12 
" style="fill:none;stroke:#d8dcd6;stroke-dasharray:0.8,1.32;stroke-dashoffset:0;stroke-width:0.8;"/>
     </g>
     <g id="line2d_60">
      <g>
       <use style="stroke:#000000;stroke-width:0.6;" x="621.527895" xlink:href="#mc9a0b6b107" y="512.64"/>
      </g>
     </g>
    </g>
    <g id="xtick_31">
     <g id="line2d_61">
      <path clip-path="url(#pe6dbe748e3)" d="M 639.595143 512.64 
L 639.595143 69.12 
" style="fill:none;stroke:#d8dcd6;stroke-dasharray:0.8,1.32;stroke-dashoffset:0;stroke-width:0.8;"/>
     </g>
     <g id="line2d_62">
      <g>
       <use style="stroke:#000000;stroke-width:0.6;" x="639.595143" xlink:href="#mc9a0b6b107" y="512.64"/>
      </g>
     </g>
    </g>
    <g id="xtick_32">
     <g id="line2d_63">
      <path clip-path="url(#pe6dbe748e3)" d="M 657.662391 512.64 
L 657.662391 69.12 
" style="fill:none;stroke:#d8dcd6;stroke-dasharray:0.8,1.32;stroke-dashoffset:0;stroke-width:0.8;"/>
     </g>
     <g id="line2d_64">
      <g>
       <use style="stroke:#000000;stroke-width:0.6;" x="657.662391" xlink:href="#mc9a0b6b107" y="512.64"/>
      </g>
     </g>
    </g>
    <g id="xtick_33">
     <g id="line2d_65">
      <path clip-path="url(#pe6dbe748e3)" d="M 693.796887 512.64 
L 693.796887 69.12 
" style="fill:none;stroke:#d8dcd6;stroke-dasharray:0.8,1.32;stroke-dashoffset:0;stroke-width:0.8;"/>
     </g>
     <g id="line2d_66">
      <g>
       <use style="stroke:#000000;stroke-width:0.6;" x="693.796887" xlink:href="#mc9a0b6b107" y="512.64"/>
      </g>
     </g>
    </g>
    <g id="xtick_34">
     <g id="line2d_67">
      <path clip-path="url(#pe6dbe748e3)" d="M 711.864134 512.64 
L 711.864134 69.12 
" style="fill:none;stroke:#d8dcd6;stroke-dasharray:0.8,1.32;stroke-dashoffset:0;stroke-width:0.8;"/>
     </g>
     <g id="line2d_68">
      <g>
       <use style="stroke:#000000;stroke-width:0.6;" x="711.864134" xlink:href="#mc9a0b6b107" y="512.64"/>
      </g>
     </g>
    </g>
    <g id="xtick_35">
     <g id="line2d_69">
      <path clip-path="url(#pe6dbe748e3)" d="M 729.931382 512.64 
L 729.931382 69.12 
" style="fill:none;stroke:#d8dcd6;stroke-dasharray:0.8,1.32;stroke-dashoffset:0;stroke-width:0.8;"/>
     </g>
     <g id="line2d_70">
      <g>
       <use style="stroke:#000000;stroke-width:0.6;" x="729.931382" xlink:href="#mc9a0b6b107" y="512.64"/>
      </g>
     </g>
    </g>
    <g id="xtick_36">
     <g id="line2d_71">
      <path clip-path="url(#pe6dbe748e3)" d="M 747.99863 512.64 
L 747.99863 69.12 
" style="fill:none;stroke:#d8dcd6;stroke-dasharray:0.8,1.32;stroke-dashoffset:0;stroke-width:0.8;"/>
     </g>
     <g id="line2d_72">
      <g>
       <use style="stroke:#000000;stroke-width:0.6;" x="747.99863" xlink:href="#mc9a0b6b107" y="512.64"/>
      </g>
     </g>
    </g>
    <g id="xtick_37">
     <g id="line2d_73">
      <path clip-path="url(#pe6dbe748e3)" d="M 784.133126 512.64 
L 784.133126 69.12 
" style="fill:none;stroke:#d8dcd6;stroke-dasharray:0.8,1.32;stroke-dashoffset:0;stroke-width:0.8;"/>
     </g>
     <g id="line2d_74">
      <g>
       <use style="stroke:#000000;stroke-width:0.6;" x="784.133126" xlink:href="#mc9a0b6b107" y="512.64"/>
      </g>
     </g>
    </g>
    <g id="xtick_38">
     <g id="line2d_75">
      <path clip-path="url(#pe6dbe748e3)" d="M 802.200374 512.64 
L 802.200374 69.12 
" style="fill:none;stroke:#d8dcd6;stroke-dasharray:0.8,1.32;stroke-dashoffset:0;stroke-width:0.8;"/>
     </g>
     <g id="line2d_76">
      <g>
       <use style="stroke:#000000;stroke-width:0.6;" x="802.200374" xlink:href="#mc9a0b6b107" y="512.64"/>
      </g>
     </g>
    </g>
    <g id="xtick_39">
     <g id="line2d_77">
      <path clip-path="url(#pe6dbe748e3)" d="M 820.267621 512.64 
L 820.267621 69.12 
" style="fill:none;stroke:#d8dcd6;stroke-dasharray:0.8,1.32;stroke-dashoffset:0;stroke-width:0.8;"/>
     </g>
     <g id="line2d_78">
      <g>
       <use style="stroke:#000000;stroke-width:0.6;" x="820.267621" xlink:href="#mc9a0b6b107" y="512.64"/>
      </g>
     </g>
    </g>
    <g id="xtick_40">
     <g id="line2d_79">
      <path clip-path="url(#pe6dbe748e3)" d="M 838.334869 512.64 
L 838.334869 69.12 
" style="fill:none;stroke:#d8dcd6;stroke-dasharray:0.8,1.32;stroke-dashoffset:0;stroke-width:0.8;"/>
     </g>
     <g id="line2d_80">
      <g>
       <use style="stroke:#000000;stroke-width:0.6;" x="838.334869" xlink:href="#mc9a0b6b107" y="512.64"/>
      </g>
     </g>
    </g>
   </g>
   <g id="matplotlib.axis_2">
    <g id="ytick_1">
     <g id="line2d_81">
      <path clip-path="url(#pe6dbe748e3)" d="M 117 512.64 
L 842.4 512.64 
" style="fill:none;stroke:#d8dcd6;stroke-dasharray:0.8,1.32;stroke-dashoffset:0;stroke-width:0.8;"/>
     </g>
     <g id="line2d_82">
      <defs>
       <path d="M 0 0 
L -3.5 0 
" id="m5798f706ea" style="stroke:#000000;stroke-width:0.8;"/>
      </defs>
      <g>
       <use style="stroke:#000000;stroke-width:0.8;" x="117" xlink:href="#m5798f706ea" y="512.64"/>
      </g>
     </g>
     <g id="text_9">
      <!-- 0 -->
      <g transform="translate(103.6375 516.439219)scale(0.1 -0.1)">
       <use xlink:href="#DejaVuSans-48"/>
      </g>
     </g>
    </g>
    <g id="ytick_2">
     <g id="line2d_83">
      <path clip-path="url(#pe6dbe748e3)" d="M 117 423.936 
L 842.4 423.936 
" style="fill:none;stroke:#d8dcd6;stroke-dasharray:0.8,1.32;stroke-dashoffset:0;stroke-width:0.8;"/>
     </g>
     <g id="line2d_84">
      <g>
       <use style="stroke:#000000;stroke-width:0.8;" x="117" xlink:href="#m5798f706ea" y="423.936"/>
      </g>
     </g>
     <g id="text_10">
      <!-- 5 -->
      <g transform="translate(103.6375 427.735219)scale(0.1 -0.1)">
       <use xlink:href="#DejaVuSans-53"/>
      </g>
     </g>
    </g>
    <g id="ytick_3">
     <g id="line2d_85">
      <path clip-path="url(#pe6dbe748e3)" d="M 117 335.232 
L 842.4 335.232 
" style="fill:none;stroke:#d8dcd6;stroke-dasharray:0.8,1.32;stroke-dashoffset:0;stroke-width:0.8;"/>
     </g>
     <g id="line2d_86">
      <g>
       <use style="stroke:#000000;stroke-width:0.8;" x="117" xlink:href="#m5798f706ea" y="335.232"/>
      </g>
     </g>
     <g id="text_11">
      <!-- 10 -->
      <g transform="translate(97.275 339.031219)scale(0.1 -0.1)">
       <use xlink:href="#DejaVuSans-49"/>
       <use x="63.623047" xlink:href="#DejaVuSans-48"/>
      </g>
     </g>
    </g>
    <g id="ytick_4">
     <g id="line2d_87">
      <path clip-path="url(#pe6dbe748e3)" d="M 117 246.528 
L 842.4 246.528 
" style="fill:none;stroke:#d8dcd6;stroke-dasharray:0.8,1.32;stroke-dashoffset:0;stroke-width:0.8;"/>
     </g>
     <g id="line2d_88">
      <g>
       <use style="stroke:#000000;stroke-width:0.8;" x="117" xlink:href="#m5798f706ea" y="246.528"/>
      </g>
     </g>
     <g id="text_12">
      <!-- 15 -->
      <g transform="translate(97.275 250.327219)scale(0.1 -0.1)">
       <use xlink:href="#DejaVuSans-49"/>
       <use x="63.623047" xlink:href="#DejaVuSans-53"/>
      </g>
     </g>
    </g>
    <g id="ytick_5">
     <g id="line2d_89">
      <path clip-path="url(#pe6dbe748e3)" d="M 117 157.824 
L 842.4 157.824 
" style="fill:none;stroke:#d8dcd6;stroke-dasharray:0.8,1.32;stroke-dashoffset:0;stroke-width:0.8;"/>
     </g>
     <g id="line2d_90">
      <g>
       <use style="stroke:#000000;stroke-width:0.8;" x="117" xlink:href="#m5798f706ea" y="157.824"/>
      </g>
     </g>
     <g id="text_13">
      <!-- 20 -->
      <g transform="translate(97.275 161.623219)scale(0.1 -0.1)">
       <use xlink:href="#DejaVuSans-50"/>
       <use x="63.623047" xlink:href="#DejaVuSans-48"/>
      </g>
     </g>
    </g>
    <g id="ytick_6">
     <g id="line2d_91">
      <path clip-path="url(#pe6dbe748e3)" d="M 117 69.12 
L 842.4 69.12 
" style="fill:none;stroke:#d8dcd6;stroke-dasharray:0.8,1.32;stroke-dashoffset:0;stroke-width:0.8;"/>
     </g>
     <g id="line2d_92">
      <g>
       <use style="stroke:#000000;stroke-width:0.8;" x="117" xlink:href="#m5798f706ea" y="69.12"/>
      </g>
     </g>
     <g id="text_14">
      <!-- 25 -->
      <g transform="translate(97.275 72.919219)scale(0.1 -0.1)">
       <use xlink:href="#DejaVuSans-50"/>
       <use x="63.623047" xlink:href="#DejaVuSans-53"/>
      </g>
     </g>
    </g>
    <g id="ytick_7">
     <g id="line2d_93">
      <path clip-path="url(#pe6dbe748e3)" d="M 117 494.8992 
L 842.4 494.8992 
" style="fill:none;stroke:#d8dcd6;stroke-dasharray:0.8,1.32;stroke-dashoffset:0;stroke-width:0.8;"/>
     </g>
     <g id="line2d_94">
      <defs>
       <path d="M 0 0 
L -2 0 
" id="m4bd6639c3a" style="stroke:#000000;stroke-width:0.6;"/>
      </defs>
      <g>
       <use style="stroke:#000000;stroke-width:0.6;" x="117" xlink:href="#m4bd6639c3a" y="494.8992"/>
      </g>
     </g>
    </g>
    <g id="ytick_8">
     <g id="line2d_95">
      <path clip-path="url(#pe6dbe748e3)" d="M 117 477.1584 
L 842.4 477.1584 
" style="fill:none;stroke:#d8dcd6;stroke-dasharray:0.8,1.32;stroke-dashoffset:0;stroke-width:0.8;"/>
     </g>
     <g id="line2d_96">
      <g>
       <use style="stroke:#000000;stroke-width:0.6;" x="117" xlink:href="#m4bd6639c3a" y="477.1584"/>
      </g>
     </g>
    </g>
    <g id="ytick_9">
     <g id="line2d_97">
      <path clip-path="url(#pe6dbe748e3)" d="M 117 459.4176 
L 842.4 459.4176 
" style="fill:none;stroke:#d8dcd6;stroke-dasharray:0.8,1.32;stroke-dashoffset:0;stroke-width:0.8;"/>
     </g>
     <g id="line2d_98">
      <g>
       <use style="stroke:#000000;stroke-width:0.6;" x="117" xlink:href="#m4bd6639c3a" y="459.4176"/>
      </g>
     </g>
    </g>
    <g id="ytick_10">
     <g id="line2d_99">
      <path clip-path="url(#pe6dbe748e3)" d="M 117 441.6768 
L 842.4 441.6768 
" style="fill:none;stroke:#d8dcd6;stroke-dasharray:0.8,1.32;stroke-dashoffset:0;stroke-width:0.8;"/>
     </g>
     <g id="line2d_100">
      <g>
       <use style="stroke:#000000;stroke-width:0.6;" x="117" xlink:href="#m4bd6639c3a" y="441.6768"/>
      </g>
     </g>
    </g>
    <g id="ytick_11">
     <g id="line2d_101">
      <path clip-path="url(#pe6dbe748e3)" d="M 117 406.1952 
L 842.4 406.1952 
" style="fill:none;stroke:#d8dcd6;stroke-dasharray:0.8,1.32;stroke-dashoffset:0;stroke-width:0.8;"/>
     </g>
     <g id="line2d_102">
      <g>
       <use style="stroke:#000000;stroke-width:0.6;" x="117" xlink:href="#m4bd6639c3a" y="406.1952"/>
      </g>
     </g>
    </g>
    <g id="ytick_12">
     <g id="line2d_103">
      <path clip-path="url(#pe6dbe748e3)" d="M 117 388.4544 
L 842.4 388.4544 
" style="fill:none;stroke:#d8dcd6;stroke-dasharray:0.8,1.32;stroke-dashoffset:0;stroke-width:0.8;"/>
     </g>
     <g id="line2d_104">
      <g>
       <use style="stroke:#000000;stroke-width:0.6;" x="117" xlink:href="#m4bd6639c3a" y="388.4544"/>
      </g>
     </g>
    </g>
    <g id="ytick_13">
     <g id="line2d_105">
      <path clip-path="url(#pe6dbe748e3)" d="M 117 370.7136 
L 842.4 370.7136 
" style="fill:none;stroke:#d8dcd6;stroke-dasharray:0.8,1.32;stroke-dashoffset:0;stroke-width:0.8;"/>
     </g>
     <g id="line2d_106">
      <g>
       <use style="stroke:#000000;stroke-width:0.6;" x="117" xlink:href="#m4bd6639c3a" y="370.7136"/>
      </g>
     </g>
    </g>
    <g id="ytick_14">
     <g id="line2d_107">
      <path clip-path="url(#pe6dbe748e3)" d="M 117 352.9728 
L 842.4 352.9728 
" style="fill:none;stroke:#d8dcd6;stroke-dasharray:0.8,1.32;stroke-dashoffset:0;stroke-width:0.8;"/>
     </g>
     <g id="line2d_108">
      <g>
       <use style="stroke:#000000;stroke-width:0.6;" x="117" xlink:href="#m4bd6639c3a" y="352.9728"/>
      </g>
     </g>
    </g>
    <g id="ytick_15">
     <g id="line2d_109">
      <path clip-path="url(#pe6dbe748e3)" d="M 117 317.4912 
L 842.4 317.4912 
" style="fill:none;stroke:#d8dcd6;stroke-dasharray:0.8,1.32;stroke-dashoffset:0;stroke-width:0.8;"/>
     </g>
     <g id="line2d_110">
      <g>
       <use style="stroke:#000000;stroke-width:0.6;" x="117" xlink:href="#m4bd6639c3a" y="317.4912"/>
      </g>
     </g>
    </g>
    <g id="ytick_16">
     <g id="line2d_111">
      <path clip-path="url(#pe6dbe748e3)" d="M 117 299.7504 
L 842.4 299.7504 
" style="fill:none;stroke:#d8dcd6;stroke-dasharray:0.8,1.32;stroke-dashoffset:0;stroke-width:0.8;"/>
     </g>
     <g id="line2d_112">
      <g>
       <use style="stroke:#000000;stroke-width:0.6;" x="117" xlink:href="#m4bd6639c3a" y="299.7504"/>
      </g>
     </g>
    </g>
    <g id="ytick_17">
     <g id="line2d_113">
      <path clip-path="url(#pe6dbe748e3)" d="M 117 282.0096 
L 842.4 282.0096 
" style="fill:none;stroke:#d8dcd6;stroke-dasharray:0.8,1.32;stroke-dashoffset:0;stroke-width:0.8;"/>
     </g>
     <g id="line2d_114">
      <g>
       <use style="stroke:#000000;stroke-width:0.6;" x="117" xlink:href="#m4bd6639c3a" y="282.0096"/>
      </g>
     </g>
    </g>
    <g id="ytick_18">
     <g id="line2d_115">
      <path clip-path="url(#pe6dbe748e3)" d="M 117 264.2688 
L 842.4 264.2688 
" style="fill:none;stroke:#d8dcd6;stroke-dasharray:0.8,1.32;stroke-dashoffset:0;stroke-width:0.8;"/>
     </g>
     <g id="line2d_116">
      <g>
       <use style="stroke:#000000;stroke-width:0.6;" x="117" xlink:href="#m4bd6639c3a" y="264.2688"/>
      </g>
     </g>
    </g>
    <g id="ytick_19">
     <g id="line2d_117">
      <path clip-path="url(#pe6dbe748e3)" d="M 117 228.7872 
L 842.4 228.7872 
" style="fill:none;stroke:#d8dcd6;stroke-dasharray:0.8,1.32;stroke-dashoffset:0;stroke-width:0.8;"/>
     </g>
     <g id="line2d_118">
      <g>
       <use style="stroke:#000000;stroke-width:0.6;" x="117" xlink:href="#m4bd6639c3a" y="228.7872"/>
      </g>
     </g>
    </g>
    <g id="ytick_20">
     <g id="line2d_119">
      <path clip-path="url(#pe6dbe748e3)" d="M 117 211.0464 
L 842.4 211.0464 
" style="fill:none;stroke:#d8dcd6;stroke-dasharray:0.8,1.32;stroke-dashoffset:0;stroke-width:0.8;"/>
     </g>
     <g id="line2d_120">
      <g>
       <use style="stroke:#000000;stroke-width:0.6;" x="117" xlink:href="#m4bd6639c3a" y="211.0464"/>
      </g>
     </g>
    </g>
    <g id="ytick_21">
     <g id="line2d_121">
      <path clip-path="url(#pe6dbe748e3)" d="M 117 193.3056 
L 842.4 193.3056 
" style="fill:none;stroke:#d8dcd6;stroke-dasharray:0.8,1.32;stroke-dashoffset:0;stroke-width:0.8;"/>
     </g>
     <g id="line2d_122">
      <g>
       <use style="stroke:#000000;stroke-width:0.6;" x="117" xlink:href="#m4bd6639c3a" y="193.3056"/>
      </g>
     </g>
    </g>
    <g id="ytick_22">
     <g id="line2d_123">
      <path clip-path="url(#pe6dbe748e3)" d="M 117 175.5648 
L 842.4 175.5648 
" style="fill:none;stroke:#d8dcd6;stroke-dasharray:0.8,1.32;stroke-dashoffset:0;stroke-width:0.8;"/>
     </g>
     <g id="line2d_124">
      <g>
       <use style="stroke:#000000;stroke-width:0.6;" x="117" xlink:href="#m4bd6639c3a" y="175.5648"/>
      </g>
     </g>
    </g>
    <g id="ytick_23">
     <g id="line2d_125">
      <path clip-path="url(#pe6dbe748e3)" d="M 117 140.0832 
L 842.4 140.0832 
" style="fill:none;stroke:#d8dcd6;stroke-dasharray:0.8,1.32;stroke-dashoffset:0;stroke-width:0.8;"/>
     </g>
     <g id="line2d_126">
      <g>
       <use style="stroke:#000000;stroke-width:0.6;" x="117" xlink:href="#m4bd6639c3a" y="140.0832"/>
      </g>
     </g>
    </g>
    <g id="ytick_24">
     <g id="line2d_127">
      <path clip-path="url(#pe6dbe748e3)" d="M 117 122.3424 
L 842.4 122.3424 
" style="fill:none;stroke:#d8dcd6;stroke-dasharray:0.8,1.32;stroke-dashoffset:0;stroke-width:0.8;"/>
     </g>
     <g id="line2d_128">
      <g>
       <use style="stroke:#000000;stroke-width:0.6;" x="117" xlink:href="#m4bd6639c3a" y="122.3424"/>
      </g>
     </g>
    </g>
    <g id="ytick_25">
     <g id="line2d_129">
      <path clip-path="url(#pe6dbe748e3)" d="M 117 104.6016 
L 842.4 104.6016 
" style="fill:none;stroke:#d8dcd6;stroke-dasharray:0.8,1.32;stroke-dashoffset:0;stroke-width:0.8;"/>
     </g>
     <g id="line2d_130">
      <g>
       <use style="stroke:#000000;stroke-width:0.6;" x="117" xlink:href="#m4bd6639c3a" y="104.6016"/>
      </g>
     </g>
    </g>
    <g id="ytick_26">
     <g id="line2d_131">
      <path clip-path="url(#pe6dbe748e3)" d="M 117 86.8608 
L 842.4 86.8608 
" style="fill:none;stroke:#d8dcd6;stroke-dasharray:0.8,1.32;stroke-dashoffset:0;stroke-width:0.8;"/>
     </g>
     <g id="line2d_132">
      <g>
       <use style="stroke:#000000;stroke-width:0.6;" x="117" xlink:href="#m4bd6639c3a" y="86.8608"/>
      </g>
     </g>
    </g>
    <g id="text_15">
     <!-- cases double every $n$ days (backw avg over 4 days) -->
     <g transform="translate(91.175 420.63)rotate(-90)scale(0.1 -0.1)">
      <defs>
       <path d="M 48.78125 52.59375 
L 48.78125 44.1875 
Q 44.96875 46.296875 41.140625 47.34375 
Q 37.3125 48.390625 33.40625 48.390625 
Q 24.65625 48.390625 19.8125 42.84375 
Q 14.984375 37.3125 14.984375 27.296875 
Q 14.984375 17.28125 19.8125 11.734375 
Q 24.65625 6.203125 33.40625 6.203125 
Q 37.3125 6.203125 41.140625 7.25 
Q 44.96875 8.296875 48.78125 10.40625 
L 48.78125 2.09375 
Q 45.015625 0.34375 40.984375 -0.53125 
Q 36.96875 -1.421875 32.421875 -1.421875 
Q 20.0625 -1.421875 12.78125 6.34375 
Q 5.515625 14.109375 5.515625 27.296875 
Q 5.515625 40.671875 12.859375 48.328125 
Q 20.21875 56 33.015625 56 
Q 37.15625 56 41.109375 55.140625 
Q 45.0625 54.296875 48.78125 52.59375 
z
" id="DejaVuSans-99"/>
       <path d="M 34.28125 27.484375 
Q 23.390625 27.484375 19.1875 25 
Q 14.984375 22.515625 14.984375 16.5 
Q 14.984375 11.71875 18.140625 8.90625 
Q 21.296875 6.109375 26.703125 6.109375 
Q 34.1875 6.109375 38.703125 11.40625 
Q 43.21875 16.703125 43.21875 25.484375 
L 43.21875 27.484375 
z
M 52.203125 31.203125 
L 52.203125 0 
L 43.21875 0 
L 43.21875 8.296875 
Q 40.140625 3.328125 35.546875 0.953125 
Q 30.953125 -1.421875 24.3125 -1.421875 
Q 15.921875 -1.421875 10.953125 3.296875 
Q 6 8.015625 6 15.921875 
Q 6 25.140625 12.171875 29.828125 
Q 18.359375 34.515625 30.609375 34.515625 
L 43.21875 34.515625 
L 43.21875 35.40625 
Q 43.21875 41.609375 39.140625 45 
Q 35.0625 48.390625 27.6875 48.390625 
Q 23 48.390625 18.546875 47.265625 
Q 14.109375 46.140625 10.015625 43.890625 
L 10.015625 52.203125 
Q 14.9375 54.109375 19.578125 55.046875 
Q 24.21875 56 28.609375 56 
Q 40.484375 56 46.34375 49.84375 
Q 52.203125 43.703125 52.203125 31.203125 
z
" id="DejaVuSans-97"/>
       <path d="M 44.28125 53.078125 
L 44.28125 44.578125 
Q 40.484375 46.53125 36.375 47.5 
Q 32.28125 48.484375 27.875 48.484375 
Q 21.1875 48.484375 17.84375 46.4375 
Q 14.5 44.390625 14.5 40.28125 
Q 14.5 37.15625 16.890625 35.375 
Q 19.28125 33.59375 26.515625 31.984375 
L 29.59375 31.296875 
Q 39.15625 29.25 43.1875 25.515625 
Q 47.21875 21.78125 47.21875 15.09375 
Q 47.21875 7.46875 41.1875 3.015625 
Q 35.15625 -1.421875 24.609375 -1.421875 
Q 20.21875 -1.421875 15.453125 -0.5625 
Q 10.6875 0.296875 5.421875 2 
L 5.421875 11.28125 
Q 10.40625 8.6875 15.234375 7.390625 
Q 20.0625 6.109375 24.8125 6.109375 
Q 31.15625 6.109375 34.5625 8.28125 
Q 37.984375 10.453125 37.984375 14.40625 
Q 37.984375 18.0625 35.515625 20.015625 
Q 33.0625 21.96875 24.703125 23.78125 
L 21.578125 24.515625 
Q 13.234375 26.265625 9.515625 29.90625 
Q 5.8125 33.546875 5.8125 39.890625 
Q 5.8125 47.609375 11.28125 51.796875 
Q 16.75 56 26.8125 56 
Q 31.78125 56 36.171875 55.265625 
Q 40.578125 54.546875 44.28125 53.078125 
z
" id="DejaVuSans-115"/>
       <path d="M 56.203125 29.59375 
L 56.203125 25.203125 
L 14.890625 25.203125 
Q 15.484375 15.921875 20.484375 11.0625 
Q 25.484375 6.203125 34.421875 6.203125 
Q 39.59375 6.203125 44.453125 7.46875 
Q 49.3125 8.734375 54.109375 11.28125 
L 54.109375 2.78125 
Q 49.265625 0.734375 44.1875 -0.34375 
Q 39.109375 -1.421875 33.890625 -1.421875 
Q 20.796875 -1.421875 13.15625 6.1875 
Q 5.515625 13.8125 5.515625 26.8125 
Q 5.515625 40.234375 12.765625 48.109375 
Q 20.015625 56 32.328125 56 
Q 43.359375 56 49.78125 48.890625 
Q 56.203125 41.796875 56.203125 29.59375 
z
M 47.21875 32.234375 
Q 47.125 39.59375 43.09375 43.984375 
Q 39.0625 48.390625 32.421875 48.390625 
Q 24.90625 48.390625 20.390625 44.140625 
Q 15.875 39.890625 15.1875 32.171875 
z
" id="DejaVuSans-101"/>
       <path id="DejaVuSans-32"/>
       <path d="M 45.40625 46.390625 
L 45.40625 75.984375 
L 54.390625 75.984375 
L 54.390625 0 
L 45.40625 0 
L 45.40625 8.203125 
Q 42.578125 3.328125 38.25 0.953125 
Q 33.9375 -1.421875 27.875 -1.421875 
Q 17.96875 -1.421875 11.734375 6.484375 
Q 5.515625 14.40625 5.515625 27.296875 
Q 5.515625 40.1875 11.734375 48.09375 
Q 17.96875 56 27.875 56 
Q 33.9375 56 38.25 53.625 
Q 42.578125 51.265625 45.40625 46.390625 
z
M 14.796875 27.296875 
Q 14.796875 17.390625 18.875 11.75 
Q 22.953125 6.109375 30.078125 6.109375 
Q 37.203125 6.109375 41.296875 11.75 
Q 45.40625 17.390625 45.40625 27.296875 
Q 45.40625 37.203125 41.296875 42.84375 
Q 37.203125 48.484375 30.078125 48.484375 
Q 22.953125 48.484375 18.875 42.84375 
Q 14.796875 37.203125 14.796875 27.296875 
z
" id="DejaVuSans-100"/>
       <path d="M 30.609375 48.390625 
Q 23.390625 48.390625 19.1875 42.75 
Q 14.984375 37.109375 14.984375 27.296875 
Q 14.984375 17.484375 19.15625 11.84375 
Q 23.34375 6.203125 30.609375 6.203125 
Q 37.796875 6.203125 41.984375 11.859375 
Q 46.1875 17.53125 46.1875 27.296875 
Q 46.1875 37.015625 41.984375 42.703125 
Q 37.796875 48.390625 30.609375 48.390625 
z
M 30.609375 56 
Q 42.328125 56 49.015625 48.375 
Q 55.71875 40.765625 55.71875 27.296875 
Q 55.71875 13.875 49.015625 6.21875 
Q 42.328125 -1.421875 30.609375 -1.421875 
Q 18.84375 -1.421875 12.171875 6.21875 
Q 5.515625 13.875 5.515625 27.296875 
Q 5.515625 40.765625 12.171875 48.375 
Q 18.84375 56 30.609375 56 
z
" id="DejaVuSans-111"/>
       <path d="M 8.5 21.578125 
L 8.5 54.6875 
L 17.484375 54.6875 
L 17.484375 21.921875 
Q 17.484375 14.15625 20.5 10.265625 
Q 23.53125 6.390625 29.59375 6.390625 
Q 36.859375 6.390625 41.078125 11.03125 
Q 45.3125 15.671875 45.3125 23.6875 
L 45.3125 54.6875 
L 54.296875 54.6875 
L 54.296875 0 
L 45.3125 0 
L 45.3125 8.40625 
Q 42.046875 3.421875 37.71875 1 
Q 33.40625 -1.421875 27.6875 -1.421875 
Q 18.265625 -1.421875 13.375 4.4375 
Q 8.5 10.296875 8.5 21.578125 
z
M 31.109375 56 
z
" id="DejaVuSans-117"/>
       <path d="M 48.6875 27.296875 
Q 48.6875 37.203125 44.609375 42.84375 
Q 40.53125 48.484375 33.40625 48.484375 
Q 26.265625 48.484375 22.1875 42.84375 
Q 18.109375 37.203125 18.109375 27.296875 
Q 18.109375 17.390625 22.1875 11.75 
Q 26.265625 6.109375 33.40625 6.109375 
Q 40.53125 6.109375 44.609375 11.75 
Q 48.6875 17.390625 48.6875 27.296875 
z
M 18.109375 46.390625 
Q 20.953125 51.265625 25.265625 53.625 
Q 29.59375 56 35.59375 56 
Q 45.5625 56 51.78125 48.09375 
Q 58.015625 40.1875 58.015625 27.296875 
Q 58.015625 14.40625 51.78125 6.484375 
Q 45.5625 -1.421875 35.59375 -1.421875 
Q 29.59375 -1.421875 25.265625 0.953125 
Q 20.953125 3.328125 18.109375 8.203125 
L 18.109375 0 
L 9.078125 0 
L 9.078125 75.984375 
L 18.109375 75.984375 
z
" id="DejaVuSans-98"/>
       <path d="M 9.421875 75.984375 
L 18.40625 75.984375 
L 18.40625 0 
L 9.421875 0 
z
" id="DejaVuSans-108"/>
       <path d="M 2.984375 54.6875 
L 12.5 54.6875 
L 29.59375 8.796875 
L 46.6875 54.6875 
L 56.203125 54.6875 
L 35.6875 0 
L 23.484375 0 
z
" id="DejaVuSans-118"/>
       <path d="M 41.109375 46.296875 
Q 39.59375 47.171875 37.8125 47.578125 
Q 36.03125 48 33.890625 48 
Q 26.265625 48 22.1875 43.046875 
Q 18.109375 38.09375 18.109375 28.8125 
L 18.109375 0 
L 9.078125 0 
L 9.078125 54.6875 
L 18.109375 54.6875 
L 18.109375 46.1875 
Q 20.953125 51.171875 25.484375 53.578125 
Q 30.03125 56 36.53125 56 
Q 37.453125 56 38.578125 55.875 
Q 39.703125 55.765625 41.0625 55.515625 
z
" id="DejaVuSans-114"/>
       <path d="M 32.171875 -5.078125 
Q 28.375 -14.84375 24.75 -17.8125 
Q 21.140625 -20.796875 15.09375 -20.796875 
L 7.90625 -20.796875 
L 7.90625 -13.28125 
L 13.1875 -13.28125 
Q 16.890625 -13.28125 18.9375 -11.515625 
Q 21 -9.765625 23.484375 -3.21875 
L 25.09375 0.875 
L 2.984375 54.6875 
L 12.5 54.6875 
L 29.59375 11.921875 
L 46.6875 54.6875 
L 56.203125 54.6875 
z
" id="DejaVuSans-121"/>
       <path d="M 55.71875 33.015625 
L 49.3125 0 
L 40.28125 0 
L 46.6875 32.671875 
Q 47.125 34.96875 47.359375 36.71875 
Q 47.609375 38.484375 47.609375 39.5 
Q 47.609375 43.609375 45.015625 45.890625 
Q 42.4375 48.1875 37.796875 48.1875 
Q 30.5625 48.1875 25.34375 43.375 
Q 20.125 38.578125 18.5 30.328125 
L 12.5 0 
L 3.515625 0 
L 14.109375 54.6875 
L 23.09375 54.6875 
L 21.296875 46.09375 
Q 25.046875 50.828125 30.3125 53.40625 
Q 35.59375 56 41.40625 56 
Q 48.640625 56 52.609375 52.09375 
Q 56.59375 48.1875 56.59375 41.109375 
Q 56.59375 39.359375 56.375 37.359375 
Q 56.15625 35.359375 55.71875 33.015625 
z
" id="DejaVuSans-Oblique-110"/>
       <path d="M 31 75.875 
Q 24.46875 64.65625 21.28125 53.65625 
Q 18.109375 42.671875 18.109375 31.390625 
Q 18.109375 20.125 21.3125 9.0625 
Q 24.515625 -2 31 -13.1875 
L 23.1875 -13.1875 
Q 15.875 -1.703125 12.234375 9.375 
Q 8.59375 20.453125 8.59375 31.390625 
Q 8.59375 42.28125 12.203125 53.3125 
Q 15.828125 64.359375 23.1875 75.875 
z
" id="DejaVuSans-40"/>
       <path d="M 9.078125 75.984375 
L 18.109375 75.984375 
L 18.109375 31.109375 
L 44.921875 54.6875 
L 56.390625 54.6875 
L 27.390625 29.109375 
L 57.625 0 
L 45.90625 0 
L 18.109375 26.703125 
L 18.109375 0 
L 9.078125 0 
z
" id="DejaVuSans-107"/>
       <path d="M 4.203125 54.6875 
L 13.1875 54.6875 
L 24.421875 12.015625 
L 35.59375 54.6875 
L 46.1875 54.6875 
L 57.421875 12.015625 
L 68.609375 54.6875 
L 77.59375 54.6875 
L 63.28125 0 
L 52.6875 0 
L 40.921875 44.828125 
L 29.109375 0 
L 18.5 0 
z
" id="DejaVuSans-119"/>
       <path d="M 45.40625 27.984375 
Q 45.40625 37.75 41.375 43.109375 
Q 37.359375 48.484375 30.078125 48.484375 
Q 22.859375 48.484375 18.828125 43.109375 
Q 14.796875 37.75 14.796875 27.984375 
Q 14.796875 18.265625 18.828125 12.890625 
Q 22.859375 7.515625 30.078125 7.515625 
Q 37.359375 7.515625 41.375 12.890625 
Q 45.40625 18.265625 45.40625 27.984375 
z
M 54.390625 6.78125 
Q 54.390625 -7.171875 48.1875 -13.984375 
Q 42 -20.796875 29.203125 -20.796875 
Q 24.46875 -20.796875 20.265625 -20.09375 
Q 16.0625 -19.390625 12.109375 -17.921875 
L 12.109375 -9.1875 
Q 16.0625 -11.328125 19.921875 -12.34375 
Q 23.78125 -13.375 27.78125 -13.375 
Q 36.625 -13.375 41.015625 -8.765625 
Q 45.40625 -4.15625 45.40625 5.171875 
L 45.40625 9.625 
Q 42.625 4.78125 38.28125 2.390625 
Q 33.9375 0 27.875 0 
Q 17.828125 0 11.671875 7.65625 
Q 5.515625 15.328125 5.515625 27.984375 
Q 5.515625 40.671875 11.671875 48.328125 
Q 17.828125 56 27.875 56 
Q 33.9375 56 38.28125 53.609375 
Q 42.625 51.21875 45.40625 46.390625 
L 45.40625 54.6875 
L 54.390625 54.6875 
z
" id="DejaVuSans-103"/>
       <path d="M 37.796875 64.3125 
L 12.890625 25.390625 
L 37.796875 25.390625 
z
M 35.203125 72.90625 
L 47.609375 72.90625 
L 47.609375 25.390625 
L 58.015625 25.390625 
L 58.015625 17.1875 
L 47.609375 17.1875 
L 47.609375 0 
L 37.796875 0 
L 37.796875 17.1875 
L 4.890625 17.1875 
L 4.890625 26.703125 
z
" id="DejaVuSans-52"/>
       <path d="M 8.015625 75.875 
L 15.828125 75.875 
Q 23.140625 64.359375 26.78125 53.3125 
Q 30.421875 42.28125 30.421875 31.390625 
Q 30.421875 20.453125 26.78125 9.375 
Q 23.140625 -1.703125 15.828125 -13.1875 
L 8.015625 -13.1875 
Q 14.5 -2 17.703125 9.0625 
Q 20.90625 20.125 20.90625 31.390625 
Q 20.90625 42.671875 17.703125 53.65625 
Q 14.5 64.65625 8.015625 75.875 
z
" id="DejaVuSans-41"/>
      </defs>
      <use transform="translate(0 0.015625)" xlink:href="#DejaVuSans-99"/>
      <use transform="translate(54.980469 0.015625)" xlink:href="#DejaVuSans-97"/>
      <use transform="translate(116.259766 0.015625)" xlink:href="#DejaVuSans-115"/>
      <use transform="translate(168.359375 0.015625)" xlink:href="#DejaVuSans-101"/>
      <use transform="translate(229.882812 0.015625)" xlink:href="#DejaVuSans-115"/>
      <use transform="translate(281.982422 0.015625)" xlink:href="#DejaVuSans-32"/>
      <use transform="translate(313.769531 0.015625)" xlink:href="#DejaVuSans-100"/>
      <use transform="translate(377.246094 0.015625)" xlink:href="#DejaVuSans-111"/>
      <use transform="translate(438.427734 0.015625)" xlink:href="#DejaVuSans-117"/>
      <use transform="translate(501.806641 0.015625)" xlink:href="#DejaVuSans-98"/>
      <use transform="translate(565.283203 0.015625)" xlink:href="#DejaVuSans-108"/>
      <use transform="translate(593.066406 0.015625)" xlink:href="#DejaVuSans-101"/>
      <use transform="translate(654.589844 0.015625)" xlink:href="#DejaVuSans-32"/>
      <use transform="translate(686.376953 0.015625)" xlink:href="#DejaVuSans-101"/>
      <use transform="translate(747.900391 0.015625)" xlink:href="#DejaVuSans-118"/>
      <use transform="translate(807.080078 0.015625)" xlink:href="#DejaVuSans-101"/>
      <use transform="translate(868.603516 0.015625)" xlink:href="#DejaVuSans-114"/>
      <use transform="translate(909.716797 0.015625)" xlink:href="#DejaVuSans-121"/>
      <use transform="translate(968.896484 0.015625)" xlink:href="#DejaVuSans-32"/>
      <use transform="translate(1000.683594 0.015625)" xlink:href="#DejaVuSans-Oblique-110"/>
      <use transform="translate(1064.0625 0.015625)" xlink:href="#DejaVuSans-32"/>
      <use transform="translate(1095.849609 0.015625)" xlink:href="#DejaVuSans-100"/>
      <use transform="translate(1159.326172 0.015625)" xlink:href="#DejaVuSans-97"/>
      <use transform="translate(1220.605469 0.015625)" xlink:href="#DejaVuSans-121"/>
      <use transform="translate(1279.785156 0.015625)" xlink:href="#DejaVuSans-115"/>
      <use transform="translate(1331.884766 0.015625)" xlink:href="#DejaVuSans-32"/>
      <use transform="translate(1363.671875 0.015625)" xlink:href="#DejaVuSans-40"/>
      <use transform="translate(1402.685547 0.015625)" xlink:href="#DejaVuSans-98"/>
      <use transform="translate(1466.162109 0.015625)" xlink:href="#DejaVuSans-97"/>
      <use transform="translate(1527.441406 0.015625)" xlink:href="#DejaVuSans-99"/>
      <use transform="translate(1582.421875 0.015625)" xlink:href="#DejaVuSans-107"/>
      <use transform="translate(1640.332031 0.015625)" xlink:href="#DejaVuSans-119"/>
      <use transform="translate(1722.119141 0.015625)" xlink:href="#DejaVuSans-32"/>
      <use transform="translate(1753.90625 0.015625)" xlink:href="#DejaVuSans-97"/>
      <use transform="translate(1815.185547 0.015625)" xlink:href="#DejaVuSans-118"/>
      <use transform="translate(1874.365234 0.015625)" xlink:href="#DejaVuSans-103"/>
      <use transform="translate(1937.841797 0.015625)" xlink:href="#DejaVuSans-32"/>
      <use transform="translate(1969.628906 0.015625)" xlink:href="#DejaVuSans-111"/>
      <use transform="translate(2030.810547 0.015625)" xlink:href="#DejaVuSans-118"/>
      <use transform="translate(2089.990234 0.015625)" xlink:href="#DejaVuSans-101"/>
      <use transform="translate(2151.513672 0.015625)" xlink:href="#DejaVuSans-114"/>
      <use transform="translate(2192.626953 0.015625)" xlink:href="#DejaVuSans-32"/>
      <use transform="translate(2224.414062 0.015625)" xlink:href="#DejaVuSans-52"/>
      <use transform="translate(2288.037109 0.015625)" xlink:href="#DejaVuSans-32"/>
      <use transform="translate(2319.824219 0.015625)" xlink:href="#DejaVuSans-100"/>
      <use transform="translate(2383.300781 0.015625)" xlink:href="#DejaVuSans-97"/>
      <use transform="translate(2444.580078 0.015625)" xlink:href="#DejaVuSans-121"/>
      <use transform="translate(2503.759766 0.015625)" xlink:href="#DejaVuSans-115"/>
      <use transform="translate(2555.859375 0.015625)" xlink:href="#DejaVuSans-41"/>
     </g>
    </g>
   </g>
   <g id="line2d_133">
    <path clip-path="url(#pe6dbe748e3)" d="M 149.972727 512.64 
L 155.392902 512.64 
M 162.619801 391.327608 
L 166.23325 391.327608 
L 168.039975 477.1584 
L 169.8467 462.490658 
L 171.653425 467.867206 
L 173.460149 467.867206 
L 175.266874 95.025173 
L 177.073599 95.025173 
M 193.334122 378.877075 
L 196.947572 378.877075 
L 198.754296 416.348938 
L 200.561021 398.457334 
L 202.367746 426.427774 
L 204.174471 464.348805 
L 205.981196 462.490658 
L 207.78792 460.094021 
L 209.594645 475.010289 
L 211.40137 470.288198 
L 213.208095 477.627568 
L 215.014819 477.40636 
L 216.821544 470.484467 
L 218.628269 464.722308 
L 220.434994 454.885332 
L 222.241719 451.245173 
L 224.048443 417.971052 
L 225.855168 458.848579 
L 227.661893 467.760125 
L 229.468618 458.778847 
L 231.275342 472.242709 
L 233.082067 457.671505 
L 234.888792 453.934753 
L 236.695517 455.750948 
L 238.502242 460.911591 
L 240.308966 460.852559 
L 242.115691 449.261416 
L 243.922416 458.397791 
L 245.729141 443.355938 
L 247.535866 436.162902 
L 249.34259 444.463796 
L 251.149315 449.974089 
L 252.95604 447.201408 
L 254.762765 444.204623 
L 256.569489 436.06004 
L 258.376214 422.721661 
L 260.182939 422.434452 
L 261.989664 422.678163 
L 263.796389 422.242772 
L 265.603113 416.387386 
L 267.409838 410.91873 
L 269.216563 396.946922 
L 271.023288 379.297874 
L 272.830012 379.574307 
L 274.636737 352.663671 
L 276.443462 374.32117 
L 278.250187 374.475439 
L 280.056912 361.968206 
L 281.863636 352.57874 
L 283.670361 307.721365 
L 285.477086 288.586285 
L 287.283811 267.573102 
L 289.090535 270.761092 
L 290.89726 260.929657 
L 292.703985 263.238913 
L 294.51071 252.873212 
L 298.124159 195.156806 
L 299.930884 158.849146 
L 301.737609 159.048463 
L 303.544334 158.518135 
L 305.351059 147.210614 
L 307.157783 130.012243 
L 308.964508 86.794713 
L 310.771233 52.436685 
L 312.577958 77.711248 
L 314.384682 105.553911 
L 316.191407 110.975178 
L 317.998132 105.994635 
L 319.804857 50.055603 
L 321.28779 -1 
M 322.527453 -1 
L 323.418306 9.843255 
L 325.225031 29.582717 
L 327.031756 34.757166 
L 328.838481 12.520242 
L 329.167021 -1 
M 426.040631 -1 
L 426.239253 577 
M 431.933413 577 
L 432.072813 -1 
M 595.882033 -1 
L 596.233748 37.982979 
L 598.040473 77.9745 
L 599.847198 121.842718 
L 601.653923 119.32842 
L 603.460648 66.128413 
L 605.267372 64.844521 
L 607.074097 57.364813 
L 608.880822 36.272491 
L 610.409122 -1 
M 611.425648 -1 
L 612.494271 8.83097 
L 614.300996 31.516937 
L 616.107721 62.401305 
L 617.914446 62.5714 
L 619.721171 44.113848 
L 621.527895 11.703282 
L 623.059041 -1 
M 623.483326 -1 
L 625.141345 24.492179 
L 626.94807 73.232051 
L 628.754795 83.842517 
L 630.561519 81.319651 
L 632.368244 77.255467 
L 634.174969 28.11673 
L 635.981694 13.750194 
L 637.788418 15.036931 
L 639.595143 11.217278 
L 643.208593 24.292668 
L 645.015318 7.343861 
L 645.744444 -1 
L 645.744444 -1 
" style="fill:none;stroke:#1f77b4;stroke-linecap:square;stroke-width:1.5;"/>
    <defs>
     <path d="M 0 3 
C 0.795609 3 1.55874 2.683901 2.12132 2.12132 
C 2.683901 1.55874 3 0.795609 3 0 
C 3 -0.795609 2.683901 -1.55874 2.12132 -2.12132 
C 1.55874 -2.683901 0.795609 -3 0 -3 
C -0.795609 -3 -1.55874 -2.683901 -2.12132 -2.12132 
C -2.683901 -1.55874 -3 -0.795609 -3 0 
C -3 0.795609 -2.683901 1.55874 -2.12132 2.12132 
C -1.55874 2.683901 -0.795609 3 0 3 
z
" id="mc5f8cd5679" style="stroke:#1f77b4;"/>
    </defs>
    <g clip-path="url(#pe6dbe748e3)">
     <use style="fill:#1f77b4;stroke:#1f77b4;" x="149.972727" xlink:href="#mc5f8cd5679" y="512.64"/>
     <use style="fill:#1f77b4;stroke:#1f77b4;" x="151.779452" xlink:href="#mc5f8cd5679" y="512.64"/>
     <use style="fill:#1f77b4;stroke:#1f77b4;" x="153.586177" xlink:href="#mc5f8cd5679" y="512.64"/>
     <use style="fill:#1f77b4;stroke:#1f77b4;" x="155.392902" xlink:href="#mc5f8cd5679" y="512.64"/>
     <use style="fill:#1f77b4;stroke:#1f77b4;" x="162.619801" xlink:href="#mc5f8cd5679" y="391.327608"/>
     <use style="fill:#1f77b4;stroke:#1f77b4;" x="164.426526" xlink:href="#mc5f8cd5679" y="391.327608"/>
     <use style="fill:#1f77b4;stroke:#1f77b4;" x="166.23325" xlink:href="#mc5f8cd5679" y="391.327608"/>
     <use style="fill:#1f77b4;stroke:#1f77b4;" x="168.039975" xlink:href="#mc5f8cd5679" y="477.1584"/>
     <use style="fill:#1f77b4;stroke:#1f77b4;" x="169.8467" xlink:href="#mc5f8cd5679" y="462.490658"/>
     <use style="fill:#1f77b4;stroke:#1f77b4;" x="171.653425" xlink:href="#mc5f8cd5679" y="467.867206"/>
     <use style="fill:#1f77b4;stroke:#1f77b4;" x="173.460149" xlink:href="#mc5f8cd5679" y="467.867206"/>
     <use style="fill:#1f77b4;stroke:#1f77b4;" x="175.266874" xlink:href="#mc5f8cd5679" y="95.025173"/>
     <use style="fill:#1f77b4;stroke:#1f77b4;" x="177.073599" xlink:href="#mc5f8cd5679" y="95.025173"/>
     <use style="fill:#1f77b4;stroke:#1f77b4;" x="193.334122" xlink:href="#mc5f8cd5679" y="378.877075"/>
     <use style="fill:#1f77b4;stroke:#1f77b4;" x="195.140847" xlink:href="#mc5f8cd5679" y="378.877075"/>
     <use style="fill:#1f77b4;stroke:#1f77b4;" x="196.947572" xlink:href="#mc5f8cd5679" y="378.877075"/>
     <use style="fill:#1f77b4;stroke:#1f77b4;" x="198.754296" xlink:href="#mc5f8cd5679" y="416.348938"/>
     <use style="fill:#1f77b4;stroke:#1f77b4;" x="200.561021" xlink:href="#mc5f8cd5679" y="398.457334"/>
     <use style="fill:#1f77b4;stroke:#1f77b4;" x="202.367746" xlink:href="#mc5f8cd5679" y="426.427774"/>
     <use style="fill:#1f77b4;stroke:#1f77b4;" x="204.174471" xlink:href="#mc5f8cd5679" y="464.348805"/>
     <use style="fill:#1f77b4;stroke:#1f77b4;" x="205.981196" xlink:href="#mc5f8cd5679" y="462.490658"/>
     <use style="fill:#1f77b4;stroke:#1f77b4;" x="207.78792" xlink:href="#mc5f8cd5679" y="460.094021"/>
     <use style="fill:#1f77b4;stroke:#1f77b4;" x="209.594645" xlink:href="#mc5f8cd5679" y="475.010289"/>
     <use style="fill:#1f77b4;stroke:#1f77b4;" x="211.40137" xlink:href="#mc5f8cd5679" y="470.288198"/>
     <use style="fill:#1f77b4;stroke:#1f77b4;" x="213.208095" xlink:href="#mc5f8cd5679" y="477.627568"/>
     <use style="fill:#1f77b4;stroke:#1f77b4;" x="215.014819" xlink:href="#mc5f8cd5679" y="477.40636"/>
     <use style="fill:#1f77b4;stroke:#1f77b4;" x="216.821544" xlink:href="#mc5f8cd5679" y="470.484467"/>
     <use style="fill:#1f77b4;stroke:#1f77b4;" x="218.628269" xlink:href="#mc5f8cd5679" y="464.722308"/>
     <use style="fill:#1f77b4;stroke:#1f77b4;" x="220.434994" xlink:href="#mc5f8cd5679" y="454.885332"/>
     <use style="fill:#1f77b4;stroke:#1f77b4;" x="222.241719" xlink:href="#mc5f8cd5679" y="451.245173"/>
     <use style="fill:#1f77b4;stroke:#1f77b4;" x="224.048443" xlink:href="#mc5f8cd5679" y="417.971052"/>
     <use style="fill:#1f77b4;stroke:#1f77b4;" x="225.855168" xlink:href="#mc5f8cd5679" y="458.848579"/>
     <use style="fill:#1f77b4;stroke:#1f77b4;" x="227.661893" xlink:href="#mc5f8cd5679" y="467.760125"/>
     <use style="fill:#1f77b4;stroke:#1f77b4;" x="229.468618" xlink:href="#mc5f8cd5679" y="458.778847"/>
     <use style="fill:#1f77b4;stroke:#1f77b4;" x="231.275342" xlink:href="#mc5f8cd5679" y="472.242709"/>
     <use style="fill:#1f77b4;stroke:#1f77b4;" x="233.082067" xlink:href="#mc5f8cd5679" y="457.671505"/>
     <use style="fill:#1f77b4;stroke:#1f77b4;" x="234.888792" xlink:href="#mc5f8cd5679" y="453.934753"/>
     <use style="fill:#1f77b4;stroke:#1f77b4;" x="236.695517" xlink:href="#mc5f8cd5679" y="455.750948"/>
     <use style="fill:#1f77b4;stroke:#1f77b4;" x="238.502242" xlink:href="#mc5f8cd5679" y="460.911591"/>
     <use style="fill:#1f77b4;stroke:#1f77b4;" x="240.308966" xlink:href="#mc5f8cd5679" y="460.852559"/>
     <use style="fill:#1f77b4;stroke:#1f77b4;" x="242.115691" xlink:href="#mc5f8cd5679" y="449.261416"/>
     <use style="fill:#1f77b4;stroke:#1f77b4;" x="243.922416" xlink:href="#mc5f8cd5679" y="458.397791"/>
     <use style="fill:#1f77b4;stroke:#1f77b4;" x="245.729141" xlink:href="#mc5f8cd5679" y="443.355938"/>
     <use style="fill:#1f77b4;stroke:#1f77b4;" x="247.535866" xlink:href="#mc5f8cd5679" y="436.162902"/>
     <use style="fill:#1f77b4;stroke:#1f77b4;" x="249.34259" xlink:href="#mc5f8cd5679" y="444.463796"/>
     <use style="fill:#1f77b4;stroke:#1f77b4;" x="251.149315" xlink:href="#mc5f8cd5679" y="449.974089"/>
     <use style="fill:#1f77b4;stroke:#1f77b4;" x="252.95604" xlink:href="#mc5f8cd5679" y="447.201408"/>
     <use style="fill:#1f77b4;stroke:#1f77b4;" x="254.762765" xlink:href="#mc5f8cd5679" y="444.204623"/>
     <use style="fill:#1f77b4;stroke:#1f77b4;" x="256.569489" xlink:href="#mc5f8cd5679" y="436.06004"/>
     <use style="fill:#1f77b4;stroke:#1f77b4;" x="258.376214" xlink:href="#mc5f8cd5679" y="422.721661"/>
     <use style="fill:#1f77b4;stroke:#1f77b4;" x="260.182939" xlink:href="#mc5f8cd5679" y="422.434452"/>
     <use style="fill:#1f77b4;stroke:#1f77b4;" x="261.989664" xlink:href="#mc5f8cd5679" y="422.678163"/>
     <use style="fill:#1f77b4;stroke:#1f77b4;" x="263.796389" xlink:href="#mc5f8cd5679" y="422.242772"/>
     <use style="fill:#1f77b4;stroke:#1f77b4;" x="265.603113" xlink:href="#mc5f8cd5679" y="416.387386"/>
     <use style="fill:#1f77b4;stroke:#1f77b4;" x="267.409838" xlink:href="#mc5f8cd5679" y="410.91873"/>
     <use style="fill:#1f77b4;stroke:#1f77b4;" x="269.216563" xlink:href="#mc5f8cd5679" y="396.946922"/>
     <use style="fill:#1f77b4;stroke:#1f77b4;" x="271.023288" xlink:href="#mc5f8cd5679" y="379.297874"/>
     <use style="fill:#1f77b4;stroke:#1f77b4;" x="272.830012" xlink:href="#mc5f8cd5679" y="379.574307"/>
     <use style="fill:#1f77b4;stroke:#1f77b4;" x="274.636737" xlink:href="#mc5f8cd5679" y="352.663671"/>
     <use style="fill:#1f77b4;stroke:#1f77b4;" x="276.443462" xlink:href="#mc5f8cd5679" y="374.32117"/>
     <use style="fill:#1f77b4;stroke:#1f77b4;" x="278.250187" xlink:href="#mc5f8cd5679" y="374.475439"/>
     <use style="fill:#1f77b4;stroke:#1f77b4;" x="280.056912" xlink:href="#mc5f8cd5679" y="361.968206"/>
     <use style="fill:#1f77b4;stroke:#1f77b4;" x="281.863636" xlink:href="#mc5f8cd5679" y="352.57874"/>
     <use style="fill:#1f77b4;stroke:#1f77b4;" x="283.670361" xlink:href="#mc5f8cd5679" y="307.721365"/>
     <use style="fill:#1f77b4;stroke:#1f77b4;" x="285.477086" xlink:href="#mc5f8cd5679" y="288.586285"/>
     <use style="fill:#1f77b4;stroke:#1f77b4;" x="287.283811" xlink:href="#mc5f8cd5679" y="267.573102"/>
     <use style="fill:#1f77b4;stroke:#1f77b4;" x="289.090535" xlink:href="#mc5f8cd5679" y="270.761092"/>
     <use style="fill:#1f77b4;stroke:#1f77b4;" x="290.89726" xlink:href="#mc5f8cd5679" y="260.929657"/>
     <use style="fill:#1f77b4;stroke:#1f77b4;" x="292.703985" xlink:href="#mc5f8cd5679" y="263.238913"/>
     <use style="fill:#1f77b4;stroke:#1f77b4;" x="294.51071" xlink:href="#mc5f8cd5679" y="252.873212"/>
     <use style="fill:#1f77b4;stroke:#1f77b4;" x="296.317435" xlink:href="#mc5f8cd5679" y="224.11128"/>
     <use style="fill:#1f77b4;stroke:#1f77b4;" x="298.124159" xlink:href="#mc5f8cd5679" y="195.156806"/>
     <use style="fill:#1f77b4;stroke:#1f77b4;" x="299.930884" xlink:href="#mc5f8cd5679" y="158.849146"/>
     <use style="fill:#1f77b4;stroke:#1f77b4;" x="301.737609" xlink:href="#mc5f8cd5679" y="159.048463"/>
     <use style="fill:#1f77b4;stroke:#1f77b4;" x="303.544334" xlink:href="#mc5f8cd5679" y="158.518135"/>
     <use style="fill:#1f77b4;stroke:#1f77b4;" x="305.351059" xlink:href="#mc5f8cd5679" y="147.210614"/>
     <use style="fill:#1f77b4;stroke:#1f77b4;" x="307.157783" xlink:href="#mc5f8cd5679" y="130.012243"/>
     <use style="fill:#1f77b4;stroke:#1f77b4;" x="308.964508" xlink:href="#mc5f8cd5679" y="86.794713"/>
     <use style="fill:#1f77b4;stroke:#1f77b4;" x="310.771233" xlink:href="#mc5f8cd5679" y="52.436685"/>
     <use style="fill:#1f77b4;stroke:#1f77b4;" x="312.577958" xlink:href="#mc5f8cd5679" y="77.711248"/>
     <use style="fill:#1f77b4;stroke:#1f77b4;" x="314.384682" xlink:href="#mc5f8cd5679" y="105.553911"/>
     <use style="fill:#1f77b4;stroke:#1f77b4;" x="316.191407" xlink:href="#mc5f8cd5679" y="110.975178"/>
     <use style="fill:#1f77b4;stroke:#1f77b4;" x="317.998132" xlink:href="#mc5f8cd5679" y="105.994635"/>
     <use style="fill:#1f77b4;stroke:#1f77b4;" x="319.804857" xlink:href="#mc5f8cd5679" y="50.055603"/>
     <use style="fill:#1f77b4;stroke:#1f77b4;" x="321.28779" xlink:href="#mc5f8cd5679" y="-1"/>
     <use style="fill:#1f77b4;stroke:#1f77b4;" x="322.527453" xlink:href="#mc5f8cd5679" y="-1"/>
     <use style="fill:#1f77b4;stroke:#1f77b4;" x="323.418306" xlink:href="#mc5f8cd5679" y="9.843255"/>
     <use style="fill:#1f77b4;stroke:#1f77b4;" x="325.225031" xlink:href="#mc5f8cd5679" y="29.582717"/>
     <use style="fill:#1f77b4;stroke:#1f77b4;" x="327.031756" xlink:href="#mc5f8cd5679" y="34.757166"/>
     <use style="fill:#1f77b4;stroke:#1f77b4;" x="328.838481" xlink:href="#mc5f8cd5679" y="12.520242"/>
     <use style="fill:#1f77b4;stroke:#1f77b4;" x="329.167021" xlink:href="#mc5f8cd5679" y="-1"/>
     <use style="fill:#1f77b4;stroke:#1f77b4;" x="426.040631" xlink:href="#mc5f8cd5679" y="-1"/>
     <use style="fill:#1f77b4;stroke:#1f77b4;" x="426.401619" xlink:href="#mc5f8cd5679" y="1049.489829"/>
     <use style="fill:#1f77b4;stroke:#1f77b4;" x="428.208344" xlink:href="#mc5f8cd5679" y="1044.649517"/>
     <use style="fill:#1f77b4;stroke:#1f77b4;" x="430.015068" xlink:href="#mc5f8cd5679" y="1044.567861"/>
     <use style="fill:#1f77b4;stroke:#1f77b4;" x="431.821793" xlink:href="#mc5f8cd5679" y="1039.811027"/>
     <use style="fill:#1f77b4;stroke:#1f77b4;" x="432.072813" xlink:href="#mc5f8cd5679" y="-1"/>
     <use style="fill:#1f77b4;stroke:#1f77b4;" x="595.882033" xlink:href="#mc5f8cd5679" y="-1"/>
     <use style="fill:#1f77b4;stroke:#1f77b4;" x="596.233748" xlink:href="#mc5f8cd5679" y="37.982979"/>
     <use style="fill:#1f77b4;stroke:#1f77b4;" x="598.040473" xlink:href="#mc5f8cd5679" y="77.9745"/>
     <use style="fill:#1f77b4;stroke:#1f77b4;" x="599.847198" xlink:href="#mc5f8cd5679" y="121.842718"/>
     <use style="fill:#1f77b4;stroke:#1f77b4;" x="601.653923" xlink:href="#mc5f8cd5679" y="119.32842"/>
     <use style="fill:#1f77b4;stroke:#1f77b4;" x="603.460648" xlink:href="#mc5f8cd5679" y="66.128413"/>
     <use style="fill:#1f77b4;stroke:#1f77b4;" x="605.267372" xlink:href="#mc5f8cd5679" y="64.844521"/>
     <use style="fill:#1f77b4;stroke:#1f77b4;" x="607.074097" xlink:href="#mc5f8cd5679" y="57.364813"/>
     <use style="fill:#1f77b4;stroke:#1f77b4;" x="608.880822" xlink:href="#mc5f8cd5679" y="36.272491"/>
     <use style="fill:#1f77b4;stroke:#1f77b4;" x="610.409122" xlink:href="#mc5f8cd5679" y="-1"/>
     <use style="fill:#1f77b4;stroke:#1f77b4;" x="611.425648" xlink:href="#mc5f8cd5679" y="-1"/>
     <use style="fill:#1f77b4;stroke:#1f77b4;" x="612.494271" xlink:href="#mc5f8cd5679" y="8.83097"/>
     <use style="fill:#1f77b4;stroke:#1f77b4;" x="614.300996" xlink:href="#mc5f8cd5679" y="31.516937"/>
     <use style="fill:#1f77b4;stroke:#1f77b4;" x="616.107721" xlink:href="#mc5f8cd5679" y="62.401305"/>
     <use style="fill:#1f77b4;stroke:#1f77b4;" x="617.914446" xlink:href="#mc5f8cd5679" y="62.5714"/>
     <use style="fill:#1f77b4;stroke:#1f77b4;" x="619.721171" xlink:href="#mc5f8cd5679" y="44.113848"/>
     <use style="fill:#1f77b4;stroke:#1f77b4;" x="621.527895" xlink:href="#mc5f8cd5679" y="11.703282"/>
     <use style="fill:#1f77b4;stroke:#1f77b4;" x="623.059041" xlink:href="#mc5f8cd5679" y="-1"/>
     <use style="fill:#1f77b4;stroke:#1f77b4;" x="623.483326" xlink:href="#mc5f8cd5679" y="-1"/>
     <use style="fill:#1f77b4;stroke:#1f77b4;" x="625.141345" xlink:href="#mc5f8cd5679" y="24.492179"/>
     <use style="fill:#1f77b4;stroke:#1f77b4;" x="626.94807" xlink:href="#mc5f8cd5679" y="73.232051"/>
     <use style="fill:#1f77b4;stroke:#1f77b4;" x="628.754795" xlink:href="#mc5f8cd5679" y="83.842517"/>
     <use style="fill:#1f77b4;stroke:#1f77b4;" x="630.561519" xlink:href="#mc5f8cd5679" y="81.319651"/>
     <use style="fill:#1f77b4;stroke:#1f77b4;" x="632.368244" xlink:href="#mc5f8cd5679" y="77.255467"/>
     <use style="fill:#1f77b4;stroke:#1f77b4;" x="634.174969" xlink:href="#mc5f8cd5679" y="28.11673"/>
     <use style="fill:#1f77b4;stroke:#1f77b4;" x="635.981694" xlink:href="#mc5f8cd5679" y="13.750194"/>
     <use style="fill:#1f77b4;stroke:#1f77b4;" x="637.788418" xlink:href="#mc5f8cd5679" y="15.036931"/>
     <use style="fill:#1f77b4;stroke:#1f77b4;" x="639.595143" xlink:href="#mc5f8cd5679" y="11.217278"/>
     <use style="fill:#1f77b4;stroke:#1f77b4;" x="641.401868" xlink:href="#mc5f8cd5679" y="17.684507"/>
     <use style="fill:#1f77b4;stroke:#1f77b4;" x="643.208593" xlink:href="#mc5f8cd5679" y="24.292668"/>
     <use style="fill:#1f77b4;stroke:#1f77b4;" x="645.015318" xlink:href="#mc5f8cd5679" y="7.343861"/>
     <use style="fill:#1f77b4;stroke:#1f77b4;" x="645.744444" xlink:href="#mc5f8cd5679" y="-1"/>
    </g>
   </g>
   <g id="patch_3">
    <path d="M 117 512.64 
L 117 69.12 
" style="fill:none;stroke:#000000;stroke-linecap:square;stroke-linejoin:miter;stroke-width:0.8;"/>
   </g>
   <g id="patch_4">
    <path d="M 842.4 512.64 
L 842.4 69.12 
" style="fill:none;stroke:#000000;stroke-linecap:square;stroke-linejoin:miter;stroke-width:0.8;"/>
   </g>
   <g id="patch_5">
    <path d="M 117 512.64 
L 842.4 512.64 
" style="fill:none;stroke:#000000;stroke-linecap:square;stroke-linejoin:miter;stroke-width:0.8;"/>
   </g>
   <g id="patch_6">
    <path d="M 117 69.12 
L 842.4 69.12 
" style="fill:none;stroke:#000000;stroke-linecap:square;stroke-linejoin:miter;stroke-width:0.8;"/>
   </g>
   <g id="text_16">
    <!-- Confirmed cases in United Kingdom double every $n$ days (2020-01-22..2021-01-30) -->
    <g transform="translate(229.32 63.12)scale(0.12 -0.12)">
     <defs>
      <path d="M 64.40625 67.28125 
L 64.40625 56.890625 
Q 59.421875 61.53125 53.78125 63.8125 
Q 48.140625 66.109375 41.796875 66.109375 
Q 29.296875 66.109375 22.65625 58.46875 
Q 16.015625 50.828125 16.015625 36.375 
Q 16.015625 21.96875 22.65625 14.328125 
Q 29.296875 6.6875 41.796875 6.6875 
Q 48.140625 6.6875 53.78125 8.984375 
Q 59.421875 11.28125 64.40625 15.921875 
L 64.40625 5.609375 
Q 59.234375 2.09375 53.4375 0.328125 
Q 47.65625 -1.421875 41.21875 -1.421875 
Q 24.65625 -1.421875 15.125 8.703125 
Q 5.609375 18.84375 5.609375 36.375 
Q 5.609375 53.953125 15.125 64.078125 
Q 24.65625 74.21875 41.21875 74.21875 
Q 47.75 74.21875 53.53125 72.484375 
Q 59.328125 70.75 64.40625 67.28125 
z
" id="DejaVuSans-67"/>
      <path d="M 54.890625 33.015625 
L 54.890625 0 
L 45.90625 0 
L 45.90625 32.71875 
Q 45.90625 40.484375 42.875 44.328125 
Q 39.84375 48.1875 33.796875 48.1875 
Q 26.515625 48.1875 22.3125 43.546875 
Q 18.109375 38.921875 18.109375 30.90625 
L 18.109375 0 
L 9.078125 0 
L 9.078125 54.6875 
L 18.109375 54.6875 
L 18.109375 46.1875 
Q 21.34375 51.125 25.703125 53.5625 
Q 30.078125 56 35.796875 56 
Q 45.21875 56 50.046875 50.171875 
Q 54.890625 44.34375 54.890625 33.015625 
z
" id="DejaVuSans-110"/>
      <path d="M 37.109375 75.984375 
L 37.109375 68.5 
L 28.515625 68.5 
Q 23.6875 68.5 21.796875 66.546875 
Q 19.921875 64.59375 19.921875 59.515625 
L 19.921875 54.6875 
L 34.71875 54.6875 
L 34.71875 47.703125 
L 19.921875 47.703125 
L 19.921875 0 
L 10.890625 0 
L 10.890625 47.703125 
L 2.296875 47.703125 
L 2.296875 54.6875 
L 10.890625 54.6875 
L 10.890625 58.5 
Q 10.890625 67.625 15.140625 71.796875 
Q 19.390625 75.984375 28.609375 75.984375 
z
" id="DejaVuSans-102"/>
      <path d="M 9.421875 54.6875 
L 18.40625 54.6875 
L 18.40625 0 
L 9.421875 0 
z
M 9.421875 75.984375 
L 18.40625 75.984375 
L 18.40625 64.59375 
L 9.421875 64.59375 
z
" id="DejaVuSans-105"/>
      <path d="M 52 44.1875 
Q 55.375 50.25 60.0625 53.125 
Q 64.75 56 71.09375 56 
Q 79.640625 56 84.28125 50.015625 
Q 88.921875 44.046875 88.921875 33.015625 
L 88.921875 0 
L 79.890625 0 
L 79.890625 32.71875 
Q 79.890625 40.578125 77.09375 44.375 
Q 74.3125 48.1875 68.609375 48.1875 
Q 61.625 48.1875 57.5625 43.546875 
Q 53.515625 38.921875 53.515625 30.90625 
L 53.515625 0 
L 44.484375 0 
L 44.484375 32.71875 
Q 44.484375 40.625 41.703125 44.40625 
Q 38.921875 48.1875 33.109375 48.1875 
Q 26.21875 48.1875 22.15625 43.53125 
Q 18.109375 38.875 18.109375 30.90625 
L 18.109375 0 
L 9.078125 0 
L 9.078125 54.6875 
L 18.109375 54.6875 
L 18.109375 46.1875 
Q 21.1875 51.21875 25.484375 53.609375 
Q 29.78125 56 35.6875 56 
Q 41.65625 56 45.828125 52.96875 
Q 50 49.953125 52 44.1875 
z
" id="DejaVuSans-109"/>
      <path d="M 8.6875 72.90625 
L 18.609375 72.90625 
L 18.609375 28.609375 
Q 18.609375 16.890625 22.84375 11.734375 
Q 27.09375 6.59375 36.625 6.59375 
Q 46.09375 6.59375 50.34375 11.734375 
Q 54.59375 16.890625 54.59375 28.609375 
L 54.59375 72.90625 
L 64.5 72.90625 
L 64.5 27.390625 
Q 64.5 13.140625 57.4375 5.859375 
Q 50.390625 -1.421875 36.625 -1.421875 
Q 22.796875 -1.421875 15.734375 5.859375 
Q 8.6875 13.140625 8.6875 27.390625 
z
" id="DejaVuSans-85"/>
      <path d="M 18.3125 70.21875 
L 18.3125 54.6875 
L 36.8125 54.6875 
L 36.8125 47.703125 
L 18.3125 47.703125 
L 18.3125 18.015625 
Q 18.3125 11.328125 20.140625 9.421875 
Q 21.96875 7.515625 27.59375 7.515625 
L 36.8125 7.515625 
L 36.8125 0 
L 27.59375 0 
Q 17.1875 0 13.234375 3.875 
Q 9.28125 7.765625 9.28125 18.015625 
L 9.28125 47.703125 
L 2.6875 47.703125 
L 2.6875 54.6875 
L 9.28125 54.6875 
L 9.28125 70.21875 
z
" id="DejaVuSans-116"/>
      <path d="M 9.8125 72.90625 
L 19.671875 72.90625 
L 19.671875 42.09375 
L 52.390625 72.90625 
L 65.09375 72.90625 
L 28.90625 38.921875 
L 67.671875 0 
L 54.6875 0 
L 19.671875 35.109375 
L 19.671875 0 
L 9.8125 0 
z
" id="DejaVuSans-75"/>
      <path d="M 10.6875 12.40625 
L 21 12.40625 
L 21 0 
L 10.6875 0 
z
" id="DejaVuSans-46"/>
     </defs>
     <use transform="translate(0 0.015625)" xlink:href="#DejaVuSans-67"/>
     <use transform="translate(69.824219 0.015625)" xlink:href="#DejaVuSans-111"/>
     <use transform="translate(131.005859 0.015625)" xlink:href="#DejaVuSans-110"/>
     <use transform="translate(194.384766 0.015625)" xlink:href="#DejaVuSans-102"/>
     <use transform="translate(229.589844 0.015625)" xlink:href="#DejaVuSans-105"/>
     <use transform="translate(257.373047 0.015625)" xlink:href="#DejaVuSans-114"/>
     <use transform="translate(298.486328 0.015625)" xlink:href="#DejaVuSans-109"/>
     <use transform="translate(395.898438 0.015625)" xlink:href="#DejaVuSans-101"/>
     <use transform="translate(457.421875 0.015625)" xlink:href="#DejaVuSans-100"/>
     <use transform="translate(520.898438 0.015625)" xlink:href="#DejaVuSans-32"/>
     <use transform="translate(552.685547 0.015625)" xlink:href="#DejaVuSans-99"/>
     <use transform="translate(607.666016 0.015625)" xlink:href="#DejaVuSans-97"/>
     <use transform="translate(668.945312 0.015625)" xlink:href="#DejaVuSans-115"/>
     <use transform="translate(721.044922 0.015625)" xlink:href="#DejaVuSans-101"/>
     <use transform="translate(782.568359 0.015625)" xlink:href="#DejaVuSans-115"/>
     <use transform="translate(834.667969 0.015625)" xlink:href="#DejaVuSans-32"/>
     <use transform="translate(866.455078 0.015625)" xlink:href="#DejaVuSans-105"/>
     <use transform="translate(894.238281 0.015625)" xlink:href="#DejaVuSans-110"/>
     <use transform="translate(957.617188 0.015625)" xlink:href="#DejaVuSans-32"/>
     <use transform="translate(989.404297 0.015625)" xlink:href="#DejaVuSans-85"/>
     <use transform="translate(1062.597656 0.015625)" xlink:href="#DejaVuSans-110"/>
     <use transform="translate(1125.976562 0.015625)" xlink:href="#DejaVuSans-105"/>
     <use transform="translate(1153.759766 0.015625)" xlink:href="#DejaVuSans-116"/>
     <use transform="translate(1192.96875 0.015625)" xlink:href="#DejaVuSans-101"/>
     <use transform="translate(1254.492188 0.015625)" xlink:href="#DejaVuSans-100"/>
     <use transform="translate(1317.96875 0.015625)" xlink:href="#DejaVuSans-32"/>
     <use transform="translate(1349.755859 0.015625)" xlink:href="#DejaVuSans-75"/>
     <use transform="translate(1415.332031 0.015625)" xlink:href="#DejaVuSans-105"/>
     <use transform="translate(1443.115234 0.015625)" xlink:href="#DejaVuSans-110"/>
     <use transform="translate(1506.494141 0.015625)" xlink:href="#DejaVuSans-103"/>
     <use transform="translate(1569.970703 0.015625)" xlink:href="#DejaVuSans-100"/>
     <use transform="translate(1633.447266 0.015625)" xlink:href="#DejaVuSans-111"/>
     <use transform="translate(1694.628906 0.015625)" xlink:href="#DejaVuSans-109"/>
     <use transform="translate(1792.041016 0.015625)" xlink:href="#DejaVuSans-32"/>
     <use transform="translate(1823.828125 0.015625)" xlink:href="#DejaVuSans-100"/>
     <use transform="translate(1887.304688 0.015625)" xlink:href="#DejaVuSans-111"/>
     <use transform="translate(1948.486328 0.015625)" xlink:href="#DejaVuSans-117"/>
     <use transform="translate(2011.865234 0.015625)" xlink:href="#DejaVuSans-98"/>
     <use transform="translate(2075.341797 0.015625)" xlink:href="#DejaVuSans-108"/>
     <use transform="translate(2103.125 0.015625)" xlink:href="#DejaVuSans-101"/>
     <use transform="translate(2164.648438 0.015625)" xlink:href="#DejaVuSans-32"/>
     <use transform="translate(2196.435547 0.015625)" xlink:href="#DejaVuSans-101"/>
     <use transform="translate(2257.958984 0.015625)" xlink:href="#DejaVuSans-118"/>
     <use transform="translate(2317.138672 0.015625)" xlink:href="#DejaVuSans-101"/>
     <use transform="translate(2378.662109 0.015625)" xlink:href="#DejaVuSans-114"/>
     <use transform="translate(2419.775391 0.015625)" xlink:href="#DejaVuSans-121"/>
     <use transform="translate(2478.955078 0.015625)" xlink:href="#DejaVuSans-32"/>
     <use transform="translate(2510.742188 0.015625)" xlink:href="#DejaVuSans-Oblique-110"/>
     <use transform="translate(2574.121094 0.015625)" xlink:href="#DejaVuSans-32"/>
     <use transform="translate(2605.908203 0.015625)" xlink:href="#DejaVuSans-100"/>
     <use transform="translate(2669.384766 0.015625)" xlink:href="#DejaVuSans-97"/>
     <use transform="translate(2730.664062 0.015625)" xlink:href="#DejaVuSans-121"/>
     <use transform="translate(2789.84375 0.015625)" xlink:href="#DejaVuSans-115"/>
     <use transform="translate(2841.943359 0.015625)" xlink:href="#DejaVuSans-32"/>
     <use transform="translate(2873.730469 0.015625)" xlink:href="#DejaVuSans-40"/>
     <use transform="translate(2912.744141 0.015625)" xlink:href="#DejaVuSans-50"/>
     <use transform="translate(2976.367188 0.015625)" xlink:href="#DejaVuSans-48"/>
     <use transform="translate(3039.990234 0.015625)" xlink:href="#DejaVuSans-50"/>
     <use transform="translate(3103.613281 0.015625)" xlink:href="#DejaVuSans-48"/>
     <use transform="translate(3167.236328 0.015625)" xlink:href="#DejaVuSans-45"/>
     <use transform="translate(3203.320312 0.015625)" xlink:href="#DejaVuSans-48"/>
     <use transform="translate(3266.943359 0.015625)" xlink:href="#DejaVuSans-49"/>
     <use transform="translate(3330.566406 0.015625)" xlink:href="#DejaVuSans-45"/>
     <use transform="translate(3366.650391 0.015625)" xlink:href="#DejaVuSans-50"/>
     <use transform="translate(3430.273438 0.015625)" xlink:href="#DejaVuSans-50"/>
     <use transform="translate(3493.896484 0.015625)" xlink:href="#DejaVuSans-46"/>
     <use transform="translate(3525.683594 0.015625)" xlink:href="#DejaVuSans-46"/>
     <use transform="translate(3551.970703 0.015625)" xlink:href="#DejaVuSans-50"/>
     <use transform="translate(3615.59375 0.015625)" xlink:href="#DejaVuSans-48"/>
     <use transform="translate(3679.216797 0.015625)" xlink:href="#DejaVuSans-50"/>
     <use transform="translate(3742.839844 0.015625)" xlink:href="#DejaVuSans-49"/>
     <use transform="translate(3806.462891 0.015625)" xlink:href="#DejaVuSans-45"/>
     <use transform="translate(3842.546875 0.015625)" xlink:href="#DejaVuSans-48"/>
     <use transform="translate(3906.169922 0.015625)" xlink:href="#DejaVuSans-49"/>
     <use transform="translate(3969.792969 0.015625)" xlink:href="#DejaVuSans-45"/>
     <use transform="translate(4005.876953 0.015625)" xlink:href="#DejaVuSans-51"/>
     <use transform="translate(4069.5 0.015625)" xlink:href="#DejaVuSans-48"/>
     <use transform="translate(4133.123047 0.015625)" xlink:href="#DejaVuSans-41"/>
    </g>
   </g>
   <g id="legend_1">
    <g id="patch_7">
     <path d="M 770.254687 91.798125 
L 835.4 91.798125 
Q 837.4 91.798125 837.4 89.798125 
L 837.4 76.12 
Q 837.4 74.12 835.4 74.12 
L 770.254687 74.12 
Q 768.254687 74.12 768.254687 76.12 
L 768.254687 89.798125 
Q 768.254687 91.798125 770.254687 91.798125 
z
" style="fill:#ffffff;opacity:0.8;stroke:#cccccc;stroke-linejoin:miter;"/>
    </g>
    <g id="line2d_134">
     <path d="M 772.254687 82.218438 
L 792.254687 82.218438 
" style="fill:none;stroke:#1f77b4;stroke-linecap:square;stroke-width:1.5;"/>
    </g>
    <g id="line2d_135">
     <g>
      <use style="fill:#1f77b4;stroke:#1f77b4;" x="782.254687" xlink:href="#mc5f8cd5679" y="82.218438"/>
     </g>
    </g>
    <g id="text_17">
     <!-- 4 days -->
     <g transform="translate(800.254687 85.718438)scale(0.1 -0.1)">
      <use xlink:href="#DejaVuSans-52"/>
      <use x="63.623047" xlink:href="#DejaVuSans-32"/>
      <use x="95.410156" xlink:href="#DejaVuSans-100"/>
      <use x="158.886719" xlink:href="#DejaVuSans-97"/>
      <use x="220.166016" xlink:href="#DejaVuSans-121"/>
      <use x="279.345703" xlink:href="#DejaVuSans-115"/>
     </g>
    </g>
   </g>
  </g>
 </g>
 <defs>
  <clipPath id="pe6dbe748e3">
   <rect height="443.52" width="725.4" x="117" y="69.12"/>
  </clipPath>
 </defs>
</svg>
