<?xml version="1.0" encoding="utf-8" standalone="no"?>
<!DOCTYPE svg PUBLIC "-//W3C//DTD SVG 1.1//EN"
  "http://www.w3.org/Graphics/SVG/1.1/DTD/svg11.dtd">
<!-- Created with matplotlib (https://matplotlib.org/) -->
<svg height="576pt" version="1.1" viewBox="0 0 936 576" width="936pt" xmlns="http://www.w3.org/2000/svg" xmlns:xlink="http://www.w3.org/1999/xlink">
 <metadata>
  <rdf:RDF xmlns:cc="http://creativecommons.org/ns#" xmlns:dc="http://purl.org/dc/elements/1.1/" xmlns:rdf="http://www.w3.org/1999/02/22-rdf-syntax-ns#">
   <cc:Work>
    <dc:type rdf:resource="http://purl.org/dc/dcmitype/StillImage"/>
    <dc:date>2020-12-14T21:35:00.008339</dc:date>
    <dc:format>image/svg+xml</dc:format>
    <dc:creator>
     <cc:Agent>
      <dc:title>Matplotlib v3.3.3, https://matplotlib.org/</dc:title>
     </cc:Agent>
    </dc:creator>
   </cc:Work>
  </rdf:RDF>
 </metadata>
 <defs>
  <style type="text/css">*{stroke-linecap:butt;stroke-linejoin:round;}</style>
 </defs>
 <g id="figure_1">
  <g id="patch_1">
   <path d="M 0 576 
L 936 576 
L 936 0 
L 0 0 
z
" style="fill:#ffffff;"/>
  </g>
  <g id="axes_1">
   <g id="patch_2">
    <path d="M 117 512.64 
L 842.4 512.64 
L 842.4 69.12 
L 117 69.12 
z
" style="fill:#ffffff;"/>
   </g>
   <g id="matplotlib.axis_1">
    <g id="xtick_1">
     <g id="line2d_1">
      <path clip-path="url(#p39e0e1fc8c)" d="M 131.250043 512.64 
L 131.250043 69.12 
" style="fill:none;stroke:#d8dcd6;stroke-dasharray:0.8,1.32;stroke-dashoffset:0;stroke-width:0.8;"/>
     </g>
     <g id="line2d_2">
      <defs>
       <path d="M 0 0 
L 0 3.5 
" id="m2730b65f8c" style="stroke:#000000;stroke-width:0.8;"/>
      </defs>
      <g>
       <use style="stroke:#000000;stroke-width:0.8;" x="131.250043" xlink:href="#m2730b65f8c" y="512.64"/>
      </g>
     </g>
     <g id="text_1">
      <!-- 2020-01-22 -->
      <g transform="translate(85.394094 562.816745)rotate(-40)scale(0.1 -0.1)">
       <defs>
        <path d="M 19.1875 8.296875 
L 53.609375 8.296875 
L 53.609375 0 
L 7.328125 0 
L 7.328125 8.296875 
Q 12.9375 14.109375 22.625 23.890625 
Q 32.328125 33.6875 34.8125 36.53125 
Q 39.546875 41.84375 41.421875 45.53125 
Q 43.3125 49.21875 43.3125 52.78125 
Q 43.3125 58.59375 39.234375 62.25 
Q 35.15625 65.921875 28.609375 65.921875 
Q 23.96875 65.921875 18.8125 64.3125 
Q 13.671875 62.703125 7.8125 59.421875 
L 7.8125 69.390625 
Q 13.765625 71.78125 18.9375 73 
Q 24.125 74.21875 28.421875 74.21875 
Q 39.75 74.21875 46.484375 68.546875 
Q 53.21875 62.890625 53.21875 53.421875 
Q 53.21875 48.921875 51.53125 44.890625 
Q 49.859375 40.875 45.40625 35.40625 
Q 44.1875 33.984375 37.640625 27.21875 
Q 31.109375 20.453125 19.1875 8.296875 
z
" id="DejaVuSans-50"/>
        <path d="M 31.78125 66.40625 
Q 24.171875 66.40625 20.328125 58.90625 
Q 16.5 51.421875 16.5 36.375 
Q 16.5 21.390625 20.328125 13.890625 
Q 24.171875 6.390625 31.78125 6.390625 
Q 39.453125 6.390625 43.28125 13.890625 
Q 47.125 21.390625 47.125 36.375 
Q 47.125 51.421875 43.28125 58.90625 
Q 39.453125 66.40625 31.78125 66.40625 
z
M 31.78125 74.21875 
Q 44.046875 74.21875 50.515625 64.515625 
Q 56.984375 54.828125 56.984375 36.375 
Q 56.984375 17.96875 50.515625 8.265625 
Q 44.046875 -1.421875 31.78125 -1.421875 
Q 19.53125 -1.421875 13.0625 8.265625 
Q 6.59375 17.96875 6.59375 36.375 
Q 6.59375 54.828125 13.0625 64.515625 
Q 19.53125 74.21875 31.78125 74.21875 
z
" id="DejaVuSans-48"/>
        <path d="M 4.890625 31.390625 
L 31.203125 31.390625 
L 31.203125 23.390625 
L 4.890625 23.390625 
z
" id="DejaVuSans-45"/>
        <path d="M 12.40625 8.296875 
L 28.515625 8.296875 
L 28.515625 63.921875 
L 10.984375 60.40625 
L 10.984375 69.390625 
L 28.421875 72.90625 
L 38.28125 72.90625 
L 38.28125 8.296875 
L 54.390625 8.296875 
L 54.390625 0 
L 12.40625 0 
z
" id="DejaVuSans-49"/>
       </defs>
       <use xlink:href="#DejaVuSans-50"/>
       <use x="63.623047" xlink:href="#DejaVuSans-48"/>
       <use x="127.246094" xlink:href="#DejaVuSans-50"/>
       <use x="190.869141" xlink:href="#DejaVuSans-48"/>
       <use x="254.492188" xlink:href="#DejaVuSans-45"/>
       <use x="290.576172" xlink:href="#DejaVuSans-48"/>
       <use x="354.199219" xlink:href="#DejaVuSans-49"/>
       <use x="417.822266" xlink:href="#DejaVuSans-45"/>
       <use x="453.90625" xlink:href="#DejaVuSans-50"/>
       <use x="517.529297" xlink:href="#DejaVuSans-50"/>
      </g>
     </g>
    </g>
    <g id="xtick_2">
     <g id="line2d_3">
      <path clip-path="url(#p39e0e1fc8c)" d="M 235.264956 512.64 
L 235.264956 69.12 
" style="fill:none;stroke:#d8dcd6;stroke-dasharray:0.8,1.32;stroke-dashoffset:0;stroke-width:0.8;"/>
     </g>
     <g id="line2d_4">
      <g>
       <use style="stroke:#000000;stroke-width:0.8;" x="235.264956" xlink:href="#m2730b65f8c" y="512.64"/>
      </g>
     </g>
     <g id="text_2">
      <!-- 2020-03-12 -->
      <g transform="translate(189.409007 562.816745)rotate(-40)scale(0.1 -0.1)">
       <defs>
        <path d="M 40.578125 39.3125 
Q 47.65625 37.796875 51.625 33 
Q 55.609375 28.21875 55.609375 21.1875 
Q 55.609375 10.40625 48.1875 4.484375 
Q 40.765625 -1.421875 27.09375 -1.421875 
Q 22.515625 -1.421875 17.65625 -0.515625 
Q 12.796875 0.390625 7.625 2.203125 
L 7.625 11.71875 
Q 11.71875 9.328125 16.59375 8.109375 
Q 21.484375 6.890625 26.8125 6.890625 
Q 36.078125 6.890625 40.9375 10.546875 
Q 45.796875 14.203125 45.796875 21.1875 
Q 45.796875 27.640625 41.28125 31.265625 
Q 36.765625 34.90625 28.71875 34.90625 
L 20.21875 34.90625 
L 20.21875 43.015625 
L 29.109375 43.015625 
Q 36.375 43.015625 40.234375 45.921875 
Q 44.09375 48.828125 44.09375 54.296875 
Q 44.09375 59.90625 40.109375 62.90625 
Q 36.140625 65.921875 28.71875 65.921875 
Q 24.65625 65.921875 20.015625 65.03125 
Q 15.375 64.15625 9.8125 62.3125 
L 9.8125 71.09375 
Q 15.4375 72.65625 20.34375 73.4375 
Q 25.25 74.21875 29.59375 74.21875 
Q 40.828125 74.21875 47.359375 69.109375 
Q 53.90625 64.015625 53.90625 55.328125 
Q 53.90625 49.265625 50.4375 45.09375 
Q 46.96875 40.921875 40.578125 39.3125 
z
" id="DejaVuSans-51"/>
       </defs>
       <use xlink:href="#DejaVuSans-50"/>
       <use x="63.623047" xlink:href="#DejaVuSans-48"/>
       <use x="127.246094" xlink:href="#DejaVuSans-50"/>
       <use x="190.869141" xlink:href="#DejaVuSans-48"/>
       <use x="254.492188" xlink:href="#DejaVuSans-45"/>
       <use x="290.576172" xlink:href="#DejaVuSans-48"/>
       <use x="354.199219" xlink:href="#DejaVuSans-51"/>
       <use x="417.822266" xlink:href="#DejaVuSans-45"/>
       <use x="453.90625" xlink:href="#DejaVuSans-49"/>
       <use x="517.529297" xlink:href="#DejaVuSans-50"/>
      </g>
     </g>
    </g>
    <g id="xtick_3">
     <g id="line2d_5">
      <path clip-path="url(#p39e0e1fc8c)" d="M 339.279868 512.64 
L 339.279868 69.12 
" style="fill:none;stroke:#d8dcd6;stroke-dasharray:0.8,1.32;stroke-dashoffset:0;stroke-width:0.8;"/>
     </g>
     <g id="line2d_6">
      <g>
       <use style="stroke:#000000;stroke-width:0.8;" x="339.279868" xlink:href="#m2730b65f8c" y="512.64"/>
      </g>
     </g>
     <g id="text_3">
      <!-- 2020-05-01 -->
      <g transform="translate(293.423919 562.816745)rotate(-40)scale(0.1 -0.1)">
       <defs>
        <path d="M 10.796875 72.90625 
L 49.515625 72.90625 
L 49.515625 64.59375 
L 19.828125 64.59375 
L 19.828125 46.734375 
Q 21.96875 47.46875 24.109375 47.828125 
Q 26.265625 48.1875 28.421875 48.1875 
Q 40.625 48.1875 47.75 41.5 
Q 54.890625 34.8125 54.890625 23.390625 
Q 54.890625 11.625 47.5625 5.09375 
Q 40.234375 -1.421875 26.90625 -1.421875 
Q 22.3125 -1.421875 17.546875 -0.640625 
Q 12.796875 0.140625 7.71875 1.703125 
L 7.71875 11.625 
Q 12.109375 9.234375 16.796875 8.0625 
Q 21.484375 6.890625 26.703125 6.890625 
Q 35.15625 6.890625 40.078125 11.328125 
Q 45.015625 15.765625 45.015625 23.390625 
Q 45.015625 31 40.078125 35.4375 
Q 35.15625 39.890625 26.703125 39.890625 
Q 22.75 39.890625 18.8125 39.015625 
Q 14.890625 38.140625 10.796875 36.28125 
z
" id="DejaVuSans-53"/>
       </defs>
       <use xlink:href="#DejaVuSans-50"/>
       <use x="63.623047" xlink:href="#DejaVuSans-48"/>
       <use x="127.246094" xlink:href="#DejaVuSans-50"/>
       <use x="190.869141" xlink:href="#DejaVuSans-48"/>
       <use x="254.492188" xlink:href="#DejaVuSans-45"/>
       <use x="290.576172" xlink:href="#DejaVuSans-48"/>
       <use x="354.199219" xlink:href="#DejaVuSans-53"/>
       <use x="417.822266" xlink:href="#DejaVuSans-45"/>
       <use x="453.90625" xlink:href="#DejaVuSans-48"/>
       <use x="517.529297" xlink:href="#DejaVuSans-49"/>
      </g>
     </g>
    </g>
    <g id="xtick_4">
     <g id="line2d_7">
      <path clip-path="url(#p39e0e1fc8c)" d="M 443.294781 512.64 
L 443.294781 69.12 
" style="fill:none;stroke:#d8dcd6;stroke-dasharray:0.8,1.32;stroke-dashoffset:0;stroke-width:0.8;"/>
     </g>
     <g id="line2d_8">
      <g>
       <use style="stroke:#000000;stroke-width:0.8;" x="443.294781" xlink:href="#m2730b65f8c" y="512.64"/>
      </g>
     </g>
     <g id="text_4">
      <!-- 2020-06-20 -->
      <g transform="translate(397.438832 562.816745)rotate(-40)scale(0.1 -0.1)">
       <defs>
        <path d="M 33.015625 40.375 
Q 26.375 40.375 22.484375 35.828125 
Q 18.609375 31.296875 18.609375 23.390625 
Q 18.609375 15.53125 22.484375 10.953125 
Q 26.375 6.390625 33.015625 6.390625 
Q 39.65625 6.390625 43.53125 10.953125 
Q 47.40625 15.53125 47.40625 23.390625 
Q 47.40625 31.296875 43.53125 35.828125 
Q 39.65625 40.375 33.015625 40.375 
z
M 52.59375 71.296875 
L 52.59375 62.3125 
Q 48.875 64.0625 45.09375 64.984375 
Q 41.3125 65.921875 37.59375 65.921875 
Q 27.828125 65.921875 22.671875 59.328125 
Q 17.53125 52.734375 16.796875 39.40625 
Q 19.671875 43.65625 24.015625 45.921875 
Q 28.375 48.1875 33.59375 48.1875 
Q 44.578125 48.1875 50.953125 41.515625 
Q 57.328125 34.859375 57.328125 23.390625 
Q 57.328125 12.15625 50.6875 5.359375 
Q 44.046875 -1.421875 33.015625 -1.421875 
Q 20.359375 -1.421875 13.671875 8.265625 
Q 6.984375 17.96875 6.984375 36.375 
Q 6.984375 53.65625 15.1875 63.9375 
Q 23.390625 74.21875 37.203125 74.21875 
Q 40.921875 74.21875 44.703125 73.484375 
Q 48.484375 72.75 52.59375 71.296875 
z
" id="DejaVuSans-54"/>
       </defs>
       <use xlink:href="#DejaVuSans-50"/>
       <use x="63.623047" xlink:href="#DejaVuSans-48"/>
       <use x="127.246094" xlink:href="#DejaVuSans-50"/>
       <use x="190.869141" xlink:href="#DejaVuSans-48"/>
       <use x="254.492188" xlink:href="#DejaVuSans-45"/>
       <use x="290.576172" xlink:href="#DejaVuSans-48"/>
       <use x="354.199219" xlink:href="#DejaVuSans-54"/>
       <use x="417.822266" xlink:href="#DejaVuSans-45"/>
       <use x="453.90625" xlink:href="#DejaVuSans-50"/>
       <use x="517.529297" xlink:href="#DejaVuSans-48"/>
      </g>
     </g>
    </g>
    <g id="xtick_5">
     <g id="line2d_9">
      <path clip-path="url(#p39e0e1fc8c)" d="M 547.309693 512.64 
L 547.309693 69.12 
" style="fill:none;stroke:#d8dcd6;stroke-dasharray:0.8,1.32;stroke-dashoffset:0;stroke-width:0.8;"/>
     </g>
     <g id="line2d_10">
      <g>
       <use style="stroke:#000000;stroke-width:0.8;" x="547.309693" xlink:href="#m2730b65f8c" y="512.64"/>
      </g>
     </g>
     <g id="text_5">
      <!-- 2020-08-09 -->
      <g transform="translate(501.453744 562.816745)rotate(-40)scale(0.1 -0.1)">
       <defs>
        <path d="M 31.78125 34.625 
Q 24.75 34.625 20.71875 30.859375 
Q 16.703125 27.09375 16.703125 20.515625 
Q 16.703125 13.921875 20.71875 10.15625 
Q 24.75 6.390625 31.78125 6.390625 
Q 38.8125 6.390625 42.859375 10.171875 
Q 46.921875 13.96875 46.921875 20.515625 
Q 46.921875 27.09375 42.890625 30.859375 
Q 38.875 34.625 31.78125 34.625 
z
M 21.921875 38.8125 
Q 15.578125 40.375 12.03125 44.71875 
Q 8.5 49.078125 8.5 55.328125 
Q 8.5 64.0625 14.71875 69.140625 
Q 20.953125 74.21875 31.78125 74.21875 
Q 42.671875 74.21875 48.875 69.140625 
Q 55.078125 64.0625 55.078125 55.328125 
Q 55.078125 49.078125 51.53125 44.71875 
Q 48 40.375 41.703125 38.8125 
Q 48.828125 37.15625 52.796875 32.3125 
Q 56.78125 27.484375 56.78125 20.515625 
Q 56.78125 9.90625 50.3125 4.234375 
Q 43.84375 -1.421875 31.78125 -1.421875 
Q 19.734375 -1.421875 13.25 4.234375 
Q 6.78125 9.90625 6.78125 20.515625 
Q 6.78125 27.484375 10.78125 32.3125 
Q 14.796875 37.15625 21.921875 38.8125 
z
M 18.3125 54.390625 
Q 18.3125 48.734375 21.84375 45.5625 
Q 25.390625 42.390625 31.78125 42.390625 
Q 38.140625 42.390625 41.71875 45.5625 
Q 45.3125 48.734375 45.3125 54.390625 
Q 45.3125 60.0625 41.71875 63.234375 
Q 38.140625 66.40625 31.78125 66.40625 
Q 25.390625 66.40625 21.84375 63.234375 
Q 18.3125 60.0625 18.3125 54.390625 
z
" id="DejaVuSans-56"/>
        <path d="M 10.984375 1.515625 
L 10.984375 10.5 
Q 14.703125 8.734375 18.5 7.8125 
Q 22.3125 6.890625 25.984375 6.890625 
Q 35.75 6.890625 40.890625 13.453125 
Q 46.046875 20.015625 46.78125 33.40625 
Q 43.953125 29.203125 39.59375 26.953125 
Q 35.25 24.703125 29.984375 24.703125 
Q 19.046875 24.703125 12.671875 31.3125 
Q 6.296875 37.9375 6.296875 49.421875 
Q 6.296875 60.640625 12.9375 67.421875 
Q 19.578125 74.21875 30.609375 74.21875 
Q 43.265625 74.21875 49.921875 64.515625 
Q 56.59375 54.828125 56.59375 36.375 
Q 56.59375 19.140625 48.40625 8.859375 
Q 40.234375 -1.421875 26.421875 -1.421875 
Q 22.703125 -1.421875 18.890625 -0.6875 
Q 15.09375 0.046875 10.984375 1.515625 
z
M 30.609375 32.421875 
Q 37.25 32.421875 41.125 36.953125 
Q 45.015625 41.5 45.015625 49.421875 
Q 45.015625 57.28125 41.125 61.84375 
Q 37.25 66.40625 30.609375 66.40625 
Q 23.96875 66.40625 20.09375 61.84375 
Q 16.21875 57.28125 16.21875 49.421875 
Q 16.21875 41.5 20.09375 36.953125 
Q 23.96875 32.421875 30.609375 32.421875 
z
" id="DejaVuSans-57"/>
       </defs>
       <use xlink:href="#DejaVuSans-50"/>
       <use x="63.623047" xlink:href="#DejaVuSans-48"/>
       <use x="127.246094" xlink:href="#DejaVuSans-50"/>
       <use x="190.869141" xlink:href="#DejaVuSans-48"/>
       <use x="254.492188" xlink:href="#DejaVuSans-45"/>
       <use x="290.576172" xlink:href="#DejaVuSans-48"/>
       <use x="354.199219" xlink:href="#DejaVuSans-56"/>
       <use x="417.822266" xlink:href="#DejaVuSans-45"/>
       <use x="453.90625" xlink:href="#DejaVuSans-48"/>
       <use x="517.529297" xlink:href="#DejaVuSans-57"/>
      </g>
     </g>
    </g>
    <g id="xtick_6">
     <g id="line2d_11">
      <path clip-path="url(#p39e0e1fc8c)" d="M 651.324606 512.64 
L 651.324606 69.12 
" style="fill:none;stroke:#d8dcd6;stroke-dasharray:0.8,1.32;stroke-dashoffset:0;stroke-width:0.8;"/>
     </g>
     <g id="line2d_12">
      <g>
       <use style="stroke:#000000;stroke-width:0.8;" x="651.324606" xlink:href="#m2730b65f8c" y="512.64"/>
      </g>
     </g>
     <g id="text_6">
      <!-- 2020-09-28 -->
      <g transform="translate(605.468657 562.816745)rotate(-40)scale(0.1 -0.1)">
       <use xlink:href="#DejaVuSans-50"/>
       <use x="63.623047" xlink:href="#DejaVuSans-48"/>
       <use x="127.246094" xlink:href="#DejaVuSans-50"/>
       <use x="190.869141" xlink:href="#DejaVuSans-48"/>
       <use x="254.492188" xlink:href="#DejaVuSans-45"/>
       <use x="290.576172" xlink:href="#DejaVuSans-48"/>
       <use x="354.199219" xlink:href="#DejaVuSans-57"/>
       <use x="417.822266" xlink:href="#DejaVuSans-45"/>
       <use x="453.90625" xlink:href="#DejaVuSans-50"/>
       <use x="517.529297" xlink:href="#DejaVuSans-56"/>
      </g>
     </g>
    </g>
    <g id="xtick_7">
     <g id="line2d_13">
      <path clip-path="url(#p39e0e1fc8c)" d="M 755.339518 512.64 
L 755.339518 69.12 
" style="fill:none;stroke:#d8dcd6;stroke-dasharray:0.8,1.32;stroke-dashoffset:0;stroke-width:0.8;"/>
     </g>
     <g id="line2d_14">
      <g>
       <use style="stroke:#000000;stroke-width:0.8;" x="755.339518" xlink:href="#m2730b65f8c" y="512.64"/>
      </g>
     </g>
     <g id="text_7">
      <!-- 2020-11-17 -->
      <g transform="translate(709.483569 562.816745)rotate(-40)scale(0.1 -0.1)">
       <defs>
        <path d="M 8.203125 72.90625 
L 55.078125 72.90625 
L 55.078125 68.703125 
L 28.609375 0 
L 18.3125 0 
L 43.21875 64.59375 
L 8.203125 64.59375 
z
" id="DejaVuSans-55"/>
       </defs>
       <use xlink:href="#DejaVuSans-50"/>
       <use x="63.623047" xlink:href="#DejaVuSans-48"/>
       <use x="127.246094" xlink:href="#DejaVuSans-50"/>
       <use x="190.869141" xlink:href="#DejaVuSans-48"/>
       <use x="254.492188" xlink:href="#DejaVuSans-45"/>
       <use x="290.576172" xlink:href="#DejaVuSans-49"/>
       <use x="354.199219" xlink:href="#DejaVuSans-49"/>
       <use x="417.822266" xlink:href="#DejaVuSans-45"/>
       <use x="453.90625" xlink:href="#DejaVuSans-49"/>
       <use x="517.529297" xlink:href="#DejaVuSans-55"/>
      </g>
     </g>
    </g>
    <g id="xtick_8">
     <g id="line2d_15">
      <path clip-path="url(#p39e0e1fc8c)" d="M 152.053026 512.64 
L 152.053026 69.12 
" style="fill:none;stroke:#d8dcd6;stroke-dasharray:0.8,1.32;stroke-dashoffset:0;stroke-width:0.8;"/>
     </g>
     <g id="line2d_16">
      <defs>
       <path d="M 0 0 
L 0 2 
" id="mb309e7aa26" style="stroke:#000000;stroke-width:0.6;"/>
      </defs>
      <g>
       <use style="stroke:#000000;stroke-width:0.6;" x="152.053026" xlink:href="#mb309e7aa26" y="512.64"/>
      </g>
     </g>
    </g>
    <g id="xtick_9">
     <g id="line2d_17">
      <path clip-path="url(#p39e0e1fc8c)" d="M 172.856008 512.64 
L 172.856008 69.12 
" style="fill:none;stroke:#d8dcd6;stroke-dasharray:0.8,1.32;stroke-dashoffset:0;stroke-width:0.8;"/>
     </g>
     <g id="line2d_18">
      <g>
       <use style="stroke:#000000;stroke-width:0.6;" x="172.856008" xlink:href="#mb309e7aa26" y="512.64"/>
      </g>
     </g>
    </g>
    <g id="xtick_10">
     <g id="line2d_19">
      <path clip-path="url(#p39e0e1fc8c)" d="M 193.658991 512.64 
L 193.658991 69.12 
" style="fill:none;stroke:#d8dcd6;stroke-dasharray:0.8,1.32;stroke-dashoffset:0;stroke-width:0.8;"/>
     </g>
     <g id="line2d_20">
      <g>
       <use style="stroke:#000000;stroke-width:0.6;" x="193.658991" xlink:href="#mb309e7aa26" y="512.64"/>
      </g>
     </g>
    </g>
    <g id="xtick_11">
     <g id="line2d_21">
      <path clip-path="url(#p39e0e1fc8c)" d="M 214.461973 512.64 
L 214.461973 69.12 
" style="fill:none;stroke:#d8dcd6;stroke-dasharray:0.8,1.32;stroke-dashoffset:0;stroke-width:0.8;"/>
     </g>
     <g id="line2d_22">
      <g>
       <use style="stroke:#000000;stroke-width:0.6;" x="214.461973" xlink:href="#mb309e7aa26" y="512.64"/>
      </g>
     </g>
    </g>
    <g id="xtick_12">
     <g id="line2d_23">
      <path clip-path="url(#p39e0e1fc8c)" d="M 256.067938 512.64 
L 256.067938 69.12 
" style="fill:none;stroke:#d8dcd6;stroke-dasharray:0.8,1.32;stroke-dashoffset:0;stroke-width:0.8;"/>
     </g>
     <g id="line2d_24">
      <g>
       <use style="stroke:#000000;stroke-width:0.6;" x="256.067938" xlink:href="#mb309e7aa26" y="512.64"/>
      </g>
     </g>
    </g>
    <g id="xtick_13">
     <g id="line2d_25">
      <path clip-path="url(#p39e0e1fc8c)" d="M 276.870921 512.64 
L 276.870921 69.12 
" style="fill:none;stroke:#d8dcd6;stroke-dasharray:0.8,1.32;stroke-dashoffset:0;stroke-width:0.8;"/>
     </g>
     <g id="line2d_26">
      <g>
       <use style="stroke:#000000;stroke-width:0.6;" x="276.870921" xlink:href="#mb309e7aa26" y="512.64"/>
      </g>
     </g>
    </g>
    <g id="xtick_14">
     <g id="line2d_27">
      <path clip-path="url(#p39e0e1fc8c)" d="M 297.673903 512.64 
L 297.673903 69.12 
" style="fill:none;stroke:#d8dcd6;stroke-dasharray:0.8,1.32;stroke-dashoffset:0;stroke-width:0.8;"/>
     </g>
     <g id="line2d_28">
      <g>
       <use style="stroke:#000000;stroke-width:0.6;" x="297.673903" xlink:href="#mb309e7aa26" y="512.64"/>
      </g>
     </g>
    </g>
    <g id="xtick_15">
     <g id="line2d_29">
      <path clip-path="url(#p39e0e1fc8c)" d="M 318.476886 512.64 
L 318.476886 69.12 
" style="fill:none;stroke:#d8dcd6;stroke-dasharray:0.8,1.32;stroke-dashoffset:0;stroke-width:0.8;"/>
     </g>
     <g id="line2d_30">
      <g>
       <use style="stroke:#000000;stroke-width:0.6;" x="318.476886" xlink:href="#mb309e7aa26" y="512.64"/>
      </g>
     </g>
    </g>
    <g id="xtick_16">
     <g id="line2d_31">
      <path clip-path="url(#p39e0e1fc8c)" d="M 360.082851 512.64 
L 360.082851 69.12 
" style="fill:none;stroke:#d8dcd6;stroke-dasharray:0.8,1.32;stroke-dashoffset:0;stroke-width:0.8;"/>
     </g>
     <g id="line2d_32">
      <g>
       <use style="stroke:#000000;stroke-width:0.6;" x="360.082851" xlink:href="#mb309e7aa26" y="512.64"/>
      </g>
     </g>
    </g>
    <g id="xtick_17">
     <g id="line2d_33">
      <path clip-path="url(#p39e0e1fc8c)" d="M 380.885833 512.64 
L 380.885833 69.12 
" style="fill:none;stroke:#d8dcd6;stroke-dasharray:0.8,1.32;stroke-dashoffset:0;stroke-width:0.8;"/>
     </g>
     <g id="line2d_34">
      <g>
       <use style="stroke:#000000;stroke-width:0.6;" x="380.885833" xlink:href="#mb309e7aa26" y="512.64"/>
      </g>
     </g>
    </g>
    <g id="xtick_18">
     <g id="line2d_35">
      <path clip-path="url(#p39e0e1fc8c)" d="M 401.688816 512.64 
L 401.688816 69.12 
" style="fill:none;stroke:#d8dcd6;stroke-dasharray:0.8,1.32;stroke-dashoffset:0;stroke-width:0.8;"/>
     </g>
     <g id="line2d_36">
      <g>
       <use style="stroke:#000000;stroke-width:0.6;" x="401.688816" xlink:href="#mb309e7aa26" y="512.64"/>
      </g>
     </g>
    </g>
    <g id="xtick_19">
     <g id="line2d_37">
      <path clip-path="url(#p39e0e1fc8c)" d="M 422.491798 512.64 
L 422.491798 69.12 
" style="fill:none;stroke:#d8dcd6;stroke-dasharray:0.8,1.32;stroke-dashoffset:0;stroke-width:0.8;"/>
     </g>
     <g id="line2d_38">
      <g>
       <use style="stroke:#000000;stroke-width:0.6;" x="422.491798" xlink:href="#mb309e7aa26" y="512.64"/>
      </g>
     </g>
    </g>
    <g id="xtick_20">
     <g id="line2d_39">
      <path clip-path="url(#p39e0e1fc8c)" d="M 464.097763 512.64 
L 464.097763 69.12 
" style="fill:none;stroke:#d8dcd6;stroke-dasharray:0.8,1.32;stroke-dashoffset:0;stroke-width:0.8;"/>
     </g>
     <g id="line2d_40">
      <g>
       <use style="stroke:#000000;stroke-width:0.6;" x="464.097763" xlink:href="#mb309e7aa26" y="512.64"/>
      </g>
     </g>
    </g>
    <g id="xtick_21">
     <g id="line2d_41">
      <path clip-path="url(#p39e0e1fc8c)" d="M 484.900746 512.64 
L 484.900746 69.12 
" style="fill:none;stroke:#d8dcd6;stroke-dasharray:0.8,1.32;stroke-dashoffset:0;stroke-width:0.8;"/>
     </g>
     <g id="line2d_42">
      <g>
       <use style="stroke:#000000;stroke-width:0.6;" x="484.900746" xlink:href="#mb309e7aa26" y="512.64"/>
      </g>
     </g>
    </g>
    <g id="xtick_22">
     <g id="line2d_43">
      <path clip-path="url(#p39e0e1fc8c)" d="M 505.703728 512.64 
L 505.703728 69.12 
" style="fill:none;stroke:#d8dcd6;stroke-dasharray:0.8,1.32;stroke-dashoffset:0;stroke-width:0.8;"/>
     </g>
     <g id="line2d_44">
      <g>
       <use style="stroke:#000000;stroke-width:0.6;" x="505.703728" xlink:href="#mb309e7aa26" y="512.64"/>
      </g>
     </g>
    </g>
    <g id="xtick_23">
     <g id="line2d_45">
      <path clip-path="url(#p39e0e1fc8c)" d="M 526.506711 512.64 
L 526.506711 69.12 
" style="fill:none;stroke:#d8dcd6;stroke-dasharray:0.8,1.32;stroke-dashoffset:0;stroke-width:0.8;"/>
     </g>
     <g id="line2d_46">
      <g>
       <use style="stroke:#000000;stroke-width:0.6;" x="526.506711" xlink:href="#mb309e7aa26" y="512.64"/>
      </g>
     </g>
    </g>
    <g id="xtick_24">
     <g id="line2d_47">
      <path clip-path="url(#p39e0e1fc8c)" d="M 568.112676 512.64 
L 568.112676 69.12 
" style="fill:none;stroke:#d8dcd6;stroke-dasharray:0.8,1.32;stroke-dashoffset:0;stroke-width:0.8;"/>
     </g>
     <g id="line2d_48">
      <g>
       <use style="stroke:#000000;stroke-width:0.6;" x="568.112676" xlink:href="#mb309e7aa26" y="512.64"/>
      </g>
     </g>
    </g>
    <g id="xtick_25">
     <g id="line2d_49">
      <path clip-path="url(#p39e0e1fc8c)" d="M 588.915658 512.64 
L 588.915658 69.12 
" style="fill:none;stroke:#d8dcd6;stroke-dasharray:0.8,1.32;stroke-dashoffset:0;stroke-width:0.8;"/>
     </g>
     <g id="line2d_50">
      <g>
       <use style="stroke:#000000;stroke-width:0.6;" x="588.915658" xlink:href="#mb309e7aa26" y="512.64"/>
      </g>
     </g>
    </g>
    <g id="xtick_26">
     <g id="line2d_51">
      <path clip-path="url(#p39e0e1fc8c)" d="M 609.718641 512.64 
L 609.718641 69.12 
" style="fill:none;stroke:#d8dcd6;stroke-dasharray:0.8,1.32;stroke-dashoffset:0;stroke-width:0.8;"/>
     </g>
     <g id="line2d_52">
      <g>
       <use style="stroke:#000000;stroke-width:0.6;" x="609.718641" xlink:href="#mb309e7aa26" y="512.64"/>
      </g>
     </g>
    </g>
    <g id="xtick_27">
     <g id="line2d_53">
      <path clip-path="url(#p39e0e1fc8c)" d="M 630.521623 512.64 
L 630.521623 69.12 
" style="fill:none;stroke:#d8dcd6;stroke-dasharray:0.8,1.32;stroke-dashoffset:0;stroke-width:0.8;"/>
     </g>
     <g id="line2d_54">
      <g>
       <use style="stroke:#000000;stroke-width:0.6;" x="630.521623" xlink:href="#mb309e7aa26" y="512.64"/>
      </g>
     </g>
    </g>
    <g id="xtick_28">
     <g id="line2d_55">
      <path clip-path="url(#p39e0e1fc8c)" d="M 672.127588 512.64 
L 672.127588 69.12 
" style="fill:none;stroke:#d8dcd6;stroke-dasharray:0.8,1.32;stroke-dashoffset:0;stroke-width:0.8;"/>
     </g>
     <g id="line2d_56">
      <g>
       <use style="stroke:#000000;stroke-width:0.6;" x="672.127588" xlink:href="#mb309e7aa26" y="512.64"/>
      </g>
     </g>
    </g>
    <g id="xtick_29">
     <g id="line2d_57">
      <path clip-path="url(#p39e0e1fc8c)" d="M 692.930571 512.64 
L 692.930571 69.12 
" style="fill:none;stroke:#d8dcd6;stroke-dasharray:0.8,1.32;stroke-dashoffset:0;stroke-width:0.8;"/>
     </g>
     <g id="line2d_58">
      <g>
       <use style="stroke:#000000;stroke-width:0.6;" x="692.930571" xlink:href="#mb309e7aa26" y="512.64"/>
      </g>
     </g>
    </g>
    <g id="xtick_30">
     <g id="line2d_59">
      <path clip-path="url(#p39e0e1fc8c)" d="M 713.733553 512.64 
L 713.733553 69.12 
" style="fill:none;stroke:#d8dcd6;stroke-dasharray:0.8,1.32;stroke-dashoffset:0;stroke-width:0.8;"/>
     </g>
     <g id="line2d_60">
      <g>
       <use style="stroke:#000000;stroke-width:0.6;" x="713.733553" xlink:href="#mb309e7aa26" y="512.64"/>
      </g>
     </g>
    </g>
    <g id="xtick_31">
     <g id="line2d_61">
      <path clip-path="url(#p39e0e1fc8c)" d="M 734.536536 512.64 
L 734.536536 69.12 
" style="fill:none;stroke:#d8dcd6;stroke-dasharray:0.8,1.32;stroke-dashoffset:0;stroke-width:0.8;"/>
     </g>
     <g id="line2d_62">
      <g>
       <use style="stroke:#000000;stroke-width:0.6;" x="734.536536" xlink:href="#mb309e7aa26" y="512.64"/>
      </g>
     </g>
    </g>
    <g id="xtick_32">
     <g id="line2d_63">
      <path clip-path="url(#p39e0e1fc8c)" d="M 776.142501 512.64 
L 776.142501 69.12 
" style="fill:none;stroke:#d8dcd6;stroke-dasharray:0.8,1.32;stroke-dashoffset:0;stroke-width:0.8;"/>
     </g>
     <g id="line2d_64">
      <g>
       <use style="stroke:#000000;stroke-width:0.6;" x="776.142501" xlink:href="#mb309e7aa26" y="512.64"/>
      </g>
     </g>
    </g>
    <g id="xtick_33">
     <g id="line2d_65">
      <path clip-path="url(#p39e0e1fc8c)" d="M 796.945483 512.64 
L 796.945483 69.12 
" style="fill:none;stroke:#d8dcd6;stroke-dasharray:0.8,1.32;stroke-dashoffset:0;stroke-width:0.8;"/>
     </g>
     <g id="line2d_66">
      <g>
       <use style="stroke:#000000;stroke-width:0.6;" x="796.945483" xlink:href="#mb309e7aa26" y="512.64"/>
      </g>
     </g>
    </g>
    <g id="xtick_34">
     <g id="line2d_67">
      <path clip-path="url(#p39e0e1fc8c)" d="M 817.748466 512.64 
L 817.748466 69.12 
" style="fill:none;stroke:#d8dcd6;stroke-dasharray:0.8,1.32;stroke-dashoffset:0;stroke-width:0.8;"/>
     </g>
     <g id="line2d_68">
      <g>
       <use style="stroke:#000000;stroke-width:0.6;" x="817.748466" xlink:href="#mb309e7aa26" y="512.64"/>
      </g>
     </g>
    </g>
    <g id="xtick_35">
     <g id="line2d_69">
      <path clip-path="url(#p39e0e1fc8c)" d="M 838.551448 512.64 
L 838.551448 69.12 
" style="fill:none;stroke:#d8dcd6;stroke-dasharray:0.8,1.32;stroke-dashoffset:0;stroke-width:0.8;"/>
     </g>
     <g id="line2d_70">
      <g>
       <use style="stroke:#000000;stroke-width:0.6;" x="838.551448" xlink:href="#mb309e7aa26" y="512.64"/>
      </g>
     </g>
    </g>
   </g>
   <g id="matplotlib.axis_2">
    <g id="ytick_1">
     <g id="line2d_71">
      <path clip-path="url(#p39e0e1fc8c)" d="M 117 512.64 
L 842.4 512.64 
" style="fill:none;stroke:#d8dcd6;stroke-dasharray:0.8,1.32;stroke-dashoffset:0;stroke-width:0.8;"/>
     </g>
     <g id="line2d_72">
      <defs>
       <path d="M 0 0 
L -3.5 0 
" id="ma34162c7ae" style="stroke:#000000;stroke-width:0.8;"/>
      </defs>
      <g>
       <use style="stroke:#000000;stroke-width:0.8;" x="117" xlink:href="#ma34162c7ae" y="512.64"/>
      </g>
     </g>
     <g id="text_8">
      <!-- 0 -->
      <g transform="translate(103.6375 516.439219)scale(0.1 -0.1)">
       <use xlink:href="#DejaVuSans-48"/>
      </g>
     </g>
    </g>
    <g id="ytick_2">
     <g id="line2d_73">
      <path clip-path="url(#p39e0e1fc8c)" d="M 117 423.936 
L 842.4 423.936 
" style="fill:none;stroke:#d8dcd6;stroke-dasharray:0.8,1.32;stroke-dashoffset:0;stroke-width:0.8;"/>
     </g>
     <g id="line2d_74">
      <g>
       <use style="stroke:#000000;stroke-width:0.8;" x="117" xlink:href="#ma34162c7ae" y="423.936"/>
      </g>
     </g>
     <g id="text_9">
      <!-- 5 -->
      <g transform="translate(103.6375 427.735219)scale(0.1 -0.1)">
       <use xlink:href="#DejaVuSans-53"/>
      </g>
     </g>
    </g>
    <g id="ytick_3">
     <g id="line2d_75">
      <path clip-path="url(#p39e0e1fc8c)" d="M 117 335.232 
L 842.4 335.232 
" style="fill:none;stroke:#d8dcd6;stroke-dasharray:0.8,1.32;stroke-dashoffset:0;stroke-width:0.8;"/>
     </g>
     <g id="line2d_76">
      <g>
       <use style="stroke:#000000;stroke-width:0.8;" x="117" xlink:href="#ma34162c7ae" y="335.232"/>
      </g>
     </g>
     <g id="text_10">
      <!-- 10 -->
      <g transform="translate(97.275 339.031219)scale(0.1 -0.1)">
       <use xlink:href="#DejaVuSans-49"/>
       <use x="63.623047" xlink:href="#DejaVuSans-48"/>
      </g>
     </g>
    </g>
    <g id="ytick_4">
     <g id="line2d_77">
      <path clip-path="url(#p39e0e1fc8c)" d="M 117 246.528 
L 842.4 246.528 
" style="fill:none;stroke:#d8dcd6;stroke-dasharray:0.8,1.32;stroke-dashoffset:0;stroke-width:0.8;"/>
     </g>
     <g id="line2d_78">
      <g>
       <use style="stroke:#000000;stroke-width:0.8;" x="117" xlink:href="#ma34162c7ae" y="246.528"/>
      </g>
     </g>
     <g id="text_11">
      <!-- 15 -->
      <g transform="translate(97.275 250.327219)scale(0.1 -0.1)">
       <use xlink:href="#DejaVuSans-49"/>
       <use x="63.623047" xlink:href="#DejaVuSans-53"/>
      </g>
     </g>
    </g>
    <g id="ytick_5">
     <g id="line2d_79">
      <path clip-path="url(#p39e0e1fc8c)" d="M 117 157.824 
L 842.4 157.824 
" style="fill:none;stroke:#d8dcd6;stroke-dasharray:0.8,1.32;stroke-dashoffset:0;stroke-width:0.8;"/>
     </g>
     <g id="line2d_80">
      <g>
       <use style="stroke:#000000;stroke-width:0.8;" x="117" xlink:href="#ma34162c7ae" y="157.824"/>
      </g>
     </g>
     <g id="text_12">
      <!-- 20 -->
      <g transform="translate(97.275 161.623219)scale(0.1 -0.1)">
       <use xlink:href="#DejaVuSans-50"/>
       <use x="63.623047" xlink:href="#DejaVuSans-48"/>
      </g>
     </g>
    </g>
    <g id="ytick_6">
     <g id="line2d_81">
      <path clip-path="url(#p39e0e1fc8c)" d="M 117 69.12 
L 842.4 69.12 
" style="fill:none;stroke:#d8dcd6;stroke-dasharray:0.8,1.32;stroke-dashoffset:0;stroke-width:0.8;"/>
     </g>
     <g id="line2d_82">
      <g>
       <use style="stroke:#000000;stroke-width:0.8;" x="117" xlink:href="#ma34162c7ae" y="69.12"/>
      </g>
     </g>
     <g id="text_13">
      <!-- 25 -->
      <g transform="translate(97.275 72.919219)scale(0.1 -0.1)">
       <use xlink:href="#DejaVuSans-50"/>
       <use x="63.623047" xlink:href="#DejaVuSans-53"/>
      </g>
     </g>
    </g>
    <g id="ytick_7">
     <g id="line2d_83">
      <path clip-path="url(#p39e0e1fc8c)" d="M 117 494.8992 
L 842.4 494.8992 
" style="fill:none;stroke:#d8dcd6;stroke-dasharray:0.8,1.32;stroke-dashoffset:0;stroke-width:0.8;"/>
     </g>
     <g id="line2d_84">
      <defs>
       <path d="M 0 0 
L -2 0 
" id="md42ae4f845" style="stroke:#000000;stroke-width:0.6;"/>
      </defs>
      <g>
       <use style="stroke:#000000;stroke-width:0.6;" x="117" xlink:href="#md42ae4f845" y="494.8992"/>
      </g>
     </g>
    </g>
    <g id="ytick_8">
     <g id="line2d_85">
      <path clip-path="url(#p39e0e1fc8c)" d="M 117 477.1584 
L 842.4 477.1584 
" style="fill:none;stroke:#d8dcd6;stroke-dasharray:0.8,1.32;stroke-dashoffset:0;stroke-width:0.8;"/>
     </g>
     <g id="line2d_86">
      <g>
       <use style="stroke:#000000;stroke-width:0.6;" x="117" xlink:href="#md42ae4f845" y="477.1584"/>
      </g>
     </g>
    </g>
    <g id="ytick_9">
     <g id="line2d_87">
      <path clip-path="url(#p39e0e1fc8c)" d="M 117 459.4176 
L 842.4 459.4176 
" style="fill:none;stroke:#d8dcd6;stroke-dasharray:0.8,1.32;stroke-dashoffset:0;stroke-width:0.8;"/>
     </g>
     <g id="line2d_88">
      <g>
       <use style="stroke:#000000;stroke-width:0.6;" x="117" xlink:href="#md42ae4f845" y="459.4176"/>
      </g>
     </g>
    </g>
    <g id="ytick_10">
     <g id="line2d_89">
      <path clip-path="url(#p39e0e1fc8c)" d="M 117 441.6768 
L 842.4 441.6768 
" style="fill:none;stroke:#d8dcd6;stroke-dasharray:0.8,1.32;stroke-dashoffset:0;stroke-width:0.8;"/>
     </g>
     <g id="line2d_90">
      <g>
       <use style="stroke:#000000;stroke-width:0.6;" x="117" xlink:href="#md42ae4f845" y="441.6768"/>
      </g>
     </g>
    </g>
    <g id="ytick_11">
     <g id="line2d_91">
      <path clip-path="url(#p39e0e1fc8c)" d="M 117 406.1952 
L 842.4 406.1952 
" style="fill:none;stroke:#d8dcd6;stroke-dasharray:0.8,1.32;stroke-dashoffset:0;stroke-width:0.8;"/>
     </g>
     <g id="line2d_92">
      <g>
       <use style="stroke:#000000;stroke-width:0.6;" x="117" xlink:href="#md42ae4f845" y="406.1952"/>
      </g>
     </g>
    </g>
    <g id="ytick_12">
     <g id="line2d_93">
      <path clip-path="url(#p39e0e1fc8c)" d="M 117 388.4544 
L 842.4 388.4544 
" style="fill:none;stroke:#d8dcd6;stroke-dasharray:0.8,1.32;stroke-dashoffset:0;stroke-width:0.8;"/>
     </g>
     <g id="line2d_94">
      <g>
       <use style="stroke:#000000;stroke-width:0.6;" x="117" xlink:href="#md42ae4f845" y="388.4544"/>
      </g>
     </g>
    </g>
    <g id="ytick_13">
     <g id="line2d_95">
      <path clip-path="url(#p39e0e1fc8c)" d="M 117 370.7136 
L 842.4 370.7136 
" style="fill:none;stroke:#d8dcd6;stroke-dasharray:0.8,1.32;stroke-dashoffset:0;stroke-width:0.8;"/>
     </g>
     <g id="line2d_96">
      <g>
       <use style="stroke:#000000;stroke-width:0.6;" x="117" xlink:href="#md42ae4f845" y="370.7136"/>
      </g>
     </g>
    </g>
    <g id="ytick_14">
     <g id="line2d_97">
      <path clip-path="url(#p39e0e1fc8c)" d="M 117 352.9728 
L 842.4 352.9728 
" style="fill:none;stroke:#d8dcd6;stroke-dasharray:0.8,1.32;stroke-dashoffset:0;stroke-width:0.8;"/>
     </g>
     <g id="line2d_98">
      <g>
       <use style="stroke:#000000;stroke-width:0.6;" x="117" xlink:href="#md42ae4f845" y="352.9728"/>
      </g>
     </g>
    </g>
    <g id="ytick_15">
     <g id="line2d_99">
      <path clip-path="url(#p39e0e1fc8c)" d="M 117 317.4912 
L 842.4 317.4912 
" style="fill:none;stroke:#d8dcd6;stroke-dasharray:0.8,1.32;stroke-dashoffset:0;stroke-width:0.8;"/>
     </g>
     <g id="line2d_100">
      <g>
       <use style="stroke:#000000;stroke-width:0.6;" x="117" xlink:href="#md42ae4f845" y="317.4912"/>
      </g>
     </g>
    </g>
    <g id="ytick_16">
     <g id="line2d_101">
      <path clip-path="url(#p39e0e1fc8c)" d="M 117 299.7504 
L 842.4 299.7504 
" style="fill:none;stroke:#d8dcd6;stroke-dasharray:0.8,1.32;stroke-dashoffset:0;stroke-width:0.8;"/>
     </g>
     <g id="line2d_102">
      <g>
       <use style="stroke:#000000;stroke-width:0.6;" x="117" xlink:href="#md42ae4f845" y="299.7504"/>
      </g>
     </g>
    </g>
    <g id="ytick_17">
     <g id="line2d_103">
      <path clip-path="url(#p39e0e1fc8c)" d="M 117 282.0096 
L 842.4 282.0096 
" style="fill:none;stroke:#d8dcd6;stroke-dasharray:0.8,1.32;stroke-dashoffset:0;stroke-width:0.8;"/>
     </g>
     <g id="line2d_104">
      <g>
       <use style="stroke:#000000;stroke-width:0.6;" x="117" xlink:href="#md42ae4f845" y="282.0096"/>
      </g>
     </g>
    </g>
    <g id="ytick_18">
     <g id="line2d_105">
      <path clip-path="url(#p39e0e1fc8c)" d="M 117 264.2688 
L 842.4 264.2688 
" style="fill:none;stroke:#d8dcd6;stroke-dasharray:0.8,1.32;stroke-dashoffset:0;stroke-width:0.8;"/>
     </g>
     <g id="line2d_106">
      <g>
       <use style="stroke:#000000;stroke-width:0.6;" x="117" xlink:href="#md42ae4f845" y="264.2688"/>
      </g>
     </g>
    </g>
    <g id="ytick_19">
     <g id="line2d_107">
      <path clip-path="url(#p39e0e1fc8c)" d="M 117 228.7872 
L 842.4 228.7872 
" style="fill:none;stroke:#d8dcd6;stroke-dasharray:0.8,1.32;stroke-dashoffset:0;stroke-width:0.8;"/>
     </g>
     <g id="line2d_108">
      <g>
       <use style="stroke:#000000;stroke-width:0.6;" x="117" xlink:href="#md42ae4f845" y="228.7872"/>
      </g>
     </g>
    </g>
    <g id="ytick_20">
     <g id="line2d_109">
      <path clip-path="url(#p39e0e1fc8c)" d="M 117 211.0464 
L 842.4 211.0464 
" style="fill:none;stroke:#d8dcd6;stroke-dasharray:0.8,1.32;stroke-dashoffset:0;stroke-width:0.8;"/>
     </g>
     <g id="line2d_110">
      <g>
       <use style="stroke:#000000;stroke-width:0.6;" x="117" xlink:href="#md42ae4f845" y="211.0464"/>
      </g>
     </g>
    </g>
    <g id="ytick_21">
     <g id="line2d_111">
      <path clip-path="url(#p39e0e1fc8c)" d="M 117 193.3056 
L 842.4 193.3056 
" style="fill:none;stroke:#d8dcd6;stroke-dasharray:0.8,1.32;stroke-dashoffset:0;stroke-width:0.8;"/>
     </g>
     <g id="line2d_112">
      <g>
       <use style="stroke:#000000;stroke-width:0.6;" x="117" xlink:href="#md42ae4f845" y="193.3056"/>
      </g>
     </g>
    </g>
    <g id="ytick_22">
     <g id="line2d_113">
      <path clip-path="url(#p39e0e1fc8c)" d="M 117 175.5648 
L 842.4 175.5648 
" style="fill:none;stroke:#d8dcd6;stroke-dasharray:0.8,1.32;stroke-dashoffset:0;stroke-width:0.8;"/>
     </g>
     <g id="line2d_114">
      <g>
       <use style="stroke:#000000;stroke-width:0.6;" x="117" xlink:href="#md42ae4f845" y="175.5648"/>
      </g>
     </g>
    </g>
    <g id="ytick_23">
     <g id="line2d_115">
      <path clip-path="url(#p39e0e1fc8c)" d="M 117 140.0832 
L 842.4 140.0832 
" style="fill:none;stroke:#d8dcd6;stroke-dasharray:0.8,1.32;stroke-dashoffset:0;stroke-width:0.8;"/>
     </g>
     <g id="line2d_116">
      <g>
       <use style="stroke:#000000;stroke-width:0.6;" x="117" xlink:href="#md42ae4f845" y="140.0832"/>
      </g>
     </g>
    </g>
    <g id="ytick_24">
     <g id="line2d_117">
      <path clip-path="url(#p39e0e1fc8c)" d="M 117 122.3424 
L 842.4 122.3424 
" style="fill:none;stroke:#d8dcd6;stroke-dasharray:0.8,1.32;stroke-dashoffset:0;stroke-width:0.8;"/>
     </g>
     <g id="line2d_118">
      <g>
       <use style="stroke:#000000;stroke-width:0.6;" x="117" xlink:href="#md42ae4f845" y="122.3424"/>
      </g>
     </g>
    </g>
    <g id="ytick_25">
     <g id="line2d_119">
      <path clip-path="url(#p39e0e1fc8c)" d="M 117 104.6016 
L 842.4 104.6016 
" style="fill:none;stroke:#d8dcd6;stroke-dasharray:0.8,1.32;stroke-dashoffset:0;stroke-width:0.8;"/>
     </g>
     <g id="line2d_120">
      <g>
       <use style="stroke:#000000;stroke-width:0.6;" x="117" xlink:href="#md42ae4f845" y="104.6016"/>
      </g>
     </g>
    </g>
    <g id="ytick_26">
     <g id="line2d_121">
      <path clip-path="url(#p39e0e1fc8c)" d="M 117 86.8608 
L 842.4 86.8608 
" style="fill:none;stroke:#d8dcd6;stroke-dasharray:0.8,1.32;stroke-dashoffset:0;stroke-width:0.8;"/>
     </g>
     <g id="line2d_122">
      <g>
       <use style="stroke:#000000;stroke-width:0.6;" x="117" xlink:href="#md42ae4f845" y="86.8608"/>
      </g>
     </g>
    </g>
    <g id="text_14">
     <!-- cases double every $n$ days (backw avg over 4 days) -->
     <g transform="translate(91.175 420.63)rotate(-90)scale(0.1 -0.1)">
      <defs>
       <path d="M 48.78125 52.59375 
L 48.78125 44.1875 
Q 44.96875 46.296875 41.140625 47.34375 
Q 37.3125 48.390625 33.40625 48.390625 
Q 24.65625 48.390625 19.8125 42.84375 
Q 14.984375 37.3125 14.984375 27.296875 
Q 14.984375 17.28125 19.8125 11.734375 
Q 24.65625 6.203125 33.40625 6.203125 
Q 37.3125 6.203125 41.140625 7.25 
Q 44.96875 8.296875 48.78125 10.40625 
L 48.78125 2.09375 
Q 45.015625 0.34375 40.984375 -0.53125 
Q 36.96875 -1.421875 32.421875 -1.421875 
Q 20.0625 -1.421875 12.78125 6.34375 
Q 5.515625 14.109375 5.515625 27.296875 
Q 5.515625 40.671875 12.859375 48.328125 
Q 20.21875 56 33.015625 56 
Q 37.15625 56 41.109375 55.140625 
Q 45.0625 54.296875 48.78125 52.59375 
z
" id="DejaVuSans-99"/>
       <path d="M 34.28125 27.484375 
Q 23.390625 27.484375 19.1875 25 
Q 14.984375 22.515625 14.984375 16.5 
Q 14.984375 11.71875 18.140625 8.90625 
Q 21.296875 6.109375 26.703125 6.109375 
Q 34.1875 6.109375 38.703125 11.40625 
Q 43.21875 16.703125 43.21875 25.484375 
L 43.21875 27.484375 
z
M 52.203125 31.203125 
L 52.203125 0 
L 43.21875 0 
L 43.21875 8.296875 
Q 40.140625 3.328125 35.546875 0.953125 
Q 30.953125 -1.421875 24.3125 -1.421875 
Q 15.921875 -1.421875 10.953125 3.296875 
Q 6 8.015625 6 15.921875 
Q 6 25.140625 12.171875 29.828125 
Q 18.359375 34.515625 30.609375 34.515625 
L 43.21875 34.515625 
L 43.21875 35.40625 
Q 43.21875 41.609375 39.140625 45 
Q 35.0625 48.390625 27.6875 48.390625 
Q 23 48.390625 18.546875 47.265625 
Q 14.109375 46.140625 10.015625 43.890625 
L 10.015625 52.203125 
Q 14.9375 54.109375 19.578125 55.046875 
Q 24.21875 56 28.609375 56 
Q 40.484375 56 46.34375 49.84375 
Q 52.203125 43.703125 52.203125 31.203125 
z
" id="DejaVuSans-97"/>
       <path d="M 44.28125 53.078125 
L 44.28125 44.578125 
Q 40.484375 46.53125 36.375 47.5 
Q 32.28125 48.484375 27.875 48.484375 
Q 21.1875 48.484375 17.84375 46.4375 
Q 14.5 44.390625 14.5 40.28125 
Q 14.5 37.15625 16.890625 35.375 
Q 19.28125 33.59375 26.515625 31.984375 
L 29.59375 31.296875 
Q 39.15625 29.25 43.1875 25.515625 
Q 47.21875 21.78125 47.21875 15.09375 
Q 47.21875 7.46875 41.1875 3.015625 
Q 35.15625 -1.421875 24.609375 -1.421875 
Q 20.21875 -1.421875 15.453125 -0.5625 
Q 10.6875 0.296875 5.421875 2 
L 5.421875 11.28125 
Q 10.40625 8.6875 15.234375 7.390625 
Q 20.0625 6.109375 24.8125 6.109375 
Q 31.15625 6.109375 34.5625 8.28125 
Q 37.984375 10.453125 37.984375 14.40625 
Q 37.984375 18.0625 35.515625 20.015625 
Q 33.0625 21.96875 24.703125 23.78125 
L 21.578125 24.515625 
Q 13.234375 26.265625 9.515625 29.90625 
Q 5.8125 33.546875 5.8125 39.890625 
Q 5.8125 47.609375 11.28125 51.796875 
Q 16.75 56 26.8125 56 
Q 31.78125 56 36.171875 55.265625 
Q 40.578125 54.546875 44.28125 53.078125 
z
" id="DejaVuSans-115"/>
       <path d="M 56.203125 29.59375 
L 56.203125 25.203125 
L 14.890625 25.203125 
Q 15.484375 15.921875 20.484375 11.0625 
Q 25.484375 6.203125 34.421875 6.203125 
Q 39.59375 6.203125 44.453125 7.46875 
Q 49.3125 8.734375 54.109375 11.28125 
L 54.109375 2.78125 
Q 49.265625 0.734375 44.1875 -0.34375 
Q 39.109375 -1.421875 33.890625 -1.421875 
Q 20.796875 -1.421875 13.15625 6.1875 
Q 5.515625 13.8125 5.515625 26.8125 
Q 5.515625 40.234375 12.765625 48.109375 
Q 20.015625 56 32.328125 56 
Q 43.359375 56 49.78125 48.890625 
Q 56.203125 41.796875 56.203125 29.59375 
z
M 47.21875 32.234375 
Q 47.125 39.59375 43.09375 43.984375 
Q 39.0625 48.390625 32.421875 48.390625 
Q 24.90625 48.390625 20.390625 44.140625 
Q 15.875 39.890625 15.1875 32.171875 
z
" id="DejaVuSans-101"/>
       <path id="DejaVuSans-32"/>
       <path d="M 45.40625 46.390625 
L 45.40625 75.984375 
L 54.390625 75.984375 
L 54.390625 0 
L 45.40625 0 
L 45.40625 8.203125 
Q 42.578125 3.328125 38.25 0.953125 
Q 33.9375 -1.421875 27.875 -1.421875 
Q 17.96875 -1.421875 11.734375 6.484375 
Q 5.515625 14.40625 5.515625 27.296875 
Q 5.515625 40.1875 11.734375 48.09375 
Q 17.96875 56 27.875 56 
Q 33.9375 56 38.25 53.625 
Q 42.578125 51.265625 45.40625 46.390625 
z
M 14.796875 27.296875 
Q 14.796875 17.390625 18.875 11.75 
Q 22.953125 6.109375 30.078125 6.109375 
Q 37.203125 6.109375 41.296875 11.75 
Q 45.40625 17.390625 45.40625 27.296875 
Q 45.40625 37.203125 41.296875 42.84375 
Q 37.203125 48.484375 30.078125 48.484375 
Q 22.953125 48.484375 18.875 42.84375 
Q 14.796875 37.203125 14.796875 27.296875 
z
" id="DejaVuSans-100"/>
       <path d="M 30.609375 48.390625 
Q 23.390625 48.390625 19.1875 42.75 
Q 14.984375 37.109375 14.984375 27.296875 
Q 14.984375 17.484375 19.15625 11.84375 
Q 23.34375 6.203125 30.609375 6.203125 
Q 37.796875 6.203125 41.984375 11.859375 
Q 46.1875 17.53125 46.1875 27.296875 
Q 46.1875 37.015625 41.984375 42.703125 
Q 37.796875 48.390625 30.609375 48.390625 
z
M 30.609375 56 
Q 42.328125 56 49.015625 48.375 
Q 55.71875 40.765625 55.71875 27.296875 
Q 55.71875 13.875 49.015625 6.21875 
Q 42.328125 -1.421875 30.609375 -1.421875 
Q 18.84375 -1.421875 12.171875 6.21875 
Q 5.515625 13.875 5.515625 27.296875 
Q 5.515625 40.765625 12.171875 48.375 
Q 18.84375 56 30.609375 56 
z
" id="DejaVuSans-111"/>
       <path d="M 8.5 21.578125 
L 8.5 54.6875 
L 17.484375 54.6875 
L 17.484375 21.921875 
Q 17.484375 14.15625 20.5 10.265625 
Q 23.53125 6.390625 29.59375 6.390625 
Q 36.859375 6.390625 41.078125 11.03125 
Q 45.3125 15.671875 45.3125 23.6875 
L 45.3125 54.6875 
L 54.296875 54.6875 
L 54.296875 0 
L 45.3125 0 
L 45.3125 8.40625 
Q 42.046875 3.421875 37.71875 1 
Q 33.40625 -1.421875 27.6875 -1.421875 
Q 18.265625 -1.421875 13.375 4.4375 
Q 8.5 10.296875 8.5 21.578125 
z
M 31.109375 56 
z
" id="DejaVuSans-117"/>
       <path d="M 48.6875 27.296875 
Q 48.6875 37.203125 44.609375 42.84375 
Q 40.53125 48.484375 33.40625 48.484375 
Q 26.265625 48.484375 22.1875 42.84375 
Q 18.109375 37.203125 18.109375 27.296875 
Q 18.109375 17.390625 22.1875 11.75 
Q 26.265625 6.109375 33.40625 6.109375 
Q 40.53125 6.109375 44.609375 11.75 
Q 48.6875 17.390625 48.6875 27.296875 
z
M 18.109375 46.390625 
Q 20.953125 51.265625 25.265625 53.625 
Q 29.59375 56 35.59375 56 
Q 45.5625 56 51.78125 48.09375 
Q 58.015625 40.1875 58.015625 27.296875 
Q 58.015625 14.40625 51.78125 6.484375 
Q 45.5625 -1.421875 35.59375 -1.421875 
Q 29.59375 -1.421875 25.265625 0.953125 
Q 20.953125 3.328125 18.109375 8.203125 
L 18.109375 0 
L 9.078125 0 
L 9.078125 75.984375 
L 18.109375 75.984375 
z
" id="DejaVuSans-98"/>
       <path d="M 9.421875 75.984375 
L 18.40625 75.984375 
L 18.40625 0 
L 9.421875 0 
z
" id="DejaVuSans-108"/>
       <path d="M 2.984375 54.6875 
L 12.5 54.6875 
L 29.59375 8.796875 
L 46.6875 54.6875 
L 56.203125 54.6875 
L 35.6875 0 
L 23.484375 0 
z
" id="DejaVuSans-118"/>
       <path d="M 41.109375 46.296875 
Q 39.59375 47.171875 37.8125 47.578125 
Q 36.03125 48 33.890625 48 
Q 26.265625 48 22.1875 43.046875 
Q 18.109375 38.09375 18.109375 28.8125 
L 18.109375 0 
L 9.078125 0 
L 9.078125 54.6875 
L 18.109375 54.6875 
L 18.109375 46.1875 
Q 20.953125 51.171875 25.484375 53.578125 
Q 30.03125 56 36.53125 56 
Q 37.453125 56 38.578125 55.875 
Q 39.703125 55.765625 41.0625 55.515625 
z
" id="DejaVuSans-114"/>
       <path d="M 32.171875 -5.078125 
Q 28.375 -14.84375 24.75 -17.8125 
Q 21.140625 -20.796875 15.09375 -20.796875 
L 7.90625 -20.796875 
L 7.90625 -13.28125 
L 13.1875 -13.28125 
Q 16.890625 -13.28125 18.9375 -11.515625 
Q 21 -9.765625 23.484375 -3.21875 
L 25.09375 0.875 
L 2.984375 54.6875 
L 12.5 54.6875 
L 29.59375 11.921875 
L 46.6875 54.6875 
L 56.203125 54.6875 
z
" id="DejaVuSans-121"/>
       <path d="M 55.71875 33.015625 
L 49.3125 0 
L 40.28125 0 
L 46.6875 32.671875 
Q 47.125 34.96875 47.359375 36.71875 
Q 47.609375 38.484375 47.609375 39.5 
Q 47.609375 43.609375 45.015625 45.890625 
Q 42.4375 48.1875 37.796875 48.1875 
Q 30.5625 48.1875 25.34375 43.375 
Q 20.125 38.578125 18.5 30.328125 
L 12.5 0 
L 3.515625 0 
L 14.109375 54.6875 
L 23.09375 54.6875 
L 21.296875 46.09375 
Q 25.046875 50.828125 30.3125 53.40625 
Q 35.59375 56 41.40625 56 
Q 48.640625 56 52.609375 52.09375 
Q 56.59375 48.1875 56.59375 41.109375 
Q 56.59375 39.359375 56.375 37.359375 
Q 56.15625 35.359375 55.71875 33.015625 
z
" id="DejaVuSans-Oblique-110"/>
       <path d="M 31 75.875 
Q 24.46875 64.65625 21.28125 53.65625 
Q 18.109375 42.671875 18.109375 31.390625 
Q 18.109375 20.125 21.3125 9.0625 
Q 24.515625 -2 31 -13.1875 
L 23.1875 -13.1875 
Q 15.875 -1.703125 12.234375 9.375 
Q 8.59375 20.453125 8.59375 31.390625 
Q 8.59375 42.28125 12.203125 53.3125 
Q 15.828125 64.359375 23.1875 75.875 
z
" id="DejaVuSans-40"/>
       <path d="M 9.078125 75.984375 
L 18.109375 75.984375 
L 18.109375 31.109375 
L 44.921875 54.6875 
L 56.390625 54.6875 
L 27.390625 29.109375 
L 57.625 0 
L 45.90625 0 
L 18.109375 26.703125 
L 18.109375 0 
L 9.078125 0 
z
" id="DejaVuSans-107"/>
       <path d="M 4.203125 54.6875 
L 13.1875 54.6875 
L 24.421875 12.015625 
L 35.59375 54.6875 
L 46.1875 54.6875 
L 57.421875 12.015625 
L 68.609375 54.6875 
L 77.59375 54.6875 
L 63.28125 0 
L 52.6875 0 
L 40.921875 44.828125 
L 29.109375 0 
L 18.5 0 
z
" id="DejaVuSans-119"/>
       <path d="M 45.40625 27.984375 
Q 45.40625 37.75 41.375 43.109375 
Q 37.359375 48.484375 30.078125 48.484375 
Q 22.859375 48.484375 18.828125 43.109375 
Q 14.796875 37.75 14.796875 27.984375 
Q 14.796875 18.265625 18.828125 12.890625 
Q 22.859375 7.515625 30.078125 7.515625 
Q 37.359375 7.515625 41.375 12.890625 
Q 45.40625 18.265625 45.40625 27.984375 
z
M 54.390625 6.78125 
Q 54.390625 -7.171875 48.1875 -13.984375 
Q 42 -20.796875 29.203125 -20.796875 
Q 24.46875 -20.796875 20.265625 -20.09375 
Q 16.0625 -19.390625 12.109375 -17.921875 
L 12.109375 -9.1875 
Q 16.0625 -11.328125 19.921875 -12.34375 
Q 23.78125 -13.375 27.78125 -13.375 
Q 36.625 -13.375 41.015625 -8.765625 
Q 45.40625 -4.15625 45.40625 5.171875 
L 45.40625 9.625 
Q 42.625 4.78125 38.28125 2.390625 
Q 33.9375 0 27.875 0 
Q 17.828125 0 11.671875 7.65625 
Q 5.515625 15.328125 5.515625 27.984375 
Q 5.515625 40.671875 11.671875 48.328125 
Q 17.828125 56 27.875 56 
Q 33.9375 56 38.28125 53.609375 
Q 42.625 51.21875 45.40625 46.390625 
L 45.40625 54.6875 
L 54.390625 54.6875 
z
" id="DejaVuSans-103"/>
       <path d="M 37.796875 64.3125 
L 12.890625 25.390625 
L 37.796875 25.390625 
z
M 35.203125 72.90625 
L 47.609375 72.90625 
L 47.609375 25.390625 
L 58.015625 25.390625 
L 58.015625 17.1875 
L 47.609375 17.1875 
L 47.609375 0 
L 37.796875 0 
L 37.796875 17.1875 
L 4.890625 17.1875 
L 4.890625 26.703125 
z
" id="DejaVuSans-52"/>
       <path d="M 8.015625 75.875 
L 15.828125 75.875 
Q 23.140625 64.359375 26.78125 53.3125 
Q 30.421875 42.28125 30.421875 31.390625 
Q 30.421875 20.453125 26.78125 9.375 
Q 23.140625 -1.703125 15.828125 -13.1875 
L 8.015625 -13.1875 
Q 14.5 -2 17.703125 9.0625 
Q 20.90625 20.125 20.90625 31.390625 
Q 20.90625 42.671875 17.703125 53.65625 
Q 14.5 64.65625 8.015625 75.875 
z
" id="DejaVuSans-41"/>
      </defs>
      <use transform="translate(0 0.015625)" xlink:href="#DejaVuSans-99"/>
      <use transform="translate(54.980469 0.015625)" xlink:href="#DejaVuSans-97"/>
      <use transform="translate(116.259766 0.015625)" xlink:href="#DejaVuSans-115"/>
      <use transform="translate(168.359375 0.015625)" xlink:href="#DejaVuSans-101"/>
      <use transform="translate(229.882812 0.015625)" xlink:href="#DejaVuSans-115"/>
      <use transform="translate(281.982422 0.015625)" xlink:href="#DejaVuSans-32"/>
      <use transform="translate(313.769531 0.015625)" xlink:href="#DejaVuSans-100"/>
      <use transform="translate(377.246094 0.015625)" xlink:href="#DejaVuSans-111"/>
      <use transform="translate(438.427734 0.015625)" xlink:href="#DejaVuSans-117"/>
      <use transform="translate(501.806641 0.015625)" xlink:href="#DejaVuSans-98"/>
      <use transform="translate(565.283203 0.015625)" xlink:href="#DejaVuSans-108"/>
      <use transform="translate(593.066406 0.015625)" xlink:href="#DejaVuSans-101"/>
      <use transform="translate(654.589844 0.015625)" xlink:href="#DejaVuSans-32"/>
      <use transform="translate(686.376953 0.015625)" xlink:href="#DejaVuSans-101"/>
      <use transform="translate(747.900391 0.015625)" xlink:href="#DejaVuSans-118"/>
      <use transform="translate(807.080078 0.015625)" xlink:href="#DejaVuSans-101"/>
      <use transform="translate(868.603516 0.015625)" xlink:href="#DejaVuSans-114"/>
      <use transform="translate(909.716797 0.015625)" xlink:href="#DejaVuSans-121"/>
      <use transform="translate(968.896484 0.015625)" xlink:href="#DejaVuSans-32"/>
      <use transform="translate(1000.683594 0.015625)" xlink:href="#DejaVuSans-Oblique-110"/>
      <use transform="translate(1064.0625 0.015625)" xlink:href="#DejaVuSans-32"/>
      <use transform="translate(1095.849609 0.015625)" xlink:href="#DejaVuSans-100"/>
      <use transform="translate(1159.326172 0.015625)" xlink:href="#DejaVuSans-97"/>
      <use transform="translate(1220.605469 0.015625)" xlink:href="#DejaVuSans-121"/>
      <use transform="translate(1279.785156 0.015625)" xlink:href="#DejaVuSans-115"/>
      <use transform="translate(1331.884766 0.015625)" xlink:href="#DejaVuSans-32"/>
      <use transform="translate(1363.671875 0.015625)" xlink:href="#DejaVuSans-40"/>
      <use transform="translate(1402.685547 0.015625)" xlink:href="#DejaVuSans-98"/>
      <use transform="translate(1466.162109 0.015625)" xlink:href="#DejaVuSans-97"/>
      <use transform="translate(1527.441406 0.015625)" xlink:href="#DejaVuSans-99"/>
      <use transform="translate(1582.421875 0.015625)" xlink:href="#DejaVuSans-107"/>
      <use transform="translate(1640.332031 0.015625)" xlink:href="#DejaVuSans-119"/>
      <use transform="translate(1722.119141 0.015625)" xlink:href="#DejaVuSans-32"/>
      <use transform="translate(1753.90625 0.015625)" xlink:href="#DejaVuSans-97"/>
      <use transform="translate(1815.185547 0.015625)" xlink:href="#DejaVuSans-118"/>
      <use transform="translate(1874.365234 0.015625)" xlink:href="#DejaVuSans-103"/>
      <use transform="translate(1937.841797 0.015625)" xlink:href="#DejaVuSans-32"/>
      <use transform="translate(1969.628906 0.015625)" xlink:href="#DejaVuSans-111"/>
      <use transform="translate(2030.810547 0.015625)" xlink:href="#DejaVuSans-118"/>
      <use transform="translate(2089.990234 0.015625)" xlink:href="#DejaVuSans-101"/>
      <use transform="translate(2151.513672 0.015625)" xlink:href="#DejaVuSans-114"/>
      <use transform="translate(2192.626953 0.015625)" xlink:href="#DejaVuSans-32"/>
      <use transform="translate(2224.414062 0.015625)" xlink:href="#DejaVuSans-52"/>
      <use transform="translate(2288.037109 0.015625)" xlink:href="#DejaVuSans-32"/>
      <use transform="translate(2319.824219 0.015625)" xlink:href="#DejaVuSans-100"/>
      <use transform="translate(2383.300781 0.015625)" xlink:href="#DejaVuSans-97"/>
      <use transform="translate(2444.580078 0.015625)" xlink:href="#DejaVuSans-121"/>
      <use transform="translate(2503.759766 0.015625)" xlink:href="#DejaVuSans-115"/>
      <use transform="translate(2555.859375 0.015625)" xlink:href="#DejaVuSans-41"/>
     </g>
    </g>
   </g>
   <g id="line2d_123">
    <path clip-path="url(#p39e0e1fc8c)" d="M 149.972727 512.64 
L 156.213622 512.64 
M 204.060482 441.6768 
L 206.14078 487.362398 
L 208.221078 487.362398 
L 210.301377 492.845316 
L 212.381675 487.362398 
L 214.461973 448.100757 
L 216.542271 467.867206 
L 218.62257 466.688917 
L 220.702868 486.809218 
L 222.783166 486.847589 
L 224.863464 488.491353 
L 226.943763 484.658249 
L 229.024061 461.937784 
L 231.104359 473.508696 
L 233.184657 469.233911 
L 235.264956 467.182132 
L 237.345254 471.254528 
L 239.425552 463.247406 
L 241.50585 443.836887 
L 243.586149 432.073689 
L 245.666447 383.112225 
L 247.746745 340.569593 
L 249.827043 368.894179 
L 251.907342 388.444509 
L 253.98764 387.500093 
L 256.067938 393.240049 
L 258.148236 372.877006 
L 260.228535 364.802941 
L 262.308833 375.862497 
L 264.389131 385.132817 
L 266.469429 391.327608 
L 268.549728 392.874099 
L 270.630026 383.773131 
L 272.710324 371.888245 
L 274.790622 379.040951 
L 276.870921 376.4898 
L 278.951219 392.288719 
L 281.031517 395.550356 
L 283.111815 380.933618 
L 285.192114 360.139744 
L 287.272412 321.898933 
L 289.35271 295.908115 
L 291.433008 328.757634 
L 293.513307 343.867427 
L 295.593605 346.275834 
L 297.673903 335.233616 
L 301.8345 239.959922 
L 303.914798 218.05672 
L 305.995096 207.565418 
L 308.075394 238.10567 
L 310.155693 251.379207 
L 312.235991 251.984422 
L 314.316289 250.138071 
L 316.396587 212.984644 
L 318.476886 179.977703 
L 320.557184 177.062887 
L 322.637482 190.118799 
L 324.71778 228.234806 
L 326.798079 224.767913 
L 328.878377 190.03502 
L 330.958675 108.930417 
L 333.038973 67.815371 
L 335.119272 67.751262 
L 337.19957 114.627822 
L 339.279868 129.693822 
L 341.360166 96.365855 
L 343.316758 -1 
M 351.520273 -1 
L 351.761658 12.418107 
L 353.841956 49.173102 
L 355.922254 66.336046 
L 358.003677 -1 
M 408.088131 -1 
L 410.010009 63.105434 
L 412.090307 125.641444 
L 414.170605 130.303405 
L 415.956345 -1 
M 426.626361 -1 
L 426.652395 0.635013 
L 428.732693 37.320333 
L 430.812991 8.720172 
L 431.014471 -1 
M 450.843362 -1 
L 451.615974 49.595871 
L 453.696272 137.284458 
L 455.77657 21.293726 
L 455.979194 -1 
M 583.932083 -1 
L 584.127045 577 
M 591.264754 577 
L 591.385541 -1 
M 716.25131 -1 
L 717.89415 93.214421 
L 718.621591 -1 
M 727.830757 -1 
L 728.295641 31.13635 
L 730.375939 137.226369 
L 732.456237 212.014759 
L 734.048249 -1 
M 740.710869 -1 
L 740.77743 31.901873 
L 742.857729 132.747552 
L 744.938027 199.414032 
L 747.018325 255.641909 
L 748.826903 -1 
M 756.863061 -1 
L 757.419816 31.510037 
L 761.580413 206.748587 
L 762.950862 -1 
M 771.536588 -1 
L 771.981904 27.342447 
L 774.062202 123.431975 
L 776.142501 194.553136 
L 777.347146 -1 
M 787.08838 -1 
L 788.62429 83.317506 
L 790.704588 154.399256 
L 791.572221 -1 
M 801.785768 -1 
L 803.186378 82.816304 
L 805.266676 155.509178 
L 806.277979 -1 
L 806.277979 -1 
" style="fill:none;stroke:#1f77b4;stroke-linecap:square;stroke-width:1.5;"/>
    <defs>
     <path d="M 0 3 
C 0.795609 3 1.55874 2.683901 2.12132 2.12132 
C 2.683901 1.55874 3 0.795609 3 0 
C 3 -0.795609 2.683901 -1.55874 2.12132 -2.12132 
C 1.55874 -2.683901 0.795609 -3 0 -3 
C -0.795609 -3 -1.55874 -2.683901 -2.12132 -2.12132 
C -2.683901 -1.55874 -3 -0.795609 -3 0 
C -3 0.795609 -2.683901 1.55874 -2.12132 2.12132 
C -1.55874 2.683901 -0.795609 3 0 3 
z
" id="m3b1f236da5" style="stroke:#1f77b4;"/>
    </defs>
    <g clip-path="url(#p39e0e1fc8c)">
     <use style="fill:#1f77b4;stroke:#1f77b4;" x="149.972727" xlink:href="#m3b1f236da5" y="512.64"/>
     <use style="fill:#1f77b4;stroke:#1f77b4;" x="152.053026" xlink:href="#m3b1f236da5" y="512.64"/>
     <use style="fill:#1f77b4;stroke:#1f77b4;" x="154.133324" xlink:href="#m3b1f236da5" y="512.64"/>
     <use style="fill:#1f77b4;stroke:#1f77b4;" x="156.213622" xlink:href="#m3b1f236da5" y="512.64"/>
     <use style="fill:#1f77b4;stroke:#1f77b4;" x="204.060482" xlink:href="#m3b1f236da5" y="441.6768"/>
     <use style="fill:#1f77b4;stroke:#1f77b4;" x="206.14078" xlink:href="#m3b1f236da5" y="487.362398"/>
     <use style="fill:#1f77b4;stroke:#1f77b4;" x="208.221078" xlink:href="#m3b1f236da5" y="487.362398"/>
     <use style="fill:#1f77b4;stroke:#1f77b4;" x="210.301377" xlink:href="#m3b1f236da5" y="492.845316"/>
     <use style="fill:#1f77b4;stroke:#1f77b4;" x="212.381675" xlink:href="#m3b1f236da5" y="487.362398"/>
     <use style="fill:#1f77b4;stroke:#1f77b4;" x="214.461973" xlink:href="#m3b1f236da5" y="448.100757"/>
     <use style="fill:#1f77b4;stroke:#1f77b4;" x="216.542271" xlink:href="#m3b1f236da5" y="467.867206"/>
     <use style="fill:#1f77b4;stroke:#1f77b4;" x="218.62257" xlink:href="#m3b1f236da5" y="466.688917"/>
     <use style="fill:#1f77b4;stroke:#1f77b4;" x="220.702868" xlink:href="#m3b1f236da5" y="486.809218"/>
     <use style="fill:#1f77b4;stroke:#1f77b4;" x="222.783166" xlink:href="#m3b1f236da5" y="486.847589"/>
     <use style="fill:#1f77b4;stroke:#1f77b4;" x="224.863464" xlink:href="#m3b1f236da5" y="488.491353"/>
     <use style="fill:#1f77b4;stroke:#1f77b4;" x="226.943763" xlink:href="#m3b1f236da5" y="484.658249"/>
     <use style="fill:#1f77b4;stroke:#1f77b4;" x="229.024061" xlink:href="#m3b1f236da5" y="461.937784"/>
     <use style="fill:#1f77b4;stroke:#1f77b4;" x="231.104359" xlink:href="#m3b1f236da5" y="473.508696"/>
     <use style="fill:#1f77b4;stroke:#1f77b4;" x="233.184657" xlink:href="#m3b1f236da5" y="469.233911"/>
     <use style="fill:#1f77b4;stroke:#1f77b4;" x="235.264956" xlink:href="#m3b1f236da5" y="467.182132"/>
     <use style="fill:#1f77b4;stroke:#1f77b4;" x="237.345254" xlink:href="#m3b1f236da5" y="471.254528"/>
     <use style="fill:#1f77b4;stroke:#1f77b4;" x="239.425552" xlink:href="#m3b1f236da5" y="463.247406"/>
     <use style="fill:#1f77b4;stroke:#1f77b4;" x="241.50585" xlink:href="#m3b1f236da5" y="443.836887"/>
     <use style="fill:#1f77b4;stroke:#1f77b4;" x="243.586149" xlink:href="#m3b1f236da5" y="432.073689"/>
     <use style="fill:#1f77b4;stroke:#1f77b4;" x="245.666447" xlink:href="#m3b1f236da5" y="383.112225"/>
     <use style="fill:#1f77b4;stroke:#1f77b4;" x="247.746745" xlink:href="#m3b1f236da5" y="340.569593"/>
     <use style="fill:#1f77b4;stroke:#1f77b4;" x="249.827043" xlink:href="#m3b1f236da5" y="368.894179"/>
     <use style="fill:#1f77b4;stroke:#1f77b4;" x="251.907342" xlink:href="#m3b1f236da5" y="388.444509"/>
     <use style="fill:#1f77b4;stroke:#1f77b4;" x="253.98764" xlink:href="#m3b1f236da5" y="387.500093"/>
     <use style="fill:#1f77b4;stroke:#1f77b4;" x="256.067938" xlink:href="#m3b1f236da5" y="393.240049"/>
     <use style="fill:#1f77b4;stroke:#1f77b4;" x="258.148236" xlink:href="#m3b1f236da5" y="372.877006"/>
     <use style="fill:#1f77b4;stroke:#1f77b4;" x="260.228535" xlink:href="#m3b1f236da5" y="364.802941"/>
     <use style="fill:#1f77b4;stroke:#1f77b4;" x="262.308833" xlink:href="#m3b1f236da5" y="375.862497"/>
     <use style="fill:#1f77b4;stroke:#1f77b4;" x="264.389131" xlink:href="#m3b1f236da5" y="385.132817"/>
     <use style="fill:#1f77b4;stroke:#1f77b4;" x="266.469429" xlink:href="#m3b1f236da5" y="391.327608"/>
     <use style="fill:#1f77b4;stroke:#1f77b4;" x="268.549728" xlink:href="#m3b1f236da5" y="392.874099"/>
     <use style="fill:#1f77b4;stroke:#1f77b4;" x="270.630026" xlink:href="#m3b1f236da5" y="383.773131"/>
     <use style="fill:#1f77b4;stroke:#1f77b4;" x="272.710324" xlink:href="#m3b1f236da5" y="371.888245"/>
     <use style="fill:#1f77b4;stroke:#1f77b4;" x="274.790622" xlink:href="#m3b1f236da5" y="379.040951"/>
     <use style="fill:#1f77b4;stroke:#1f77b4;" x="276.870921" xlink:href="#m3b1f236da5" y="376.4898"/>
     <use style="fill:#1f77b4;stroke:#1f77b4;" x="278.951219" xlink:href="#m3b1f236da5" y="392.288719"/>
     <use style="fill:#1f77b4;stroke:#1f77b4;" x="281.031517" xlink:href="#m3b1f236da5" y="395.550356"/>
     <use style="fill:#1f77b4;stroke:#1f77b4;" x="283.111815" xlink:href="#m3b1f236da5" y="380.933618"/>
     <use style="fill:#1f77b4;stroke:#1f77b4;" x="285.192114" xlink:href="#m3b1f236da5" y="360.139744"/>
     <use style="fill:#1f77b4;stroke:#1f77b4;" x="287.272412" xlink:href="#m3b1f236da5" y="321.898933"/>
     <use style="fill:#1f77b4;stroke:#1f77b4;" x="289.35271" xlink:href="#m3b1f236da5" y="295.908115"/>
     <use style="fill:#1f77b4;stroke:#1f77b4;" x="291.433008" xlink:href="#m3b1f236da5" y="328.757634"/>
     <use style="fill:#1f77b4;stroke:#1f77b4;" x="293.513307" xlink:href="#m3b1f236da5" y="343.867427"/>
     <use style="fill:#1f77b4;stroke:#1f77b4;" x="295.593605" xlink:href="#m3b1f236da5" y="346.275834"/>
     <use style="fill:#1f77b4;stroke:#1f77b4;" x="297.673903" xlink:href="#m3b1f236da5" y="335.233616"/>
     <use style="fill:#1f77b4;stroke:#1f77b4;" x="299.754201" xlink:href="#m3b1f236da5" y="288.30779"/>
     <use style="fill:#1f77b4;stroke:#1f77b4;" x="301.8345" xlink:href="#m3b1f236da5" y="239.959922"/>
     <use style="fill:#1f77b4;stroke:#1f77b4;" x="303.914798" xlink:href="#m3b1f236da5" y="218.05672"/>
     <use style="fill:#1f77b4;stroke:#1f77b4;" x="305.995096" xlink:href="#m3b1f236da5" y="207.565418"/>
     <use style="fill:#1f77b4;stroke:#1f77b4;" x="308.075394" xlink:href="#m3b1f236da5" y="238.10567"/>
     <use style="fill:#1f77b4;stroke:#1f77b4;" x="310.155693" xlink:href="#m3b1f236da5" y="251.379207"/>
     <use style="fill:#1f77b4;stroke:#1f77b4;" x="312.235991" xlink:href="#m3b1f236da5" y="251.984422"/>
     <use style="fill:#1f77b4;stroke:#1f77b4;" x="314.316289" xlink:href="#m3b1f236da5" y="250.138071"/>
     <use style="fill:#1f77b4;stroke:#1f77b4;" x="316.396587" xlink:href="#m3b1f236da5" y="212.984644"/>
     <use style="fill:#1f77b4;stroke:#1f77b4;" x="318.476886" xlink:href="#m3b1f236da5" y="179.977703"/>
     <use style="fill:#1f77b4;stroke:#1f77b4;" x="320.557184" xlink:href="#m3b1f236da5" y="177.062887"/>
     <use style="fill:#1f77b4;stroke:#1f77b4;" x="322.637482" xlink:href="#m3b1f236da5" y="190.118799"/>
     <use style="fill:#1f77b4;stroke:#1f77b4;" x="324.71778" xlink:href="#m3b1f236da5" y="228.234806"/>
     <use style="fill:#1f77b4;stroke:#1f77b4;" x="326.798079" xlink:href="#m3b1f236da5" y="224.767913"/>
     <use style="fill:#1f77b4;stroke:#1f77b4;" x="328.878377" xlink:href="#m3b1f236da5" y="190.03502"/>
     <use style="fill:#1f77b4;stroke:#1f77b4;" x="330.958675" xlink:href="#m3b1f236da5" y="108.930417"/>
     <use style="fill:#1f77b4;stroke:#1f77b4;" x="333.038973" xlink:href="#m3b1f236da5" y="67.815371"/>
     <use style="fill:#1f77b4;stroke:#1f77b4;" x="335.119272" xlink:href="#m3b1f236da5" y="67.751262"/>
     <use style="fill:#1f77b4;stroke:#1f77b4;" x="337.19957" xlink:href="#m3b1f236da5" y="114.627822"/>
     <use style="fill:#1f77b4;stroke:#1f77b4;" x="339.279868" xlink:href="#m3b1f236da5" y="129.693822"/>
     <use style="fill:#1f77b4;stroke:#1f77b4;" x="341.360166" xlink:href="#m3b1f236da5" y="96.365855"/>
     <use style="fill:#1f77b4;stroke:#1f77b4;" x="343.316758" xlink:href="#m3b1f236da5" y="-1"/>
     <use style="fill:#1f77b4;stroke:#1f77b4;" x="351.520273" xlink:href="#m3b1f236da5" y="-1"/>
     <use style="fill:#1f77b4;stroke:#1f77b4;" x="351.761658" xlink:href="#m3b1f236da5" y="12.418107"/>
     <use style="fill:#1f77b4;stroke:#1f77b4;" x="353.841956" xlink:href="#m3b1f236da5" y="49.173102"/>
     <use style="fill:#1f77b4;stroke:#1f77b4;" x="355.922254" xlink:href="#m3b1f236da5" y="66.336046"/>
     <use style="fill:#1f77b4;stroke:#1f77b4;" x="358.002552" xlink:href="#m3b1f236da5" y="-0.944648"/>
     <use style="fill:#1f77b4;stroke:#1f77b4;" x="358.003677" xlink:href="#m3b1f236da5" y="-1"/>
     <use style="fill:#1f77b4;stroke:#1f77b4;" x="408.088131" xlink:href="#m3b1f236da5" y="-1"/>
     <use style="fill:#1f77b4;stroke:#1f77b4;" x="410.010009" xlink:href="#m3b1f236da5" y="63.105434"/>
     <use style="fill:#1f77b4;stroke:#1f77b4;" x="412.090307" xlink:href="#m3b1f236da5" y="125.641444"/>
     <use style="fill:#1f77b4;stroke:#1f77b4;" x="414.170605" xlink:href="#m3b1f236da5" y="130.303405"/>
     <use style="fill:#1f77b4;stroke:#1f77b4;" x="415.956345" xlink:href="#m3b1f236da5" y="-1"/>
     <use style="fill:#1f77b4;stroke:#1f77b4;" x="426.626361" xlink:href="#m3b1f236da5" y="-1"/>
     <use style="fill:#1f77b4;stroke:#1f77b4;" x="426.652395" xlink:href="#m3b1f236da5" y="0.635013"/>
     <use style="fill:#1f77b4;stroke:#1f77b4;" x="428.732693" xlink:href="#m3b1f236da5" y="37.320333"/>
     <use style="fill:#1f77b4;stroke:#1f77b4;" x="430.812991" xlink:href="#m3b1f236da5" y="8.720172"/>
     <use style="fill:#1f77b4;stroke:#1f77b4;" x="431.014471" xlink:href="#m3b1f236da5" y="-1"/>
     <use style="fill:#1f77b4;stroke:#1f77b4;" x="450.843362" xlink:href="#m3b1f236da5" y="-1"/>
     <use style="fill:#1f77b4;stroke:#1f77b4;" x="451.615974" xlink:href="#m3b1f236da5" y="49.595871"/>
     <use style="fill:#1f77b4;stroke:#1f77b4;" x="453.696272" xlink:href="#m3b1f236da5" y="137.284458"/>
     <use style="fill:#1f77b4;stroke:#1f77b4;" x="455.77657" xlink:href="#m3b1f236da5" y="21.293726"/>
     <use style="fill:#1f77b4;stroke:#1f77b4;" x="455.979194" xlink:href="#m3b1f236da5" y="-1"/>
     <use style="fill:#1f77b4;stroke:#1f77b4;" x="583.932083" xlink:href="#m3b1f236da5" y="-1"/>
     <use style="fill:#1f77b4;stroke:#1f77b4;" x="584.755062" xlink:href="#m3b1f236da5" y="2438.866609"/>
     <use style="fill:#1f77b4;stroke:#1f77b4;" x="586.83536" xlink:href="#m3b1f236da5" y="2031.752439"/>
     <use style="fill:#1f77b4;stroke:#1f77b4;" x="588.915658" xlink:href="#m3b1f236da5" y="1945.112737"/>
     <use style="fill:#1f77b4;stroke:#1f77b4;" x="590.995956" xlink:href="#m3b1f236da5" y="1863.263639"/>
     <use style="fill:#1f77b4;stroke:#1f77b4;" x="591.385541" xlink:href="#m3b1f236da5" y="-1"/>
     <use style="fill:#1f77b4;stroke:#1f77b4;" x="716.25131" xlink:href="#m3b1f236da5" y="-1"/>
     <use style="fill:#1f77b4;stroke:#1f77b4;" x="717.89415" xlink:href="#m3b1f236da5" y="93.214421"/>
     <use style="fill:#1f77b4;stroke:#1f77b4;" x="718.621591" xlink:href="#m3b1f236da5" y="-1"/>
     <use style="fill:#1f77b4;stroke:#1f77b4;" x="727.830757" xlink:href="#m3b1f236da5" y="-1"/>
     <use style="fill:#1f77b4;stroke:#1f77b4;" x="728.295641" xlink:href="#m3b1f236da5" y="31.13635"/>
     <use style="fill:#1f77b4;stroke:#1f77b4;" x="730.375939" xlink:href="#m3b1f236da5" y="137.226369"/>
     <use style="fill:#1f77b4;stroke:#1f77b4;" x="732.456237" xlink:href="#m3b1f236da5" y="212.014759"/>
     <use style="fill:#1f77b4;stroke:#1f77b4;" x="734.048249" xlink:href="#m3b1f236da5" y="-1"/>
     <use style="fill:#1f77b4;stroke:#1f77b4;" x="740.710869" xlink:href="#m3b1f236da5" y="-1"/>
     <use style="fill:#1f77b4;stroke:#1f77b4;" x="740.77743" xlink:href="#m3b1f236da5" y="31.901873"/>
     <use style="fill:#1f77b4;stroke:#1f77b4;" x="742.857729" xlink:href="#m3b1f236da5" y="132.747552"/>
     <use style="fill:#1f77b4;stroke:#1f77b4;" x="744.938027" xlink:href="#m3b1f236da5" y="199.414032"/>
     <use style="fill:#1f77b4;stroke:#1f77b4;" x="747.018325" xlink:href="#m3b1f236da5" y="255.641909"/>
     <use style="fill:#1f77b4;stroke:#1f77b4;" x="748.826903" xlink:href="#m3b1f236da5" y="-1"/>
     <use style="fill:#1f77b4;stroke:#1f77b4;" x="756.863061" xlink:href="#m3b1f236da5" y="-1"/>
     <use style="fill:#1f77b4;stroke:#1f77b4;" x="757.419816" xlink:href="#m3b1f236da5" y="31.510037"/>
     <use style="fill:#1f77b4;stroke:#1f77b4;" x="759.500115" xlink:href="#m3b1f236da5" y="120.470245"/>
     <use style="fill:#1f77b4;stroke:#1f77b4;" x="761.580413" xlink:href="#m3b1f236da5" y="206.748587"/>
     <use style="fill:#1f77b4;stroke:#1f77b4;" x="762.950862" xlink:href="#m3b1f236da5" y="-1"/>
     <use style="fill:#1f77b4;stroke:#1f77b4;" x="771.536588" xlink:href="#m3b1f236da5" y="-1"/>
     <use style="fill:#1f77b4;stroke:#1f77b4;" x="771.981904" xlink:href="#m3b1f236da5" y="27.342447"/>
     <use style="fill:#1f77b4;stroke:#1f77b4;" x="774.062202" xlink:href="#m3b1f236da5" y="123.431975"/>
     <use style="fill:#1f77b4;stroke:#1f77b4;" x="776.142501" xlink:href="#m3b1f236da5" y="194.553136"/>
     <use style="fill:#1f77b4;stroke:#1f77b4;" x="777.347146" xlink:href="#m3b1f236da5" y="-1"/>
     <use style="fill:#1f77b4;stroke:#1f77b4;" x="787.08838" xlink:href="#m3b1f236da5" y="-1"/>
     <use style="fill:#1f77b4;stroke:#1f77b4;" x="788.62429" xlink:href="#m3b1f236da5" y="83.317506"/>
     <use style="fill:#1f77b4;stroke:#1f77b4;" x="790.704588" xlink:href="#m3b1f236da5" y="154.399256"/>
     <use style="fill:#1f77b4;stroke:#1f77b4;" x="791.572221" xlink:href="#m3b1f236da5" y="-1"/>
     <use style="fill:#1f77b4;stroke:#1f77b4;" x="801.785768" xlink:href="#m3b1f236da5" y="-1"/>
     <use style="fill:#1f77b4;stroke:#1f77b4;" x="803.186378" xlink:href="#m3b1f236da5" y="82.816304"/>
     <use style="fill:#1f77b4;stroke:#1f77b4;" x="805.266676" xlink:href="#m3b1f236da5" y="155.509178"/>
     <use style="fill:#1f77b4;stroke:#1f77b4;" x="806.277979" xlink:href="#m3b1f236da5" y="-1"/>
    </g>
   </g>
   <g id="patch_3">
    <path d="M 117 512.64 
L 117 69.12 
" style="fill:none;stroke:#000000;stroke-linecap:square;stroke-linejoin:miter;stroke-width:0.8;"/>
   </g>
   <g id="patch_4">
    <path d="M 842.4 512.64 
L 842.4 69.12 
" style="fill:none;stroke:#000000;stroke-linecap:square;stroke-linejoin:miter;stroke-width:0.8;"/>
   </g>
   <g id="patch_5">
    <path d="M 117 512.64 
L 842.4 512.64 
" style="fill:none;stroke:#000000;stroke-linecap:square;stroke-linejoin:miter;stroke-width:0.8;"/>
   </g>
   <g id="patch_6">
    <path d="M 117 69.12 
L 842.4 69.12 
" style="fill:none;stroke:#000000;stroke-linecap:square;stroke-linejoin:miter;stroke-width:0.8;"/>
   </g>
   <g id="text_15">
    <!-- Confirmed cases in Sweden double every $n$ days (2020-01-22..2020-12-13) -->
    <g transform="translate(253.8 63.12)scale(0.12 -0.12)">
     <defs>
      <path d="M 64.40625 67.28125 
L 64.40625 56.890625 
Q 59.421875 61.53125 53.78125 63.8125 
Q 48.140625 66.109375 41.796875 66.109375 
Q 29.296875 66.109375 22.65625 58.46875 
Q 16.015625 50.828125 16.015625 36.375 
Q 16.015625 21.96875 22.65625 14.328125 
Q 29.296875 6.6875 41.796875 6.6875 
Q 48.140625 6.6875 53.78125 8.984375 
Q 59.421875 11.28125 64.40625 15.921875 
L 64.40625 5.609375 
Q 59.234375 2.09375 53.4375 0.328125 
Q 47.65625 -1.421875 41.21875 -1.421875 
Q 24.65625 -1.421875 15.125 8.703125 
Q 5.609375 18.84375 5.609375 36.375 
Q 5.609375 53.953125 15.125 64.078125 
Q 24.65625 74.21875 41.21875 74.21875 
Q 47.75 74.21875 53.53125 72.484375 
Q 59.328125 70.75 64.40625 67.28125 
z
" id="DejaVuSans-67"/>
      <path d="M 54.890625 33.015625 
L 54.890625 0 
L 45.90625 0 
L 45.90625 32.71875 
Q 45.90625 40.484375 42.875 44.328125 
Q 39.84375 48.1875 33.796875 48.1875 
Q 26.515625 48.1875 22.3125 43.546875 
Q 18.109375 38.921875 18.109375 30.90625 
L 18.109375 0 
L 9.078125 0 
L 9.078125 54.6875 
L 18.109375 54.6875 
L 18.109375 46.1875 
Q 21.34375 51.125 25.703125 53.5625 
Q 30.078125 56 35.796875 56 
Q 45.21875 56 50.046875 50.171875 
Q 54.890625 44.34375 54.890625 33.015625 
z
" id="DejaVuSans-110"/>
      <path d="M 37.109375 75.984375 
L 37.109375 68.5 
L 28.515625 68.5 
Q 23.6875 68.5 21.796875 66.546875 
Q 19.921875 64.59375 19.921875 59.515625 
L 19.921875 54.6875 
L 34.71875 54.6875 
L 34.71875 47.703125 
L 19.921875 47.703125 
L 19.921875 0 
L 10.890625 0 
L 10.890625 47.703125 
L 2.296875 47.703125 
L 2.296875 54.6875 
L 10.890625 54.6875 
L 10.890625 58.5 
Q 10.890625 67.625 15.140625 71.796875 
Q 19.390625 75.984375 28.609375 75.984375 
z
" id="DejaVuSans-102"/>
      <path d="M 9.421875 54.6875 
L 18.40625 54.6875 
L 18.40625 0 
L 9.421875 0 
z
M 9.421875 75.984375 
L 18.40625 75.984375 
L 18.40625 64.59375 
L 9.421875 64.59375 
z
" id="DejaVuSans-105"/>
      <path d="M 52 44.1875 
Q 55.375 50.25 60.0625 53.125 
Q 64.75 56 71.09375 56 
Q 79.640625 56 84.28125 50.015625 
Q 88.921875 44.046875 88.921875 33.015625 
L 88.921875 0 
L 79.890625 0 
L 79.890625 32.71875 
Q 79.890625 40.578125 77.09375 44.375 
Q 74.3125 48.1875 68.609375 48.1875 
Q 61.625 48.1875 57.5625 43.546875 
Q 53.515625 38.921875 53.515625 30.90625 
L 53.515625 0 
L 44.484375 0 
L 44.484375 32.71875 
Q 44.484375 40.625 41.703125 44.40625 
Q 38.921875 48.1875 33.109375 48.1875 
Q 26.21875 48.1875 22.15625 43.53125 
Q 18.109375 38.875 18.109375 30.90625 
L 18.109375 0 
L 9.078125 0 
L 9.078125 54.6875 
L 18.109375 54.6875 
L 18.109375 46.1875 
Q 21.1875 51.21875 25.484375 53.609375 
Q 29.78125 56 35.6875 56 
Q 41.65625 56 45.828125 52.96875 
Q 50 49.953125 52 44.1875 
z
" id="DejaVuSans-109"/>
      <path d="M 53.515625 70.515625 
L 53.515625 60.890625 
Q 47.90625 63.578125 42.921875 64.890625 
Q 37.9375 66.21875 33.296875 66.21875 
Q 25.25 66.21875 20.875 63.09375 
Q 16.5 59.96875 16.5 54.203125 
Q 16.5 49.359375 19.40625 46.890625 
Q 22.3125 44.4375 30.421875 42.921875 
L 36.375 41.703125 
Q 47.40625 39.59375 52.65625 34.296875 
Q 57.90625 29 57.90625 20.125 
Q 57.90625 9.515625 50.796875 4.046875 
Q 43.703125 -1.421875 29.984375 -1.421875 
Q 24.8125 -1.421875 18.96875 -0.25 
Q 13.140625 0.921875 6.890625 3.21875 
L 6.890625 13.375 
Q 12.890625 10.015625 18.65625 8.296875 
Q 24.421875 6.59375 29.984375 6.59375 
Q 38.421875 6.59375 43.015625 9.90625 
Q 47.609375 13.234375 47.609375 19.390625 
Q 47.609375 24.75 44.3125 27.78125 
Q 41.015625 30.8125 33.5 32.328125 
L 27.484375 33.5 
Q 16.453125 35.6875 11.515625 40.375 
Q 6.59375 45.0625 6.59375 53.421875 
Q 6.59375 63.09375 13.40625 68.65625 
Q 20.21875 74.21875 32.171875 74.21875 
Q 37.3125 74.21875 42.625 73.28125 
Q 47.953125 72.359375 53.515625 70.515625 
z
" id="DejaVuSans-83"/>
      <path d="M 10.6875 12.40625 
L 21 12.40625 
L 21 0 
L 10.6875 0 
z
" id="DejaVuSans-46"/>
     </defs>
     <use transform="translate(0 0.015625)" xlink:href="#DejaVuSans-67"/>
     <use transform="translate(69.824219 0.015625)" xlink:href="#DejaVuSans-111"/>
     <use transform="translate(131.005859 0.015625)" xlink:href="#DejaVuSans-110"/>
     <use transform="translate(194.384766 0.015625)" xlink:href="#DejaVuSans-102"/>
     <use transform="translate(229.589844 0.015625)" xlink:href="#DejaVuSans-105"/>
     <use transform="translate(257.373047 0.015625)" xlink:href="#DejaVuSans-114"/>
     <use transform="translate(298.486328 0.015625)" xlink:href="#DejaVuSans-109"/>
     <use transform="translate(395.898438 0.015625)" xlink:href="#DejaVuSans-101"/>
     <use transform="translate(457.421875 0.015625)" xlink:href="#DejaVuSans-100"/>
     <use transform="translate(520.898438 0.015625)" xlink:href="#DejaVuSans-32"/>
     <use transform="translate(552.685547 0.015625)" xlink:href="#DejaVuSans-99"/>
     <use transform="translate(607.666016 0.015625)" xlink:href="#DejaVuSans-97"/>
     <use transform="translate(668.945312 0.015625)" xlink:href="#DejaVuSans-115"/>
     <use transform="translate(721.044922 0.015625)" xlink:href="#DejaVuSans-101"/>
     <use transform="translate(782.568359 0.015625)" xlink:href="#DejaVuSans-115"/>
     <use transform="translate(834.667969 0.015625)" xlink:href="#DejaVuSans-32"/>
     <use transform="translate(866.455078 0.015625)" xlink:href="#DejaVuSans-105"/>
     <use transform="translate(894.238281 0.015625)" xlink:href="#DejaVuSans-110"/>
     <use transform="translate(957.617188 0.015625)" xlink:href="#DejaVuSans-32"/>
     <use transform="translate(989.404297 0.015625)" xlink:href="#DejaVuSans-83"/>
     <use transform="translate(1052.880859 0.015625)" xlink:href="#DejaVuSans-119"/>
     <use transform="translate(1134.667969 0.015625)" xlink:href="#DejaVuSans-101"/>
     <use transform="translate(1196.191406 0.015625)" xlink:href="#DejaVuSans-100"/>
     <use transform="translate(1259.667969 0.015625)" xlink:href="#DejaVuSans-101"/>
     <use transform="translate(1321.191406 0.015625)" xlink:href="#DejaVuSans-110"/>
     <use transform="translate(1384.570312 0.015625)" xlink:href="#DejaVuSans-32"/>
     <use transform="translate(1416.357422 0.015625)" xlink:href="#DejaVuSans-100"/>
     <use transform="translate(1479.833984 0.015625)" xlink:href="#DejaVuSans-111"/>
     <use transform="translate(1541.015625 0.015625)" xlink:href="#DejaVuSans-117"/>
     <use transform="translate(1604.394531 0.015625)" xlink:href="#DejaVuSans-98"/>
     <use transform="translate(1667.871094 0.015625)" xlink:href="#DejaVuSans-108"/>
     <use transform="translate(1695.654297 0.015625)" xlink:href="#DejaVuSans-101"/>
     <use transform="translate(1757.177734 0.015625)" xlink:href="#DejaVuSans-32"/>
     <use transform="translate(1788.964844 0.015625)" xlink:href="#DejaVuSans-101"/>
     <use transform="translate(1850.488281 0.015625)" xlink:href="#DejaVuSans-118"/>
     <use transform="translate(1909.667969 0.015625)" xlink:href="#DejaVuSans-101"/>
     <use transform="translate(1971.191406 0.015625)" xlink:href="#DejaVuSans-114"/>
     <use transform="translate(2012.304688 0.015625)" xlink:href="#DejaVuSans-121"/>
     <use transform="translate(2071.484375 0.015625)" xlink:href="#DejaVuSans-32"/>
     <use transform="translate(2103.271484 0.015625)" xlink:href="#DejaVuSans-Oblique-110"/>
     <use transform="translate(2166.650391 0.015625)" xlink:href="#DejaVuSans-32"/>
     <use transform="translate(2198.4375 0.015625)" xlink:href="#DejaVuSans-100"/>
     <use transform="translate(2261.914062 0.015625)" xlink:href="#DejaVuSans-97"/>
     <use transform="translate(2323.193359 0.015625)" xlink:href="#DejaVuSans-121"/>
     <use transform="translate(2382.373047 0.015625)" xlink:href="#DejaVuSans-115"/>
     <use transform="translate(2434.472656 0.015625)" xlink:href="#DejaVuSans-32"/>
     <use transform="translate(2466.259766 0.015625)" xlink:href="#DejaVuSans-40"/>
     <use transform="translate(2505.273438 0.015625)" xlink:href="#DejaVuSans-50"/>
     <use transform="translate(2568.896484 0.015625)" xlink:href="#DejaVuSans-48"/>
     <use transform="translate(2632.519531 0.015625)" xlink:href="#DejaVuSans-50"/>
     <use transform="translate(2696.142578 0.015625)" xlink:href="#DejaVuSans-48"/>
     <use transform="translate(2759.765625 0.015625)" xlink:href="#DejaVuSans-45"/>
     <use transform="translate(2795.849609 0.015625)" xlink:href="#DejaVuSans-48"/>
     <use transform="translate(2859.472656 0.015625)" xlink:href="#DejaVuSans-49"/>
     <use transform="translate(2923.095703 0.015625)" xlink:href="#DejaVuSans-45"/>
     <use transform="translate(2959.179688 0.015625)" xlink:href="#DejaVuSans-50"/>
     <use transform="translate(3022.802734 0.015625)" xlink:href="#DejaVuSans-50"/>
     <use transform="translate(3086.425781 0.015625)" xlink:href="#DejaVuSans-46"/>
     <use transform="translate(3118.212891 0.015625)" xlink:href="#DejaVuSans-46"/>
     <use transform="translate(3144.5 0.015625)" xlink:href="#DejaVuSans-50"/>
     <use transform="translate(3208.123047 0.015625)" xlink:href="#DejaVuSans-48"/>
     <use transform="translate(3271.746094 0.015625)" xlink:href="#DejaVuSans-50"/>
     <use transform="translate(3335.369141 0.015625)" xlink:href="#DejaVuSans-48"/>
     <use transform="translate(3398.992188 0.015625)" xlink:href="#DejaVuSans-45"/>
     <use transform="translate(3435.076172 0.015625)" xlink:href="#DejaVuSans-49"/>
     <use transform="translate(3498.699219 0.015625)" xlink:href="#DejaVuSans-50"/>
     <use transform="translate(3562.322266 0.015625)" xlink:href="#DejaVuSans-45"/>
     <use transform="translate(3598.40625 0.015625)" xlink:href="#DejaVuSans-49"/>
     <use transform="translate(3662.029297 0.015625)" xlink:href="#DejaVuSans-51"/>
     <use transform="translate(3725.652344 0.015625)" xlink:href="#DejaVuSans-41"/>
    </g>
   </g>
   <g id="legend_1">
    <g id="patch_7">
     <path d="M 124 91.798125 
L 189.145312 91.798125 
Q 191.145312 91.798125 191.145312 89.798125 
L 191.145312 76.12 
Q 191.145312 74.12 189.145312 74.12 
L 124 74.12 
Q 122 74.12 122 76.12 
L 122 89.798125 
Q 122 91.798125 124 91.798125 
z
" style="fill:#ffffff;opacity:0.8;stroke:#cccccc;stroke-linejoin:miter;"/>
    </g>
    <g id="line2d_124">
     <path d="M 126 82.218438 
L 146 82.218438 
" style="fill:none;stroke:#1f77b4;stroke-linecap:square;stroke-width:1.5;"/>
    </g>
    <g id="line2d_125">
     <g>
      <use style="fill:#1f77b4;stroke:#1f77b4;" x="136" xlink:href="#m3b1f236da5" y="82.218438"/>
     </g>
    </g>
    <g id="text_16">
     <!-- 4 days -->
     <g transform="translate(154 85.718438)scale(0.1 -0.1)">
      <use xlink:href="#DejaVuSans-52"/>
      <use x="63.623047" xlink:href="#DejaVuSans-32"/>
      <use x="95.410156" xlink:href="#DejaVuSans-100"/>
      <use x="158.886719" xlink:href="#DejaVuSans-97"/>
      <use x="220.166016" xlink:href="#DejaVuSans-121"/>
      <use x="279.345703" xlink:href="#DejaVuSans-115"/>
     </g>
    </g>
   </g>
  </g>
 </g>
 <defs>
  <clipPath id="p39e0e1fc8c">
   <rect height="443.52" width="725.4" x="117" y="69.12"/>
  </clipPath>
 </defs>
</svg>
