<?xml version="1.0" encoding="utf-8" standalone="no"?>
<!DOCTYPE svg PUBLIC "-//W3C//DTD SVG 1.1//EN"
  "http://www.w3.org/Graphics/SVG/1.1/DTD/svg11.dtd">
<!-- Created with matplotlib (https://matplotlib.org/) -->
<svg height="576pt" version="1.1" viewBox="0 0 936 576" width="936pt" xmlns="http://www.w3.org/2000/svg" xmlns:xlink="http://www.w3.org/1999/xlink">
 <metadata>
  <rdf:RDF xmlns:cc="http://creativecommons.org/ns#" xmlns:dc="http://purl.org/dc/elements/1.1/" xmlns:rdf="http://www.w3.org/1999/02/22-rdf-syntax-ns#">
   <cc:Work>
    <dc:type rdf:resource="http://purl.org/dc/dcmitype/StillImage"/>
    <dc:date>2021-01-24T23:13:49.175605</dc:date>
    <dc:format>image/svg+xml</dc:format>
    <dc:creator>
     <cc:Agent>
      <dc:title>Matplotlib v3.3.3, https://matplotlib.org/</dc:title>
     </cc:Agent>
    </dc:creator>
   </cc:Work>
  </rdf:RDF>
 </metadata>
 <defs>
  <style type="text/css">*{stroke-linecap:butt;stroke-linejoin:round;}</style>
 </defs>
 <g id="figure_1">
  <g id="patch_1">
   <path d="M 0 576 
L 936 576 
L 936 0 
L 0 0 
z
" style="fill:#ffffff;"/>
  </g>
  <g id="axes_1">
   <g id="patch_2">
    <path d="M 117 512.64 
L 842.4 512.64 
L 842.4 69.12 
L 117 69.12 
z
" style="fill:#ffffff;"/>
   </g>
   <g id="matplotlib.axis_1">
    <g id="xtick_1">
     <g id="line2d_1">
      <path clip-path="url(#p34c0175b7a)" d="M 139.012264 512.64 
L 139.012264 69.12 
" style="fill:none;stroke:#d8dcd6;stroke-dasharray:0.8,1.32;stroke-dashoffset:0;stroke-width:0.8;"/>
     </g>
     <g id="line2d_2">
      <defs>
       <path d="M 0 0 
L 0 3.5 
" id="m8010190f36" style="stroke:#000000;stroke-width:0.8;"/>
      </defs>
      <g>
       <use style="stroke:#000000;stroke-width:0.8;" x="139.012264" xlink:href="#m8010190f36" y="512.64"/>
      </g>
     </g>
     <g id="text_1">
      <!-- 2020-01-22 -->
      <g transform="translate(93.156315 562.816745)rotate(-40)scale(0.1 -0.1)">
       <defs>
        <path d="M 19.1875 8.296875 
L 53.609375 8.296875 
L 53.609375 0 
L 7.328125 0 
L 7.328125 8.296875 
Q 12.9375 14.109375 22.625 23.890625 
Q 32.328125 33.6875 34.8125 36.53125 
Q 39.546875 41.84375 41.421875 45.53125 
Q 43.3125 49.21875 43.3125 52.78125 
Q 43.3125 58.59375 39.234375 62.25 
Q 35.15625 65.921875 28.609375 65.921875 
Q 23.96875 65.921875 18.8125 64.3125 
Q 13.671875 62.703125 7.8125 59.421875 
L 7.8125 69.390625 
Q 13.765625 71.78125 18.9375 73 
Q 24.125 74.21875 28.421875 74.21875 
Q 39.75 74.21875 46.484375 68.546875 
Q 53.21875 62.890625 53.21875 53.421875 
Q 53.21875 48.921875 51.53125 44.890625 
Q 49.859375 40.875 45.40625 35.40625 
Q 44.1875 33.984375 37.640625 27.21875 
Q 31.109375 20.453125 19.1875 8.296875 
z
" id="DejaVuSans-50"/>
        <path d="M 31.78125 66.40625 
Q 24.171875 66.40625 20.328125 58.90625 
Q 16.5 51.421875 16.5 36.375 
Q 16.5 21.390625 20.328125 13.890625 
Q 24.171875 6.390625 31.78125 6.390625 
Q 39.453125 6.390625 43.28125 13.890625 
Q 47.125 21.390625 47.125 36.375 
Q 47.125 51.421875 43.28125 58.90625 
Q 39.453125 66.40625 31.78125 66.40625 
z
M 31.78125 74.21875 
Q 44.046875 74.21875 50.515625 64.515625 
Q 56.984375 54.828125 56.984375 36.375 
Q 56.984375 17.96875 50.515625 8.265625 
Q 44.046875 -1.421875 31.78125 -1.421875 
Q 19.53125 -1.421875 13.0625 8.265625 
Q 6.59375 17.96875 6.59375 36.375 
Q 6.59375 54.828125 13.0625 64.515625 
Q 19.53125 74.21875 31.78125 74.21875 
z
" id="DejaVuSans-48"/>
        <path d="M 4.890625 31.390625 
L 31.203125 31.390625 
L 31.203125 23.390625 
L 4.890625 23.390625 
z
" id="DejaVuSans-45"/>
        <path d="M 12.40625 8.296875 
L 28.515625 8.296875 
L 28.515625 63.921875 
L 10.984375 60.40625 
L 10.984375 69.390625 
L 28.421875 72.90625 
L 38.28125 72.90625 
L 38.28125 8.296875 
L 54.390625 8.296875 
L 54.390625 0 
L 12.40625 0 
z
" id="DejaVuSans-49"/>
       </defs>
       <use xlink:href="#DejaVuSans-50"/>
       <use x="63.623047" xlink:href="#DejaVuSans-48"/>
       <use x="127.246094" xlink:href="#DejaVuSans-50"/>
       <use x="190.869141" xlink:href="#DejaVuSans-48"/>
       <use x="254.492188" xlink:href="#DejaVuSans-45"/>
       <use x="290.576172" xlink:href="#DejaVuSans-48"/>
       <use x="354.199219" xlink:href="#DejaVuSans-49"/>
       <use x="417.822266" xlink:href="#DejaVuSans-45"/>
       <use x="453.90625" xlink:href="#DejaVuSans-50"/>
       <use x="517.529297" xlink:href="#DejaVuSans-50"/>
      </g>
     </g>
    </g>
    <g id="xtick_2">
     <g id="line2d_3">
      <path clip-path="url(#p34c0175b7a)" d="M 230.349459 512.64 
L 230.349459 69.12 
" style="fill:none;stroke:#d8dcd6;stroke-dasharray:0.8,1.32;stroke-dashoffset:0;stroke-width:0.8;"/>
     </g>
     <g id="line2d_4">
      <g>
       <use style="stroke:#000000;stroke-width:0.8;" x="230.349459" xlink:href="#m8010190f36" y="512.64"/>
      </g>
     </g>
     <g id="text_2">
      <!-- 2020-03-12 -->
      <g transform="translate(184.49351 562.816745)rotate(-40)scale(0.1 -0.1)">
       <defs>
        <path d="M 40.578125 39.3125 
Q 47.65625 37.796875 51.625 33 
Q 55.609375 28.21875 55.609375 21.1875 
Q 55.609375 10.40625 48.1875 4.484375 
Q 40.765625 -1.421875 27.09375 -1.421875 
Q 22.515625 -1.421875 17.65625 -0.515625 
Q 12.796875 0.390625 7.625 2.203125 
L 7.625 11.71875 
Q 11.71875 9.328125 16.59375 8.109375 
Q 21.484375 6.890625 26.8125 6.890625 
Q 36.078125 6.890625 40.9375 10.546875 
Q 45.796875 14.203125 45.796875 21.1875 
Q 45.796875 27.640625 41.28125 31.265625 
Q 36.765625 34.90625 28.71875 34.90625 
L 20.21875 34.90625 
L 20.21875 43.015625 
L 29.109375 43.015625 
Q 36.375 43.015625 40.234375 45.921875 
Q 44.09375 48.828125 44.09375 54.296875 
Q 44.09375 59.90625 40.109375 62.90625 
Q 36.140625 65.921875 28.71875 65.921875 
Q 24.65625 65.921875 20.015625 65.03125 
Q 15.375 64.15625 9.8125 62.3125 
L 9.8125 71.09375 
Q 15.4375 72.65625 20.34375 73.4375 
Q 25.25 74.21875 29.59375 74.21875 
Q 40.828125 74.21875 47.359375 69.109375 
Q 53.90625 64.015625 53.90625 55.328125 
Q 53.90625 49.265625 50.4375 45.09375 
Q 46.96875 40.921875 40.578125 39.3125 
z
" id="DejaVuSans-51"/>
       </defs>
       <use xlink:href="#DejaVuSans-50"/>
       <use x="63.623047" xlink:href="#DejaVuSans-48"/>
       <use x="127.246094" xlink:href="#DejaVuSans-50"/>
       <use x="190.869141" xlink:href="#DejaVuSans-48"/>
       <use x="254.492188" xlink:href="#DejaVuSans-45"/>
       <use x="290.576172" xlink:href="#DejaVuSans-48"/>
       <use x="354.199219" xlink:href="#DejaVuSans-51"/>
       <use x="417.822266" xlink:href="#DejaVuSans-45"/>
       <use x="453.90625" xlink:href="#DejaVuSans-49"/>
       <use x="517.529297" xlink:href="#DejaVuSans-50"/>
      </g>
     </g>
    </g>
    <g id="xtick_3">
     <g id="line2d_5">
      <path clip-path="url(#p34c0175b7a)" d="M 321.686653 512.64 
L 321.686653 69.12 
" style="fill:none;stroke:#d8dcd6;stroke-dasharray:0.8,1.32;stroke-dashoffset:0;stroke-width:0.8;"/>
     </g>
     <g id="line2d_6">
      <g>
       <use style="stroke:#000000;stroke-width:0.8;" x="321.686653" xlink:href="#m8010190f36" y="512.64"/>
      </g>
     </g>
     <g id="text_3">
      <!-- 2020-05-01 -->
      <g transform="translate(275.830704 562.816745)rotate(-40)scale(0.1 -0.1)">
       <defs>
        <path d="M 10.796875 72.90625 
L 49.515625 72.90625 
L 49.515625 64.59375 
L 19.828125 64.59375 
L 19.828125 46.734375 
Q 21.96875 47.46875 24.109375 47.828125 
Q 26.265625 48.1875 28.421875 48.1875 
Q 40.625 48.1875 47.75 41.5 
Q 54.890625 34.8125 54.890625 23.390625 
Q 54.890625 11.625 47.5625 5.09375 
Q 40.234375 -1.421875 26.90625 -1.421875 
Q 22.3125 -1.421875 17.546875 -0.640625 
Q 12.796875 0.140625 7.71875 1.703125 
L 7.71875 11.625 
Q 12.109375 9.234375 16.796875 8.0625 
Q 21.484375 6.890625 26.703125 6.890625 
Q 35.15625 6.890625 40.078125 11.328125 
Q 45.015625 15.765625 45.015625 23.390625 
Q 45.015625 31 40.078125 35.4375 
Q 35.15625 39.890625 26.703125 39.890625 
Q 22.75 39.890625 18.8125 39.015625 
Q 14.890625 38.140625 10.796875 36.28125 
z
" id="DejaVuSans-53"/>
       </defs>
       <use xlink:href="#DejaVuSans-50"/>
       <use x="63.623047" xlink:href="#DejaVuSans-48"/>
       <use x="127.246094" xlink:href="#DejaVuSans-50"/>
       <use x="190.869141" xlink:href="#DejaVuSans-48"/>
       <use x="254.492188" xlink:href="#DejaVuSans-45"/>
       <use x="290.576172" xlink:href="#DejaVuSans-48"/>
       <use x="354.199219" xlink:href="#DejaVuSans-53"/>
       <use x="417.822266" xlink:href="#DejaVuSans-45"/>
       <use x="453.90625" xlink:href="#DejaVuSans-48"/>
       <use x="517.529297" xlink:href="#DejaVuSans-49"/>
      </g>
     </g>
    </g>
    <g id="xtick_4">
     <g id="line2d_7">
      <path clip-path="url(#p34c0175b7a)" d="M 413.023848 512.64 
L 413.023848 69.12 
" style="fill:none;stroke:#d8dcd6;stroke-dasharray:0.8,1.32;stroke-dashoffset:0;stroke-width:0.8;"/>
     </g>
     <g id="line2d_8">
      <g>
       <use style="stroke:#000000;stroke-width:0.8;" x="413.023848" xlink:href="#m8010190f36" y="512.64"/>
      </g>
     </g>
     <g id="text_4">
      <!-- 2020-06-20 -->
      <g transform="translate(367.167899 562.816745)rotate(-40)scale(0.1 -0.1)">
       <defs>
        <path d="M 33.015625 40.375 
Q 26.375 40.375 22.484375 35.828125 
Q 18.609375 31.296875 18.609375 23.390625 
Q 18.609375 15.53125 22.484375 10.953125 
Q 26.375 6.390625 33.015625 6.390625 
Q 39.65625 6.390625 43.53125 10.953125 
Q 47.40625 15.53125 47.40625 23.390625 
Q 47.40625 31.296875 43.53125 35.828125 
Q 39.65625 40.375 33.015625 40.375 
z
M 52.59375 71.296875 
L 52.59375 62.3125 
Q 48.875 64.0625 45.09375 64.984375 
Q 41.3125 65.921875 37.59375 65.921875 
Q 27.828125 65.921875 22.671875 59.328125 
Q 17.53125 52.734375 16.796875 39.40625 
Q 19.671875 43.65625 24.015625 45.921875 
Q 28.375 48.1875 33.59375 48.1875 
Q 44.578125 48.1875 50.953125 41.515625 
Q 57.328125 34.859375 57.328125 23.390625 
Q 57.328125 12.15625 50.6875 5.359375 
Q 44.046875 -1.421875 33.015625 -1.421875 
Q 20.359375 -1.421875 13.671875 8.265625 
Q 6.984375 17.96875 6.984375 36.375 
Q 6.984375 53.65625 15.1875 63.9375 
Q 23.390625 74.21875 37.203125 74.21875 
Q 40.921875 74.21875 44.703125 73.484375 
Q 48.484375 72.75 52.59375 71.296875 
z
" id="DejaVuSans-54"/>
       </defs>
       <use xlink:href="#DejaVuSans-50"/>
       <use x="63.623047" xlink:href="#DejaVuSans-48"/>
       <use x="127.246094" xlink:href="#DejaVuSans-50"/>
       <use x="190.869141" xlink:href="#DejaVuSans-48"/>
       <use x="254.492188" xlink:href="#DejaVuSans-45"/>
       <use x="290.576172" xlink:href="#DejaVuSans-48"/>
       <use x="354.199219" xlink:href="#DejaVuSans-54"/>
       <use x="417.822266" xlink:href="#DejaVuSans-45"/>
       <use x="453.90625" xlink:href="#DejaVuSans-50"/>
       <use x="517.529297" xlink:href="#DejaVuSans-48"/>
      </g>
     </g>
    </g>
    <g id="xtick_5">
     <g id="line2d_9">
      <path clip-path="url(#p34c0175b7a)" d="M 504.361043 512.64 
L 504.361043 69.12 
" style="fill:none;stroke:#d8dcd6;stroke-dasharray:0.8,1.32;stroke-dashoffset:0;stroke-width:0.8;"/>
     </g>
     <g id="line2d_10">
      <g>
       <use style="stroke:#000000;stroke-width:0.8;" x="504.361043" xlink:href="#m8010190f36" y="512.64"/>
      </g>
     </g>
     <g id="text_5">
      <!-- 2020-08-09 -->
      <g transform="translate(458.505094 562.816745)rotate(-40)scale(0.1 -0.1)">
       <defs>
        <path d="M 31.78125 34.625 
Q 24.75 34.625 20.71875 30.859375 
Q 16.703125 27.09375 16.703125 20.515625 
Q 16.703125 13.921875 20.71875 10.15625 
Q 24.75 6.390625 31.78125 6.390625 
Q 38.8125 6.390625 42.859375 10.171875 
Q 46.921875 13.96875 46.921875 20.515625 
Q 46.921875 27.09375 42.890625 30.859375 
Q 38.875 34.625 31.78125 34.625 
z
M 21.921875 38.8125 
Q 15.578125 40.375 12.03125 44.71875 
Q 8.5 49.078125 8.5 55.328125 
Q 8.5 64.0625 14.71875 69.140625 
Q 20.953125 74.21875 31.78125 74.21875 
Q 42.671875 74.21875 48.875 69.140625 
Q 55.078125 64.0625 55.078125 55.328125 
Q 55.078125 49.078125 51.53125 44.71875 
Q 48 40.375 41.703125 38.8125 
Q 48.828125 37.15625 52.796875 32.3125 
Q 56.78125 27.484375 56.78125 20.515625 
Q 56.78125 9.90625 50.3125 4.234375 
Q 43.84375 -1.421875 31.78125 -1.421875 
Q 19.734375 -1.421875 13.25 4.234375 
Q 6.78125 9.90625 6.78125 20.515625 
Q 6.78125 27.484375 10.78125 32.3125 
Q 14.796875 37.15625 21.921875 38.8125 
z
M 18.3125 54.390625 
Q 18.3125 48.734375 21.84375 45.5625 
Q 25.390625 42.390625 31.78125 42.390625 
Q 38.140625 42.390625 41.71875 45.5625 
Q 45.3125 48.734375 45.3125 54.390625 
Q 45.3125 60.0625 41.71875 63.234375 
Q 38.140625 66.40625 31.78125 66.40625 
Q 25.390625 66.40625 21.84375 63.234375 
Q 18.3125 60.0625 18.3125 54.390625 
z
" id="DejaVuSans-56"/>
        <path d="M 10.984375 1.515625 
L 10.984375 10.5 
Q 14.703125 8.734375 18.5 7.8125 
Q 22.3125 6.890625 25.984375 6.890625 
Q 35.75 6.890625 40.890625 13.453125 
Q 46.046875 20.015625 46.78125 33.40625 
Q 43.953125 29.203125 39.59375 26.953125 
Q 35.25 24.703125 29.984375 24.703125 
Q 19.046875 24.703125 12.671875 31.3125 
Q 6.296875 37.9375 6.296875 49.421875 
Q 6.296875 60.640625 12.9375 67.421875 
Q 19.578125 74.21875 30.609375 74.21875 
Q 43.265625 74.21875 49.921875 64.515625 
Q 56.59375 54.828125 56.59375 36.375 
Q 56.59375 19.140625 48.40625 8.859375 
Q 40.234375 -1.421875 26.421875 -1.421875 
Q 22.703125 -1.421875 18.890625 -0.6875 
Q 15.09375 0.046875 10.984375 1.515625 
z
M 30.609375 32.421875 
Q 37.25 32.421875 41.125 36.953125 
Q 45.015625 41.5 45.015625 49.421875 
Q 45.015625 57.28125 41.125 61.84375 
Q 37.25 66.40625 30.609375 66.40625 
Q 23.96875 66.40625 20.09375 61.84375 
Q 16.21875 57.28125 16.21875 49.421875 
Q 16.21875 41.5 20.09375 36.953125 
Q 23.96875 32.421875 30.609375 32.421875 
z
" id="DejaVuSans-57"/>
       </defs>
       <use xlink:href="#DejaVuSans-50"/>
       <use x="63.623047" xlink:href="#DejaVuSans-48"/>
       <use x="127.246094" xlink:href="#DejaVuSans-50"/>
       <use x="190.869141" xlink:href="#DejaVuSans-48"/>
       <use x="254.492188" xlink:href="#DejaVuSans-45"/>
       <use x="290.576172" xlink:href="#DejaVuSans-48"/>
       <use x="354.199219" xlink:href="#DejaVuSans-56"/>
       <use x="417.822266" xlink:href="#DejaVuSans-45"/>
       <use x="453.90625" xlink:href="#DejaVuSans-48"/>
       <use x="517.529297" xlink:href="#DejaVuSans-57"/>
      </g>
     </g>
    </g>
    <g id="xtick_6">
     <g id="line2d_11">
      <path clip-path="url(#p34c0175b7a)" d="M 595.698237 512.64 
L 595.698237 69.12 
" style="fill:none;stroke:#d8dcd6;stroke-dasharray:0.8,1.32;stroke-dashoffset:0;stroke-width:0.8;"/>
     </g>
     <g id="line2d_12">
      <g>
       <use style="stroke:#000000;stroke-width:0.8;" x="595.698237" xlink:href="#m8010190f36" y="512.64"/>
      </g>
     </g>
     <g id="text_6">
      <!-- 2020-09-28 -->
      <g transform="translate(549.842288 562.816745)rotate(-40)scale(0.1 -0.1)">
       <use xlink:href="#DejaVuSans-50"/>
       <use x="63.623047" xlink:href="#DejaVuSans-48"/>
       <use x="127.246094" xlink:href="#DejaVuSans-50"/>
       <use x="190.869141" xlink:href="#DejaVuSans-48"/>
       <use x="254.492188" xlink:href="#DejaVuSans-45"/>
       <use x="290.576172" xlink:href="#DejaVuSans-48"/>
       <use x="354.199219" xlink:href="#DejaVuSans-57"/>
       <use x="417.822266" xlink:href="#DejaVuSans-45"/>
       <use x="453.90625" xlink:href="#DejaVuSans-50"/>
       <use x="517.529297" xlink:href="#DejaVuSans-56"/>
      </g>
     </g>
    </g>
    <g id="xtick_7">
     <g id="line2d_13">
      <path clip-path="url(#p34c0175b7a)" d="M 687.035432 512.64 
L 687.035432 69.12 
" style="fill:none;stroke:#d8dcd6;stroke-dasharray:0.8,1.32;stroke-dashoffset:0;stroke-width:0.8;"/>
     </g>
     <g id="line2d_14">
      <g>
       <use style="stroke:#000000;stroke-width:0.8;" x="687.035432" xlink:href="#m8010190f36" y="512.64"/>
      </g>
     </g>
     <g id="text_7">
      <!-- 2020-11-17 -->
      <g transform="translate(641.179483 562.816745)rotate(-40)scale(0.1 -0.1)">
       <defs>
        <path d="M 8.203125 72.90625 
L 55.078125 72.90625 
L 55.078125 68.703125 
L 28.609375 0 
L 18.3125 0 
L 43.21875 64.59375 
L 8.203125 64.59375 
z
" id="DejaVuSans-55"/>
       </defs>
       <use xlink:href="#DejaVuSans-50"/>
       <use x="63.623047" xlink:href="#DejaVuSans-48"/>
       <use x="127.246094" xlink:href="#DejaVuSans-50"/>
       <use x="190.869141" xlink:href="#DejaVuSans-48"/>
       <use x="254.492188" xlink:href="#DejaVuSans-45"/>
       <use x="290.576172" xlink:href="#DejaVuSans-49"/>
       <use x="354.199219" xlink:href="#DejaVuSans-49"/>
       <use x="417.822266" xlink:href="#DejaVuSans-45"/>
       <use x="453.90625" xlink:href="#DejaVuSans-49"/>
       <use x="517.529297" xlink:href="#DejaVuSans-55"/>
      </g>
     </g>
    </g>
    <g id="xtick_8">
     <g id="line2d_15">
      <path clip-path="url(#p34c0175b7a)" d="M 778.372627 512.64 
L 778.372627 69.12 
" style="fill:none;stroke:#d8dcd6;stroke-dasharray:0.8,1.32;stroke-dashoffset:0;stroke-width:0.8;"/>
     </g>
     <g id="line2d_16">
      <g>
       <use style="stroke:#000000;stroke-width:0.8;" x="778.372627" xlink:href="#m8010190f36" y="512.64"/>
      </g>
     </g>
     <g id="text_8">
      <!-- 2021-01-06 -->
      <g transform="translate(732.516678 562.816745)rotate(-40)scale(0.1 -0.1)">
       <use xlink:href="#DejaVuSans-50"/>
       <use x="63.623047" xlink:href="#DejaVuSans-48"/>
       <use x="127.246094" xlink:href="#DejaVuSans-50"/>
       <use x="190.869141" xlink:href="#DejaVuSans-49"/>
       <use x="254.492188" xlink:href="#DejaVuSans-45"/>
       <use x="290.576172" xlink:href="#DejaVuSans-48"/>
       <use x="354.199219" xlink:href="#DejaVuSans-49"/>
       <use x="417.822266" xlink:href="#DejaVuSans-45"/>
       <use x="453.90625" xlink:href="#DejaVuSans-48"/>
       <use x="517.529297" xlink:href="#DejaVuSans-54"/>
      </g>
     </g>
    </g>
    <g id="xtick_9">
     <g id="line2d_17">
      <path clip-path="url(#p34c0175b7a)" d="M 120.744825 512.64 
L 120.744825 69.12 
" style="fill:none;stroke:#d8dcd6;stroke-dasharray:0.8,1.32;stroke-dashoffset:0;stroke-width:0.8;"/>
     </g>
     <g id="line2d_18">
      <defs>
       <path d="M 0 0 
L 0 2 
" id="m947414cd8b" style="stroke:#000000;stroke-width:0.6;"/>
      </defs>
      <g>
       <use style="stroke:#000000;stroke-width:0.6;" x="120.744825" xlink:href="#m947414cd8b" y="512.64"/>
      </g>
     </g>
    </g>
    <g id="xtick_10">
     <g id="line2d_19">
      <path clip-path="url(#p34c0175b7a)" d="M 157.279703 512.64 
L 157.279703 69.12 
" style="fill:none;stroke:#d8dcd6;stroke-dasharray:0.8,1.32;stroke-dashoffset:0;stroke-width:0.8;"/>
     </g>
     <g id="line2d_20">
      <g>
       <use style="stroke:#000000;stroke-width:0.6;" x="157.279703" xlink:href="#m947414cd8b" y="512.64"/>
      </g>
     </g>
    </g>
    <g id="xtick_11">
     <g id="line2d_21">
      <path clip-path="url(#p34c0175b7a)" d="M 175.547142 512.64 
L 175.547142 69.12 
" style="fill:none;stroke:#d8dcd6;stroke-dasharray:0.8,1.32;stroke-dashoffset:0;stroke-width:0.8;"/>
     </g>
     <g id="line2d_22">
      <g>
       <use style="stroke:#000000;stroke-width:0.6;" x="175.547142" xlink:href="#m947414cd8b" y="512.64"/>
      </g>
     </g>
    </g>
    <g id="xtick_12">
     <g id="line2d_23">
      <path clip-path="url(#p34c0175b7a)" d="M 193.814581 512.64 
L 193.814581 69.12 
" style="fill:none;stroke:#d8dcd6;stroke-dasharray:0.8,1.32;stroke-dashoffset:0;stroke-width:0.8;"/>
     </g>
     <g id="line2d_24">
      <g>
       <use style="stroke:#000000;stroke-width:0.6;" x="193.814581" xlink:href="#m947414cd8b" y="512.64"/>
      </g>
     </g>
    </g>
    <g id="xtick_13">
     <g id="line2d_25">
      <path clip-path="url(#p34c0175b7a)" d="M 212.08202 512.64 
L 212.08202 69.12 
" style="fill:none;stroke:#d8dcd6;stroke-dasharray:0.8,1.32;stroke-dashoffset:0;stroke-width:0.8;"/>
     </g>
     <g id="line2d_26">
      <g>
       <use style="stroke:#000000;stroke-width:0.6;" x="212.08202" xlink:href="#m947414cd8b" y="512.64"/>
      </g>
     </g>
    </g>
    <g id="xtick_14">
     <g id="line2d_27">
      <path clip-path="url(#p34c0175b7a)" d="M 248.616898 512.64 
L 248.616898 69.12 
" style="fill:none;stroke:#d8dcd6;stroke-dasharray:0.8,1.32;stroke-dashoffset:0;stroke-width:0.8;"/>
     </g>
     <g id="line2d_28">
      <g>
       <use style="stroke:#000000;stroke-width:0.6;" x="248.616898" xlink:href="#m947414cd8b" y="512.64"/>
      </g>
     </g>
    </g>
    <g id="xtick_15">
     <g id="line2d_29">
      <path clip-path="url(#p34c0175b7a)" d="M 266.884336 512.64 
L 266.884336 69.12 
" style="fill:none;stroke:#d8dcd6;stroke-dasharray:0.8,1.32;stroke-dashoffset:0;stroke-width:0.8;"/>
     </g>
     <g id="line2d_30">
      <g>
       <use style="stroke:#000000;stroke-width:0.6;" x="266.884336" xlink:href="#m947414cd8b" y="512.64"/>
      </g>
     </g>
    </g>
    <g id="xtick_16">
     <g id="line2d_31">
      <path clip-path="url(#p34c0175b7a)" d="M 285.151775 512.64 
L 285.151775 69.12 
" style="fill:none;stroke:#d8dcd6;stroke-dasharray:0.8,1.32;stroke-dashoffset:0;stroke-width:0.8;"/>
     </g>
     <g id="line2d_32">
      <g>
       <use style="stroke:#000000;stroke-width:0.6;" x="285.151775" xlink:href="#m947414cd8b" y="512.64"/>
      </g>
     </g>
    </g>
    <g id="xtick_17">
     <g id="line2d_33">
      <path clip-path="url(#p34c0175b7a)" d="M 303.419214 512.64 
L 303.419214 69.12 
" style="fill:none;stroke:#d8dcd6;stroke-dasharray:0.8,1.32;stroke-dashoffset:0;stroke-width:0.8;"/>
     </g>
     <g id="line2d_34">
      <g>
       <use style="stroke:#000000;stroke-width:0.6;" x="303.419214" xlink:href="#m947414cd8b" y="512.64"/>
      </g>
     </g>
    </g>
    <g id="xtick_18">
     <g id="line2d_35">
      <path clip-path="url(#p34c0175b7a)" d="M 339.954092 512.64 
L 339.954092 69.12 
" style="fill:none;stroke:#d8dcd6;stroke-dasharray:0.8,1.32;stroke-dashoffset:0;stroke-width:0.8;"/>
     </g>
     <g id="line2d_36">
      <g>
       <use style="stroke:#000000;stroke-width:0.6;" x="339.954092" xlink:href="#m947414cd8b" y="512.64"/>
      </g>
     </g>
    </g>
    <g id="xtick_19">
     <g id="line2d_37">
      <path clip-path="url(#p34c0175b7a)" d="M 358.221531 512.64 
L 358.221531 69.12 
" style="fill:none;stroke:#d8dcd6;stroke-dasharray:0.8,1.32;stroke-dashoffset:0;stroke-width:0.8;"/>
     </g>
     <g id="line2d_38">
      <g>
       <use style="stroke:#000000;stroke-width:0.6;" x="358.221531" xlink:href="#m947414cd8b" y="512.64"/>
      </g>
     </g>
    </g>
    <g id="xtick_20">
     <g id="line2d_39">
      <path clip-path="url(#p34c0175b7a)" d="M 376.48897 512.64 
L 376.48897 69.12 
" style="fill:none;stroke:#d8dcd6;stroke-dasharray:0.8,1.32;stroke-dashoffset:0;stroke-width:0.8;"/>
     </g>
     <g id="line2d_40">
      <g>
       <use style="stroke:#000000;stroke-width:0.6;" x="376.48897" xlink:href="#m947414cd8b" y="512.64"/>
      </g>
     </g>
    </g>
    <g id="xtick_21">
     <g id="line2d_41">
      <path clip-path="url(#p34c0175b7a)" d="M 394.756409 512.64 
L 394.756409 69.12 
" style="fill:none;stroke:#d8dcd6;stroke-dasharray:0.8,1.32;stroke-dashoffset:0;stroke-width:0.8;"/>
     </g>
     <g id="line2d_42">
      <g>
       <use style="stroke:#000000;stroke-width:0.6;" x="394.756409" xlink:href="#m947414cd8b" y="512.64"/>
      </g>
     </g>
    </g>
    <g id="xtick_22">
     <g id="line2d_43">
      <path clip-path="url(#p34c0175b7a)" d="M 431.291287 512.64 
L 431.291287 69.12 
" style="fill:none;stroke:#d8dcd6;stroke-dasharray:0.8,1.32;stroke-dashoffset:0;stroke-width:0.8;"/>
     </g>
     <g id="line2d_44">
      <g>
       <use style="stroke:#000000;stroke-width:0.6;" x="431.291287" xlink:href="#m947414cd8b" y="512.64"/>
      </g>
     </g>
    </g>
    <g id="xtick_23">
     <g id="line2d_45">
      <path clip-path="url(#p34c0175b7a)" d="M 449.558726 512.64 
L 449.558726 69.12 
" style="fill:none;stroke:#d8dcd6;stroke-dasharray:0.8,1.32;stroke-dashoffset:0;stroke-width:0.8;"/>
     </g>
     <g id="line2d_46">
      <g>
       <use style="stroke:#000000;stroke-width:0.6;" x="449.558726" xlink:href="#m947414cd8b" y="512.64"/>
      </g>
     </g>
    </g>
    <g id="xtick_24">
     <g id="line2d_47">
      <path clip-path="url(#p34c0175b7a)" d="M 467.826165 512.64 
L 467.826165 69.12 
" style="fill:none;stroke:#d8dcd6;stroke-dasharray:0.8,1.32;stroke-dashoffset:0;stroke-width:0.8;"/>
     </g>
     <g id="line2d_48">
      <g>
       <use style="stroke:#000000;stroke-width:0.6;" x="467.826165" xlink:href="#m947414cd8b" y="512.64"/>
      </g>
     </g>
    </g>
    <g id="xtick_25">
     <g id="line2d_49">
      <path clip-path="url(#p34c0175b7a)" d="M 486.093604 512.64 
L 486.093604 69.12 
" style="fill:none;stroke:#d8dcd6;stroke-dasharray:0.8,1.32;stroke-dashoffset:0;stroke-width:0.8;"/>
     </g>
     <g id="line2d_50">
      <g>
       <use style="stroke:#000000;stroke-width:0.6;" x="486.093604" xlink:href="#m947414cd8b" y="512.64"/>
      </g>
     </g>
    </g>
    <g id="xtick_26">
     <g id="line2d_51">
      <path clip-path="url(#p34c0175b7a)" d="M 522.628481 512.64 
L 522.628481 69.12 
" style="fill:none;stroke:#d8dcd6;stroke-dasharray:0.8,1.32;stroke-dashoffset:0;stroke-width:0.8;"/>
     </g>
     <g id="line2d_52">
      <g>
       <use style="stroke:#000000;stroke-width:0.6;" x="522.628481" xlink:href="#m947414cd8b" y="512.64"/>
      </g>
     </g>
    </g>
    <g id="xtick_27">
     <g id="line2d_53">
      <path clip-path="url(#p34c0175b7a)" d="M 540.89592 512.64 
L 540.89592 69.12 
" style="fill:none;stroke:#d8dcd6;stroke-dasharray:0.8,1.32;stroke-dashoffset:0;stroke-width:0.8;"/>
     </g>
     <g id="line2d_54">
      <g>
       <use style="stroke:#000000;stroke-width:0.6;" x="540.89592" xlink:href="#m947414cd8b" y="512.64"/>
      </g>
     </g>
    </g>
    <g id="xtick_28">
     <g id="line2d_55">
      <path clip-path="url(#p34c0175b7a)" d="M 559.163359 512.64 
L 559.163359 69.12 
" style="fill:none;stroke:#d8dcd6;stroke-dasharray:0.8,1.32;stroke-dashoffset:0;stroke-width:0.8;"/>
     </g>
     <g id="line2d_56">
      <g>
       <use style="stroke:#000000;stroke-width:0.6;" x="559.163359" xlink:href="#m947414cd8b" y="512.64"/>
      </g>
     </g>
    </g>
    <g id="xtick_29">
     <g id="line2d_57">
      <path clip-path="url(#p34c0175b7a)" d="M 577.430798 512.64 
L 577.430798 69.12 
" style="fill:none;stroke:#d8dcd6;stroke-dasharray:0.8,1.32;stroke-dashoffset:0;stroke-width:0.8;"/>
     </g>
     <g id="line2d_58">
      <g>
       <use style="stroke:#000000;stroke-width:0.6;" x="577.430798" xlink:href="#m947414cd8b" y="512.64"/>
      </g>
     </g>
    </g>
    <g id="xtick_30">
     <g id="line2d_59">
      <path clip-path="url(#p34c0175b7a)" d="M 613.965676 512.64 
L 613.965676 69.12 
" style="fill:none;stroke:#d8dcd6;stroke-dasharray:0.8,1.32;stroke-dashoffset:0;stroke-width:0.8;"/>
     </g>
     <g id="line2d_60">
      <g>
       <use style="stroke:#000000;stroke-width:0.6;" x="613.965676" xlink:href="#m947414cd8b" y="512.64"/>
      </g>
     </g>
    </g>
    <g id="xtick_31">
     <g id="line2d_61">
      <path clip-path="url(#p34c0175b7a)" d="M 632.233115 512.64 
L 632.233115 69.12 
" style="fill:none;stroke:#d8dcd6;stroke-dasharray:0.8,1.32;stroke-dashoffset:0;stroke-width:0.8;"/>
     </g>
     <g id="line2d_62">
      <g>
       <use style="stroke:#000000;stroke-width:0.6;" x="632.233115" xlink:href="#m947414cd8b" y="512.64"/>
      </g>
     </g>
    </g>
    <g id="xtick_32">
     <g id="line2d_63">
      <path clip-path="url(#p34c0175b7a)" d="M 650.500554 512.64 
L 650.500554 69.12 
" style="fill:none;stroke:#d8dcd6;stroke-dasharray:0.8,1.32;stroke-dashoffset:0;stroke-width:0.8;"/>
     </g>
     <g id="line2d_64">
      <g>
       <use style="stroke:#000000;stroke-width:0.6;" x="650.500554" xlink:href="#m947414cd8b" y="512.64"/>
      </g>
     </g>
    </g>
    <g id="xtick_33">
     <g id="line2d_65">
      <path clip-path="url(#p34c0175b7a)" d="M 668.767993 512.64 
L 668.767993 69.12 
" style="fill:none;stroke:#d8dcd6;stroke-dasharray:0.8,1.32;stroke-dashoffset:0;stroke-width:0.8;"/>
     </g>
     <g id="line2d_66">
      <g>
       <use style="stroke:#000000;stroke-width:0.6;" x="668.767993" xlink:href="#m947414cd8b" y="512.64"/>
      </g>
     </g>
    </g>
    <g id="xtick_34">
     <g id="line2d_67">
      <path clip-path="url(#p34c0175b7a)" d="M 705.302871 512.64 
L 705.302871 69.12 
" style="fill:none;stroke:#d8dcd6;stroke-dasharray:0.8,1.32;stroke-dashoffset:0;stroke-width:0.8;"/>
     </g>
     <g id="line2d_68">
      <g>
       <use style="stroke:#000000;stroke-width:0.6;" x="705.302871" xlink:href="#m947414cd8b" y="512.64"/>
      </g>
     </g>
    </g>
    <g id="xtick_35">
     <g id="line2d_69">
      <path clip-path="url(#p34c0175b7a)" d="M 723.57031 512.64 
L 723.57031 69.12 
" style="fill:none;stroke:#d8dcd6;stroke-dasharray:0.8,1.32;stroke-dashoffset:0;stroke-width:0.8;"/>
     </g>
     <g id="line2d_70">
      <g>
       <use style="stroke:#000000;stroke-width:0.6;" x="723.57031" xlink:href="#m947414cd8b" y="512.64"/>
      </g>
     </g>
    </g>
    <g id="xtick_36">
     <g id="line2d_71">
      <path clip-path="url(#p34c0175b7a)" d="M 741.837749 512.64 
L 741.837749 69.12 
" style="fill:none;stroke:#d8dcd6;stroke-dasharray:0.8,1.32;stroke-dashoffset:0;stroke-width:0.8;"/>
     </g>
     <g id="line2d_72">
      <g>
       <use style="stroke:#000000;stroke-width:0.6;" x="741.837749" xlink:href="#m947414cd8b" y="512.64"/>
      </g>
     </g>
    </g>
    <g id="xtick_37">
     <g id="line2d_73">
      <path clip-path="url(#p34c0175b7a)" d="M 760.105188 512.64 
L 760.105188 69.12 
" style="fill:none;stroke:#d8dcd6;stroke-dasharray:0.8,1.32;stroke-dashoffset:0;stroke-width:0.8;"/>
     </g>
     <g id="line2d_74">
      <g>
       <use style="stroke:#000000;stroke-width:0.6;" x="760.105188" xlink:href="#m947414cd8b" y="512.64"/>
      </g>
     </g>
    </g>
    <g id="xtick_38">
     <g id="line2d_75">
      <path clip-path="url(#p34c0175b7a)" d="M 796.640065 512.64 
L 796.640065 69.12 
" style="fill:none;stroke:#d8dcd6;stroke-dasharray:0.8,1.32;stroke-dashoffset:0;stroke-width:0.8;"/>
     </g>
     <g id="line2d_76">
      <g>
       <use style="stroke:#000000;stroke-width:0.6;" x="796.640065" xlink:href="#m947414cd8b" y="512.64"/>
      </g>
     </g>
    </g>
    <g id="xtick_39">
     <g id="line2d_77">
      <path clip-path="url(#p34c0175b7a)" d="M 814.907504 512.64 
L 814.907504 69.12 
" style="fill:none;stroke:#d8dcd6;stroke-dasharray:0.8,1.32;stroke-dashoffset:0;stroke-width:0.8;"/>
     </g>
     <g id="line2d_78">
      <g>
       <use style="stroke:#000000;stroke-width:0.6;" x="814.907504" xlink:href="#m947414cd8b" y="512.64"/>
      </g>
     </g>
    </g>
    <g id="xtick_40">
     <g id="line2d_79">
      <path clip-path="url(#p34c0175b7a)" d="M 833.174943 512.64 
L 833.174943 69.12 
" style="fill:none;stroke:#d8dcd6;stroke-dasharray:0.8,1.32;stroke-dashoffset:0;stroke-width:0.8;"/>
     </g>
     <g id="line2d_80">
      <g>
       <use style="stroke:#000000;stroke-width:0.6;" x="833.174943" xlink:href="#m947414cd8b" y="512.64"/>
      </g>
     </g>
    </g>
   </g>
   <g id="matplotlib.axis_2">
    <g id="ytick_1">
     <g id="line2d_81">
      <path clip-path="url(#p34c0175b7a)" d="M 117 512.64 
L 842.4 512.64 
" style="fill:none;stroke:#d8dcd6;stroke-dasharray:0.8,1.32;stroke-dashoffset:0;stroke-width:0.8;"/>
     </g>
     <g id="line2d_82">
      <defs>
       <path d="M 0 0 
L -3.5 0 
" id="m79a771013c" style="stroke:#000000;stroke-width:0.8;"/>
      </defs>
      <g>
       <use style="stroke:#000000;stroke-width:0.8;" x="117" xlink:href="#m79a771013c" y="512.64"/>
      </g>
     </g>
     <g id="text_9">
      <!-- 0 -->
      <g transform="translate(103.6375 516.439219)scale(0.1 -0.1)">
       <use xlink:href="#DejaVuSans-48"/>
      </g>
     </g>
    </g>
    <g id="ytick_2">
     <g id="line2d_83">
      <path clip-path="url(#p34c0175b7a)" d="M 117 423.936 
L 842.4 423.936 
" style="fill:none;stroke:#d8dcd6;stroke-dasharray:0.8,1.32;stroke-dashoffset:0;stroke-width:0.8;"/>
     </g>
     <g id="line2d_84">
      <g>
       <use style="stroke:#000000;stroke-width:0.8;" x="117" xlink:href="#m79a771013c" y="423.936"/>
      </g>
     </g>
     <g id="text_10">
      <!-- 5 -->
      <g transform="translate(103.6375 427.735219)scale(0.1 -0.1)">
       <use xlink:href="#DejaVuSans-53"/>
      </g>
     </g>
    </g>
    <g id="ytick_3">
     <g id="line2d_85">
      <path clip-path="url(#p34c0175b7a)" d="M 117 335.232 
L 842.4 335.232 
" style="fill:none;stroke:#d8dcd6;stroke-dasharray:0.8,1.32;stroke-dashoffset:0;stroke-width:0.8;"/>
     </g>
     <g id="line2d_86">
      <g>
       <use style="stroke:#000000;stroke-width:0.8;" x="117" xlink:href="#m79a771013c" y="335.232"/>
      </g>
     </g>
     <g id="text_11">
      <!-- 10 -->
      <g transform="translate(97.275 339.031219)scale(0.1 -0.1)">
       <use xlink:href="#DejaVuSans-49"/>
       <use x="63.623047" xlink:href="#DejaVuSans-48"/>
      </g>
     </g>
    </g>
    <g id="ytick_4">
     <g id="line2d_87">
      <path clip-path="url(#p34c0175b7a)" d="M 117 246.528 
L 842.4 246.528 
" style="fill:none;stroke:#d8dcd6;stroke-dasharray:0.8,1.32;stroke-dashoffset:0;stroke-width:0.8;"/>
     </g>
     <g id="line2d_88">
      <g>
       <use style="stroke:#000000;stroke-width:0.8;" x="117" xlink:href="#m79a771013c" y="246.528"/>
      </g>
     </g>
     <g id="text_12">
      <!-- 15 -->
      <g transform="translate(97.275 250.327219)scale(0.1 -0.1)">
       <use xlink:href="#DejaVuSans-49"/>
       <use x="63.623047" xlink:href="#DejaVuSans-53"/>
      </g>
     </g>
    </g>
    <g id="ytick_5">
     <g id="line2d_89">
      <path clip-path="url(#p34c0175b7a)" d="M 117 157.824 
L 842.4 157.824 
" style="fill:none;stroke:#d8dcd6;stroke-dasharray:0.8,1.32;stroke-dashoffset:0;stroke-width:0.8;"/>
     </g>
     <g id="line2d_90">
      <g>
       <use style="stroke:#000000;stroke-width:0.8;" x="117" xlink:href="#m79a771013c" y="157.824"/>
      </g>
     </g>
     <g id="text_13">
      <!-- 20 -->
      <g transform="translate(97.275 161.623219)scale(0.1 -0.1)">
       <use xlink:href="#DejaVuSans-50"/>
       <use x="63.623047" xlink:href="#DejaVuSans-48"/>
      </g>
     </g>
    </g>
    <g id="ytick_6">
     <g id="line2d_91">
      <path clip-path="url(#p34c0175b7a)" d="M 117 69.12 
L 842.4 69.12 
" style="fill:none;stroke:#d8dcd6;stroke-dasharray:0.8,1.32;stroke-dashoffset:0;stroke-width:0.8;"/>
     </g>
     <g id="line2d_92">
      <g>
       <use style="stroke:#000000;stroke-width:0.8;" x="117" xlink:href="#m79a771013c" y="69.12"/>
      </g>
     </g>
     <g id="text_14">
      <!-- 25 -->
      <g transform="translate(97.275 72.919219)scale(0.1 -0.1)">
       <use xlink:href="#DejaVuSans-50"/>
       <use x="63.623047" xlink:href="#DejaVuSans-53"/>
      </g>
     </g>
    </g>
    <g id="ytick_7">
     <g id="line2d_93">
      <path clip-path="url(#p34c0175b7a)" d="M 117 494.8992 
L 842.4 494.8992 
" style="fill:none;stroke:#d8dcd6;stroke-dasharray:0.8,1.32;stroke-dashoffset:0;stroke-width:0.8;"/>
     </g>
     <g id="line2d_94">
      <defs>
       <path d="M 0 0 
L -2 0 
" id="m74f447b368" style="stroke:#000000;stroke-width:0.6;"/>
      </defs>
      <g>
       <use style="stroke:#000000;stroke-width:0.6;" x="117" xlink:href="#m74f447b368" y="494.8992"/>
      </g>
     </g>
    </g>
    <g id="ytick_8">
     <g id="line2d_95">
      <path clip-path="url(#p34c0175b7a)" d="M 117 477.1584 
L 842.4 477.1584 
" style="fill:none;stroke:#d8dcd6;stroke-dasharray:0.8,1.32;stroke-dashoffset:0;stroke-width:0.8;"/>
     </g>
     <g id="line2d_96">
      <g>
       <use style="stroke:#000000;stroke-width:0.6;" x="117" xlink:href="#m74f447b368" y="477.1584"/>
      </g>
     </g>
    </g>
    <g id="ytick_9">
     <g id="line2d_97">
      <path clip-path="url(#p34c0175b7a)" d="M 117 459.4176 
L 842.4 459.4176 
" style="fill:none;stroke:#d8dcd6;stroke-dasharray:0.8,1.32;stroke-dashoffset:0;stroke-width:0.8;"/>
     </g>
     <g id="line2d_98">
      <g>
       <use style="stroke:#000000;stroke-width:0.6;" x="117" xlink:href="#m74f447b368" y="459.4176"/>
      </g>
     </g>
    </g>
    <g id="ytick_10">
     <g id="line2d_99">
      <path clip-path="url(#p34c0175b7a)" d="M 117 441.6768 
L 842.4 441.6768 
" style="fill:none;stroke:#d8dcd6;stroke-dasharray:0.8,1.32;stroke-dashoffset:0;stroke-width:0.8;"/>
     </g>
     <g id="line2d_100">
      <g>
       <use style="stroke:#000000;stroke-width:0.6;" x="117" xlink:href="#m74f447b368" y="441.6768"/>
      </g>
     </g>
    </g>
    <g id="ytick_11">
     <g id="line2d_101">
      <path clip-path="url(#p34c0175b7a)" d="M 117 406.1952 
L 842.4 406.1952 
" style="fill:none;stroke:#d8dcd6;stroke-dasharray:0.8,1.32;stroke-dashoffset:0;stroke-width:0.8;"/>
     </g>
     <g id="line2d_102">
      <g>
       <use style="stroke:#000000;stroke-width:0.6;" x="117" xlink:href="#m74f447b368" y="406.1952"/>
      </g>
     </g>
    </g>
    <g id="ytick_12">
     <g id="line2d_103">
      <path clip-path="url(#p34c0175b7a)" d="M 117 388.4544 
L 842.4 388.4544 
" style="fill:none;stroke:#d8dcd6;stroke-dasharray:0.8,1.32;stroke-dashoffset:0;stroke-width:0.8;"/>
     </g>
     <g id="line2d_104">
      <g>
       <use style="stroke:#000000;stroke-width:0.6;" x="117" xlink:href="#m74f447b368" y="388.4544"/>
      </g>
     </g>
    </g>
    <g id="ytick_13">
     <g id="line2d_105">
      <path clip-path="url(#p34c0175b7a)" d="M 117 370.7136 
L 842.4 370.7136 
" style="fill:none;stroke:#d8dcd6;stroke-dasharray:0.8,1.32;stroke-dashoffset:0;stroke-width:0.8;"/>
     </g>
     <g id="line2d_106">
      <g>
       <use style="stroke:#000000;stroke-width:0.6;" x="117" xlink:href="#m74f447b368" y="370.7136"/>
      </g>
     </g>
    </g>
    <g id="ytick_14">
     <g id="line2d_107">
      <path clip-path="url(#p34c0175b7a)" d="M 117 352.9728 
L 842.4 352.9728 
" style="fill:none;stroke:#d8dcd6;stroke-dasharray:0.8,1.32;stroke-dashoffset:0;stroke-width:0.8;"/>
     </g>
     <g id="line2d_108">
      <g>
       <use style="stroke:#000000;stroke-width:0.6;" x="117" xlink:href="#m74f447b368" y="352.9728"/>
      </g>
     </g>
    </g>
    <g id="ytick_15">
     <g id="line2d_109">
      <path clip-path="url(#p34c0175b7a)" d="M 117 317.4912 
L 842.4 317.4912 
" style="fill:none;stroke:#d8dcd6;stroke-dasharray:0.8,1.32;stroke-dashoffset:0;stroke-width:0.8;"/>
     </g>
     <g id="line2d_110">
      <g>
       <use style="stroke:#000000;stroke-width:0.6;" x="117" xlink:href="#m74f447b368" y="317.4912"/>
      </g>
     </g>
    </g>
    <g id="ytick_16">
     <g id="line2d_111">
      <path clip-path="url(#p34c0175b7a)" d="M 117 299.7504 
L 842.4 299.7504 
" style="fill:none;stroke:#d8dcd6;stroke-dasharray:0.8,1.32;stroke-dashoffset:0;stroke-width:0.8;"/>
     </g>
     <g id="line2d_112">
      <g>
       <use style="stroke:#000000;stroke-width:0.6;" x="117" xlink:href="#m74f447b368" y="299.7504"/>
      </g>
     </g>
    </g>
    <g id="ytick_17">
     <g id="line2d_113">
      <path clip-path="url(#p34c0175b7a)" d="M 117 282.0096 
L 842.4 282.0096 
" style="fill:none;stroke:#d8dcd6;stroke-dasharray:0.8,1.32;stroke-dashoffset:0;stroke-width:0.8;"/>
     </g>
     <g id="line2d_114">
      <g>
       <use style="stroke:#000000;stroke-width:0.6;" x="117" xlink:href="#m74f447b368" y="282.0096"/>
      </g>
     </g>
    </g>
    <g id="ytick_18">
     <g id="line2d_115">
      <path clip-path="url(#p34c0175b7a)" d="M 117 264.2688 
L 842.4 264.2688 
" style="fill:none;stroke:#d8dcd6;stroke-dasharray:0.8,1.32;stroke-dashoffset:0;stroke-width:0.8;"/>
     </g>
     <g id="line2d_116">
      <g>
       <use style="stroke:#000000;stroke-width:0.6;" x="117" xlink:href="#m74f447b368" y="264.2688"/>
      </g>
     </g>
    </g>
    <g id="ytick_19">
     <g id="line2d_117">
      <path clip-path="url(#p34c0175b7a)" d="M 117 228.7872 
L 842.4 228.7872 
" style="fill:none;stroke:#d8dcd6;stroke-dasharray:0.8,1.32;stroke-dashoffset:0;stroke-width:0.8;"/>
     </g>
     <g id="line2d_118">
      <g>
       <use style="stroke:#000000;stroke-width:0.6;" x="117" xlink:href="#m74f447b368" y="228.7872"/>
      </g>
     </g>
    </g>
    <g id="ytick_20">
     <g id="line2d_119">
      <path clip-path="url(#p34c0175b7a)" d="M 117 211.0464 
L 842.4 211.0464 
" style="fill:none;stroke:#d8dcd6;stroke-dasharray:0.8,1.32;stroke-dashoffset:0;stroke-width:0.8;"/>
     </g>
     <g id="line2d_120">
      <g>
       <use style="stroke:#000000;stroke-width:0.6;" x="117" xlink:href="#m74f447b368" y="211.0464"/>
      </g>
     </g>
    </g>
    <g id="ytick_21">
     <g id="line2d_121">
      <path clip-path="url(#p34c0175b7a)" d="M 117 193.3056 
L 842.4 193.3056 
" style="fill:none;stroke:#d8dcd6;stroke-dasharray:0.8,1.32;stroke-dashoffset:0;stroke-width:0.8;"/>
     </g>
     <g id="line2d_122">
      <g>
       <use style="stroke:#000000;stroke-width:0.6;" x="117" xlink:href="#m74f447b368" y="193.3056"/>
      </g>
     </g>
    </g>
    <g id="ytick_22">
     <g id="line2d_123">
      <path clip-path="url(#p34c0175b7a)" d="M 117 175.5648 
L 842.4 175.5648 
" style="fill:none;stroke:#d8dcd6;stroke-dasharray:0.8,1.32;stroke-dashoffset:0;stroke-width:0.8;"/>
     </g>
     <g id="line2d_124">
      <g>
       <use style="stroke:#000000;stroke-width:0.6;" x="117" xlink:href="#m74f447b368" y="175.5648"/>
      </g>
     </g>
    </g>
    <g id="ytick_23">
     <g id="line2d_125">
      <path clip-path="url(#p34c0175b7a)" d="M 117 140.0832 
L 842.4 140.0832 
" style="fill:none;stroke:#d8dcd6;stroke-dasharray:0.8,1.32;stroke-dashoffset:0;stroke-width:0.8;"/>
     </g>
     <g id="line2d_126">
      <g>
       <use style="stroke:#000000;stroke-width:0.6;" x="117" xlink:href="#m74f447b368" y="140.0832"/>
      </g>
     </g>
    </g>
    <g id="ytick_24">
     <g id="line2d_127">
      <path clip-path="url(#p34c0175b7a)" d="M 117 122.3424 
L 842.4 122.3424 
" style="fill:none;stroke:#d8dcd6;stroke-dasharray:0.8,1.32;stroke-dashoffset:0;stroke-width:0.8;"/>
     </g>
     <g id="line2d_128">
      <g>
       <use style="stroke:#000000;stroke-width:0.6;" x="117" xlink:href="#m74f447b368" y="122.3424"/>
      </g>
     </g>
    </g>
    <g id="ytick_25">
     <g id="line2d_129">
      <path clip-path="url(#p34c0175b7a)" d="M 117 104.6016 
L 842.4 104.6016 
" style="fill:none;stroke:#d8dcd6;stroke-dasharray:0.8,1.32;stroke-dashoffset:0;stroke-width:0.8;"/>
     </g>
     <g id="line2d_130">
      <g>
       <use style="stroke:#000000;stroke-width:0.6;" x="117" xlink:href="#m74f447b368" y="104.6016"/>
      </g>
     </g>
    </g>
    <g id="ytick_26">
     <g id="line2d_131">
      <path clip-path="url(#p34c0175b7a)" d="M 117 86.8608 
L 842.4 86.8608 
" style="fill:none;stroke:#d8dcd6;stroke-dasharray:0.8,1.32;stroke-dashoffset:0;stroke-width:0.8;"/>
     </g>
     <g id="line2d_132">
      <g>
       <use style="stroke:#000000;stroke-width:0.6;" x="117" xlink:href="#m74f447b368" y="86.8608"/>
      </g>
     </g>
    </g>
    <g id="text_15">
     <!-- cases double every $n$ days (backw avg over 4 days) -->
     <g transform="translate(91.175 420.63)rotate(-90)scale(0.1 -0.1)">
      <defs>
       <path d="M 48.78125 52.59375 
L 48.78125 44.1875 
Q 44.96875 46.296875 41.140625 47.34375 
Q 37.3125 48.390625 33.40625 48.390625 
Q 24.65625 48.390625 19.8125 42.84375 
Q 14.984375 37.3125 14.984375 27.296875 
Q 14.984375 17.28125 19.8125 11.734375 
Q 24.65625 6.203125 33.40625 6.203125 
Q 37.3125 6.203125 41.140625 7.25 
Q 44.96875 8.296875 48.78125 10.40625 
L 48.78125 2.09375 
Q 45.015625 0.34375 40.984375 -0.53125 
Q 36.96875 -1.421875 32.421875 -1.421875 
Q 20.0625 -1.421875 12.78125 6.34375 
Q 5.515625 14.109375 5.515625 27.296875 
Q 5.515625 40.671875 12.859375 48.328125 
Q 20.21875 56 33.015625 56 
Q 37.15625 56 41.109375 55.140625 
Q 45.0625 54.296875 48.78125 52.59375 
z
" id="DejaVuSans-99"/>
       <path d="M 34.28125 27.484375 
Q 23.390625 27.484375 19.1875 25 
Q 14.984375 22.515625 14.984375 16.5 
Q 14.984375 11.71875 18.140625 8.90625 
Q 21.296875 6.109375 26.703125 6.109375 
Q 34.1875 6.109375 38.703125 11.40625 
Q 43.21875 16.703125 43.21875 25.484375 
L 43.21875 27.484375 
z
M 52.203125 31.203125 
L 52.203125 0 
L 43.21875 0 
L 43.21875 8.296875 
Q 40.140625 3.328125 35.546875 0.953125 
Q 30.953125 -1.421875 24.3125 -1.421875 
Q 15.921875 -1.421875 10.953125 3.296875 
Q 6 8.015625 6 15.921875 
Q 6 25.140625 12.171875 29.828125 
Q 18.359375 34.515625 30.609375 34.515625 
L 43.21875 34.515625 
L 43.21875 35.40625 
Q 43.21875 41.609375 39.140625 45 
Q 35.0625 48.390625 27.6875 48.390625 
Q 23 48.390625 18.546875 47.265625 
Q 14.109375 46.140625 10.015625 43.890625 
L 10.015625 52.203125 
Q 14.9375 54.109375 19.578125 55.046875 
Q 24.21875 56 28.609375 56 
Q 40.484375 56 46.34375 49.84375 
Q 52.203125 43.703125 52.203125 31.203125 
z
" id="DejaVuSans-97"/>
       <path d="M 44.28125 53.078125 
L 44.28125 44.578125 
Q 40.484375 46.53125 36.375 47.5 
Q 32.28125 48.484375 27.875 48.484375 
Q 21.1875 48.484375 17.84375 46.4375 
Q 14.5 44.390625 14.5 40.28125 
Q 14.5 37.15625 16.890625 35.375 
Q 19.28125 33.59375 26.515625 31.984375 
L 29.59375 31.296875 
Q 39.15625 29.25 43.1875 25.515625 
Q 47.21875 21.78125 47.21875 15.09375 
Q 47.21875 7.46875 41.1875 3.015625 
Q 35.15625 -1.421875 24.609375 -1.421875 
Q 20.21875 -1.421875 15.453125 -0.5625 
Q 10.6875 0.296875 5.421875 2 
L 5.421875 11.28125 
Q 10.40625 8.6875 15.234375 7.390625 
Q 20.0625 6.109375 24.8125 6.109375 
Q 31.15625 6.109375 34.5625 8.28125 
Q 37.984375 10.453125 37.984375 14.40625 
Q 37.984375 18.0625 35.515625 20.015625 
Q 33.0625 21.96875 24.703125 23.78125 
L 21.578125 24.515625 
Q 13.234375 26.265625 9.515625 29.90625 
Q 5.8125 33.546875 5.8125 39.890625 
Q 5.8125 47.609375 11.28125 51.796875 
Q 16.75 56 26.8125 56 
Q 31.78125 56 36.171875 55.265625 
Q 40.578125 54.546875 44.28125 53.078125 
z
" id="DejaVuSans-115"/>
       <path d="M 56.203125 29.59375 
L 56.203125 25.203125 
L 14.890625 25.203125 
Q 15.484375 15.921875 20.484375 11.0625 
Q 25.484375 6.203125 34.421875 6.203125 
Q 39.59375 6.203125 44.453125 7.46875 
Q 49.3125 8.734375 54.109375 11.28125 
L 54.109375 2.78125 
Q 49.265625 0.734375 44.1875 -0.34375 
Q 39.109375 -1.421875 33.890625 -1.421875 
Q 20.796875 -1.421875 13.15625 6.1875 
Q 5.515625 13.8125 5.515625 26.8125 
Q 5.515625 40.234375 12.765625 48.109375 
Q 20.015625 56 32.328125 56 
Q 43.359375 56 49.78125 48.890625 
Q 56.203125 41.796875 56.203125 29.59375 
z
M 47.21875 32.234375 
Q 47.125 39.59375 43.09375 43.984375 
Q 39.0625 48.390625 32.421875 48.390625 
Q 24.90625 48.390625 20.390625 44.140625 
Q 15.875 39.890625 15.1875 32.171875 
z
" id="DejaVuSans-101"/>
       <path id="DejaVuSans-32"/>
       <path d="M 45.40625 46.390625 
L 45.40625 75.984375 
L 54.390625 75.984375 
L 54.390625 0 
L 45.40625 0 
L 45.40625 8.203125 
Q 42.578125 3.328125 38.25 0.953125 
Q 33.9375 -1.421875 27.875 -1.421875 
Q 17.96875 -1.421875 11.734375 6.484375 
Q 5.515625 14.40625 5.515625 27.296875 
Q 5.515625 40.1875 11.734375 48.09375 
Q 17.96875 56 27.875 56 
Q 33.9375 56 38.25 53.625 
Q 42.578125 51.265625 45.40625 46.390625 
z
M 14.796875 27.296875 
Q 14.796875 17.390625 18.875 11.75 
Q 22.953125 6.109375 30.078125 6.109375 
Q 37.203125 6.109375 41.296875 11.75 
Q 45.40625 17.390625 45.40625 27.296875 
Q 45.40625 37.203125 41.296875 42.84375 
Q 37.203125 48.484375 30.078125 48.484375 
Q 22.953125 48.484375 18.875 42.84375 
Q 14.796875 37.203125 14.796875 27.296875 
z
" id="DejaVuSans-100"/>
       <path d="M 30.609375 48.390625 
Q 23.390625 48.390625 19.1875 42.75 
Q 14.984375 37.109375 14.984375 27.296875 
Q 14.984375 17.484375 19.15625 11.84375 
Q 23.34375 6.203125 30.609375 6.203125 
Q 37.796875 6.203125 41.984375 11.859375 
Q 46.1875 17.53125 46.1875 27.296875 
Q 46.1875 37.015625 41.984375 42.703125 
Q 37.796875 48.390625 30.609375 48.390625 
z
M 30.609375 56 
Q 42.328125 56 49.015625 48.375 
Q 55.71875 40.765625 55.71875 27.296875 
Q 55.71875 13.875 49.015625 6.21875 
Q 42.328125 -1.421875 30.609375 -1.421875 
Q 18.84375 -1.421875 12.171875 6.21875 
Q 5.515625 13.875 5.515625 27.296875 
Q 5.515625 40.765625 12.171875 48.375 
Q 18.84375 56 30.609375 56 
z
" id="DejaVuSans-111"/>
       <path d="M 8.5 21.578125 
L 8.5 54.6875 
L 17.484375 54.6875 
L 17.484375 21.921875 
Q 17.484375 14.15625 20.5 10.265625 
Q 23.53125 6.390625 29.59375 6.390625 
Q 36.859375 6.390625 41.078125 11.03125 
Q 45.3125 15.671875 45.3125 23.6875 
L 45.3125 54.6875 
L 54.296875 54.6875 
L 54.296875 0 
L 45.3125 0 
L 45.3125 8.40625 
Q 42.046875 3.421875 37.71875 1 
Q 33.40625 -1.421875 27.6875 -1.421875 
Q 18.265625 -1.421875 13.375 4.4375 
Q 8.5 10.296875 8.5 21.578125 
z
M 31.109375 56 
z
" id="DejaVuSans-117"/>
       <path d="M 48.6875 27.296875 
Q 48.6875 37.203125 44.609375 42.84375 
Q 40.53125 48.484375 33.40625 48.484375 
Q 26.265625 48.484375 22.1875 42.84375 
Q 18.109375 37.203125 18.109375 27.296875 
Q 18.109375 17.390625 22.1875 11.75 
Q 26.265625 6.109375 33.40625 6.109375 
Q 40.53125 6.109375 44.609375 11.75 
Q 48.6875 17.390625 48.6875 27.296875 
z
M 18.109375 46.390625 
Q 20.953125 51.265625 25.265625 53.625 
Q 29.59375 56 35.59375 56 
Q 45.5625 56 51.78125 48.09375 
Q 58.015625 40.1875 58.015625 27.296875 
Q 58.015625 14.40625 51.78125 6.484375 
Q 45.5625 -1.421875 35.59375 -1.421875 
Q 29.59375 -1.421875 25.265625 0.953125 
Q 20.953125 3.328125 18.109375 8.203125 
L 18.109375 0 
L 9.078125 0 
L 9.078125 75.984375 
L 18.109375 75.984375 
z
" id="DejaVuSans-98"/>
       <path d="M 9.421875 75.984375 
L 18.40625 75.984375 
L 18.40625 0 
L 9.421875 0 
z
" id="DejaVuSans-108"/>
       <path d="M 2.984375 54.6875 
L 12.5 54.6875 
L 29.59375 8.796875 
L 46.6875 54.6875 
L 56.203125 54.6875 
L 35.6875 0 
L 23.484375 0 
z
" id="DejaVuSans-118"/>
       <path d="M 41.109375 46.296875 
Q 39.59375 47.171875 37.8125 47.578125 
Q 36.03125 48 33.890625 48 
Q 26.265625 48 22.1875 43.046875 
Q 18.109375 38.09375 18.109375 28.8125 
L 18.109375 0 
L 9.078125 0 
L 9.078125 54.6875 
L 18.109375 54.6875 
L 18.109375 46.1875 
Q 20.953125 51.171875 25.484375 53.578125 
Q 30.03125 56 36.53125 56 
Q 37.453125 56 38.578125 55.875 
Q 39.703125 55.765625 41.0625 55.515625 
z
" id="DejaVuSans-114"/>
       <path d="M 32.171875 -5.078125 
Q 28.375 -14.84375 24.75 -17.8125 
Q 21.140625 -20.796875 15.09375 -20.796875 
L 7.90625 -20.796875 
L 7.90625 -13.28125 
L 13.1875 -13.28125 
Q 16.890625 -13.28125 18.9375 -11.515625 
Q 21 -9.765625 23.484375 -3.21875 
L 25.09375 0.875 
L 2.984375 54.6875 
L 12.5 54.6875 
L 29.59375 11.921875 
L 46.6875 54.6875 
L 56.203125 54.6875 
z
" id="DejaVuSans-121"/>
       <path d="M 55.71875 33.015625 
L 49.3125 0 
L 40.28125 0 
L 46.6875 32.671875 
Q 47.125 34.96875 47.359375 36.71875 
Q 47.609375 38.484375 47.609375 39.5 
Q 47.609375 43.609375 45.015625 45.890625 
Q 42.4375 48.1875 37.796875 48.1875 
Q 30.5625 48.1875 25.34375 43.375 
Q 20.125 38.578125 18.5 30.328125 
L 12.5 0 
L 3.515625 0 
L 14.109375 54.6875 
L 23.09375 54.6875 
L 21.296875 46.09375 
Q 25.046875 50.828125 30.3125 53.40625 
Q 35.59375 56 41.40625 56 
Q 48.640625 56 52.609375 52.09375 
Q 56.59375 48.1875 56.59375 41.109375 
Q 56.59375 39.359375 56.375 37.359375 
Q 56.15625 35.359375 55.71875 33.015625 
z
" id="DejaVuSans-Oblique-110"/>
       <path d="M 31 75.875 
Q 24.46875 64.65625 21.28125 53.65625 
Q 18.109375 42.671875 18.109375 31.390625 
Q 18.109375 20.125 21.3125 9.0625 
Q 24.515625 -2 31 -13.1875 
L 23.1875 -13.1875 
Q 15.875 -1.703125 12.234375 9.375 
Q 8.59375 20.453125 8.59375 31.390625 
Q 8.59375 42.28125 12.203125 53.3125 
Q 15.828125 64.359375 23.1875 75.875 
z
" id="DejaVuSans-40"/>
       <path d="M 9.078125 75.984375 
L 18.109375 75.984375 
L 18.109375 31.109375 
L 44.921875 54.6875 
L 56.390625 54.6875 
L 27.390625 29.109375 
L 57.625 0 
L 45.90625 0 
L 18.109375 26.703125 
L 18.109375 0 
L 9.078125 0 
z
" id="DejaVuSans-107"/>
       <path d="M 4.203125 54.6875 
L 13.1875 54.6875 
L 24.421875 12.015625 
L 35.59375 54.6875 
L 46.1875 54.6875 
L 57.421875 12.015625 
L 68.609375 54.6875 
L 77.59375 54.6875 
L 63.28125 0 
L 52.6875 0 
L 40.921875 44.828125 
L 29.109375 0 
L 18.5 0 
z
" id="DejaVuSans-119"/>
       <path d="M 45.40625 27.984375 
Q 45.40625 37.75 41.375 43.109375 
Q 37.359375 48.484375 30.078125 48.484375 
Q 22.859375 48.484375 18.828125 43.109375 
Q 14.796875 37.75 14.796875 27.984375 
Q 14.796875 18.265625 18.828125 12.890625 
Q 22.859375 7.515625 30.078125 7.515625 
Q 37.359375 7.515625 41.375 12.890625 
Q 45.40625 18.265625 45.40625 27.984375 
z
M 54.390625 6.78125 
Q 54.390625 -7.171875 48.1875 -13.984375 
Q 42 -20.796875 29.203125 -20.796875 
Q 24.46875 -20.796875 20.265625 -20.09375 
Q 16.0625 -19.390625 12.109375 -17.921875 
L 12.109375 -9.1875 
Q 16.0625 -11.328125 19.921875 -12.34375 
Q 23.78125 -13.375 27.78125 -13.375 
Q 36.625 -13.375 41.015625 -8.765625 
Q 45.40625 -4.15625 45.40625 5.171875 
L 45.40625 9.625 
Q 42.625 4.78125 38.28125 2.390625 
Q 33.9375 0 27.875 0 
Q 17.828125 0 11.671875 7.65625 
Q 5.515625 15.328125 5.515625 27.984375 
Q 5.515625 40.671875 11.671875 48.328125 
Q 17.828125 56 27.875 56 
Q 33.9375 56 38.28125 53.609375 
Q 42.625 51.21875 45.40625 46.390625 
L 45.40625 54.6875 
L 54.390625 54.6875 
z
" id="DejaVuSans-103"/>
       <path d="M 37.796875 64.3125 
L 12.890625 25.390625 
L 37.796875 25.390625 
z
M 35.203125 72.90625 
L 47.609375 72.90625 
L 47.609375 25.390625 
L 58.015625 25.390625 
L 58.015625 17.1875 
L 47.609375 17.1875 
L 47.609375 0 
L 37.796875 0 
L 37.796875 17.1875 
L 4.890625 17.1875 
L 4.890625 26.703125 
z
" id="DejaVuSans-52"/>
       <path d="M 8.015625 75.875 
L 15.828125 75.875 
Q 23.140625 64.359375 26.78125 53.3125 
Q 30.421875 42.28125 30.421875 31.390625 
Q 30.421875 20.453125 26.78125 9.375 
Q 23.140625 -1.703125 15.828125 -13.1875 
L 8.015625 -13.1875 
Q 14.5 -2 17.703125 9.0625 
Q 20.90625 20.125 20.90625 31.390625 
Q 20.90625 42.671875 17.703125 53.65625 
Q 14.5 64.65625 8.015625 75.875 
z
" id="DejaVuSans-41"/>
      </defs>
      <use transform="translate(0 0.015625)" xlink:href="#DejaVuSans-99"/>
      <use transform="translate(54.980469 0.015625)" xlink:href="#DejaVuSans-97"/>
      <use transform="translate(116.259766 0.015625)" xlink:href="#DejaVuSans-115"/>
      <use transform="translate(168.359375 0.015625)" xlink:href="#DejaVuSans-101"/>
      <use transform="translate(229.882812 0.015625)" xlink:href="#DejaVuSans-115"/>
      <use transform="translate(281.982422 0.015625)" xlink:href="#DejaVuSans-32"/>
      <use transform="translate(313.769531 0.015625)" xlink:href="#DejaVuSans-100"/>
      <use transform="translate(377.246094 0.015625)" xlink:href="#DejaVuSans-111"/>
      <use transform="translate(438.427734 0.015625)" xlink:href="#DejaVuSans-117"/>
      <use transform="translate(501.806641 0.015625)" xlink:href="#DejaVuSans-98"/>
      <use transform="translate(565.283203 0.015625)" xlink:href="#DejaVuSans-108"/>
      <use transform="translate(593.066406 0.015625)" xlink:href="#DejaVuSans-101"/>
      <use transform="translate(654.589844 0.015625)" xlink:href="#DejaVuSans-32"/>
      <use transform="translate(686.376953 0.015625)" xlink:href="#DejaVuSans-101"/>
      <use transform="translate(747.900391 0.015625)" xlink:href="#DejaVuSans-118"/>
      <use transform="translate(807.080078 0.015625)" xlink:href="#DejaVuSans-101"/>
      <use transform="translate(868.603516 0.015625)" xlink:href="#DejaVuSans-114"/>
      <use transform="translate(909.716797 0.015625)" xlink:href="#DejaVuSans-121"/>
      <use transform="translate(968.896484 0.015625)" xlink:href="#DejaVuSans-32"/>
      <use transform="translate(1000.683594 0.015625)" xlink:href="#DejaVuSans-Oblique-110"/>
      <use transform="translate(1064.0625 0.015625)" xlink:href="#DejaVuSans-32"/>
      <use transform="translate(1095.849609 0.015625)" xlink:href="#DejaVuSans-100"/>
      <use transform="translate(1159.326172 0.015625)" xlink:href="#DejaVuSans-97"/>
      <use transform="translate(1220.605469 0.015625)" xlink:href="#DejaVuSans-121"/>
      <use transform="translate(1279.785156 0.015625)" xlink:href="#DejaVuSans-115"/>
      <use transform="translate(1331.884766 0.015625)" xlink:href="#DejaVuSans-32"/>
      <use transform="translate(1363.671875 0.015625)" xlink:href="#DejaVuSans-40"/>
      <use transform="translate(1402.685547 0.015625)" xlink:href="#DejaVuSans-98"/>
      <use transform="translate(1466.162109 0.015625)" xlink:href="#DejaVuSans-97"/>
      <use transform="translate(1527.441406 0.015625)" xlink:href="#DejaVuSans-99"/>
      <use transform="translate(1582.421875 0.015625)" xlink:href="#DejaVuSans-107"/>
      <use transform="translate(1640.332031 0.015625)" xlink:href="#DejaVuSans-119"/>
      <use transform="translate(1722.119141 0.015625)" xlink:href="#DejaVuSans-32"/>
      <use transform="translate(1753.90625 0.015625)" xlink:href="#DejaVuSans-97"/>
      <use transform="translate(1815.185547 0.015625)" xlink:href="#DejaVuSans-118"/>
      <use transform="translate(1874.365234 0.015625)" xlink:href="#DejaVuSans-103"/>
      <use transform="translate(1937.841797 0.015625)" xlink:href="#DejaVuSans-32"/>
      <use transform="translate(1969.628906 0.015625)" xlink:href="#DejaVuSans-111"/>
      <use transform="translate(2030.810547 0.015625)" xlink:href="#DejaVuSans-118"/>
      <use transform="translate(2089.990234 0.015625)" xlink:href="#DejaVuSans-101"/>
      <use transform="translate(2151.513672 0.015625)" xlink:href="#DejaVuSans-114"/>
      <use transform="translate(2192.626953 0.015625)" xlink:href="#DejaVuSans-32"/>
      <use transform="translate(2224.414062 0.015625)" xlink:href="#DejaVuSans-52"/>
      <use transform="translate(2288.037109 0.015625)" xlink:href="#DejaVuSans-32"/>
      <use transform="translate(2319.824219 0.015625)" xlink:href="#DejaVuSans-100"/>
      <use transform="translate(2383.300781 0.015625)" xlink:href="#DejaVuSans-97"/>
      <use transform="translate(2444.580078 0.015625)" xlink:href="#DejaVuSans-121"/>
      <use transform="translate(2503.759766 0.015625)" xlink:href="#DejaVuSans-115"/>
      <use transform="translate(2555.859375 0.015625)" xlink:href="#DejaVuSans-41"/>
     </g>
    </g>
   </g>
   <g id="line2d_133">
    <path clip-path="url(#p34c0175b7a)" d="M 149.972727 512.64 
L 155.452959 512.64 
L 157.279703 441.6768 
L 159.106447 458.958412 
L 160.933191 467.867206 
L 162.759935 456.455307 
L 164.586678 391.327608 
L 166.413422 242.85324 
L 167.705598 -1 
M 170.69069 -1 
L 171.893654 193.54999 
L 173.720398 193.54999 
L 175.547142 275.748782 
L 177.373886 275.748782 
L 179.20063 144.277617 
L 181.027373 144.277617 
M 201.879689 -1 
L 202.9483 418.635 
L 204.775044 466.062833 
L 206.601788 467.867206 
L 208.428532 480.621489 
L 210.255276 481.34394 
L 212.08202 472.98071 
L 213.908764 477.678407 
L 215.735507 471.612325 
L 219.388995 478.443081 
L 221.215739 477.636924 
L 223.042483 476.961182 
L 224.869227 457.49224 
L 226.695971 449.32341 
L 228.522715 456.131358 
L 230.349459 441.578175 
L 232.176202 469.47126 
L 234.002946 469.733957 
L 235.82969 468.36403 
L 237.656434 473.372124 
L 239.483178 459.396321 
L 241.309922 462.905067 
L 243.136666 462.043642 
L 244.96341 463.651534 
L 246.790154 456.444327 
L 248.616898 442.570798 
L 250.443641 435.791746 
L 252.270385 415.809527 
L 254.097129 417.853136 
L 255.923873 426.193199 
L 257.750617 424.815056 
L 259.577361 424.660997 
L 261.404105 416.014148 
L 263.230849 395.580251 
L 265.057593 369.94336 
L 266.884336 348.623301 
L 268.71108 354.763347 
L 270.537824 353.779872 
L 272.364568 343.789249 
L 274.191312 316.931731 
L 276.018056 264.377414 
L 277.8448 217.040708 
L 279.671544 213.984263 
L 281.498288 216.001719 
L 283.325031 218.221701 
L 285.151775 181.567446 
L 286.978519 105.741782 
L 288.811619 -1 
M 639.882754 -1 
L 641.366835 110.356996 
L 643.193578 103.096558 
L 644.975086 -1 
M 645.09595 -1 
L 646.847066 60.203137 
L 647.68395 -1 
M 649.543875 -1 
L 650.500554 78.597105 
L 652.327298 133.634174 
L 654.154042 160.403652 
L 655.980786 155.213811 
L 657.80753 120.548337 
L 659.634273 144.522388 
L 661.461017 59.728277 
L 663.287761 148.097572 
L 665.114505 145.351113 
L 666.941249 156.62942 
L 668.767993 176.632784 
L 670.594737 84.042503 
L 671.779237 -1 
M 675.374973 -1 
L 677.901712 69.878854 
L 679.728456 135.284364 
L 681.5552 69.611626 
L 682.469768 -1 
M 690.09824 -1 
L 690.68892 42.598769 
L 692.515664 72.191565 
L 694.264131 -1 
L 694.264131 -1 
" style="fill:none;stroke:#1f77b4;stroke-linecap:square;stroke-width:1.5;"/>
    <defs>
     <path d="M 0 3 
C 0.795609 3 1.55874 2.683901 2.12132 2.12132 
C 2.683901 1.55874 3 0.795609 3 0 
C 3 -0.795609 2.683901 -1.55874 2.12132 -2.12132 
C 1.55874 -2.683901 0.795609 -3 0 -3 
C -0.795609 -3 -1.55874 -2.683901 -2.12132 -2.12132 
C -2.683901 -1.55874 -3 -0.795609 -3 0 
C -3 0.795609 -2.683901 1.55874 -2.12132 2.12132 
C -1.55874 2.683901 -0.795609 3 0 3 
z
" id="ma2f069cc45" style="stroke:#1f77b4;"/>
    </defs>
    <g clip-path="url(#p34c0175b7a)">
     <use style="fill:#1f77b4;stroke:#1f77b4;" x="149.972727" xlink:href="#ma2f069cc45" y="512.64"/>
     <use style="fill:#1f77b4;stroke:#1f77b4;" x="151.799471" xlink:href="#ma2f069cc45" y="512.64"/>
     <use style="fill:#1f77b4;stroke:#1f77b4;" x="153.626215" xlink:href="#ma2f069cc45" y="512.64"/>
     <use style="fill:#1f77b4;stroke:#1f77b4;" x="155.452959" xlink:href="#ma2f069cc45" y="512.64"/>
     <use style="fill:#1f77b4;stroke:#1f77b4;" x="157.279703" xlink:href="#ma2f069cc45" y="441.6768"/>
     <use style="fill:#1f77b4;stroke:#1f77b4;" x="159.106447" xlink:href="#ma2f069cc45" y="458.958412"/>
     <use style="fill:#1f77b4;stroke:#1f77b4;" x="160.933191" xlink:href="#ma2f069cc45" y="467.867206"/>
     <use style="fill:#1f77b4;stroke:#1f77b4;" x="162.759935" xlink:href="#ma2f069cc45" y="456.455307"/>
     <use style="fill:#1f77b4;stroke:#1f77b4;" x="164.586678" xlink:href="#ma2f069cc45" y="391.327608"/>
     <use style="fill:#1f77b4;stroke:#1f77b4;" x="166.413422" xlink:href="#ma2f069cc45" y="242.85324"/>
     <use style="fill:#1f77b4;stroke:#1f77b4;" x="167.705598" xlink:href="#ma2f069cc45" y="-1"/>
     <use style="fill:#1f77b4;stroke:#1f77b4;" x="170.69069" xlink:href="#ma2f069cc45" y="-1"/>
     <use style="fill:#1f77b4;stroke:#1f77b4;" x="171.893654" xlink:href="#ma2f069cc45" y="193.54999"/>
     <use style="fill:#1f77b4;stroke:#1f77b4;" x="173.720398" xlink:href="#ma2f069cc45" y="193.54999"/>
     <use style="fill:#1f77b4;stroke:#1f77b4;" x="175.547142" xlink:href="#ma2f069cc45" y="275.748782"/>
     <use style="fill:#1f77b4;stroke:#1f77b4;" x="177.373886" xlink:href="#ma2f069cc45" y="275.748782"/>
     <use style="fill:#1f77b4;stroke:#1f77b4;" x="179.20063" xlink:href="#ma2f069cc45" y="144.277617"/>
     <use style="fill:#1f77b4;stroke:#1f77b4;" x="181.027373" xlink:href="#ma2f069cc45" y="144.277617"/>
     <use style="fill:#1f77b4;stroke:#1f77b4;" x="201.879689" xlink:href="#ma2f069cc45" y="-1"/>
     <use style="fill:#1f77b4;stroke:#1f77b4;" x="202.9483" xlink:href="#ma2f069cc45" y="418.635"/>
     <use style="fill:#1f77b4;stroke:#1f77b4;" x="204.775044" xlink:href="#ma2f069cc45" y="466.062833"/>
     <use style="fill:#1f77b4;stroke:#1f77b4;" x="206.601788" xlink:href="#ma2f069cc45" y="467.867206"/>
     <use style="fill:#1f77b4;stroke:#1f77b4;" x="208.428532" xlink:href="#ma2f069cc45" y="480.621489"/>
     <use style="fill:#1f77b4;stroke:#1f77b4;" x="210.255276" xlink:href="#ma2f069cc45" y="481.34394"/>
     <use style="fill:#1f77b4;stroke:#1f77b4;" x="212.08202" xlink:href="#ma2f069cc45" y="472.98071"/>
     <use style="fill:#1f77b4;stroke:#1f77b4;" x="213.908764" xlink:href="#ma2f069cc45" y="477.678407"/>
     <use style="fill:#1f77b4;stroke:#1f77b4;" x="215.735507" xlink:href="#ma2f069cc45" y="471.612325"/>
     <use style="fill:#1f77b4;stroke:#1f77b4;" x="217.562251" xlink:href="#ma2f069cc45" y="475.103691"/>
     <use style="fill:#1f77b4;stroke:#1f77b4;" x="219.388995" xlink:href="#ma2f069cc45" y="478.443081"/>
     <use style="fill:#1f77b4;stroke:#1f77b4;" x="221.215739" xlink:href="#ma2f069cc45" y="477.636924"/>
     <use style="fill:#1f77b4;stroke:#1f77b4;" x="223.042483" xlink:href="#ma2f069cc45" y="476.961182"/>
     <use style="fill:#1f77b4;stroke:#1f77b4;" x="224.869227" xlink:href="#ma2f069cc45" y="457.49224"/>
     <use style="fill:#1f77b4;stroke:#1f77b4;" x="226.695971" xlink:href="#ma2f069cc45" y="449.32341"/>
     <use style="fill:#1f77b4;stroke:#1f77b4;" x="228.522715" xlink:href="#ma2f069cc45" y="456.131358"/>
     <use style="fill:#1f77b4;stroke:#1f77b4;" x="230.349459" xlink:href="#ma2f069cc45" y="441.578175"/>
     <use style="fill:#1f77b4;stroke:#1f77b4;" x="232.176202" xlink:href="#ma2f069cc45" y="469.47126"/>
     <use style="fill:#1f77b4;stroke:#1f77b4;" x="234.002946" xlink:href="#ma2f069cc45" y="469.733957"/>
     <use style="fill:#1f77b4;stroke:#1f77b4;" x="235.82969" xlink:href="#ma2f069cc45" y="468.36403"/>
     <use style="fill:#1f77b4;stroke:#1f77b4;" x="237.656434" xlink:href="#ma2f069cc45" y="473.372124"/>
     <use style="fill:#1f77b4;stroke:#1f77b4;" x="239.483178" xlink:href="#ma2f069cc45" y="459.396321"/>
     <use style="fill:#1f77b4;stroke:#1f77b4;" x="241.309922" xlink:href="#ma2f069cc45" y="462.905067"/>
     <use style="fill:#1f77b4;stroke:#1f77b4;" x="243.136666" xlink:href="#ma2f069cc45" y="462.043642"/>
     <use style="fill:#1f77b4;stroke:#1f77b4;" x="244.96341" xlink:href="#ma2f069cc45" y="463.651534"/>
     <use style="fill:#1f77b4;stroke:#1f77b4;" x="246.790154" xlink:href="#ma2f069cc45" y="456.444327"/>
     <use style="fill:#1f77b4;stroke:#1f77b4;" x="248.616898" xlink:href="#ma2f069cc45" y="442.570798"/>
     <use style="fill:#1f77b4;stroke:#1f77b4;" x="250.443641" xlink:href="#ma2f069cc45" y="435.791746"/>
     <use style="fill:#1f77b4;stroke:#1f77b4;" x="252.270385" xlink:href="#ma2f069cc45" y="415.809527"/>
     <use style="fill:#1f77b4;stroke:#1f77b4;" x="254.097129" xlink:href="#ma2f069cc45" y="417.853136"/>
     <use style="fill:#1f77b4;stroke:#1f77b4;" x="255.923873" xlink:href="#ma2f069cc45" y="426.193199"/>
     <use style="fill:#1f77b4;stroke:#1f77b4;" x="257.750617" xlink:href="#ma2f069cc45" y="424.815056"/>
     <use style="fill:#1f77b4;stroke:#1f77b4;" x="259.577361" xlink:href="#ma2f069cc45" y="424.660997"/>
     <use style="fill:#1f77b4;stroke:#1f77b4;" x="261.404105" xlink:href="#ma2f069cc45" y="416.014148"/>
     <use style="fill:#1f77b4;stroke:#1f77b4;" x="263.230849" xlink:href="#ma2f069cc45" y="395.580251"/>
     <use style="fill:#1f77b4;stroke:#1f77b4;" x="265.057593" xlink:href="#ma2f069cc45" y="369.94336"/>
     <use style="fill:#1f77b4;stroke:#1f77b4;" x="266.884336" xlink:href="#ma2f069cc45" y="348.623301"/>
     <use style="fill:#1f77b4;stroke:#1f77b4;" x="268.71108" xlink:href="#ma2f069cc45" y="354.763347"/>
     <use style="fill:#1f77b4;stroke:#1f77b4;" x="270.537824" xlink:href="#ma2f069cc45" y="353.779872"/>
     <use style="fill:#1f77b4;stroke:#1f77b4;" x="272.364568" xlink:href="#ma2f069cc45" y="343.789249"/>
     <use style="fill:#1f77b4;stroke:#1f77b4;" x="274.191312" xlink:href="#ma2f069cc45" y="316.931731"/>
     <use style="fill:#1f77b4;stroke:#1f77b4;" x="276.018056" xlink:href="#ma2f069cc45" y="264.377414"/>
     <use style="fill:#1f77b4;stroke:#1f77b4;" x="277.8448" xlink:href="#ma2f069cc45" y="217.040708"/>
     <use style="fill:#1f77b4;stroke:#1f77b4;" x="279.671544" xlink:href="#ma2f069cc45" y="213.984263"/>
     <use style="fill:#1f77b4;stroke:#1f77b4;" x="281.498288" xlink:href="#ma2f069cc45" y="216.001719"/>
     <use style="fill:#1f77b4;stroke:#1f77b4;" x="283.325031" xlink:href="#ma2f069cc45" y="218.221701"/>
     <use style="fill:#1f77b4;stroke:#1f77b4;" x="285.151775" xlink:href="#ma2f069cc45" y="181.567446"/>
     <use style="fill:#1f77b4;stroke:#1f77b4;" x="286.978519" xlink:href="#ma2f069cc45" y="105.741782"/>
     <use style="fill:#1f77b4;stroke:#1f77b4;" x="288.805263" xlink:href="#ma2f069cc45" y="-0.424918"/>
     <use style="fill:#1f77b4;stroke:#1f77b4;" x="288.811619" xlink:href="#ma2f069cc45" y="-1"/>
     <use style="fill:#1f77b4;stroke:#1f77b4;" x="639.882754" xlink:href="#ma2f069cc45" y="-1"/>
     <use style="fill:#1f77b4;stroke:#1f77b4;" x="641.366835" xlink:href="#ma2f069cc45" y="110.356996"/>
     <use style="fill:#1f77b4;stroke:#1f77b4;" x="643.193578" xlink:href="#ma2f069cc45" y="103.096558"/>
     <use style="fill:#1f77b4;stroke:#1f77b4;" x="644.975086" xlink:href="#ma2f069cc45" y="-1"/>
     <use style="fill:#1f77b4;stroke:#1f77b4;" x="645.09595" xlink:href="#ma2f069cc45" y="-1"/>
     <use style="fill:#1f77b4;stroke:#1f77b4;" x="646.847066" xlink:href="#ma2f069cc45" y="60.203137"/>
     <use style="fill:#1f77b4;stroke:#1f77b4;" x="647.68395" xlink:href="#ma2f069cc45" y="-1"/>
     <use style="fill:#1f77b4;stroke:#1f77b4;" x="649.543875" xlink:href="#ma2f069cc45" y="-1"/>
     <use style="fill:#1f77b4;stroke:#1f77b4;" x="650.500554" xlink:href="#ma2f069cc45" y="78.597105"/>
     <use style="fill:#1f77b4;stroke:#1f77b4;" x="652.327298" xlink:href="#ma2f069cc45" y="133.634174"/>
     <use style="fill:#1f77b4;stroke:#1f77b4;" x="654.154042" xlink:href="#ma2f069cc45" y="160.403652"/>
     <use style="fill:#1f77b4;stroke:#1f77b4;" x="655.980786" xlink:href="#ma2f069cc45" y="155.213811"/>
     <use style="fill:#1f77b4;stroke:#1f77b4;" x="657.80753" xlink:href="#ma2f069cc45" y="120.548337"/>
     <use style="fill:#1f77b4;stroke:#1f77b4;" x="659.634273" xlink:href="#ma2f069cc45" y="144.522388"/>
     <use style="fill:#1f77b4;stroke:#1f77b4;" x="661.461017" xlink:href="#ma2f069cc45" y="59.728277"/>
     <use style="fill:#1f77b4;stroke:#1f77b4;" x="663.287761" xlink:href="#ma2f069cc45" y="148.097572"/>
     <use style="fill:#1f77b4;stroke:#1f77b4;" x="665.114505" xlink:href="#ma2f069cc45" y="145.351113"/>
     <use style="fill:#1f77b4;stroke:#1f77b4;" x="666.941249" xlink:href="#ma2f069cc45" y="156.62942"/>
     <use style="fill:#1f77b4;stroke:#1f77b4;" x="668.767993" xlink:href="#ma2f069cc45" y="176.632784"/>
     <use style="fill:#1f77b4;stroke:#1f77b4;" x="670.594737" xlink:href="#ma2f069cc45" y="84.042503"/>
     <use style="fill:#1f77b4;stroke:#1f77b4;" x="671.779237" xlink:href="#ma2f069cc45" y="-1"/>
     <use style="fill:#1f77b4;stroke:#1f77b4;" x="675.374973" xlink:href="#ma2f069cc45" y="-1"/>
     <use style="fill:#1f77b4;stroke:#1f77b4;" x="676.074969" xlink:href="#ma2f069cc45" y="18.846489"/>
     <use style="fill:#1f77b4;stroke:#1f77b4;" x="677.901712" xlink:href="#ma2f069cc45" y="69.878854"/>
     <use style="fill:#1f77b4;stroke:#1f77b4;" x="679.728456" xlink:href="#ma2f069cc45" y="135.284364"/>
     <use style="fill:#1f77b4;stroke:#1f77b4;" x="681.5552" xlink:href="#ma2f069cc45" y="69.611626"/>
     <use style="fill:#1f77b4;stroke:#1f77b4;" x="682.469768" xlink:href="#ma2f069cc45" y="-1"/>
     <use style="fill:#1f77b4;stroke:#1f77b4;" x="690.09824" xlink:href="#ma2f069cc45" y="-1"/>
     <use style="fill:#1f77b4;stroke:#1f77b4;" x="690.68892" xlink:href="#ma2f069cc45" y="42.598769"/>
     <use style="fill:#1f77b4;stroke:#1f77b4;" x="692.515664" xlink:href="#ma2f069cc45" y="72.191565"/>
     <use style="fill:#1f77b4;stroke:#1f77b4;" x="694.264131" xlink:href="#ma2f069cc45" y="-1"/>
    </g>
   </g>
   <g id="patch_3">
    <path d="M 117 512.64 
L 117 69.12 
" style="fill:none;stroke:#000000;stroke-linecap:square;stroke-linejoin:miter;stroke-width:0.8;"/>
   </g>
   <g id="patch_4">
    <path d="M 842.4 512.64 
L 842.4 69.12 
" style="fill:none;stroke:#000000;stroke-linecap:square;stroke-linejoin:miter;stroke-width:0.8;"/>
   </g>
   <g id="patch_5">
    <path d="M 117 512.64 
L 842.4 512.64 
" style="fill:none;stroke:#000000;stroke-linecap:square;stroke-linejoin:miter;stroke-width:0.8;"/>
   </g>
   <g id="patch_6">
    <path d="M 117 69.12 
L 842.4 69.12 
" style="fill:none;stroke:#000000;stroke-linecap:square;stroke-linejoin:miter;stroke-width:0.8;"/>
   </g>
   <g id="text_16">
    <!-- Confirmed cases in Germany double every $n$ days (2020-01-22..2021-01-23) -->
    <g transform="translate(249.84 63.12)scale(0.12 -0.12)">
     <defs>
      <path d="M 64.40625 67.28125 
L 64.40625 56.890625 
Q 59.421875 61.53125 53.78125 63.8125 
Q 48.140625 66.109375 41.796875 66.109375 
Q 29.296875 66.109375 22.65625 58.46875 
Q 16.015625 50.828125 16.015625 36.375 
Q 16.015625 21.96875 22.65625 14.328125 
Q 29.296875 6.6875 41.796875 6.6875 
Q 48.140625 6.6875 53.78125 8.984375 
Q 59.421875 11.28125 64.40625 15.921875 
L 64.40625 5.609375 
Q 59.234375 2.09375 53.4375 0.328125 
Q 47.65625 -1.421875 41.21875 -1.421875 
Q 24.65625 -1.421875 15.125 8.703125 
Q 5.609375 18.84375 5.609375 36.375 
Q 5.609375 53.953125 15.125 64.078125 
Q 24.65625 74.21875 41.21875 74.21875 
Q 47.75 74.21875 53.53125 72.484375 
Q 59.328125 70.75 64.40625 67.28125 
z
" id="DejaVuSans-67"/>
      <path d="M 54.890625 33.015625 
L 54.890625 0 
L 45.90625 0 
L 45.90625 32.71875 
Q 45.90625 40.484375 42.875 44.328125 
Q 39.84375 48.1875 33.796875 48.1875 
Q 26.515625 48.1875 22.3125 43.546875 
Q 18.109375 38.921875 18.109375 30.90625 
L 18.109375 0 
L 9.078125 0 
L 9.078125 54.6875 
L 18.109375 54.6875 
L 18.109375 46.1875 
Q 21.34375 51.125 25.703125 53.5625 
Q 30.078125 56 35.796875 56 
Q 45.21875 56 50.046875 50.171875 
Q 54.890625 44.34375 54.890625 33.015625 
z
" id="DejaVuSans-110"/>
      <path d="M 37.109375 75.984375 
L 37.109375 68.5 
L 28.515625 68.5 
Q 23.6875 68.5 21.796875 66.546875 
Q 19.921875 64.59375 19.921875 59.515625 
L 19.921875 54.6875 
L 34.71875 54.6875 
L 34.71875 47.703125 
L 19.921875 47.703125 
L 19.921875 0 
L 10.890625 0 
L 10.890625 47.703125 
L 2.296875 47.703125 
L 2.296875 54.6875 
L 10.890625 54.6875 
L 10.890625 58.5 
Q 10.890625 67.625 15.140625 71.796875 
Q 19.390625 75.984375 28.609375 75.984375 
z
" id="DejaVuSans-102"/>
      <path d="M 9.421875 54.6875 
L 18.40625 54.6875 
L 18.40625 0 
L 9.421875 0 
z
M 9.421875 75.984375 
L 18.40625 75.984375 
L 18.40625 64.59375 
L 9.421875 64.59375 
z
" id="DejaVuSans-105"/>
      <path d="M 52 44.1875 
Q 55.375 50.25 60.0625 53.125 
Q 64.75 56 71.09375 56 
Q 79.640625 56 84.28125 50.015625 
Q 88.921875 44.046875 88.921875 33.015625 
L 88.921875 0 
L 79.890625 0 
L 79.890625 32.71875 
Q 79.890625 40.578125 77.09375 44.375 
Q 74.3125 48.1875 68.609375 48.1875 
Q 61.625 48.1875 57.5625 43.546875 
Q 53.515625 38.921875 53.515625 30.90625 
L 53.515625 0 
L 44.484375 0 
L 44.484375 32.71875 
Q 44.484375 40.625 41.703125 44.40625 
Q 38.921875 48.1875 33.109375 48.1875 
Q 26.21875 48.1875 22.15625 43.53125 
Q 18.109375 38.875 18.109375 30.90625 
L 18.109375 0 
L 9.078125 0 
L 9.078125 54.6875 
L 18.109375 54.6875 
L 18.109375 46.1875 
Q 21.1875 51.21875 25.484375 53.609375 
Q 29.78125 56 35.6875 56 
Q 41.65625 56 45.828125 52.96875 
Q 50 49.953125 52 44.1875 
z
" id="DejaVuSans-109"/>
      <path d="M 59.515625 10.40625 
L 59.515625 29.984375 
L 43.40625 29.984375 
L 43.40625 38.09375 
L 69.28125 38.09375 
L 69.28125 6.78125 
Q 63.578125 2.734375 56.6875 0.65625 
Q 49.8125 -1.421875 42 -1.421875 
Q 24.90625 -1.421875 15.25 8.5625 
Q 5.609375 18.5625 5.609375 36.375 
Q 5.609375 54.25 15.25 64.234375 
Q 24.90625 74.21875 42 74.21875 
Q 49.125 74.21875 55.546875 72.453125 
Q 61.96875 70.703125 67.390625 67.28125 
L 67.390625 56.78125 
Q 61.921875 61.421875 55.765625 63.765625 
Q 49.609375 66.109375 42.828125 66.109375 
Q 29.4375 66.109375 22.71875 58.640625 
Q 16.015625 51.171875 16.015625 36.375 
Q 16.015625 21.625 22.71875 14.15625 
Q 29.4375 6.6875 42.828125 6.6875 
Q 48.046875 6.6875 52.140625 7.59375 
Q 56.25 8.5 59.515625 10.40625 
z
" id="DejaVuSans-71"/>
      <path d="M 10.6875 12.40625 
L 21 12.40625 
L 21 0 
L 10.6875 0 
z
" id="DejaVuSans-46"/>
     </defs>
     <use transform="translate(0 0.015625)" xlink:href="#DejaVuSans-67"/>
     <use transform="translate(69.824219 0.015625)" xlink:href="#DejaVuSans-111"/>
     <use transform="translate(131.005859 0.015625)" xlink:href="#DejaVuSans-110"/>
     <use transform="translate(194.384766 0.015625)" xlink:href="#DejaVuSans-102"/>
     <use transform="translate(229.589844 0.015625)" xlink:href="#DejaVuSans-105"/>
     <use transform="translate(257.373047 0.015625)" xlink:href="#DejaVuSans-114"/>
     <use transform="translate(298.486328 0.015625)" xlink:href="#DejaVuSans-109"/>
     <use transform="translate(395.898438 0.015625)" xlink:href="#DejaVuSans-101"/>
     <use transform="translate(457.421875 0.015625)" xlink:href="#DejaVuSans-100"/>
     <use transform="translate(520.898438 0.015625)" xlink:href="#DejaVuSans-32"/>
     <use transform="translate(552.685547 0.015625)" xlink:href="#DejaVuSans-99"/>
     <use transform="translate(607.666016 0.015625)" xlink:href="#DejaVuSans-97"/>
     <use transform="translate(668.945312 0.015625)" xlink:href="#DejaVuSans-115"/>
     <use transform="translate(721.044922 0.015625)" xlink:href="#DejaVuSans-101"/>
     <use transform="translate(782.568359 0.015625)" xlink:href="#DejaVuSans-115"/>
     <use transform="translate(834.667969 0.015625)" xlink:href="#DejaVuSans-32"/>
     <use transform="translate(866.455078 0.015625)" xlink:href="#DejaVuSans-105"/>
     <use transform="translate(894.238281 0.015625)" xlink:href="#DejaVuSans-110"/>
     <use transform="translate(957.617188 0.015625)" xlink:href="#DejaVuSans-32"/>
     <use transform="translate(989.404297 0.015625)" xlink:href="#DejaVuSans-71"/>
     <use transform="translate(1066.894531 0.015625)" xlink:href="#DejaVuSans-101"/>
     <use transform="translate(1128.417969 0.015625)" xlink:href="#DejaVuSans-114"/>
     <use transform="translate(1169.53125 0.015625)" xlink:href="#DejaVuSans-109"/>
     <use transform="translate(1266.943359 0.015625)" xlink:href="#DejaVuSans-97"/>
     <use transform="translate(1328.222656 0.015625)" xlink:href="#DejaVuSans-110"/>
     <use transform="translate(1391.601562 0.015625)" xlink:href="#DejaVuSans-121"/>
     <use transform="translate(1450.78125 0.015625)" xlink:href="#DejaVuSans-32"/>
     <use transform="translate(1482.568359 0.015625)" xlink:href="#DejaVuSans-100"/>
     <use transform="translate(1546.044922 0.015625)" xlink:href="#DejaVuSans-111"/>
     <use transform="translate(1607.226562 0.015625)" xlink:href="#DejaVuSans-117"/>
     <use transform="translate(1670.605469 0.015625)" xlink:href="#DejaVuSans-98"/>
     <use transform="translate(1734.082031 0.015625)" xlink:href="#DejaVuSans-108"/>
     <use transform="translate(1761.865234 0.015625)" xlink:href="#DejaVuSans-101"/>
     <use transform="translate(1823.388672 0.015625)" xlink:href="#DejaVuSans-32"/>
     <use transform="translate(1855.175781 0.015625)" xlink:href="#DejaVuSans-101"/>
     <use transform="translate(1916.699219 0.015625)" xlink:href="#DejaVuSans-118"/>
     <use transform="translate(1975.878906 0.015625)" xlink:href="#DejaVuSans-101"/>
     <use transform="translate(2037.402344 0.015625)" xlink:href="#DejaVuSans-114"/>
     <use transform="translate(2078.515625 0.015625)" xlink:href="#DejaVuSans-121"/>
     <use transform="translate(2137.695312 0.015625)" xlink:href="#DejaVuSans-32"/>
     <use transform="translate(2169.482422 0.015625)" xlink:href="#DejaVuSans-Oblique-110"/>
     <use transform="translate(2232.861328 0.015625)" xlink:href="#DejaVuSans-32"/>
     <use transform="translate(2264.648438 0.015625)" xlink:href="#DejaVuSans-100"/>
     <use transform="translate(2328.125 0.015625)" xlink:href="#DejaVuSans-97"/>
     <use transform="translate(2389.404297 0.015625)" xlink:href="#DejaVuSans-121"/>
     <use transform="translate(2448.583984 0.015625)" xlink:href="#DejaVuSans-115"/>
     <use transform="translate(2500.683594 0.015625)" xlink:href="#DejaVuSans-32"/>
     <use transform="translate(2532.470703 0.015625)" xlink:href="#DejaVuSans-40"/>
     <use transform="translate(2571.484375 0.015625)" xlink:href="#DejaVuSans-50"/>
     <use transform="translate(2635.107422 0.015625)" xlink:href="#DejaVuSans-48"/>
     <use transform="translate(2698.730469 0.015625)" xlink:href="#DejaVuSans-50"/>
     <use transform="translate(2762.353516 0.015625)" xlink:href="#DejaVuSans-48"/>
     <use transform="translate(2825.976562 0.015625)" xlink:href="#DejaVuSans-45"/>
     <use transform="translate(2862.060547 0.015625)" xlink:href="#DejaVuSans-48"/>
     <use transform="translate(2925.683594 0.015625)" xlink:href="#DejaVuSans-49"/>
     <use transform="translate(2989.306641 0.015625)" xlink:href="#DejaVuSans-45"/>
     <use transform="translate(3025.390625 0.015625)" xlink:href="#DejaVuSans-50"/>
     <use transform="translate(3089.013672 0.015625)" xlink:href="#DejaVuSans-50"/>
     <use transform="translate(3152.636719 0.015625)" xlink:href="#DejaVuSans-46"/>
     <use transform="translate(3184.423828 0.015625)" xlink:href="#DejaVuSans-46"/>
     <use transform="translate(3210.710938 0.015625)" xlink:href="#DejaVuSans-50"/>
     <use transform="translate(3274.333984 0.015625)" xlink:href="#DejaVuSans-48"/>
     <use transform="translate(3337.957031 0.015625)" xlink:href="#DejaVuSans-50"/>
     <use transform="translate(3401.580078 0.015625)" xlink:href="#DejaVuSans-49"/>
     <use transform="translate(3465.203125 0.015625)" xlink:href="#DejaVuSans-45"/>
     <use transform="translate(3501.287109 0.015625)" xlink:href="#DejaVuSans-48"/>
     <use transform="translate(3564.910156 0.015625)" xlink:href="#DejaVuSans-49"/>
     <use transform="translate(3628.533203 0.015625)" xlink:href="#DejaVuSans-45"/>
     <use transform="translate(3664.617188 0.015625)" xlink:href="#DejaVuSans-50"/>
     <use transform="translate(3728.240234 0.015625)" xlink:href="#DejaVuSans-51"/>
     <use transform="translate(3791.863281 0.015625)" xlink:href="#DejaVuSans-41"/>
    </g>
   </g>
   <g id="legend_1">
    <g id="patch_7">
     <path d="M 770.254687 91.798125 
L 835.4 91.798125 
Q 837.4 91.798125 837.4 89.798125 
L 837.4 76.12 
Q 837.4 74.12 835.4 74.12 
L 770.254687 74.12 
Q 768.254687 74.12 768.254687 76.12 
L 768.254687 89.798125 
Q 768.254687 91.798125 770.254687 91.798125 
z
" style="fill:#ffffff;opacity:0.8;stroke:#cccccc;stroke-linejoin:miter;"/>
    </g>
    <g id="line2d_134">
     <path d="M 772.254687 82.218438 
L 792.254687 82.218438 
" style="fill:none;stroke:#1f77b4;stroke-linecap:square;stroke-width:1.5;"/>
    </g>
    <g id="line2d_135">
     <g>
      <use style="fill:#1f77b4;stroke:#1f77b4;" x="782.254687" xlink:href="#ma2f069cc45" y="82.218438"/>
     </g>
    </g>
    <g id="text_17">
     <!-- 4 days -->
     <g transform="translate(800.254687 85.718438)scale(0.1 -0.1)">
      <use xlink:href="#DejaVuSans-52"/>
      <use x="63.623047" xlink:href="#DejaVuSans-32"/>
      <use x="95.410156" xlink:href="#DejaVuSans-100"/>
      <use x="158.886719" xlink:href="#DejaVuSans-97"/>
      <use x="220.166016" xlink:href="#DejaVuSans-121"/>
      <use x="279.345703" xlink:href="#DejaVuSans-115"/>
     </g>
    </g>
   </g>
  </g>
 </g>
 <defs>
  <clipPath id="p34c0175b7a">
   <rect height="443.52" width="725.4" x="117" y="69.12"/>
  </clipPath>
 </defs>
</svg>
