<?xml version="1.0" encoding="utf-8" standalone="no"?>
<!DOCTYPE svg PUBLIC "-//W3C//DTD SVG 1.1//EN"
  "http://www.w3.org/Graphics/SVG/1.1/DTD/svg11.dtd">
<!-- Created with matplotlib (https://matplotlib.org/) -->
<svg height="576pt" version="1.1" viewBox="0 0 936 576" width="936pt" xmlns="http://www.w3.org/2000/svg" xmlns:xlink="http://www.w3.org/1999/xlink">
 <defs>
  <style type="text/css">
*{stroke-linecap:butt;stroke-linejoin:round;}
  </style>
 </defs>
 <g id="figure_1">
  <g id="patch_1">
   <path d="M 0 576 
L 936 576 
L 936 0 
L 0 0 
z
" style="fill:#ffffff;"/>
  </g>
  <g id="axes_1">
   <g id="patch_2">
    <path d="M 117 512.64 
L 842.4 512.64 
L 842.4 69.12 
L 117 69.12 
z
" style="fill:#ffffff;"/>
   </g>
   <g id="matplotlib.axis_1">
    <g id="xtick_1">
     <g id="line2d_1">
      <path clip-path="url(#p2c6bf8faa6)" d="M 194.68151 512.64 
L 194.68151 69.12 
" style="fill:none;stroke:#d8dcd6;stroke-dasharray:0.8,1.32;stroke-dashoffset:0;stroke-width:0.8;"/>
     </g>
     <g id="line2d_2">
      <defs>
       <path d="M 0 0 
L 0 3.5 
" id="me2f11aca3c" style="stroke:#000000;stroke-width:0.8;"/>
      </defs>
      <g>
       <use style="stroke:#000000;stroke-width:0.8;" x="194.68151" xlink:href="#me2f11aca3c" y="512.64"/>
      </g>
     </g>
     <g id="text_1">
      <!-- 2020-03-02 -->
      <defs>
       <path d="M 19.1875 8.296875 
L 53.609375 8.296875 
L 53.609375 0 
L 7.328125 0 
L 7.328125 8.296875 
Q 12.9375 14.109375 22.625 23.890625 
Q 32.328125 33.6875 34.8125 36.53125 
Q 39.546875 41.84375 41.421875 45.53125 
Q 43.3125 49.21875 43.3125 52.78125 
Q 43.3125 58.59375 39.234375 62.25 
Q 35.15625 65.921875 28.609375 65.921875 
Q 23.96875 65.921875 18.8125 64.3125 
Q 13.671875 62.703125 7.8125 59.421875 
L 7.8125 69.390625 
Q 13.765625 71.78125 18.9375 73 
Q 24.125 74.21875 28.421875 74.21875 
Q 39.75 74.21875 46.484375 68.546875 
Q 53.21875 62.890625 53.21875 53.421875 
Q 53.21875 48.921875 51.53125 44.890625 
Q 49.859375 40.875 45.40625 35.40625 
Q 44.1875 33.984375 37.640625 27.21875 
Q 31.109375 20.453125 19.1875 8.296875 
z
" id="DejaVuSans-50"/>
       <path d="M 31.78125 66.40625 
Q 24.171875 66.40625 20.328125 58.90625 
Q 16.5 51.421875 16.5 36.375 
Q 16.5 21.390625 20.328125 13.890625 
Q 24.171875 6.390625 31.78125 6.390625 
Q 39.453125 6.390625 43.28125 13.890625 
Q 47.125 21.390625 47.125 36.375 
Q 47.125 51.421875 43.28125 58.90625 
Q 39.453125 66.40625 31.78125 66.40625 
z
M 31.78125 74.21875 
Q 44.046875 74.21875 50.515625 64.515625 
Q 56.984375 54.828125 56.984375 36.375 
Q 56.984375 17.96875 50.515625 8.265625 
Q 44.046875 -1.421875 31.78125 -1.421875 
Q 19.53125 -1.421875 13.0625 8.265625 
Q 6.59375 17.96875 6.59375 36.375 
Q 6.59375 54.828125 13.0625 64.515625 
Q 19.53125 74.21875 31.78125 74.21875 
z
" id="DejaVuSans-48"/>
       <path d="M 4.890625 31.390625 
L 31.203125 31.390625 
L 31.203125 23.390625 
L 4.890625 23.390625 
z
" id="DejaVuSans-45"/>
       <path d="M 40.578125 39.3125 
Q 47.65625 37.796875 51.625 33 
Q 55.609375 28.21875 55.609375 21.1875 
Q 55.609375 10.40625 48.1875 4.484375 
Q 40.765625 -1.421875 27.09375 -1.421875 
Q 22.515625 -1.421875 17.65625 -0.515625 
Q 12.796875 0.390625 7.625 2.203125 
L 7.625 11.71875 
Q 11.71875 9.328125 16.59375 8.109375 
Q 21.484375 6.890625 26.8125 6.890625 
Q 36.078125 6.890625 40.9375 10.546875 
Q 45.796875 14.203125 45.796875 21.1875 
Q 45.796875 27.640625 41.28125 31.265625 
Q 36.765625 34.90625 28.71875 34.90625 
L 20.21875 34.90625 
L 20.21875 43.015625 
L 29.109375 43.015625 
Q 36.375 43.015625 40.234375 45.921875 
Q 44.09375 48.828125 44.09375 54.296875 
Q 44.09375 59.90625 40.109375 62.90625 
Q 36.140625 65.921875 28.71875 65.921875 
Q 24.65625 65.921875 20.015625 65.03125 
Q 15.375 64.15625 9.8125 62.3125 
L 9.8125 71.09375 
Q 15.4375 72.65625 20.34375 73.4375 
Q 25.25 74.21875 29.59375 74.21875 
Q 40.828125 74.21875 47.359375 69.109375 
Q 53.90625 64.015625 53.90625 55.328125 
Q 53.90625 49.265625 50.4375 45.09375 
Q 46.96875 40.921875 40.578125 39.3125 
z
" id="DejaVuSans-51"/>
      </defs>
      <g transform="translate(148.825561 562.816745)rotate(-40)scale(0.1 -0.1)">
       <use xlink:href="#DejaVuSans-50"/>
       <use x="63.623047" xlink:href="#DejaVuSans-48"/>
       <use x="127.246094" xlink:href="#DejaVuSans-50"/>
       <use x="190.869141" xlink:href="#DejaVuSans-48"/>
       <use x="254.492188" xlink:href="#DejaVuSans-45"/>
       <use x="290.576172" xlink:href="#DejaVuSans-48"/>
       <use x="354.199219" xlink:href="#DejaVuSans-51"/>
       <use x="417.822266" xlink:href="#DejaVuSans-45"/>
       <use x="453.90625" xlink:href="#DejaVuSans-48"/>
       <use x="517.529297" xlink:href="#DejaVuSans-50"/>
      </g>
     </g>
    </g>
    <g id="xtick_2">
     <g id="line2d_3">
      <path clip-path="url(#p2c6bf8faa6)" d="M 306.453467 512.64 
L 306.453467 69.12 
" style="fill:none;stroke:#d8dcd6;stroke-dasharray:0.8,1.32;stroke-dashoffset:0;stroke-width:0.8;"/>
     </g>
     <g id="line2d_4">
      <g>
       <use style="stroke:#000000;stroke-width:0.8;" x="306.453467" xlink:href="#me2f11aca3c" y="512.64"/>
      </g>
     </g>
     <g id="text_2">
      <!-- 2020-03-12 -->
      <defs>
       <path d="M 12.40625 8.296875 
L 28.515625 8.296875 
L 28.515625 63.921875 
L 10.984375 60.40625 
L 10.984375 69.390625 
L 28.421875 72.90625 
L 38.28125 72.90625 
L 38.28125 8.296875 
L 54.390625 8.296875 
L 54.390625 0 
L 12.40625 0 
z
" id="DejaVuSans-49"/>
      </defs>
      <g transform="translate(260.597518 562.816745)rotate(-40)scale(0.1 -0.1)">
       <use xlink:href="#DejaVuSans-50"/>
       <use x="63.623047" xlink:href="#DejaVuSans-48"/>
       <use x="127.246094" xlink:href="#DejaVuSans-50"/>
       <use x="190.869141" xlink:href="#DejaVuSans-48"/>
       <use x="254.492188" xlink:href="#DejaVuSans-45"/>
       <use x="290.576172" xlink:href="#DejaVuSans-48"/>
       <use x="354.199219" xlink:href="#DejaVuSans-51"/>
       <use x="417.822266" xlink:href="#DejaVuSans-45"/>
       <use x="453.90625" xlink:href="#DejaVuSans-49"/>
       <use x="517.529297" xlink:href="#DejaVuSans-50"/>
      </g>
     </g>
    </g>
    <g id="xtick_3">
     <g id="line2d_5">
      <path clip-path="url(#p2c6bf8faa6)" d="M 418.225424 512.64 
L 418.225424 69.12 
" style="fill:none;stroke:#d8dcd6;stroke-dasharray:0.8,1.32;stroke-dashoffset:0;stroke-width:0.8;"/>
     </g>
     <g id="line2d_6">
      <g>
       <use style="stroke:#000000;stroke-width:0.8;" x="418.225424" xlink:href="#me2f11aca3c" y="512.64"/>
      </g>
     </g>
     <g id="text_3">
      <!-- 2020-03-22 -->
      <g transform="translate(372.369475 562.816745)rotate(-40)scale(0.1 -0.1)">
       <use xlink:href="#DejaVuSans-50"/>
       <use x="63.623047" xlink:href="#DejaVuSans-48"/>
       <use x="127.246094" xlink:href="#DejaVuSans-50"/>
       <use x="190.869141" xlink:href="#DejaVuSans-48"/>
       <use x="254.492188" xlink:href="#DejaVuSans-45"/>
       <use x="290.576172" xlink:href="#DejaVuSans-48"/>
       <use x="354.199219" xlink:href="#DejaVuSans-51"/>
       <use x="417.822266" xlink:href="#DejaVuSans-45"/>
       <use x="453.90625" xlink:href="#DejaVuSans-50"/>
       <use x="517.529297" xlink:href="#DejaVuSans-50"/>
      </g>
     </g>
    </g>
    <g id="xtick_4">
     <g id="line2d_7">
      <path clip-path="url(#p2c6bf8faa6)" d="M 529.997381 512.64 
L 529.997381 69.12 
" style="fill:none;stroke:#d8dcd6;stroke-dasharray:0.8,1.32;stroke-dashoffset:0;stroke-width:0.8;"/>
     </g>
     <g id="line2d_8">
      <g>
       <use style="stroke:#000000;stroke-width:0.8;" x="529.997381" xlink:href="#me2f11aca3c" y="512.64"/>
      </g>
     </g>
     <g id="text_4">
      <!-- 2020-04-01 -->
      <defs>
       <path d="M 37.796875 64.3125 
L 12.890625 25.390625 
L 37.796875 25.390625 
z
M 35.203125 72.90625 
L 47.609375 72.90625 
L 47.609375 25.390625 
L 58.015625 25.390625 
L 58.015625 17.1875 
L 47.609375 17.1875 
L 47.609375 0 
L 37.796875 0 
L 37.796875 17.1875 
L 4.890625 17.1875 
L 4.890625 26.703125 
z
" id="DejaVuSans-52"/>
      </defs>
      <g transform="translate(484.141432 562.816745)rotate(-40)scale(0.1 -0.1)">
       <use xlink:href="#DejaVuSans-50"/>
       <use x="63.623047" xlink:href="#DejaVuSans-48"/>
       <use x="127.246094" xlink:href="#DejaVuSans-50"/>
       <use x="190.869141" xlink:href="#DejaVuSans-48"/>
       <use x="254.492188" xlink:href="#DejaVuSans-45"/>
       <use x="290.576172" xlink:href="#DejaVuSans-48"/>
       <use x="354.199219" xlink:href="#DejaVuSans-52"/>
       <use x="417.822266" xlink:href="#DejaVuSans-45"/>
       <use x="453.90625" xlink:href="#DejaVuSans-48"/>
       <use x="517.529297" xlink:href="#DejaVuSans-49"/>
      </g>
     </g>
    </g>
    <g id="xtick_5">
     <g id="line2d_9">
      <path clip-path="url(#p2c6bf8faa6)" d="M 641.769337 512.64 
L 641.769337 69.12 
" style="fill:none;stroke:#d8dcd6;stroke-dasharray:0.8,1.32;stroke-dashoffset:0;stroke-width:0.8;"/>
     </g>
     <g id="line2d_10">
      <g>
       <use style="stroke:#000000;stroke-width:0.8;" x="641.769337" xlink:href="#me2f11aca3c" y="512.64"/>
      </g>
     </g>
     <g id="text_5">
      <!-- 2020-04-11 -->
      <g transform="translate(595.913388 562.816745)rotate(-40)scale(0.1 -0.1)">
       <use xlink:href="#DejaVuSans-50"/>
       <use x="63.623047" xlink:href="#DejaVuSans-48"/>
       <use x="127.246094" xlink:href="#DejaVuSans-50"/>
       <use x="190.869141" xlink:href="#DejaVuSans-48"/>
       <use x="254.492188" xlink:href="#DejaVuSans-45"/>
       <use x="290.576172" xlink:href="#DejaVuSans-48"/>
       <use x="354.199219" xlink:href="#DejaVuSans-52"/>
       <use x="417.822266" xlink:href="#DejaVuSans-45"/>
       <use x="453.90625" xlink:href="#DejaVuSans-49"/>
       <use x="517.529297" xlink:href="#DejaVuSans-49"/>
      </g>
     </g>
    </g>
    <g id="xtick_6">
     <g id="line2d_11">
      <path clip-path="url(#p2c6bf8faa6)" d="M 753.541294 512.64 
L 753.541294 69.12 
" style="fill:none;stroke:#d8dcd6;stroke-dasharray:0.8,1.32;stroke-dashoffset:0;stroke-width:0.8;"/>
     </g>
     <g id="line2d_12">
      <g>
       <use style="stroke:#000000;stroke-width:0.8;" x="753.541294" xlink:href="#me2f11aca3c" y="512.64"/>
      </g>
     </g>
     <g id="text_6">
      <!-- 2020-04-21 -->
      <g transform="translate(707.685345 562.816745)rotate(-40)scale(0.1 -0.1)">
       <use xlink:href="#DejaVuSans-50"/>
       <use x="63.623047" xlink:href="#DejaVuSans-48"/>
       <use x="127.246094" xlink:href="#DejaVuSans-50"/>
       <use x="190.869141" xlink:href="#DejaVuSans-48"/>
       <use x="254.492188" xlink:href="#DejaVuSans-45"/>
       <use x="290.576172" xlink:href="#DejaVuSans-48"/>
       <use x="354.199219" xlink:href="#DejaVuSans-52"/>
       <use x="417.822266" xlink:href="#DejaVuSans-45"/>
       <use x="453.90625" xlink:href="#DejaVuSans-50"/>
       <use x="517.529297" xlink:href="#DejaVuSans-49"/>
      </g>
     </g>
    </g>
    <g id="xtick_7">
     <g id="line2d_13">
      <path clip-path="url(#p2c6bf8faa6)" d="M 127.618336 512.64 
L 127.618336 69.12 
" style="fill:none;stroke:#d8dcd6;stroke-dasharray:0.8,1.32;stroke-dashoffset:0;stroke-width:0.8;"/>
     </g>
     <g id="line2d_14">
      <defs>
       <path d="M 0 0 
L 0 2 
" id="mc298d08129" style="stroke:#000000;stroke-width:0.6;"/>
      </defs>
      <g>
       <use style="stroke:#000000;stroke-width:0.6;" x="127.618336" xlink:href="#mc298d08129" y="512.64"/>
      </g>
     </g>
    </g>
    <g id="xtick_8">
     <g id="line2d_15">
      <path clip-path="url(#p2c6bf8faa6)" d="M 149.972727 512.64 
L 149.972727 69.12 
" style="fill:none;stroke:#d8dcd6;stroke-dasharray:0.8,1.32;stroke-dashoffset:0;stroke-width:0.8;"/>
     </g>
     <g id="line2d_16">
      <g>
       <use style="stroke:#000000;stroke-width:0.6;" x="149.972727" xlink:href="#mc298d08129" y="512.64"/>
      </g>
     </g>
    </g>
    <g id="xtick_9">
     <g id="line2d_17">
      <path clip-path="url(#p2c6bf8faa6)" d="M 172.327119 512.64 
L 172.327119 69.12 
" style="fill:none;stroke:#d8dcd6;stroke-dasharray:0.8,1.32;stroke-dashoffset:0;stroke-width:0.8;"/>
     </g>
     <g id="line2d_18">
      <g>
       <use style="stroke:#000000;stroke-width:0.6;" x="172.327119" xlink:href="#mc298d08129" y="512.64"/>
      </g>
     </g>
    </g>
    <g id="xtick_10">
     <g id="line2d_19">
      <path clip-path="url(#p2c6bf8faa6)" d="M 217.035901 512.64 
L 217.035901 69.12 
" style="fill:none;stroke:#d8dcd6;stroke-dasharray:0.8,1.32;stroke-dashoffset:0;stroke-width:0.8;"/>
     </g>
     <g id="line2d_20">
      <g>
       <use style="stroke:#000000;stroke-width:0.6;" x="217.035901" xlink:href="#mc298d08129" y="512.64"/>
      </g>
     </g>
    </g>
    <g id="xtick_11">
     <g id="line2d_21">
      <path clip-path="url(#p2c6bf8faa6)" d="M 239.390293 512.64 
L 239.390293 69.12 
" style="fill:none;stroke:#d8dcd6;stroke-dasharray:0.8,1.32;stroke-dashoffset:0;stroke-width:0.8;"/>
     </g>
     <g id="line2d_22">
      <g>
       <use style="stroke:#000000;stroke-width:0.6;" x="239.390293" xlink:href="#mc298d08129" y="512.64"/>
      </g>
     </g>
    </g>
    <g id="xtick_12">
     <g id="line2d_23">
      <path clip-path="url(#p2c6bf8faa6)" d="M 261.744684 512.64 
L 261.744684 69.12 
" style="fill:none;stroke:#d8dcd6;stroke-dasharray:0.8,1.32;stroke-dashoffset:0;stroke-width:0.8;"/>
     </g>
     <g id="line2d_24">
      <g>
       <use style="stroke:#000000;stroke-width:0.6;" x="261.744684" xlink:href="#mc298d08129" y="512.64"/>
      </g>
     </g>
    </g>
    <g id="xtick_13">
     <g id="line2d_25">
      <path clip-path="url(#p2c6bf8faa6)" d="M 284.099076 512.64 
L 284.099076 69.12 
" style="fill:none;stroke:#d8dcd6;stroke-dasharray:0.8,1.32;stroke-dashoffset:0;stroke-width:0.8;"/>
     </g>
     <g id="line2d_26">
      <g>
       <use style="stroke:#000000;stroke-width:0.6;" x="284.099076" xlink:href="#mc298d08129" y="512.64"/>
      </g>
     </g>
    </g>
    <g id="xtick_14">
     <g id="line2d_27">
      <path clip-path="url(#p2c6bf8faa6)" d="M 328.807858 512.64 
L 328.807858 69.12 
" style="fill:none;stroke:#d8dcd6;stroke-dasharray:0.8,1.32;stroke-dashoffset:0;stroke-width:0.8;"/>
     </g>
     <g id="line2d_28">
      <g>
       <use style="stroke:#000000;stroke-width:0.6;" x="328.807858" xlink:href="#mc298d08129" y="512.64"/>
      </g>
     </g>
    </g>
    <g id="xtick_15">
     <g id="line2d_29">
      <path clip-path="url(#p2c6bf8faa6)" d="M 351.16225 512.64 
L 351.16225 69.12 
" style="fill:none;stroke:#d8dcd6;stroke-dasharray:0.8,1.32;stroke-dashoffset:0;stroke-width:0.8;"/>
     </g>
     <g id="line2d_30">
      <g>
       <use style="stroke:#000000;stroke-width:0.6;" x="351.16225" xlink:href="#mc298d08129" y="512.64"/>
      </g>
     </g>
    </g>
    <g id="xtick_16">
     <g id="line2d_31">
      <path clip-path="url(#p2c6bf8faa6)" d="M 373.516641 512.64 
L 373.516641 69.12 
" style="fill:none;stroke:#d8dcd6;stroke-dasharray:0.8,1.32;stroke-dashoffset:0;stroke-width:0.8;"/>
     </g>
     <g id="line2d_32">
      <g>
       <use style="stroke:#000000;stroke-width:0.6;" x="373.516641" xlink:href="#mc298d08129" y="512.64"/>
      </g>
     </g>
    </g>
    <g id="xtick_17">
     <g id="line2d_33">
      <path clip-path="url(#p2c6bf8faa6)" d="M 395.871032 512.64 
L 395.871032 69.12 
" style="fill:none;stroke:#d8dcd6;stroke-dasharray:0.8,1.32;stroke-dashoffset:0;stroke-width:0.8;"/>
     </g>
     <g id="line2d_34">
      <g>
       <use style="stroke:#000000;stroke-width:0.6;" x="395.871032" xlink:href="#mc298d08129" y="512.64"/>
      </g>
     </g>
    </g>
    <g id="xtick_18">
     <g id="line2d_35">
      <path clip-path="url(#p2c6bf8faa6)" d="M 440.579815 512.64 
L 440.579815 69.12 
" style="fill:none;stroke:#d8dcd6;stroke-dasharray:0.8,1.32;stroke-dashoffset:0;stroke-width:0.8;"/>
     </g>
     <g id="line2d_36">
      <g>
       <use style="stroke:#000000;stroke-width:0.6;" x="440.579815" xlink:href="#mc298d08129" y="512.64"/>
      </g>
     </g>
    </g>
    <g id="xtick_19">
     <g id="line2d_37">
      <path clip-path="url(#p2c6bf8faa6)" d="M 462.934206 512.64 
L 462.934206 69.12 
" style="fill:none;stroke:#d8dcd6;stroke-dasharray:0.8,1.32;stroke-dashoffset:0;stroke-width:0.8;"/>
     </g>
     <g id="line2d_38">
      <g>
       <use style="stroke:#000000;stroke-width:0.6;" x="462.934206" xlink:href="#mc298d08129" y="512.64"/>
      </g>
     </g>
    </g>
    <g id="xtick_20">
     <g id="line2d_39">
      <path clip-path="url(#p2c6bf8faa6)" d="M 485.288598 512.64 
L 485.288598 69.12 
" style="fill:none;stroke:#d8dcd6;stroke-dasharray:0.8,1.32;stroke-dashoffset:0;stroke-width:0.8;"/>
     </g>
     <g id="line2d_40">
      <g>
       <use style="stroke:#000000;stroke-width:0.6;" x="485.288598" xlink:href="#mc298d08129" y="512.64"/>
      </g>
     </g>
    </g>
    <g id="xtick_21">
     <g id="line2d_41">
      <path clip-path="url(#p2c6bf8faa6)" d="M 507.642989 512.64 
L 507.642989 69.12 
" style="fill:none;stroke:#d8dcd6;stroke-dasharray:0.8,1.32;stroke-dashoffset:0;stroke-width:0.8;"/>
     </g>
     <g id="line2d_42">
      <g>
       <use style="stroke:#000000;stroke-width:0.6;" x="507.642989" xlink:href="#mc298d08129" y="512.64"/>
      </g>
     </g>
    </g>
    <g id="xtick_22">
     <g id="line2d_43">
      <path clip-path="url(#p2c6bf8faa6)" d="M 552.351772 512.64 
L 552.351772 69.12 
" style="fill:none;stroke:#d8dcd6;stroke-dasharray:0.8,1.32;stroke-dashoffset:0;stroke-width:0.8;"/>
     </g>
     <g id="line2d_44">
      <g>
       <use style="stroke:#000000;stroke-width:0.6;" x="552.351772" xlink:href="#mc298d08129" y="512.64"/>
      </g>
     </g>
    </g>
    <g id="xtick_23">
     <g id="line2d_45">
      <path clip-path="url(#p2c6bf8faa6)" d="M 574.706163 512.64 
L 574.706163 69.12 
" style="fill:none;stroke:#d8dcd6;stroke-dasharray:0.8,1.32;stroke-dashoffset:0;stroke-width:0.8;"/>
     </g>
     <g id="line2d_46">
      <g>
       <use style="stroke:#000000;stroke-width:0.6;" x="574.706163" xlink:href="#mc298d08129" y="512.64"/>
      </g>
     </g>
    </g>
    <g id="xtick_24">
     <g id="line2d_47">
      <path clip-path="url(#p2c6bf8faa6)" d="M 597.060555 512.64 
L 597.060555 69.12 
" style="fill:none;stroke:#d8dcd6;stroke-dasharray:0.8,1.32;stroke-dashoffset:0;stroke-width:0.8;"/>
     </g>
     <g id="line2d_48">
      <g>
       <use style="stroke:#000000;stroke-width:0.6;" x="597.060555" xlink:href="#mc298d08129" y="512.64"/>
      </g>
     </g>
    </g>
    <g id="xtick_25">
     <g id="line2d_49">
      <path clip-path="url(#p2c6bf8faa6)" d="M 619.414946 512.64 
L 619.414946 69.12 
" style="fill:none;stroke:#d8dcd6;stroke-dasharray:0.8,1.32;stroke-dashoffset:0;stroke-width:0.8;"/>
     </g>
     <g id="line2d_50">
      <g>
       <use style="stroke:#000000;stroke-width:0.6;" x="619.414946" xlink:href="#mc298d08129" y="512.64"/>
      </g>
     </g>
    </g>
    <g id="xtick_26">
     <g id="line2d_51">
      <path clip-path="url(#p2c6bf8faa6)" d="M 664.123729 512.64 
L 664.123729 69.12 
" style="fill:none;stroke:#d8dcd6;stroke-dasharray:0.8,1.32;stroke-dashoffset:0;stroke-width:0.8;"/>
     </g>
     <g id="line2d_52">
      <g>
       <use style="stroke:#000000;stroke-width:0.6;" x="664.123729" xlink:href="#mc298d08129" y="512.64"/>
      </g>
     </g>
    </g>
    <g id="xtick_27">
     <g id="line2d_53">
      <path clip-path="url(#p2c6bf8faa6)" d="M 686.47812 512.64 
L 686.47812 69.12 
" style="fill:none;stroke:#d8dcd6;stroke-dasharray:0.8,1.32;stroke-dashoffset:0;stroke-width:0.8;"/>
     </g>
     <g id="line2d_54">
      <g>
       <use style="stroke:#000000;stroke-width:0.6;" x="686.47812" xlink:href="#mc298d08129" y="512.64"/>
      </g>
     </g>
    </g>
    <g id="xtick_28">
     <g id="line2d_55">
      <path clip-path="url(#p2c6bf8faa6)" d="M 708.832512 512.64 
L 708.832512 69.12 
" style="fill:none;stroke:#d8dcd6;stroke-dasharray:0.8,1.32;stroke-dashoffset:0;stroke-width:0.8;"/>
     </g>
     <g id="line2d_56">
      <g>
       <use style="stroke:#000000;stroke-width:0.6;" x="708.832512" xlink:href="#mc298d08129" y="512.64"/>
      </g>
     </g>
    </g>
    <g id="xtick_29">
     <g id="line2d_57">
      <path clip-path="url(#p2c6bf8faa6)" d="M 731.186903 512.64 
L 731.186903 69.12 
" style="fill:none;stroke:#d8dcd6;stroke-dasharray:0.8,1.32;stroke-dashoffset:0;stroke-width:0.8;"/>
     </g>
     <g id="line2d_58">
      <g>
       <use style="stroke:#000000;stroke-width:0.6;" x="731.186903" xlink:href="#mc298d08129" y="512.64"/>
      </g>
     </g>
    </g>
    <g id="xtick_30">
     <g id="line2d_59">
      <path clip-path="url(#p2c6bf8faa6)" d="M 775.895686 512.64 
L 775.895686 69.12 
" style="fill:none;stroke:#d8dcd6;stroke-dasharray:0.8,1.32;stroke-dashoffset:0;stroke-width:0.8;"/>
     </g>
     <g id="line2d_60">
      <g>
       <use style="stroke:#000000;stroke-width:0.6;" x="775.895686" xlink:href="#mc298d08129" y="512.64"/>
      </g>
     </g>
    </g>
    <g id="xtick_31">
     <g id="line2d_61">
      <path clip-path="url(#p2c6bf8faa6)" d="M 798.250077 512.64 
L 798.250077 69.12 
" style="fill:none;stroke:#d8dcd6;stroke-dasharray:0.8,1.32;stroke-dashoffset:0;stroke-width:0.8;"/>
     </g>
     <g id="line2d_62">
      <g>
       <use style="stroke:#000000;stroke-width:0.6;" x="798.250077" xlink:href="#mc298d08129" y="512.64"/>
      </g>
     </g>
    </g>
    <g id="xtick_32">
     <g id="line2d_63">
      <path clip-path="url(#p2c6bf8faa6)" d="M 820.604468 512.64 
L 820.604468 69.12 
" style="fill:none;stroke:#d8dcd6;stroke-dasharray:0.8,1.32;stroke-dashoffset:0;stroke-width:0.8;"/>
     </g>
     <g id="line2d_64">
      <g>
       <use style="stroke:#000000;stroke-width:0.6;" x="820.604468" xlink:href="#mc298d08129" y="512.64"/>
      </g>
     </g>
    </g>
   </g>
   <g id="matplotlib.axis_2">
    <g id="ytick_1">
     <g id="line2d_65">
      <path clip-path="url(#p2c6bf8faa6)" d="M 117 512.64 
L 842.4 512.64 
" style="fill:none;stroke:#d8dcd6;stroke-dasharray:0.8,1.32;stroke-dashoffset:0;stroke-width:0.8;"/>
     </g>
     <g id="line2d_66">
      <defs>
       <path d="M 0 0 
L -3.5 0 
" id="m61b3ae44e8" style="stroke:#000000;stroke-width:0.8;"/>
      </defs>
      <g>
       <use style="stroke:#000000;stroke-width:0.8;" x="117" xlink:href="#m61b3ae44e8" y="512.64"/>
      </g>
     </g>
     <g id="text_7">
      <!-- 0 -->
      <g transform="translate(103.6375 516.439219)scale(0.1 -0.1)">
       <use xlink:href="#DejaVuSans-48"/>
      </g>
     </g>
    </g>
    <g id="ytick_2">
     <g id="line2d_67">
      <path clip-path="url(#p2c6bf8faa6)" d="M 117 423.936 
L 842.4 423.936 
" style="fill:none;stroke:#d8dcd6;stroke-dasharray:0.8,1.32;stroke-dashoffset:0;stroke-width:0.8;"/>
     </g>
     <g id="line2d_68">
      <g>
       <use style="stroke:#000000;stroke-width:0.8;" x="117" xlink:href="#m61b3ae44e8" y="423.936"/>
      </g>
     </g>
     <g id="text_8">
      <!-- 5 -->
      <defs>
       <path d="M 10.796875 72.90625 
L 49.515625 72.90625 
L 49.515625 64.59375 
L 19.828125 64.59375 
L 19.828125 46.734375 
Q 21.96875 47.46875 24.109375 47.828125 
Q 26.265625 48.1875 28.421875 48.1875 
Q 40.625 48.1875 47.75 41.5 
Q 54.890625 34.8125 54.890625 23.390625 
Q 54.890625 11.625 47.5625 5.09375 
Q 40.234375 -1.421875 26.90625 -1.421875 
Q 22.3125 -1.421875 17.546875 -0.640625 
Q 12.796875 0.140625 7.71875 1.703125 
L 7.71875 11.625 
Q 12.109375 9.234375 16.796875 8.0625 
Q 21.484375 6.890625 26.703125 6.890625 
Q 35.15625 6.890625 40.078125 11.328125 
Q 45.015625 15.765625 45.015625 23.390625 
Q 45.015625 31 40.078125 35.4375 
Q 35.15625 39.890625 26.703125 39.890625 
Q 22.75 39.890625 18.8125 39.015625 
Q 14.890625 38.140625 10.796875 36.28125 
z
" id="DejaVuSans-53"/>
      </defs>
      <g transform="translate(103.6375 427.735219)scale(0.1 -0.1)">
       <use xlink:href="#DejaVuSans-53"/>
      </g>
     </g>
    </g>
    <g id="ytick_3">
     <g id="line2d_69">
      <path clip-path="url(#p2c6bf8faa6)" d="M 117 335.232 
L 842.4 335.232 
" style="fill:none;stroke:#d8dcd6;stroke-dasharray:0.8,1.32;stroke-dashoffset:0;stroke-width:0.8;"/>
     </g>
     <g id="line2d_70">
      <g>
       <use style="stroke:#000000;stroke-width:0.8;" x="117" xlink:href="#m61b3ae44e8" y="335.232"/>
      </g>
     </g>
     <g id="text_9">
      <!-- 10 -->
      <g transform="translate(97.275 339.031219)scale(0.1 -0.1)">
       <use xlink:href="#DejaVuSans-49"/>
       <use x="63.623047" xlink:href="#DejaVuSans-48"/>
      </g>
     </g>
    </g>
    <g id="ytick_4">
     <g id="line2d_71">
      <path clip-path="url(#p2c6bf8faa6)" d="M 117 246.528 
L 842.4 246.528 
" style="fill:none;stroke:#d8dcd6;stroke-dasharray:0.8,1.32;stroke-dashoffset:0;stroke-width:0.8;"/>
     </g>
     <g id="line2d_72">
      <g>
       <use style="stroke:#000000;stroke-width:0.8;" x="117" xlink:href="#m61b3ae44e8" y="246.528"/>
      </g>
     </g>
     <g id="text_10">
      <!-- 15 -->
      <g transform="translate(97.275 250.327219)scale(0.1 -0.1)">
       <use xlink:href="#DejaVuSans-49"/>
       <use x="63.623047" xlink:href="#DejaVuSans-53"/>
      </g>
     </g>
    </g>
    <g id="ytick_5">
     <g id="line2d_73">
      <path clip-path="url(#p2c6bf8faa6)" d="M 117 157.824 
L 842.4 157.824 
" style="fill:none;stroke:#d8dcd6;stroke-dasharray:0.8,1.32;stroke-dashoffset:0;stroke-width:0.8;"/>
     </g>
     <g id="line2d_74">
      <g>
       <use style="stroke:#000000;stroke-width:0.8;" x="117" xlink:href="#m61b3ae44e8" y="157.824"/>
      </g>
     </g>
     <g id="text_11">
      <!-- 20 -->
      <g transform="translate(97.275 161.623219)scale(0.1 -0.1)">
       <use xlink:href="#DejaVuSans-50"/>
       <use x="63.623047" xlink:href="#DejaVuSans-48"/>
      </g>
     </g>
    </g>
    <g id="ytick_6">
     <g id="line2d_75">
      <path clip-path="url(#p2c6bf8faa6)" d="M 117 69.12 
L 842.4 69.12 
" style="fill:none;stroke:#d8dcd6;stroke-dasharray:0.8,1.32;stroke-dashoffset:0;stroke-width:0.8;"/>
     </g>
     <g id="line2d_76">
      <g>
       <use style="stroke:#000000;stroke-width:0.8;" x="117" xlink:href="#m61b3ae44e8" y="69.12"/>
      </g>
     </g>
     <g id="text_12">
      <!-- 25 -->
      <g transform="translate(97.275 72.919219)scale(0.1 -0.1)">
       <use xlink:href="#DejaVuSans-50"/>
       <use x="63.623047" xlink:href="#DejaVuSans-53"/>
      </g>
     </g>
    </g>
    <g id="ytick_7">
     <g id="line2d_77">
      <path clip-path="url(#p2c6bf8faa6)" d="M 117 494.8992 
L 842.4 494.8992 
" style="fill:none;stroke:#d8dcd6;stroke-dasharray:0.8,1.32;stroke-dashoffset:0;stroke-width:0.8;"/>
     </g>
     <g id="line2d_78">
      <defs>
       <path d="M 0 0 
L -2 0 
" id="m492abb5eb3" style="stroke:#000000;stroke-width:0.6;"/>
      </defs>
      <g>
       <use style="stroke:#000000;stroke-width:0.6;" x="117" xlink:href="#m492abb5eb3" y="494.8992"/>
      </g>
     </g>
    </g>
    <g id="ytick_8">
     <g id="line2d_79">
      <path clip-path="url(#p2c6bf8faa6)" d="M 117 477.1584 
L 842.4 477.1584 
" style="fill:none;stroke:#d8dcd6;stroke-dasharray:0.8,1.32;stroke-dashoffset:0;stroke-width:0.8;"/>
     </g>
     <g id="line2d_80">
      <g>
       <use style="stroke:#000000;stroke-width:0.6;" x="117" xlink:href="#m492abb5eb3" y="477.1584"/>
      </g>
     </g>
    </g>
    <g id="ytick_9">
     <g id="line2d_81">
      <path clip-path="url(#p2c6bf8faa6)" d="M 117 459.4176 
L 842.4 459.4176 
" style="fill:none;stroke:#d8dcd6;stroke-dasharray:0.8,1.32;stroke-dashoffset:0;stroke-width:0.8;"/>
     </g>
     <g id="line2d_82">
      <g>
       <use style="stroke:#000000;stroke-width:0.6;" x="117" xlink:href="#m492abb5eb3" y="459.4176"/>
      </g>
     </g>
    </g>
    <g id="ytick_10">
     <g id="line2d_83">
      <path clip-path="url(#p2c6bf8faa6)" d="M 117 441.6768 
L 842.4 441.6768 
" style="fill:none;stroke:#d8dcd6;stroke-dasharray:0.8,1.32;stroke-dashoffset:0;stroke-width:0.8;"/>
     </g>
     <g id="line2d_84">
      <g>
       <use style="stroke:#000000;stroke-width:0.6;" x="117" xlink:href="#m492abb5eb3" y="441.6768"/>
      </g>
     </g>
    </g>
    <g id="ytick_11">
     <g id="line2d_85">
      <path clip-path="url(#p2c6bf8faa6)" d="M 117 406.1952 
L 842.4 406.1952 
" style="fill:none;stroke:#d8dcd6;stroke-dasharray:0.8,1.32;stroke-dashoffset:0;stroke-width:0.8;"/>
     </g>
     <g id="line2d_86">
      <g>
       <use style="stroke:#000000;stroke-width:0.6;" x="117" xlink:href="#m492abb5eb3" y="406.1952"/>
      </g>
     </g>
    </g>
    <g id="ytick_12">
     <g id="line2d_87">
      <path clip-path="url(#p2c6bf8faa6)" d="M 117 388.4544 
L 842.4 388.4544 
" style="fill:none;stroke:#d8dcd6;stroke-dasharray:0.8,1.32;stroke-dashoffset:0;stroke-width:0.8;"/>
     </g>
     <g id="line2d_88">
      <g>
       <use style="stroke:#000000;stroke-width:0.6;" x="117" xlink:href="#m492abb5eb3" y="388.4544"/>
      </g>
     </g>
    </g>
    <g id="ytick_13">
     <g id="line2d_89">
      <path clip-path="url(#p2c6bf8faa6)" d="M 117 370.7136 
L 842.4 370.7136 
" style="fill:none;stroke:#d8dcd6;stroke-dasharray:0.8,1.32;stroke-dashoffset:0;stroke-width:0.8;"/>
     </g>
     <g id="line2d_90">
      <g>
       <use style="stroke:#000000;stroke-width:0.6;" x="117" xlink:href="#m492abb5eb3" y="370.7136"/>
      </g>
     </g>
    </g>
    <g id="ytick_14">
     <g id="line2d_91">
      <path clip-path="url(#p2c6bf8faa6)" d="M 117 352.9728 
L 842.4 352.9728 
" style="fill:none;stroke:#d8dcd6;stroke-dasharray:0.8,1.32;stroke-dashoffset:0;stroke-width:0.8;"/>
     </g>
     <g id="line2d_92">
      <g>
       <use style="stroke:#000000;stroke-width:0.6;" x="117" xlink:href="#m492abb5eb3" y="352.9728"/>
      </g>
     </g>
    </g>
    <g id="ytick_15">
     <g id="line2d_93">
      <path clip-path="url(#p2c6bf8faa6)" d="M 117 317.4912 
L 842.4 317.4912 
" style="fill:none;stroke:#d8dcd6;stroke-dasharray:0.8,1.32;stroke-dashoffset:0;stroke-width:0.8;"/>
     </g>
     <g id="line2d_94">
      <g>
       <use style="stroke:#000000;stroke-width:0.6;" x="117" xlink:href="#m492abb5eb3" y="317.4912"/>
      </g>
     </g>
    </g>
    <g id="ytick_16">
     <g id="line2d_95">
      <path clip-path="url(#p2c6bf8faa6)" d="M 117 299.7504 
L 842.4 299.7504 
" style="fill:none;stroke:#d8dcd6;stroke-dasharray:0.8,1.32;stroke-dashoffset:0;stroke-width:0.8;"/>
     </g>
     <g id="line2d_96">
      <g>
       <use style="stroke:#000000;stroke-width:0.6;" x="117" xlink:href="#m492abb5eb3" y="299.7504"/>
      </g>
     </g>
    </g>
    <g id="ytick_17">
     <g id="line2d_97">
      <path clip-path="url(#p2c6bf8faa6)" d="M 117 282.0096 
L 842.4 282.0096 
" style="fill:none;stroke:#d8dcd6;stroke-dasharray:0.8,1.32;stroke-dashoffset:0;stroke-width:0.8;"/>
     </g>
     <g id="line2d_98">
      <g>
       <use style="stroke:#000000;stroke-width:0.6;" x="117" xlink:href="#m492abb5eb3" y="282.0096"/>
      </g>
     </g>
    </g>
    <g id="ytick_18">
     <g id="line2d_99">
      <path clip-path="url(#p2c6bf8faa6)" d="M 117 264.2688 
L 842.4 264.2688 
" style="fill:none;stroke:#d8dcd6;stroke-dasharray:0.8,1.32;stroke-dashoffset:0;stroke-width:0.8;"/>
     </g>
     <g id="line2d_100">
      <g>
       <use style="stroke:#000000;stroke-width:0.6;" x="117" xlink:href="#m492abb5eb3" y="264.2688"/>
      </g>
     </g>
    </g>
    <g id="ytick_19">
     <g id="line2d_101">
      <path clip-path="url(#p2c6bf8faa6)" d="M 117 228.7872 
L 842.4 228.7872 
" style="fill:none;stroke:#d8dcd6;stroke-dasharray:0.8,1.32;stroke-dashoffset:0;stroke-width:0.8;"/>
     </g>
     <g id="line2d_102">
      <g>
       <use style="stroke:#000000;stroke-width:0.6;" x="117" xlink:href="#m492abb5eb3" y="228.7872"/>
      </g>
     </g>
    </g>
    <g id="ytick_20">
     <g id="line2d_103">
      <path clip-path="url(#p2c6bf8faa6)" d="M 117 211.0464 
L 842.4 211.0464 
" style="fill:none;stroke:#d8dcd6;stroke-dasharray:0.8,1.32;stroke-dashoffset:0;stroke-width:0.8;"/>
     </g>
     <g id="line2d_104">
      <g>
       <use style="stroke:#000000;stroke-width:0.6;" x="117" xlink:href="#m492abb5eb3" y="211.0464"/>
      </g>
     </g>
    </g>
    <g id="ytick_21">
     <g id="line2d_105">
      <path clip-path="url(#p2c6bf8faa6)" d="M 117 193.3056 
L 842.4 193.3056 
" style="fill:none;stroke:#d8dcd6;stroke-dasharray:0.8,1.32;stroke-dashoffset:0;stroke-width:0.8;"/>
     </g>
     <g id="line2d_106">
      <g>
       <use style="stroke:#000000;stroke-width:0.6;" x="117" xlink:href="#m492abb5eb3" y="193.3056"/>
      </g>
     </g>
    </g>
    <g id="ytick_22">
     <g id="line2d_107">
      <path clip-path="url(#p2c6bf8faa6)" d="M 117 175.5648 
L 842.4 175.5648 
" style="fill:none;stroke:#d8dcd6;stroke-dasharray:0.8,1.32;stroke-dashoffset:0;stroke-width:0.8;"/>
     </g>
     <g id="line2d_108">
      <g>
       <use style="stroke:#000000;stroke-width:0.6;" x="117" xlink:href="#m492abb5eb3" y="175.5648"/>
      </g>
     </g>
    </g>
    <g id="ytick_23">
     <g id="line2d_109">
      <path clip-path="url(#p2c6bf8faa6)" d="M 117 140.0832 
L 842.4 140.0832 
" style="fill:none;stroke:#d8dcd6;stroke-dasharray:0.8,1.32;stroke-dashoffset:0;stroke-width:0.8;"/>
     </g>
     <g id="line2d_110">
      <g>
       <use style="stroke:#000000;stroke-width:0.6;" x="117" xlink:href="#m492abb5eb3" y="140.0832"/>
      </g>
     </g>
    </g>
    <g id="ytick_24">
     <g id="line2d_111">
      <path clip-path="url(#p2c6bf8faa6)" d="M 117 122.3424 
L 842.4 122.3424 
" style="fill:none;stroke:#d8dcd6;stroke-dasharray:0.8,1.32;stroke-dashoffset:0;stroke-width:0.8;"/>
     </g>
     <g id="line2d_112">
      <g>
       <use style="stroke:#000000;stroke-width:0.6;" x="117" xlink:href="#m492abb5eb3" y="122.3424"/>
      </g>
     </g>
    </g>
    <g id="ytick_25">
     <g id="line2d_113">
      <path clip-path="url(#p2c6bf8faa6)" d="M 117 104.6016 
L 842.4 104.6016 
" style="fill:none;stroke:#d8dcd6;stroke-dasharray:0.8,1.32;stroke-dashoffset:0;stroke-width:0.8;"/>
     </g>
     <g id="line2d_114">
      <g>
       <use style="stroke:#000000;stroke-width:0.6;" x="117" xlink:href="#m492abb5eb3" y="104.6016"/>
      </g>
     </g>
    </g>
    <g id="ytick_26">
     <g id="line2d_115">
      <path clip-path="url(#p2c6bf8faa6)" d="M 117 86.8608 
L 842.4 86.8608 
" style="fill:none;stroke:#d8dcd6;stroke-dasharray:0.8,1.32;stroke-dashoffset:0;stroke-width:0.8;"/>
     </g>
     <g id="line2d_116">
      <g>
       <use style="stroke:#000000;stroke-width:0.6;" x="117" xlink:href="#m492abb5eb3" y="86.8608"/>
      </g>
     </g>
    </g>
    <g id="text_13">
     <!-- cases double every $n$ days (backw avg over 4 days) -->
     <defs>
      <path d="M 48.78125 52.59375 
L 48.78125 44.1875 
Q 44.96875 46.296875 41.140625 47.34375 
Q 37.3125 48.390625 33.40625 48.390625 
Q 24.65625 48.390625 19.8125 42.84375 
Q 14.984375 37.3125 14.984375 27.296875 
Q 14.984375 17.28125 19.8125 11.734375 
Q 24.65625 6.203125 33.40625 6.203125 
Q 37.3125 6.203125 41.140625 7.25 
Q 44.96875 8.296875 48.78125 10.40625 
L 48.78125 2.09375 
Q 45.015625 0.34375 40.984375 -0.53125 
Q 36.96875 -1.421875 32.421875 -1.421875 
Q 20.0625 -1.421875 12.78125 6.34375 
Q 5.515625 14.109375 5.515625 27.296875 
Q 5.515625 40.671875 12.859375 48.328125 
Q 20.21875 56 33.015625 56 
Q 37.15625 56 41.109375 55.140625 
Q 45.0625 54.296875 48.78125 52.59375 
z
" id="DejaVuSans-99"/>
      <path d="M 34.28125 27.484375 
Q 23.390625 27.484375 19.1875 25 
Q 14.984375 22.515625 14.984375 16.5 
Q 14.984375 11.71875 18.140625 8.90625 
Q 21.296875 6.109375 26.703125 6.109375 
Q 34.1875 6.109375 38.703125 11.40625 
Q 43.21875 16.703125 43.21875 25.484375 
L 43.21875 27.484375 
z
M 52.203125 31.203125 
L 52.203125 0 
L 43.21875 0 
L 43.21875 8.296875 
Q 40.140625 3.328125 35.546875 0.953125 
Q 30.953125 -1.421875 24.3125 -1.421875 
Q 15.921875 -1.421875 10.953125 3.296875 
Q 6 8.015625 6 15.921875 
Q 6 25.140625 12.171875 29.828125 
Q 18.359375 34.515625 30.609375 34.515625 
L 43.21875 34.515625 
L 43.21875 35.40625 
Q 43.21875 41.609375 39.140625 45 
Q 35.0625 48.390625 27.6875 48.390625 
Q 23 48.390625 18.546875 47.265625 
Q 14.109375 46.140625 10.015625 43.890625 
L 10.015625 52.203125 
Q 14.9375 54.109375 19.578125 55.046875 
Q 24.21875 56 28.609375 56 
Q 40.484375 56 46.34375 49.84375 
Q 52.203125 43.703125 52.203125 31.203125 
z
" id="DejaVuSans-97"/>
      <path d="M 44.28125 53.078125 
L 44.28125 44.578125 
Q 40.484375 46.53125 36.375 47.5 
Q 32.28125 48.484375 27.875 48.484375 
Q 21.1875 48.484375 17.84375 46.4375 
Q 14.5 44.390625 14.5 40.28125 
Q 14.5 37.15625 16.890625 35.375 
Q 19.28125 33.59375 26.515625 31.984375 
L 29.59375 31.296875 
Q 39.15625 29.25 43.1875 25.515625 
Q 47.21875 21.78125 47.21875 15.09375 
Q 47.21875 7.46875 41.1875 3.015625 
Q 35.15625 -1.421875 24.609375 -1.421875 
Q 20.21875 -1.421875 15.453125 -0.5625 
Q 10.6875 0.296875 5.421875 2 
L 5.421875 11.28125 
Q 10.40625 8.6875 15.234375 7.390625 
Q 20.0625 6.109375 24.8125 6.109375 
Q 31.15625 6.109375 34.5625 8.28125 
Q 37.984375 10.453125 37.984375 14.40625 
Q 37.984375 18.0625 35.515625 20.015625 
Q 33.0625 21.96875 24.703125 23.78125 
L 21.578125 24.515625 
Q 13.234375 26.265625 9.515625 29.90625 
Q 5.8125 33.546875 5.8125 39.890625 
Q 5.8125 47.609375 11.28125 51.796875 
Q 16.75 56 26.8125 56 
Q 31.78125 56 36.171875 55.265625 
Q 40.578125 54.546875 44.28125 53.078125 
z
" id="DejaVuSans-115"/>
      <path d="M 56.203125 29.59375 
L 56.203125 25.203125 
L 14.890625 25.203125 
Q 15.484375 15.921875 20.484375 11.0625 
Q 25.484375 6.203125 34.421875 6.203125 
Q 39.59375 6.203125 44.453125 7.46875 
Q 49.3125 8.734375 54.109375 11.28125 
L 54.109375 2.78125 
Q 49.265625 0.734375 44.1875 -0.34375 
Q 39.109375 -1.421875 33.890625 -1.421875 
Q 20.796875 -1.421875 13.15625 6.1875 
Q 5.515625 13.8125 5.515625 26.8125 
Q 5.515625 40.234375 12.765625 48.109375 
Q 20.015625 56 32.328125 56 
Q 43.359375 56 49.78125 48.890625 
Q 56.203125 41.796875 56.203125 29.59375 
z
M 47.21875 32.234375 
Q 47.125 39.59375 43.09375 43.984375 
Q 39.0625 48.390625 32.421875 48.390625 
Q 24.90625 48.390625 20.390625 44.140625 
Q 15.875 39.890625 15.1875 32.171875 
z
" id="DejaVuSans-101"/>
      <path id="DejaVuSans-32"/>
      <path d="M 45.40625 46.390625 
L 45.40625 75.984375 
L 54.390625 75.984375 
L 54.390625 0 
L 45.40625 0 
L 45.40625 8.203125 
Q 42.578125 3.328125 38.25 0.953125 
Q 33.9375 -1.421875 27.875 -1.421875 
Q 17.96875 -1.421875 11.734375 6.484375 
Q 5.515625 14.40625 5.515625 27.296875 
Q 5.515625 40.1875 11.734375 48.09375 
Q 17.96875 56 27.875 56 
Q 33.9375 56 38.25 53.625 
Q 42.578125 51.265625 45.40625 46.390625 
z
M 14.796875 27.296875 
Q 14.796875 17.390625 18.875 11.75 
Q 22.953125 6.109375 30.078125 6.109375 
Q 37.203125 6.109375 41.296875 11.75 
Q 45.40625 17.390625 45.40625 27.296875 
Q 45.40625 37.203125 41.296875 42.84375 
Q 37.203125 48.484375 30.078125 48.484375 
Q 22.953125 48.484375 18.875 42.84375 
Q 14.796875 37.203125 14.796875 27.296875 
z
" id="DejaVuSans-100"/>
      <path d="M 30.609375 48.390625 
Q 23.390625 48.390625 19.1875 42.75 
Q 14.984375 37.109375 14.984375 27.296875 
Q 14.984375 17.484375 19.15625 11.84375 
Q 23.34375 6.203125 30.609375 6.203125 
Q 37.796875 6.203125 41.984375 11.859375 
Q 46.1875 17.53125 46.1875 27.296875 
Q 46.1875 37.015625 41.984375 42.703125 
Q 37.796875 48.390625 30.609375 48.390625 
z
M 30.609375 56 
Q 42.328125 56 49.015625 48.375 
Q 55.71875 40.765625 55.71875 27.296875 
Q 55.71875 13.875 49.015625 6.21875 
Q 42.328125 -1.421875 30.609375 -1.421875 
Q 18.84375 -1.421875 12.171875 6.21875 
Q 5.515625 13.875 5.515625 27.296875 
Q 5.515625 40.765625 12.171875 48.375 
Q 18.84375 56 30.609375 56 
z
" id="DejaVuSans-111"/>
      <path d="M 8.5 21.578125 
L 8.5 54.6875 
L 17.484375 54.6875 
L 17.484375 21.921875 
Q 17.484375 14.15625 20.5 10.265625 
Q 23.53125 6.390625 29.59375 6.390625 
Q 36.859375 6.390625 41.078125 11.03125 
Q 45.3125 15.671875 45.3125 23.6875 
L 45.3125 54.6875 
L 54.296875 54.6875 
L 54.296875 0 
L 45.3125 0 
L 45.3125 8.40625 
Q 42.046875 3.421875 37.71875 1 
Q 33.40625 -1.421875 27.6875 -1.421875 
Q 18.265625 -1.421875 13.375 4.4375 
Q 8.5 10.296875 8.5 21.578125 
z
M 31.109375 56 
z
" id="DejaVuSans-117"/>
      <path d="M 48.6875 27.296875 
Q 48.6875 37.203125 44.609375 42.84375 
Q 40.53125 48.484375 33.40625 48.484375 
Q 26.265625 48.484375 22.1875 42.84375 
Q 18.109375 37.203125 18.109375 27.296875 
Q 18.109375 17.390625 22.1875 11.75 
Q 26.265625 6.109375 33.40625 6.109375 
Q 40.53125 6.109375 44.609375 11.75 
Q 48.6875 17.390625 48.6875 27.296875 
z
M 18.109375 46.390625 
Q 20.953125 51.265625 25.265625 53.625 
Q 29.59375 56 35.59375 56 
Q 45.5625 56 51.78125 48.09375 
Q 58.015625 40.1875 58.015625 27.296875 
Q 58.015625 14.40625 51.78125 6.484375 
Q 45.5625 -1.421875 35.59375 -1.421875 
Q 29.59375 -1.421875 25.265625 0.953125 
Q 20.953125 3.328125 18.109375 8.203125 
L 18.109375 0 
L 9.078125 0 
L 9.078125 75.984375 
L 18.109375 75.984375 
z
" id="DejaVuSans-98"/>
      <path d="M 9.421875 75.984375 
L 18.40625 75.984375 
L 18.40625 0 
L 9.421875 0 
z
" id="DejaVuSans-108"/>
      <path d="M 2.984375 54.6875 
L 12.5 54.6875 
L 29.59375 8.796875 
L 46.6875 54.6875 
L 56.203125 54.6875 
L 35.6875 0 
L 23.484375 0 
z
" id="DejaVuSans-118"/>
      <path d="M 41.109375 46.296875 
Q 39.59375 47.171875 37.8125 47.578125 
Q 36.03125 48 33.890625 48 
Q 26.265625 48 22.1875 43.046875 
Q 18.109375 38.09375 18.109375 28.8125 
L 18.109375 0 
L 9.078125 0 
L 9.078125 54.6875 
L 18.109375 54.6875 
L 18.109375 46.1875 
Q 20.953125 51.171875 25.484375 53.578125 
Q 30.03125 56 36.53125 56 
Q 37.453125 56 38.578125 55.875 
Q 39.703125 55.765625 41.0625 55.515625 
z
" id="DejaVuSans-114"/>
      <path d="M 32.171875 -5.078125 
Q 28.375 -14.84375 24.75 -17.8125 
Q 21.140625 -20.796875 15.09375 -20.796875 
L 7.90625 -20.796875 
L 7.90625 -13.28125 
L 13.1875 -13.28125 
Q 16.890625 -13.28125 18.9375 -11.515625 
Q 21 -9.765625 23.484375 -3.21875 
L 25.09375 0.875 
L 2.984375 54.6875 
L 12.5 54.6875 
L 29.59375 11.921875 
L 46.6875 54.6875 
L 56.203125 54.6875 
z
" id="DejaVuSans-121"/>
      <path d="M 55.71875 33.015625 
L 49.3125 0 
L 40.28125 0 
L 46.6875 32.671875 
Q 47.125 34.96875 47.359375 36.71875 
Q 47.609375 38.484375 47.609375 39.5 
Q 47.609375 43.609375 45.015625 45.890625 
Q 42.4375 48.1875 37.796875 48.1875 
Q 30.5625 48.1875 25.34375 43.375 
Q 20.125 38.578125 18.5 30.328125 
L 12.5 0 
L 3.515625 0 
L 14.109375 54.6875 
L 23.09375 54.6875 
L 21.296875 46.09375 
Q 25.046875 50.828125 30.3125 53.40625 
Q 35.59375 56 41.40625 56 
Q 48.640625 56 52.609375 52.09375 
Q 56.59375 48.1875 56.59375 41.109375 
Q 56.59375 39.359375 56.375 37.359375 
Q 56.15625 35.359375 55.71875 33.015625 
z
" id="DejaVuSans-Oblique-110"/>
      <path d="M 31 75.875 
Q 24.46875 64.65625 21.28125 53.65625 
Q 18.109375 42.671875 18.109375 31.390625 
Q 18.109375 20.125 21.3125 9.0625 
Q 24.515625 -2 31 -13.1875 
L 23.1875 -13.1875 
Q 15.875 -1.703125 12.234375 9.375 
Q 8.59375 20.453125 8.59375 31.390625 
Q 8.59375 42.28125 12.203125 53.3125 
Q 15.828125 64.359375 23.1875 75.875 
z
" id="DejaVuSans-40"/>
      <path d="M 9.078125 75.984375 
L 18.109375 75.984375 
L 18.109375 31.109375 
L 44.921875 54.6875 
L 56.390625 54.6875 
L 27.390625 29.109375 
L 57.625 0 
L 45.90625 0 
L 18.109375 26.703125 
L 18.109375 0 
L 9.078125 0 
z
" id="DejaVuSans-107"/>
      <path d="M 4.203125 54.6875 
L 13.1875 54.6875 
L 24.421875 12.015625 
L 35.59375 54.6875 
L 46.1875 54.6875 
L 57.421875 12.015625 
L 68.609375 54.6875 
L 77.59375 54.6875 
L 63.28125 0 
L 52.6875 0 
L 40.921875 44.828125 
L 29.109375 0 
L 18.5 0 
z
" id="DejaVuSans-119"/>
      <path d="M 45.40625 27.984375 
Q 45.40625 37.75 41.375 43.109375 
Q 37.359375 48.484375 30.078125 48.484375 
Q 22.859375 48.484375 18.828125 43.109375 
Q 14.796875 37.75 14.796875 27.984375 
Q 14.796875 18.265625 18.828125 12.890625 
Q 22.859375 7.515625 30.078125 7.515625 
Q 37.359375 7.515625 41.375 12.890625 
Q 45.40625 18.265625 45.40625 27.984375 
z
M 54.390625 6.78125 
Q 54.390625 -7.171875 48.1875 -13.984375 
Q 42 -20.796875 29.203125 -20.796875 
Q 24.46875 -20.796875 20.265625 -20.09375 
Q 16.0625 -19.390625 12.109375 -17.921875 
L 12.109375 -9.1875 
Q 16.0625 -11.328125 19.921875 -12.34375 
Q 23.78125 -13.375 27.78125 -13.375 
Q 36.625 -13.375 41.015625 -8.765625 
Q 45.40625 -4.15625 45.40625 5.171875 
L 45.40625 9.625 
Q 42.625 4.78125 38.28125 2.390625 
Q 33.9375 0 27.875 0 
Q 17.828125 0 11.671875 7.65625 
Q 5.515625 15.328125 5.515625 27.984375 
Q 5.515625 40.671875 11.671875 48.328125 
Q 17.828125 56 27.875 56 
Q 33.9375 56 38.28125 53.609375 
Q 42.625 51.21875 45.40625 46.390625 
L 45.40625 54.6875 
L 54.390625 54.6875 
z
" id="DejaVuSans-103"/>
      <path d="M 8.015625 75.875 
L 15.828125 75.875 
Q 23.140625 64.359375 26.78125 53.3125 
Q 30.421875 42.28125 30.421875 31.390625 
Q 30.421875 20.453125 26.78125 9.375 
Q 23.140625 -1.703125 15.828125 -13.1875 
L 8.015625 -13.1875 
Q 14.5 -2 17.703125 9.0625 
Q 20.90625 20.125 20.90625 31.390625 
Q 20.90625 42.671875 17.703125 53.65625 
Q 14.5 64.65625 8.015625 75.875 
z
" id="DejaVuSans-41"/>
     </defs>
     <g transform="translate(91.175 420.63)rotate(-90)scale(0.1 -0.1)">
      <use transform="translate(0 0.015625)" xlink:href="#DejaVuSans-99"/>
      <use transform="translate(54.980469 0.015625)" xlink:href="#DejaVuSans-97"/>
      <use transform="translate(116.259766 0.015625)" xlink:href="#DejaVuSans-115"/>
      <use transform="translate(168.359375 0.015625)" xlink:href="#DejaVuSans-101"/>
      <use transform="translate(229.882812 0.015625)" xlink:href="#DejaVuSans-115"/>
      <use transform="translate(281.982422 0.015625)" xlink:href="#DejaVuSans-32"/>
      <use transform="translate(313.769531 0.015625)" xlink:href="#DejaVuSans-100"/>
      <use transform="translate(377.246094 0.015625)" xlink:href="#DejaVuSans-111"/>
      <use transform="translate(438.427734 0.015625)" xlink:href="#DejaVuSans-117"/>
      <use transform="translate(501.806641 0.015625)" xlink:href="#DejaVuSans-98"/>
      <use transform="translate(565.283203 0.015625)" xlink:href="#DejaVuSans-108"/>
      <use transform="translate(593.066406 0.015625)" xlink:href="#DejaVuSans-101"/>
      <use transform="translate(654.589844 0.015625)" xlink:href="#DejaVuSans-32"/>
      <use transform="translate(686.376953 0.015625)" xlink:href="#DejaVuSans-101"/>
      <use transform="translate(747.900391 0.015625)" xlink:href="#DejaVuSans-118"/>
      <use transform="translate(807.080078 0.015625)" xlink:href="#DejaVuSans-101"/>
      <use transform="translate(868.603516 0.015625)" xlink:href="#DejaVuSans-114"/>
      <use transform="translate(909.716797 0.015625)" xlink:href="#DejaVuSans-121"/>
      <use transform="translate(968.896484 0.015625)" xlink:href="#DejaVuSans-32"/>
      <use transform="translate(1000.683594 0.015625)" xlink:href="#DejaVuSans-Oblique-110"/>
      <use transform="translate(1064.0625 0.015625)" xlink:href="#DejaVuSans-32"/>
      <use transform="translate(1095.849609 0.015625)" xlink:href="#DejaVuSans-100"/>
      <use transform="translate(1159.326172 0.015625)" xlink:href="#DejaVuSans-97"/>
      <use transform="translate(1220.605469 0.015625)" xlink:href="#DejaVuSans-121"/>
      <use transform="translate(1279.785156 0.015625)" xlink:href="#DejaVuSans-115"/>
      <use transform="translate(1331.884766 0.015625)" xlink:href="#DejaVuSans-32"/>
      <use transform="translate(1363.671875 0.015625)" xlink:href="#DejaVuSans-40"/>
      <use transform="translate(1402.685547 0.015625)" xlink:href="#DejaVuSans-98"/>
      <use transform="translate(1466.162109 0.015625)" xlink:href="#DejaVuSans-97"/>
      <use transform="translate(1527.441406 0.015625)" xlink:href="#DejaVuSans-99"/>
      <use transform="translate(1582.421875 0.015625)" xlink:href="#DejaVuSans-107"/>
      <use transform="translate(1640.332031 0.015625)" xlink:href="#DejaVuSans-119"/>
      <use transform="translate(1722.119141 0.015625)" xlink:href="#DejaVuSans-32"/>
      <use transform="translate(1753.90625 0.015625)" xlink:href="#DejaVuSans-97"/>
      <use transform="translate(1815.185547 0.015625)" xlink:href="#DejaVuSans-118"/>
      <use transform="translate(1874.365234 0.015625)" xlink:href="#DejaVuSans-103"/>
      <use transform="translate(1937.841797 0.015625)" xlink:href="#DejaVuSans-32"/>
      <use transform="translate(1969.628906 0.015625)" xlink:href="#DejaVuSans-111"/>
      <use transform="translate(2030.810547 0.015625)" xlink:href="#DejaVuSans-118"/>
      <use transform="translate(2089.990234 0.015625)" xlink:href="#DejaVuSans-101"/>
      <use transform="translate(2151.513672 0.015625)" xlink:href="#DejaVuSans-114"/>
      <use transform="translate(2192.626953 0.015625)" xlink:href="#DejaVuSans-32"/>
      <use transform="translate(2224.414062 0.015625)" xlink:href="#DejaVuSans-52"/>
      <use transform="translate(2288.037109 0.015625)" xlink:href="#DejaVuSans-32"/>
      <use transform="translate(2319.824219 0.015625)" xlink:href="#DejaVuSans-100"/>
      <use transform="translate(2383.300781 0.015625)" xlink:href="#DejaVuSans-97"/>
      <use transform="translate(2444.580078 0.015625)" xlink:href="#DejaVuSans-121"/>
      <use transform="translate(2503.759766 0.015625)" xlink:href="#DejaVuSans-115"/>
      <use transform="translate(2555.859375 0.015625)" xlink:href="#DejaVuSans-41"/>
     </g>
    </g>
   </g>
   <g id="line2d_117">
    <path clip-path="url(#p2c6bf8faa6)" d="M 149.972727 512.64 
L 161.149923 512.64 
L 172.327119 512.64 
L 183.504314 512.64 
L 194.68151 495.62214 
L 205.858706 497.162622 
L 217.035901 485.991809 
L 228.213097 489.263191 
L 239.390293 487.565329 
L 250.567488 488.74366 
L 261.744684 487.313376 
L 272.92188 476.597534 
L 284.099076 467.653374 
L 295.276271 462.659782 
L 306.453467 435.887019 
L 317.630663 459.067593 
L 328.807858 459.202172 
L 339.985054 452.197536 
L 351.16225 465.050479 
L 362.339445 447.358904 
L 373.516641 448.141928 
L 384.693837 449.217447 
L 395.871032 447.333779 
L 407.048228 447.633387 
L 418.225424 444.167604 
L 429.402619 437.987925 
L 440.579815 433.250444 
L 451.757011 426.380815 
L 462.934206 426.57235 
L 474.111402 430.127172 
L 485.288598 425.6018 
L 496.465794 419.70866 
L 507.642989 405.456166 
L 518.820185 383.804168 
L 529.997381 364.832825 
L 541.174576 349.930205 
L 552.351772 344.072108 
L 563.528968 335.720227 
L 574.706163 330.902251 
L 585.883359 313.273013 
L 597.060555 288.791061 
L 608.23775 280.883309 
L 619.414946 265.298335 
L 630.592142 273.544962 
L 641.769337 289.556835 
L 652.946533 288.053439 
L 664.123729 264.734915 
L 675.300924 224.702862 
L 686.47812 165.904508 
L 697.655316 140.390427 
L 708.832512 152.506978 
L 720.009707 164.543958 
L 731.186903 180.646529 
L 742.364099 144.886792 
L 753.541294 81.242988 
L 764.71849 10.031877 
L 767.42646 -1 
" style="fill:none;stroke:#1f77b4;stroke-linecap:square;stroke-width:1.5;"/>
    <defs>
     <path d="M 0 3 
C 0.795609 3 1.55874 2.683901 2.12132 2.12132 
C 2.683901 1.55874 3 0.795609 3 0 
C 3 -0.795609 2.683901 -1.55874 2.12132 -2.12132 
C 1.55874 -2.683901 0.795609 -3 0 -3 
C -0.795609 -3 -1.55874 -2.683901 -2.12132 -2.12132 
C -2.683901 -1.55874 -3 -0.795609 -3 0 
C -3 0.795609 -2.683901 1.55874 -2.12132 2.12132 
C -1.55874 2.683901 -0.795609 3 0 3 
z
" id="m6ec35eb5db" style="stroke:#1f77b4;"/>
    </defs>
    <g clip-path="url(#p2c6bf8faa6)">
     <use style="fill:#1f77b4;stroke:#1f77b4;" x="149.972727" xlink:href="#m6ec35eb5db" y="512.64"/>
     <use style="fill:#1f77b4;stroke:#1f77b4;" x="161.149923" xlink:href="#m6ec35eb5db" y="512.64"/>
     <use style="fill:#1f77b4;stroke:#1f77b4;" x="172.327119" xlink:href="#m6ec35eb5db" y="512.64"/>
     <use style="fill:#1f77b4;stroke:#1f77b4;" x="183.504314" xlink:href="#m6ec35eb5db" y="512.64"/>
     <use style="fill:#1f77b4;stroke:#1f77b4;" x="194.68151" xlink:href="#m6ec35eb5db" y="495.62214"/>
     <use style="fill:#1f77b4;stroke:#1f77b4;" x="205.858706" xlink:href="#m6ec35eb5db" y="497.162622"/>
     <use style="fill:#1f77b4;stroke:#1f77b4;" x="217.035901" xlink:href="#m6ec35eb5db" y="485.991809"/>
     <use style="fill:#1f77b4;stroke:#1f77b4;" x="228.213097" xlink:href="#m6ec35eb5db" y="489.263191"/>
     <use style="fill:#1f77b4;stroke:#1f77b4;" x="239.390293" xlink:href="#m6ec35eb5db" y="487.565329"/>
     <use style="fill:#1f77b4;stroke:#1f77b4;" x="250.567488" xlink:href="#m6ec35eb5db" y="488.74366"/>
     <use style="fill:#1f77b4;stroke:#1f77b4;" x="261.744684" xlink:href="#m6ec35eb5db" y="487.313376"/>
     <use style="fill:#1f77b4;stroke:#1f77b4;" x="272.92188" xlink:href="#m6ec35eb5db" y="476.597534"/>
     <use style="fill:#1f77b4;stroke:#1f77b4;" x="284.099076" xlink:href="#m6ec35eb5db" y="467.653374"/>
     <use style="fill:#1f77b4;stroke:#1f77b4;" x="295.276271" xlink:href="#m6ec35eb5db" y="462.659782"/>
     <use style="fill:#1f77b4;stroke:#1f77b4;" x="306.453467" xlink:href="#m6ec35eb5db" y="435.887019"/>
     <use style="fill:#1f77b4;stroke:#1f77b4;" x="317.630663" xlink:href="#m6ec35eb5db" y="459.067593"/>
     <use style="fill:#1f77b4;stroke:#1f77b4;" x="328.807858" xlink:href="#m6ec35eb5db" y="459.202172"/>
     <use style="fill:#1f77b4;stroke:#1f77b4;" x="339.985054" xlink:href="#m6ec35eb5db" y="452.197536"/>
     <use style="fill:#1f77b4;stroke:#1f77b4;" x="351.16225" xlink:href="#m6ec35eb5db" y="465.050479"/>
     <use style="fill:#1f77b4;stroke:#1f77b4;" x="362.339445" xlink:href="#m6ec35eb5db" y="447.358904"/>
     <use style="fill:#1f77b4;stroke:#1f77b4;" x="373.516641" xlink:href="#m6ec35eb5db" y="448.141928"/>
     <use style="fill:#1f77b4;stroke:#1f77b4;" x="384.693837" xlink:href="#m6ec35eb5db" y="449.217447"/>
     <use style="fill:#1f77b4;stroke:#1f77b4;" x="395.871032" xlink:href="#m6ec35eb5db" y="447.333779"/>
     <use style="fill:#1f77b4;stroke:#1f77b4;" x="407.048228" xlink:href="#m6ec35eb5db" y="447.633387"/>
     <use style="fill:#1f77b4;stroke:#1f77b4;" x="418.225424" xlink:href="#m6ec35eb5db" y="444.167604"/>
     <use style="fill:#1f77b4;stroke:#1f77b4;" x="429.402619" xlink:href="#m6ec35eb5db" y="437.987925"/>
     <use style="fill:#1f77b4;stroke:#1f77b4;" x="440.579815" xlink:href="#m6ec35eb5db" y="433.250444"/>
     <use style="fill:#1f77b4;stroke:#1f77b4;" x="451.757011" xlink:href="#m6ec35eb5db" y="426.380815"/>
     <use style="fill:#1f77b4;stroke:#1f77b4;" x="462.934206" xlink:href="#m6ec35eb5db" y="426.57235"/>
     <use style="fill:#1f77b4;stroke:#1f77b4;" x="474.111402" xlink:href="#m6ec35eb5db" y="430.127172"/>
     <use style="fill:#1f77b4;stroke:#1f77b4;" x="485.288598" xlink:href="#m6ec35eb5db" y="425.6018"/>
     <use style="fill:#1f77b4;stroke:#1f77b4;" x="496.465794" xlink:href="#m6ec35eb5db" y="419.70866"/>
     <use style="fill:#1f77b4;stroke:#1f77b4;" x="507.642989" xlink:href="#m6ec35eb5db" y="405.456166"/>
     <use style="fill:#1f77b4;stroke:#1f77b4;" x="518.820185" xlink:href="#m6ec35eb5db" y="383.804168"/>
     <use style="fill:#1f77b4;stroke:#1f77b4;" x="529.997381" xlink:href="#m6ec35eb5db" y="364.832825"/>
     <use style="fill:#1f77b4;stroke:#1f77b4;" x="541.174576" xlink:href="#m6ec35eb5db" y="349.930205"/>
     <use style="fill:#1f77b4;stroke:#1f77b4;" x="552.351772" xlink:href="#m6ec35eb5db" y="344.072108"/>
     <use style="fill:#1f77b4;stroke:#1f77b4;" x="563.528968" xlink:href="#m6ec35eb5db" y="335.720227"/>
     <use style="fill:#1f77b4;stroke:#1f77b4;" x="574.706163" xlink:href="#m6ec35eb5db" y="330.902251"/>
     <use style="fill:#1f77b4;stroke:#1f77b4;" x="585.883359" xlink:href="#m6ec35eb5db" y="313.273013"/>
     <use style="fill:#1f77b4;stroke:#1f77b4;" x="597.060555" xlink:href="#m6ec35eb5db" y="288.791061"/>
     <use style="fill:#1f77b4;stroke:#1f77b4;" x="608.23775" xlink:href="#m6ec35eb5db" y="280.883309"/>
     <use style="fill:#1f77b4;stroke:#1f77b4;" x="619.414946" xlink:href="#m6ec35eb5db" y="265.298335"/>
     <use style="fill:#1f77b4;stroke:#1f77b4;" x="630.592142" xlink:href="#m6ec35eb5db" y="273.544962"/>
     <use style="fill:#1f77b4;stroke:#1f77b4;" x="641.769337" xlink:href="#m6ec35eb5db" y="289.556835"/>
     <use style="fill:#1f77b4;stroke:#1f77b4;" x="652.946533" xlink:href="#m6ec35eb5db" y="288.053439"/>
     <use style="fill:#1f77b4;stroke:#1f77b4;" x="664.123729" xlink:href="#m6ec35eb5db" y="264.734915"/>
     <use style="fill:#1f77b4;stroke:#1f77b4;" x="675.300924" xlink:href="#m6ec35eb5db" y="224.702862"/>
     <use style="fill:#1f77b4;stroke:#1f77b4;" x="686.47812" xlink:href="#m6ec35eb5db" y="165.904508"/>
     <use style="fill:#1f77b4;stroke:#1f77b4;" x="697.655316" xlink:href="#m6ec35eb5db" y="140.390427"/>
     <use style="fill:#1f77b4;stroke:#1f77b4;" x="708.832512" xlink:href="#m6ec35eb5db" y="152.506978"/>
     <use style="fill:#1f77b4;stroke:#1f77b4;" x="720.009707" xlink:href="#m6ec35eb5db" y="164.543958"/>
     <use style="fill:#1f77b4;stroke:#1f77b4;" x="731.186903" xlink:href="#m6ec35eb5db" y="180.646529"/>
     <use style="fill:#1f77b4;stroke:#1f77b4;" x="742.364099" xlink:href="#m6ec35eb5db" y="144.886792"/>
     <use style="fill:#1f77b4;stroke:#1f77b4;" x="753.541294" xlink:href="#m6ec35eb5db" y="81.242988"/>
     <use style="fill:#1f77b4;stroke:#1f77b4;" x="764.71849" xlink:href="#m6ec35eb5db" y="10.031877"/>
     <use style="fill:#1f77b4;stroke:#1f77b4;" x="767.42646" xlink:href="#m6ec35eb5db" y="-1"/>
    </g>
   </g>
   <g id="patch_3">
    <path d="M 117 512.64 
L 117 69.12 
" style="fill:none;stroke:#000000;stroke-linecap:square;stroke-linejoin:miter;stroke-width:0.8;"/>
   </g>
   <g id="patch_4">
    <path d="M 842.4 512.64 
L 842.4 69.12 
" style="fill:none;stroke:#000000;stroke-linecap:square;stroke-linejoin:miter;stroke-width:0.8;"/>
   </g>
   <g id="patch_5">
    <path d="M 117 512.64 
L 842.4 512.64 
" style="fill:none;stroke:#000000;stroke-linecap:square;stroke-linejoin:miter;stroke-width:0.8;"/>
   </g>
   <g id="patch_6">
    <path d="M 117 69.12 
L 842.4 69.12 
" style="fill:none;stroke:#000000;stroke-linecap:square;stroke-linejoin:miter;stroke-width:0.8;"/>
   </g>
   <g id="text_14">
    <!-- Confirmed cases in Netherlands double every $n$ days (2020-01-22..2020-04-26) -->
    <defs>
     <path d="M 64.40625 67.28125 
L 64.40625 56.890625 
Q 59.421875 61.53125 53.78125 63.8125 
Q 48.140625 66.109375 41.796875 66.109375 
Q 29.296875 66.109375 22.65625 58.46875 
Q 16.015625 50.828125 16.015625 36.375 
Q 16.015625 21.96875 22.65625 14.328125 
Q 29.296875 6.6875 41.796875 6.6875 
Q 48.140625 6.6875 53.78125 8.984375 
Q 59.421875 11.28125 64.40625 15.921875 
L 64.40625 5.609375 
Q 59.234375 2.09375 53.4375 0.328125 
Q 47.65625 -1.421875 41.21875 -1.421875 
Q 24.65625 -1.421875 15.125 8.703125 
Q 5.609375 18.84375 5.609375 36.375 
Q 5.609375 53.953125 15.125 64.078125 
Q 24.65625 74.21875 41.21875 74.21875 
Q 47.75 74.21875 53.53125 72.484375 
Q 59.328125 70.75 64.40625 67.28125 
z
" id="DejaVuSans-67"/>
     <path d="M 54.890625 33.015625 
L 54.890625 0 
L 45.90625 0 
L 45.90625 32.71875 
Q 45.90625 40.484375 42.875 44.328125 
Q 39.84375 48.1875 33.796875 48.1875 
Q 26.515625 48.1875 22.3125 43.546875 
Q 18.109375 38.921875 18.109375 30.90625 
L 18.109375 0 
L 9.078125 0 
L 9.078125 54.6875 
L 18.109375 54.6875 
L 18.109375 46.1875 
Q 21.34375 51.125 25.703125 53.5625 
Q 30.078125 56 35.796875 56 
Q 45.21875 56 50.046875 50.171875 
Q 54.890625 44.34375 54.890625 33.015625 
z
" id="DejaVuSans-110"/>
     <path d="M 37.109375 75.984375 
L 37.109375 68.5 
L 28.515625 68.5 
Q 23.6875 68.5 21.796875 66.546875 
Q 19.921875 64.59375 19.921875 59.515625 
L 19.921875 54.6875 
L 34.71875 54.6875 
L 34.71875 47.703125 
L 19.921875 47.703125 
L 19.921875 0 
L 10.890625 0 
L 10.890625 47.703125 
L 2.296875 47.703125 
L 2.296875 54.6875 
L 10.890625 54.6875 
L 10.890625 58.5 
Q 10.890625 67.625 15.140625 71.796875 
Q 19.390625 75.984375 28.609375 75.984375 
z
" id="DejaVuSans-102"/>
     <path d="M 9.421875 54.6875 
L 18.40625 54.6875 
L 18.40625 0 
L 9.421875 0 
z
M 9.421875 75.984375 
L 18.40625 75.984375 
L 18.40625 64.59375 
L 9.421875 64.59375 
z
" id="DejaVuSans-105"/>
     <path d="M 52 44.1875 
Q 55.375 50.25 60.0625 53.125 
Q 64.75 56 71.09375 56 
Q 79.640625 56 84.28125 50.015625 
Q 88.921875 44.046875 88.921875 33.015625 
L 88.921875 0 
L 79.890625 0 
L 79.890625 32.71875 
Q 79.890625 40.578125 77.09375 44.375 
Q 74.3125 48.1875 68.609375 48.1875 
Q 61.625 48.1875 57.5625 43.546875 
Q 53.515625 38.921875 53.515625 30.90625 
L 53.515625 0 
L 44.484375 0 
L 44.484375 32.71875 
Q 44.484375 40.625 41.703125 44.40625 
Q 38.921875 48.1875 33.109375 48.1875 
Q 26.21875 48.1875 22.15625 43.53125 
Q 18.109375 38.875 18.109375 30.90625 
L 18.109375 0 
L 9.078125 0 
L 9.078125 54.6875 
L 18.109375 54.6875 
L 18.109375 46.1875 
Q 21.1875 51.21875 25.484375 53.609375 
Q 29.78125 56 35.6875 56 
Q 41.65625 56 45.828125 52.96875 
Q 50 49.953125 52 44.1875 
z
" id="DejaVuSans-109"/>
     <path d="M 9.8125 72.90625 
L 23.09375 72.90625 
L 55.421875 11.921875 
L 55.421875 72.90625 
L 64.984375 72.90625 
L 64.984375 0 
L 51.703125 0 
L 19.390625 60.984375 
L 19.390625 0 
L 9.8125 0 
z
" id="DejaVuSans-78"/>
     <path d="M 18.3125 70.21875 
L 18.3125 54.6875 
L 36.8125 54.6875 
L 36.8125 47.703125 
L 18.3125 47.703125 
L 18.3125 18.015625 
Q 18.3125 11.328125 20.140625 9.421875 
Q 21.96875 7.515625 27.59375 7.515625 
L 36.8125 7.515625 
L 36.8125 0 
L 27.59375 0 
Q 17.1875 0 13.234375 3.875 
Q 9.28125 7.765625 9.28125 18.015625 
L 9.28125 47.703125 
L 2.6875 47.703125 
L 2.6875 54.6875 
L 9.28125 54.6875 
L 9.28125 70.21875 
z
" id="DejaVuSans-116"/>
     <path d="M 54.890625 33.015625 
L 54.890625 0 
L 45.90625 0 
L 45.90625 32.71875 
Q 45.90625 40.484375 42.875 44.328125 
Q 39.84375 48.1875 33.796875 48.1875 
Q 26.515625 48.1875 22.3125 43.546875 
Q 18.109375 38.921875 18.109375 30.90625 
L 18.109375 0 
L 9.078125 0 
L 9.078125 75.984375 
L 18.109375 75.984375 
L 18.109375 46.1875 
Q 21.34375 51.125 25.703125 53.5625 
Q 30.078125 56 35.796875 56 
Q 45.21875 56 50.046875 50.171875 
Q 54.890625 44.34375 54.890625 33.015625 
z
" id="DejaVuSans-104"/>
     <path d="M 10.6875 12.40625 
L 21 12.40625 
L 21 0 
L 10.6875 0 
z
" id="DejaVuSans-46"/>
     <path d="M 33.015625 40.375 
Q 26.375 40.375 22.484375 35.828125 
Q 18.609375 31.296875 18.609375 23.390625 
Q 18.609375 15.53125 22.484375 10.953125 
Q 26.375 6.390625 33.015625 6.390625 
Q 39.65625 6.390625 43.53125 10.953125 
Q 47.40625 15.53125 47.40625 23.390625 
Q 47.40625 31.296875 43.53125 35.828125 
Q 39.65625 40.375 33.015625 40.375 
z
M 52.59375 71.296875 
L 52.59375 62.3125 
Q 48.875 64.0625 45.09375 64.984375 
Q 41.3125 65.921875 37.59375 65.921875 
Q 27.828125 65.921875 22.671875 59.328125 
Q 17.53125 52.734375 16.796875 39.40625 
Q 19.671875 43.65625 24.015625 45.921875 
Q 28.375 48.1875 33.59375 48.1875 
Q 44.578125 48.1875 50.953125 41.515625 
Q 57.328125 34.859375 57.328125 23.390625 
Q 57.328125 12.15625 50.6875 5.359375 
Q 44.046875 -1.421875 33.015625 -1.421875 
Q 20.359375 -1.421875 13.671875 8.265625 
Q 6.984375 17.96875 6.984375 36.375 
Q 6.984375 53.65625 15.1875 63.9375 
Q 23.390625 74.21875 37.203125 74.21875 
Q 40.921875 74.21875 44.703125 73.484375 
Q 48.484375 72.75 52.59375 71.296875 
z
" id="DejaVuSans-54"/>
    </defs>
    <g transform="translate(240.9 63.12)scale(0.12 -0.12)">
     <use transform="translate(0 0.015625)" xlink:href="#DejaVuSans-67"/>
     <use transform="translate(69.824219 0.015625)" xlink:href="#DejaVuSans-111"/>
     <use transform="translate(131.005859 0.015625)" xlink:href="#DejaVuSans-110"/>
     <use transform="translate(194.384766 0.015625)" xlink:href="#DejaVuSans-102"/>
     <use transform="translate(229.589844 0.015625)" xlink:href="#DejaVuSans-105"/>
     <use transform="translate(257.373047 0.015625)" xlink:href="#DejaVuSans-114"/>
     <use transform="translate(298.486328 0.015625)" xlink:href="#DejaVuSans-109"/>
     <use transform="translate(395.898438 0.015625)" xlink:href="#DejaVuSans-101"/>
     <use transform="translate(457.421875 0.015625)" xlink:href="#DejaVuSans-100"/>
     <use transform="translate(520.898438 0.015625)" xlink:href="#DejaVuSans-32"/>
     <use transform="translate(552.685547 0.015625)" xlink:href="#DejaVuSans-99"/>
     <use transform="translate(607.666016 0.015625)" xlink:href="#DejaVuSans-97"/>
     <use transform="translate(668.945312 0.015625)" xlink:href="#DejaVuSans-115"/>
     <use transform="translate(721.044922 0.015625)" xlink:href="#DejaVuSans-101"/>
     <use transform="translate(782.568359 0.015625)" xlink:href="#DejaVuSans-115"/>
     <use transform="translate(834.667969 0.015625)" xlink:href="#DejaVuSans-32"/>
     <use transform="translate(866.455078 0.015625)" xlink:href="#DejaVuSans-105"/>
     <use transform="translate(894.238281 0.015625)" xlink:href="#DejaVuSans-110"/>
     <use transform="translate(957.617188 0.015625)" xlink:href="#DejaVuSans-32"/>
     <use transform="translate(989.404297 0.015625)" xlink:href="#DejaVuSans-78"/>
     <use transform="translate(1064.208984 0.015625)" xlink:href="#DejaVuSans-101"/>
     <use transform="translate(1125.732422 0.015625)" xlink:href="#DejaVuSans-116"/>
     <use transform="translate(1164.941406 0.015625)" xlink:href="#DejaVuSans-104"/>
     <use transform="translate(1228.320312 0.015625)" xlink:href="#DejaVuSans-101"/>
     <use transform="translate(1289.84375 0.015625)" xlink:href="#DejaVuSans-114"/>
     <use transform="translate(1330.957031 0.015625)" xlink:href="#DejaVuSans-108"/>
     <use transform="translate(1358.740234 0.015625)" xlink:href="#DejaVuSans-97"/>
     <use transform="translate(1420.019531 0.015625)" xlink:href="#DejaVuSans-110"/>
     <use transform="translate(1483.398438 0.015625)" xlink:href="#DejaVuSans-100"/>
     <use transform="translate(1546.875 0.015625)" xlink:href="#DejaVuSans-115"/>
     <use transform="translate(1598.974609 0.015625)" xlink:href="#DejaVuSans-32"/>
     <use transform="translate(1630.761719 0.015625)" xlink:href="#DejaVuSans-100"/>
     <use transform="translate(1694.238281 0.015625)" xlink:href="#DejaVuSans-111"/>
     <use transform="translate(1755.419922 0.015625)" xlink:href="#DejaVuSans-117"/>
     <use transform="translate(1818.798828 0.015625)" xlink:href="#DejaVuSans-98"/>
     <use transform="translate(1882.275391 0.015625)" xlink:href="#DejaVuSans-108"/>
     <use transform="translate(1910.058594 0.015625)" xlink:href="#DejaVuSans-101"/>
     <use transform="translate(1971.582031 0.015625)" xlink:href="#DejaVuSans-32"/>
     <use transform="translate(2003.369141 0.015625)" xlink:href="#DejaVuSans-101"/>
     <use transform="translate(2064.892578 0.015625)" xlink:href="#DejaVuSans-118"/>
     <use transform="translate(2124.072266 0.015625)" xlink:href="#DejaVuSans-101"/>
     <use transform="translate(2185.595703 0.015625)" xlink:href="#DejaVuSans-114"/>
     <use transform="translate(2226.708984 0.015625)" xlink:href="#DejaVuSans-121"/>
     <use transform="translate(2285.888672 0.015625)" xlink:href="#DejaVuSans-32"/>
     <use transform="translate(2317.675781 0.015625)" xlink:href="#DejaVuSans-Oblique-110"/>
     <use transform="translate(2381.054688 0.015625)" xlink:href="#DejaVuSans-32"/>
     <use transform="translate(2412.841797 0.015625)" xlink:href="#DejaVuSans-100"/>
     <use transform="translate(2476.318359 0.015625)" xlink:href="#DejaVuSans-97"/>
     <use transform="translate(2537.597656 0.015625)" xlink:href="#DejaVuSans-121"/>
     <use transform="translate(2596.777344 0.015625)" xlink:href="#DejaVuSans-115"/>
     <use transform="translate(2648.876953 0.015625)" xlink:href="#DejaVuSans-32"/>
     <use transform="translate(2680.664062 0.015625)" xlink:href="#DejaVuSans-40"/>
     <use transform="translate(2719.677734 0.015625)" xlink:href="#DejaVuSans-50"/>
     <use transform="translate(2783.300781 0.015625)" xlink:href="#DejaVuSans-48"/>
     <use transform="translate(2846.923828 0.015625)" xlink:href="#DejaVuSans-50"/>
     <use transform="translate(2910.546875 0.015625)" xlink:href="#DejaVuSans-48"/>
     <use transform="translate(2974.169922 0.015625)" xlink:href="#DejaVuSans-45"/>
     <use transform="translate(3010.253906 0.015625)" xlink:href="#DejaVuSans-48"/>
     <use transform="translate(3073.876953 0.015625)" xlink:href="#DejaVuSans-49"/>
     <use transform="translate(3137.5 0.015625)" xlink:href="#DejaVuSans-45"/>
     <use transform="translate(3173.583984 0.015625)" xlink:href="#DejaVuSans-50"/>
     <use transform="translate(3237.207031 0.015625)" xlink:href="#DejaVuSans-50"/>
     <use transform="translate(3300.830078 0.015625)" xlink:href="#DejaVuSans-46"/>
     <use transform="translate(3332.617188 0.015625)" xlink:href="#DejaVuSans-46"/>
     <use transform="translate(3358.904297 0.015625)" xlink:href="#DejaVuSans-50"/>
     <use transform="translate(3422.527344 0.015625)" xlink:href="#DejaVuSans-48"/>
     <use transform="translate(3486.150391 0.015625)" xlink:href="#DejaVuSans-50"/>
     <use transform="translate(3549.773438 0.015625)" xlink:href="#DejaVuSans-48"/>
     <use transform="translate(3613.396484 0.015625)" xlink:href="#DejaVuSans-45"/>
     <use transform="translate(3649.480469 0.015625)" xlink:href="#DejaVuSans-48"/>
     <use transform="translate(3713.103516 0.015625)" xlink:href="#DejaVuSans-52"/>
     <use transform="translate(3776.726562 0.015625)" xlink:href="#DejaVuSans-45"/>
     <use transform="translate(3812.810547 0.015625)" xlink:href="#DejaVuSans-50"/>
     <use transform="translate(3876.433594 0.015625)" xlink:href="#DejaVuSans-54"/>
     <use transform="translate(3940.056641 0.015625)" xlink:href="#DejaVuSans-41"/>
    </g>
   </g>
   <g id="legend_1">
    <g id="patch_7">
     <path d="M 770.254687 91.798125 
L 835.4 91.798125 
Q 837.4 91.798125 837.4 89.798125 
L 837.4 76.12 
Q 837.4 74.12 835.4 74.12 
L 770.254687 74.12 
Q 768.254687 74.12 768.254687 76.12 
L 768.254687 89.798125 
Q 768.254687 91.798125 770.254687 91.798125 
z
" style="fill:#ffffff;opacity:0.8;stroke:#cccccc;stroke-linejoin:miter;"/>
    </g>
    <g id="line2d_118">
     <path d="M 772.254687 82.218438 
L 792.254687 82.218438 
" style="fill:none;stroke:#1f77b4;stroke-linecap:square;stroke-width:1.5;"/>
    </g>
    <g id="line2d_119">
     <g>
      <use style="fill:#1f77b4;stroke:#1f77b4;" x="782.254687" xlink:href="#m6ec35eb5db" y="82.218438"/>
     </g>
    </g>
    <g id="text_15">
     <!-- 4 days -->
     <g transform="translate(800.254687 85.718438)scale(0.1 -0.1)">
      <use xlink:href="#DejaVuSans-52"/>
      <use x="63.623047" xlink:href="#DejaVuSans-32"/>
      <use x="95.410156" xlink:href="#DejaVuSans-100"/>
      <use x="158.886719" xlink:href="#DejaVuSans-97"/>
      <use x="220.166016" xlink:href="#DejaVuSans-121"/>
      <use x="279.345703" xlink:href="#DejaVuSans-115"/>
     </g>
    </g>
   </g>
  </g>
 </g>
 <defs>
  <clipPath id="p2c6bf8faa6">
   <rect height="443.52" width="725.4" x="117" y="69.12"/>
  </clipPath>
 </defs>
</svg>
