<?xml version="1.0" encoding="utf-8" standalone="no"?>
<!DOCTYPE svg PUBLIC "-//W3C//DTD SVG 1.1//EN"
  "http://www.w3.org/Graphics/SVG/1.1/DTD/svg11.dtd">
<!-- Created with matplotlib (https://matplotlib.org/) -->
<svg height="576pt" version="1.1" viewBox="0 0 936 576" width="936pt" xmlns="http://www.w3.org/2000/svg" xmlns:xlink="http://www.w3.org/1999/xlink">
 <metadata>
  <rdf:RDF xmlns:cc="http://creativecommons.org/ns#" xmlns:dc="http://purl.org/dc/elements/1.1/" xmlns:rdf="http://www.w3.org/1999/02/22-rdf-syntax-ns#">
   <cc:Work>
    <dc:type rdf:resource="http://purl.org/dc/dcmitype/StillImage"/>
    <dc:date>2020-11-19T10:00:05.870860</dc:date>
    <dc:format>image/svg+xml</dc:format>
    <dc:creator>
     <cc:Agent>
      <dc:title>Matplotlib v3.3.3, https://matplotlib.org/</dc:title>
     </cc:Agent>
    </dc:creator>
   </cc:Work>
  </rdf:RDF>
 </metadata>
 <defs>
  <style type="text/css">*{stroke-linecap:butt;stroke-linejoin:round;}</style>
 </defs>
 <g id="figure_1">
  <g id="patch_1">
   <path d="M 0 576 
L 936 576 
L 936 0 
L 0 0 
z
" style="fill:#ffffff;"/>
  </g>
  <g id="axes_1">
   <g id="patch_2">
    <path d="M 117 512.64 
L 842.4 512.64 
L 842.4 69.12 
L 117 69.12 
z
" style="fill:#ffffff;"/>
   </g>
   <g id="matplotlib.axis_1">
    <g id="xtick_1">
     <g id="line2d_1">
      <path clip-path="url(#p04181052d6)" d="M 141.091185 512.64 
L 141.091185 69.12 
" style="fill:none;stroke:#d8dcd6;stroke-dasharray:0.8,1.32;stroke-dashoffset:0;stroke-width:0.8;"/>
     </g>
     <g id="line2d_2">
      <defs>
       <path d="M 0 0 
L 0 3.5 
" id="m9b679ccfd2" style="stroke:#000000;stroke-width:0.8;"/>
      </defs>
      <g>
       <use style="stroke:#000000;stroke-width:0.8;" x="141.091185" xlink:href="#m9b679ccfd2" y="512.64"/>
      </g>
     </g>
     <g id="text_1">
      <!-- 2020-01-22 -->
      <g transform="translate(95.235236 562.816745)rotate(-40)scale(0.1 -0.1)">
       <defs>
        <path d="M 19.1875 8.296875 
L 53.609375 8.296875 
L 53.609375 0 
L 7.328125 0 
L 7.328125 8.296875 
Q 12.9375 14.109375 22.625 23.890625 
Q 32.328125 33.6875 34.8125 36.53125 
Q 39.546875 41.84375 41.421875 45.53125 
Q 43.3125 49.21875 43.3125 52.78125 
Q 43.3125 58.59375 39.234375 62.25 
Q 35.15625 65.921875 28.609375 65.921875 
Q 23.96875 65.921875 18.8125 64.3125 
Q 13.671875 62.703125 7.8125 59.421875 
L 7.8125 69.390625 
Q 13.765625 71.78125 18.9375 73 
Q 24.125 74.21875 28.421875 74.21875 
Q 39.75 74.21875 46.484375 68.546875 
Q 53.21875 62.890625 53.21875 53.421875 
Q 53.21875 48.921875 51.53125 44.890625 
Q 49.859375 40.875 45.40625 35.40625 
Q 44.1875 33.984375 37.640625 27.21875 
Q 31.109375 20.453125 19.1875 8.296875 
z
" id="DejaVuSans-50"/>
        <path d="M 31.78125 66.40625 
Q 24.171875 66.40625 20.328125 58.90625 
Q 16.5 51.421875 16.5 36.375 
Q 16.5 21.390625 20.328125 13.890625 
Q 24.171875 6.390625 31.78125 6.390625 
Q 39.453125 6.390625 43.28125 13.890625 
Q 47.125 21.390625 47.125 36.375 
Q 47.125 51.421875 43.28125 58.90625 
Q 39.453125 66.40625 31.78125 66.40625 
z
M 31.78125 74.21875 
Q 44.046875 74.21875 50.515625 64.515625 
Q 56.984375 54.828125 56.984375 36.375 
Q 56.984375 17.96875 50.515625 8.265625 
Q 44.046875 -1.421875 31.78125 -1.421875 
Q 19.53125 -1.421875 13.0625 8.265625 
Q 6.59375 17.96875 6.59375 36.375 
Q 6.59375 54.828125 13.0625 64.515625 
Q 19.53125 74.21875 31.78125 74.21875 
z
" id="DejaVuSans-48"/>
        <path d="M 4.890625 31.390625 
L 31.203125 31.390625 
L 31.203125 23.390625 
L 4.890625 23.390625 
z
" id="DejaVuSans-45"/>
        <path d="M 12.40625 8.296875 
L 28.515625 8.296875 
L 28.515625 63.921875 
L 10.984375 60.40625 
L 10.984375 69.390625 
L 28.421875 72.90625 
L 38.28125 72.90625 
L 38.28125 8.296875 
L 54.390625 8.296875 
L 54.390625 0 
L 12.40625 0 
z
" id="DejaVuSans-49"/>
       </defs>
       <use xlink:href="#DejaVuSans-50"/>
       <use x="63.623047" xlink:href="#DejaVuSans-48"/>
       <use x="127.246094" xlink:href="#DejaVuSans-50"/>
       <use x="190.869141" xlink:href="#DejaVuSans-48"/>
       <use x="254.492188" xlink:href="#DejaVuSans-45"/>
       <use x="290.576172" xlink:href="#DejaVuSans-48"/>
       <use x="354.199219" xlink:href="#DejaVuSans-49"/>
       <use x="417.822266" xlink:href="#DejaVuSans-45"/>
       <use x="453.90625" xlink:href="#DejaVuSans-50"/>
       <use x="517.529297" xlink:href="#DejaVuSans-50"/>
      </g>
     </g>
    </g>
    <g id="xtick_2">
     <g id="line2d_3">
      <path clip-path="url(#p04181052d6)" d="M 252.110468 512.64 
L 252.110468 69.12 
" style="fill:none;stroke:#d8dcd6;stroke-dasharray:0.8,1.32;stroke-dashoffset:0;stroke-width:0.8;"/>
     </g>
     <g id="line2d_4">
      <g>
       <use style="stroke:#000000;stroke-width:0.8;" x="252.110468" xlink:href="#m9b679ccfd2" y="512.64"/>
      </g>
     </g>
     <g id="text_2">
      <!-- 2020-03-12 -->
      <g transform="translate(206.254519 562.816745)rotate(-40)scale(0.1 -0.1)">
       <defs>
        <path d="M 40.578125 39.3125 
Q 47.65625 37.796875 51.625 33 
Q 55.609375 28.21875 55.609375 21.1875 
Q 55.609375 10.40625 48.1875 4.484375 
Q 40.765625 -1.421875 27.09375 -1.421875 
Q 22.515625 -1.421875 17.65625 -0.515625 
Q 12.796875 0.390625 7.625 2.203125 
L 7.625 11.71875 
Q 11.71875 9.328125 16.59375 8.109375 
Q 21.484375 6.890625 26.8125 6.890625 
Q 36.078125 6.890625 40.9375 10.546875 
Q 45.796875 14.203125 45.796875 21.1875 
Q 45.796875 27.640625 41.28125 31.265625 
Q 36.765625 34.90625 28.71875 34.90625 
L 20.21875 34.90625 
L 20.21875 43.015625 
L 29.109375 43.015625 
Q 36.375 43.015625 40.234375 45.921875 
Q 44.09375 48.828125 44.09375 54.296875 
Q 44.09375 59.90625 40.109375 62.90625 
Q 36.140625 65.921875 28.71875 65.921875 
Q 24.65625 65.921875 20.015625 65.03125 
Q 15.375 64.15625 9.8125 62.3125 
L 9.8125 71.09375 
Q 15.4375 72.65625 20.34375 73.4375 
Q 25.25 74.21875 29.59375 74.21875 
Q 40.828125 74.21875 47.359375 69.109375 
Q 53.90625 64.015625 53.90625 55.328125 
Q 53.90625 49.265625 50.4375 45.09375 
Q 46.96875 40.921875 40.578125 39.3125 
z
" id="DejaVuSans-51"/>
       </defs>
       <use xlink:href="#DejaVuSans-50"/>
       <use x="63.623047" xlink:href="#DejaVuSans-48"/>
       <use x="127.246094" xlink:href="#DejaVuSans-50"/>
       <use x="190.869141" xlink:href="#DejaVuSans-48"/>
       <use x="254.492188" xlink:href="#DejaVuSans-45"/>
       <use x="290.576172" xlink:href="#DejaVuSans-48"/>
       <use x="354.199219" xlink:href="#DejaVuSans-51"/>
       <use x="417.822266" xlink:href="#DejaVuSans-45"/>
       <use x="453.90625" xlink:href="#DejaVuSans-49"/>
       <use x="517.529297" xlink:href="#DejaVuSans-50"/>
      </g>
     </g>
    </g>
    <g id="xtick_3">
     <g id="line2d_5">
      <path clip-path="url(#p04181052d6)" d="M 363.129752 512.64 
L 363.129752 69.12 
" style="fill:none;stroke:#d8dcd6;stroke-dasharray:0.8,1.32;stroke-dashoffset:0;stroke-width:0.8;"/>
     </g>
     <g id="line2d_6">
      <g>
       <use style="stroke:#000000;stroke-width:0.8;" x="363.129752" xlink:href="#m9b679ccfd2" y="512.64"/>
      </g>
     </g>
     <g id="text_3">
      <!-- 2020-05-01 -->
      <g transform="translate(317.273803 562.816745)rotate(-40)scale(0.1 -0.1)">
       <defs>
        <path d="M 10.796875 72.90625 
L 49.515625 72.90625 
L 49.515625 64.59375 
L 19.828125 64.59375 
L 19.828125 46.734375 
Q 21.96875 47.46875 24.109375 47.828125 
Q 26.265625 48.1875 28.421875 48.1875 
Q 40.625 48.1875 47.75 41.5 
Q 54.890625 34.8125 54.890625 23.390625 
Q 54.890625 11.625 47.5625 5.09375 
Q 40.234375 -1.421875 26.90625 -1.421875 
Q 22.3125 -1.421875 17.546875 -0.640625 
Q 12.796875 0.140625 7.71875 1.703125 
L 7.71875 11.625 
Q 12.109375 9.234375 16.796875 8.0625 
Q 21.484375 6.890625 26.703125 6.890625 
Q 35.15625 6.890625 40.078125 11.328125 
Q 45.015625 15.765625 45.015625 23.390625 
Q 45.015625 31 40.078125 35.4375 
Q 35.15625 39.890625 26.703125 39.890625 
Q 22.75 39.890625 18.8125 39.015625 
Q 14.890625 38.140625 10.796875 36.28125 
z
" id="DejaVuSans-53"/>
       </defs>
       <use xlink:href="#DejaVuSans-50"/>
       <use x="63.623047" xlink:href="#DejaVuSans-48"/>
       <use x="127.246094" xlink:href="#DejaVuSans-50"/>
       <use x="190.869141" xlink:href="#DejaVuSans-48"/>
       <use x="254.492188" xlink:href="#DejaVuSans-45"/>
       <use x="290.576172" xlink:href="#DejaVuSans-48"/>
       <use x="354.199219" xlink:href="#DejaVuSans-53"/>
       <use x="417.822266" xlink:href="#DejaVuSans-45"/>
       <use x="453.90625" xlink:href="#DejaVuSans-48"/>
       <use x="517.529297" xlink:href="#DejaVuSans-49"/>
      </g>
     </g>
    </g>
    <g id="xtick_4">
     <g id="line2d_7">
      <path clip-path="url(#p04181052d6)" d="M 474.149036 512.64 
L 474.149036 69.12 
" style="fill:none;stroke:#d8dcd6;stroke-dasharray:0.8,1.32;stroke-dashoffset:0;stroke-width:0.8;"/>
     </g>
     <g id="line2d_8">
      <g>
       <use style="stroke:#000000;stroke-width:0.8;" x="474.149036" xlink:href="#m9b679ccfd2" y="512.64"/>
      </g>
     </g>
     <g id="text_4">
      <!-- 2020-06-20 -->
      <g transform="translate(428.293087 562.816745)rotate(-40)scale(0.1 -0.1)">
       <defs>
        <path d="M 33.015625 40.375 
Q 26.375 40.375 22.484375 35.828125 
Q 18.609375 31.296875 18.609375 23.390625 
Q 18.609375 15.53125 22.484375 10.953125 
Q 26.375 6.390625 33.015625 6.390625 
Q 39.65625 6.390625 43.53125 10.953125 
Q 47.40625 15.53125 47.40625 23.390625 
Q 47.40625 31.296875 43.53125 35.828125 
Q 39.65625 40.375 33.015625 40.375 
z
M 52.59375 71.296875 
L 52.59375 62.3125 
Q 48.875 64.0625 45.09375 64.984375 
Q 41.3125 65.921875 37.59375 65.921875 
Q 27.828125 65.921875 22.671875 59.328125 
Q 17.53125 52.734375 16.796875 39.40625 
Q 19.671875 43.65625 24.015625 45.921875 
Q 28.375 48.1875 33.59375 48.1875 
Q 44.578125 48.1875 50.953125 41.515625 
Q 57.328125 34.859375 57.328125 23.390625 
Q 57.328125 12.15625 50.6875 5.359375 
Q 44.046875 -1.421875 33.015625 -1.421875 
Q 20.359375 -1.421875 13.671875 8.265625 
Q 6.984375 17.96875 6.984375 36.375 
Q 6.984375 53.65625 15.1875 63.9375 
Q 23.390625 74.21875 37.203125 74.21875 
Q 40.921875 74.21875 44.703125 73.484375 
Q 48.484375 72.75 52.59375 71.296875 
z
" id="DejaVuSans-54"/>
       </defs>
       <use xlink:href="#DejaVuSans-50"/>
       <use x="63.623047" xlink:href="#DejaVuSans-48"/>
       <use x="127.246094" xlink:href="#DejaVuSans-50"/>
       <use x="190.869141" xlink:href="#DejaVuSans-48"/>
       <use x="254.492188" xlink:href="#DejaVuSans-45"/>
       <use x="290.576172" xlink:href="#DejaVuSans-48"/>
       <use x="354.199219" xlink:href="#DejaVuSans-54"/>
       <use x="417.822266" xlink:href="#DejaVuSans-45"/>
       <use x="453.90625" xlink:href="#DejaVuSans-50"/>
       <use x="517.529297" xlink:href="#DejaVuSans-48"/>
      </g>
     </g>
    </g>
    <g id="xtick_5">
     <g id="line2d_9">
      <path clip-path="url(#p04181052d6)" d="M 585.16832 512.64 
L 585.16832 69.12 
" style="fill:none;stroke:#d8dcd6;stroke-dasharray:0.8,1.32;stroke-dashoffset:0;stroke-width:0.8;"/>
     </g>
     <g id="line2d_10">
      <g>
       <use style="stroke:#000000;stroke-width:0.8;" x="585.16832" xlink:href="#m9b679ccfd2" y="512.64"/>
      </g>
     </g>
     <g id="text_5">
      <!-- 2020-08-09 -->
      <g transform="translate(539.312371 562.816745)rotate(-40)scale(0.1 -0.1)">
       <defs>
        <path d="M 31.78125 34.625 
Q 24.75 34.625 20.71875 30.859375 
Q 16.703125 27.09375 16.703125 20.515625 
Q 16.703125 13.921875 20.71875 10.15625 
Q 24.75 6.390625 31.78125 6.390625 
Q 38.8125 6.390625 42.859375 10.171875 
Q 46.921875 13.96875 46.921875 20.515625 
Q 46.921875 27.09375 42.890625 30.859375 
Q 38.875 34.625 31.78125 34.625 
z
M 21.921875 38.8125 
Q 15.578125 40.375 12.03125 44.71875 
Q 8.5 49.078125 8.5 55.328125 
Q 8.5 64.0625 14.71875 69.140625 
Q 20.953125 74.21875 31.78125 74.21875 
Q 42.671875 74.21875 48.875 69.140625 
Q 55.078125 64.0625 55.078125 55.328125 
Q 55.078125 49.078125 51.53125 44.71875 
Q 48 40.375 41.703125 38.8125 
Q 48.828125 37.15625 52.796875 32.3125 
Q 56.78125 27.484375 56.78125 20.515625 
Q 56.78125 9.90625 50.3125 4.234375 
Q 43.84375 -1.421875 31.78125 -1.421875 
Q 19.734375 -1.421875 13.25 4.234375 
Q 6.78125 9.90625 6.78125 20.515625 
Q 6.78125 27.484375 10.78125 32.3125 
Q 14.796875 37.15625 21.921875 38.8125 
z
M 18.3125 54.390625 
Q 18.3125 48.734375 21.84375 45.5625 
Q 25.390625 42.390625 31.78125 42.390625 
Q 38.140625 42.390625 41.71875 45.5625 
Q 45.3125 48.734375 45.3125 54.390625 
Q 45.3125 60.0625 41.71875 63.234375 
Q 38.140625 66.40625 31.78125 66.40625 
Q 25.390625 66.40625 21.84375 63.234375 
Q 18.3125 60.0625 18.3125 54.390625 
z
" id="DejaVuSans-56"/>
        <path d="M 10.984375 1.515625 
L 10.984375 10.5 
Q 14.703125 8.734375 18.5 7.8125 
Q 22.3125 6.890625 25.984375 6.890625 
Q 35.75 6.890625 40.890625 13.453125 
Q 46.046875 20.015625 46.78125 33.40625 
Q 43.953125 29.203125 39.59375 26.953125 
Q 35.25 24.703125 29.984375 24.703125 
Q 19.046875 24.703125 12.671875 31.3125 
Q 6.296875 37.9375 6.296875 49.421875 
Q 6.296875 60.640625 12.9375 67.421875 
Q 19.578125 74.21875 30.609375 74.21875 
Q 43.265625 74.21875 49.921875 64.515625 
Q 56.59375 54.828125 56.59375 36.375 
Q 56.59375 19.140625 48.40625 8.859375 
Q 40.234375 -1.421875 26.421875 -1.421875 
Q 22.703125 -1.421875 18.890625 -0.6875 
Q 15.09375 0.046875 10.984375 1.515625 
z
M 30.609375 32.421875 
Q 37.25 32.421875 41.125 36.953125 
Q 45.015625 41.5 45.015625 49.421875 
Q 45.015625 57.28125 41.125 61.84375 
Q 37.25 66.40625 30.609375 66.40625 
Q 23.96875 66.40625 20.09375 61.84375 
Q 16.21875 57.28125 16.21875 49.421875 
Q 16.21875 41.5 20.09375 36.953125 
Q 23.96875 32.421875 30.609375 32.421875 
z
" id="DejaVuSans-57"/>
       </defs>
       <use xlink:href="#DejaVuSans-50"/>
       <use x="63.623047" xlink:href="#DejaVuSans-48"/>
       <use x="127.246094" xlink:href="#DejaVuSans-50"/>
       <use x="190.869141" xlink:href="#DejaVuSans-48"/>
       <use x="254.492188" xlink:href="#DejaVuSans-45"/>
       <use x="290.576172" xlink:href="#DejaVuSans-48"/>
       <use x="354.199219" xlink:href="#DejaVuSans-56"/>
       <use x="417.822266" xlink:href="#DejaVuSans-45"/>
       <use x="453.90625" xlink:href="#DejaVuSans-48"/>
       <use x="517.529297" xlink:href="#DejaVuSans-57"/>
      </g>
     </g>
    </g>
    <g id="xtick_6">
     <g id="line2d_11">
      <path clip-path="url(#p04181052d6)" d="M 696.187603 512.64 
L 696.187603 69.12 
" style="fill:none;stroke:#d8dcd6;stroke-dasharray:0.8,1.32;stroke-dashoffset:0;stroke-width:0.8;"/>
     </g>
     <g id="line2d_12">
      <g>
       <use style="stroke:#000000;stroke-width:0.8;" x="696.187603" xlink:href="#m9b679ccfd2" y="512.64"/>
      </g>
     </g>
     <g id="text_6">
      <!-- 2020-09-28 -->
      <g transform="translate(650.331654 562.816745)rotate(-40)scale(0.1 -0.1)">
       <use xlink:href="#DejaVuSans-50"/>
       <use x="63.623047" xlink:href="#DejaVuSans-48"/>
       <use x="127.246094" xlink:href="#DejaVuSans-50"/>
       <use x="190.869141" xlink:href="#DejaVuSans-48"/>
       <use x="254.492188" xlink:href="#DejaVuSans-45"/>
       <use x="290.576172" xlink:href="#DejaVuSans-48"/>
       <use x="354.199219" xlink:href="#DejaVuSans-57"/>
       <use x="417.822266" xlink:href="#DejaVuSans-45"/>
       <use x="453.90625" xlink:href="#DejaVuSans-50"/>
       <use x="517.529297" xlink:href="#DejaVuSans-56"/>
      </g>
     </g>
    </g>
    <g id="xtick_7">
     <g id="line2d_13">
      <path clip-path="url(#p04181052d6)" d="M 807.206887 512.64 
L 807.206887 69.12 
" style="fill:none;stroke:#d8dcd6;stroke-dasharray:0.8,1.32;stroke-dashoffset:0;stroke-width:0.8;"/>
     </g>
     <g id="line2d_14">
      <g>
       <use style="stroke:#000000;stroke-width:0.8;" x="807.206887" xlink:href="#m9b679ccfd2" y="512.64"/>
      </g>
     </g>
     <g id="text_7">
      <!-- 2020-11-17 -->
      <g transform="translate(761.350938 562.816745)rotate(-40)scale(0.1 -0.1)">
       <defs>
        <path d="M 8.203125 72.90625 
L 55.078125 72.90625 
L 55.078125 68.703125 
L 28.609375 0 
L 18.3125 0 
L 43.21875 64.59375 
L 8.203125 64.59375 
z
" id="DejaVuSans-55"/>
       </defs>
       <use xlink:href="#DejaVuSans-50"/>
       <use x="63.623047" xlink:href="#DejaVuSans-48"/>
       <use x="127.246094" xlink:href="#DejaVuSans-50"/>
       <use x="190.869141" xlink:href="#DejaVuSans-48"/>
       <use x="254.492188" xlink:href="#DejaVuSans-45"/>
       <use x="290.576172" xlink:href="#DejaVuSans-49"/>
       <use x="354.199219" xlink:href="#DejaVuSans-49"/>
       <use x="417.822266" xlink:href="#DejaVuSans-45"/>
       <use x="453.90625" xlink:href="#DejaVuSans-49"/>
       <use x="517.529297" xlink:href="#DejaVuSans-55"/>
      </g>
     </g>
    </g>
    <g id="xtick_8">
     <g id="line2d_15">
      <path clip-path="url(#p04181052d6)" d="M 118.887328 512.64 
L 118.887328 69.12 
" style="fill:none;stroke:#d8dcd6;stroke-dasharray:0.8,1.32;stroke-dashoffset:0;stroke-width:0.8;"/>
     </g>
     <g id="line2d_16">
      <defs>
       <path d="M 0 0 
L 0 2 
" id="m58d8a3295c" style="stroke:#000000;stroke-width:0.6;"/>
      </defs>
      <g>
       <use style="stroke:#000000;stroke-width:0.6;" x="118.887328" xlink:href="#m58d8a3295c" y="512.64"/>
      </g>
     </g>
    </g>
    <g id="xtick_9">
     <g id="line2d_17">
      <path clip-path="url(#p04181052d6)" d="M 163.295041 512.64 
L 163.295041 69.12 
" style="fill:none;stroke:#d8dcd6;stroke-dasharray:0.8,1.32;stroke-dashoffset:0;stroke-width:0.8;"/>
     </g>
     <g id="line2d_18">
      <g>
       <use style="stroke:#000000;stroke-width:0.6;" x="163.295041" xlink:href="#m58d8a3295c" y="512.64"/>
      </g>
     </g>
    </g>
    <g id="xtick_10">
     <g id="line2d_19">
      <path clip-path="url(#p04181052d6)" d="M 185.498898 512.64 
L 185.498898 69.12 
" style="fill:none;stroke:#d8dcd6;stroke-dasharray:0.8,1.32;stroke-dashoffset:0;stroke-width:0.8;"/>
     </g>
     <g id="line2d_20">
      <g>
       <use style="stroke:#000000;stroke-width:0.6;" x="185.498898" xlink:href="#m58d8a3295c" y="512.64"/>
      </g>
     </g>
    </g>
    <g id="xtick_11">
     <g id="line2d_21">
      <path clip-path="url(#p04181052d6)" d="M 207.702755 512.64 
L 207.702755 69.12 
" style="fill:none;stroke:#d8dcd6;stroke-dasharray:0.8,1.32;stroke-dashoffset:0;stroke-width:0.8;"/>
     </g>
     <g id="line2d_22">
      <g>
       <use style="stroke:#000000;stroke-width:0.6;" x="207.702755" xlink:href="#m58d8a3295c" y="512.64"/>
      </g>
     </g>
    </g>
    <g id="xtick_12">
     <g id="line2d_23">
      <path clip-path="url(#p04181052d6)" d="M 229.906612 512.64 
L 229.906612 69.12 
" style="fill:none;stroke:#d8dcd6;stroke-dasharray:0.8,1.32;stroke-dashoffset:0;stroke-width:0.8;"/>
     </g>
     <g id="line2d_24">
      <g>
       <use style="stroke:#000000;stroke-width:0.6;" x="229.906612" xlink:href="#m58d8a3295c" y="512.64"/>
      </g>
     </g>
    </g>
    <g id="xtick_13">
     <g id="line2d_25">
      <path clip-path="url(#p04181052d6)" d="M 274.314325 512.64 
L 274.314325 69.12 
" style="fill:none;stroke:#d8dcd6;stroke-dasharray:0.8,1.32;stroke-dashoffset:0;stroke-width:0.8;"/>
     </g>
     <g id="line2d_26">
      <g>
       <use style="stroke:#000000;stroke-width:0.6;" x="274.314325" xlink:href="#m58d8a3295c" y="512.64"/>
      </g>
     </g>
    </g>
    <g id="xtick_14">
     <g id="line2d_27">
      <path clip-path="url(#p04181052d6)" d="M 296.518182 512.64 
L 296.518182 69.12 
" style="fill:none;stroke:#d8dcd6;stroke-dasharray:0.8,1.32;stroke-dashoffset:0;stroke-width:0.8;"/>
     </g>
     <g id="line2d_28">
      <g>
       <use style="stroke:#000000;stroke-width:0.6;" x="296.518182" xlink:href="#m58d8a3295c" y="512.64"/>
      </g>
     </g>
    </g>
    <g id="xtick_15">
     <g id="line2d_29">
      <path clip-path="url(#p04181052d6)" d="M 318.722039 512.64 
L 318.722039 69.12 
" style="fill:none;stroke:#d8dcd6;stroke-dasharray:0.8,1.32;stroke-dashoffset:0;stroke-width:0.8;"/>
     </g>
     <g id="line2d_30">
      <g>
       <use style="stroke:#000000;stroke-width:0.6;" x="318.722039" xlink:href="#m58d8a3295c" y="512.64"/>
      </g>
     </g>
    </g>
    <g id="xtick_16">
     <g id="line2d_31">
      <path clip-path="url(#p04181052d6)" d="M 340.925895 512.64 
L 340.925895 69.12 
" style="fill:none;stroke:#d8dcd6;stroke-dasharray:0.8,1.32;stroke-dashoffset:0;stroke-width:0.8;"/>
     </g>
     <g id="line2d_32">
      <g>
       <use style="stroke:#000000;stroke-width:0.6;" x="340.925895" xlink:href="#m58d8a3295c" y="512.64"/>
      </g>
     </g>
    </g>
    <g id="xtick_17">
     <g id="line2d_33">
      <path clip-path="url(#p04181052d6)" d="M 385.333609 512.64 
L 385.333609 69.12 
" style="fill:none;stroke:#d8dcd6;stroke-dasharray:0.8,1.32;stroke-dashoffset:0;stroke-width:0.8;"/>
     </g>
     <g id="line2d_34">
      <g>
       <use style="stroke:#000000;stroke-width:0.6;" x="385.333609" xlink:href="#m58d8a3295c" y="512.64"/>
      </g>
     </g>
    </g>
    <g id="xtick_18">
     <g id="line2d_35">
      <path clip-path="url(#p04181052d6)" d="M 407.537466 512.64 
L 407.537466 69.12 
" style="fill:none;stroke:#d8dcd6;stroke-dasharray:0.8,1.32;stroke-dashoffset:0;stroke-width:0.8;"/>
     </g>
     <g id="line2d_36">
      <g>
       <use style="stroke:#000000;stroke-width:0.6;" x="407.537466" xlink:href="#m58d8a3295c" y="512.64"/>
      </g>
     </g>
    </g>
    <g id="xtick_19">
     <g id="line2d_37">
      <path clip-path="url(#p04181052d6)" d="M 429.741322 512.64 
L 429.741322 69.12 
" style="fill:none;stroke:#d8dcd6;stroke-dasharray:0.8,1.32;stroke-dashoffset:0;stroke-width:0.8;"/>
     </g>
     <g id="line2d_38">
      <g>
       <use style="stroke:#000000;stroke-width:0.6;" x="429.741322" xlink:href="#m58d8a3295c" y="512.64"/>
      </g>
     </g>
    </g>
    <g id="xtick_20">
     <g id="line2d_39">
      <path clip-path="url(#p04181052d6)" d="M 451.945179 512.64 
L 451.945179 69.12 
" style="fill:none;stroke:#d8dcd6;stroke-dasharray:0.8,1.32;stroke-dashoffset:0;stroke-width:0.8;"/>
     </g>
     <g id="line2d_40">
      <g>
       <use style="stroke:#000000;stroke-width:0.6;" x="451.945179" xlink:href="#m58d8a3295c" y="512.64"/>
      </g>
     </g>
    </g>
    <g id="xtick_21">
     <g id="line2d_41">
      <path clip-path="url(#p04181052d6)" d="M 496.352893 512.64 
L 496.352893 69.12 
" style="fill:none;stroke:#d8dcd6;stroke-dasharray:0.8,1.32;stroke-dashoffset:0;stroke-width:0.8;"/>
     </g>
     <g id="line2d_42">
      <g>
       <use style="stroke:#000000;stroke-width:0.6;" x="496.352893" xlink:href="#m58d8a3295c" y="512.64"/>
      </g>
     </g>
    </g>
    <g id="xtick_22">
     <g id="line2d_43">
      <path clip-path="url(#p04181052d6)" d="M 518.556749 512.64 
L 518.556749 69.12 
" style="fill:none;stroke:#d8dcd6;stroke-dasharray:0.8,1.32;stroke-dashoffset:0;stroke-width:0.8;"/>
     </g>
     <g id="line2d_44">
      <g>
       <use style="stroke:#000000;stroke-width:0.6;" x="518.556749" xlink:href="#m58d8a3295c" y="512.64"/>
      </g>
     </g>
    </g>
    <g id="xtick_23">
     <g id="line2d_45">
      <path clip-path="url(#p04181052d6)" d="M 540.760606 512.64 
L 540.760606 69.12 
" style="fill:none;stroke:#d8dcd6;stroke-dasharray:0.8,1.32;stroke-dashoffset:0;stroke-width:0.8;"/>
     </g>
     <g id="line2d_46">
      <g>
       <use style="stroke:#000000;stroke-width:0.6;" x="540.760606" xlink:href="#m58d8a3295c" y="512.64"/>
      </g>
     </g>
    </g>
    <g id="xtick_24">
     <g id="line2d_47">
      <path clip-path="url(#p04181052d6)" d="M 562.964463 512.64 
L 562.964463 69.12 
" style="fill:none;stroke:#d8dcd6;stroke-dasharray:0.8,1.32;stroke-dashoffset:0;stroke-width:0.8;"/>
     </g>
     <g id="line2d_48">
      <g>
       <use style="stroke:#000000;stroke-width:0.6;" x="562.964463" xlink:href="#m58d8a3295c" y="512.64"/>
      </g>
     </g>
    </g>
    <g id="xtick_25">
     <g id="line2d_49">
      <path clip-path="url(#p04181052d6)" d="M 607.372176 512.64 
L 607.372176 69.12 
" style="fill:none;stroke:#d8dcd6;stroke-dasharray:0.8,1.32;stroke-dashoffset:0;stroke-width:0.8;"/>
     </g>
     <g id="line2d_50">
      <g>
       <use style="stroke:#000000;stroke-width:0.6;" x="607.372176" xlink:href="#m58d8a3295c" y="512.64"/>
      </g>
     </g>
    </g>
    <g id="xtick_26">
     <g id="line2d_51">
      <path clip-path="url(#p04181052d6)" d="M 629.576033 512.64 
L 629.576033 69.12 
" style="fill:none;stroke:#d8dcd6;stroke-dasharray:0.8,1.32;stroke-dashoffset:0;stroke-width:0.8;"/>
     </g>
     <g id="line2d_52">
      <g>
       <use style="stroke:#000000;stroke-width:0.6;" x="629.576033" xlink:href="#m58d8a3295c" y="512.64"/>
      </g>
     </g>
    </g>
    <g id="xtick_27">
     <g id="line2d_53">
      <path clip-path="url(#p04181052d6)" d="M 651.77989 512.64 
L 651.77989 69.12 
" style="fill:none;stroke:#d8dcd6;stroke-dasharray:0.8,1.32;stroke-dashoffset:0;stroke-width:0.8;"/>
     </g>
     <g id="line2d_54">
      <g>
       <use style="stroke:#000000;stroke-width:0.6;" x="651.77989" xlink:href="#m58d8a3295c" y="512.64"/>
      </g>
     </g>
    </g>
    <g id="xtick_28">
     <g id="line2d_55">
      <path clip-path="url(#p04181052d6)" d="M 673.983747 512.64 
L 673.983747 69.12 
" style="fill:none;stroke:#d8dcd6;stroke-dasharray:0.8,1.32;stroke-dashoffset:0;stroke-width:0.8;"/>
     </g>
     <g id="line2d_56">
      <g>
       <use style="stroke:#000000;stroke-width:0.6;" x="673.983747" xlink:href="#m58d8a3295c" y="512.64"/>
      </g>
     </g>
    </g>
    <g id="xtick_29">
     <g id="line2d_57">
      <path clip-path="url(#p04181052d6)" d="M 718.39146 512.64 
L 718.39146 69.12 
" style="fill:none;stroke:#d8dcd6;stroke-dasharray:0.8,1.32;stroke-dashoffset:0;stroke-width:0.8;"/>
     </g>
     <g id="line2d_58">
      <g>
       <use style="stroke:#000000;stroke-width:0.6;" x="718.39146" xlink:href="#m58d8a3295c" y="512.64"/>
      </g>
     </g>
    </g>
    <g id="xtick_30">
     <g id="line2d_59">
      <path clip-path="url(#p04181052d6)" d="M 740.595317 512.64 
L 740.595317 69.12 
" style="fill:none;stroke:#d8dcd6;stroke-dasharray:0.8,1.32;stroke-dashoffset:0;stroke-width:0.8;"/>
     </g>
     <g id="line2d_60">
      <g>
       <use style="stroke:#000000;stroke-width:0.6;" x="740.595317" xlink:href="#m58d8a3295c" y="512.64"/>
      </g>
     </g>
    </g>
    <g id="xtick_31">
     <g id="line2d_61">
      <path clip-path="url(#p04181052d6)" d="M 762.799174 512.64 
L 762.799174 69.12 
" style="fill:none;stroke:#d8dcd6;stroke-dasharray:0.8,1.32;stroke-dashoffset:0;stroke-width:0.8;"/>
     </g>
     <g id="line2d_62">
      <g>
       <use style="stroke:#000000;stroke-width:0.6;" x="762.799174" xlink:href="#m58d8a3295c" y="512.64"/>
      </g>
     </g>
    </g>
    <g id="xtick_32">
     <g id="line2d_63">
      <path clip-path="url(#p04181052d6)" d="M 785.00303 512.64 
L 785.00303 69.12 
" style="fill:none;stroke:#d8dcd6;stroke-dasharray:0.8,1.32;stroke-dashoffset:0;stroke-width:0.8;"/>
     </g>
     <g id="line2d_64">
      <g>
       <use style="stroke:#000000;stroke-width:0.6;" x="785.00303" xlink:href="#m58d8a3295c" y="512.64"/>
      </g>
     </g>
    </g>
    <g id="xtick_33">
     <g id="line2d_65">
      <path clip-path="url(#p04181052d6)" d="M 829.410744 512.64 
L 829.410744 69.12 
" style="fill:none;stroke:#d8dcd6;stroke-dasharray:0.8,1.32;stroke-dashoffset:0;stroke-width:0.8;"/>
     </g>
     <g id="line2d_66">
      <g>
       <use style="stroke:#000000;stroke-width:0.6;" x="829.410744" xlink:href="#m58d8a3295c" y="512.64"/>
      </g>
     </g>
    </g>
   </g>
   <g id="matplotlib.axis_2">
    <g id="ytick_1">
     <g id="line2d_67">
      <path clip-path="url(#p04181052d6)" d="M 117 512.64 
L 842.4 512.64 
" style="fill:none;stroke:#d8dcd6;stroke-dasharray:0.8,1.32;stroke-dashoffset:0;stroke-width:0.8;"/>
     </g>
     <g id="line2d_68">
      <defs>
       <path d="M 0 0 
L -3.5 0 
" id="m93cdd838d5" style="stroke:#000000;stroke-width:0.8;"/>
      </defs>
      <g>
       <use style="stroke:#000000;stroke-width:0.8;" x="117" xlink:href="#m93cdd838d5" y="512.64"/>
      </g>
     </g>
     <g id="text_8">
      <!-- 0 -->
      <g transform="translate(103.6375 516.439219)scale(0.1 -0.1)">
       <use xlink:href="#DejaVuSans-48"/>
      </g>
     </g>
    </g>
    <g id="ytick_2">
     <g id="line2d_69">
      <path clip-path="url(#p04181052d6)" d="M 117 423.936 
L 842.4 423.936 
" style="fill:none;stroke:#d8dcd6;stroke-dasharray:0.8,1.32;stroke-dashoffset:0;stroke-width:0.8;"/>
     </g>
     <g id="line2d_70">
      <g>
       <use style="stroke:#000000;stroke-width:0.8;" x="117" xlink:href="#m93cdd838d5" y="423.936"/>
      </g>
     </g>
     <g id="text_9">
      <!-- 5 -->
      <g transform="translate(103.6375 427.735219)scale(0.1 -0.1)">
       <use xlink:href="#DejaVuSans-53"/>
      </g>
     </g>
    </g>
    <g id="ytick_3">
     <g id="line2d_71">
      <path clip-path="url(#p04181052d6)" d="M 117 335.232 
L 842.4 335.232 
" style="fill:none;stroke:#d8dcd6;stroke-dasharray:0.8,1.32;stroke-dashoffset:0;stroke-width:0.8;"/>
     </g>
     <g id="line2d_72">
      <g>
       <use style="stroke:#000000;stroke-width:0.8;" x="117" xlink:href="#m93cdd838d5" y="335.232"/>
      </g>
     </g>
     <g id="text_10">
      <!-- 10 -->
      <g transform="translate(97.275 339.031219)scale(0.1 -0.1)">
       <use xlink:href="#DejaVuSans-49"/>
       <use x="63.623047" xlink:href="#DejaVuSans-48"/>
      </g>
     </g>
    </g>
    <g id="ytick_4">
     <g id="line2d_73">
      <path clip-path="url(#p04181052d6)" d="M 117 246.528 
L 842.4 246.528 
" style="fill:none;stroke:#d8dcd6;stroke-dasharray:0.8,1.32;stroke-dashoffset:0;stroke-width:0.8;"/>
     </g>
     <g id="line2d_74">
      <g>
       <use style="stroke:#000000;stroke-width:0.8;" x="117" xlink:href="#m93cdd838d5" y="246.528"/>
      </g>
     </g>
     <g id="text_11">
      <!-- 15 -->
      <g transform="translate(97.275 250.327219)scale(0.1 -0.1)">
       <use xlink:href="#DejaVuSans-49"/>
       <use x="63.623047" xlink:href="#DejaVuSans-53"/>
      </g>
     </g>
    </g>
    <g id="ytick_5">
     <g id="line2d_75">
      <path clip-path="url(#p04181052d6)" d="M 117 157.824 
L 842.4 157.824 
" style="fill:none;stroke:#d8dcd6;stroke-dasharray:0.8,1.32;stroke-dashoffset:0;stroke-width:0.8;"/>
     </g>
     <g id="line2d_76">
      <g>
       <use style="stroke:#000000;stroke-width:0.8;" x="117" xlink:href="#m93cdd838d5" y="157.824"/>
      </g>
     </g>
     <g id="text_12">
      <!-- 20 -->
      <g transform="translate(97.275 161.623219)scale(0.1 -0.1)">
       <use xlink:href="#DejaVuSans-50"/>
       <use x="63.623047" xlink:href="#DejaVuSans-48"/>
      </g>
     </g>
    </g>
    <g id="ytick_6">
     <g id="line2d_77">
      <path clip-path="url(#p04181052d6)" d="M 117 69.12 
L 842.4 69.12 
" style="fill:none;stroke:#d8dcd6;stroke-dasharray:0.8,1.32;stroke-dashoffset:0;stroke-width:0.8;"/>
     </g>
     <g id="line2d_78">
      <g>
       <use style="stroke:#000000;stroke-width:0.8;" x="117" xlink:href="#m93cdd838d5" y="69.12"/>
      </g>
     </g>
     <g id="text_13">
      <!-- 25 -->
      <g transform="translate(97.275 72.919219)scale(0.1 -0.1)">
       <use xlink:href="#DejaVuSans-50"/>
       <use x="63.623047" xlink:href="#DejaVuSans-53"/>
      </g>
     </g>
    </g>
    <g id="ytick_7">
     <g id="line2d_79">
      <path clip-path="url(#p04181052d6)" d="M 117 494.8992 
L 842.4 494.8992 
" style="fill:none;stroke:#d8dcd6;stroke-dasharray:0.8,1.32;stroke-dashoffset:0;stroke-width:0.8;"/>
     </g>
     <g id="line2d_80">
      <defs>
       <path d="M 0 0 
L -2 0 
" id="m93ac3a7992" style="stroke:#000000;stroke-width:0.6;"/>
      </defs>
      <g>
       <use style="stroke:#000000;stroke-width:0.6;" x="117" xlink:href="#m93ac3a7992" y="494.8992"/>
      </g>
     </g>
    </g>
    <g id="ytick_8">
     <g id="line2d_81">
      <path clip-path="url(#p04181052d6)" d="M 117 477.1584 
L 842.4 477.1584 
" style="fill:none;stroke:#d8dcd6;stroke-dasharray:0.8,1.32;stroke-dashoffset:0;stroke-width:0.8;"/>
     </g>
     <g id="line2d_82">
      <g>
       <use style="stroke:#000000;stroke-width:0.6;" x="117" xlink:href="#m93ac3a7992" y="477.1584"/>
      </g>
     </g>
    </g>
    <g id="ytick_9">
     <g id="line2d_83">
      <path clip-path="url(#p04181052d6)" d="M 117 459.4176 
L 842.4 459.4176 
" style="fill:none;stroke:#d8dcd6;stroke-dasharray:0.8,1.32;stroke-dashoffset:0;stroke-width:0.8;"/>
     </g>
     <g id="line2d_84">
      <g>
       <use style="stroke:#000000;stroke-width:0.6;" x="117" xlink:href="#m93ac3a7992" y="459.4176"/>
      </g>
     </g>
    </g>
    <g id="ytick_10">
     <g id="line2d_85">
      <path clip-path="url(#p04181052d6)" d="M 117 441.6768 
L 842.4 441.6768 
" style="fill:none;stroke:#d8dcd6;stroke-dasharray:0.8,1.32;stroke-dashoffset:0;stroke-width:0.8;"/>
     </g>
     <g id="line2d_86">
      <g>
       <use style="stroke:#000000;stroke-width:0.6;" x="117" xlink:href="#m93ac3a7992" y="441.6768"/>
      </g>
     </g>
    </g>
    <g id="ytick_11">
     <g id="line2d_87">
      <path clip-path="url(#p04181052d6)" d="M 117 406.1952 
L 842.4 406.1952 
" style="fill:none;stroke:#d8dcd6;stroke-dasharray:0.8,1.32;stroke-dashoffset:0;stroke-width:0.8;"/>
     </g>
     <g id="line2d_88">
      <g>
       <use style="stroke:#000000;stroke-width:0.6;" x="117" xlink:href="#m93ac3a7992" y="406.1952"/>
      </g>
     </g>
    </g>
    <g id="ytick_12">
     <g id="line2d_89">
      <path clip-path="url(#p04181052d6)" d="M 117 388.4544 
L 842.4 388.4544 
" style="fill:none;stroke:#d8dcd6;stroke-dasharray:0.8,1.32;stroke-dashoffset:0;stroke-width:0.8;"/>
     </g>
     <g id="line2d_90">
      <g>
       <use style="stroke:#000000;stroke-width:0.6;" x="117" xlink:href="#m93ac3a7992" y="388.4544"/>
      </g>
     </g>
    </g>
    <g id="ytick_13">
     <g id="line2d_91">
      <path clip-path="url(#p04181052d6)" d="M 117 370.7136 
L 842.4 370.7136 
" style="fill:none;stroke:#d8dcd6;stroke-dasharray:0.8,1.32;stroke-dashoffset:0;stroke-width:0.8;"/>
     </g>
     <g id="line2d_92">
      <g>
       <use style="stroke:#000000;stroke-width:0.6;" x="117" xlink:href="#m93ac3a7992" y="370.7136"/>
      </g>
     </g>
    </g>
    <g id="ytick_14">
     <g id="line2d_93">
      <path clip-path="url(#p04181052d6)" d="M 117 352.9728 
L 842.4 352.9728 
" style="fill:none;stroke:#d8dcd6;stroke-dasharray:0.8,1.32;stroke-dashoffset:0;stroke-width:0.8;"/>
     </g>
     <g id="line2d_94">
      <g>
       <use style="stroke:#000000;stroke-width:0.6;" x="117" xlink:href="#m93ac3a7992" y="352.9728"/>
      </g>
     </g>
    </g>
    <g id="ytick_15">
     <g id="line2d_95">
      <path clip-path="url(#p04181052d6)" d="M 117 317.4912 
L 842.4 317.4912 
" style="fill:none;stroke:#d8dcd6;stroke-dasharray:0.8,1.32;stroke-dashoffset:0;stroke-width:0.8;"/>
     </g>
     <g id="line2d_96">
      <g>
       <use style="stroke:#000000;stroke-width:0.6;" x="117" xlink:href="#m93ac3a7992" y="317.4912"/>
      </g>
     </g>
    </g>
    <g id="ytick_16">
     <g id="line2d_97">
      <path clip-path="url(#p04181052d6)" d="M 117 299.7504 
L 842.4 299.7504 
" style="fill:none;stroke:#d8dcd6;stroke-dasharray:0.8,1.32;stroke-dashoffset:0;stroke-width:0.8;"/>
     </g>
     <g id="line2d_98">
      <g>
       <use style="stroke:#000000;stroke-width:0.6;" x="117" xlink:href="#m93ac3a7992" y="299.7504"/>
      </g>
     </g>
    </g>
    <g id="ytick_17">
     <g id="line2d_99">
      <path clip-path="url(#p04181052d6)" d="M 117 282.0096 
L 842.4 282.0096 
" style="fill:none;stroke:#d8dcd6;stroke-dasharray:0.8,1.32;stroke-dashoffset:0;stroke-width:0.8;"/>
     </g>
     <g id="line2d_100">
      <g>
       <use style="stroke:#000000;stroke-width:0.6;" x="117" xlink:href="#m93ac3a7992" y="282.0096"/>
      </g>
     </g>
    </g>
    <g id="ytick_18">
     <g id="line2d_101">
      <path clip-path="url(#p04181052d6)" d="M 117 264.2688 
L 842.4 264.2688 
" style="fill:none;stroke:#d8dcd6;stroke-dasharray:0.8,1.32;stroke-dashoffset:0;stroke-width:0.8;"/>
     </g>
     <g id="line2d_102">
      <g>
       <use style="stroke:#000000;stroke-width:0.6;" x="117" xlink:href="#m93ac3a7992" y="264.2688"/>
      </g>
     </g>
    </g>
    <g id="ytick_19">
     <g id="line2d_103">
      <path clip-path="url(#p04181052d6)" d="M 117 228.7872 
L 842.4 228.7872 
" style="fill:none;stroke:#d8dcd6;stroke-dasharray:0.8,1.32;stroke-dashoffset:0;stroke-width:0.8;"/>
     </g>
     <g id="line2d_104">
      <g>
       <use style="stroke:#000000;stroke-width:0.6;" x="117" xlink:href="#m93ac3a7992" y="228.7872"/>
      </g>
     </g>
    </g>
    <g id="ytick_20">
     <g id="line2d_105">
      <path clip-path="url(#p04181052d6)" d="M 117 211.0464 
L 842.4 211.0464 
" style="fill:none;stroke:#d8dcd6;stroke-dasharray:0.8,1.32;stroke-dashoffset:0;stroke-width:0.8;"/>
     </g>
     <g id="line2d_106">
      <g>
       <use style="stroke:#000000;stroke-width:0.6;" x="117" xlink:href="#m93ac3a7992" y="211.0464"/>
      </g>
     </g>
    </g>
    <g id="ytick_21">
     <g id="line2d_107">
      <path clip-path="url(#p04181052d6)" d="M 117 193.3056 
L 842.4 193.3056 
" style="fill:none;stroke:#d8dcd6;stroke-dasharray:0.8,1.32;stroke-dashoffset:0;stroke-width:0.8;"/>
     </g>
     <g id="line2d_108">
      <g>
       <use style="stroke:#000000;stroke-width:0.6;" x="117" xlink:href="#m93ac3a7992" y="193.3056"/>
      </g>
     </g>
    </g>
    <g id="ytick_22">
     <g id="line2d_109">
      <path clip-path="url(#p04181052d6)" d="M 117 175.5648 
L 842.4 175.5648 
" style="fill:none;stroke:#d8dcd6;stroke-dasharray:0.8,1.32;stroke-dashoffset:0;stroke-width:0.8;"/>
     </g>
     <g id="line2d_110">
      <g>
       <use style="stroke:#000000;stroke-width:0.6;" x="117" xlink:href="#m93ac3a7992" y="175.5648"/>
      </g>
     </g>
    </g>
    <g id="ytick_23">
     <g id="line2d_111">
      <path clip-path="url(#p04181052d6)" d="M 117 140.0832 
L 842.4 140.0832 
" style="fill:none;stroke:#d8dcd6;stroke-dasharray:0.8,1.32;stroke-dashoffset:0;stroke-width:0.8;"/>
     </g>
     <g id="line2d_112">
      <g>
       <use style="stroke:#000000;stroke-width:0.6;" x="117" xlink:href="#m93ac3a7992" y="140.0832"/>
      </g>
     </g>
    </g>
    <g id="ytick_24">
     <g id="line2d_113">
      <path clip-path="url(#p04181052d6)" d="M 117 122.3424 
L 842.4 122.3424 
" style="fill:none;stroke:#d8dcd6;stroke-dasharray:0.8,1.32;stroke-dashoffset:0;stroke-width:0.8;"/>
     </g>
     <g id="line2d_114">
      <g>
       <use style="stroke:#000000;stroke-width:0.6;" x="117" xlink:href="#m93ac3a7992" y="122.3424"/>
      </g>
     </g>
    </g>
    <g id="ytick_25">
     <g id="line2d_115">
      <path clip-path="url(#p04181052d6)" d="M 117 104.6016 
L 842.4 104.6016 
" style="fill:none;stroke:#d8dcd6;stroke-dasharray:0.8,1.32;stroke-dashoffset:0;stroke-width:0.8;"/>
     </g>
     <g id="line2d_116">
      <g>
       <use style="stroke:#000000;stroke-width:0.6;" x="117" xlink:href="#m93ac3a7992" y="104.6016"/>
      </g>
     </g>
    </g>
    <g id="ytick_26">
     <g id="line2d_117">
      <path clip-path="url(#p04181052d6)" d="M 117 86.8608 
L 842.4 86.8608 
" style="fill:none;stroke:#d8dcd6;stroke-dasharray:0.8,1.32;stroke-dashoffset:0;stroke-width:0.8;"/>
     </g>
     <g id="line2d_118">
      <g>
       <use style="stroke:#000000;stroke-width:0.6;" x="117" xlink:href="#m93ac3a7992" y="86.8608"/>
      </g>
     </g>
    </g>
    <g id="text_14">
     <!-- cases double every $n$ days (backw avg over 4 days) -->
     <g transform="translate(91.175 420.63)rotate(-90)scale(0.1 -0.1)">
      <defs>
       <path d="M 48.78125 52.59375 
L 48.78125 44.1875 
Q 44.96875 46.296875 41.140625 47.34375 
Q 37.3125 48.390625 33.40625 48.390625 
Q 24.65625 48.390625 19.8125 42.84375 
Q 14.984375 37.3125 14.984375 27.296875 
Q 14.984375 17.28125 19.8125 11.734375 
Q 24.65625 6.203125 33.40625 6.203125 
Q 37.3125 6.203125 41.140625 7.25 
Q 44.96875 8.296875 48.78125 10.40625 
L 48.78125 2.09375 
Q 45.015625 0.34375 40.984375 -0.53125 
Q 36.96875 -1.421875 32.421875 -1.421875 
Q 20.0625 -1.421875 12.78125 6.34375 
Q 5.515625 14.109375 5.515625 27.296875 
Q 5.515625 40.671875 12.859375 48.328125 
Q 20.21875 56 33.015625 56 
Q 37.15625 56 41.109375 55.140625 
Q 45.0625 54.296875 48.78125 52.59375 
z
" id="DejaVuSans-99"/>
       <path d="M 34.28125 27.484375 
Q 23.390625 27.484375 19.1875 25 
Q 14.984375 22.515625 14.984375 16.5 
Q 14.984375 11.71875 18.140625 8.90625 
Q 21.296875 6.109375 26.703125 6.109375 
Q 34.1875 6.109375 38.703125 11.40625 
Q 43.21875 16.703125 43.21875 25.484375 
L 43.21875 27.484375 
z
M 52.203125 31.203125 
L 52.203125 0 
L 43.21875 0 
L 43.21875 8.296875 
Q 40.140625 3.328125 35.546875 0.953125 
Q 30.953125 -1.421875 24.3125 -1.421875 
Q 15.921875 -1.421875 10.953125 3.296875 
Q 6 8.015625 6 15.921875 
Q 6 25.140625 12.171875 29.828125 
Q 18.359375 34.515625 30.609375 34.515625 
L 43.21875 34.515625 
L 43.21875 35.40625 
Q 43.21875 41.609375 39.140625 45 
Q 35.0625 48.390625 27.6875 48.390625 
Q 23 48.390625 18.546875 47.265625 
Q 14.109375 46.140625 10.015625 43.890625 
L 10.015625 52.203125 
Q 14.9375 54.109375 19.578125 55.046875 
Q 24.21875 56 28.609375 56 
Q 40.484375 56 46.34375 49.84375 
Q 52.203125 43.703125 52.203125 31.203125 
z
" id="DejaVuSans-97"/>
       <path d="M 44.28125 53.078125 
L 44.28125 44.578125 
Q 40.484375 46.53125 36.375 47.5 
Q 32.28125 48.484375 27.875 48.484375 
Q 21.1875 48.484375 17.84375 46.4375 
Q 14.5 44.390625 14.5 40.28125 
Q 14.5 37.15625 16.890625 35.375 
Q 19.28125 33.59375 26.515625 31.984375 
L 29.59375 31.296875 
Q 39.15625 29.25 43.1875 25.515625 
Q 47.21875 21.78125 47.21875 15.09375 
Q 47.21875 7.46875 41.1875 3.015625 
Q 35.15625 -1.421875 24.609375 -1.421875 
Q 20.21875 -1.421875 15.453125 -0.5625 
Q 10.6875 0.296875 5.421875 2 
L 5.421875 11.28125 
Q 10.40625 8.6875 15.234375 7.390625 
Q 20.0625 6.109375 24.8125 6.109375 
Q 31.15625 6.109375 34.5625 8.28125 
Q 37.984375 10.453125 37.984375 14.40625 
Q 37.984375 18.0625 35.515625 20.015625 
Q 33.0625 21.96875 24.703125 23.78125 
L 21.578125 24.515625 
Q 13.234375 26.265625 9.515625 29.90625 
Q 5.8125 33.546875 5.8125 39.890625 
Q 5.8125 47.609375 11.28125 51.796875 
Q 16.75 56 26.8125 56 
Q 31.78125 56 36.171875 55.265625 
Q 40.578125 54.546875 44.28125 53.078125 
z
" id="DejaVuSans-115"/>
       <path d="M 56.203125 29.59375 
L 56.203125 25.203125 
L 14.890625 25.203125 
Q 15.484375 15.921875 20.484375 11.0625 
Q 25.484375 6.203125 34.421875 6.203125 
Q 39.59375 6.203125 44.453125 7.46875 
Q 49.3125 8.734375 54.109375 11.28125 
L 54.109375 2.78125 
Q 49.265625 0.734375 44.1875 -0.34375 
Q 39.109375 -1.421875 33.890625 -1.421875 
Q 20.796875 -1.421875 13.15625 6.1875 
Q 5.515625 13.8125 5.515625 26.8125 
Q 5.515625 40.234375 12.765625 48.109375 
Q 20.015625 56 32.328125 56 
Q 43.359375 56 49.78125 48.890625 
Q 56.203125 41.796875 56.203125 29.59375 
z
M 47.21875 32.234375 
Q 47.125 39.59375 43.09375 43.984375 
Q 39.0625 48.390625 32.421875 48.390625 
Q 24.90625 48.390625 20.390625 44.140625 
Q 15.875 39.890625 15.1875 32.171875 
z
" id="DejaVuSans-101"/>
       <path id="DejaVuSans-32"/>
       <path d="M 45.40625 46.390625 
L 45.40625 75.984375 
L 54.390625 75.984375 
L 54.390625 0 
L 45.40625 0 
L 45.40625 8.203125 
Q 42.578125 3.328125 38.25 0.953125 
Q 33.9375 -1.421875 27.875 -1.421875 
Q 17.96875 -1.421875 11.734375 6.484375 
Q 5.515625 14.40625 5.515625 27.296875 
Q 5.515625 40.1875 11.734375 48.09375 
Q 17.96875 56 27.875 56 
Q 33.9375 56 38.25 53.625 
Q 42.578125 51.265625 45.40625 46.390625 
z
M 14.796875 27.296875 
Q 14.796875 17.390625 18.875 11.75 
Q 22.953125 6.109375 30.078125 6.109375 
Q 37.203125 6.109375 41.296875 11.75 
Q 45.40625 17.390625 45.40625 27.296875 
Q 45.40625 37.203125 41.296875 42.84375 
Q 37.203125 48.484375 30.078125 48.484375 
Q 22.953125 48.484375 18.875 42.84375 
Q 14.796875 37.203125 14.796875 27.296875 
z
" id="DejaVuSans-100"/>
       <path d="M 30.609375 48.390625 
Q 23.390625 48.390625 19.1875 42.75 
Q 14.984375 37.109375 14.984375 27.296875 
Q 14.984375 17.484375 19.15625 11.84375 
Q 23.34375 6.203125 30.609375 6.203125 
Q 37.796875 6.203125 41.984375 11.859375 
Q 46.1875 17.53125 46.1875 27.296875 
Q 46.1875 37.015625 41.984375 42.703125 
Q 37.796875 48.390625 30.609375 48.390625 
z
M 30.609375 56 
Q 42.328125 56 49.015625 48.375 
Q 55.71875 40.765625 55.71875 27.296875 
Q 55.71875 13.875 49.015625 6.21875 
Q 42.328125 -1.421875 30.609375 -1.421875 
Q 18.84375 -1.421875 12.171875 6.21875 
Q 5.515625 13.875 5.515625 27.296875 
Q 5.515625 40.765625 12.171875 48.375 
Q 18.84375 56 30.609375 56 
z
" id="DejaVuSans-111"/>
       <path d="M 8.5 21.578125 
L 8.5 54.6875 
L 17.484375 54.6875 
L 17.484375 21.921875 
Q 17.484375 14.15625 20.5 10.265625 
Q 23.53125 6.390625 29.59375 6.390625 
Q 36.859375 6.390625 41.078125 11.03125 
Q 45.3125 15.671875 45.3125 23.6875 
L 45.3125 54.6875 
L 54.296875 54.6875 
L 54.296875 0 
L 45.3125 0 
L 45.3125 8.40625 
Q 42.046875 3.421875 37.71875 1 
Q 33.40625 -1.421875 27.6875 -1.421875 
Q 18.265625 -1.421875 13.375 4.4375 
Q 8.5 10.296875 8.5 21.578125 
z
M 31.109375 56 
z
" id="DejaVuSans-117"/>
       <path d="M 48.6875 27.296875 
Q 48.6875 37.203125 44.609375 42.84375 
Q 40.53125 48.484375 33.40625 48.484375 
Q 26.265625 48.484375 22.1875 42.84375 
Q 18.109375 37.203125 18.109375 27.296875 
Q 18.109375 17.390625 22.1875 11.75 
Q 26.265625 6.109375 33.40625 6.109375 
Q 40.53125 6.109375 44.609375 11.75 
Q 48.6875 17.390625 48.6875 27.296875 
z
M 18.109375 46.390625 
Q 20.953125 51.265625 25.265625 53.625 
Q 29.59375 56 35.59375 56 
Q 45.5625 56 51.78125 48.09375 
Q 58.015625 40.1875 58.015625 27.296875 
Q 58.015625 14.40625 51.78125 6.484375 
Q 45.5625 -1.421875 35.59375 -1.421875 
Q 29.59375 -1.421875 25.265625 0.953125 
Q 20.953125 3.328125 18.109375 8.203125 
L 18.109375 0 
L 9.078125 0 
L 9.078125 75.984375 
L 18.109375 75.984375 
z
" id="DejaVuSans-98"/>
       <path d="M 9.421875 75.984375 
L 18.40625 75.984375 
L 18.40625 0 
L 9.421875 0 
z
" id="DejaVuSans-108"/>
       <path d="M 2.984375 54.6875 
L 12.5 54.6875 
L 29.59375 8.796875 
L 46.6875 54.6875 
L 56.203125 54.6875 
L 35.6875 0 
L 23.484375 0 
z
" id="DejaVuSans-118"/>
       <path d="M 41.109375 46.296875 
Q 39.59375 47.171875 37.8125 47.578125 
Q 36.03125 48 33.890625 48 
Q 26.265625 48 22.1875 43.046875 
Q 18.109375 38.09375 18.109375 28.8125 
L 18.109375 0 
L 9.078125 0 
L 9.078125 54.6875 
L 18.109375 54.6875 
L 18.109375 46.1875 
Q 20.953125 51.171875 25.484375 53.578125 
Q 30.03125 56 36.53125 56 
Q 37.453125 56 38.578125 55.875 
Q 39.703125 55.765625 41.0625 55.515625 
z
" id="DejaVuSans-114"/>
       <path d="M 32.171875 -5.078125 
Q 28.375 -14.84375 24.75 -17.8125 
Q 21.140625 -20.796875 15.09375 -20.796875 
L 7.90625 -20.796875 
L 7.90625 -13.28125 
L 13.1875 -13.28125 
Q 16.890625 -13.28125 18.9375 -11.515625 
Q 21 -9.765625 23.484375 -3.21875 
L 25.09375 0.875 
L 2.984375 54.6875 
L 12.5 54.6875 
L 29.59375 11.921875 
L 46.6875 54.6875 
L 56.203125 54.6875 
z
" id="DejaVuSans-121"/>
       <path d="M 55.71875 33.015625 
L 49.3125 0 
L 40.28125 0 
L 46.6875 32.671875 
Q 47.125 34.96875 47.359375 36.71875 
Q 47.609375 38.484375 47.609375 39.5 
Q 47.609375 43.609375 45.015625 45.890625 
Q 42.4375 48.1875 37.796875 48.1875 
Q 30.5625 48.1875 25.34375 43.375 
Q 20.125 38.578125 18.5 30.328125 
L 12.5 0 
L 3.515625 0 
L 14.109375 54.6875 
L 23.09375 54.6875 
L 21.296875 46.09375 
Q 25.046875 50.828125 30.3125 53.40625 
Q 35.59375 56 41.40625 56 
Q 48.640625 56 52.609375 52.09375 
Q 56.59375 48.1875 56.59375 41.109375 
Q 56.59375 39.359375 56.375 37.359375 
Q 56.15625 35.359375 55.71875 33.015625 
z
" id="DejaVuSans-Oblique-110"/>
       <path d="M 31 75.875 
Q 24.46875 64.65625 21.28125 53.65625 
Q 18.109375 42.671875 18.109375 31.390625 
Q 18.109375 20.125 21.3125 9.0625 
Q 24.515625 -2 31 -13.1875 
L 23.1875 -13.1875 
Q 15.875 -1.703125 12.234375 9.375 
Q 8.59375 20.453125 8.59375 31.390625 
Q 8.59375 42.28125 12.203125 53.3125 
Q 15.828125 64.359375 23.1875 75.875 
z
" id="DejaVuSans-40"/>
       <path d="M 9.078125 75.984375 
L 18.109375 75.984375 
L 18.109375 31.109375 
L 44.921875 54.6875 
L 56.390625 54.6875 
L 27.390625 29.109375 
L 57.625 0 
L 45.90625 0 
L 18.109375 26.703125 
L 18.109375 0 
L 9.078125 0 
z
" id="DejaVuSans-107"/>
       <path d="M 4.203125 54.6875 
L 13.1875 54.6875 
L 24.421875 12.015625 
L 35.59375 54.6875 
L 46.1875 54.6875 
L 57.421875 12.015625 
L 68.609375 54.6875 
L 77.59375 54.6875 
L 63.28125 0 
L 52.6875 0 
L 40.921875 44.828125 
L 29.109375 0 
L 18.5 0 
z
" id="DejaVuSans-119"/>
       <path d="M 45.40625 27.984375 
Q 45.40625 37.75 41.375 43.109375 
Q 37.359375 48.484375 30.078125 48.484375 
Q 22.859375 48.484375 18.828125 43.109375 
Q 14.796875 37.75 14.796875 27.984375 
Q 14.796875 18.265625 18.828125 12.890625 
Q 22.859375 7.515625 30.078125 7.515625 
Q 37.359375 7.515625 41.375 12.890625 
Q 45.40625 18.265625 45.40625 27.984375 
z
M 54.390625 6.78125 
Q 54.390625 -7.171875 48.1875 -13.984375 
Q 42 -20.796875 29.203125 -20.796875 
Q 24.46875 -20.796875 20.265625 -20.09375 
Q 16.0625 -19.390625 12.109375 -17.921875 
L 12.109375 -9.1875 
Q 16.0625 -11.328125 19.921875 -12.34375 
Q 23.78125 -13.375 27.78125 -13.375 
Q 36.625 -13.375 41.015625 -8.765625 
Q 45.40625 -4.15625 45.40625 5.171875 
L 45.40625 9.625 
Q 42.625 4.78125 38.28125 2.390625 
Q 33.9375 0 27.875 0 
Q 17.828125 0 11.671875 7.65625 
Q 5.515625 15.328125 5.515625 27.984375 
Q 5.515625 40.671875 11.671875 48.328125 
Q 17.828125 56 27.875 56 
Q 33.9375 56 38.28125 53.609375 
Q 42.625 51.21875 45.40625 46.390625 
L 45.40625 54.6875 
L 54.390625 54.6875 
z
" id="DejaVuSans-103"/>
       <path d="M 37.796875 64.3125 
L 12.890625 25.390625 
L 37.796875 25.390625 
z
M 35.203125 72.90625 
L 47.609375 72.90625 
L 47.609375 25.390625 
L 58.015625 25.390625 
L 58.015625 17.1875 
L 47.609375 17.1875 
L 47.609375 0 
L 37.796875 0 
L 37.796875 17.1875 
L 4.890625 17.1875 
L 4.890625 26.703125 
z
" id="DejaVuSans-52"/>
       <path d="M 8.015625 75.875 
L 15.828125 75.875 
Q 23.140625 64.359375 26.78125 53.3125 
Q 30.421875 42.28125 30.421875 31.390625 
Q 30.421875 20.453125 26.78125 9.375 
Q 23.140625 -1.703125 15.828125 -13.1875 
L 8.015625 -13.1875 
Q 14.5 -2 17.703125 9.0625 
Q 20.90625 20.125 20.90625 31.390625 
Q 20.90625 42.671875 17.703125 53.65625 
Q 14.5 64.65625 8.015625 75.875 
z
" id="DejaVuSans-41"/>
      </defs>
      <use transform="translate(0 0.015625)" xlink:href="#DejaVuSans-99"/>
      <use transform="translate(54.980469 0.015625)" xlink:href="#DejaVuSans-97"/>
      <use transform="translate(116.259766 0.015625)" xlink:href="#DejaVuSans-115"/>
      <use transform="translate(168.359375 0.015625)" xlink:href="#DejaVuSans-101"/>
      <use transform="translate(229.882812 0.015625)" xlink:href="#DejaVuSans-115"/>
      <use transform="translate(281.982422 0.015625)" xlink:href="#DejaVuSans-32"/>
      <use transform="translate(313.769531 0.015625)" xlink:href="#DejaVuSans-100"/>
      <use transform="translate(377.246094 0.015625)" xlink:href="#DejaVuSans-111"/>
      <use transform="translate(438.427734 0.015625)" xlink:href="#DejaVuSans-117"/>
      <use transform="translate(501.806641 0.015625)" xlink:href="#DejaVuSans-98"/>
      <use transform="translate(565.283203 0.015625)" xlink:href="#DejaVuSans-108"/>
      <use transform="translate(593.066406 0.015625)" xlink:href="#DejaVuSans-101"/>
      <use transform="translate(654.589844 0.015625)" xlink:href="#DejaVuSans-32"/>
      <use transform="translate(686.376953 0.015625)" xlink:href="#DejaVuSans-101"/>
      <use transform="translate(747.900391 0.015625)" xlink:href="#DejaVuSans-118"/>
      <use transform="translate(807.080078 0.015625)" xlink:href="#DejaVuSans-101"/>
      <use transform="translate(868.603516 0.015625)" xlink:href="#DejaVuSans-114"/>
      <use transform="translate(909.716797 0.015625)" xlink:href="#DejaVuSans-121"/>
      <use transform="translate(968.896484 0.015625)" xlink:href="#DejaVuSans-32"/>
      <use transform="translate(1000.683594 0.015625)" xlink:href="#DejaVuSans-Oblique-110"/>
      <use transform="translate(1064.0625 0.015625)" xlink:href="#DejaVuSans-32"/>
      <use transform="translate(1095.849609 0.015625)" xlink:href="#DejaVuSans-100"/>
      <use transform="translate(1159.326172 0.015625)" xlink:href="#DejaVuSans-97"/>
      <use transform="translate(1220.605469 0.015625)" xlink:href="#DejaVuSans-121"/>
      <use transform="translate(1279.785156 0.015625)" xlink:href="#DejaVuSans-115"/>
      <use transform="translate(1331.884766 0.015625)" xlink:href="#DejaVuSans-32"/>
      <use transform="translate(1363.671875 0.015625)" xlink:href="#DejaVuSans-40"/>
      <use transform="translate(1402.685547 0.015625)" xlink:href="#DejaVuSans-98"/>
      <use transform="translate(1466.162109 0.015625)" xlink:href="#DejaVuSans-97"/>
      <use transform="translate(1527.441406 0.015625)" xlink:href="#DejaVuSans-99"/>
      <use transform="translate(1582.421875 0.015625)" xlink:href="#DejaVuSans-107"/>
      <use transform="translate(1640.332031 0.015625)" xlink:href="#DejaVuSans-119"/>
      <use transform="translate(1722.119141 0.015625)" xlink:href="#DejaVuSans-32"/>
      <use transform="translate(1753.90625 0.015625)" xlink:href="#DejaVuSans-97"/>
      <use transform="translate(1815.185547 0.015625)" xlink:href="#DejaVuSans-118"/>
      <use transform="translate(1874.365234 0.015625)" xlink:href="#DejaVuSans-103"/>
      <use transform="translate(1937.841797 0.015625)" xlink:href="#DejaVuSans-32"/>
      <use transform="translate(1969.628906 0.015625)" xlink:href="#DejaVuSans-111"/>
      <use transform="translate(2030.810547 0.015625)" xlink:href="#DejaVuSans-118"/>
      <use transform="translate(2089.990234 0.015625)" xlink:href="#DejaVuSans-101"/>
      <use transform="translate(2151.513672 0.015625)" xlink:href="#DejaVuSans-114"/>
      <use transform="translate(2192.626953 0.015625)" xlink:href="#DejaVuSans-32"/>
      <use transform="translate(2224.414062 0.015625)" xlink:href="#DejaVuSans-52"/>
      <use transform="translate(2288.037109 0.015625)" xlink:href="#DejaVuSans-32"/>
      <use transform="translate(2319.824219 0.015625)" xlink:href="#DejaVuSans-100"/>
      <use transform="translate(2383.300781 0.015625)" xlink:href="#DejaVuSans-97"/>
      <use transform="translate(2444.580078 0.015625)" xlink:href="#DejaVuSans-121"/>
      <use transform="translate(2503.759766 0.015625)" xlink:href="#DejaVuSans-115"/>
      <use transform="translate(2555.859375 0.015625)" xlink:href="#DejaVuSans-41"/>
     </g>
    </g>
   </g>
   <g id="line2d_119">
    <path clip-path="url(#p04181052d6)" d="M 149.972727 482.077813 
L 152.193113 482.077813 
L 154.413499 458.958412 
L 156.633884 458.958412 
M 161.074656 242.85324 
L 163.295041 407.985612 
L 165.515427 407.985612 
L 167.735813 450.254962 
L 169.956198 431.489964 
L 172.176584 391.327608 
L 174.39697 391.327608 
L 176.358982 -1 
M 188.287671 -1 
L 189.939669 292.208167 
L 192.160055 292.208167 
L 194.380441 168.910776 
L 196.600826 168.910776 
M 207.702755 454.587284 
L 212.143526 454.587284 
L 214.363912 473.671281 
L 216.584298 394.0988 
L 218.804683 418.4444 
L 221.025069 421.38163 
L 223.245455 199.026337 
L 225.46584 335.834272 
L 227.686226 318.371678 
L 229.906612 418.188746 
L 232.126997 439.972085 
L 234.347383 449.735207 
L 236.567769 466.559253 
L 238.788154 464.059345 
L 241.00854 472.619387 
L 243.228926 473.463907 
L 245.449311 463.79717 
L 247.669697 472.916883 
L 249.890083 468.812592 
L 252.110468 469.125496 
L 254.330854 474.253692 
L 256.55124 465.556661 
L 258.771625 463.688795 
L 260.992011 464.622041 
L 263.212397 467.125439 
L 265.432782 465.771662 
L 267.653168 476.564116 
L 269.873554 477.92119 
L 272.093939 476.987611 
L 274.314325 479.184094 
L 276.534711 470.280685 
L 278.755096 465.133047 
L 280.975482 460.778089 
L 283.195868 458.407514 
L 285.416253 454.458061 
L 287.636639 452.314966 
L 289.857025 447.990191 
L 292.07741 437.845424 
L 294.297796 432.685882 
L 296.518182 425.28027 
L 300.958953 420.202273 
L 303.179339 413.364233 
L 305.399725 405.044143 
L 307.62011 392.290929 
L 309.840496 377.145545 
L 312.060882 363.140069 
L 314.281267 356.079018 
L 316.501653 350.403063 
L 318.722039 339.42526 
L 320.942424 321.600093 
L 323.16281 298.257074 
L 325.383196 268.882594 
L 327.603581 253.502993 
L 329.823967 245.96746 
L 332.044353 248.630499 
L 334.264738 248.723086 
L 336.485124 233.354106 
L 338.70551 206.672418 
L 340.925895 182.078066 
L 343.146281 155.242702 
L 345.366667 149.31344 
L 347.587052 169.732799 
L 349.807438 172.796886 
L 352.027824 159.312618 
L 354.248209 129.081241 
L 356.468595 73.274356 
L 358.688981 34.039291 
L 360.909366 30.277357 
L 363.129752 67.429397 
L 365.350138 73.33629 
L 367.570523 55.537555 
L 369.790909 14.264359 
L 370.31843 -1 
L 370.31843 -1 
" style="fill:none;stroke:#1f77b4;stroke-linecap:square;stroke-width:1.5;"/>
    <defs>
     <path d="M 0 3 
C 0.795609 3 1.55874 2.683901 2.12132 2.12132 
C 2.683901 1.55874 3 0.795609 3 0 
C 3 -0.795609 2.683901 -1.55874 2.12132 -2.12132 
C 1.55874 -2.683901 0.795609 -3 0 -3 
C -0.795609 -3 -1.55874 -2.683901 -2.12132 -2.12132 
C -2.683901 -1.55874 -3 -0.795609 -3 0 
C -3 0.795609 -2.683901 1.55874 -2.12132 2.12132 
C -1.55874 2.683901 -0.795609 3 0 3 
z
" id="m67192915fa" style="stroke:#1f77b4;"/>
    </defs>
    <g clip-path="url(#p04181052d6)">
     <use style="fill:#1f77b4;stroke:#1f77b4;" x="149.972727" xlink:href="#m67192915fa" y="482.077813"/>
     <use style="fill:#1f77b4;stroke:#1f77b4;" x="152.193113" xlink:href="#m67192915fa" y="482.077813"/>
     <use style="fill:#1f77b4;stroke:#1f77b4;" x="154.413499" xlink:href="#m67192915fa" y="458.958412"/>
     <use style="fill:#1f77b4;stroke:#1f77b4;" x="156.633884" xlink:href="#m67192915fa" y="458.958412"/>
     <use style="fill:#1f77b4;stroke:#1f77b4;" x="161.074656" xlink:href="#m67192915fa" y="242.85324"/>
     <use style="fill:#1f77b4;stroke:#1f77b4;" x="163.295041" xlink:href="#m67192915fa" y="407.985612"/>
     <use style="fill:#1f77b4;stroke:#1f77b4;" x="165.515427" xlink:href="#m67192915fa" y="407.985612"/>
     <use style="fill:#1f77b4;stroke:#1f77b4;" x="167.735813" xlink:href="#m67192915fa" y="450.254962"/>
     <use style="fill:#1f77b4;stroke:#1f77b4;" x="169.956198" xlink:href="#m67192915fa" y="431.489964"/>
     <use style="fill:#1f77b4;stroke:#1f77b4;" x="172.176584" xlink:href="#m67192915fa" y="391.327608"/>
     <use style="fill:#1f77b4;stroke:#1f77b4;" x="174.39697" xlink:href="#m67192915fa" y="391.327608"/>
     <use style="fill:#1f77b4;stroke:#1f77b4;" x="176.358982" xlink:href="#m67192915fa" y="-1"/>
     <use style="fill:#1f77b4;stroke:#1f77b4;" x="188.287671" xlink:href="#m67192915fa" y="-1"/>
     <use style="fill:#1f77b4;stroke:#1f77b4;" x="189.939669" xlink:href="#m67192915fa" y="292.208167"/>
     <use style="fill:#1f77b4;stroke:#1f77b4;" x="192.160055" xlink:href="#m67192915fa" y="292.208167"/>
     <use style="fill:#1f77b4;stroke:#1f77b4;" x="194.380441" xlink:href="#m67192915fa" y="168.910776"/>
     <use style="fill:#1f77b4;stroke:#1f77b4;" x="196.600826" xlink:href="#m67192915fa" y="168.910776"/>
     <use style="fill:#1f77b4;stroke:#1f77b4;" x="207.702755" xlink:href="#m67192915fa" y="454.587284"/>
     <use style="fill:#1f77b4;stroke:#1f77b4;" x="209.92314" xlink:href="#m67192915fa" y="454.587284"/>
     <use style="fill:#1f77b4;stroke:#1f77b4;" x="212.143526" xlink:href="#m67192915fa" y="454.587284"/>
     <use style="fill:#1f77b4;stroke:#1f77b4;" x="214.363912" xlink:href="#m67192915fa" y="473.671281"/>
     <use style="fill:#1f77b4;stroke:#1f77b4;" x="216.584298" xlink:href="#m67192915fa" y="394.0988"/>
     <use style="fill:#1f77b4;stroke:#1f77b4;" x="218.804683" xlink:href="#m67192915fa" y="418.4444"/>
     <use style="fill:#1f77b4;stroke:#1f77b4;" x="221.025069" xlink:href="#m67192915fa" y="421.38163"/>
     <use style="fill:#1f77b4;stroke:#1f77b4;" x="223.245455" xlink:href="#m67192915fa" y="199.026337"/>
     <use style="fill:#1f77b4;stroke:#1f77b4;" x="225.46584" xlink:href="#m67192915fa" y="335.834272"/>
     <use style="fill:#1f77b4;stroke:#1f77b4;" x="227.686226" xlink:href="#m67192915fa" y="318.371678"/>
     <use style="fill:#1f77b4;stroke:#1f77b4;" x="229.906612" xlink:href="#m67192915fa" y="418.188746"/>
     <use style="fill:#1f77b4;stroke:#1f77b4;" x="232.126997" xlink:href="#m67192915fa" y="439.972085"/>
     <use style="fill:#1f77b4;stroke:#1f77b4;" x="234.347383" xlink:href="#m67192915fa" y="449.735207"/>
     <use style="fill:#1f77b4;stroke:#1f77b4;" x="236.567769" xlink:href="#m67192915fa" y="466.559253"/>
     <use style="fill:#1f77b4;stroke:#1f77b4;" x="238.788154" xlink:href="#m67192915fa" y="464.059345"/>
     <use style="fill:#1f77b4;stroke:#1f77b4;" x="241.00854" xlink:href="#m67192915fa" y="472.619387"/>
     <use style="fill:#1f77b4;stroke:#1f77b4;" x="243.228926" xlink:href="#m67192915fa" y="473.463907"/>
     <use style="fill:#1f77b4;stroke:#1f77b4;" x="245.449311" xlink:href="#m67192915fa" y="463.79717"/>
     <use style="fill:#1f77b4;stroke:#1f77b4;" x="247.669697" xlink:href="#m67192915fa" y="472.916883"/>
     <use style="fill:#1f77b4;stroke:#1f77b4;" x="249.890083" xlink:href="#m67192915fa" y="468.812592"/>
     <use style="fill:#1f77b4;stroke:#1f77b4;" x="252.110468" xlink:href="#m67192915fa" y="469.125496"/>
     <use style="fill:#1f77b4;stroke:#1f77b4;" x="254.330854" xlink:href="#m67192915fa" y="474.253692"/>
     <use style="fill:#1f77b4;stroke:#1f77b4;" x="256.55124" xlink:href="#m67192915fa" y="465.556661"/>
     <use style="fill:#1f77b4;stroke:#1f77b4;" x="258.771625" xlink:href="#m67192915fa" y="463.688795"/>
     <use style="fill:#1f77b4;stroke:#1f77b4;" x="260.992011" xlink:href="#m67192915fa" y="464.622041"/>
     <use style="fill:#1f77b4;stroke:#1f77b4;" x="263.212397" xlink:href="#m67192915fa" y="467.125439"/>
     <use style="fill:#1f77b4;stroke:#1f77b4;" x="265.432782" xlink:href="#m67192915fa" y="465.771662"/>
     <use style="fill:#1f77b4;stroke:#1f77b4;" x="267.653168" xlink:href="#m67192915fa" y="476.564116"/>
     <use style="fill:#1f77b4;stroke:#1f77b4;" x="269.873554" xlink:href="#m67192915fa" y="477.92119"/>
     <use style="fill:#1f77b4;stroke:#1f77b4;" x="272.093939" xlink:href="#m67192915fa" y="476.987611"/>
     <use style="fill:#1f77b4;stroke:#1f77b4;" x="274.314325" xlink:href="#m67192915fa" y="479.184094"/>
     <use style="fill:#1f77b4;stroke:#1f77b4;" x="276.534711" xlink:href="#m67192915fa" y="470.280685"/>
     <use style="fill:#1f77b4;stroke:#1f77b4;" x="278.755096" xlink:href="#m67192915fa" y="465.133047"/>
     <use style="fill:#1f77b4;stroke:#1f77b4;" x="280.975482" xlink:href="#m67192915fa" y="460.778089"/>
     <use style="fill:#1f77b4;stroke:#1f77b4;" x="283.195868" xlink:href="#m67192915fa" y="458.407514"/>
     <use style="fill:#1f77b4;stroke:#1f77b4;" x="285.416253" xlink:href="#m67192915fa" y="454.458061"/>
     <use style="fill:#1f77b4;stroke:#1f77b4;" x="287.636639" xlink:href="#m67192915fa" y="452.314966"/>
     <use style="fill:#1f77b4;stroke:#1f77b4;" x="289.857025" xlink:href="#m67192915fa" y="447.990191"/>
     <use style="fill:#1f77b4;stroke:#1f77b4;" x="292.07741" xlink:href="#m67192915fa" y="437.845424"/>
     <use style="fill:#1f77b4;stroke:#1f77b4;" x="294.297796" xlink:href="#m67192915fa" y="432.685882"/>
     <use style="fill:#1f77b4;stroke:#1f77b4;" x="296.518182" xlink:href="#m67192915fa" y="425.28027"/>
     <use style="fill:#1f77b4;stroke:#1f77b4;" x="298.738567" xlink:href="#m67192915fa" y="422.812995"/>
     <use style="fill:#1f77b4;stroke:#1f77b4;" x="300.958953" xlink:href="#m67192915fa" y="420.202273"/>
     <use style="fill:#1f77b4;stroke:#1f77b4;" x="303.179339" xlink:href="#m67192915fa" y="413.364233"/>
     <use style="fill:#1f77b4;stroke:#1f77b4;" x="305.399725" xlink:href="#m67192915fa" y="405.044143"/>
     <use style="fill:#1f77b4;stroke:#1f77b4;" x="307.62011" xlink:href="#m67192915fa" y="392.290929"/>
     <use style="fill:#1f77b4;stroke:#1f77b4;" x="309.840496" xlink:href="#m67192915fa" y="377.145545"/>
     <use style="fill:#1f77b4;stroke:#1f77b4;" x="312.060882" xlink:href="#m67192915fa" y="363.140069"/>
     <use style="fill:#1f77b4;stroke:#1f77b4;" x="314.281267" xlink:href="#m67192915fa" y="356.079018"/>
     <use style="fill:#1f77b4;stroke:#1f77b4;" x="316.501653" xlink:href="#m67192915fa" y="350.403063"/>
     <use style="fill:#1f77b4;stroke:#1f77b4;" x="318.722039" xlink:href="#m67192915fa" y="339.42526"/>
     <use style="fill:#1f77b4;stroke:#1f77b4;" x="320.942424" xlink:href="#m67192915fa" y="321.600093"/>
     <use style="fill:#1f77b4;stroke:#1f77b4;" x="323.16281" xlink:href="#m67192915fa" y="298.257074"/>
     <use style="fill:#1f77b4;stroke:#1f77b4;" x="325.383196" xlink:href="#m67192915fa" y="268.882594"/>
     <use style="fill:#1f77b4;stroke:#1f77b4;" x="327.603581" xlink:href="#m67192915fa" y="253.502993"/>
     <use style="fill:#1f77b4;stroke:#1f77b4;" x="329.823967" xlink:href="#m67192915fa" y="245.96746"/>
     <use style="fill:#1f77b4;stroke:#1f77b4;" x="332.044353" xlink:href="#m67192915fa" y="248.630499"/>
     <use style="fill:#1f77b4;stroke:#1f77b4;" x="334.264738" xlink:href="#m67192915fa" y="248.723086"/>
     <use style="fill:#1f77b4;stroke:#1f77b4;" x="336.485124" xlink:href="#m67192915fa" y="233.354106"/>
     <use style="fill:#1f77b4;stroke:#1f77b4;" x="338.70551" xlink:href="#m67192915fa" y="206.672418"/>
     <use style="fill:#1f77b4;stroke:#1f77b4;" x="340.925895" xlink:href="#m67192915fa" y="182.078066"/>
     <use style="fill:#1f77b4;stroke:#1f77b4;" x="343.146281" xlink:href="#m67192915fa" y="155.242702"/>
     <use style="fill:#1f77b4;stroke:#1f77b4;" x="345.366667" xlink:href="#m67192915fa" y="149.31344"/>
     <use style="fill:#1f77b4;stroke:#1f77b4;" x="347.587052" xlink:href="#m67192915fa" y="169.732799"/>
     <use style="fill:#1f77b4;stroke:#1f77b4;" x="349.807438" xlink:href="#m67192915fa" y="172.796886"/>
     <use style="fill:#1f77b4;stroke:#1f77b4;" x="352.027824" xlink:href="#m67192915fa" y="159.312618"/>
     <use style="fill:#1f77b4;stroke:#1f77b4;" x="354.248209" xlink:href="#m67192915fa" y="129.081241"/>
     <use style="fill:#1f77b4;stroke:#1f77b4;" x="356.468595" xlink:href="#m67192915fa" y="73.274356"/>
     <use style="fill:#1f77b4;stroke:#1f77b4;" x="358.688981" xlink:href="#m67192915fa" y="34.039291"/>
     <use style="fill:#1f77b4;stroke:#1f77b4;" x="360.909366" xlink:href="#m67192915fa" y="30.277357"/>
     <use style="fill:#1f77b4;stroke:#1f77b4;" x="363.129752" xlink:href="#m67192915fa" y="67.429397"/>
     <use style="fill:#1f77b4;stroke:#1f77b4;" x="365.350138" xlink:href="#m67192915fa" y="73.33629"/>
     <use style="fill:#1f77b4;stroke:#1f77b4;" x="367.570523" xlink:href="#m67192915fa" y="55.537555"/>
     <use style="fill:#1f77b4;stroke:#1f77b4;" x="369.790909" xlink:href="#m67192915fa" y="14.264359"/>
     <use style="fill:#1f77b4;stroke:#1f77b4;" x="370.31843" xlink:href="#m67192915fa" y="-1"/>
    </g>
   </g>
   <g id="patch_3">
    <path d="M 117 512.64 
L 117 69.12 
" style="fill:none;stroke:#000000;stroke-linecap:square;stroke-linejoin:miter;stroke-width:0.8;"/>
   </g>
   <g id="patch_4">
    <path d="M 842.4 512.64 
L 842.4 69.12 
" style="fill:none;stroke:#000000;stroke-linecap:square;stroke-linejoin:miter;stroke-width:0.8;"/>
   </g>
   <g id="patch_5">
    <path d="M 117 512.64 
L 842.4 512.64 
" style="fill:none;stroke:#000000;stroke-linecap:square;stroke-linejoin:miter;stroke-width:0.8;"/>
   </g>
   <g id="patch_6">
    <path d="M 117 69.12 
L 842.4 69.12 
" style="fill:none;stroke:#000000;stroke-linecap:square;stroke-linejoin:miter;stroke-width:0.8;"/>
   </g>
   <g id="text_15">
    <!-- Confirmed cases in United States double every $n$ days (2020-01-22..2020-11-18) -->
    <g transform="translate(236.88 63.12)scale(0.12 -0.12)">
     <defs>
      <path d="M 64.40625 67.28125 
L 64.40625 56.890625 
Q 59.421875 61.53125 53.78125 63.8125 
Q 48.140625 66.109375 41.796875 66.109375 
Q 29.296875 66.109375 22.65625 58.46875 
Q 16.015625 50.828125 16.015625 36.375 
Q 16.015625 21.96875 22.65625 14.328125 
Q 29.296875 6.6875 41.796875 6.6875 
Q 48.140625 6.6875 53.78125 8.984375 
Q 59.421875 11.28125 64.40625 15.921875 
L 64.40625 5.609375 
Q 59.234375 2.09375 53.4375 0.328125 
Q 47.65625 -1.421875 41.21875 -1.421875 
Q 24.65625 -1.421875 15.125 8.703125 
Q 5.609375 18.84375 5.609375 36.375 
Q 5.609375 53.953125 15.125 64.078125 
Q 24.65625 74.21875 41.21875 74.21875 
Q 47.75 74.21875 53.53125 72.484375 
Q 59.328125 70.75 64.40625 67.28125 
z
" id="DejaVuSans-67"/>
      <path d="M 54.890625 33.015625 
L 54.890625 0 
L 45.90625 0 
L 45.90625 32.71875 
Q 45.90625 40.484375 42.875 44.328125 
Q 39.84375 48.1875 33.796875 48.1875 
Q 26.515625 48.1875 22.3125 43.546875 
Q 18.109375 38.921875 18.109375 30.90625 
L 18.109375 0 
L 9.078125 0 
L 9.078125 54.6875 
L 18.109375 54.6875 
L 18.109375 46.1875 
Q 21.34375 51.125 25.703125 53.5625 
Q 30.078125 56 35.796875 56 
Q 45.21875 56 50.046875 50.171875 
Q 54.890625 44.34375 54.890625 33.015625 
z
" id="DejaVuSans-110"/>
      <path d="M 37.109375 75.984375 
L 37.109375 68.5 
L 28.515625 68.5 
Q 23.6875 68.5 21.796875 66.546875 
Q 19.921875 64.59375 19.921875 59.515625 
L 19.921875 54.6875 
L 34.71875 54.6875 
L 34.71875 47.703125 
L 19.921875 47.703125 
L 19.921875 0 
L 10.890625 0 
L 10.890625 47.703125 
L 2.296875 47.703125 
L 2.296875 54.6875 
L 10.890625 54.6875 
L 10.890625 58.5 
Q 10.890625 67.625 15.140625 71.796875 
Q 19.390625 75.984375 28.609375 75.984375 
z
" id="DejaVuSans-102"/>
      <path d="M 9.421875 54.6875 
L 18.40625 54.6875 
L 18.40625 0 
L 9.421875 0 
z
M 9.421875 75.984375 
L 18.40625 75.984375 
L 18.40625 64.59375 
L 9.421875 64.59375 
z
" id="DejaVuSans-105"/>
      <path d="M 52 44.1875 
Q 55.375 50.25 60.0625 53.125 
Q 64.75 56 71.09375 56 
Q 79.640625 56 84.28125 50.015625 
Q 88.921875 44.046875 88.921875 33.015625 
L 88.921875 0 
L 79.890625 0 
L 79.890625 32.71875 
Q 79.890625 40.578125 77.09375 44.375 
Q 74.3125 48.1875 68.609375 48.1875 
Q 61.625 48.1875 57.5625 43.546875 
Q 53.515625 38.921875 53.515625 30.90625 
L 53.515625 0 
L 44.484375 0 
L 44.484375 32.71875 
Q 44.484375 40.625 41.703125 44.40625 
Q 38.921875 48.1875 33.109375 48.1875 
Q 26.21875 48.1875 22.15625 43.53125 
Q 18.109375 38.875 18.109375 30.90625 
L 18.109375 0 
L 9.078125 0 
L 9.078125 54.6875 
L 18.109375 54.6875 
L 18.109375 46.1875 
Q 21.1875 51.21875 25.484375 53.609375 
Q 29.78125 56 35.6875 56 
Q 41.65625 56 45.828125 52.96875 
Q 50 49.953125 52 44.1875 
z
" id="DejaVuSans-109"/>
      <path d="M 8.6875 72.90625 
L 18.609375 72.90625 
L 18.609375 28.609375 
Q 18.609375 16.890625 22.84375 11.734375 
Q 27.09375 6.59375 36.625 6.59375 
Q 46.09375 6.59375 50.34375 11.734375 
Q 54.59375 16.890625 54.59375 28.609375 
L 54.59375 72.90625 
L 64.5 72.90625 
L 64.5 27.390625 
Q 64.5 13.140625 57.4375 5.859375 
Q 50.390625 -1.421875 36.625 -1.421875 
Q 22.796875 -1.421875 15.734375 5.859375 
Q 8.6875 13.140625 8.6875 27.390625 
z
" id="DejaVuSans-85"/>
      <path d="M 18.3125 70.21875 
L 18.3125 54.6875 
L 36.8125 54.6875 
L 36.8125 47.703125 
L 18.3125 47.703125 
L 18.3125 18.015625 
Q 18.3125 11.328125 20.140625 9.421875 
Q 21.96875 7.515625 27.59375 7.515625 
L 36.8125 7.515625 
L 36.8125 0 
L 27.59375 0 
Q 17.1875 0 13.234375 3.875 
Q 9.28125 7.765625 9.28125 18.015625 
L 9.28125 47.703125 
L 2.6875 47.703125 
L 2.6875 54.6875 
L 9.28125 54.6875 
L 9.28125 70.21875 
z
" id="DejaVuSans-116"/>
      <path d="M 53.515625 70.515625 
L 53.515625 60.890625 
Q 47.90625 63.578125 42.921875 64.890625 
Q 37.9375 66.21875 33.296875 66.21875 
Q 25.25 66.21875 20.875 63.09375 
Q 16.5 59.96875 16.5 54.203125 
Q 16.5 49.359375 19.40625 46.890625 
Q 22.3125 44.4375 30.421875 42.921875 
L 36.375 41.703125 
Q 47.40625 39.59375 52.65625 34.296875 
Q 57.90625 29 57.90625 20.125 
Q 57.90625 9.515625 50.796875 4.046875 
Q 43.703125 -1.421875 29.984375 -1.421875 
Q 24.8125 -1.421875 18.96875 -0.25 
Q 13.140625 0.921875 6.890625 3.21875 
L 6.890625 13.375 
Q 12.890625 10.015625 18.65625 8.296875 
Q 24.421875 6.59375 29.984375 6.59375 
Q 38.421875 6.59375 43.015625 9.90625 
Q 47.609375 13.234375 47.609375 19.390625 
Q 47.609375 24.75 44.3125 27.78125 
Q 41.015625 30.8125 33.5 32.328125 
L 27.484375 33.5 
Q 16.453125 35.6875 11.515625 40.375 
Q 6.59375 45.0625 6.59375 53.421875 
Q 6.59375 63.09375 13.40625 68.65625 
Q 20.21875 74.21875 32.171875 74.21875 
Q 37.3125 74.21875 42.625 73.28125 
Q 47.953125 72.359375 53.515625 70.515625 
z
" id="DejaVuSans-83"/>
      <path d="M 10.6875 12.40625 
L 21 12.40625 
L 21 0 
L 10.6875 0 
z
" id="DejaVuSans-46"/>
     </defs>
     <use transform="translate(0 0.015625)" xlink:href="#DejaVuSans-67"/>
     <use transform="translate(69.824219 0.015625)" xlink:href="#DejaVuSans-111"/>
     <use transform="translate(131.005859 0.015625)" xlink:href="#DejaVuSans-110"/>
     <use transform="translate(194.384766 0.015625)" xlink:href="#DejaVuSans-102"/>
     <use transform="translate(229.589844 0.015625)" xlink:href="#DejaVuSans-105"/>
     <use transform="translate(257.373047 0.015625)" xlink:href="#DejaVuSans-114"/>
     <use transform="translate(298.486328 0.015625)" xlink:href="#DejaVuSans-109"/>
     <use transform="translate(395.898438 0.015625)" xlink:href="#DejaVuSans-101"/>
     <use transform="translate(457.421875 0.015625)" xlink:href="#DejaVuSans-100"/>
     <use transform="translate(520.898438 0.015625)" xlink:href="#DejaVuSans-32"/>
     <use transform="translate(552.685547 0.015625)" xlink:href="#DejaVuSans-99"/>
     <use transform="translate(607.666016 0.015625)" xlink:href="#DejaVuSans-97"/>
     <use transform="translate(668.945312 0.015625)" xlink:href="#DejaVuSans-115"/>
     <use transform="translate(721.044922 0.015625)" xlink:href="#DejaVuSans-101"/>
     <use transform="translate(782.568359 0.015625)" xlink:href="#DejaVuSans-115"/>
     <use transform="translate(834.667969 0.015625)" xlink:href="#DejaVuSans-32"/>
     <use transform="translate(866.455078 0.015625)" xlink:href="#DejaVuSans-105"/>
     <use transform="translate(894.238281 0.015625)" xlink:href="#DejaVuSans-110"/>
     <use transform="translate(957.617188 0.015625)" xlink:href="#DejaVuSans-32"/>
     <use transform="translate(989.404297 0.015625)" xlink:href="#DejaVuSans-85"/>
     <use transform="translate(1062.597656 0.015625)" xlink:href="#DejaVuSans-110"/>
     <use transform="translate(1125.976562 0.015625)" xlink:href="#DejaVuSans-105"/>
     <use transform="translate(1153.759766 0.015625)" xlink:href="#DejaVuSans-116"/>
     <use transform="translate(1192.96875 0.015625)" xlink:href="#DejaVuSans-101"/>
     <use transform="translate(1254.492188 0.015625)" xlink:href="#DejaVuSans-100"/>
     <use transform="translate(1317.96875 0.015625)" xlink:href="#DejaVuSans-32"/>
     <use transform="translate(1349.755859 0.015625)" xlink:href="#DejaVuSans-83"/>
     <use transform="translate(1413.232422 0.015625)" xlink:href="#DejaVuSans-116"/>
     <use transform="translate(1452.441406 0.015625)" xlink:href="#DejaVuSans-97"/>
     <use transform="translate(1513.720703 0.015625)" xlink:href="#DejaVuSans-116"/>
     <use transform="translate(1552.929688 0.015625)" xlink:href="#DejaVuSans-101"/>
     <use transform="translate(1614.453125 0.015625)" xlink:href="#DejaVuSans-115"/>
     <use transform="translate(1666.552734 0.015625)" xlink:href="#DejaVuSans-32"/>
     <use transform="translate(1698.339844 0.015625)" xlink:href="#DejaVuSans-100"/>
     <use transform="translate(1761.816406 0.015625)" xlink:href="#DejaVuSans-111"/>
     <use transform="translate(1822.998047 0.015625)" xlink:href="#DejaVuSans-117"/>
     <use transform="translate(1886.376953 0.015625)" xlink:href="#DejaVuSans-98"/>
     <use transform="translate(1949.853516 0.015625)" xlink:href="#DejaVuSans-108"/>
     <use transform="translate(1977.636719 0.015625)" xlink:href="#DejaVuSans-101"/>
     <use transform="translate(2039.160156 0.015625)" xlink:href="#DejaVuSans-32"/>
     <use transform="translate(2070.947266 0.015625)" xlink:href="#DejaVuSans-101"/>
     <use transform="translate(2132.470703 0.015625)" xlink:href="#DejaVuSans-118"/>
     <use transform="translate(2191.650391 0.015625)" xlink:href="#DejaVuSans-101"/>
     <use transform="translate(2253.173828 0.015625)" xlink:href="#DejaVuSans-114"/>
     <use transform="translate(2294.287109 0.015625)" xlink:href="#DejaVuSans-121"/>
     <use transform="translate(2353.466797 0.015625)" xlink:href="#DejaVuSans-32"/>
     <use transform="translate(2385.253906 0.015625)" xlink:href="#DejaVuSans-Oblique-110"/>
     <use transform="translate(2448.632812 0.015625)" xlink:href="#DejaVuSans-32"/>
     <use transform="translate(2480.419922 0.015625)" xlink:href="#DejaVuSans-100"/>
     <use transform="translate(2543.896484 0.015625)" xlink:href="#DejaVuSans-97"/>
     <use transform="translate(2605.175781 0.015625)" xlink:href="#DejaVuSans-121"/>
     <use transform="translate(2664.355469 0.015625)" xlink:href="#DejaVuSans-115"/>
     <use transform="translate(2716.455078 0.015625)" xlink:href="#DejaVuSans-32"/>
     <use transform="translate(2748.242188 0.015625)" xlink:href="#DejaVuSans-40"/>
     <use transform="translate(2787.255859 0.015625)" xlink:href="#DejaVuSans-50"/>
     <use transform="translate(2850.878906 0.015625)" xlink:href="#DejaVuSans-48"/>
     <use transform="translate(2914.501953 0.015625)" xlink:href="#DejaVuSans-50"/>
     <use transform="translate(2978.125 0.015625)" xlink:href="#DejaVuSans-48"/>
     <use transform="translate(3041.748047 0.015625)" xlink:href="#DejaVuSans-45"/>
     <use transform="translate(3077.832031 0.015625)" xlink:href="#DejaVuSans-48"/>
     <use transform="translate(3141.455078 0.015625)" xlink:href="#DejaVuSans-49"/>
     <use transform="translate(3205.078125 0.015625)" xlink:href="#DejaVuSans-45"/>
     <use transform="translate(3241.162109 0.015625)" xlink:href="#DejaVuSans-50"/>
     <use transform="translate(3304.785156 0.015625)" xlink:href="#DejaVuSans-50"/>
     <use transform="translate(3368.408203 0.015625)" xlink:href="#DejaVuSans-46"/>
     <use transform="translate(3400.195312 0.015625)" xlink:href="#DejaVuSans-46"/>
     <use transform="translate(3426.482422 0.015625)" xlink:href="#DejaVuSans-50"/>
     <use transform="translate(3490.105469 0.015625)" xlink:href="#DejaVuSans-48"/>
     <use transform="translate(3553.728516 0.015625)" xlink:href="#DejaVuSans-50"/>
     <use transform="translate(3617.351562 0.015625)" xlink:href="#DejaVuSans-48"/>
     <use transform="translate(3680.974609 0.015625)" xlink:href="#DejaVuSans-45"/>
     <use transform="translate(3717.058594 0.015625)" xlink:href="#DejaVuSans-49"/>
     <use transform="translate(3780.681641 0.015625)" xlink:href="#DejaVuSans-49"/>
     <use transform="translate(3844.304688 0.015625)" xlink:href="#DejaVuSans-45"/>
     <use transform="translate(3880.388672 0.015625)" xlink:href="#DejaVuSans-49"/>
     <use transform="translate(3944.011719 0.015625)" xlink:href="#DejaVuSans-56"/>
     <use transform="translate(4007.634766 0.015625)" xlink:href="#DejaVuSans-41"/>
    </g>
   </g>
   <g id="legend_1">
    <g id="patch_7">
     <path d="M 770.254687 91.798125 
L 835.4 91.798125 
Q 837.4 91.798125 837.4 89.798125 
L 837.4 76.12 
Q 837.4 74.12 835.4 74.12 
L 770.254687 74.12 
Q 768.254687 74.12 768.254687 76.12 
L 768.254687 89.798125 
Q 768.254687 91.798125 770.254687 91.798125 
z
" style="fill:#ffffff;opacity:0.8;stroke:#cccccc;stroke-linejoin:miter;"/>
    </g>
    <g id="line2d_120">
     <path d="M 772.254687 82.218438 
L 792.254687 82.218438 
" style="fill:none;stroke:#1f77b4;stroke-linecap:square;stroke-width:1.5;"/>
    </g>
    <g id="line2d_121">
     <g>
      <use style="fill:#1f77b4;stroke:#1f77b4;" x="782.254687" xlink:href="#m67192915fa" y="82.218438"/>
     </g>
    </g>
    <g id="text_16">
     <!-- 4 days -->
     <g transform="translate(800.254687 85.718438)scale(0.1 -0.1)">
      <use xlink:href="#DejaVuSans-52"/>
      <use x="63.623047" xlink:href="#DejaVuSans-32"/>
      <use x="95.410156" xlink:href="#DejaVuSans-100"/>
      <use x="158.886719" xlink:href="#DejaVuSans-97"/>
      <use x="220.166016" xlink:href="#DejaVuSans-121"/>
      <use x="279.345703" xlink:href="#DejaVuSans-115"/>
     </g>
    </g>
   </g>
  </g>
 </g>
 <defs>
  <clipPath id="p04181052d6">
   <rect height="443.52" width="725.4" x="117" y="69.12"/>
  </clipPath>
 </defs>
</svg>
