<?xml version="1.0" encoding="utf-8" standalone="no"?>
<!DOCTYPE svg PUBLIC "-//W3C//DTD SVG 1.1//EN"
  "http://www.w3.org/Graphics/SVG/1.1/DTD/svg11.dtd">
<!-- Created with matplotlib (https://matplotlib.org/) -->
<svg height="576pt" version="1.1" viewBox="0 0 936 576" width="936pt" xmlns="http://www.w3.org/2000/svg" xmlns:xlink="http://www.w3.org/1999/xlink">
 <defs>
  <style type="text/css">
*{stroke-linecap:butt;stroke-linejoin:round;}
  </style>
 </defs>
 <g id="figure_1">
  <g id="patch_1">
   <path d="M 0 576 
L 936 576 
L 936 0 
L 0 0 
z
" style="fill:#ffffff;"/>
  </g>
  <g id="axes_1">
   <g id="patch_2">
    <path d="M 117 512.64 
L 842.4 512.64 
L 842.4 69.12 
L 117 69.12 
z
" style="fill:#ffffff;"/>
   </g>
   <g id="matplotlib.axis_1">
    <g id="xtick_1">
     <g id="line2d_1">
      <path clip-path="url(#p0afc2f872f)" d="M 119.300423 512.64 
L 119.300423 69.12 
" style="fill:none;stroke:#d8dcd6;stroke-dasharray:0.8,1.32;stroke-dashoffset:0;stroke-width:0.8;"/>
     </g>
     <g id="line2d_2">
      <defs>
       <path d="M 0 0 
L 0 3.5 
" id="m6049ba8833" style="stroke:#000000;stroke-width:0.8;"/>
      </defs>
      <g>
       <use style="stroke:#000000;stroke-width:0.8;" x="119.300423" xlink:href="#m6049ba8833" y="512.64"/>
      </g>
     </g>
     <g id="text_1">
      <!-- 2020-02-21 -->
      <defs>
       <path d="M 19.1875 8.296875 
L 53.609375 8.296875 
L 53.609375 0 
L 7.328125 0 
L 7.328125 8.296875 
Q 12.9375 14.109375 22.625 23.890625 
Q 32.328125 33.6875 34.8125 36.53125 
Q 39.546875 41.84375 41.421875 45.53125 
Q 43.3125 49.21875 43.3125 52.78125 
Q 43.3125 58.59375 39.234375 62.25 
Q 35.15625 65.921875 28.609375 65.921875 
Q 23.96875 65.921875 18.8125 64.3125 
Q 13.671875 62.703125 7.8125 59.421875 
L 7.8125 69.390625 
Q 13.765625 71.78125 18.9375 73 
Q 24.125 74.21875 28.421875 74.21875 
Q 39.75 74.21875 46.484375 68.546875 
Q 53.21875 62.890625 53.21875 53.421875 
Q 53.21875 48.921875 51.53125 44.890625 
Q 49.859375 40.875 45.40625 35.40625 
Q 44.1875 33.984375 37.640625 27.21875 
Q 31.109375 20.453125 19.1875 8.296875 
z
" id="DejaVuSans-50"/>
       <path d="M 31.78125 66.40625 
Q 24.171875 66.40625 20.328125 58.90625 
Q 16.5 51.421875 16.5 36.375 
Q 16.5 21.390625 20.328125 13.890625 
Q 24.171875 6.390625 31.78125 6.390625 
Q 39.453125 6.390625 43.28125 13.890625 
Q 47.125 21.390625 47.125 36.375 
Q 47.125 51.421875 43.28125 58.90625 
Q 39.453125 66.40625 31.78125 66.40625 
z
M 31.78125 74.21875 
Q 44.046875 74.21875 50.515625 64.515625 
Q 56.984375 54.828125 56.984375 36.375 
Q 56.984375 17.96875 50.515625 8.265625 
Q 44.046875 -1.421875 31.78125 -1.421875 
Q 19.53125 -1.421875 13.0625 8.265625 
Q 6.59375 17.96875 6.59375 36.375 
Q 6.59375 54.828125 13.0625 64.515625 
Q 19.53125 74.21875 31.78125 74.21875 
z
" id="DejaVuSans-48"/>
       <path d="M 4.890625 31.390625 
L 31.203125 31.390625 
L 31.203125 23.390625 
L 4.890625 23.390625 
z
" id="DejaVuSans-45"/>
       <path d="M 12.40625 8.296875 
L 28.515625 8.296875 
L 28.515625 63.921875 
L 10.984375 60.40625 
L 10.984375 69.390625 
L 28.421875 72.90625 
L 38.28125 72.90625 
L 38.28125 8.296875 
L 54.390625 8.296875 
L 54.390625 0 
L 12.40625 0 
z
" id="DejaVuSans-49"/>
      </defs>
      <g transform="translate(90.24261 527.238438)scale(0.1 -0.1)">
       <use xlink:href="#DejaVuSans-50"/>
       <use x="63.623047" xlink:href="#DejaVuSans-48"/>
       <use x="127.246094" xlink:href="#DejaVuSans-50"/>
       <use x="190.869141" xlink:href="#DejaVuSans-48"/>
       <use x="254.492188" xlink:href="#DejaVuSans-45"/>
       <use x="290.576172" xlink:href="#DejaVuSans-48"/>
       <use x="354.199219" xlink:href="#DejaVuSans-50"/>
       <use x="417.822266" xlink:href="#DejaVuSans-45"/>
       <use x="453.90625" xlink:href="#DejaVuSans-50"/>
       <use x="517.529297" xlink:href="#DejaVuSans-49"/>
      </g>
     </g>
    </g>
    <g id="xtick_2">
     <g id="line2d_3">
      <path clip-path="url(#p0afc2f872f)" d="M 272.661945 512.64 
L 272.661945 69.12 
" style="fill:none;stroke:#d8dcd6;stroke-dasharray:0.8,1.32;stroke-dashoffset:0;stroke-width:0.8;"/>
     </g>
     <g id="line2d_4">
      <g>
       <use style="stroke:#000000;stroke-width:0.8;" x="272.661945" xlink:href="#m6049ba8833" y="512.64"/>
      </g>
     </g>
     <g id="text_2">
      <!-- 2020-03-02 -->
      <defs>
       <path d="M 40.578125 39.3125 
Q 47.65625 37.796875 51.625 33 
Q 55.609375 28.21875 55.609375 21.1875 
Q 55.609375 10.40625 48.1875 4.484375 
Q 40.765625 -1.421875 27.09375 -1.421875 
Q 22.515625 -1.421875 17.65625 -0.515625 
Q 12.796875 0.390625 7.625 2.203125 
L 7.625 11.71875 
Q 11.71875 9.328125 16.59375 8.109375 
Q 21.484375 6.890625 26.8125 6.890625 
Q 36.078125 6.890625 40.9375 10.546875 
Q 45.796875 14.203125 45.796875 21.1875 
Q 45.796875 27.640625 41.28125 31.265625 
Q 36.765625 34.90625 28.71875 34.90625 
L 20.21875 34.90625 
L 20.21875 43.015625 
L 29.109375 43.015625 
Q 36.375 43.015625 40.234375 45.921875 
Q 44.09375 48.828125 44.09375 54.296875 
Q 44.09375 59.90625 40.109375 62.90625 
Q 36.140625 65.921875 28.71875 65.921875 
Q 24.65625 65.921875 20.015625 65.03125 
Q 15.375 64.15625 9.8125 62.3125 
L 9.8125 71.09375 
Q 15.4375 72.65625 20.34375 73.4375 
Q 25.25 74.21875 29.59375 74.21875 
Q 40.828125 74.21875 47.359375 69.109375 
Q 53.90625 64.015625 53.90625 55.328125 
Q 53.90625 49.265625 50.4375 45.09375 
Q 46.96875 40.921875 40.578125 39.3125 
z
" id="DejaVuSans-51"/>
      </defs>
      <g transform="translate(243.604133 527.238438)scale(0.1 -0.1)">
       <use xlink:href="#DejaVuSans-50"/>
       <use x="63.623047" xlink:href="#DejaVuSans-48"/>
       <use x="127.246094" xlink:href="#DejaVuSans-50"/>
       <use x="190.869141" xlink:href="#DejaVuSans-48"/>
       <use x="254.492188" xlink:href="#DejaVuSans-45"/>
       <use x="290.576172" xlink:href="#DejaVuSans-48"/>
       <use x="354.199219" xlink:href="#DejaVuSans-51"/>
       <use x="417.822266" xlink:href="#DejaVuSans-45"/>
       <use x="453.90625" xlink:href="#DejaVuSans-48"/>
       <use x="517.529297" xlink:href="#DejaVuSans-50"/>
      </g>
     </g>
    </g>
    <g id="xtick_3">
     <g id="line2d_5">
      <path clip-path="url(#p0afc2f872f)" d="M 426.023467 512.64 
L 426.023467 69.12 
" style="fill:none;stroke:#d8dcd6;stroke-dasharray:0.8,1.32;stroke-dashoffset:0;stroke-width:0.8;"/>
     </g>
     <g id="line2d_6">
      <g>
       <use style="stroke:#000000;stroke-width:0.8;" x="426.023467" xlink:href="#m6049ba8833" y="512.64"/>
      </g>
     </g>
     <g id="text_3">
      <!-- 2020-03-12 -->
      <g transform="translate(396.965655 527.238438)scale(0.1 -0.1)">
       <use xlink:href="#DejaVuSans-50"/>
       <use x="63.623047" xlink:href="#DejaVuSans-48"/>
       <use x="127.246094" xlink:href="#DejaVuSans-50"/>
       <use x="190.869141" xlink:href="#DejaVuSans-48"/>
       <use x="254.492188" xlink:href="#DejaVuSans-45"/>
       <use x="290.576172" xlink:href="#DejaVuSans-48"/>
       <use x="354.199219" xlink:href="#DejaVuSans-51"/>
       <use x="417.822266" xlink:href="#DejaVuSans-45"/>
       <use x="453.90625" xlink:href="#DejaVuSans-49"/>
       <use x="517.529297" xlink:href="#DejaVuSans-50"/>
      </g>
     </g>
    </g>
    <g id="xtick_4">
     <g id="line2d_7">
      <path clip-path="url(#p0afc2f872f)" d="M 579.384989 512.64 
L 579.384989 69.12 
" style="fill:none;stroke:#d8dcd6;stroke-dasharray:0.8,1.32;stroke-dashoffset:0;stroke-width:0.8;"/>
     </g>
     <g id="line2d_8">
      <g>
       <use style="stroke:#000000;stroke-width:0.8;" x="579.384989" xlink:href="#m6049ba8833" y="512.64"/>
      </g>
     </g>
     <g id="text_4">
      <!-- 2020-03-22 -->
      <g transform="translate(550.327177 527.238438)scale(0.1 -0.1)">
       <use xlink:href="#DejaVuSans-50"/>
       <use x="63.623047" xlink:href="#DejaVuSans-48"/>
       <use x="127.246094" xlink:href="#DejaVuSans-50"/>
       <use x="190.869141" xlink:href="#DejaVuSans-48"/>
       <use x="254.492188" xlink:href="#DejaVuSans-45"/>
       <use x="290.576172" xlink:href="#DejaVuSans-48"/>
       <use x="354.199219" xlink:href="#DejaVuSans-51"/>
       <use x="417.822266" xlink:href="#DejaVuSans-45"/>
       <use x="453.90625" xlink:href="#DejaVuSans-50"/>
       <use x="517.529297" xlink:href="#DejaVuSans-50"/>
      </g>
     </g>
    </g>
    <g id="xtick_5">
     <g id="line2d_9">
      <path clip-path="url(#p0afc2f872f)" d="M 732.746512 512.64 
L 732.746512 69.12 
" style="fill:none;stroke:#d8dcd6;stroke-dasharray:0.8,1.32;stroke-dashoffset:0;stroke-width:0.8;"/>
     </g>
     <g id="line2d_10">
      <g>
       <use style="stroke:#000000;stroke-width:0.8;" x="732.746512" xlink:href="#m6049ba8833" y="512.64"/>
      </g>
     </g>
     <g id="text_5">
      <!-- 2020-04-01 -->
      <defs>
       <path d="M 37.796875 64.3125 
L 12.890625 25.390625 
L 37.796875 25.390625 
z
M 35.203125 72.90625 
L 47.609375 72.90625 
L 47.609375 25.390625 
L 58.015625 25.390625 
L 58.015625 17.1875 
L 47.609375 17.1875 
L 47.609375 0 
L 37.796875 0 
L 37.796875 17.1875 
L 4.890625 17.1875 
L 4.890625 26.703125 
z
" id="DejaVuSans-52"/>
      </defs>
      <g transform="translate(703.688699 527.238438)scale(0.1 -0.1)">
       <use xlink:href="#DejaVuSans-50"/>
       <use x="63.623047" xlink:href="#DejaVuSans-48"/>
       <use x="127.246094" xlink:href="#DejaVuSans-50"/>
       <use x="190.869141" xlink:href="#DejaVuSans-48"/>
       <use x="254.492188" xlink:href="#DejaVuSans-45"/>
       <use x="290.576172" xlink:href="#DejaVuSans-48"/>
       <use x="354.199219" xlink:href="#DejaVuSans-52"/>
       <use x="417.822266" xlink:href="#DejaVuSans-45"/>
       <use x="453.90625" xlink:href="#DejaVuSans-48"/>
       <use x="517.529297" xlink:href="#DejaVuSans-49"/>
      </g>
     </g>
    </g>
    <g id="xtick_6">
     <g id="line2d_11">
      <path clip-path="url(#p0afc2f872f)" d="M 149.972727 512.64 
L 149.972727 69.12 
" style="fill:none;stroke:#d8dcd6;stroke-dasharray:0.8,1.32;stroke-dashoffset:0;stroke-width:0.8;"/>
     </g>
     <g id="line2d_12">
      <defs>
       <path d="M 0 0 
L 0 2 
" id="mbefdc7a5f1" style="stroke:#000000;stroke-width:0.6;"/>
      </defs>
      <g>
       <use style="stroke:#000000;stroke-width:0.6;" x="149.972727" xlink:href="#mbefdc7a5f1" y="512.64"/>
      </g>
     </g>
    </g>
    <g id="xtick_7">
     <g id="line2d_13">
      <path clip-path="url(#p0afc2f872f)" d="M 180.645032 512.64 
L 180.645032 69.12 
" style="fill:none;stroke:#d8dcd6;stroke-dasharray:0.8,1.32;stroke-dashoffset:0;stroke-width:0.8;"/>
     </g>
     <g id="line2d_14">
      <g>
       <use style="stroke:#000000;stroke-width:0.6;" x="180.645032" xlink:href="#mbefdc7a5f1" y="512.64"/>
      </g>
     </g>
    </g>
    <g id="xtick_8">
     <g id="line2d_15">
      <path clip-path="url(#p0afc2f872f)" d="M 211.317336 512.64 
L 211.317336 69.12 
" style="fill:none;stroke:#d8dcd6;stroke-dasharray:0.8,1.32;stroke-dashoffset:0;stroke-width:0.8;"/>
     </g>
     <g id="line2d_16">
      <g>
       <use style="stroke:#000000;stroke-width:0.6;" x="211.317336" xlink:href="#mbefdc7a5f1" y="512.64"/>
      </g>
     </g>
    </g>
    <g id="xtick_9">
     <g id="line2d_17">
      <path clip-path="url(#p0afc2f872f)" d="M 241.989641 512.64 
L 241.989641 69.12 
" style="fill:none;stroke:#d8dcd6;stroke-dasharray:0.8,1.32;stroke-dashoffset:0;stroke-width:0.8;"/>
     </g>
     <g id="line2d_18">
      <g>
       <use style="stroke:#000000;stroke-width:0.6;" x="241.989641" xlink:href="#mbefdc7a5f1" y="512.64"/>
      </g>
     </g>
    </g>
    <g id="xtick_10">
     <g id="line2d_19">
      <path clip-path="url(#p0afc2f872f)" d="M 303.334249 512.64 
L 303.334249 69.12 
" style="fill:none;stroke:#d8dcd6;stroke-dasharray:0.8,1.32;stroke-dashoffset:0;stroke-width:0.8;"/>
     </g>
     <g id="line2d_20">
      <g>
       <use style="stroke:#000000;stroke-width:0.6;" x="303.334249" xlink:href="#mbefdc7a5f1" y="512.64"/>
      </g>
     </g>
    </g>
    <g id="xtick_11">
     <g id="line2d_21">
      <path clip-path="url(#p0afc2f872f)" d="M 334.006554 512.64 
L 334.006554 69.12 
" style="fill:none;stroke:#d8dcd6;stroke-dasharray:0.8,1.32;stroke-dashoffset:0;stroke-width:0.8;"/>
     </g>
     <g id="line2d_22">
      <g>
       <use style="stroke:#000000;stroke-width:0.6;" x="334.006554" xlink:href="#mbefdc7a5f1" y="512.64"/>
      </g>
     </g>
    </g>
    <g id="xtick_12">
     <g id="line2d_23">
      <path clip-path="url(#p0afc2f872f)" d="M 364.678858 512.64 
L 364.678858 69.12 
" style="fill:none;stroke:#d8dcd6;stroke-dasharray:0.8,1.32;stroke-dashoffset:0;stroke-width:0.8;"/>
     </g>
     <g id="line2d_24">
      <g>
       <use style="stroke:#000000;stroke-width:0.6;" x="364.678858" xlink:href="#mbefdc7a5f1" y="512.64"/>
      </g>
     </g>
    </g>
    <g id="xtick_13">
     <g id="line2d_25">
      <path clip-path="url(#p0afc2f872f)" d="M 395.351163 512.64 
L 395.351163 69.12 
" style="fill:none;stroke:#d8dcd6;stroke-dasharray:0.8,1.32;stroke-dashoffset:0;stroke-width:0.8;"/>
     </g>
     <g id="line2d_26">
      <g>
       <use style="stroke:#000000;stroke-width:0.6;" x="395.351163" xlink:href="#mbefdc7a5f1" y="512.64"/>
      </g>
     </g>
    </g>
    <g id="xtick_14">
     <g id="line2d_27">
      <path clip-path="url(#p0afc2f872f)" d="M 456.695772 512.64 
L 456.695772 69.12 
" style="fill:none;stroke:#d8dcd6;stroke-dasharray:0.8,1.32;stroke-dashoffset:0;stroke-width:0.8;"/>
     </g>
     <g id="line2d_28">
      <g>
       <use style="stroke:#000000;stroke-width:0.6;" x="456.695772" xlink:href="#mbefdc7a5f1" y="512.64"/>
      </g>
     </g>
    </g>
    <g id="xtick_15">
     <g id="line2d_29">
      <path clip-path="url(#p0afc2f872f)" d="M 487.368076 512.64 
L 487.368076 69.12 
" style="fill:none;stroke:#d8dcd6;stroke-dasharray:0.8,1.32;stroke-dashoffset:0;stroke-width:0.8;"/>
     </g>
     <g id="line2d_30">
      <g>
       <use style="stroke:#000000;stroke-width:0.6;" x="487.368076" xlink:href="#mbefdc7a5f1" y="512.64"/>
      </g>
     </g>
    </g>
    <g id="xtick_16">
     <g id="line2d_31">
      <path clip-path="url(#p0afc2f872f)" d="M 518.040381 512.64 
L 518.040381 69.12 
" style="fill:none;stroke:#d8dcd6;stroke-dasharray:0.8,1.32;stroke-dashoffset:0;stroke-width:0.8;"/>
     </g>
     <g id="line2d_32">
      <g>
       <use style="stroke:#000000;stroke-width:0.6;" x="518.040381" xlink:href="#mbefdc7a5f1" y="512.64"/>
      </g>
     </g>
    </g>
    <g id="xtick_17">
     <g id="line2d_33">
      <path clip-path="url(#p0afc2f872f)" d="M 548.712685 512.64 
L 548.712685 69.12 
" style="fill:none;stroke:#d8dcd6;stroke-dasharray:0.8,1.32;stroke-dashoffset:0;stroke-width:0.8;"/>
     </g>
     <g id="line2d_34">
      <g>
       <use style="stroke:#000000;stroke-width:0.6;" x="548.712685" xlink:href="#mbefdc7a5f1" y="512.64"/>
      </g>
     </g>
    </g>
    <g id="xtick_18">
     <g id="line2d_35">
      <path clip-path="url(#p0afc2f872f)" d="M 610.057294 512.64 
L 610.057294 69.12 
" style="fill:none;stroke:#d8dcd6;stroke-dasharray:0.8,1.32;stroke-dashoffset:0;stroke-width:0.8;"/>
     </g>
     <g id="line2d_36">
      <g>
       <use style="stroke:#000000;stroke-width:0.6;" x="610.057294" xlink:href="#mbefdc7a5f1" y="512.64"/>
      </g>
     </g>
    </g>
    <g id="xtick_19">
     <g id="line2d_37">
      <path clip-path="url(#p0afc2f872f)" d="M 640.729598 512.64 
L 640.729598 69.12 
" style="fill:none;stroke:#d8dcd6;stroke-dasharray:0.8,1.32;stroke-dashoffset:0;stroke-width:0.8;"/>
     </g>
     <g id="line2d_38">
      <g>
       <use style="stroke:#000000;stroke-width:0.6;" x="640.729598" xlink:href="#mbefdc7a5f1" y="512.64"/>
      </g>
     </g>
    </g>
    <g id="xtick_20">
     <g id="line2d_39">
      <path clip-path="url(#p0afc2f872f)" d="M 671.401903 512.64 
L 671.401903 69.12 
" style="fill:none;stroke:#d8dcd6;stroke-dasharray:0.8,1.32;stroke-dashoffset:0;stroke-width:0.8;"/>
     </g>
     <g id="line2d_40">
      <g>
       <use style="stroke:#000000;stroke-width:0.6;" x="671.401903" xlink:href="#mbefdc7a5f1" y="512.64"/>
      </g>
     </g>
    </g>
    <g id="xtick_21">
     <g id="line2d_41">
      <path clip-path="url(#p0afc2f872f)" d="M 702.074207 512.64 
L 702.074207 69.12 
" style="fill:none;stroke:#d8dcd6;stroke-dasharray:0.8,1.32;stroke-dashoffset:0;stroke-width:0.8;"/>
     </g>
     <g id="line2d_42">
      <g>
       <use style="stroke:#000000;stroke-width:0.6;" x="702.074207" xlink:href="#mbefdc7a5f1" y="512.64"/>
      </g>
     </g>
    </g>
    <g id="xtick_22">
     <g id="line2d_43">
      <path clip-path="url(#p0afc2f872f)" d="M 763.418816 512.64 
L 763.418816 69.12 
" style="fill:none;stroke:#d8dcd6;stroke-dasharray:0.8,1.32;stroke-dashoffset:0;stroke-width:0.8;"/>
     </g>
     <g id="line2d_44">
      <g>
       <use style="stroke:#000000;stroke-width:0.6;" x="763.418816" xlink:href="#mbefdc7a5f1" y="512.64"/>
      </g>
     </g>
    </g>
    <g id="xtick_23">
     <g id="line2d_45">
      <path clip-path="url(#p0afc2f872f)" d="M 794.091121 512.64 
L 794.091121 69.12 
" style="fill:none;stroke:#d8dcd6;stroke-dasharray:0.8,1.32;stroke-dashoffset:0;stroke-width:0.8;"/>
     </g>
     <g id="line2d_46">
      <g>
       <use style="stroke:#000000;stroke-width:0.6;" x="794.091121" xlink:href="#mbefdc7a5f1" y="512.64"/>
      </g>
     </g>
    </g>
    <g id="xtick_24">
     <g id="line2d_47">
      <path clip-path="url(#p0afc2f872f)" d="M 824.763425 512.64 
L 824.763425 69.12 
" style="fill:none;stroke:#d8dcd6;stroke-dasharray:0.8,1.32;stroke-dashoffset:0;stroke-width:0.8;"/>
     </g>
     <g id="line2d_48">
      <g>
       <use style="stroke:#000000;stroke-width:0.6;" x="824.763425" xlink:href="#mbefdc7a5f1" y="512.64"/>
      </g>
     </g>
    </g>
   </g>
   <g id="matplotlib.axis_2">
    <g id="ytick_1">
     <g id="line2d_49">
      <path clip-path="url(#p0afc2f872f)" d="M 117 509.275311 
L 842.4 509.275311 
" style="fill:none;stroke:#d8dcd6;stroke-dasharray:0.8,1.32;stroke-dashoffset:0;stroke-width:0.8;"/>
     </g>
     <g id="line2d_50">
      <defs>
       <path d="M 0 0 
L -3.5 0 
" id="mf542ee5fe1" style="stroke:#000000;stroke-width:0.8;"/>
      </defs>
      <g>
       <use style="stroke:#000000;stroke-width:0.8;" x="117" xlink:href="#mf542ee5fe1" y="509.275311"/>
      </g>
     </g>
     <g id="text_6">
      <!-- 0 -->
      <g transform="translate(103.6375 513.07453)scale(0.1 -0.1)">
       <use xlink:href="#DejaVuSans-48"/>
      </g>
     </g>
    </g>
    <g id="ytick_2">
     <g id="line2d_51">
      <path clip-path="url(#p0afc2f872f)" d="M 117 435.916093 
L 842.4 435.916093 
" style="fill:none;stroke:#d8dcd6;stroke-dasharray:0.8,1.32;stroke-dashoffset:0;stroke-width:0.8;"/>
     </g>
     <g id="line2d_52">
      <g>
       <use style="stroke:#000000;stroke-width:0.8;" x="117" xlink:href="#mf542ee5fe1" y="435.916093"/>
      </g>
     </g>
     <g id="text_7">
      <!-- 10 -->
      <g transform="translate(97.275 439.715311)scale(0.1 -0.1)">
       <use xlink:href="#DejaVuSans-49"/>
       <use x="63.623047" xlink:href="#DejaVuSans-48"/>
      </g>
     </g>
    </g>
    <g id="ytick_3">
     <g id="line2d_53">
      <path clip-path="url(#p0afc2f872f)" d="M 117 362.556874 
L 842.4 362.556874 
" style="fill:none;stroke:#d8dcd6;stroke-dasharray:0.8,1.32;stroke-dashoffset:0;stroke-width:0.8;"/>
     </g>
     <g id="line2d_54">
      <g>
       <use style="stroke:#000000;stroke-width:0.8;" x="117" xlink:href="#mf542ee5fe1" y="362.556874"/>
      </g>
     </g>
     <g id="text_8">
      <!-- 20 -->
      <g transform="translate(97.275 366.356093)scale(0.1 -0.1)">
       <use xlink:href="#DejaVuSans-50"/>
       <use x="63.623047" xlink:href="#DejaVuSans-48"/>
      </g>
     </g>
    </g>
    <g id="ytick_4">
     <g id="line2d_55">
      <path clip-path="url(#p0afc2f872f)" d="M 117 289.197656 
L 842.4 289.197656 
" style="fill:none;stroke:#d8dcd6;stroke-dasharray:0.8,1.32;stroke-dashoffset:0;stroke-width:0.8;"/>
     </g>
     <g id="line2d_56">
      <g>
       <use style="stroke:#000000;stroke-width:0.8;" x="117" xlink:href="#mf542ee5fe1" y="289.197656"/>
      </g>
     </g>
     <g id="text_9">
      <!-- 30 -->
      <g transform="translate(97.275 292.996874)scale(0.1 -0.1)">
       <use xlink:href="#DejaVuSans-51"/>
       <use x="63.623047" xlink:href="#DejaVuSans-48"/>
      </g>
     </g>
    </g>
    <g id="ytick_5">
     <g id="line2d_57">
      <path clip-path="url(#p0afc2f872f)" d="M 117 215.838437 
L 842.4 215.838437 
" style="fill:none;stroke:#d8dcd6;stroke-dasharray:0.8,1.32;stroke-dashoffset:0;stroke-width:0.8;"/>
     </g>
     <g id="line2d_58">
      <g>
       <use style="stroke:#000000;stroke-width:0.8;" x="117" xlink:href="#mf542ee5fe1" y="215.838437"/>
      </g>
     </g>
     <g id="text_10">
      <!-- 40 -->
      <g transform="translate(97.275 219.637656)scale(0.1 -0.1)">
       <use xlink:href="#DejaVuSans-52"/>
       <use x="63.623047" xlink:href="#DejaVuSans-48"/>
      </g>
     </g>
    </g>
    <g id="ytick_6">
     <g id="line2d_59">
      <path clip-path="url(#p0afc2f872f)" d="M 117 142.479219 
L 842.4 142.479219 
" style="fill:none;stroke:#d8dcd6;stroke-dasharray:0.8,1.32;stroke-dashoffset:0;stroke-width:0.8;"/>
     </g>
     <g id="line2d_60">
      <g>
       <use style="stroke:#000000;stroke-width:0.8;" x="117" xlink:href="#mf542ee5fe1" y="142.479219"/>
      </g>
     </g>
     <g id="text_11">
      <!-- 50 -->
      <defs>
       <path d="M 10.796875 72.90625 
L 49.515625 72.90625 
L 49.515625 64.59375 
L 19.828125 64.59375 
L 19.828125 46.734375 
Q 21.96875 47.46875 24.109375 47.828125 
Q 26.265625 48.1875 28.421875 48.1875 
Q 40.625 48.1875 47.75 41.5 
Q 54.890625 34.8125 54.890625 23.390625 
Q 54.890625 11.625 47.5625 5.09375 
Q 40.234375 -1.421875 26.90625 -1.421875 
Q 22.3125 -1.421875 17.546875 -0.640625 
Q 12.796875 0.140625 7.71875 1.703125 
L 7.71875 11.625 
Q 12.109375 9.234375 16.796875 8.0625 
Q 21.484375 6.890625 26.703125 6.890625 
Q 35.15625 6.890625 40.078125 11.328125 
Q 45.015625 15.765625 45.015625 23.390625 
Q 45.015625 31 40.078125 35.4375 
Q 35.15625 39.890625 26.703125 39.890625 
Q 22.75 39.890625 18.8125 39.015625 
Q 14.890625 38.140625 10.796875 36.28125 
z
" id="DejaVuSans-53"/>
      </defs>
      <g transform="translate(97.275 146.278437)scale(0.1 -0.1)">
       <use xlink:href="#DejaVuSans-53"/>
       <use x="63.623047" xlink:href="#DejaVuSans-48"/>
      </g>
     </g>
    </g>
    <g id="ytick_7">
     <g id="line2d_61">
      <path clip-path="url(#p0afc2f872f)" d="M 117 69.12 
L 842.4 69.12 
" style="fill:none;stroke:#d8dcd6;stroke-dasharray:0.8,1.32;stroke-dashoffset:0;stroke-width:0.8;"/>
     </g>
     <g id="line2d_62">
      <g>
       <use style="stroke:#000000;stroke-width:0.8;" x="117" xlink:href="#mf542ee5fe1" y="69.12"/>
      </g>
     </g>
     <g id="text_12">
      <!-- 60 -->
      <defs>
       <path d="M 33.015625 40.375 
Q 26.375 40.375 22.484375 35.828125 
Q 18.609375 31.296875 18.609375 23.390625 
Q 18.609375 15.53125 22.484375 10.953125 
Q 26.375 6.390625 33.015625 6.390625 
Q 39.65625 6.390625 43.53125 10.953125 
Q 47.40625 15.53125 47.40625 23.390625 
Q 47.40625 31.296875 43.53125 35.828125 
Q 39.65625 40.375 33.015625 40.375 
z
M 52.59375 71.296875 
L 52.59375 62.3125 
Q 48.875 64.0625 45.09375 64.984375 
Q 41.3125 65.921875 37.59375 65.921875 
Q 27.828125 65.921875 22.671875 59.328125 
Q 17.53125 52.734375 16.796875 39.40625 
Q 19.671875 43.65625 24.015625 45.921875 
Q 28.375 48.1875 33.59375 48.1875 
Q 44.578125 48.1875 50.953125 41.515625 
Q 57.328125 34.859375 57.328125 23.390625 
Q 57.328125 12.15625 50.6875 5.359375 
Q 44.046875 -1.421875 33.015625 -1.421875 
Q 20.359375 -1.421875 13.671875 8.265625 
Q 6.984375 17.96875 6.984375 36.375 
Q 6.984375 53.65625 15.1875 63.9375 
Q 23.390625 74.21875 37.203125 74.21875 
Q 40.921875 74.21875 44.703125 73.484375 
Q 48.484375 72.75 52.59375 71.296875 
z
" id="DejaVuSans-54"/>
      </defs>
      <g transform="translate(97.275 72.919219)scale(0.1 -0.1)">
       <use xlink:href="#DejaVuSans-54"/>
       <use x="63.623047" xlink:href="#DejaVuSans-48"/>
      </g>
     </g>
    </g>
    <g id="ytick_8">
     <g id="line2d_63">
      <path clip-path="url(#p0afc2f872f)" d="M 117 494.603467 
L 842.4 494.603467 
" style="fill:none;stroke:#d8dcd6;stroke-dasharray:0.8,1.32;stroke-dashoffset:0;stroke-width:0.8;"/>
     </g>
     <g id="line2d_64">
      <defs>
       <path d="M 0 0 
L -2 0 
" id="me20362dae8" style="stroke:#000000;stroke-width:0.6;"/>
      </defs>
      <g>
       <use style="stroke:#000000;stroke-width:0.6;" x="117" xlink:href="#me20362dae8" y="494.603467"/>
      </g>
     </g>
    </g>
    <g id="ytick_9">
     <g id="line2d_65">
      <path clip-path="url(#p0afc2f872f)" d="M 117 479.931624 
L 842.4 479.931624 
" style="fill:none;stroke:#d8dcd6;stroke-dasharray:0.8,1.32;stroke-dashoffset:0;stroke-width:0.8;"/>
     </g>
     <g id="line2d_66">
      <g>
       <use style="stroke:#000000;stroke-width:0.6;" x="117" xlink:href="#me20362dae8" y="479.931624"/>
      </g>
     </g>
    </g>
    <g id="ytick_10">
     <g id="line2d_67">
      <path clip-path="url(#p0afc2f872f)" d="M 117 465.25978 
L 842.4 465.25978 
" style="fill:none;stroke:#d8dcd6;stroke-dasharray:0.8,1.32;stroke-dashoffset:0;stroke-width:0.8;"/>
     </g>
     <g id="line2d_68">
      <g>
       <use style="stroke:#000000;stroke-width:0.6;" x="117" xlink:href="#me20362dae8" y="465.25978"/>
      </g>
     </g>
    </g>
    <g id="ytick_11">
     <g id="line2d_69">
      <path clip-path="url(#p0afc2f872f)" d="M 117 450.587936 
L 842.4 450.587936 
" style="fill:none;stroke:#d8dcd6;stroke-dasharray:0.8,1.32;stroke-dashoffset:0;stroke-width:0.8;"/>
     </g>
     <g id="line2d_70">
      <g>
       <use style="stroke:#000000;stroke-width:0.6;" x="117" xlink:href="#me20362dae8" y="450.587936"/>
      </g>
     </g>
    </g>
    <g id="ytick_12">
     <g id="line2d_71">
      <path clip-path="url(#p0afc2f872f)" d="M 117 421.244249 
L 842.4 421.244249 
" style="fill:none;stroke:#d8dcd6;stroke-dasharray:0.8,1.32;stroke-dashoffset:0;stroke-width:0.8;"/>
     </g>
     <g id="line2d_72">
      <g>
       <use style="stroke:#000000;stroke-width:0.6;" x="117" xlink:href="#me20362dae8" y="421.244249"/>
      </g>
     </g>
    </g>
    <g id="ytick_13">
     <g id="line2d_73">
      <path clip-path="url(#p0afc2f872f)" d="M 117 406.572405 
L 842.4 406.572405 
" style="fill:none;stroke:#d8dcd6;stroke-dasharray:0.8,1.32;stroke-dashoffset:0;stroke-width:0.8;"/>
     </g>
     <g id="line2d_74">
      <g>
       <use style="stroke:#000000;stroke-width:0.6;" x="117" xlink:href="#me20362dae8" y="406.572405"/>
      </g>
     </g>
    </g>
    <g id="ytick_14">
     <g id="line2d_75">
      <path clip-path="url(#p0afc2f872f)" d="M 117 391.900561 
L 842.4 391.900561 
" style="fill:none;stroke:#d8dcd6;stroke-dasharray:0.8,1.32;stroke-dashoffset:0;stroke-width:0.8;"/>
     </g>
     <g id="line2d_76">
      <g>
       <use style="stroke:#000000;stroke-width:0.6;" x="117" xlink:href="#me20362dae8" y="391.900561"/>
      </g>
     </g>
    </g>
    <g id="ytick_15">
     <g id="line2d_77">
      <path clip-path="url(#p0afc2f872f)" d="M 117 377.228718 
L 842.4 377.228718 
" style="fill:none;stroke:#d8dcd6;stroke-dasharray:0.8,1.32;stroke-dashoffset:0;stroke-width:0.8;"/>
     </g>
     <g id="line2d_78">
      <g>
       <use style="stroke:#000000;stroke-width:0.6;" x="117" xlink:href="#me20362dae8" y="377.228718"/>
      </g>
     </g>
    </g>
    <g id="ytick_16">
     <g id="line2d_79">
      <path clip-path="url(#p0afc2f872f)" d="M 117 347.88503 
L 842.4 347.88503 
" style="fill:none;stroke:#d8dcd6;stroke-dasharray:0.8,1.32;stroke-dashoffset:0;stroke-width:0.8;"/>
     </g>
     <g id="line2d_80">
      <g>
       <use style="stroke:#000000;stroke-width:0.6;" x="117" xlink:href="#me20362dae8" y="347.88503"/>
      </g>
     </g>
    </g>
    <g id="ytick_17">
     <g id="line2d_81">
      <path clip-path="url(#p0afc2f872f)" d="M 117 333.213187 
L 842.4 333.213187 
" style="fill:none;stroke:#d8dcd6;stroke-dasharray:0.8,1.32;stroke-dashoffset:0;stroke-width:0.8;"/>
     </g>
     <g id="line2d_82">
      <g>
       <use style="stroke:#000000;stroke-width:0.6;" x="117" xlink:href="#me20362dae8" y="333.213187"/>
      </g>
     </g>
    </g>
    <g id="ytick_18">
     <g id="line2d_83">
      <path clip-path="url(#p0afc2f872f)" d="M 117 318.541343 
L 842.4 318.541343 
" style="fill:none;stroke:#d8dcd6;stroke-dasharray:0.8,1.32;stroke-dashoffset:0;stroke-width:0.8;"/>
     </g>
     <g id="line2d_84">
      <g>
       <use style="stroke:#000000;stroke-width:0.6;" x="117" xlink:href="#me20362dae8" y="318.541343"/>
      </g>
     </g>
    </g>
    <g id="ytick_19">
     <g id="line2d_85">
      <path clip-path="url(#p0afc2f872f)" d="M 117 303.869499 
L 842.4 303.869499 
" style="fill:none;stroke:#d8dcd6;stroke-dasharray:0.8,1.32;stroke-dashoffset:0;stroke-width:0.8;"/>
     </g>
     <g id="line2d_86">
      <g>
       <use style="stroke:#000000;stroke-width:0.6;" x="117" xlink:href="#me20362dae8" y="303.869499"/>
      </g>
     </g>
    </g>
    <g id="ytick_20">
     <g id="line2d_87">
      <path clip-path="url(#p0afc2f872f)" d="M 117 274.525812 
L 842.4 274.525812 
" style="fill:none;stroke:#d8dcd6;stroke-dasharray:0.8,1.32;stroke-dashoffset:0;stroke-width:0.8;"/>
     </g>
     <g id="line2d_88">
      <g>
       <use style="stroke:#000000;stroke-width:0.6;" x="117" xlink:href="#me20362dae8" y="274.525812"/>
      </g>
     </g>
    </g>
    <g id="ytick_21">
     <g id="line2d_89">
      <path clip-path="url(#p0afc2f872f)" d="M 117 259.853968 
L 842.4 259.853968 
" style="fill:none;stroke:#d8dcd6;stroke-dasharray:0.8,1.32;stroke-dashoffset:0;stroke-width:0.8;"/>
     </g>
     <g id="line2d_90">
      <g>
       <use style="stroke:#000000;stroke-width:0.6;" x="117" xlink:href="#me20362dae8" y="259.853968"/>
      </g>
     </g>
    </g>
    <g id="ytick_22">
     <g id="line2d_91">
      <path clip-path="url(#p0afc2f872f)" d="M 117 245.182124 
L 842.4 245.182124 
" style="fill:none;stroke:#d8dcd6;stroke-dasharray:0.8,1.32;stroke-dashoffset:0;stroke-width:0.8;"/>
     </g>
     <g id="line2d_92">
      <g>
       <use style="stroke:#000000;stroke-width:0.6;" x="117" xlink:href="#me20362dae8" y="245.182124"/>
      </g>
     </g>
    </g>
    <g id="ytick_23">
     <g id="line2d_93">
      <path clip-path="url(#p0afc2f872f)" d="M 117 230.510281 
L 842.4 230.510281 
" style="fill:none;stroke:#d8dcd6;stroke-dasharray:0.8,1.32;stroke-dashoffset:0;stroke-width:0.8;"/>
     </g>
     <g id="line2d_94">
      <g>
       <use style="stroke:#000000;stroke-width:0.6;" x="117" xlink:href="#me20362dae8" y="230.510281"/>
      </g>
     </g>
    </g>
    <g id="ytick_24">
     <g id="line2d_95">
      <path clip-path="url(#p0afc2f872f)" d="M 117 201.166593 
L 842.4 201.166593 
" style="fill:none;stroke:#d8dcd6;stroke-dasharray:0.8,1.32;stroke-dashoffset:0;stroke-width:0.8;"/>
     </g>
     <g id="line2d_96">
      <g>
       <use style="stroke:#000000;stroke-width:0.6;" x="117" xlink:href="#me20362dae8" y="201.166593"/>
      </g>
     </g>
    </g>
    <g id="ytick_25">
     <g id="line2d_97">
      <path clip-path="url(#p0afc2f872f)" d="M 117 186.49475 
L 842.4 186.49475 
" style="fill:none;stroke:#d8dcd6;stroke-dasharray:0.8,1.32;stroke-dashoffset:0;stroke-width:0.8;"/>
     </g>
     <g id="line2d_98">
      <g>
       <use style="stroke:#000000;stroke-width:0.6;" x="117" xlink:href="#me20362dae8" y="186.49475"/>
      </g>
     </g>
    </g>
    <g id="ytick_26">
     <g id="line2d_99">
      <path clip-path="url(#p0afc2f872f)" d="M 117 171.822906 
L 842.4 171.822906 
" style="fill:none;stroke:#d8dcd6;stroke-dasharray:0.8,1.32;stroke-dashoffset:0;stroke-width:0.8;"/>
     </g>
     <g id="line2d_100">
      <g>
       <use style="stroke:#000000;stroke-width:0.6;" x="117" xlink:href="#me20362dae8" y="171.822906"/>
      </g>
     </g>
    </g>
    <g id="ytick_27">
     <g id="line2d_101">
      <path clip-path="url(#p0afc2f872f)" d="M 117 157.151062 
L 842.4 157.151062 
" style="fill:none;stroke:#d8dcd6;stroke-dasharray:0.8,1.32;stroke-dashoffset:0;stroke-width:0.8;"/>
     </g>
     <g id="line2d_102">
      <g>
       <use style="stroke:#000000;stroke-width:0.6;" x="117" xlink:href="#me20362dae8" y="157.151062"/>
      </g>
     </g>
    </g>
    <g id="ytick_28">
     <g id="line2d_103">
      <path clip-path="url(#p0afc2f872f)" d="M 117 127.807375 
L 842.4 127.807375 
" style="fill:none;stroke:#d8dcd6;stroke-dasharray:0.8,1.32;stroke-dashoffset:0;stroke-width:0.8;"/>
     </g>
     <g id="line2d_104">
      <g>
       <use style="stroke:#000000;stroke-width:0.6;" x="117" xlink:href="#me20362dae8" y="127.807375"/>
      </g>
     </g>
    </g>
    <g id="ytick_29">
     <g id="line2d_105">
      <path clip-path="url(#p0afc2f872f)" d="M 117 113.135531 
L 842.4 113.135531 
" style="fill:none;stroke:#d8dcd6;stroke-dasharray:0.8,1.32;stroke-dashoffset:0;stroke-width:0.8;"/>
     </g>
     <g id="line2d_106">
      <g>
       <use style="stroke:#000000;stroke-width:0.6;" x="117" xlink:href="#me20362dae8" y="113.135531"/>
      </g>
     </g>
    </g>
    <g id="ytick_30">
     <g id="line2d_107">
      <path clip-path="url(#p0afc2f872f)" d="M 117 98.463687 
L 842.4 98.463687 
" style="fill:none;stroke:#d8dcd6;stroke-dasharray:0.8,1.32;stroke-dashoffset:0;stroke-width:0.8;"/>
     </g>
     <g id="line2d_108">
      <g>
       <use style="stroke:#000000;stroke-width:0.6;" x="117" xlink:href="#me20362dae8" y="98.463687"/>
      </g>
     </g>
    </g>
    <g id="ytick_31">
     <g id="line2d_109">
      <path clip-path="url(#p0afc2f872f)" d="M 117 83.791844 
L 842.4 83.791844 
" style="fill:none;stroke:#d8dcd6;stroke-dasharray:0.8,1.32;stroke-dashoffset:0;stroke-width:0.8;"/>
     </g>
     <g id="line2d_110">
      <g>
       <use style="stroke:#000000;stroke-width:0.6;" x="117" xlink:href="#me20362dae8" y="83.791844"/>
      </g>
     </g>
    </g>
    <g id="text_13">
     <!-- (backw avg) growth in percent per day -->
     <defs>
      <path d="M 31 75.875 
Q 24.46875 64.65625 21.28125 53.65625 
Q 18.109375 42.671875 18.109375 31.390625 
Q 18.109375 20.125 21.3125 9.0625 
Q 24.515625 -2 31 -13.1875 
L 23.1875 -13.1875 
Q 15.875 -1.703125 12.234375 9.375 
Q 8.59375 20.453125 8.59375 31.390625 
Q 8.59375 42.28125 12.203125 53.3125 
Q 15.828125 64.359375 23.1875 75.875 
z
" id="DejaVuSans-40"/>
      <path d="M 48.6875 27.296875 
Q 48.6875 37.203125 44.609375 42.84375 
Q 40.53125 48.484375 33.40625 48.484375 
Q 26.265625 48.484375 22.1875 42.84375 
Q 18.109375 37.203125 18.109375 27.296875 
Q 18.109375 17.390625 22.1875 11.75 
Q 26.265625 6.109375 33.40625 6.109375 
Q 40.53125 6.109375 44.609375 11.75 
Q 48.6875 17.390625 48.6875 27.296875 
z
M 18.109375 46.390625 
Q 20.953125 51.265625 25.265625 53.625 
Q 29.59375 56 35.59375 56 
Q 45.5625 56 51.78125 48.09375 
Q 58.015625 40.1875 58.015625 27.296875 
Q 58.015625 14.40625 51.78125 6.484375 
Q 45.5625 -1.421875 35.59375 -1.421875 
Q 29.59375 -1.421875 25.265625 0.953125 
Q 20.953125 3.328125 18.109375 8.203125 
L 18.109375 0 
L 9.078125 0 
L 9.078125 75.984375 
L 18.109375 75.984375 
z
" id="DejaVuSans-98"/>
      <path d="M 34.28125 27.484375 
Q 23.390625 27.484375 19.1875 25 
Q 14.984375 22.515625 14.984375 16.5 
Q 14.984375 11.71875 18.140625 8.90625 
Q 21.296875 6.109375 26.703125 6.109375 
Q 34.1875 6.109375 38.703125 11.40625 
Q 43.21875 16.703125 43.21875 25.484375 
L 43.21875 27.484375 
z
M 52.203125 31.203125 
L 52.203125 0 
L 43.21875 0 
L 43.21875 8.296875 
Q 40.140625 3.328125 35.546875 0.953125 
Q 30.953125 -1.421875 24.3125 -1.421875 
Q 15.921875 -1.421875 10.953125 3.296875 
Q 6 8.015625 6 15.921875 
Q 6 25.140625 12.171875 29.828125 
Q 18.359375 34.515625 30.609375 34.515625 
L 43.21875 34.515625 
L 43.21875 35.40625 
Q 43.21875 41.609375 39.140625 45 
Q 35.0625 48.390625 27.6875 48.390625 
Q 23 48.390625 18.546875 47.265625 
Q 14.109375 46.140625 10.015625 43.890625 
L 10.015625 52.203125 
Q 14.9375 54.109375 19.578125 55.046875 
Q 24.21875 56 28.609375 56 
Q 40.484375 56 46.34375 49.84375 
Q 52.203125 43.703125 52.203125 31.203125 
z
" id="DejaVuSans-97"/>
      <path d="M 48.78125 52.59375 
L 48.78125 44.1875 
Q 44.96875 46.296875 41.140625 47.34375 
Q 37.3125 48.390625 33.40625 48.390625 
Q 24.65625 48.390625 19.8125 42.84375 
Q 14.984375 37.3125 14.984375 27.296875 
Q 14.984375 17.28125 19.8125 11.734375 
Q 24.65625 6.203125 33.40625 6.203125 
Q 37.3125 6.203125 41.140625 7.25 
Q 44.96875 8.296875 48.78125 10.40625 
L 48.78125 2.09375 
Q 45.015625 0.34375 40.984375 -0.53125 
Q 36.96875 -1.421875 32.421875 -1.421875 
Q 20.0625 -1.421875 12.78125 6.34375 
Q 5.515625 14.109375 5.515625 27.296875 
Q 5.515625 40.671875 12.859375 48.328125 
Q 20.21875 56 33.015625 56 
Q 37.15625 56 41.109375 55.140625 
Q 45.0625 54.296875 48.78125 52.59375 
z
" id="DejaVuSans-99"/>
      <path d="M 9.078125 75.984375 
L 18.109375 75.984375 
L 18.109375 31.109375 
L 44.921875 54.6875 
L 56.390625 54.6875 
L 27.390625 29.109375 
L 57.625 0 
L 45.90625 0 
L 18.109375 26.703125 
L 18.109375 0 
L 9.078125 0 
z
" id="DejaVuSans-107"/>
      <path d="M 4.203125 54.6875 
L 13.1875 54.6875 
L 24.421875 12.015625 
L 35.59375 54.6875 
L 46.1875 54.6875 
L 57.421875 12.015625 
L 68.609375 54.6875 
L 77.59375 54.6875 
L 63.28125 0 
L 52.6875 0 
L 40.921875 44.828125 
L 29.109375 0 
L 18.5 0 
z
" id="DejaVuSans-119"/>
      <path id="DejaVuSans-32"/>
      <path d="M 2.984375 54.6875 
L 12.5 54.6875 
L 29.59375 8.796875 
L 46.6875 54.6875 
L 56.203125 54.6875 
L 35.6875 0 
L 23.484375 0 
z
" id="DejaVuSans-118"/>
      <path d="M 45.40625 27.984375 
Q 45.40625 37.75 41.375 43.109375 
Q 37.359375 48.484375 30.078125 48.484375 
Q 22.859375 48.484375 18.828125 43.109375 
Q 14.796875 37.75 14.796875 27.984375 
Q 14.796875 18.265625 18.828125 12.890625 
Q 22.859375 7.515625 30.078125 7.515625 
Q 37.359375 7.515625 41.375 12.890625 
Q 45.40625 18.265625 45.40625 27.984375 
z
M 54.390625 6.78125 
Q 54.390625 -7.171875 48.1875 -13.984375 
Q 42 -20.796875 29.203125 -20.796875 
Q 24.46875 -20.796875 20.265625 -20.09375 
Q 16.0625 -19.390625 12.109375 -17.921875 
L 12.109375 -9.1875 
Q 16.0625 -11.328125 19.921875 -12.34375 
Q 23.78125 -13.375 27.78125 -13.375 
Q 36.625 -13.375 41.015625 -8.765625 
Q 45.40625 -4.15625 45.40625 5.171875 
L 45.40625 9.625 
Q 42.625 4.78125 38.28125 2.390625 
Q 33.9375 0 27.875 0 
Q 17.828125 0 11.671875 7.65625 
Q 5.515625 15.328125 5.515625 27.984375 
Q 5.515625 40.671875 11.671875 48.328125 
Q 17.828125 56 27.875 56 
Q 33.9375 56 38.28125 53.609375 
Q 42.625 51.21875 45.40625 46.390625 
L 45.40625 54.6875 
L 54.390625 54.6875 
z
" id="DejaVuSans-103"/>
      <path d="M 8.015625 75.875 
L 15.828125 75.875 
Q 23.140625 64.359375 26.78125 53.3125 
Q 30.421875 42.28125 30.421875 31.390625 
Q 30.421875 20.453125 26.78125 9.375 
Q 23.140625 -1.703125 15.828125 -13.1875 
L 8.015625 -13.1875 
Q 14.5 -2 17.703125 9.0625 
Q 20.90625 20.125 20.90625 31.390625 
Q 20.90625 42.671875 17.703125 53.65625 
Q 14.5 64.65625 8.015625 75.875 
z
" id="DejaVuSans-41"/>
      <path d="M 41.109375 46.296875 
Q 39.59375 47.171875 37.8125 47.578125 
Q 36.03125 48 33.890625 48 
Q 26.265625 48 22.1875 43.046875 
Q 18.109375 38.09375 18.109375 28.8125 
L 18.109375 0 
L 9.078125 0 
L 9.078125 54.6875 
L 18.109375 54.6875 
L 18.109375 46.1875 
Q 20.953125 51.171875 25.484375 53.578125 
Q 30.03125 56 36.53125 56 
Q 37.453125 56 38.578125 55.875 
Q 39.703125 55.765625 41.0625 55.515625 
z
" id="DejaVuSans-114"/>
      <path d="M 30.609375 48.390625 
Q 23.390625 48.390625 19.1875 42.75 
Q 14.984375 37.109375 14.984375 27.296875 
Q 14.984375 17.484375 19.15625 11.84375 
Q 23.34375 6.203125 30.609375 6.203125 
Q 37.796875 6.203125 41.984375 11.859375 
Q 46.1875 17.53125 46.1875 27.296875 
Q 46.1875 37.015625 41.984375 42.703125 
Q 37.796875 48.390625 30.609375 48.390625 
z
M 30.609375 56 
Q 42.328125 56 49.015625 48.375 
Q 55.71875 40.765625 55.71875 27.296875 
Q 55.71875 13.875 49.015625 6.21875 
Q 42.328125 -1.421875 30.609375 -1.421875 
Q 18.84375 -1.421875 12.171875 6.21875 
Q 5.515625 13.875 5.515625 27.296875 
Q 5.515625 40.765625 12.171875 48.375 
Q 18.84375 56 30.609375 56 
z
" id="DejaVuSans-111"/>
      <path d="M 18.3125 70.21875 
L 18.3125 54.6875 
L 36.8125 54.6875 
L 36.8125 47.703125 
L 18.3125 47.703125 
L 18.3125 18.015625 
Q 18.3125 11.328125 20.140625 9.421875 
Q 21.96875 7.515625 27.59375 7.515625 
L 36.8125 7.515625 
L 36.8125 0 
L 27.59375 0 
Q 17.1875 0 13.234375 3.875 
Q 9.28125 7.765625 9.28125 18.015625 
L 9.28125 47.703125 
L 2.6875 47.703125 
L 2.6875 54.6875 
L 9.28125 54.6875 
L 9.28125 70.21875 
z
" id="DejaVuSans-116"/>
      <path d="M 54.890625 33.015625 
L 54.890625 0 
L 45.90625 0 
L 45.90625 32.71875 
Q 45.90625 40.484375 42.875 44.328125 
Q 39.84375 48.1875 33.796875 48.1875 
Q 26.515625 48.1875 22.3125 43.546875 
Q 18.109375 38.921875 18.109375 30.90625 
L 18.109375 0 
L 9.078125 0 
L 9.078125 75.984375 
L 18.109375 75.984375 
L 18.109375 46.1875 
Q 21.34375 51.125 25.703125 53.5625 
Q 30.078125 56 35.796875 56 
Q 45.21875 56 50.046875 50.171875 
Q 54.890625 44.34375 54.890625 33.015625 
z
" id="DejaVuSans-104"/>
      <path d="M 9.421875 54.6875 
L 18.40625 54.6875 
L 18.40625 0 
L 9.421875 0 
z
M 9.421875 75.984375 
L 18.40625 75.984375 
L 18.40625 64.59375 
L 9.421875 64.59375 
z
" id="DejaVuSans-105"/>
      <path d="M 54.890625 33.015625 
L 54.890625 0 
L 45.90625 0 
L 45.90625 32.71875 
Q 45.90625 40.484375 42.875 44.328125 
Q 39.84375 48.1875 33.796875 48.1875 
Q 26.515625 48.1875 22.3125 43.546875 
Q 18.109375 38.921875 18.109375 30.90625 
L 18.109375 0 
L 9.078125 0 
L 9.078125 54.6875 
L 18.109375 54.6875 
L 18.109375 46.1875 
Q 21.34375 51.125 25.703125 53.5625 
Q 30.078125 56 35.796875 56 
Q 45.21875 56 50.046875 50.171875 
Q 54.890625 44.34375 54.890625 33.015625 
z
" id="DejaVuSans-110"/>
      <path d="M 18.109375 8.203125 
L 18.109375 -20.796875 
L 9.078125 -20.796875 
L 9.078125 54.6875 
L 18.109375 54.6875 
L 18.109375 46.390625 
Q 20.953125 51.265625 25.265625 53.625 
Q 29.59375 56 35.59375 56 
Q 45.5625 56 51.78125 48.09375 
Q 58.015625 40.1875 58.015625 27.296875 
Q 58.015625 14.40625 51.78125 6.484375 
Q 45.5625 -1.421875 35.59375 -1.421875 
Q 29.59375 -1.421875 25.265625 0.953125 
Q 20.953125 3.328125 18.109375 8.203125 
z
M 48.6875 27.296875 
Q 48.6875 37.203125 44.609375 42.84375 
Q 40.53125 48.484375 33.40625 48.484375 
Q 26.265625 48.484375 22.1875 42.84375 
Q 18.109375 37.203125 18.109375 27.296875 
Q 18.109375 17.390625 22.1875 11.75 
Q 26.265625 6.109375 33.40625 6.109375 
Q 40.53125 6.109375 44.609375 11.75 
Q 48.6875 17.390625 48.6875 27.296875 
z
" id="DejaVuSans-112"/>
      <path d="M 56.203125 29.59375 
L 56.203125 25.203125 
L 14.890625 25.203125 
Q 15.484375 15.921875 20.484375 11.0625 
Q 25.484375 6.203125 34.421875 6.203125 
Q 39.59375 6.203125 44.453125 7.46875 
Q 49.3125 8.734375 54.109375 11.28125 
L 54.109375 2.78125 
Q 49.265625 0.734375 44.1875 -0.34375 
Q 39.109375 -1.421875 33.890625 -1.421875 
Q 20.796875 -1.421875 13.15625 6.1875 
Q 5.515625 13.8125 5.515625 26.8125 
Q 5.515625 40.234375 12.765625 48.109375 
Q 20.015625 56 32.328125 56 
Q 43.359375 56 49.78125 48.890625 
Q 56.203125 41.796875 56.203125 29.59375 
z
M 47.21875 32.234375 
Q 47.125 39.59375 43.09375 43.984375 
Q 39.0625 48.390625 32.421875 48.390625 
Q 24.90625 48.390625 20.390625 44.140625 
Q 15.875 39.890625 15.1875 32.171875 
z
" id="DejaVuSans-101"/>
      <path d="M 45.40625 46.390625 
L 45.40625 75.984375 
L 54.390625 75.984375 
L 54.390625 0 
L 45.40625 0 
L 45.40625 8.203125 
Q 42.578125 3.328125 38.25 0.953125 
Q 33.9375 -1.421875 27.875 -1.421875 
Q 17.96875 -1.421875 11.734375 6.484375 
Q 5.515625 14.40625 5.515625 27.296875 
Q 5.515625 40.1875 11.734375 48.09375 
Q 17.96875 56 27.875 56 
Q 33.9375 56 38.25 53.625 
Q 42.578125 51.265625 45.40625 46.390625 
z
M 14.796875 27.296875 
Q 14.796875 17.390625 18.875 11.75 
Q 22.953125 6.109375 30.078125 6.109375 
Q 37.203125 6.109375 41.296875 11.75 
Q 45.40625 17.390625 45.40625 27.296875 
Q 45.40625 37.203125 41.296875 42.84375 
Q 37.203125 48.484375 30.078125 48.484375 
Q 22.953125 48.484375 18.875 42.84375 
Q 14.796875 37.203125 14.796875 27.296875 
z
" id="DejaVuSans-100"/>
      <path d="M 32.171875 -5.078125 
Q 28.375 -14.84375 24.75 -17.8125 
Q 21.140625 -20.796875 15.09375 -20.796875 
L 7.90625 -20.796875 
L 7.90625 -13.28125 
L 13.1875 -13.28125 
Q 16.890625 -13.28125 18.9375 -11.515625 
Q 21 -9.765625 23.484375 -3.21875 
L 25.09375 0.875 
L 2.984375 54.6875 
L 12.5 54.6875 
L 29.59375 11.921875 
L 46.6875 54.6875 
L 56.203125 54.6875 
z
" id="DejaVuSans-121"/>
     </defs>
     <g transform="translate(91.195312 388.090156)rotate(-90)scale(0.1 -0.1)">
      <use xlink:href="#DejaVuSans-40"/>
      <use x="39.013672" xlink:href="#DejaVuSans-98"/>
      <use x="102.490234" xlink:href="#DejaVuSans-97"/>
      <use x="163.769531" xlink:href="#DejaVuSans-99"/>
      <use x="218.75" xlink:href="#DejaVuSans-107"/>
      <use x="276.660156" xlink:href="#DejaVuSans-119"/>
      <use x="358.447266" xlink:href="#DejaVuSans-32"/>
      <use x="390.234375" xlink:href="#DejaVuSans-97"/>
      <use x="451.513672" xlink:href="#DejaVuSans-118"/>
      <use x="510.693359" xlink:href="#DejaVuSans-103"/>
      <use x="574.169922" xlink:href="#DejaVuSans-41"/>
      <use x="613.183594" xlink:href="#DejaVuSans-32"/>
      <use x="644.970703" xlink:href="#DejaVuSans-103"/>
      <use x="708.447266" xlink:href="#DejaVuSans-114"/>
      <use x="747.310547" xlink:href="#DejaVuSans-111"/>
      <use x="808.492188" xlink:href="#DejaVuSans-119"/>
      <use x="890.279297" xlink:href="#DejaVuSans-116"/>
      <use x="929.488281" xlink:href="#DejaVuSans-104"/>
      <use x="992.867188" xlink:href="#DejaVuSans-32"/>
      <use x="1024.654297" xlink:href="#DejaVuSans-105"/>
      <use x="1052.4375" xlink:href="#DejaVuSans-110"/>
      <use x="1115.816406" xlink:href="#DejaVuSans-32"/>
      <use x="1147.603516" xlink:href="#DejaVuSans-112"/>
      <use x="1211.080078" xlink:href="#DejaVuSans-101"/>
      <use x="1272.603516" xlink:href="#DejaVuSans-114"/>
      <use x="1311.466797" xlink:href="#DejaVuSans-99"/>
      <use x="1366.447266" xlink:href="#DejaVuSans-101"/>
      <use x="1427.970703" xlink:href="#DejaVuSans-110"/>
      <use x="1491.349609" xlink:href="#DejaVuSans-116"/>
      <use x="1530.558594" xlink:href="#DejaVuSans-32"/>
      <use x="1562.345703" xlink:href="#DejaVuSans-112"/>
      <use x="1625.822266" xlink:href="#DejaVuSans-101"/>
      <use x="1687.345703" xlink:href="#DejaVuSans-114"/>
      <use x="1728.458984" xlink:href="#DejaVuSans-32"/>
      <use x="1760.246094" xlink:href="#DejaVuSans-100"/>
      <use x="1823.722656" xlink:href="#DejaVuSans-97"/>
      <use x="1885.001953" xlink:href="#DejaVuSans-121"/>
     </g>
    </g>
   </g>
   <g id="line2d_111">
    <path clip-path="url(#p0afc2f872f)" d="M 184.510215 -1 
L 195.981184 282.369863 
L 211.317336 286.380309 
L 226.653488 272.416253 
L 241.989641 284.726916 
L 257.325793 309.43158 
L 272.661945 260.537583 
L 287.998097 124.643563 
L 303.334249 190.55455 
L 318.670402 238.778961 
L 334.006554 247.471429 
L 349.342706 322.414112 
L 364.678858 242.954701 
L 380.015011 208.756321 
L 395.351163 279.640085 
L 410.687315 262.436675 
L 426.023467 403.034814 
L 441.359619 335.216697 
L 456.695772 274.513985 
L 472.031924 365.953248 
L 487.368076 345.131941 
L 502.704228 379.956829 
L 518.040381 381.097593 
L 533.376533 387.243749 
L 548.712685 389.271025 
L 564.048837 369.605024 
L 579.384989 387.946163 
L 594.721142 419.581638 
L 610.057294 424.185643 
L 625.393446 427.736231 
L 640.729598 437.736971 
L 656.065751 433.45906 
L 671.401903 432.560148 
L 686.738055 445.949878 
L 702.074207 453.9778 
L 717.410359 455.157997 
L 732.746512 461.348265 
L 748.082664 466.628102 
L 763.418816 467.893573 
L 778.754968 472.0759 
L 794.091121 479.73873 
L 809.427273 482.059152 
" style="fill:none;stroke:#1f77b4;stroke-linecap:square;stroke-width:1.5;"/>
    <defs>
     <path d="M 0 3 
C 0.795609 3 1.55874 2.683901 2.12132 2.12132 
C 2.683901 1.55874 3 0.795609 3 0 
C 3 -0.795609 2.683901 -1.55874 2.12132 -2.12132 
C 1.55874 -2.683901 0.795609 -3 0 -3 
C -0.795609 -3 -1.55874 -2.683901 -2.12132 -2.12132 
C -2.683901 -1.55874 -3 -0.795609 -3 0 
C -3 0.795609 -2.683901 1.55874 -2.12132 2.12132 
C -1.55874 2.683901 -0.795609 3 0 3 
z
" id="m8536f197cf" style="stroke:#1f77b4;"/>
    </defs>
    <g clip-path="url(#p0afc2f872f)">
     <use style="fill:#1f77b4;stroke:#1f77b4;" x="184.510215" xlink:href="#m8536f197cf" y="-1"/>
     <use style="fill:#1f77b4;stroke:#1f77b4;" x="195.981184" xlink:href="#m8536f197cf" y="282.369863"/>
     <use style="fill:#1f77b4;stroke:#1f77b4;" x="211.317336" xlink:href="#m8536f197cf" y="286.380309"/>
     <use style="fill:#1f77b4;stroke:#1f77b4;" x="226.653488" xlink:href="#m8536f197cf" y="272.416253"/>
     <use style="fill:#1f77b4;stroke:#1f77b4;" x="241.989641" xlink:href="#m8536f197cf" y="284.726916"/>
     <use style="fill:#1f77b4;stroke:#1f77b4;" x="257.325793" xlink:href="#m8536f197cf" y="309.43158"/>
     <use style="fill:#1f77b4;stroke:#1f77b4;" x="272.661945" xlink:href="#m8536f197cf" y="260.537583"/>
     <use style="fill:#1f77b4;stroke:#1f77b4;" x="287.998097" xlink:href="#m8536f197cf" y="124.643563"/>
     <use style="fill:#1f77b4;stroke:#1f77b4;" x="303.334249" xlink:href="#m8536f197cf" y="190.55455"/>
     <use style="fill:#1f77b4;stroke:#1f77b4;" x="318.670402" xlink:href="#m8536f197cf" y="238.778961"/>
     <use style="fill:#1f77b4;stroke:#1f77b4;" x="334.006554" xlink:href="#m8536f197cf" y="247.471429"/>
     <use style="fill:#1f77b4;stroke:#1f77b4;" x="349.342706" xlink:href="#m8536f197cf" y="322.414112"/>
     <use style="fill:#1f77b4;stroke:#1f77b4;" x="364.678858" xlink:href="#m8536f197cf" y="242.954701"/>
     <use style="fill:#1f77b4;stroke:#1f77b4;" x="380.015011" xlink:href="#m8536f197cf" y="208.756321"/>
     <use style="fill:#1f77b4;stroke:#1f77b4;" x="395.351163" xlink:href="#m8536f197cf" y="279.640085"/>
     <use style="fill:#1f77b4;stroke:#1f77b4;" x="410.687315" xlink:href="#m8536f197cf" y="262.436675"/>
     <use style="fill:#1f77b4;stroke:#1f77b4;" x="426.023467" xlink:href="#m8536f197cf" y="403.034814"/>
     <use style="fill:#1f77b4;stroke:#1f77b4;" x="441.359619" xlink:href="#m8536f197cf" y="335.216697"/>
     <use style="fill:#1f77b4;stroke:#1f77b4;" x="456.695772" xlink:href="#m8536f197cf" y="274.513985"/>
     <use style="fill:#1f77b4;stroke:#1f77b4;" x="472.031924" xlink:href="#m8536f197cf" y="365.953248"/>
     <use style="fill:#1f77b4;stroke:#1f77b4;" x="487.368076" xlink:href="#m8536f197cf" y="345.131941"/>
     <use style="fill:#1f77b4;stroke:#1f77b4;" x="502.704228" xlink:href="#m8536f197cf" y="379.956829"/>
     <use style="fill:#1f77b4;stroke:#1f77b4;" x="518.040381" xlink:href="#m8536f197cf" y="381.097593"/>
     <use style="fill:#1f77b4;stroke:#1f77b4;" x="533.376533" xlink:href="#m8536f197cf" y="387.243749"/>
     <use style="fill:#1f77b4;stroke:#1f77b4;" x="548.712685" xlink:href="#m8536f197cf" y="389.271025"/>
     <use style="fill:#1f77b4;stroke:#1f77b4;" x="564.048837" xlink:href="#m8536f197cf" y="369.605024"/>
     <use style="fill:#1f77b4;stroke:#1f77b4;" x="579.384989" xlink:href="#m8536f197cf" y="387.946163"/>
     <use style="fill:#1f77b4;stroke:#1f77b4;" x="594.721142" xlink:href="#m8536f197cf" y="419.581638"/>
     <use style="fill:#1f77b4;stroke:#1f77b4;" x="610.057294" xlink:href="#m8536f197cf" y="424.185643"/>
     <use style="fill:#1f77b4;stroke:#1f77b4;" x="625.393446" xlink:href="#m8536f197cf" y="427.736231"/>
     <use style="fill:#1f77b4;stroke:#1f77b4;" x="640.729598" xlink:href="#m8536f197cf" y="437.736971"/>
     <use style="fill:#1f77b4;stroke:#1f77b4;" x="656.065751" xlink:href="#m8536f197cf" y="433.45906"/>
     <use style="fill:#1f77b4;stroke:#1f77b4;" x="671.401903" xlink:href="#m8536f197cf" y="432.560148"/>
     <use style="fill:#1f77b4;stroke:#1f77b4;" x="686.738055" xlink:href="#m8536f197cf" y="445.949878"/>
     <use style="fill:#1f77b4;stroke:#1f77b4;" x="702.074207" xlink:href="#m8536f197cf" y="453.9778"/>
     <use style="fill:#1f77b4;stroke:#1f77b4;" x="717.410359" xlink:href="#m8536f197cf" y="455.157997"/>
     <use style="fill:#1f77b4;stroke:#1f77b4;" x="732.746512" xlink:href="#m8536f197cf" y="461.348265"/>
     <use style="fill:#1f77b4;stroke:#1f77b4;" x="748.082664" xlink:href="#m8536f197cf" y="466.628102"/>
     <use style="fill:#1f77b4;stroke:#1f77b4;" x="763.418816" xlink:href="#m8536f197cf" y="467.893573"/>
     <use style="fill:#1f77b4;stroke:#1f77b4;" x="778.754968" xlink:href="#m8536f197cf" y="472.0759"/>
     <use style="fill:#1f77b4;stroke:#1f77b4;" x="794.091121" xlink:href="#m8536f197cf" y="479.73873"/>
     <use style="fill:#1f77b4;stroke:#1f77b4;" x="809.427273" xlink:href="#m8536f197cf" y="482.059152"/>
    </g>
   </g>
   <g id="line2d_112">
    <path clip-path="url(#p0afc2f872f)" d="M 186.593687 -1 
L 195.981184 94.733679 
L 211.317336 111.023392 
L 226.653488 277.405885 
L 241.989641 285.553969 
L 257.325793 291.103847 
L 272.661945 272.707636 
L 287.998097 221.206896 
L 303.334249 226.148024 
L 318.670402 183.246889 
L 334.006554 219.408573 
L 349.342706 281.505603 
L 364.678858 245.215621 
L 380.015011 267.238914 
L 395.351163 261.468794 
L 410.687315 235.954159 
L 426.023467 343.451096 
L 441.359619 299.528311 
L 456.695772 341.061016 
L 472.031924 350.71733 
L 487.368076 310.491297 
L 502.704228 372.983217 
L 518.040381 363.298577 
L 533.376533 383.608014 
L 548.712685 385.194045 
L 564.048837 378.469377 
L 579.384989 388.608851 
L 594.721142 394.961462 
L 610.057294 406.262105 
L 625.393446 423.669081 
L 640.729598 430.98958 
L 656.065751 430.602686 
L 671.401903 435.152707 
L 686.738055 439.728751 
L 702.074207 443.340687 
L 717.410359 450.567315 
L 732.746512 457.67168 
L 748.082664 460.914081 
L 763.418816 464.6278 
L 778.754968 469.356797 
L 794.091121 473.838957 
L 809.427273 477.083794 
" style="fill:none;stroke:#ff7f0e;stroke-linecap:square;stroke-width:1.5;"/>
    <defs>
     <path d="M 0 3 
C 0.795609 3 1.55874 2.683901 2.12132 2.12132 
C 2.683901 1.55874 3 0.795609 3 0 
C 3 -0.795609 2.683901 -1.55874 2.12132 -2.12132 
C 1.55874 -2.683901 0.795609 -3 0 -3 
C -0.795609 -3 -1.55874 -2.683901 -2.12132 -2.12132 
C -2.683901 -1.55874 -3 -0.795609 -3 0 
C -3 0.795609 -2.683901 1.55874 -2.12132 2.12132 
C -1.55874 2.683901 -0.795609 3 0 3 
z
" id="mc82b8ce2a2" style="stroke:#ff7f0e;"/>
    </defs>
    <g clip-path="url(#p0afc2f872f)">
     <use style="fill:#ff7f0e;stroke:#ff7f0e;" x="186.593687" xlink:href="#mc82b8ce2a2" y="-1"/>
     <use style="fill:#ff7f0e;stroke:#ff7f0e;" x="195.981184" xlink:href="#mc82b8ce2a2" y="94.733679"/>
     <use style="fill:#ff7f0e;stroke:#ff7f0e;" x="211.317336" xlink:href="#mc82b8ce2a2" y="111.023392"/>
     <use style="fill:#ff7f0e;stroke:#ff7f0e;" x="226.653488" xlink:href="#mc82b8ce2a2" y="277.405885"/>
     <use style="fill:#ff7f0e;stroke:#ff7f0e;" x="241.989641" xlink:href="#mc82b8ce2a2" y="285.553969"/>
     <use style="fill:#ff7f0e;stroke:#ff7f0e;" x="257.325793" xlink:href="#mc82b8ce2a2" y="291.103847"/>
     <use style="fill:#ff7f0e;stroke:#ff7f0e;" x="272.661945" xlink:href="#mc82b8ce2a2" y="272.707636"/>
     <use style="fill:#ff7f0e;stroke:#ff7f0e;" x="287.998097" xlink:href="#mc82b8ce2a2" y="221.206896"/>
     <use style="fill:#ff7f0e;stroke:#ff7f0e;" x="303.334249" xlink:href="#mc82b8ce2a2" y="226.148024"/>
     <use style="fill:#ff7f0e;stroke:#ff7f0e;" x="318.670402" xlink:href="#mc82b8ce2a2" y="183.246889"/>
     <use style="fill:#ff7f0e;stroke:#ff7f0e;" x="334.006554" xlink:href="#mc82b8ce2a2" y="219.408573"/>
     <use style="fill:#ff7f0e;stroke:#ff7f0e;" x="349.342706" xlink:href="#mc82b8ce2a2" y="281.505603"/>
     <use style="fill:#ff7f0e;stroke:#ff7f0e;" x="364.678858" xlink:href="#mc82b8ce2a2" y="245.215621"/>
     <use style="fill:#ff7f0e;stroke:#ff7f0e;" x="380.015011" xlink:href="#mc82b8ce2a2" y="267.238914"/>
     <use style="fill:#ff7f0e;stroke:#ff7f0e;" x="395.351163" xlink:href="#mc82b8ce2a2" y="261.468794"/>
     <use style="fill:#ff7f0e;stroke:#ff7f0e;" x="410.687315" xlink:href="#mc82b8ce2a2" y="235.954159"/>
     <use style="fill:#ff7f0e;stroke:#ff7f0e;" x="426.023467" xlink:href="#mc82b8ce2a2" y="343.451096"/>
     <use style="fill:#ff7f0e;stroke:#ff7f0e;" x="441.359619" xlink:href="#mc82b8ce2a2" y="299.528311"/>
     <use style="fill:#ff7f0e;stroke:#ff7f0e;" x="456.695772" xlink:href="#mc82b8ce2a2" y="341.061016"/>
     <use style="fill:#ff7f0e;stroke:#ff7f0e;" x="472.031924" xlink:href="#mc82b8ce2a2" y="350.71733"/>
     <use style="fill:#ff7f0e;stroke:#ff7f0e;" x="487.368076" xlink:href="#mc82b8ce2a2" y="310.491297"/>
     <use style="fill:#ff7f0e;stroke:#ff7f0e;" x="502.704228" xlink:href="#mc82b8ce2a2" y="372.983217"/>
     <use style="fill:#ff7f0e;stroke:#ff7f0e;" x="518.040381" xlink:href="#mc82b8ce2a2" y="363.298577"/>
     <use style="fill:#ff7f0e;stroke:#ff7f0e;" x="533.376533" xlink:href="#mc82b8ce2a2" y="383.608014"/>
     <use style="fill:#ff7f0e;stroke:#ff7f0e;" x="548.712685" xlink:href="#mc82b8ce2a2" y="385.194045"/>
     <use style="fill:#ff7f0e;stroke:#ff7f0e;" x="564.048837" xlink:href="#mc82b8ce2a2" y="378.469377"/>
     <use style="fill:#ff7f0e;stroke:#ff7f0e;" x="579.384989" xlink:href="#mc82b8ce2a2" y="388.608851"/>
     <use style="fill:#ff7f0e;stroke:#ff7f0e;" x="594.721142" xlink:href="#mc82b8ce2a2" y="394.961462"/>
     <use style="fill:#ff7f0e;stroke:#ff7f0e;" x="610.057294" xlink:href="#mc82b8ce2a2" y="406.262105"/>
     <use style="fill:#ff7f0e;stroke:#ff7f0e;" x="625.393446" xlink:href="#mc82b8ce2a2" y="423.669081"/>
     <use style="fill:#ff7f0e;stroke:#ff7f0e;" x="640.729598" xlink:href="#mc82b8ce2a2" y="430.98958"/>
     <use style="fill:#ff7f0e;stroke:#ff7f0e;" x="656.065751" xlink:href="#mc82b8ce2a2" y="430.602686"/>
     <use style="fill:#ff7f0e;stroke:#ff7f0e;" x="671.401903" xlink:href="#mc82b8ce2a2" y="435.152707"/>
     <use style="fill:#ff7f0e;stroke:#ff7f0e;" x="686.738055" xlink:href="#mc82b8ce2a2" y="439.728751"/>
     <use style="fill:#ff7f0e;stroke:#ff7f0e;" x="702.074207" xlink:href="#mc82b8ce2a2" y="443.340687"/>
     <use style="fill:#ff7f0e;stroke:#ff7f0e;" x="717.410359" xlink:href="#mc82b8ce2a2" y="450.567315"/>
     <use style="fill:#ff7f0e;stroke:#ff7f0e;" x="732.746512" xlink:href="#mc82b8ce2a2" y="457.67168"/>
     <use style="fill:#ff7f0e;stroke:#ff7f0e;" x="748.082664" xlink:href="#mc82b8ce2a2" y="460.914081"/>
     <use style="fill:#ff7f0e;stroke:#ff7f0e;" x="763.418816" xlink:href="#mc82b8ce2a2" y="464.6278"/>
     <use style="fill:#ff7f0e;stroke:#ff7f0e;" x="778.754968" xlink:href="#mc82b8ce2a2" y="469.356797"/>
     <use style="fill:#ff7f0e;stroke:#ff7f0e;" x="794.091121" xlink:href="#mc82b8ce2a2" y="473.838957"/>
     <use style="fill:#ff7f0e;stroke:#ff7f0e;" x="809.427273" xlink:href="#mc82b8ce2a2" y="477.083794"/>
    </g>
   </g>
   <g id="line2d_113">
    <path clip-path="url(#p0afc2f872f)" d="M 226.653488 109.57199 
L 241.989641 167.976535 
L 257.325793 205.154587 
L 272.661945 265.92334 
L 287.998097 257.298262 
L 303.334249 240.105387 
L 318.670402 243.526586 
L 334.006554 232.80763 
L 349.342706 254.918784 
L 364.678858 212.757557 
L 380.015011 240.311484 
L 395.351163 255.748963 
L 410.687315 260.375029 
L 426.023467 304.865398 
L 441.359619 285.940908 
L 456.695772 291.170486 
L 472.031924 321.163481 
L 487.368076 328.858491 
L 502.704228 349.675322 
L 518.040381 361.933945 
L 533.376533 344.908813 
L 548.712685 377.253557 
L 564.048837 371.039347 
L 579.384989 383.512641 
L 594.721142 392.339395 
L 610.057294 396.334733 
L 625.393446 405.753251 
L 640.729598 410.919482 
L 656.065751 418.370551 
L 671.401903 428.516001 
L 686.738055 434.75629 
L 702.074207 438.385437 
L 717.410359 443.611915 
L 732.746512 448.006376 
L 748.082664 451.913515 
L 763.418816 457.818457 
L 778.754968 463.131547 
L 794.091121 467.47624 
L 809.427273 471.16461 
" style="fill:none;stroke:#2ca02c;stroke-linecap:square;stroke-width:1.5;"/>
    <defs>
     <path d="M 0 3 
C 0.795609 3 1.55874 2.683901 2.12132 2.12132 
C 2.683901 1.55874 3 0.795609 3 0 
C 3 -0.795609 2.683901 -1.55874 2.12132 -2.12132 
C 1.55874 -2.683901 0.795609 -3 0 -3 
C -0.795609 -3 -1.55874 -2.683901 -2.12132 -2.12132 
C -2.683901 -1.55874 -3 -0.795609 -3 0 
C -3 0.795609 -2.683901 1.55874 -2.12132 2.12132 
C -1.55874 2.683901 -0.795609 3 0 3 
z
" id="mb4abfeb3af" style="stroke:#2ca02c;"/>
    </defs>
    <g clip-path="url(#p0afc2f872f)">
     <use style="fill:#2ca02c;stroke:#2ca02c;" x="226.653488" xlink:href="#mb4abfeb3af" y="109.57199"/>
     <use style="fill:#2ca02c;stroke:#2ca02c;" x="241.989641" xlink:href="#mb4abfeb3af" y="167.976535"/>
     <use style="fill:#2ca02c;stroke:#2ca02c;" x="257.325793" xlink:href="#mb4abfeb3af" y="205.154587"/>
     <use style="fill:#2ca02c;stroke:#2ca02c;" x="272.661945" xlink:href="#mb4abfeb3af" y="265.92334"/>
     <use style="fill:#2ca02c;stroke:#2ca02c;" x="287.998097" xlink:href="#mb4abfeb3af" y="257.298262"/>
     <use style="fill:#2ca02c;stroke:#2ca02c;" x="303.334249" xlink:href="#mb4abfeb3af" y="240.105387"/>
     <use style="fill:#2ca02c;stroke:#2ca02c;" x="318.670402" xlink:href="#mb4abfeb3af" y="243.526586"/>
     <use style="fill:#2ca02c;stroke:#2ca02c;" x="334.006554" xlink:href="#mb4abfeb3af" y="232.80763"/>
     <use style="fill:#2ca02c;stroke:#2ca02c;" x="349.342706" xlink:href="#mb4abfeb3af" y="254.918784"/>
     <use style="fill:#2ca02c;stroke:#2ca02c;" x="364.678858" xlink:href="#mb4abfeb3af" y="212.757557"/>
     <use style="fill:#2ca02c;stroke:#2ca02c;" x="380.015011" xlink:href="#mb4abfeb3af" y="240.311484"/>
     <use style="fill:#2ca02c;stroke:#2ca02c;" x="395.351163" xlink:href="#mb4abfeb3af" y="255.748963"/>
     <use style="fill:#2ca02c;stroke:#2ca02c;" x="410.687315" xlink:href="#mb4abfeb3af" y="260.375029"/>
     <use style="fill:#2ca02c;stroke:#2ca02c;" x="426.023467" xlink:href="#mb4abfeb3af" y="304.865398"/>
     <use style="fill:#2ca02c;stroke:#2ca02c;" x="441.359619" xlink:href="#mb4abfeb3af" y="285.940908"/>
     <use style="fill:#2ca02c;stroke:#2ca02c;" x="456.695772" xlink:href="#mb4abfeb3af" y="291.170486"/>
     <use style="fill:#2ca02c;stroke:#2ca02c;" x="472.031924" xlink:href="#mb4abfeb3af" y="321.163481"/>
     <use style="fill:#2ca02c;stroke:#2ca02c;" x="487.368076" xlink:href="#mb4abfeb3af" y="328.858491"/>
     <use style="fill:#2ca02c;stroke:#2ca02c;" x="502.704228" xlink:href="#mb4abfeb3af" y="349.675322"/>
     <use style="fill:#2ca02c;stroke:#2ca02c;" x="518.040381" xlink:href="#mb4abfeb3af" y="361.933945"/>
     <use style="fill:#2ca02c;stroke:#2ca02c;" x="533.376533" xlink:href="#mb4abfeb3af" y="344.908813"/>
     <use style="fill:#2ca02c;stroke:#2ca02c;" x="548.712685" xlink:href="#mb4abfeb3af" y="377.253557"/>
     <use style="fill:#2ca02c;stroke:#2ca02c;" x="564.048837" xlink:href="#mb4abfeb3af" y="371.039347"/>
     <use style="fill:#2ca02c;stroke:#2ca02c;" x="579.384989" xlink:href="#mb4abfeb3af" y="383.512641"/>
     <use style="fill:#2ca02c;stroke:#2ca02c;" x="594.721142" xlink:href="#mb4abfeb3af" y="392.339395"/>
     <use style="fill:#2ca02c;stroke:#2ca02c;" x="610.057294" xlink:href="#mb4abfeb3af" y="396.334733"/>
     <use style="fill:#2ca02c;stroke:#2ca02c;" x="625.393446" xlink:href="#mb4abfeb3af" y="405.753251"/>
     <use style="fill:#2ca02c;stroke:#2ca02c;" x="640.729598" xlink:href="#mb4abfeb3af" y="410.919482"/>
     <use style="fill:#2ca02c;stroke:#2ca02c;" x="656.065751" xlink:href="#mb4abfeb3af" y="418.370551"/>
     <use style="fill:#2ca02c;stroke:#2ca02c;" x="671.401903" xlink:href="#mb4abfeb3af" y="428.516001"/>
     <use style="fill:#2ca02c;stroke:#2ca02c;" x="686.738055" xlink:href="#mb4abfeb3af" y="434.75629"/>
     <use style="fill:#2ca02c;stroke:#2ca02c;" x="702.074207" xlink:href="#mb4abfeb3af" y="438.385437"/>
     <use style="fill:#2ca02c;stroke:#2ca02c;" x="717.410359" xlink:href="#mb4abfeb3af" y="443.611915"/>
     <use style="fill:#2ca02c;stroke:#2ca02c;" x="732.746512" xlink:href="#mb4abfeb3af" y="448.006376"/>
     <use style="fill:#2ca02c;stroke:#2ca02c;" x="748.082664" xlink:href="#mb4abfeb3af" y="451.913515"/>
     <use style="fill:#2ca02c;stroke:#2ca02c;" x="763.418816" xlink:href="#mb4abfeb3af" y="457.818457"/>
     <use style="fill:#2ca02c;stroke:#2ca02c;" x="778.754968" xlink:href="#mb4abfeb3af" y="463.131547"/>
     <use style="fill:#2ca02c;stroke:#2ca02c;" x="794.091121" xlink:href="#mb4abfeb3af" y="467.47624"/>
     <use style="fill:#2ca02c;stroke:#2ca02c;" x="809.427273" xlink:href="#mb4abfeb3af" y="471.16461"/>
    </g>
   </g>
   <g id="line2d_114">
    <path clip-path="url(#p0afc2f872f)" d="M 334.006554 172.962684 
L 349.342706 212.364153 
L 364.678858 208.963061 
L 380.015011 253.20026 
L 395.351163 256.523917 
L 410.687315 250.291948 
L 426.023467 274.68163 
L 441.359619 259.73315 
L 456.695772 273.214035 
L 472.031924 268.466928 
L 487.368076 285.608271 
L 502.704228 303.885841 
L 518.040381 312.539286 
L 533.376533 325.105475 
L 548.712685 332.741684 
L 564.048837 331.979884 
L 579.384989 352.883889 
L 594.721142 361.170074 
L 610.057294 373.317935 
L 625.393446 384.123049 
L 640.729598 378.544094 
L 656.065751 398.062164 
L 671.401903 400.267617 
L 686.738055 409.528256 
L 702.074207 415.682754 
L 717.410359 420.312917 
L 732.746512 427.153351 
L 748.082664 431.675414 
L 763.418816 438.336245 
L 778.754968 446.011715 
L 794.091121 451.285306 
L 809.427273 454.945465 
" style="fill:none;stroke:#d62728;stroke-linecap:square;stroke-width:1.5;"/>
    <defs>
     <path d="M 0 3 
C 0.795609 3 1.55874 2.683901 2.12132 2.12132 
C 2.683901 1.55874 3 0.795609 3 0 
C 3 -0.795609 2.683901 -1.55874 2.12132 -2.12132 
C 1.55874 -2.683901 0.795609 -3 0 -3 
C -0.795609 -3 -1.55874 -2.683901 -2.12132 -2.12132 
C -2.683901 -1.55874 -3 -0.795609 -3 0 
C -3 0.795609 -2.683901 1.55874 -2.12132 2.12132 
C -1.55874 2.683901 -0.795609 3 0 3 
z
" id="m33a8caf097" style="stroke:#d62728;"/>
    </defs>
    <g clip-path="url(#p0afc2f872f)">
     <use style="fill:#d62728;stroke:#d62728;" x="334.006554" xlink:href="#m33a8caf097" y="172.962684"/>
     <use style="fill:#d62728;stroke:#d62728;" x="349.342706" xlink:href="#m33a8caf097" y="212.364153"/>
     <use style="fill:#d62728;stroke:#d62728;" x="364.678858" xlink:href="#m33a8caf097" y="208.963061"/>
     <use style="fill:#d62728;stroke:#d62728;" x="380.015011" xlink:href="#m33a8caf097" y="253.20026"/>
     <use style="fill:#d62728;stroke:#d62728;" x="395.351163" xlink:href="#m33a8caf097" y="256.523917"/>
     <use style="fill:#d62728;stroke:#d62728;" x="410.687315" xlink:href="#m33a8caf097" y="250.291948"/>
     <use style="fill:#d62728;stroke:#d62728;" x="426.023467" xlink:href="#m33a8caf097" y="274.68163"/>
     <use style="fill:#d62728;stroke:#d62728;" x="441.359619" xlink:href="#m33a8caf097" y="259.73315"/>
     <use style="fill:#d62728;stroke:#d62728;" x="456.695772" xlink:href="#m33a8caf097" y="273.214035"/>
     <use style="fill:#d62728;stroke:#d62728;" x="472.031924" xlink:href="#m33a8caf097" y="268.466928"/>
     <use style="fill:#d62728;stroke:#d62728;" x="487.368076" xlink:href="#m33a8caf097" y="285.608271"/>
     <use style="fill:#d62728;stroke:#d62728;" x="502.704228" xlink:href="#m33a8caf097" y="303.885841"/>
     <use style="fill:#d62728;stroke:#d62728;" x="518.040381" xlink:href="#m33a8caf097" y="312.539286"/>
     <use style="fill:#d62728;stroke:#d62728;" x="533.376533" xlink:href="#m33a8caf097" y="325.105475"/>
     <use style="fill:#d62728;stroke:#d62728;" x="548.712685" xlink:href="#m33a8caf097" y="332.741684"/>
     <use style="fill:#d62728;stroke:#d62728;" x="564.048837" xlink:href="#m33a8caf097" y="331.979884"/>
     <use style="fill:#d62728;stroke:#d62728;" x="579.384989" xlink:href="#m33a8caf097" y="352.883889"/>
     <use style="fill:#d62728;stroke:#d62728;" x="594.721142" xlink:href="#m33a8caf097" y="361.170074"/>
     <use style="fill:#d62728;stroke:#d62728;" x="610.057294" xlink:href="#m33a8caf097" y="373.317935"/>
     <use style="fill:#d62728;stroke:#d62728;" x="625.393446" xlink:href="#m33a8caf097" y="384.123049"/>
     <use style="fill:#d62728;stroke:#d62728;" x="640.729598" xlink:href="#m33a8caf097" y="378.544094"/>
     <use style="fill:#d62728;stroke:#d62728;" x="656.065751" xlink:href="#m33a8caf097" y="398.062164"/>
     <use style="fill:#d62728;stroke:#d62728;" x="671.401903" xlink:href="#m33a8caf097" y="400.267617"/>
     <use style="fill:#d62728;stroke:#d62728;" x="686.738055" xlink:href="#m33a8caf097" y="409.528256"/>
     <use style="fill:#d62728;stroke:#d62728;" x="702.074207" xlink:href="#m33a8caf097" y="415.682754"/>
     <use style="fill:#d62728;stroke:#d62728;" x="717.410359" xlink:href="#m33a8caf097" y="420.312917"/>
     <use style="fill:#d62728;stroke:#d62728;" x="732.746512" xlink:href="#m33a8caf097" y="427.153351"/>
     <use style="fill:#d62728;stroke:#d62728;" x="748.082664" xlink:href="#m33a8caf097" y="431.675414"/>
     <use style="fill:#d62728;stroke:#d62728;" x="763.418816" xlink:href="#m33a8caf097" y="438.336245"/>
     <use style="fill:#d62728;stroke:#d62728;" x="778.754968" xlink:href="#m33a8caf097" y="446.011715"/>
     <use style="fill:#d62728;stroke:#d62728;" x="794.091121" xlink:href="#m33a8caf097" y="451.285306"/>
     <use style="fill:#d62728;stroke:#d62728;" x="809.427273" xlink:href="#m33a8caf097" y="454.945465"/>
    </g>
   </g>
   <g id="patch_3">
    <path d="M 117 512.64 
L 117 69.12 
" style="fill:none;stroke:#000000;stroke-linecap:square;stroke-linejoin:miter;stroke-width:0.8;"/>
   </g>
   <g id="patch_4">
    <path d="M 842.4 512.64 
L 842.4 69.12 
" style="fill:none;stroke:#000000;stroke-linecap:square;stroke-linejoin:miter;stroke-width:0.8;"/>
   </g>
   <g id="patch_5">
    <path d="M 117 512.64 
L 842.4 512.64 
" style="fill:none;stroke:#000000;stroke-linecap:square;stroke-linejoin:miter;stroke-width:0.8;"/>
   </g>
   <g id="patch_6">
    <path d="M 117 69.12 
L 842.4 69.12 
" style="fill:none;stroke:#000000;stroke-linecap:square;stroke-linejoin:miter;stroke-width:0.8;"/>
   </g>
   <g id="text_14">
    <!-- Fatalities, daily growth rate in Italy (2020-01-22..2020-04-06) -->
    <defs>
     <path d="M 9.8125 72.90625 
L 51.703125 72.90625 
L 51.703125 64.59375 
L 19.671875 64.59375 
L 19.671875 43.109375 
L 48.578125 43.109375 
L 48.578125 34.8125 
L 19.671875 34.8125 
L 19.671875 0 
L 9.8125 0 
z
" id="DejaVuSans-70"/>
     <path d="M 9.421875 75.984375 
L 18.40625 75.984375 
L 18.40625 0 
L 9.421875 0 
z
" id="DejaVuSans-108"/>
     <path d="M 44.28125 53.078125 
L 44.28125 44.578125 
Q 40.484375 46.53125 36.375 47.5 
Q 32.28125 48.484375 27.875 48.484375 
Q 21.1875 48.484375 17.84375 46.4375 
Q 14.5 44.390625 14.5 40.28125 
Q 14.5 37.15625 16.890625 35.375 
Q 19.28125 33.59375 26.515625 31.984375 
L 29.59375 31.296875 
Q 39.15625 29.25 43.1875 25.515625 
Q 47.21875 21.78125 47.21875 15.09375 
Q 47.21875 7.46875 41.1875 3.015625 
Q 35.15625 -1.421875 24.609375 -1.421875 
Q 20.21875 -1.421875 15.453125 -0.5625 
Q 10.6875 0.296875 5.421875 2 
L 5.421875 11.28125 
Q 10.40625 8.6875 15.234375 7.390625 
Q 20.0625 6.109375 24.8125 6.109375 
Q 31.15625 6.109375 34.5625 8.28125 
Q 37.984375 10.453125 37.984375 14.40625 
Q 37.984375 18.0625 35.515625 20.015625 
Q 33.0625 21.96875 24.703125 23.78125 
L 21.578125 24.515625 
Q 13.234375 26.265625 9.515625 29.90625 
Q 5.8125 33.546875 5.8125 39.890625 
Q 5.8125 47.609375 11.28125 51.796875 
Q 16.75 56 26.8125 56 
Q 31.78125 56 36.171875 55.265625 
Q 40.578125 54.546875 44.28125 53.078125 
z
" id="DejaVuSans-115"/>
     <path d="M 11.71875 12.40625 
L 22.015625 12.40625 
L 22.015625 4 
L 14.015625 -11.625 
L 7.71875 -11.625 
L 11.71875 4 
z
" id="DejaVuSans-44"/>
     <path d="M 9.8125 72.90625 
L 19.671875 72.90625 
L 19.671875 0 
L 9.8125 0 
z
" id="DejaVuSans-73"/>
     <path d="M 10.6875 12.40625 
L 21 12.40625 
L 21 0 
L 10.6875 0 
z
" id="DejaVuSans-46"/>
    </defs>
    <g transform="translate(295.419375 63.12)scale(0.12 -0.12)">
     <use xlink:href="#DejaVuSans-70"/>
     <use x="48.394531" xlink:href="#DejaVuSans-97"/>
     <use x="109.673828" xlink:href="#DejaVuSans-116"/>
     <use x="148.882812" xlink:href="#DejaVuSans-97"/>
     <use x="210.162109" xlink:href="#DejaVuSans-108"/>
     <use x="237.945312" xlink:href="#DejaVuSans-105"/>
     <use x="265.728516" xlink:href="#DejaVuSans-116"/>
     <use x="304.9375" xlink:href="#DejaVuSans-105"/>
     <use x="332.720703" xlink:href="#DejaVuSans-101"/>
     <use x="394.244141" xlink:href="#DejaVuSans-115"/>
     <use x="446.34375" xlink:href="#DejaVuSans-44"/>
     <use x="478.130859" xlink:href="#DejaVuSans-32"/>
     <use x="509.917969" xlink:href="#DejaVuSans-100"/>
     <use x="573.394531" xlink:href="#DejaVuSans-97"/>
     <use x="634.673828" xlink:href="#DejaVuSans-105"/>
     <use x="662.457031" xlink:href="#DejaVuSans-108"/>
     <use x="690.240234" xlink:href="#DejaVuSans-121"/>
     <use x="749.419922" xlink:href="#DejaVuSans-32"/>
     <use x="781.207031" xlink:href="#DejaVuSans-103"/>
     <use x="844.683594" xlink:href="#DejaVuSans-114"/>
     <use x="883.546875" xlink:href="#DejaVuSans-111"/>
     <use x="944.728516" xlink:href="#DejaVuSans-119"/>
     <use x="1026.515625" xlink:href="#DejaVuSans-116"/>
     <use x="1065.724609" xlink:href="#DejaVuSans-104"/>
     <use x="1129.103516" xlink:href="#DejaVuSans-32"/>
     <use x="1160.890625" xlink:href="#DejaVuSans-114"/>
     <use x="1202.003906" xlink:href="#DejaVuSans-97"/>
     <use x="1263.283203" xlink:href="#DejaVuSans-116"/>
     <use x="1302.492188" xlink:href="#DejaVuSans-101"/>
     <use x="1364.015625" xlink:href="#DejaVuSans-32"/>
     <use x="1395.802734" xlink:href="#DejaVuSans-105"/>
     <use x="1423.585938" xlink:href="#DejaVuSans-110"/>
     <use x="1486.964844" xlink:href="#DejaVuSans-32"/>
     <use x="1518.751953" xlink:href="#DejaVuSans-73"/>
     <use x="1548.244141" xlink:href="#DejaVuSans-116"/>
     <use x="1587.453125" xlink:href="#DejaVuSans-97"/>
     <use x="1648.732422" xlink:href="#DejaVuSans-108"/>
     <use x="1676.515625" xlink:href="#DejaVuSans-121"/>
     <use x="1735.695312" xlink:href="#DejaVuSans-32"/>
     <use x="1767.482422" xlink:href="#DejaVuSans-40"/>
     <use x="1806.496094" xlink:href="#DejaVuSans-50"/>
     <use x="1870.119141" xlink:href="#DejaVuSans-48"/>
     <use x="1933.742188" xlink:href="#DejaVuSans-50"/>
     <use x="1997.365234" xlink:href="#DejaVuSans-48"/>
     <use x="2060.988281" xlink:href="#DejaVuSans-45"/>
     <use x="2097.072266" xlink:href="#DejaVuSans-48"/>
     <use x="2160.695312" xlink:href="#DejaVuSans-49"/>
     <use x="2224.318359" xlink:href="#DejaVuSans-45"/>
     <use x="2260.402344" xlink:href="#DejaVuSans-50"/>
     <use x="2324.025391" xlink:href="#DejaVuSans-50"/>
     <use x="2387.648438" xlink:href="#DejaVuSans-46"/>
     <use x="2419.435547" xlink:href="#DejaVuSans-46"/>
     <use x="2451.222656" xlink:href="#DejaVuSans-50"/>
     <use x="2514.845703" xlink:href="#DejaVuSans-48"/>
     <use x="2578.46875" xlink:href="#DejaVuSans-50"/>
     <use x="2642.091797" xlink:href="#DejaVuSans-48"/>
     <use x="2705.714844" xlink:href="#DejaVuSans-45"/>
     <use x="2741.798828" xlink:href="#DejaVuSans-48"/>
     <use x="2805.421875" xlink:href="#DejaVuSans-52"/>
     <use x="2869.044922" xlink:href="#DejaVuSans-45"/>
     <use x="2905.128906" xlink:href="#DejaVuSans-48"/>
     <use x="2968.751953" xlink:href="#DejaVuSans-54"/>
     <use x="3032.375" xlink:href="#DejaVuSans-41"/>
    </g>
   </g>
   <g id="legend_1">
    <g id="patch_7">
     <path d="M 750.5 150.5325 
L 835.4 150.5325 
Q 837.4 150.5325 837.4 148.5325 
L 837.4 76.12 
Q 837.4 74.12 835.4 74.12 
L 750.5 74.12 
Q 748.5 74.12 748.5 76.12 
L 748.5 148.5325 
Q 748.5 150.5325 750.5 150.5325 
z
" style="fill:#ffffff;opacity:0.8;stroke:#cccccc;stroke-linejoin:miter;"/>
    </g>
    <g id="text_15">
     <!-- Avg over $n$ days -->
     <defs>
      <path d="M 34.1875 63.1875 
L 20.796875 26.90625 
L 47.609375 26.90625 
z
M 28.609375 72.90625 
L 39.796875 72.90625 
L 67.578125 0 
L 57.328125 0 
L 50.6875 18.703125 
L 17.828125 18.703125 
L 11.1875 0 
L 0.78125 0 
z
" id="DejaVuSans-65"/>
      <path d="M 55.71875 33.015625 
L 49.3125 0 
L 40.28125 0 
L 46.6875 32.671875 
Q 47.125 34.96875 47.359375 36.71875 
Q 47.609375 38.484375 47.609375 39.5 
Q 47.609375 43.609375 45.015625 45.890625 
Q 42.4375 48.1875 37.796875 48.1875 
Q 30.5625 48.1875 25.34375 43.375 
Q 20.125 38.578125 18.5 30.328125 
L 12.5 0 
L 3.515625 0 
L 14.109375 54.6875 
L 23.09375 54.6875 
L 21.296875 46.09375 
Q 25.046875 50.828125 30.3125 53.40625 
Q 35.59375 56 41.40625 56 
Q 48.640625 56 52.609375 52.09375 
Q 56.59375 48.1875 56.59375 41.109375 
Q 56.59375 39.359375 56.375 37.359375 
Q 56.15625 35.359375 55.71875 33.015625 
z
" id="DejaVuSans-Oblique-110"/>
     </defs>
     <g transform="translate(752.5 85.72)scale(0.1 -0.1)">
      <use transform="translate(0 0.015625)" xlink:href="#DejaVuSans-65"/>
      <use transform="translate(68.408203 0.015625)" xlink:href="#DejaVuSans-118"/>
      <use transform="translate(127.587891 0.015625)" xlink:href="#DejaVuSans-103"/>
      <use transform="translate(191.064453 0.015625)" xlink:href="#DejaVuSans-32"/>
      <use transform="translate(222.851562 0.015625)" xlink:href="#DejaVuSans-111"/>
      <use transform="translate(284.033203 0.015625)" xlink:href="#DejaVuSans-118"/>
      <use transform="translate(343.212891 0.015625)" xlink:href="#DejaVuSans-101"/>
      <use transform="translate(404.736328 0.015625)" xlink:href="#DejaVuSans-114"/>
      <use transform="translate(445.849609 0.015625)" xlink:href="#DejaVuSans-32"/>
      <use transform="translate(477.636719 0.015625)" xlink:href="#DejaVuSans-Oblique-110"/>
      <use transform="translate(541.015625 0.015625)" xlink:href="#DejaVuSans-32"/>
      <use transform="translate(572.802734 0.015625)" xlink:href="#DejaVuSans-100"/>
      <use transform="translate(636.279297 0.015625)" xlink:href="#DejaVuSans-97"/>
      <use transform="translate(697.558594 0.015625)" xlink:href="#DejaVuSans-121"/>
      <use transform="translate(756.738281 0.015625)" xlink:href="#DejaVuSans-115"/>
     </g>
    </g>
    <g id="line2d_115">
     <path d="M 759.196094 96.918438 
L 779.196094 96.918438 
" style="fill:none;stroke:#1f77b4;stroke-linecap:square;stroke-width:1.5;"/>
    </g>
    <g id="line2d_116">
     <g>
      <use style="fill:#1f77b4;stroke:#1f77b4;" x="769.196094" xlink:href="#m8536f197cf" y="96.918438"/>
     </g>
    </g>
    <g id="text_16">
     <!-- 2 days -->
     <g transform="translate(787.196094 100.418438)scale(0.1 -0.1)">
      <use xlink:href="#DejaVuSans-50"/>
      <use x="63.623047" xlink:href="#DejaVuSans-32"/>
      <use x="95.410156" xlink:href="#DejaVuSans-100"/>
      <use x="158.886719" xlink:href="#DejaVuSans-97"/>
      <use x="220.166016" xlink:href="#DejaVuSans-121"/>
      <use x="279.345703" xlink:href="#DejaVuSans-115"/>
     </g>
    </g>
    <g id="line2d_117">
     <path d="M 759.196094 111.596563 
L 779.196094 111.596563 
" style="fill:none;stroke:#ff7f0e;stroke-linecap:square;stroke-width:1.5;"/>
    </g>
    <g id="line2d_118">
     <g>
      <use style="fill:#ff7f0e;stroke:#ff7f0e;" x="769.196094" xlink:href="#mc82b8ce2a2" y="111.596563"/>
     </g>
    </g>
    <g id="text_17">
     <!-- 4 days -->
     <g transform="translate(787.196094 115.096563)scale(0.1 -0.1)">
      <use xlink:href="#DejaVuSans-52"/>
      <use x="63.623047" xlink:href="#DejaVuSans-32"/>
      <use x="95.410156" xlink:href="#DejaVuSans-100"/>
      <use x="158.886719" xlink:href="#DejaVuSans-97"/>
      <use x="220.166016" xlink:href="#DejaVuSans-121"/>
      <use x="279.345703" xlink:href="#DejaVuSans-115"/>
     </g>
    </g>
    <g id="line2d_119">
     <path d="M 759.196094 126.274688 
L 779.196094 126.274688 
" style="fill:none;stroke:#2ca02c;stroke-linecap:square;stroke-width:1.5;"/>
    </g>
    <g id="line2d_120">
     <g>
      <use style="fill:#2ca02c;stroke:#2ca02c;" x="769.196094" xlink:href="#mb4abfeb3af" y="126.274688"/>
     </g>
    </g>
    <g id="text_18">
     <!-- 7 days -->
     <defs>
      <path d="M 8.203125 72.90625 
L 55.078125 72.90625 
L 55.078125 68.703125 
L 28.609375 0 
L 18.3125 0 
L 43.21875 64.59375 
L 8.203125 64.59375 
z
" id="DejaVuSans-55"/>
     </defs>
     <g transform="translate(787.196094 129.774688)scale(0.1 -0.1)">
      <use xlink:href="#DejaVuSans-55"/>
      <use x="63.623047" xlink:href="#DejaVuSans-32"/>
      <use x="95.410156" xlink:href="#DejaVuSans-100"/>
      <use x="158.886719" xlink:href="#DejaVuSans-97"/>
      <use x="220.166016" xlink:href="#DejaVuSans-121"/>
      <use x="279.345703" xlink:href="#DejaVuSans-115"/>
     </g>
    </g>
    <g id="line2d_121">
     <path d="M 759.196094 140.952813 
L 779.196094 140.952813 
" style="fill:none;stroke:#d62728;stroke-linecap:square;stroke-width:1.5;"/>
    </g>
    <g id="line2d_122">
     <g>
      <use style="fill:#d62728;stroke:#d62728;" x="769.196094" xlink:href="#m33a8caf097" y="140.952813"/>
     </g>
    </g>
    <g id="text_19">
     <!-- 14 days -->
     <g transform="translate(787.196094 144.452813)scale(0.1 -0.1)">
      <use xlink:href="#DejaVuSans-49"/>
      <use x="63.623047" xlink:href="#DejaVuSans-52"/>
      <use x="127.246094" xlink:href="#DejaVuSans-32"/>
      <use x="159.033203" xlink:href="#DejaVuSans-100"/>
      <use x="222.509766" xlink:href="#DejaVuSans-97"/>
      <use x="283.789062" xlink:href="#DejaVuSans-121"/>
      <use x="342.96875" xlink:href="#DejaVuSans-115"/>
     </g>
    </g>
   </g>
  </g>
 </g>
 <defs>
  <clipPath id="p0afc2f872f">
   <rect height="443.52" width="725.4" x="117" y="69.12"/>
  </clipPath>
 </defs>
</svg>
