<?xml version="1.0" encoding="utf-8" standalone="no"?>
<!DOCTYPE svg PUBLIC "-//W3C//DTD SVG 1.1//EN"
  "http://www.w3.org/Graphics/SVG/1.1/DTD/svg11.dtd">
<!-- Created with matplotlib (https://matplotlib.org/) -->
<svg height="576pt" version="1.1" viewBox="0 0 936 576" width="936pt" xmlns="http://www.w3.org/2000/svg" xmlns:xlink="http://www.w3.org/1999/xlink">
 <defs>
  <style type="text/css">
*{stroke-linecap:butt;stroke-linejoin:round;}
  </style>
 </defs>
 <g id="figure_1">
  <g id="patch_1">
   <path d="M 0 576 
L 936 576 
L 936 0 
L 0 0 
z
" style="fill:#ffffff;"/>
  </g>
  <g id="axes_1">
   <g id="patch_2">
    <path d="M 117 512.64 
L 842.4 512.64 
L 842.4 69.12 
L 117 69.12 
z
" style="fill:#ffffff;"/>
   </g>
   <g id="matplotlib.axis_1">
    <g id="xtick_1">
     <g id="line2d_1">
      <path clip-path="url(#p2061df9a81)" d="M 172.712539 512.64 
L 172.712539 69.12 
" style="fill:none;stroke:#d8dcd6;stroke-dasharray:0.8,1.32;stroke-dashoffset:0;stroke-width:0.8;"/>
     </g>
     <g id="line2d_2">
      <defs>
       <path d="M 0 0 
L 0 3.5 
" id="m27095bb6fb" style="stroke:#000000;stroke-width:0.8;"/>
      </defs>
      <g>
       <use style="stroke:#000000;stroke-width:0.8;" x="172.712539" xlink:href="#m27095bb6fb" y="512.64"/>
      </g>
     </g>
     <g id="text_1">
      <!-- 2020-03-02 -->
      <defs>
       <path d="M 19.1875 8.296875 
L 53.609375 8.296875 
L 53.609375 0 
L 7.328125 0 
L 7.328125 8.296875 
Q 12.9375 14.109375 22.625 23.890625 
Q 32.328125 33.6875 34.8125 36.53125 
Q 39.546875 41.84375 41.421875 45.53125 
Q 43.3125 49.21875 43.3125 52.78125 
Q 43.3125 58.59375 39.234375 62.25 
Q 35.15625 65.921875 28.609375 65.921875 
Q 23.96875 65.921875 18.8125 64.3125 
Q 13.671875 62.703125 7.8125 59.421875 
L 7.8125 69.390625 
Q 13.765625 71.78125 18.9375 73 
Q 24.125 74.21875 28.421875 74.21875 
Q 39.75 74.21875 46.484375 68.546875 
Q 53.21875 62.890625 53.21875 53.421875 
Q 53.21875 48.921875 51.53125 44.890625 
Q 49.859375 40.875 45.40625 35.40625 
Q 44.1875 33.984375 37.640625 27.21875 
Q 31.109375 20.453125 19.1875 8.296875 
z
" id="DejaVuSans-50"/>
       <path d="M 31.78125 66.40625 
Q 24.171875 66.40625 20.328125 58.90625 
Q 16.5 51.421875 16.5 36.375 
Q 16.5 21.390625 20.328125 13.890625 
Q 24.171875 6.390625 31.78125 6.390625 
Q 39.453125 6.390625 43.28125 13.890625 
Q 47.125 21.390625 47.125 36.375 
Q 47.125 51.421875 43.28125 58.90625 
Q 39.453125 66.40625 31.78125 66.40625 
z
M 31.78125 74.21875 
Q 44.046875 74.21875 50.515625 64.515625 
Q 56.984375 54.828125 56.984375 36.375 
Q 56.984375 17.96875 50.515625 8.265625 
Q 44.046875 -1.421875 31.78125 -1.421875 
Q 19.53125 -1.421875 13.0625 8.265625 
Q 6.59375 17.96875 6.59375 36.375 
Q 6.59375 54.828125 13.0625 64.515625 
Q 19.53125 74.21875 31.78125 74.21875 
z
" id="DejaVuSans-48"/>
       <path d="M 4.890625 31.390625 
L 31.203125 31.390625 
L 31.203125 23.390625 
L 4.890625 23.390625 
z
" id="DejaVuSans-45"/>
       <path d="M 40.578125 39.3125 
Q 47.65625 37.796875 51.625 33 
Q 55.609375 28.21875 55.609375 21.1875 
Q 55.609375 10.40625 48.1875 4.484375 
Q 40.765625 -1.421875 27.09375 -1.421875 
Q 22.515625 -1.421875 17.65625 -0.515625 
Q 12.796875 0.390625 7.625 2.203125 
L 7.625 11.71875 
Q 11.71875 9.328125 16.59375 8.109375 
Q 21.484375 6.890625 26.8125 6.890625 
Q 36.078125 6.890625 40.9375 10.546875 
Q 45.796875 14.203125 45.796875 21.1875 
Q 45.796875 27.640625 41.28125 31.265625 
Q 36.765625 34.90625 28.71875 34.90625 
L 20.21875 34.90625 
L 20.21875 43.015625 
L 29.109375 43.015625 
Q 36.375 43.015625 40.234375 45.921875 
Q 44.09375 48.828125 44.09375 54.296875 
Q 44.09375 59.90625 40.109375 62.90625 
Q 36.140625 65.921875 28.71875 65.921875 
Q 24.65625 65.921875 20.015625 65.03125 
Q 15.375 64.15625 9.8125 62.3125 
L 9.8125 71.09375 
Q 15.4375 72.65625 20.34375 73.4375 
Q 25.25 74.21875 29.59375 74.21875 
Q 40.828125 74.21875 47.359375 69.109375 
Q 53.90625 64.015625 53.90625 55.328125 
Q 53.90625 49.265625 50.4375 45.09375 
Q 46.96875 40.921875 40.578125 39.3125 
z
" id="DejaVuSans-51"/>
      </defs>
      <g transform="translate(143.654727 527.238438)scale(0.1 -0.1)">
       <use xlink:href="#DejaVuSans-50"/>
       <use x="63.623047" xlink:href="#DejaVuSans-48"/>
       <use x="127.246094" xlink:href="#DejaVuSans-50"/>
       <use x="190.869141" xlink:href="#DejaVuSans-48"/>
       <use x="254.492188" xlink:href="#DejaVuSans-45"/>
       <use x="290.576172" xlink:href="#DejaVuSans-48"/>
       <use x="354.199219" xlink:href="#DejaVuSans-51"/>
       <use x="417.822266" xlink:href="#DejaVuSans-45"/>
       <use x="453.90625" xlink:href="#DejaVuSans-48"/>
       <use x="517.529297" xlink:href="#DejaVuSans-50"/>
      </g>
     </g>
    </g>
    <g id="xtick_2">
     <g id="line2d_3">
      <path clip-path="url(#p2061df9a81)" d="M 286.411599 512.64 
L 286.411599 69.12 
" style="fill:none;stroke:#d8dcd6;stroke-dasharray:0.8,1.32;stroke-dashoffset:0;stroke-width:0.8;"/>
     </g>
     <g id="line2d_4">
      <g>
       <use style="stroke:#000000;stroke-width:0.8;" x="286.411599" xlink:href="#m27095bb6fb" y="512.64"/>
      </g>
     </g>
     <g id="text_2">
      <!-- 2020-03-07 -->
      <defs>
       <path d="M 8.203125 72.90625 
L 55.078125 72.90625 
L 55.078125 68.703125 
L 28.609375 0 
L 18.3125 0 
L 43.21875 64.59375 
L 8.203125 64.59375 
z
" id="DejaVuSans-55"/>
      </defs>
      <g transform="translate(257.353786 527.238438)scale(0.1 -0.1)">
       <use xlink:href="#DejaVuSans-50"/>
       <use x="63.623047" xlink:href="#DejaVuSans-48"/>
       <use x="127.246094" xlink:href="#DejaVuSans-50"/>
       <use x="190.869141" xlink:href="#DejaVuSans-48"/>
       <use x="254.492188" xlink:href="#DejaVuSans-45"/>
       <use x="290.576172" xlink:href="#DejaVuSans-48"/>
       <use x="354.199219" xlink:href="#DejaVuSans-51"/>
       <use x="417.822266" xlink:href="#DejaVuSans-45"/>
       <use x="453.90625" xlink:href="#DejaVuSans-48"/>
       <use x="517.529297" xlink:href="#DejaVuSans-55"/>
      </g>
     </g>
    </g>
    <g id="xtick_3">
     <g id="line2d_5">
      <path clip-path="url(#p2061df9a81)" d="M 400.110658 512.64 
L 400.110658 69.12 
" style="fill:none;stroke:#d8dcd6;stroke-dasharray:0.8,1.32;stroke-dashoffset:0;stroke-width:0.8;"/>
     </g>
     <g id="line2d_6">
      <g>
       <use style="stroke:#000000;stroke-width:0.8;" x="400.110658" xlink:href="#m27095bb6fb" y="512.64"/>
      </g>
     </g>
     <g id="text_3">
      <!-- 2020-03-12 -->
      <defs>
       <path d="M 12.40625 8.296875 
L 28.515625 8.296875 
L 28.515625 63.921875 
L 10.984375 60.40625 
L 10.984375 69.390625 
L 28.421875 72.90625 
L 38.28125 72.90625 
L 38.28125 8.296875 
L 54.390625 8.296875 
L 54.390625 0 
L 12.40625 0 
z
" id="DejaVuSans-49"/>
      </defs>
      <g transform="translate(371.052846 527.238438)scale(0.1 -0.1)">
       <use xlink:href="#DejaVuSans-50"/>
       <use x="63.623047" xlink:href="#DejaVuSans-48"/>
       <use x="127.246094" xlink:href="#DejaVuSans-50"/>
       <use x="190.869141" xlink:href="#DejaVuSans-48"/>
       <use x="254.492188" xlink:href="#DejaVuSans-45"/>
       <use x="290.576172" xlink:href="#DejaVuSans-48"/>
       <use x="354.199219" xlink:href="#DejaVuSans-51"/>
       <use x="417.822266" xlink:href="#DejaVuSans-45"/>
       <use x="453.90625" xlink:href="#DejaVuSans-49"/>
       <use x="517.529297" xlink:href="#DejaVuSans-50"/>
      </g>
     </g>
    </g>
    <g id="xtick_4">
     <g id="line2d_7">
      <path clip-path="url(#p2061df9a81)" d="M 513.809718 512.64 
L 513.809718 69.12 
" style="fill:none;stroke:#d8dcd6;stroke-dasharray:0.8,1.32;stroke-dashoffset:0;stroke-width:0.8;"/>
     </g>
     <g id="line2d_8">
      <g>
       <use style="stroke:#000000;stroke-width:0.8;" x="513.809718" xlink:href="#m27095bb6fb" y="512.64"/>
      </g>
     </g>
     <g id="text_4">
      <!-- 2020-03-17 -->
      <g transform="translate(484.751905 527.238438)scale(0.1 -0.1)">
       <use xlink:href="#DejaVuSans-50"/>
       <use x="63.623047" xlink:href="#DejaVuSans-48"/>
       <use x="127.246094" xlink:href="#DejaVuSans-50"/>
       <use x="190.869141" xlink:href="#DejaVuSans-48"/>
       <use x="254.492188" xlink:href="#DejaVuSans-45"/>
       <use x="290.576172" xlink:href="#DejaVuSans-48"/>
       <use x="354.199219" xlink:href="#DejaVuSans-51"/>
       <use x="417.822266" xlink:href="#DejaVuSans-45"/>
       <use x="453.90625" xlink:href="#DejaVuSans-49"/>
       <use x="517.529297" xlink:href="#DejaVuSans-55"/>
      </g>
     </g>
    </g>
    <g id="xtick_5">
     <g id="line2d_9">
      <path clip-path="url(#p2061df9a81)" d="M 627.508777 512.64 
L 627.508777 69.12 
" style="fill:none;stroke:#d8dcd6;stroke-dasharray:0.8,1.32;stroke-dashoffset:0;stroke-width:0.8;"/>
     </g>
     <g id="line2d_10">
      <g>
       <use style="stroke:#000000;stroke-width:0.8;" x="627.508777" xlink:href="#m27095bb6fb" y="512.64"/>
      </g>
     </g>
     <g id="text_5">
      <!-- 2020-03-22 -->
      <g transform="translate(598.450965 527.238438)scale(0.1 -0.1)">
       <use xlink:href="#DejaVuSans-50"/>
       <use x="63.623047" xlink:href="#DejaVuSans-48"/>
       <use x="127.246094" xlink:href="#DejaVuSans-50"/>
       <use x="190.869141" xlink:href="#DejaVuSans-48"/>
       <use x="254.492188" xlink:href="#DejaVuSans-45"/>
       <use x="290.576172" xlink:href="#DejaVuSans-48"/>
       <use x="354.199219" xlink:href="#DejaVuSans-51"/>
       <use x="417.822266" xlink:href="#DejaVuSans-45"/>
       <use x="453.90625" xlink:href="#DejaVuSans-50"/>
       <use x="517.529297" xlink:href="#DejaVuSans-50"/>
      </g>
     </g>
    </g>
    <g id="xtick_6">
     <g id="line2d_11">
      <path clip-path="url(#p2061df9a81)" d="M 741.207837 512.64 
L 741.207837 69.12 
" style="fill:none;stroke:#d8dcd6;stroke-dasharray:0.8,1.32;stroke-dashoffset:0;stroke-width:0.8;"/>
     </g>
     <g id="line2d_12">
      <g>
       <use style="stroke:#000000;stroke-width:0.8;" x="741.207837" xlink:href="#m27095bb6fb" y="512.64"/>
      </g>
     </g>
     <g id="text_6">
      <!-- 2020-03-27 -->
      <g transform="translate(712.150024 527.238438)scale(0.1 -0.1)">
       <use xlink:href="#DejaVuSans-50"/>
       <use x="63.623047" xlink:href="#DejaVuSans-48"/>
       <use x="127.246094" xlink:href="#DejaVuSans-50"/>
       <use x="190.869141" xlink:href="#DejaVuSans-48"/>
       <use x="254.492188" xlink:href="#DejaVuSans-45"/>
       <use x="290.576172" xlink:href="#DejaVuSans-48"/>
       <use x="354.199219" xlink:href="#DejaVuSans-51"/>
       <use x="417.822266" xlink:href="#DejaVuSans-45"/>
       <use x="453.90625" xlink:href="#DejaVuSans-50"/>
       <use x="517.529297" xlink:href="#DejaVuSans-55"/>
      </g>
     </g>
    </g>
    <g id="xtick_7">
     <g id="line2d_13">
      <path clip-path="url(#p2061df9a81)" d="M 127.232915 512.64 
L 127.232915 69.12 
" style="fill:none;stroke:#d8dcd6;stroke-dasharray:0.8,1.32;stroke-dashoffset:0;stroke-width:0.8;"/>
     </g>
     <g id="line2d_14">
      <defs>
       <path d="M 0 0 
L 0 2 
" id="mb6e52fcd73" style="stroke:#000000;stroke-width:0.6;"/>
      </defs>
      <g>
       <use style="stroke:#000000;stroke-width:0.6;" x="127.232915" xlink:href="#mb6e52fcd73" y="512.64"/>
      </g>
     </g>
    </g>
    <g id="xtick_8">
     <g id="line2d_15">
      <path clip-path="url(#p2061df9a81)" d="M 149.972727 512.64 
L 149.972727 69.12 
" style="fill:none;stroke:#d8dcd6;stroke-dasharray:0.8,1.32;stroke-dashoffset:0;stroke-width:0.8;"/>
     </g>
     <g id="line2d_16">
      <g>
       <use style="stroke:#000000;stroke-width:0.6;" x="149.972727" xlink:href="#mb6e52fcd73" y="512.64"/>
      </g>
     </g>
    </g>
    <g id="xtick_9">
     <g id="line2d_17">
      <path clip-path="url(#p2061df9a81)" d="M 195.452351 512.64 
L 195.452351 69.12 
" style="fill:none;stroke:#d8dcd6;stroke-dasharray:0.8,1.32;stroke-dashoffset:0;stroke-width:0.8;"/>
     </g>
     <g id="line2d_18">
      <g>
       <use style="stroke:#000000;stroke-width:0.6;" x="195.452351" xlink:href="#mb6e52fcd73" y="512.64"/>
      </g>
     </g>
    </g>
    <g id="xtick_10">
     <g id="line2d_19">
      <path clip-path="url(#p2061df9a81)" d="M 218.192163 512.64 
L 218.192163 69.12 
" style="fill:none;stroke:#d8dcd6;stroke-dasharray:0.8,1.32;stroke-dashoffset:0;stroke-width:0.8;"/>
     </g>
     <g id="line2d_20">
      <g>
       <use style="stroke:#000000;stroke-width:0.6;" x="218.192163" xlink:href="#mb6e52fcd73" y="512.64"/>
      </g>
     </g>
    </g>
    <g id="xtick_11">
     <g id="line2d_21">
      <path clip-path="url(#p2061df9a81)" d="M 240.931975 512.64 
L 240.931975 69.12 
" style="fill:none;stroke:#d8dcd6;stroke-dasharray:0.8,1.32;stroke-dashoffset:0;stroke-width:0.8;"/>
     </g>
     <g id="line2d_22">
      <g>
       <use style="stroke:#000000;stroke-width:0.6;" x="240.931975" xlink:href="#mb6e52fcd73" y="512.64"/>
      </g>
     </g>
    </g>
    <g id="xtick_12">
     <g id="line2d_23">
      <path clip-path="url(#p2061df9a81)" d="M 263.671787 512.64 
L 263.671787 69.12 
" style="fill:none;stroke:#d8dcd6;stroke-dasharray:0.8,1.32;stroke-dashoffset:0;stroke-width:0.8;"/>
     </g>
     <g id="line2d_24">
      <g>
       <use style="stroke:#000000;stroke-width:0.6;" x="263.671787" xlink:href="#mb6e52fcd73" y="512.64"/>
      </g>
     </g>
    </g>
    <g id="xtick_13">
     <g id="line2d_25">
      <path clip-path="url(#p2061df9a81)" d="M 309.151411 512.64 
L 309.151411 69.12 
" style="fill:none;stroke:#d8dcd6;stroke-dasharray:0.8,1.32;stroke-dashoffset:0;stroke-width:0.8;"/>
     </g>
     <g id="line2d_26">
      <g>
       <use style="stroke:#000000;stroke-width:0.6;" x="309.151411" xlink:href="#mb6e52fcd73" y="512.64"/>
      </g>
     </g>
    </g>
    <g id="xtick_14">
     <g id="line2d_27">
      <path clip-path="url(#p2061df9a81)" d="M 331.891223 512.64 
L 331.891223 69.12 
" style="fill:none;stroke:#d8dcd6;stroke-dasharray:0.8,1.32;stroke-dashoffset:0;stroke-width:0.8;"/>
     </g>
     <g id="line2d_28">
      <g>
       <use style="stroke:#000000;stroke-width:0.6;" x="331.891223" xlink:href="#mb6e52fcd73" y="512.64"/>
      </g>
     </g>
    </g>
    <g id="xtick_15">
     <g id="line2d_29">
      <path clip-path="url(#p2061df9a81)" d="M 354.631034 512.64 
L 354.631034 69.12 
" style="fill:none;stroke:#d8dcd6;stroke-dasharray:0.8,1.32;stroke-dashoffset:0;stroke-width:0.8;"/>
     </g>
     <g id="line2d_30">
      <g>
       <use style="stroke:#000000;stroke-width:0.6;" x="354.631034" xlink:href="#mb6e52fcd73" y="512.64"/>
      </g>
     </g>
    </g>
    <g id="xtick_16">
     <g id="line2d_31">
      <path clip-path="url(#p2061df9a81)" d="M 377.370846 512.64 
L 377.370846 69.12 
" style="fill:none;stroke:#d8dcd6;stroke-dasharray:0.8,1.32;stroke-dashoffset:0;stroke-width:0.8;"/>
     </g>
     <g id="line2d_32">
      <g>
       <use style="stroke:#000000;stroke-width:0.6;" x="377.370846" xlink:href="#mb6e52fcd73" y="512.64"/>
      </g>
     </g>
    </g>
    <g id="xtick_17">
     <g id="line2d_33">
      <path clip-path="url(#p2061df9a81)" d="M 422.85047 512.64 
L 422.85047 69.12 
" style="fill:none;stroke:#d8dcd6;stroke-dasharray:0.8,1.32;stroke-dashoffset:0;stroke-width:0.8;"/>
     </g>
     <g id="line2d_34">
      <g>
       <use style="stroke:#000000;stroke-width:0.6;" x="422.85047" xlink:href="#mb6e52fcd73" y="512.64"/>
      </g>
     </g>
    </g>
    <g id="xtick_18">
     <g id="line2d_35">
      <path clip-path="url(#p2061df9a81)" d="M 445.590282 512.64 
L 445.590282 69.12 
" style="fill:none;stroke:#d8dcd6;stroke-dasharray:0.8,1.32;stroke-dashoffset:0;stroke-width:0.8;"/>
     </g>
     <g id="line2d_36">
      <g>
       <use style="stroke:#000000;stroke-width:0.6;" x="445.590282" xlink:href="#mb6e52fcd73" y="512.64"/>
      </g>
     </g>
    </g>
    <g id="xtick_19">
     <g id="line2d_37">
      <path clip-path="url(#p2061df9a81)" d="M 468.330094 512.64 
L 468.330094 69.12 
" style="fill:none;stroke:#d8dcd6;stroke-dasharray:0.8,1.32;stroke-dashoffset:0;stroke-width:0.8;"/>
     </g>
     <g id="line2d_38">
      <g>
       <use style="stroke:#000000;stroke-width:0.6;" x="468.330094" xlink:href="#mb6e52fcd73" y="512.64"/>
      </g>
     </g>
    </g>
    <g id="xtick_20">
     <g id="line2d_39">
      <path clip-path="url(#p2061df9a81)" d="M 491.069906 512.64 
L 491.069906 69.12 
" style="fill:none;stroke:#d8dcd6;stroke-dasharray:0.8,1.32;stroke-dashoffset:0;stroke-width:0.8;"/>
     </g>
     <g id="line2d_40">
      <g>
       <use style="stroke:#000000;stroke-width:0.6;" x="491.069906" xlink:href="#mb6e52fcd73" y="512.64"/>
      </g>
     </g>
    </g>
    <g id="xtick_21">
     <g id="line2d_41">
      <path clip-path="url(#p2061df9a81)" d="M 536.54953 512.64 
L 536.54953 69.12 
" style="fill:none;stroke:#d8dcd6;stroke-dasharray:0.8,1.32;stroke-dashoffset:0;stroke-width:0.8;"/>
     </g>
     <g id="line2d_42">
      <g>
       <use style="stroke:#000000;stroke-width:0.6;" x="536.54953" xlink:href="#mb6e52fcd73" y="512.64"/>
      </g>
     </g>
    </g>
    <g id="xtick_22">
     <g id="line2d_43">
      <path clip-path="url(#p2061df9a81)" d="M 559.289342 512.64 
L 559.289342 69.12 
" style="fill:none;stroke:#d8dcd6;stroke-dasharray:0.8,1.32;stroke-dashoffset:0;stroke-width:0.8;"/>
     </g>
     <g id="line2d_44">
      <g>
       <use style="stroke:#000000;stroke-width:0.6;" x="559.289342" xlink:href="#mb6e52fcd73" y="512.64"/>
      </g>
     </g>
    </g>
    <g id="xtick_23">
     <g id="line2d_45">
      <path clip-path="url(#p2061df9a81)" d="M 582.029154 512.64 
L 582.029154 69.12 
" style="fill:none;stroke:#d8dcd6;stroke-dasharray:0.8,1.32;stroke-dashoffset:0;stroke-width:0.8;"/>
     </g>
     <g id="line2d_46">
      <g>
       <use style="stroke:#000000;stroke-width:0.6;" x="582.029154" xlink:href="#mb6e52fcd73" y="512.64"/>
      </g>
     </g>
    </g>
    <g id="xtick_24">
     <g id="line2d_47">
      <path clip-path="url(#p2061df9a81)" d="M 604.768966 512.64 
L 604.768966 69.12 
" style="fill:none;stroke:#d8dcd6;stroke-dasharray:0.8,1.32;stroke-dashoffset:0;stroke-width:0.8;"/>
     </g>
     <g id="line2d_48">
      <g>
       <use style="stroke:#000000;stroke-width:0.6;" x="604.768966" xlink:href="#mb6e52fcd73" y="512.64"/>
      </g>
     </g>
    </g>
    <g id="xtick_25">
     <g id="line2d_49">
      <path clip-path="url(#p2061df9a81)" d="M 650.248589 512.64 
L 650.248589 69.12 
" style="fill:none;stroke:#d8dcd6;stroke-dasharray:0.8,1.32;stroke-dashoffset:0;stroke-width:0.8;"/>
     </g>
     <g id="line2d_50">
      <g>
       <use style="stroke:#000000;stroke-width:0.6;" x="650.248589" xlink:href="#mb6e52fcd73" y="512.64"/>
      </g>
     </g>
    </g>
    <g id="xtick_26">
     <g id="line2d_51">
      <path clip-path="url(#p2061df9a81)" d="M 672.988401 512.64 
L 672.988401 69.12 
" style="fill:none;stroke:#d8dcd6;stroke-dasharray:0.8,1.32;stroke-dashoffset:0;stroke-width:0.8;"/>
     </g>
     <g id="line2d_52">
      <g>
       <use style="stroke:#000000;stroke-width:0.6;" x="672.988401" xlink:href="#mb6e52fcd73" y="512.64"/>
      </g>
     </g>
    </g>
    <g id="xtick_27">
     <g id="line2d_53">
      <path clip-path="url(#p2061df9a81)" d="M 695.728213 512.64 
L 695.728213 69.12 
" style="fill:none;stroke:#d8dcd6;stroke-dasharray:0.8,1.32;stroke-dashoffset:0;stroke-width:0.8;"/>
     </g>
     <g id="line2d_54">
      <g>
       <use style="stroke:#000000;stroke-width:0.6;" x="695.728213" xlink:href="#mb6e52fcd73" y="512.64"/>
      </g>
     </g>
    </g>
    <g id="xtick_28">
     <g id="line2d_55">
      <path clip-path="url(#p2061df9a81)" d="M 718.468025 512.64 
L 718.468025 69.12 
" style="fill:none;stroke:#d8dcd6;stroke-dasharray:0.8,1.32;stroke-dashoffset:0;stroke-width:0.8;"/>
     </g>
     <g id="line2d_56">
      <g>
       <use style="stroke:#000000;stroke-width:0.6;" x="718.468025" xlink:href="#mb6e52fcd73" y="512.64"/>
      </g>
     </g>
    </g>
    <g id="xtick_29">
     <g id="line2d_57">
      <path clip-path="url(#p2061df9a81)" d="M 763.947649 512.64 
L 763.947649 69.12 
" style="fill:none;stroke:#d8dcd6;stroke-dasharray:0.8,1.32;stroke-dashoffset:0;stroke-width:0.8;"/>
     </g>
     <g id="line2d_58">
      <g>
       <use style="stroke:#000000;stroke-width:0.6;" x="763.947649" xlink:href="#mb6e52fcd73" y="512.64"/>
      </g>
     </g>
    </g>
    <g id="xtick_30">
     <g id="line2d_59">
      <path clip-path="url(#p2061df9a81)" d="M 786.687461 512.64 
L 786.687461 69.12 
" style="fill:none;stroke:#d8dcd6;stroke-dasharray:0.8,1.32;stroke-dashoffset:0;stroke-width:0.8;"/>
     </g>
     <g id="line2d_60">
      <g>
       <use style="stroke:#000000;stroke-width:0.6;" x="786.687461" xlink:href="#mb6e52fcd73" y="512.64"/>
      </g>
     </g>
    </g>
    <g id="xtick_31">
     <g id="line2d_61">
      <path clip-path="url(#p2061df9a81)" d="M 809.427273 512.64 
L 809.427273 69.12 
" style="fill:none;stroke:#d8dcd6;stroke-dasharray:0.8,1.32;stroke-dashoffset:0;stroke-width:0.8;"/>
     </g>
     <g id="line2d_62">
      <g>
       <use style="stroke:#000000;stroke-width:0.6;" x="809.427273" xlink:href="#mb6e52fcd73" y="512.64"/>
      </g>
     </g>
    </g>
    <g id="xtick_32">
     <g id="line2d_63">
      <path clip-path="url(#p2061df9a81)" d="M 832.167085 512.64 
L 832.167085 69.12 
" style="fill:none;stroke:#d8dcd6;stroke-dasharray:0.8,1.32;stroke-dashoffset:0;stroke-width:0.8;"/>
     </g>
     <g id="line2d_64">
      <g>
       <use style="stroke:#000000;stroke-width:0.6;" x="832.167085" xlink:href="#mb6e52fcd73" y="512.64"/>
      </g>
     </g>
    </g>
   </g>
   <g id="matplotlib.axis_2">
    <g id="ytick_1">
     <g id="line2d_65">
      <path clip-path="url(#p2061df9a81)" d="M 117 492.48 
L 842.4 492.48 
" style="fill:none;stroke:#d8dcd6;stroke-dasharray:0.8,1.32;stroke-dashoffset:0;stroke-width:0.8;"/>
     </g>
     <g id="line2d_66">
      <defs>
       <path d="M 0 0 
L -3.5 0 
" id="m78eba96051" style="stroke:#000000;stroke-width:0.8;"/>
      </defs>
      <g>
       <use style="stroke:#000000;stroke-width:0.8;" x="117" xlink:href="#m78eba96051" y="492.48"/>
      </g>
     </g>
     <g id="text_7">
      <!-- 1 -->
      <g transform="translate(103.6375 496.279219)scale(0.1 -0.1)">
       <use xlink:href="#DejaVuSans-49"/>
      </g>
     </g>
    </g>
    <g id="ytick_2">
     <g id="line2d_67">
      <path clip-path="url(#p2061df9a81)" d="M 117 411.84 
L 842.4 411.84 
" style="fill:none;stroke:#d8dcd6;stroke-dasharray:0.8,1.32;stroke-dashoffset:0;stroke-width:0.8;"/>
     </g>
     <g id="line2d_68">
      <g>
       <use style="stroke:#000000;stroke-width:0.8;" x="117" xlink:href="#m78eba96051" y="411.84"/>
      </g>
     </g>
     <g id="text_8">
      <!-- 2 -->
      <g transform="translate(103.6375 415.639219)scale(0.1 -0.1)">
       <use xlink:href="#DejaVuSans-50"/>
      </g>
     </g>
    </g>
    <g id="ytick_3">
     <g id="line2d_69">
      <path clip-path="url(#p2061df9a81)" d="M 117 331.2 
L 842.4 331.2 
" style="fill:none;stroke:#d8dcd6;stroke-dasharray:0.8,1.32;stroke-dashoffset:0;stroke-width:0.8;"/>
     </g>
     <g id="line2d_70">
      <g>
       <use style="stroke:#000000;stroke-width:0.8;" x="117" xlink:href="#m78eba96051" y="331.2"/>
      </g>
     </g>
     <g id="text_9">
      <!-- 3 -->
      <g transform="translate(103.6375 334.999219)scale(0.1 -0.1)">
       <use xlink:href="#DejaVuSans-51"/>
      </g>
     </g>
    </g>
    <g id="ytick_4">
     <g id="line2d_71">
      <path clip-path="url(#p2061df9a81)" d="M 117 250.56 
L 842.4 250.56 
" style="fill:none;stroke:#d8dcd6;stroke-dasharray:0.8,1.32;stroke-dashoffset:0;stroke-width:0.8;"/>
     </g>
     <g id="line2d_72">
      <g>
       <use style="stroke:#000000;stroke-width:0.8;" x="117" xlink:href="#m78eba96051" y="250.56"/>
      </g>
     </g>
     <g id="text_10">
      <!-- 4 -->
      <defs>
       <path d="M 37.796875 64.3125 
L 12.890625 25.390625 
L 37.796875 25.390625 
z
M 35.203125 72.90625 
L 47.609375 72.90625 
L 47.609375 25.390625 
L 58.015625 25.390625 
L 58.015625 17.1875 
L 47.609375 17.1875 
L 47.609375 0 
L 37.796875 0 
L 37.796875 17.1875 
L 4.890625 17.1875 
L 4.890625 26.703125 
z
" id="DejaVuSans-52"/>
      </defs>
      <g transform="translate(103.6375 254.359219)scale(0.1 -0.1)">
       <use xlink:href="#DejaVuSans-52"/>
      </g>
     </g>
    </g>
    <g id="ytick_5">
     <g id="line2d_73">
      <path clip-path="url(#p2061df9a81)" d="M 117 169.92 
L 842.4 169.92 
" style="fill:none;stroke:#d8dcd6;stroke-dasharray:0.8,1.32;stroke-dashoffset:0;stroke-width:0.8;"/>
     </g>
     <g id="line2d_74">
      <g>
       <use style="stroke:#000000;stroke-width:0.8;" x="117" xlink:href="#m78eba96051" y="169.92"/>
      </g>
     </g>
     <g id="text_11">
      <!-- 5 -->
      <defs>
       <path d="M 10.796875 72.90625 
L 49.515625 72.90625 
L 49.515625 64.59375 
L 19.828125 64.59375 
L 19.828125 46.734375 
Q 21.96875 47.46875 24.109375 47.828125 
Q 26.265625 48.1875 28.421875 48.1875 
Q 40.625 48.1875 47.75 41.5 
Q 54.890625 34.8125 54.890625 23.390625 
Q 54.890625 11.625 47.5625 5.09375 
Q 40.234375 -1.421875 26.90625 -1.421875 
Q 22.3125 -1.421875 17.546875 -0.640625 
Q 12.796875 0.140625 7.71875 1.703125 
L 7.71875 11.625 
Q 12.109375 9.234375 16.796875 8.0625 
Q 21.484375 6.890625 26.703125 6.890625 
Q 35.15625 6.890625 40.078125 11.328125 
Q 45.015625 15.765625 45.015625 23.390625 
Q 45.015625 31 40.078125 35.4375 
Q 35.15625 39.890625 26.703125 39.890625 
Q 22.75 39.890625 18.8125 39.015625 
Q 14.890625 38.140625 10.796875 36.28125 
z
" id="DejaVuSans-53"/>
      </defs>
      <g transform="translate(103.6375 173.719219)scale(0.1 -0.1)">
       <use xlink:href="#DejaVuSans-53"/>
      </g>
     </g>
    </g>
    <g id="ytick_6">
     <g id="line2d_75">
      <path clip-path="url(#p2061df9a81)" d="M 117 89.28 
L 842.4 89.28 
" style="fill:none;stroke:#d8dcd6;stroke-dasharray:0.8,1.32;stroke-dashoffset:0;stroke-width:0.8;"/>
     </g>
     <g id="line2d_76">
      <g>
       <use style="stroke:#000000;stroke-width:0.8;" x="117" xlink:href="#m78eba96051" y="89.28"/>
      </g>
     </g>
     <g id="text_12">
      <!-- 6 -->
      <defs>
       <path d="M 33.015625 40.375 
Q 26.375 40.375 22.484375 35.828125 
Q 18.609375 31.296875 18.609375 23.390625 
Q 18.609375 15.53125 22.484375 10.953125 
Q 26.375 6.390625 33.015625 6.390625 
Q 39.65625 6.390625 43.53125 10.953125 
Q 47.40625 15.53125 47.40625 23.390625 
Q 47.40625 31.296875 43.53125 35.828125 
Q 39.65625 40.375 33.015625 40.375 
z
M 52.59375 71.296875 
L 52.59375 62.3125 
Q 48.875 64.0625 45.09375 64.984375 
Q 41.3125 65.921875 37.59375 65.921875 
Q 27.828125 65.921875 22.671875 59.328125 
Q 17.53125 52.734375 16.796875 39.40625 
Q 19.671875 43.65625 24.015625 45.921875 
Q 28.375 48.1875 33.59375 48.1875 
Q 44.578125 48.1875 50.953125 41.515625 
Q 57.328125 34.859375 57.328125 23.390625 
Q 57.328125 12.15625 50.6875 5.359375 
Q 44.046875 -1.421875 33.015625 -1.421875 
Q 20.359375 -1.421875 13.671875 8.265625 
Q 6.984375 17.96875 6.984375 36.375 
Q 6.984375 53.65625 15.1875 63.9375 
Q 23.390625 74.21875 37.203125 74.21875 
Q 40.921875 74.21875 44.703125 73.484375 
Q 48.484375 72.75 52.59375 71.296875 
z
" id="DejaVuSans-54"/>
      </defs>
      <g transform="translate(103.6375 93.079219)scale(0.1 -0.1)">
       <use xlink:href="#DejaVuSans-54"/>
      </g>
     </g>
    </g>
    <g id="ytick_7">
     <g id="line2d_77">
      <path clip-path="url(#p2061df9a81)" d="M 117 508.608 
L 842.4 508.608 
" style="fill:none;stroke:#d8dcd6;stroke-dasharray:0.8,1.32;stroke-dashoffset:0;stroke-width:0.8;"/>
     </g>
     <g id="line2d_78">
      <defs>
       <path d="M 0 0 
L -2 0 
" id="m3d58378843" style="stroke:#000000;stroke-width:0.6;"/>
      </defs>
      <g>
       <use style="stroke:#000000;stroke-width:0.6;" x="117" xlink:href="#m3d58378843" y="508.608"/>
      </g>
     </g>
    </g>
    <g id="ytick_8">
     <g id="line2d_79">
      <path clip-path="url(#p2061df9a81)" d="M 117 476.352 
L 842.4 476.352 
" style="fill:none;stroke:#d8dcd6;stroke-dasharray:0.8,1.32;stroke-dashoffset:0;stroke-width:0.8;"/>
     </g>
     <g id="line2d_80">
      <g>
       <use style="stroke:#000000;stroke-width:0.6;" x="117" xlink:href="#m3d58378843" y="476.352"/>
      </g>
     </g>
    </g>
    <g id="ytick_9">
     <g id="line2d_81">
      <path clip-path="url(#p2061df9a81)" d="M 117 460.224 
L 842.4 460.224 
" style="fill:none;stroke:#d8dcd6;stroke-dasharray:0.8,1.32;stroke-dashoffset:0;stroke-width:0.8;"/>
     </g>
     <g id="line2d_82">
      <g>
       <use style="stroke:#000000;stroke-width:0.6;" x="117" xlink:href="#m3d58378843" y="460.224"/>
      </g>
     </g>
    </g>
    <g id="ytick_10">
     <g id="line2d_83">
      <path clip-path="url(#p2061df9a81)" d="M 117 444.096 
L 842.4 444.096 
" style="fill:none;stroke:#d8dcd6;stroke-dasharray:0.8,1.32;stroke-dashoffset:0;stroke-width:0.8;"/>
     </g>
     <g id="line2d_84">
      <g>
       <use style="stroke:#000000;stroke-width:0.6;" x="117" xlink:href="#m3d58378843" y="444.096"/>
      </g>
     </g>
    </g>
    <g id="ytick_11">
     <g id="line2d_85">
      <path clip-path="url(#p2061df9a81)" d="M 117 427.968 
L 842.4 427.968 
" style="fill:none;stroke:#d8dcd6;stroke-dasharray:0.8,1.32;stroke-dashoffset:0;stroke-width:0.8;"/>
     </g>
     <g id="line2d_86">
      <g>
       <use style="stroke:#000000;stroke-width:0.6;" x="117" xlink:href="#m3d58378843" y="427.968"/>
      </g>
     </g>
    </g>
    <g id="ytick_12">
     <g id="line2d_87">
      <path clip-path="url(#p2061df9a81)" d="M 117 395.712 
L 842.4 395.712 
" style="fill:none;stroke:#d8dcd6;stroke-dasharray:0.8,1.32;stroke-dashoffset:0;stroke-width:0.8;"/>
     </g>
     <g id="line2d_88">
      <g>
       <use style="stroke:#000000;stroke-width:0.6;" x="117" xlink:href="#m3d58378843" y="395.712"/>
      </g>
     </g>
    </g>
    <g id="ytick_13">
     <g id="line2d_89">
      <path clip-path="url(#p2061df9a81)" d="M 117 379.584 
L 842.4 379.584 
" style="fill:none;stroke:#d8dcd6;stroke-dasharray:0.8,1.32;stroke-dashoffset:0;stroke-width:0.8;"/>
     </g>
     <g id="line2d_90">
      <g>
       <use style="stroke:#000000;stroke-width:0.6;" x="117" xlink:href="#m3d58378843" y="379.584"/>
      </g>
     </g>
    </g>
    <g id="ytick_14">
     <g id="line2d_91">
      <path clip-path="url(#p2061df9a81)" d="M 117 363.456 
L 842.4 363.456 
" style="fill:none;stroke:#d8dcd6;stroke-dasharray:0.8,1.32;stroke-dashoffset:0;stroke-width:0.8;"/>
     </g>
     <g id="line2d_92">
      <g>
       <use style="stroke:#000000;stroke-width:0.6;" x="117" xlink:href="#m3d58378843" y="363.456"/>
      </g>
     </g>
    </g>
    <g id="ytick_15">
     <g id="line2d_93">
      <path clip-path="url(#p2061df9a81)" d="M 117 347.328 
L 842.4 347.328 
" style="fill:none;stroke:#d8dcd6;stroke-dasharray:0.8,1.32;stroke-dashoffset:0;stroke-width:0.8;"/>
     </g>
     <g id="line2d_94">
      <g>
       <use style="stroke:#000000;stroke-width:0.6;" x="117" xlink:href="#m3d58378843" y="347.328"/>
      </g>
     </g>
    </g>
    <g id="ytick_16">
     <g id="line2d_95">
      <path clip-path="url(#p2061df9a81)" d="M 117 315.072 
L 842.4 315.072 
" style="fill:none;stroke:#d8dcd6;stroke-dasharray:0.8,1.32;stroke-dashoffset:0;stroke-width:0.8;"/>
     </g>
     <g id="line2d_96">
      <g>
       <use style="stroke:#000000;stroke-width:0.6;" x="117" xlink:href="#m3d58378843" y="315.072"/>
      </g>
     </g>
    </g>
    <g id="ytick_17">
     <g id="line2d_97">
      <path clip-path="url(#p2061df9a81)" d="M 117 298.944 
L 842.4 298.944 
" style="fill:none;stroke:#d8dcd6;stroke-dasharray:0.8,1.32;stroke-dashoffset:0;stroke-width:0.8;"/>
     </g>
     <g id="line2d_98">
      <g>
       <use style="stroke:#000000;stroke-width:0.6;" x="117" xlink:href="#m3d58378843" y="298.944"/>
      </g>
     </g>
    </g>
    <g id="ytick_18">
     <g id="line2d_99">
      <path clip-path="url(#p2061df9a81)" d="M 117 282.816 
L 842.4 282.816 
" style="fill:none;stroke:#d8dcd6;stroke-dasharray:0.8,1.32;stroke-dashoffset:0;stroke-width:0.8;"/>
     </g>
     <g id="line2d_100">
      <g>
       <use style="stroke:#000000;stroke-width:0.6;" x="117" xlink:href="#m3d58378843" y="282.816"/>
      </g>
     </g>
    </g>
    <g id="ytick_19">
     <g id="line2d_101">
      <path clip-path="url(#p2061df9a81)" d="M 117 266.688 
L 842.4 266.688 
" style="fill:none;stroke:#d8dcd6;stroke-dasharray:0.8,1.32;stroke-dashoffset:0;stroke-width:0.8;"/>
     </g>
     <g id="line2d_102">
      <g>
       <use style="stroke:#000000;stroke-width:0.6;" x="117" xlink:href="#m3d58378843" y="266.688"/>
      </g>
     </g>
    </g>
    <g id="ytick_20">
     <g id="line2d_103">
      <path clip-path="url(#p2061df9a81)" d="M 117 234.432 
L 842.4 234.432 
" style="fill:none;stroke:#d8dcd6;stroke-dasharray:0.8,1.32;stroke-dashoffset:0;stroke-width:0.8;"/>
     </g>
     <g id="line2d_104">
      <g>
       <use style="stroke:#000000;stroke-width:0.6;" x="117" xlink:href="#m3d58378843" y="234.432"/>
      </g>
     </g>
    </g>
    <g id="ytick_21">
     <g id="line2d_105">
      <path clip-path="url(#p2061df9a81)" d="M 117 218.304 
L 842.4 218.304 
" style="fill:none;stroke:#d8dcd6;stroke-dasharray:0.8,1.32;stroke-dashoffset:0;stroke-width:0.8;"/>
     </g>
     <g id="line2d_106">
      <g>
       <use style="stroke:#000000;stroke-width:0.6;" x="117" xlink:href="#m3d58378843" y="218.304"/>
      </g>
     </g>
    </g>
    <g id="ytick_22">
     <g id="line2d_107">
      <path clip-path="url(#p2061df9a81)" d="M 117 202.176 
L 842.4 202.176 
" style="fill:none;stroke:#d8dcd6;stroke-dasharray:0.8,1.32;stroke-dashoffset:0;stroke-width:0.8;"/>
     </g>
     <g id="line2d_108">
      <g>
       <use style="stroke:#000000;stroke-width:0.6;" x="117" xlink:href="#m3d58378843" y="202.176"/>
      </g>
     </g>
    </g>
    <g id="ytick_23">
     <g id="line2d_109">
      <path clip-path="url(#p2061df9a81)" d="M 117 186.048 
L 842.4 186.048 
" style="fill:none;stroke:#d8dcd6;stroke-dasharray:0.8,1.32;stroke-dashoffset:0;stroke-width:0.8;"/>
     </g>
     <g id="line2d_110">
      <g>
       <use style="stroke:#000000;stroke-width:0.6;" x="117" xlink:href="#m3d58378843" y="186.048"/>
      </g>
     </g>
    </g>
    <g id="ytick_24">
     <g id="line2d_111">
      <path clip-path="url(#p2061df9a81)" d="M 117 153.792 
L 842.4 153.792 
" style="fill:none;stroke:#d8dcd6;stroke-dasharray:0.8,1.32;stroke-dashoffset:0;stroke-width:0.8;"/>
     </g>
     <g id="line2d_112">
      <g>
       <use style="stroke:#000000;stroke-width:0.6;" x="117" xlink:href="#m3d58378843" y="153.792"/>
      </g>
     </g>
    </g>
    <g id="ytick_25">
     <g id="line2d_113">
      <path clip-path="url(#p2061df9a81)" d="M 117 137.664 
L 842.4 137.664 
" style="fill:none;stroke:#d8dcd6;stroke-dasharray:0.8,1.32;stroke-dashoffset:0;stroke-width:0.8;"/>
     </g>
     <g id="line2d_114">
      <g>
       <use style="stroke:#000000;stroke-width:0.6;" x="117" xlink:href="#m3d58378843" y="137.664"/>
      </g>
     </g>
    </g>
    <g id="ytick_26">
     <g id="line2d_115">
      <path clip-path="url(#p2061df9a81)" d="M 117 121.536 
L 842.4 121.536 
" style="fill:none;stroke:#d8dcd6;stroke-dasharray:0.8,1.32;stroke-dashoffset:0;stroke-width:0.8;"/>
     </g>
     <g id="line2d_116">
      <g>
       <use style="stroke:#000000;stroke-width:0.6;" x="117" xlink:href="#m3d58378843" y="121.536"/>
      </g>
     </g>
    </g>
    <g id="ytick_27">
     <g id="line2d_117">
      <path clip-path="url(#p2061df9a81)" d="M 117 105.408 
L 842.4 105.408 
" style="fill:none;stroke:#d8dcd6;stroke-dasharray:0.8,1.32;stroke-dashoffset:0;stroke-width:0.8;"/>
     </g>
     <g id="line2d_118">
      <g>
       <use style="stroke:#000000;stroke-width:0.6;" x="117" xlink:href="#m3d58378843" y="105.408"/>
      </g>
     </g>
    </g>
    <g id="ytick_28">
     <g id="line2d_119">
      <path clip-path="url(#p2061df9a81)" d="M 117 73.152 
L 842.4 73.152 
" style="fill:none;stroke:#d8dcd6;stroke-dasharray:0.8,1.32;stroke-dashoffset:0;stroke-width:0.8;"/>
     </g>
     <g id="line2d_120">
      <g>
       <use style="stroke:#000000;stroke-width:0.6;" x="117" xlink:href="#m3d58378843" y="73.152"/>
      </g>
     </g>
    </g>
    <g id="text_13">
     <!-- (avg) growth factor -->
     <defs>
      <path d="M 31 75.875 
Q 24.46875 64.65625 21.28125 53.65625 
Q 18.109375 42.671875 18.109375 31.390625 
Q 18.109375 20.125 21.3125 9.0625 
Q 24.515625 -2 31 -13.1875 
L 23.1875 -13.1875 
Q 15.875 -1.703125 12.234375 9.375 
Q 8.59375 20.453125 8.59375 31.390625 
Q 8.59375 42.28125 12.203125 53.3125 
Q 15.828125 64.359375 23.1875 75.875 
z
" id="DejaVuSans-40"/>
      <path d="M 34.28125 27.484375 
Q 23.390625 27.484375 19.1875 25 
Q 14.984375 22.515625 14.984375 16.5 
Q 14.984375 11.71875 18.140625 8.90625 
Q 21.296875 6.109375 26.703125 6.109375 
Q 34.1875 6.109375 38.703125 11.40625 
Q 43.21875 16.703125 43.21875 25.484375 
L 43.21875 27.484375 
z
M 52.203125 31.203125 
L 52.203125 0 
L 43.21875 0 
L 43.21875 8.296875 
Q 40.140625 3.328125 35.546875 0.953125 
Q 30.953125 -1.421875 24.3125 -1.421875 
Q 15.921875 -1.421875 10.953125 3.296875 
Q 6 8.015625 6 15.921875 
Q 6 25.140625 12.171875 29.828125 
Q 18.359375 34.515625 30.609375 34.515625 
L 43.21875 34.515625 
L 43.21875 35.40625 
Q 43.21875 41.609375 39.140625 45 
Q 35.0625 48.390625 27.6875 48.390625 
Q 23 48.390625 18.546875 47.265625 
Q 14.109375 46.140625 10.015625 43.890625 
L 10.015625 52.203125 
Q 14.9375 54.109375 19.578125 55.046875 
Q 24.21875 56 28.609375 56 
Q 40.484375 56 46.34375 49.84375 
Q 52.203125 43.703125 52.203125 31.203125 
z
" id="DejaVuSans-97"/>
      <path d="M 2.984375 54.6875 
L 12.5 54.6875 
L 29.59375 8.796875 
L 46.6875 54.6875 
L 56.203125 54.6875 
L 35.6875 0 
L 23.484375 0 
z
" id="DejaVuSans-118"/>
      <path d="M 45.40625 27.984375 
Q 45.40625 37.75 41.375 43.109375 
Q 37.359375 48.484375 30.078125 48.484375 
Q 22.859375 48.484375 18.828125 43.109375 
Q 14.796875 37.75 14.796875 27.984375 
Q 14.796875 18.265625 18.828125 12.890625 
Q 22.859375 7.515625 30.078125 7.515625 
Q 37.359375 7.515625 41.375 12.890625 
Q 45.40625 18.265625 45.40625 27.984375 
z
M 54.390625 6.78125 
Q 54.390625 -7.171875 48.1875 -13.984375 
Q 42 -20.796875 29.203125 -20.796875 
Q 24.46875 -20.796875 20.265625 -20.09375 
Q 16.0625 -19.390625 12.109375 -17.921875 
L 12.109375 -9.1875 
Q 16.0625 -11.328125 19.921875 -12.34375 
Q 23.78125 -13.375 27.78125 -13.375 
Q 36.625 -13.375 41.015625 -8.765625 
Q 45.40625 -4.15625 45.40625 5.171875 
L 45.40625 9.625 
Q 42.625 4.78125 38.28125 2.390625 
Q 33.9375 0 27.875 0 
Q 17.828125 0 11.671875 7.65625 
Q 5.515625 15.328125 5.515625 27.984375 
Q 5.515625 40.671875 11.671875 48.328125 
Q 17.828125 56 27.875 56 
Q 33.9375 56 38.28125 53.609375 
Q 42.625 51.21875 45.40625 46.390625 
L 45.40625 54.6875 
L 54.390625 54.6875 
z
" id="DejaVuSans-103"/>
      <path d="M 8.015625 75.875 
L 15.828125 75.875 
Q 23.140625 64.359375 26.78125 53.3125 
Q 30.421875 42.28125 30.421875 31.390625 
Q 30.421875 20.453125 26.78125 9.375 
Q 23.140625 -1.703125 15.828125 -13.1875 
L 8.015625 -13.1875 
Q 14.5 -2 17.703125 9.0625 
Q 20.90625 20.125 20.90625 31.390625 
Q 20.90625 42.671875 17.703125 53.65625 
Q 14.5 64.65625 8.015625 75.875 
z
" id="DejaVuSans-41"/>
      <path id="DejaVuSans-32"/>
      <path d="M 41.109375 46.296875 
Q 39.59375 47.171875 37.8125 47.578125 
Q 36.03125 48 33.890625 48 
Q 26.265625 48 22.1875 43.046875 
Q 18.109375 38.09375 18.109375 28.8125 
L 18.109375 0 
L 9.078125 0 
L 9.078125 54.6875 
L 18.109375 54.6875 
L 18.109375 46.1875 
Q 20.953125 51.171875 25.484375 53.578125 
Q 30.03125 56 36.53125 56 
Q 37.453125 56 38.578125 55.875 
Q 39.703125 55.765625 41.0625 55.515625 
z
" id="DejaVuSans-114"/>
      <path d="M 30.609375 48.390625 
Q 23.390625 48.390625 19.1875 42.75 
Q 14.984375 37.109375 14.984375 27.296875 
Q 14.984375 17.484375 19.15625 11.84375 
Q 23.34375 6.203125 30.609375 6.203125 
Q 37.796875 6.203125 41.984375 11.859375 
Q 46.1875 17.53125 46.1875 27.296875 
Q 46.1875 37.015625 41.984375 42.703125 
Q 37.796875 48.390625 30.609375 48.390625 
z
M 30.609375 56 
Q 42.328125 56 49.015625 48.375 
Q 55.71875 40.765625 55.71875 27.296875 
Q 55.71875 13.875 49.015625 6.21875 
Q 42.328125 -1.421875 30.609375 -1.421875 
Q 18.84375 -1.421875 12.171875 6.21875 
Q 5.515625 13.875 5.515625 27.296875 
Q 5.515625 40.765625 12.171875 48.375 
Q 18.84375 56 30.609375 56 
z
" id="DejaVuSans-111"/>
      <path d="M 4.203125 54.6875 
L 13.1875 54.6875 
L 24.421875 12.015625 
L 35.59375 54.6875 
L 46.1875 54.6875 
L 57.421875 12.015625 
L 68.609375 54.6875 
L 77.59375 54.6875 
L 63.28125 0 
L 52.6875 0 
L 40.921875 44.828125 
L 29.109375 0 
L 18.5 0 
z
" id="DejaVuSans-119"/>
      <path d="M 18.3125 70.21875 
L 18.3125 54.6875 
L 36.8125 54.6875 
L 36.8125 47.703125 
L 18.3125 47.703125 
L 18.3125 18.015625 
Q 18.3125 11.328125 20.140625 9.421875 
Q 21.96875 7.515625 27.59375 7.515625 
L 36.8125 7.515625 
L 36.8125 0 
L 27.59375 0 
Q 17.1875 0 13.234375 3.875 
Q 9.28125 7.765625 9.28125 18.015625 
L 9.28125 47.703125 
L 2.6875 47.703125 
L 2.6875 54.6875 
L 9.28125 54.6875 
L 9.28125 70.21875 
z
" id="DejaVuSans-116"/>
      <path d="M 54.890625 33.015625 
L 54.890625 0 
L 45.90625 0 
L 45.90625 32.71875 
Q 45.90625 40.484375 42.875 44.328125 
Q 39.84375 48.1875 33.796875 48.1875 
Q 26.515625 48.1875 22.3125 43.546875 
Q 18.109375 38.921875 18.109375 30.90625 
L 18.109375 0 
L 9.078125 0 
L 9.078125 75.984375 
L 18.109375 75.984375 
L 18.109375 46.1875 
Q 21.34375 51.125 25.703125 53.5625 
Q 30.078125 56 35.796875 56 
Q 45.21875 56 50.046875 50.171875 
Q 54.890625 44.34375 54.890625 33.015625 
z
" id="DejaVuSans-104"/>
      <path d="M 37.109375 75.984375 
L 37.109375 68.5 
L 28.515625 68.5 
Q 23.6875 68.5 21.796875 66.546875 
Q 19.921875 64.59375 19.921875 59.515625 
L 19.921875 54.6875 
L 34.71875 54.6875 
L 34.71875 47.703125 
L 19.921875 47.703125 
L 19.921875 0 
L 10.890625 0 
L 10.890625 47.703125 
L 2.296875 47.703125 
L 2.296875 54.6875 
L 10.890625 54.6875 
L 10.890625 58.5 
Q 10.890625 67.625 15.140625 71.796875 
Q 19.390625 75.984375 28.609375 75.984375 
z
" id="DejaVuSans-102"/>
      <path d="M 48.78125 52.59375 
L 48.78125 44.1875 
Q 44.96875 46.296875 41.140625 47.34375 
Q 37.3125 48.390625 33.40625 48.390625 
Q 24.65625 48.390625 19.8125 42.84375 
Q 14.984375 37.3125 14.984375 27.296875 
Q 14.984375 17.28125 19.8125 11.734375 
Q 24.65625 6.203125 33.40625 6.203125 
Q 37.3125 6.203125 41.140625 7.25 
Q 44.96875 8.296875 48.78125 10.40625 
L 48.78125 2.09375 
Q 45.015625 0.34375 40.984375 -0.53125 
Q 36.96875 -1.421875 32.421875 -1.421875 
Q 20.0625 -1.421875 12.78125 6.34375 
Q 5.515625 14.109375 5.515625 27.296875 
Q 5.515625 40.671875 12.859375 48.328125 
Q 20.21875 56 33.015625 56 
Q 37.15625 56 41.109375 55.140625 
Q 45.0625 54.296875 48.78125 52.59375 
z
" id="DejaVuSans-99"/>
     </defs>
     <g transform="translate(97.557812 339.200312)rotate(-90)scale(0.1 -0.1)">
      <use xlink:href="#DejaVuSans-40"/>
      <use x="39.013672" xlink:href="#DejaVuSans-97"/>
      <use x="100.292969" xlink:href="#DejaVuSans-118"/>
      <use x="159.472656" xlink:href="#DejaVuSans-103"/>
      <use x="222.949219" xlink:href="#DejaVuSans-41"/>
      <use x="261.962891" xlink:href="#DejaVuSans-32"/>
      <use x="293.75" xlink:href="#DejaVuSans-103"/>
      <use x="357.226562" xlink:href="#DejaVuSans-114"/>
      <use x="396.089844" xlink:href="#DejaVuSans-111"/>
      <use x="457.271484" xlink:href="#DejaVuSans-119"/>
      <use x="539.058594" xlink:href="#DejaVuSans-116"/>
      <use x="578.267578" xlink:href="#DejaVuSans-104"/>
      <use x="641.646484" xlink:href="#DejaVuSans-32"/>
      <use x="673.433594" xlink:href="#DejaVuSans-102"/>
      <use x="708.638672" xlink:href="#DejaVuSans-97"/>
      <use x="769.917969" xlink:href="#DejaVuSans-99"/>
      <use x="824.898438" xlink:href="#DejaVuSans-116"/>
      <use x="864.107422" xlink:href="#DejaVuSans-111"/>
      <use x="925.289062" xlink:href="#DejaVuSans-114"/>
     </g>
    </g>
   </g>
   <g id="line2d_121">
    <path clip-path="url(#p2061df9a81)" d="M 149.972727 492.48 
L 172.712539 89.28 
L 195.452351 479.04 
L 218.192163 446.4 
L 240.931975 485.149091 
L 263.671787 479.04 
L 286.411599 475.2 
L 309.151411 473.505882 
L 331.891223 488.64 
L 354.631034 470.487273 
L 377.370846 469.44 
L 400.110658 483.52 
L 422.85047 478.368 
L 445.590282 480.469787 
L 468.330094 479.04 
L 491.069906 464.32 
L 513.809718 470.659765 
L 536.54953 485.013333 
L 559.289342 436.442034 
L 582.029154 474.7392 
L 604.768966 471.659016 
L 627.508777 460.959479 
L 650.248589 468.873443 
L 672.988401 469.982609 
L 695.728213 465.523853 
L 718.468025 469.623439 
L 741.207837 467.667692 
L 763.947649 469.782467 
L 786.687461 474.927068 
L 809.427273 475.7767 
" style="fill:none;stroke:#1f77b4;stroke-linecap:square;stroke-width:1.5;"/>
    <defs>
     <path d="M 0 3 
C 0.795609 3 1.55874 2.683901 2.12132 2.12132 
C 2.683901 1.55874 3 0.795609 3 0 
C 3 -0.795609 2.683901 -1.55874 2.12132 -2.12132 
C 1.55874 -2.683901 0.795609 -3 0 -3 
C -0.795609 -3 -1.55874 -2.683901 -2.12132 -2.12132 
C -2.683901 -1.55874 -3 -0.795609 -3 0 
C -3 0.795609 -2.683901 1.55874 -2.12132 2.12132 
C -1.55874 2.683901 -0.795609 3 0 3 
z
" id="mff5dab72d3" style="stroke:#1f77b4;"/>
    </defs>
    <g clip-path="url(#p2061df9a81)">
     <use style="fill:#1f77b4;stroke:#1f77b4;" x="149.972727" xlink:href="#mff5dab72d3" y="492.48"/>
     <use style="fill:#1f77b4;stroke:#1f77b4;" x="172.712539" xlink:href="#mff5dab72d3" y="89.28"/>
     <use style="fill:#1f77b4;stroke:#1f77b4;" x="195.452351" xlink:href="#mff5dab72d3" y="479.04"/>
     <use style="fill:#1f77b4;stroke:#1f77b4;" x="218.192163" xlink:href="#mff5dab72d3" y="446.4"/>
     <use style="fill:#1f77b4;stroke:#1f77b4;" x="240.931975" xlink:href="#mff5dab72d3" y="485.149091"/>
     <use style="fill:#1f77b4;stroke:#1f77b4;" x="263.671787" xlink:href="#mff5dab72d3" y="479.04"/>
     <use style="fill:#1f77b4;stroke:#1f77b4;" x="286.411599" xlink:href="#mff5dab72d3" y="475.2"/>
     <use style="fill:#1f77b4;stroke:#1f77b4;" x="309.151411" xlink:href="#mff5dab72d3" y="473.505882"/>
     <use style="fill:#1f77b4;stroke:#1f77b4;" x="331.891223" xlink:href="#mff5dab72d3" y="488.64"/>
     <use style="fill:#1f77b4;stroke:#1f77b4;" x="354.631034" xlink:href="#mff5dab72d3" y="470.487273"/>
     <use style="fill:#1f77b4;stroke:#1f77b4;" x="377.370846" xlink:href="#mff5dab72d3" y="469.44"/>
     <use style="fill:#1f77b4;stroke:#1f77b4;" x="400.110658" xlink:href="#mff5dab72d3" y="483.52"/>
     <use style="fill:#1f77b4;stroke:#1f77b4;" x="422.85047" xlink:href="#mff5dab72d3" y="478.368"/>
     <use style="fill:#1f77b4;stroke:#1f77b4;" x="445.590282" xlink:href="#mff5dab72d3" y="480.469787"/>
     <use style="fill:#1f77b4;stroke:#1f77b4;" x="468.330094" xlink:href="#mff5dab72d3" y="479.04"/>
     <use style="fill:#1f77b4;stroke:#1f77b4;" x="491.069906" xlink:href="#mff5dab72d3" y="464.32"/>
     <use style="fill:#1f77b4;stroke:#1f77b4;" x="513.809718" xlink:href="#mff5dab72d3" y="470.659765"/>
     <use style="fill:#1f77b4;stroke:#1f77b4;" x="536.54953" xlink:href="#mff5dab72d3" y="485.013333"/>
     <use style="fill:#1f77b4;stroke:#1f77b4;" x="559.289342" xlink:href="#mff5dab72d3" y="436.442034"/>
     <use style="fill:#1f77b4;stroke:#1f77b4;" x="582.029154" xlink:href="#mff5dab72d3" y="474.7392"/>
     <use style="fill:#1f77b4;stroke:#1f77b4;" x="604.768966" xlink:href="#mff5dab72d3" y="471.659016"/>
     <use style="fill:#1f77b4;stroke:#1f77b4;" x="627.508777" xlink:href="#mff5dab72d3" y="460.959479"/>
     <use style="fill:#1f77b4;stroke:#1f77b4;" x="650.248589" xlink:href="#mff5dab72d3" y="468.873443"/>
     <use style="fill:#1f77b4;stroke:#1f77b4;" x="672.988401" xlink:href="#mff5dab72d3" y="469.982609"/>
     <use style="fill:#1f77b4;stroke:#1f77b4;" x="695.728213" xlink:href="#mff5dab72d3" y="465.523853"/>
     <use style="fill:#1f77b4;stroke:#1f77b4;" x="718.468025" xlink:href="#mff5dab72d3" y="469.623439"/>
     <use style="fill:#1f77b4;stroke:#1f77b4;" x="741.207837" xlink:href="#mff5dab72d3" y="467.667692"/>
     <use style="fill:#1f77b4;stroke:#1f77b4;" x="763.947649" xlink:href="#mff5dab72d3" y="469.782467"/>
     <use style="fill:#1f77b4;stroke:#1f77b4;" x="786.687461" xlink:href="#mff5dab72d3" y="474.927068"/>
     <use style="fill:#1f77b4;stroke:#1f77b4;" x="809.427273" xlink:href="#mff5dab72d3" y="475.7767"/>
    </g>
   </g>
   <g id="line2d_122">
    <path clip-path="url(#p2061df9a81)" d="M 218.192163 426.261634 
L 240.931975 423.032048 
L 263.671787 473.454531 
L 286.411599 472.452742 
L 309.151411 478.331168 
L 331.891223 479.28586 
L 354.631034 477.222338 
L 377.370846 475.842161 
L 400.110658 478.384949 
L 422.85047 475.627925 
L 445.590282 478.09028 
L 468.330094 480.37083 
L 491.069906 475.757828 
L 513.809718 473.835376 
L 536.54953 475.075648 
L 559.289342 465.4802 
L 582.029154 468.155306 
L 604.768966 468.412166 
L 627.508777 461.898951 
L 650.248589 469.181178 
L 672.988401 467.947006 
L 695.728213 466.391931 
L 718.468025 468.515558 
L 741.207837 468.214389 
L 763.947649 468.163533 
L 786.687461 470.535893 
L 809.427273 472.09587 
" style="fill:none;stroke:#ff7f0e;stroke-linecap:square;stroke-width:1.5;"/>
    <defs>
     <path d="M 0 3 
C 0.795609 3 1.55874 2.683901 2.12132 2.12132 
C 2.683901 1.55874 3 0.795609 3 0 
C 3 -0.795609 2.683901 -1.55874 2.12132 -2.12132 
C 1.55874 -2.683901 0.795609 -3 0 -3 
C -0.795609 -3 -1.55874 -2.683901 -2.12132 -2.12132 
C -2.683901 -1.55874 -3 -0.795609 -3 0 
C -3 0.795609 -2.683901 1.55874 -2.12132 2.12132 
C -1.55874 2.683901 -0.795609 3 0 3 
z
" id="m9f9bbfed91" style="stroke:#ff7f0e;"/>
    </defs>
    <g clip-path="url(#p2061df9a81)">
     <use style="fill:#ff7f0e;stroke:#ff7f0e;" x="218.192163" xlink:href="#m9f9bbfed91" y="426.261634"/>
     <use style="fill:#ff7f0e;stroke:#ff7f0e;" x="240.931975" xlink:href="#m9f9bbfed91" y="423.032048"/>
     <use style="fill:#ff7f0e;stroke:#ff7f0e;" x="263.671787" xlink:href="#m9f9bbfed91" y="473.454531"/>
     <use style="fill:#ff7f0e;stroke:#ff7f0e;" x="286.411599" xlink:href="#m9f9bbfed91" y="472.452742"/>
     <use style="fill:#ff7f0e;stroke:#ff7f0e;" x="309.151411" xlink:href="#m9f9bbfed91" y="478.331168"/>
     <use style="fill:#ff7f0e;stroke:#ff7f0e;" x="331.891223" xlink:href="#m9f9bbfed91" y="479.28586"/>
     <use style="fill:#ff7f0e;stroke:#ff7f0e;" x="354.631034" xlink:href="#m9f9bbfed91" y="477.222338"/>
     <use style="fill:#ff7f0e;stroke:#ff7f0e;" x="377.370846" xlink:href="#m9f9bbfed91" y="475.842161"/>
     <use style="fill:#ff7f0e;stroke:#ff7f0e;" x="400.110658" xlink:href="#m9f9bbfed91" y="478.384949"/>
     <use style="fill:#ff7f0e;stroke:#ff7f0e;" x="422.85047" xlink:href="#m9f9bbfed91" y="475.627925"/>
     <use style="fill:#ff7f0e;stroke:#ff7f0e;" x="445.590282" xlink:href="#m9f9bbfed91" y="478.09028"/>
     <use style="fill:#ff7f0e;stroke:#ff7f0e;" x="468.330094" xlink:href="#m9f9bbfed91" y="480.37083"/>
     <use style="fill:#ff7f0e;stroke:#ff7f0e;" x="491.069906" xlink:href="#m9f9bbfed91" y="475.757828"/>
     <use style="fill:#ff7f0e;stroke:#ff7f0e;" x="513.809718" xlink:href="#m9f9bbfed91" y="473.835376"/>
     <use style="fill:#ff7f0e;stroke:#ff7f0e;" x="536.54953" xlink:href="#m9f9bbfed91" y="475.075648"/>
     <use style="fill:#ff7f0e;stroke:#ff7f0e;" x="559.289342" xlink:href="#m9f9bbfed91" y="465.4802"/>
     <use style="fill:#ff7f0e;stroke:#ff7f0e;" x="582.029154" xlink:href="#m9f9bbfed91" y="468.155306"/>
     <use style="fill:#ff7f0e;stroke:#ff7f0e;" x="604.768966" xlink:href="#m9f9bbfed91" y="468.412166"/>
     <use style="fill:#ff7f0e;stroke:#ff7f0e;" x="627.508777" xlink:href="#m9f9bbfed91" y="461.898951"/>
     <use style="fill:#ff7f0e;stroke:#ff7f0e;" x="650.248589" xlink:href="#m9f9bbfed91" y="469.181178"/>
     <use style="fill:#ff7f0e;stroke:#ff7f0e;" x="672.988401" xlink:href="#m9f9bbfed91" y="467.947006"/>
     <use style="fill:#ff7f0e;stroke:#ff7f0e;" x="695.728213" xlink:href="#m9f9bbfed91" y="466.391931"/>
     <use style="fill:#ff7f0e;stroke:#ff7f0e;" x="718.468025" xlink:href="#m9f9bbfed91" y="468.515558"/>
     <use style="fill:#ff7f0e;stroke:#ff7f0e;" x="741.207837" xlink:href="#m9f9bbfed91" y="468.214389"/>
     <use style="fill:#ff7f0e;stroke:#ff7f0e;" x="763.947649" xlink:href="#m9f9bbfed91" y="468.163533"/>
     <use style="fill:#ff7f0e;stroke:#ff7f0e;" x="786.687461" xlink:href="#m9f9bbfed91" y="470.535893"/>
     <use style="fill:#ff7f0e;stroke:#ff7f0e;" x="809.427273" xlink:href="#m9f9bbfed91" y="472.09587"/>
    </g>
   </g>
   <g id="line2d_123">
    <path clip-path="url(#p2061df9a81)" d="M 286.411599 452.247102 
L 309.151411 448.542678 
L 331.891223 476.03308 
L 354.631034 474.818739 
L 377.370846 477.596756 
L 400.110658 477.346032 
L 422.85047 477.248601 
L 445.590282 478.003267 
L 468.330094 478.776779 
L 491.069906 475.304625 
L 513.809718 475.328127 
L 536.54953 477.575711 
L 559.289342 471.634645 
L 582.029154 471.088309 
L 604.768966 469.755555 
L 627.508777 467.126977 
L 650.248589 467.772356 
L 672.988401 467.673174 
L 695.728213 464.619487 
L 718.468025 468.845393 
L 741.207837 467.806245 
L 763.947649 467.530168 
L 786.687461 469.517389 
L 809.427273 470.526489 
" style="fill:none;stroke:#2ca02c;stroke-linecap:square;stroke-width:1.5;"/>
    <defs>
     <path d="M 0 3 
C 0.795609 3 1.55874 2.683901 2.12132 2.12132 
C 2.683901 1.55874 3 0.795609 3 0 
C 3 -0.795609 2.683901 -1.55874 2.12132 -2.12132 
C 1.55874 -2.683901 0.795609 -3 0 -3 
C -0.795609 -3 -1.55874 -2.683901 -2.12132 -2.12132 
C -2.683901 -1.55874 -3 -0.795609 -3 0 
C -3 0.795609 -2.683901 1.55874 -2.12132 2.12132 
C -1.55874 2.683901 -0.795609 3 0 3 
z
" id="mce437be131" style="stroke:#2ca02c;"/>
    </defs>
    <g clip-path="url(#p2061df9a81)">
     <use style="fill:#2ca02c;stroke:#2ca02c;" x="286.411599" xlink:href="#mce437be131" y="452.247102"/>
     <use style="fill:#2ca02c;stroke:#2ca02c;" x="309.151411" xlink:href="#mce437be131" y="448.542678"/>
     <use style="fill:#2ca02c;stroke:#2ca02c;" x="331.891223" xlink:href="#mce437be131" y="476.03308"/>
     <use style="fill:#2ca02c;stroke:#2ca02c;" x="354.631034" xlink:href="#mce437be131" y="474.818739"/>
     <use style="fill:#2ca02c;stroke:#2ca02c;" x="377.370846" xlink:href="#mce437be131" y="477.596756"/>
     <use style="fill:#2ca02c;stroke:#2ca02c;" x="400.110658" xlink:href="#mce437be131" y="477.346032"/>
     <use style="fill:#2ca02c;stroke:#2ca02c;" x="422.85047" xlink:href="#mce437be131" y="477.248601"/>
     <use style="fill:#2ca02c;stroke:#2ca02c;" x="445.590282" xlink:href="#mce437be131" y="478.003267"/>
     <use style="fill:#2ca02c;stroke:#2ca02c;" x="468.330094" xlink:href="#mce437be131" y="478.776779"/>
     <use style="fill:#2ca02c;stroke:#2ca02c;" x="491.069906" xlink:href="#mce437be131" y="475.304625"/>
     <use style="fill:#2ca02c;stroke:#2ca02c;" x="513.809718" xlink:href="#mce437be131" y="475.328127"/>
     <use style="fill:#2ca02c;stroke:#2ca02c;" x="536.54953" xlink:href="#mce437be131" y="477.575711"/>
     <use style="fill:#2ca02c;stroke:#2ca02c;" x="559.289342" xlink:href="#mce437be131" y="471.634645"/>
     <use style="fill:#2ca02c;stroke:#2ca02c;" x="582.029154" xlink:href="#mce437be131" y="471.088309"/>
     <use style="fill:#2ca02c;stroke:#2ca02c;" x="604.768966" xlink:href="#mce437be131" y="469.755555"/>
     <use style="fill:#2ca02c;stroke:#2ca02c;" x="627.508777" xlink:href="#mce437be131" y="467.126977"/>
     <use style="fill:#2ca02c;stroke:#2ca02c;" x="650.248589" xlink:href="#mce437be131" y="467.772356"/>
     <use style="fill:#2ca02c;stroke:#2ca02c;" x="672.988401" xlink:href="#mce437be131" y="467.673174"/>
     <use style="fill:#2ca02c;stroke:#2ca02c;" x="695.728213" xlink:href="#mce437be131" y="464.619487"/>
     <use style="fill:#2ca02c;stroke:#2ca02c;" x="718.468025" xlink:href="#mce437be131" y="468.845393"/>
     <use style="fill:#2ca02c;stroke:#2ca02c;" x="741.207837" xlink:href="#mce437be131" y="467.806245"/>
     <use style="fill:#2ca02c;stroke:#2ca02c;" x="763.947649" xlink:href="#mce437be131" y="467.530168"/>
     <use style="fill:#2ca02c;stroke:#2ca02c;" x="786.687461" xlink:href="#mce437be131" y="469.517389"/>
     <use style="fill:#2ca02c;stroke:#2ca02c;" x="809.427273" xlink:href="#mce437be131" y="470.526489"/>
    </g>
   </g>
   <g id="line2d_124">
    <path clip-path="url(#p2061df9a81)" d="M 445.590282 465.895771 
L 468.330094 464.708627 
L 491.069906 475.669533 
L 513.809718 475.073764 
L 536.54953 477.586234 
L 559.289342 474.531688 
L 582.029154 474.216406 
L 604.768966 473.96513 
L 627.508777 473.121384 
L 650.248589 471.608329 
L 672.988401 471.572757 
L 695.728213 471.303477 
L 718.468025 470.249472 
L 741.207837 469.460266 
L 763.947649 468.648787 
L 786.687461 468.328999 
L 809.427273 469.158542 
" style="fill:none;stroke:#d62728;stroke-linecap:square;stroke-width:1.5;"/>
    <defs>
     <path d="M 0 3 
C 0.795609 3 1.55874 2.683901 2.12132 2.12132 
C 2.683901 1.55874 3 0.795609 3 0 
C 3 -0.795609 2.683901 -1.55874 2.12132 -2.12132 
C 1.55874 -2.683901 0.795609 -3 0 -3 
C -0.795609 -3 -1.55874 -2.683901 -2.12132 -2.12132 
C -2.683901 -1.55874 -3 -0.795609 -3 0 
C -3 0.795609 -2.683901 1.55874 -2.12132 2.12132 
C -1.55874 2.683901 -0.795609 3 0 3 
z
" id="me33ddef2e2" style="stroke:#d62728;"/>
    </defs>
    <g clip-path="url(#p2061df9a81)">
     <use style="fill:#d62728;stroke:#d62728;" x="445.590282" xlink:href="#me33ddef2e2" y="465.895771"/>
     <use style="fill:#d62728;stroke:#d62728;" x="468.330094" xlink:href="#me33ddef2e2" y="464.708627"/>
     <use style="fill:#d62728;stroke:#d62728;" x="491.069906" xlink:href="#me33ddef2e2" y="475.669533"/>
     <use style="fill:#d62728;stroke:#d62728;" x="513.809718" xlink:href="#me33ddef2e2" y="475.073764"/>
     <use style="fill:#d62728;stroke:#d62728;" x="536.54953" xlink:href="#me33ddef2e2" y="477.586234"/>
     <use style="fill:#d62728;stroke:#d62728;" x="559.289342" xlink:href="#me33ddef2e2" y="474.531688"/>
     <use style="fill:#d62728;stroke:#d62728;" x="582.029154" xlink:href="#me33ddef2e2" y="474.216406"/>
     <use style="fill:#d62728;stroke:#d62728;" x="604.768966" xlink:href="#me33ddef2e2" y="473.96513"/>
     <use style="fill:#d62728;stroke:#d62728;" x="627.508777" xlink:href="#me33ddef2e2" y="473.121384"/>
     <use style="fill:#d62728;stroke:#d62728;" x="650.248589" xlink:href="#me33ddef2e2" y="471.608329"/>
     <use style="fill:#d62728;stroke:#d62728;" x="672.988401" xlink:href="#me33ddef2e2" y="471.572757"/>
     <use style="fill:#d62728;stroke:#d62728;" x="695.728213" xlink:href="#me33ddef2e2" y="471.303477"/>
     <use style="fill:#d62728;stroke:#d62728;" x="718.468025" xlink:href="#me33ddef2e2" y="470.249472"/>
     <use style="fill:#d62728;stroke:#d62728;" x="741.207837" xlink:href="#me33ddef2e2" y="469.460266"/>
     <use style="fill:#d62728;stroke:#d62728;" x="763.947649" xlink:href="#me33ddef2e2" y="468.648787"/>
     <use style="fill:#d62728;stroke:#d62728;" x="786.687461" xlink:href="#me33ddef2e2" y="468.328999"/>
     <use style="fill:#d62728;stroke:#d62728;" x="809.427273" xlink:href="#me33ddef2e2" y="469.158542"/>
    </g>
   </g>
   <g id="patch_3">
    <path d="M 117 512.64 
L 117 69.12 
" style="fill:none;stroke:#000000;stroke-linecap:square;stroke-linejoin:miter;stroke-width:0.8;"/>
   </g>
   <g id="patch_4">
    <path d="M 842.4 512.64 
L 842.4 69.12 
" style="fill:none;stroke:#000000;stroke-linecap:square;stroke-linejoin:miter;stroke-width:0.8;"/>
   </g>
   <g id="patch_5">
    <path d="M 117 512.64 
L 842.4 512.64 
" style="fill:none;stroke:#000000;stroke-linecap:square;stroke-linejoin:miter;stroke-width:0.8;"/>
   </g>
   <g id="patch_6">
    <path d="M 117 69.12 
L 842.4 69.12 
" style="fill:none;stroke:#000000;stroke-linecap:square;stroke-linejoin:miter;stroke-width:0.8;"/>
   </g>
   <g id="text_14">
    <!-- Fatalities, growth rate in United States (2020-01-22..2020-03-30) -->
    <defs>
     <path d="M 9.8125 72.90625 
L 51.703125 72.90625 
L 51.703125 64.59375 
L 19.671875 64.59375 
L 19.671875 43.109375 
L 48.578125 43.109375 
L 48.578125 34.8125 
L 19.671875 34.8125 
L 19.671875 0 
L 9.8125 0 
z
" id="DejaVuSans-70"/>
     <path d="M 9.421875 75.984375 
L 18.40625 75.984375 
L 18.40625 0 
L 9.421875 0 
z
" id="DejaVuSans-108"/>
     <path d="M 9.421875 54.6875 
L 18.40625 54.6875 
L 18.40625 0 
L 9.421875 0 
z
M 9.421875 75.984375 
L 18.40625 75.984375 
L 18.40625 64.59375 
L 9.421875 64.59375 
z
" id="DejaVuSans-105"/>
     <path d="M 56.203125 29.59375 
L 56.203125 25.203125 
L 14.890625 25.203125 
Q 15.484375 15.921875 20.484375 11.0625 
Q 25.484375 6.203125 34.421875 6.203125 
Q 39.59375 6.203125 44.453125 7.46875 
Q 49.3125 8.734375 54.109375 11.28125 
L 54.109375 2.78125 
Q 49.265625 0.734375 44.1875 -0.34375 
Q 39.109375 -1.421875 33.890625 -1.421875 
Q 20.796875 -1.421875 13.15625 6.1875 
Q 5.515625 13.8125 5.515625 26.8125 
Q 5.515625 40.234375 12.765625 48.109375 
Q 20.015625 56 32.328125 56 
Q 43.359375 56 49.78125 48.890625 
Q 56.203125 41.796875 56.203125 29.59375 
z
M 47.21875 32.234375 
Q 47.125 39.59375 43.09375 43.984375 
Q 39.0625 48.390625 32.421875 48.390625 
Q 24.90625 48.390625 20.390625 44.140625 
Q 15.875 39.890625 15.1875 32.171875 
z
" id="DejaVuSans-101"/>
     <path d="M 44.28125 53.078125 
L 44.28125 44.578125 
Q 40.484375 46.53125 36.375 47.5 
Q 32.28125 48.484375 27.875 48.484375 
Q 21.1875 48.484375 17.84375 46.4375 
Q 14.5 44.390625 14.5 40.28125 
Q 14.5 37.15625 16.890625 35.375 
Q 19.28125 33.59375 26.515625 31.984375 
L 29.59375 31.296875 
Q 39.15625 29.25 43.1875 25.515625 
Q 47.21875 21.78125 47.21875 15.09375 
Q 47.21875 7.46875 41.1875 3.015625 
Q 35.15625 -1.421875 24.609375 -1.421875 
Q 20.21875 -1.421875 15.453125 -0.5625 
Q 10.6875 0.296875 5.421875 2 
L 5.421875 11.28125 
Q 10.40625 8.6875 15.234375 7.390625 
Q 20.0625 6.109375 24.8125 6.109375 
Q 31.15625 6.109375 34.5625 8.28125 
Q 37.984375 10.453125 37.984375 14.40625 
Q 37.984375 18.0625 35.515625 20.015625 
Q 33.0625 21.96875 24.703125 23.78125 
L 21.578125 24.515625 
Q 13.234375 26.265625 9.515625 29.90625 
Q 5.8125 33.546875 5.8125 39.890625 
Q 5.8125 47.609375 11.28125 51.796875 
Q 16.75 56 26.8125 56 
Q 31.78125 56 36.171875 55.265625 
Q 40.578125 54.546875 44.28125 53.078125 
z
" id="DejaVuSans-115"/>
     <path d="M 11.71875 12.40625 
L 22.015625 12.40625 
L 22.015625 4 
L 14.015625 -11.625 
L 7.71875 -11.625 
L 11.71875 4 
z
" id="DejaVuSans-44"/>
     <path d="M 54.890625 33.015625 
L 54.890625 0 
L 45.90625 0 
L 45.90625 32.71875 
Q 45.90625 40.484375 42.875 44.328125 
Q 39.84375 48.1875 33.796875 48.1875 
Q 26.515625 48.1875 22.3125 43.546875 
Q 18.109375 38.921875 18.109375 30.90625 
L 18.109375 0 
L 9.078125 0 
L 9.078125 54.6875 
L 18.109375 54.6875 
L 18.109375 46.1875 
Q 21.34375 51.125 25.703125 53.5625 
Q 30.078125 56 35.796875 56 
Q 45.21875 56 50.046875 50.171875 
Q 54.890625 44.34375 54.890625 33.015625 
z
" id="DejaVuSans-110"/>
     <path d="M 8.6875 72.90625 
L 18.609375 72.90625 
L 18.609375 28.609375 
Q 18.609375 16.890625 22.84375 11.734375 
Q 27.09375 6.59375 36.625 6.59375 
Q 46.09375 6.59375 50.34375 11.734375 
Q 54.59375 16.890625 54.59375 28.609375 
L 54.59375 72.90625 
L 64.5 72.90625 
L 64.5 27.390625 
Q 64.5 13.140625 57.4375 5.859375 
Q 50.390625 -1.421875 36.625 -1.421875 
Q 22.796875 -1.421875 15.734375 5.859375 
Q 8.6875 13.140625 8.6875 27.390625 
z
" id="DejaVuSans-85"/>
     <path d="M 45.40625 46.390625 
L 45.40625 75.984375 
L 54.390625 75.984375 
L 54.390625 0 
L 45.40625 0 
L 45.40625 8.203125 
Q 42.578125 3.328125 38.25 0.953125 
Q 33.9375 -1.421875 27.875 -1.421875 
Q 17.96875 -1.421875 11.734375 6.484375 
Q 5.515625 14.40625 5.515625 27.296875 
Q 5.515625 40.1875 11.734375 48.09375 
Q 17.96875 56 27.875 56 
Q 33.9375 56 38.25 53.625 
Q 42.578125 51.265625 45.40625 46.390625 
z
M 14.796875 27.296875 
Q 14.796875 17.390625 18.875 11.75 
Q 22.953125 6.109375 30.078125 6.109375 
Q 37.203125 6.109375 41.296875 11.75 
Q 45.40625 17.390625 45.40625 27.296875 
Q 45.40625 37.203125 41.296875 42.84375 
Q 37.203125 48.484375 30.078125 48.484375 
Q 22.953125 48.484375 18.875 42.84375 
Q 14.796875 37.203125 14.796875 27.296875 
z
" id="DejaVuSans-100"/>
     <path d="M 53.515625 70.515625 
L 53.515625 60.890625 
Q 47.90625 63.578125 42.921875 64.890625 
Q 37.9375 66.21875 33.296875 66.21875 
Q 25.25 66.21875 20.875 63.09375 
Q 16.5 59.96875 16.5 54.203125 
Q 16.5 49.359375 19.40625 46.890625 
Q 22.3125 44.4375 30.421875 42.921875 
L 36.375 41.703125 
Q 47.40625 39.59375 52.65625 34.296875 
Q 57.90625 29 57.90625 20.125 
Q 57.90625 9.515625 50.796875 4.046875 
Q 43.703125 -1.421875 29.984375 -1.421875 
Q 24.8125 -1.421875 18.96875 -0.25 
Q 13.140625 0.921875 6.890625 3.21875 
L 6.890625 13.375 
Q 12.890625 10.015625 18.65625 8.296875 
Q 24.421875 6.59375 29.984375 6.59375 
Q 38.421875 6.59375 43.015625 9.90625 
Q 47.609375 13.234375 47.609375 19.390625 
Q 47.609375 24.75 44.3125 27.78125 
Q 41.015625 30.8125 33.5 32.328125 
L 27.484375 33.5 
Q 16.453125 35.6875 11.515625 40.375 
Q 6.59375 45.0625 6.59375 53.421875 
Q 6.59375 63.09375 13.40625 68.65625 
Q 20.21875 74.21875 32.171875 74.21875 
Q 37.3125 74.21875 42.625 73.28125 
Q 47.953125 72.359375 53.515625 70.515625 
z
" id="DejaVuSans-83"/>
     <path d="M 10.6875 12.40625 
L 21 12.40625 
L 21 0 
L 10.6875 0 
z
" id="DejaVuSans-46"/>
    </defs>
    <g transform="translate(284.085938 63.12)scale(0.12 -0.12)">
     <use xlink:href="#DejaVuSans-70"/>
     <use x="48.394531" xlink:href="#DejaVuSans-97"/>
     <use x="109.673828" xlink:href="#DejaVuSans-116"/>
     <use x="148.882812" xlink:href="#DejaVuSans-97"/>
     <use x="210.162109" xlink:href="#DejaVuSans-108"/>
     <use x="237.945312" xlink:href="#DejaVuSans-105"/>
     <use x="265.728516" xlink:href="#DejaVuSans-116"/>
     <use x="304.9375" xlink:href="#DejaVuSans-105"/>
     <use x="332.720703" xlink:href="#DejaVuSans-101"/>
     <use x="394.244141" xlink:href="#DejaVuSans-115"/>
     <use x="446.34375" xlink:href="#DejaVuSans-44"/>
     <use x="478.130859" xlink:href="#DejaVuSans-32"/>
     <use x="509.917969" xlink:href="#DejaVuSans-103"/>
     <use x="573.394531" xlink:href="#DejaVuSans-114"/>
     <use x="612.257812" xlink:href="#DejaVuSans-111"/>
     <use x="673.439453" xlink:href="#DejaVuSans-119"/>
     <use x="755.226562" xlink:href="#DejaVuSans-116"/>
     <use x="794.435547" xlink:href="#DejaVuSans-104"/>
     <use x="857.814453" xlink:href="#DejaVuSans-32"/>
     <use x="889.601562" xlink:href="#DejaVuSans-114"/>
     <use x="930.714844" xlink:href="#DejaVuSans-97"/>
     <use x="991.994141" xlink:href="#DejaVuSans-116"/>
     <use x="1031.203125" xlink:href="#DejaVuSans-101"/>
     <use x="1092.726562" xlink:href="#DejaVuSans-32"/>
     <use x="1124.513672" xlink:href="#DejaVuSans-105"/>
     <use x="1152.296875" xlink:href="#DejaVuSans-110"/>
     <use x="1215.675781" xlink:href="#DejaVuSans-32"/>
     <use x="1247.462891" xlink:href="#DejaVuSans-85"/>
     <use x="1320.65625" xlink:href="#DejaVuSans-110"/>
     <use x="1384.035156" xlink:href="#DejaVuSans-105"/>
     <use x="1411.818359" xlink:href="#DejaVuSans-116"/>
     <use x="1451.027344" xlink:href="#DejaVuSans-101"/>
     <use x="1512.550781" xlink:href="#DejaVuSans-100"/>
     <use x="1576.027344" xlink:href="#DejaVuSans-32"/>
     <use x="1607.814453" xlink:href="#DejaVuSans-83"/>
     <use x="1671.291016" xlink:href="#DejaVuSans-116"/>
     <use x="1710.5" xlink:href="#DejaVuSans-97"/>
     <use x="1771.779297" xlink:href="#DejaVuSans-116"/>
     <use x="1810.988281" xlink:href="#DejaVuSans-101"/>
     <use x="1872.511719" xlink:href="#DejaVuSans-115"/>
     <use x="1924.611328" xlink:href="#DejaVuSans-32"/>
     <use x="1956.398438" xlink:href="#DejaVuSans-40"/>
     <use x="1995.412109" xlink:href="#DejaVuSans-50"/>
     <use x="2059.035156" xlink:href="#DejaVuSans-48"/>
     <use x="2122.658203" xlink:href="#DejaVuSans-50"/>
     <use x="2186.28125" xlink:href="#DejaVuSans-48"/>
     <use x="2249.904297" xlink:href="#DejaVuSans-45"/>
     <use x="2285.988281" xlink:href="#DejaVuSans-48"/>
     <use x="2349.611328" xlink:href="#DejaVuSans-49"/>
     <use x="2413.234375" xlink:href="#DejaVuSans-45"/>
     <use x="2449.318359" xlink:href="#DejaVuSans-50"/>
     <use x="2512.941406" xlink:href="#DejaVuSans-50"/>
     <use x="2576.564453" xlink:href="#DejaVuSans-46"/>
     <use x="2608.351562" xlink:href="#DejaVuSans-46"/>
     <use x="2640.138672" xlink:href="#DejaVuSans-50"/>
     <use x="2703.761719" xlink:href="#DejaVuSans-48"/>
     <use x="2767.384766" xlink:href="#DejaVuSans-50"/>
     <use x="2831.007812" xlink:href="#DejaVuSans-48"/>
     <use x="2894.630859" xlink:href="#DejaVuSans-45"/>
     <use x="2930.714844" xlink:href="#DejaVuSans-48"/>
     <use x="2994.337891" xlink:href="#DejaVuSans-51"/>
     <use x="3057.960938" xlink:href="#DejaVuSans-45"/>
     <use x="3094.044922" xlink:href="#DejaVuSans-51"/>
     <use x="3157.667969" xlink:href="#DejaVuSans-48"/>
     <use x="3221.291016" xlink:href="#DejaVuSans-41"/>
    </g>
   </g>
   <g id="legend_1">
    <g id="patch_7">
     <path d="M 750.5 150.5325 
L 835.4 150.5325 
Q 837.4 150.5325 837.4 148.5325 
L 837.4 76.12 
Q 837.4 74.12 835.4 74.12 
L 750.5 74.12 
Q 748.5 74.12 748.5 76.12 
L 748.5 148.5325 
Q 748.5 150.5325 750.5 150.5325 
z
" style="fill:#ffffff;opacity:0.8;stroke:#cccccc;stroke-linejoin:miter;"/>
    </g>
    <g id="text_15">
     <!-- Avg over $n$ days -->
     <defs>
      <path d="M 34.1875 63.1875 
L 20.796875 26.90625 
L 47.609375 26.90625 
z
M 28.609375 72.90625 
L 39.796875 72.90625 
L 67.578125 0 
L 57.328125 0 
L 50.6875 18.703125 
L 17.828125 18.703125 
L 11.1875 0 
L 0.78125 0 
z
" id="DejaVuSans-65"/>
      <path d="M 55.71875 33.015625 
L 49.3125 0 
L 40.28125 0 
L 46.6875 32.671875 
Q 47.125 34.96875 47.359375 36.71875 
Q 47.609375 38.484375 47.609375 39.5 
Q 47.609375 43.609375 45.015625 45.890625 
Q 42.4375 48.1875 37.796875 48.1875 
Q 30.5625 48.1875 25.34375 43.375 
Q 20.125 38.578125 18.5 30.328125 
L 12.5 0 
L 3.515625 0 
L 14.109375 54.6875 
L 23.09375 54.6875 
L 21.296875 46.09375 
Q 25.046875 50.828125 30.3125 53.40625 
Q 35.59375 56 41.40625 56 
Q 48.640625 56 52.609375 52.09375 
Q 56.59375 48.1875 56.59375 41.109375 
Q 56.59375 39.359375 56.375 37.359375 
Q 56.15625 35.359375 55.71875 33.015625 
z
" id="DejaVuSans-Oblique-110"/>
      <path d="M 32.171875 -5.078125 
Q 28.375 -14.84375 24.75 -17.8125 
Q 21.140625 -20.796875 15.09375 -20.796875 
L 7.90625 -20.796875 
L 7.90625 -13.28125 
L 13.1875 -13.28125 
Q 16.890625 -13.28125 18.9375 -11.515625 
Q 21 -9.765625 23.484375 -3.21875 
L 25.09375 0.875 
L 2.984375 54.6875 
L 12.5 54.6875 
L 29.59375 11.921875 
L 46.6875 54.6875 
L 56.203125 54.6875 
z
" id="DejaVuSans-121"/>
     </defs>
     <g transform="translate(752.5 85.72)scale(0.1 -0.1)">
      <use transform="translate(0 0.015625)" xlink:href="#DejaVuSans-65"/>
      <use transform="translate(68.408203 0.015625)" xlink:href="#DejaVuSans-118"/>
      <use transform="translate(127.587891 0.015625)" xlink:href="#DejaVuSans-103"/>
      <use transform="translate(191.064453 0.015625)" xlink:href="#DejaVuSans-32"/>
      <use transform="translate(222.851562 0.015625)" xlink:href="#DejaVuSans-111"/>
      <use transform="translate(284.033203 0.015625)" xlink:href="#DejaVuSans-118"/>
      <use transform="translate(343.212891 0.015625)" xlink:href="#DejaVuSans-101"/>
      <use transform="translate(404.736328 0.015625)" xlink:href="#DejaVuSans-114"/>
      <use transform="translate(445.849609 0.015625)" xlink:href="#DejaVuSans-32"/>
      <use transform="translate(477.636719 0.015625)" xlink:href="#DejaVuSans-Oblique-110"/>
      <use transform="translate(541.015625 0.015625)" xlink:href="#DejaVuSans-32"/>
      <use transform="translate(572.802734 0.015625)" xlink:href="#DejaVuSans-100"/>
      <use transform="translate(636.279297 0.015625)" xlink:href="#DejaVuSans-97"/>
      <use transform="translate(697.558594 0.015625)" xlink:href="#DejaVuSans-121"/>
      <use transform="translate(756.738281 0.015625)" xlink:href="#DejaVuSans-115"/>
     </g>
    </g>
    <g id="line2d_125">
     <path d="M 759.196094 96.918438 
L 779.196094 96.918438 
" style="fill:none;stroke:#1f77b4;stroke-linecap:square;stroke-width:1.5;"/>
    </g>
    <g id="line2d_126">
     <g>
      <use style="fill:#1f77b4;stroke:#1f77b4;" x="769.196094" xlink:href="#mff5dab72d3" y="96.918438"/>
     </g>
    </g>
    <g id="text_16">
     <!-- 1 days -->
     <g transform="translate(787.196094 100.418438)scale(0.1 -0.1)">
      <use xlink:href="#DejaVuSans-49"/>
      <use x="63.623047" xlink:href="#DejaVuSans-32"/>
      <use x="95.410156" xlink:href="#DejaVuSans-100"/>
      <use x="158.886719" xlink:href="#DejaVuSans-97"/>
      <use x="220.166016" xlink:href="#DejaVuSans-121"/>
      <use x="279.345703" xlink:href="#DejaVuSans-115"/>
     </g>
    </g>
    <g id="line2d_127">
     <path d="M 759.196094 111.596563 
L 779.196094 111.596563 
" style="fill:none;stroke:#ff7f0e;stroke-linecap:square;stroke-width:1.5;"/>
    </g>
    <g id="line2d_128">
     <g>
      <use style="fill:#ff7f0e;stroke:#ff7f0e;" x="769.196094" xlink:href="#m9f9bbfed91" y="111.596563"/>
     </g>
    </g>
    <g id="text_17">
     <!-- 4 days -->
     <g transform="translate(787.196094 115.096563)scale(0.1 -0.1)">
      <use xlink:href="#DejaVuSans-52"/>
      <use x="63.623047" xlink:href="#DejaVuSans-32"/>
      <use x="95.410156" xlink:href="#DejaVuSans-100"/>
      <use x="158.886719" xlink:href="#DejaVuSans-97"/>
      <use x="220.166016" xlink:href="#DejaVuSans-121"/>
      <use x="279.345703" xlink:href="#DejaVuSans-115"/>
     </g>
    </g>
    <g id="line2d_129">
     <path d="M 759.196094 126.274688 
L 779.196094 126.274688 
" style="fill:none;stroke:#2ca02c;stroke-linecap:square;stroke-width:1.5;"/>
    </g>
    <g id="line2d_130">
     <g>
      <use style="fill:#2ca02c;stroke:#2ca02c;" x="769.196094" xlink:href="#mce437be131" y="126.274688"/>
     </g>
    </g>
    <g id="text_18">
     <!-- 7 days -->
     <g transform="translate(787.196094 129.774688)scale(0.1 -0.1)">
      <use xlink:href="#DejaVuSans-55"/>
      <use x="63.623047" xlink:href="#DejaVuSans-32"/>
      <use x="95.410156" xlink:href="#DejaVuSans-100"/>
      <use x="158.886719" xlink:href="#DejaVuSans-97"/>
      <use x="220.166016" xlink:href="#DejaVuSans-121"/>
      <use x="279.345703" xlink:href="#DejaVuSans-115"/>
     </g>
    </g>
    <g id="line2d_131">
     <path d="M 759.196094 140.952813 
L 779.196094 140.952813 
" style="fill:none;stroke:#d62728;stroke-linecap:square;stroke-width:1.5;"/>
    </g>
    <g id="line2d_132">
     <g>
      <use style="fill:#d62728;stroke:#d62728;" x="769.196094" xlink:href="#me33ddef2e2" y="140.952813"/>
     </g>
    </g>
    <g id="text_19">
     <!-- 14 days -->
     <g transform="translate(787.196094 144.452813)scale(0.1 -0.1)">
      <use xlink:href="#DejaVuSans-49"/>
      <use x="63.623047" xlink:href="#DejaVuSans-52"/>
      <use x="127.246094" xlink:href="#DejaVuSans-32"/>
      <use x="159.033203" xlink:href="#DejaVuSans-100"/>
      <use x="222.509766" xlink:href="#DejaVuSans-97"/>
      <use x="283.789062" xlink:href="#DejaVuSans-121"/>
      <use x="342.96875" xlink:href="#DejaVuSans-115"/>
     </g>
    </g>
   </g>
  </g>
 </g>
 <defs>
  <clipPath id="p2061df9a81">
   <rect height="443.52" width="725.4" x="117" y="69.12"/>
  </clipPath>
 </defs>
</svg>
