<?xml version="1.0" encoding="utf-8" standalone="no"?>
<!DOCTYPE svg PUBLIC "-//W3C//DTD SVG 1.1//EN"
  "http://www.w3.org/Graphics/SVG/1.1/DTD/svg11.dtd">
<!-- Created with matplotlib (https://matplotlib.org/) -->
<svg height="576pt" version="1.1" viewBox="0 0 936 576" width="936pt" xmlns="http://www.w3.org/2000/svg" xmlns:xlink="http://www.w3.org/1999/xlink">
 <defs>
  <style type="text/css">
*{stroke-linecap:butt;stroke-linejoin:round;}
  </style>
 </defs>
 <g id="figure_1">
  <g id="patch_1">
   <path d="M 0 576 
L 936 576 
L 936 0 
L 0 0 
z
" style="fill:#ffffff;"/>
  </g>
  <g id="axes_1">
   <g id="patch_2">
    <path d="M 117 512.64 
L 842.4 512.64 
L 842.4 69.12 
L 117 69.12 
z
" style="fill:#ffffff;"/>
   </g>
   <g id="matplotlib.axis_1">
    <g id="xtick_1">
     <g id="line2d_1">
      <path clip-path="url(#p3abc18e870)" d="M 226.063636 512.64 
L 226.063636 69.12 
" style="fill:none;stroke:#d8dcd6;stroke-dasharray:0.8,1.32;stroke-dashoffset:0;stroke-width:0.8;"/>
     </g>
     <g id="line2d_2">
      <defs>
       <path d="M 0 0 
L 0 3.5 
" id="mfbdff3b1e2" style="stroke:#000000;stroke-width:0.8;"/>
      </defs>
      <g>
       <use style="stroke:#000000;stroke-width:0.8;" x="226.063636" xlink:href="#mfbdff3b1e2" y="512.64"/>
      </g>
     </g>
     <g id="text_1">
      <!-- 2020-03-07 -->
      <defs>
       <path d="M 19.1875 8.296875 
L 53.609375 8.296875 
L 53.609375 0 
L 7.328125 0 
L 7.328125 8.296875 
Q 12.9375 14.109375 22.625 23.890625 
Q 32.328125 33.6875 34.8125 36.53125 
Q 39.546875 41.84375 41.421875 45.53125 
Q 43.3125 49.21875 43.3125 52.78125 
Q 43.3125 58.59375 39.234375 62.25 
Q 35.15625 65.921875 28.609375 65.921875 
Q 23.96875 65.921875 18.8125 64.3125 
Q 13.671875 62.703125 7.8125 59.421875 
L 7.8125 69.390625 
Q 13.765625 71.78125 18.9375 73 
Q 24.125 74.21875 28.421875 74.21875 
Q 39.75 74.21875 46.484375 68.546875 
Q 53.21875 62.890625 53.21875 53.421875 
Q 53.21875 48.921875 51.53125 44.890625 
Q 49.859375 40.875 45.40625 35.40625 
Q 44.1875 33.984375 37.640625 27.21875 
Q 31.109375 20.453125 19.1875 8.296875 
z
" id="DejaVuSans-50"/>
       <path d="M 31.78125 66.40625 
Q 24.171875 66.40625 20.328125 58.90625 
Q 16.5 51.421875 16.5 36.375 
Q 16.5 21.390625 20.328125 13.890625 
Q 24.171875 6.390625 31.78125 6.390625 
Q 39.453125 6.390625 43.28125 13.890625 
Q 47.125 21.390625 47.125 36.375 
Q 47.125 51.421875 43.28125 58.90625 
Q 39.453125 66.40625 31.78125 66.40625 
z
M 31.78125 74.21875 
Q 44.046875 74.21875 50.515625 64.515625 
Q 56.984375 54.828125 56.984375 36.375 
Q 56.984375 17.96875 50.515625 8.265625 
Q 44.046875 -1.421875 31.78125 -1.421875 
Q 19.53125 -1.421875 13.0625 8.265625 
Q 6.59375 17.96875 6.59375 36.375 
Q 6.59375 54.828125 13.0625 64.515625 
Q 19.53125 74.21875 31.78125 74.21875 
z
" id="DejaVuSans-48"/>
       <path d="M 4.890625 31.390625 
L 31.203125 31.390625 
L 31.203125 23.390625 
L 4.890625 23.390625 
z
" id="DejaVuSans-45"/>
       <path d="M 40.578125 39.3125 
Q 47.65625 37.796875 51.625 33 
Q 55.609375 28.21875 55.609375 21.1875 
Q 55.609375 10.40625 48.1875 4.484375 
Q 40.765625 -1.421875 27.09375 -1.421875 
Q 22.515625 -1.421875 17.65625 -0.515625 
Q 12.796875 0.390625 7.625 2.203125 
L 7.625 11.71875 
Q 11.71875 9.328125 16.59375 8.109375 
Q 21.484375 6.890625 26.8125 6.890625 
Q 36.078125 6.890625 40.9375 10.546875 
Q 45.796875 14.203125 45.796875 21.1875 
Q 45.796875 27.640625 41.28125 31.265625 
Q 36.765625 34.90625 28.71875 34.90625 
L 20.21875 34.90625 
L 20.21875 43.015625 
L 29.109375 43.015625 
Q 36.375 43.015625 40.234375 45.921875 
Q 44.09375 48.828125 44.09375 54.296875 
Q 44.09375 59.90625 40.109375 62.90625 
Q 36.140625 65.921875 28.71875 65.921875 
Q 24.65625 65.921875 20.015625 65.03125 
Q 15.375 64.15625 9.8125 62.3125 
L 9.8125 71.09375 
Q 15.4375 72.65625 20.34375 73.4375 
Q 25.25 74.21875 29.59375 74.21875 
Q 40.828125 74.21875 47.359375 69.109375 
Q 53.90625 64.015625 53.90625 55.328125 
Q 53.90625 49.265625 50.4375 45.09375 
Q 46.96875 40.921875 40.578125 39.3125 
z
" id="DejaVuSans-51"/>
       <path d="M 8.203125 72.90625 
L 55.078125 72.90625 
L 55.078125 68.703125 
L 28.609375 0 
L 18.3125 0 
L 43.21875 64.59375 
L 8.203125 64.59375 
z
" id="DejaVuSans-55"/>
      </defs>
      <g transform="translate(197.005824 527.238438)scale(0.1 -0.1)">
       <use xlink:href="#DejaVuSans-50"/>
       <use x="63.623047" xlink:href="#DejaVuSans-48"/>
       <use x="127.246094" xlink:href="#DejaVuSans-50"/>
       <use x="190.869141" xlink:href="#DejaVuSans-48"/>
       <use x="254.492188" xlink:href="#DejaVuSans-45"/>
       <use x="290.576172" xlink:href="#DejaVuSans-48"/>
       <use x="354.199219" xlink:href="#DejaVuSans-51"/>
       <use x="417.822266" xlink:href="#DejaVuSans-45"/>
       <use x="453.90625" xlink:href="#DejaVuSans-48"/>
       <use x="517.529297" xlink:href="#DejaVuSans-55"/>
      </g>
     </g>
    </g>
    <g id="xtick_2">
     <g id="line2d_3">
      <path clip-path="url(#p3abc18e870)" d="M 352.881818 512.64 
L 352.881818 69.12 
" style="fill:none;stroke:#d8dcd6;stroke-dasharray:0.8,1.32;stroke-dashoffset:0;stroke-width:0.8;"/>
     </g>
     <g id="line2d_4">
      <g>
       <use style="stroke:#000000;stroke-width:0.8;" x="352.881818" xlink:href="#mfbdff3b1e2" y="512.64"/>
      </g>
     </g>
     <g id="text_2">
      <!-- 2020-03-12 -->
      <defs>
       <path d="M 12.40625 8.296875 
L 28.515625 8.296875 
L 28.515625 63.921875 
L 10.984375 60.40625 
L 10.984375 69.390625 
L 28.421875 72.90625 
L 38.28125 72.90625 
L 38.28125 8.296875 
L 54.390625 8.296875 
L 54.390625 0 
L 12.40625 0 
z
" id="DejaVuSans-49"/>
      </defs>
      <g transform="translate(323.824006 527.238438)scale(0.1 -0.1)">
       <use xlink:href="#DejaVuSans-50"/>
       <use x="63.623047" xlink:href="#DejaVuSans-48"/>
       <use x="127.246094" xlink:href="#DejaVuSans-50"/>
       <use x="190.869141" xlink:href="#DejaVuSans-48"/>
       <use x="254.492188" xlink:href="#DejaVuSans-45"/>
       <use x="290.576172" xlink:href="#DejaVuSans-48"/>
       <use x="354.199219" xlink:href="#DejaVuSans-51"/>
       <use x="417.822266" xlink:href="#DejaVuSans-45"/>
       <use x="453.90625" xlink:href="#DejaVuSans-49"/>
       <use x="517.529297" xlink:href="#DejaVuSans-50"/>
      </g>
     </g>
    </g>
    <g id="xtick_3">
     <g id="line2d_5">
      <path clip-path="url(#p3abc18e870)" d="M 479.7 512.64 
L 479.7 69.12 
" style="fill:none;stroke:#d8dcd6;stroke-dasharray:0.8,1.32;stroke-dashoffset:0;stroke-width:0.8;"/>
     </g>
     <g id="line2d_6">
      <g>
       <use style="stroke:#000000;stroke-width:0.8;" x="479.7" xlink:href="#mfbdff3b1e2" y="512.64"/>
      </g>
     </g>
     <g id="text_3">
      <!-- 2020-03-17 -->
      <g transform="translate(450.642188 527.238438)scale(0.1 -0.1)">
       <use xlink:href="#DejaVuSans-50"/>
       <use x="63.623047" xlink:href="#DejaVuSans-48"/>
       <use x="127.246094" xlink:href="#DejaVuSans-50"/>
       <use x="190.869141" xlink:href="#DejaVuSans-48"/>
       <use x="254.492188" xlink:href="#DejaVuSans-45"/>
       <use x="290.576172" xlink:href="#DejaVuSans-48"/>
       <use x="354.199219" xlink:href="#DejaVuSans-51"/>
       <use x="417.822266" xlink:href="#DejaVuSans-45"/>
       <use x="453.90625" xlink:href="#DejaVuSans-49"/>
       <use x="517.529297" xlink:href="#DejaVuSans-55"/>
      </g>
     </g>
    </g>
    <g id="xtick_4">
     <g id="line2d_7">
      <path clip-path="url(#p3abc18e870)" d="M 606.518182 512.64 
L 606.518182 69.12 
" style="fill:none;stroke:#d8dcd6;stroke-dasharray:0.8,1.32;stroke-dashoffset:0;stroke-width:0.8;"/>
     </g>
     <g id="line2d_8">
      <g>
       <use style="stroke:#000000;stroke-width:0.8;" x="606.518182" xlink:href="#mfbdff3b1e2" y="512.64"/>
      </g>
     </g>
     <g id="text_4">
      <!-- 2020-03-22 -->
      <g transform="translate(577.460369 527.238438)scale(0.1 -0.1)">
       <use xlink:href="#DejaVuSans-50"/>
       <use x="63.623047" xlink:href="#DejaVuSans-48"/>
       <use x="127.246094" xlink:href="#DejaVuSans-50"/>
       <use x="190.869141" xlink:href="#DejaVuSans-48"/>
       <use x="254.492188" xlink:href="#DejaVuSans-45"/>
       <use x="290.576172" xlink:href="#DejaVuSans-48"/>
       <use x="354.199219" xlink:href="#DejaVuSans-51"/>
       <use x="417.822266" xlink:href="#DejaVuSans-45"/>
       <use x="453.90625" xlink:href="#DejaVuSans-50"/>
       <use x="517.529297" xlink:href="#DejaVuSans-50"/>
      </g>
     </g>
    </g>
    <g id="xtick_5">
     <g id="line2d_9">
      <path clip-path="url(#p3abc18e870)" d="M 733.336364 512.64 
L 733.336364 69.12 
" style="fill:none;stroke:#d8dcd6;stroke-dasharray:0.8,1.32;stroke-dashoffset:0;stroke-width:0.8;"/>
     </g>
     <g id="line2d_10">
      <g>
       <use style="stroke:#000000;stroke-width:0.8;" x="733.336364" xlink:href="#mfbdff3b1e2" y="512.64"/>
      </g>
     </g>
     <g id="text_5">
      <!-- 2020-03-27 -->
      <g transform="translate(704.278551 527.238438)scale(0.1 -0.1)">
       <use xlink:href="#DejaVuSans-50"/>
       <use x="63.623047" xlink:href="#DejaVuSans-48"/>
       <use x="127.246094" xlink:href="#DejaVuSans-50"/>
       <use x="190.869141" xlink:href="#DejaVuSans-48"/>
       <use x="254.492188" xlink:href="#DejaVuSans-45"/>
       <use x="290.576172" xlink:href="#DejaVuSans-48"/>
       <use x="354.199219" xlink:href="#DejaVuSans-51"/>
       <use x="417.822266" xlink:href="#DejaVuSans-45"/>
       <use x="453.90625" xlink:href="#DejaVuSans-50"/>
       <use x="517.529297" xlink:href="#DejaVuSans-55"/>
      </g>
     </g>
    </g>
    <g id="xtick_6">
     <g id="line2d_11">
      <path clip-path="url(#p3abc18e870)" d="M 124.609091 512.64 
L 124.609091 69.12 
" style="fill:none;stroke:#d8dcd6;stroke-dasharray:0.8,1.32;stroke-dashoffset:0;stroke-width:0.8;"/>
     </g>
     <g id="line2d_12">
      <defs>
       <path d="M 0 0 
L 0 2 
" id="mf3d04495af" style="stroke:#000000;stroke-width:0.6;"/>
      </defs>
      <g>
       <use style="stroke:#000000;stroke-width:0.6;" x="124.609091" xlink:href="#mf3d04495af" y="512.64"/>
      </g>
     </g>
    </g>
    <g id="xtick_7">
     <g id="line2d_13">
      <path clip-path="url(#p3abc18e870)" d="M 149.972727 512.64 
L 149.972727 69.12 
" style="fill:none;stroke:#d8dcd6;stroke-dasharray:0.8,1.32;stroke-dashoffset:0;stroke-width:0.8;"/>
     </g>
     <g id="line2d_14">
      <g>
       <use style="stroke:#000000;stroke-width:0.6;" x="149.972727" xlink:href="#mf3d04495af" y="512.64"/>
      </g>
     </g>
    </g>
    <g id="xtick_8">
     <g id="line2d_15">
      <path clip-path="url(#p3abc18e870)" d="M 175.336364 512.64 
L 175.336364 69.12 
" style="fill:none;stroke:#d8dcd6;stroke-dasharray:0.8,1.32;stroke-dashoffset:0;stroke-width:0.8;"/>
     </g>
     <g id="line2d_16">
      <g>
       <use style="stroke:#000000;stroke-width:0.6;" x="175.336364" xlink:href="#mf3d04495af" y="512.64"/>
      </g>
     </g>
    </g>
    <g id="xtick_9">
     <g id="line2d_17">
      <path clip-path="url(#p3abc18e870)" d="M 200.7 512.64 
L 200.7 69.12 
" style="fill:none;stroke:#d8dcd6;stroke-dasharray:0.8,1.32;stroke-dashoffset:0;stroke-width:0.8;"/>
     </g>
     <g id="line2d_18">
      <g>
       <use style="stroke:#000000;stroke-width:0.6;" x="200.7" xlink:href="#mf3d04495af" y="512.64"/>
      </g>
     </g>
    </g>
    <g id="xtick_10">
     <g id="line2d_19">
      <path clip-path="url(#p3abc18e870)" d="M 251.427273 512.64 
L 251.427273 69.12 
" style="fill:none;stroke:#d8dcd6;stroke-dasharray:0.8,1.32;stroke-dashoffset:0;stroke-width:0.8;"/>
     </g>
     <g id="line2d_20">
      <g>
       <use style="stroke:#000000;stroke-width:0.6;" x="251.427273" xlink:href="#mf3d04495af" y="512.64"/>
      </g>
     </g>
    </g>
    <g id="xtick_11">
     <g id="line2d_21">
      <path clip-path="url(#p3abc18e870)" d="M 276.790909 512.64 
L 276.790909 69.12 
" style="fill:none;stroke:#d8dcd6;stroke-dasharray:0.8,1.32;stroke-dashoffset:0;stroke-width:0.8;"/>
     </g>
     <g id="line2d_22">
      <g>
       <use style="stroke:#000000;stroke-width:0.6;" x="276.790909" xlink:href="#mf3d04495af" y="512.64"/>
      </g>
     </g>
    </g>
    <g id="xtick_12">
     <g id="line2d_23">
      <path clip-path="url(#p3abc18e870)" d="M 302.154545 512.64 
L 302.154545 69.12 
" style="fill:none;stroke:#d8dcd6;stroke-dasharray:0.8,1.32;stroke-dashoffset:0;stroke-width:0.8;"/>
     </g>
     <g id="line2d_24">
      <g>
       <use style="stroke:#000000;stroke-width:0.6;" x="302.154545" xlink:href="#mf3d04495af" y="512.64"/>
      </g>
     </g>
    </g>
    <g id="xtick_13">
     <g id="line2d_25">
      <path clip-path="url(#p3abc18e870)" d="M 327.518182 512.64 
L 327.518182 69.12 
" style="fill:none;stroke:#d8dcd6;stroke-dasharray:0.8,1.32;stroke-dashoffset:0;stroke-width:0.8;"/>
     </g>
     <g id="line2d_26">
      <g>
       <use style="stroke:#000000;stroke-width:0.6;" x="327.518182" xlink:href="#mf3d04495af" y="512.64"/>
      </g>
     </g>
    </g>
    <g id="xtick_14">
     <g id="line2d_27">
      <path clip-path="url(#p3abc18e870)" d="M 378.245455 512.64 
L 378.245455 69.12 
" style="fill:none;stroke:#d8dcd6;stroke-dasharray:0.8,1.32;stroke-dashoffset:0;stroke-width:0.8;"/>
     </g>
     <g id="line2d_28">
      <g>
       <use style="stroke:#000000;stroke-width:0.6;" x="378.245455" xlink:href="#mf3d04495af" y="512.64"/>
      </g>
     </g>
    </g>
    <g id="xtick_15">
     <g id="line2d_29">
      <path clip-path="url(#p3abc18e870)" d="M 403.609091 512.64 
L 403.609091 69.12 
" style="fill:none;stroke:#d8dcd6;stroke-dasharray:0.8,1.32;stroke-dashoffset:0;stroke-width:0.8;"/>
     </g>
     <g id="line2d_30">
      <g>
       <use style="stroke:#000000;stroke-width:0.6;" x="403.609091" xlink:href="#mf3d04495af" y="512.64"/>
      </g>
     </g>
    </g>
    <g id="xtick_16">
     <g id="line2d_31">
      <path clip-path="url(#p3abc18e870)" d="M 428.972727 512.64 
L 428.972727 69.12 
" style="fill:none;stroke:#d8dcd6;stroke-dasharray:0.8,1.32;stroke-dashoffset:0;stroke-width:0.8;"/>
     </g>
     <g id="line2d_32">
      <g>
       <use style="stroke:#000000;stroke-width:0.6;" x="428.972727" xlink:href="#mf3d04495af" y="512.64"/>
      </g>
     </g>
    </g>
    <g id="xtick_17">
     <g id="line2d_33">
      <path clip-path="url(#p3abc18e870)" d="M 454.336364 512.64 
L 454.336364 69.12 
" style="fill:none;stroke:#d8dcd6;stroke-dasharray:0.8,1.32;stroke-dashoffset:0;stroke-width:0.8;"/>
     </g>
     <g id="line2d_34">
      <g>
       <use style="stroke:#000000;stroke-width:0.6;" x="454.336364" xlink:href="#mf3d04495af" y="512.64"/>
      </g>
     </g>
    </g>
    <g id="xtick_18">
     <g id="line2d_35">
      <path clip-path="url(#p3abc18e870)" d="M 505.063636 512.64 
L 505.063636 69.12 
" style="fill:none;stroke:#d8dcd6;stroke-dasharray:0.8,1.32;stroke-dashoffset:0;stroke-width:0.8;"/>
     </g>
     <g id="line2d_36">
      <g>
       <use style="stroke:#000000;stroke-width:0.6;" x="505.063636" xlink:href="#mf3d04495af" y="512.64"/>
      </g>
     </g>
    </g>
    <g id="xtick_19">
     <g id="line2d_37">
      <path clip-path="url(#p3abc18e870)" d="M 530.427273 512.64 
L 530.427273 69.12 
" style="fill:none;stroke:#d8dcd6;stroke-dasharray:0.8,1.32;stroke-dashoffset:0;stroke-width:0.8;"/>
     </g>
     <g id="line2d_38">
      <g>
       <use style="stroke:#000000;stroke-width:0.6;" x="530.427273" xlink:href="#mf3d04495af" y="512.64"/>
      </g>
     </g>
    </g>
    <g id="xtick_20">
     <g id="line2d_39">
      <path clip-path="url(#p3abc18e870)" d="M 555.790909 512.64 
L 555.790909 69.12 
" style="fill:none;stroke:#d8dcd6;stroke-dasharray:0.8,1.32;stroke-dashoffset:0;stroke-width:0.8;"/>
     </g>
     <g id="line2d_40">
      <g>
       <use style="stroke:#000000;stroke-width:0.6;" x="555.790909" xlink:href="#mf3d04495af" y="512.64"/>
      </g>
     </g>
    </g>
    <g id="xtick_21">
     <g id="line2d_41">
      <path clip-path="url(#p3abc18e870)" d="M 581.154545 512.64 
L 581.154545 69.12 
" style="fill:none;stroke:#d8dcd6;stroke-dasharray:0.8,1.32;stroke-dashoffset:0;stroke-width:0.8;"/>
     </g>
     <g id="line2d_42">
      <g>
       <use style="stroke:#000000;stroke-width:0.6;" x="581.154545" xlink:href="#mf3d04495af" y="512.64"/>
      </g>
     </g>
    </g>
    <g id="xtick_22">
     <g id="line2d_43">
      <path clip-path="url(#p3abc18e870)" d="M 631.881818 512.64 
L 631.881818 69.12 
" style="fill:none;stroke:#d8dcd6;stroke-dasharray:0.8,1.32;stroke-dashoffset:0;stroke-width:0.8;"/>
     </g>
     <g id="line2d_44">
      <g>
       <use style="stroke:#000000;stroke-width:0.6;" x="631.881818" xlink:href="#mf3d04495af" y="512.64"/>
      </g>
     </g>
    </g>
    <g id="xtick_23">
     <g id="line2d_45">
      <path clip-path="url(#p3abc18e870)" d="M 657.245455 512.64 
L 657.245455 69.12 
" style="fill:none;stroke:#d8dcd6;stroke-dasharray:0.8,1.32;stroke-dashoffset:0;stroke-width:0.8;"/>
     </g>
     <g id="line2d_46">
      <g>
       <use style="stroke:#000000;stroke-width:0.6;" x="657.245455" xlink:href="#mf3d04495af" y="512.64"/>
      </g>
     </g>
    </g>
    <g id="xtick_24">
     <g id="line2d_47">
      <path clip-path="url(#p3abc18e870)" d="M 682.609091 512.64 
L 682.609091 69.12 
" style="fill:none;stroke:#d8dcd6;stroke-dasharray:0.8,1.32;stroke-dashoffset:0;stroke-width:0.8;"/>
     </g>
     <g id="line2d_48">
      <g>
       <use style="stroke:#000000;stroke-width:0.6;" x="682.609091" xlink:href="#mf3d04495af" y="512.64"/>
      </g>
     </g>
    </g>
    <g id="xtick_25">
     <g id="line2d_49">
      <path clip-path="url(#p3abc18e870)" d="M 707.972727 512.64 
L 707.972727 69.12 
" style="fill:none;stroke:#d8dcd6;stroke-dasharray:0.8,1.32;stroke-dashoffset:0;stroke-width:0.8;"/>
     </g>
     <g id="line2d_50">
      <g>
       <use style="stroke:#000000;stroke-width:0.6;" x="707.972727" xlink:href="#mf3d04495af" y="512.64"/>
      </g>
     </g>
    </g>
    <g id="xtick_26">
     <g id="line2d_51">
      <path clip-path="url(#p3abc18e870)" d="M 758.7 512.64 
L 758.7 69.12 
" style="fill:none;stroke:#d8dcd6;stroke-dasharray:0.8,1.32;stroke-dashoffset:0;stroke-width:0.8;"/>
     </g>
     <g id="line2d_52">
      <g>
       <use style="stroke:#000000;stroke-width:0.6;" x="758.7" xlink:href="#mf3d04495af" y="512.64"/>
      </g>
     </g>
    </g>
    <g id="xtick_27">
     <g id="line2d_53">
      <path clip-path="url(#p3abc18e870)" d="M 784.063636 512.64 
L 784.063636 69.12 
" style="fill:none;stroke:#d8dcd6;stroke-dasharray:0.8,1.32;stroke-dashoffset:0;stroke-width:0.8;"/>
     </g>
     <g id="line2d_54">
      <g>
       <use style="stroke:#000000;stroke-width:0.6;" x="784.063636" xlink:href="#mf3d04495af" y="512.64"/>
      </g>
     </g>
    </g>
    <g id="xtick_28">
     <g id="line2d_55">
      <path clip-path="url(#p3abc18e870)" d="M 809.427273 512.64 
L 809.427273 69.12 
" style="fill:none;stroke:#d8dcd6;stroke-dasharray:0.8,1.32;stroke-dashoffset:0;stroke-width:0.8;"/>
     </g>
     <g id="line2d_56">
      <g>
       <use style="stroke:#000000;stroke-width:0.6;" x="809.427273" xlink:href="#mf3d04495af" y="512.64"/>
      </g>
     </g>
    </g>
    <g id="xtick_29">
     <g id="line2d_57">
      <path clip-path="url(#p3abc18e870)" d="M 834.790909 512.64 
L 834.790909 69.12 
" style="fill:none;stroke:#d8dcd6;stroke-dasharray:0.8,1.32;stroke-dashoffset:0;stroke-width:0.8;"/>
     </g>
     <g id="line2d_58">
      <g>
       <use style="stroke:#000000;stroke-width:0.6;" x="834.790909" xlink:href="#mf3d04495af" y="512.64"/>
      </g>
     </g>
    </g>
   </g>
   <g id="matplotlib.axis_2">
    <g id="ytick_1">
     <g id="line2d_59">
      <path clip-path="url(#p3abc18e870)" d="M 117 497.814616 
L 842.4 497.814616 
" style="fill:none;stroke:#d8dcd6;stroke-dasharray:0.8,1.32;stroke-dashoffset:0;stroke-width:0.8;"/>
     </g>
     <g id="line2d_60">
      <defs>
       <path d="M 0 0 
L -3.5 0 
" id="m81af130c70" style="stroke:#000000;stroke-width:0.8;"/>
      </defs>
      <g>
       <use style="stroke:#000000;stroke-width:0.8;" x="117" xlink:href="#m81af130c70" y="497.814616"/>
      </g>
     </g>
     <g id="text_6">
      <!-- 1.0 -->
      <defs>
       <path d="M 10.6875 12.40625 
L 21 12.40625 
L 21 0 
L 10.6875 0 
z
" id="DejaVuSans-46"/>
      </defs>
      <g transform="translate(94.096875 501.613835)scale(0.1 -0.1)">
       <use xlink:href="#DejaVuSans-49"/>
       <use x="63.623047" xlink:href="#DejaVuSans-46"/>
       <use x="95.410156" xlink:href="#DejaVuSans-48"/>
      </g>
     </g>
    </g>
    <g id="ytick_2">
     <g id="line2d_61">
      <path clip-path="url(#p3abc18e870)" d="M 117 440.20076 
L 842.4 440.20076 
" style="fill:none;stroke:#d8dcd6;stroke-dasharray:0.8,1.32;stroke-dashoffset:0;stroke-width:0.8;"/>
     </g>
     <g id="line2d_62">
      <g>
       <use style="stroke:#000000;stroke-width:0.8;" x="117" xlink:href="#m81af130c70" y="440.20076"/>
      </g>
     </g>
     <g id="text_7">
      <!-- 1.2 -->
      <g transform="translate(94.096875 443.999979)scale(0.1 -0.1)">
       <use xlink:href="#DejaVuSans-49"/>
       <use x="63.623047" xlink:href="#DejaVuSans-46"/>
       <use x="95.410156" xlink:href="#DejaVuSans-50"/>
      </g>
     </g>
    </g>
    <g id="ytick_3">
     <g id="line2d_63">
      <path clip-path="url(#p3abc18e870)" d="M 117 382.586904 
L 842.4 382.586904 
" style="fill:none;stroke:#d8dcd6;stroke-dasharray:0.8,1.32;stroke-dashoffset:0;stroke-width:0.8;"/>
     </g>
     <g id="line2d_64">
      <g>
       <use style="stroke:#000000;stroke-width:0.8;" x="117" xlink:href="#m81af130c70" y="382.586904"/>
      </g>
     </g>
     <g id="text_8">
      <!-- 1.4 -->
      <defs>
       <path d="M 37.796875 64.3125 
L 12.890625 25.390625 
L 37.796875 25.390625 
z
M 35.203125 72.90625 
L 47.609375 72.90625 
L 47.609375 25.390625 
L 58.015625 25.390625 
L 58.015625 17.1875 
L 47.609375 17.1875 
L 47.609375 0 
L 37.796875 0 
L 37.796875 17.1875 
L 4.890625 17.1875 
L 4.890625 26.703125 
z
" id="DejaVuSans-52"/>
      </defs>
      <g transform="translate(94.096875 386.386123)scale(0.1 -0.1)">
       <use xlink:href="#DejaVuSans-49"/>
       <use x="63.623047" xlink:href="#DejaVuSans-46"/>
       <use x="95.410156" xlink:href="#DejaVuSans-52"/>
      </g>
     </g>
    </g>
    <g id="ytick_4">
     <g id="line2d_65">
      <path clip-path="url(#p3abc18e870)" d="M 117 324.973048 
L 842.4 324.973048 
" style="fill:none;stroke:#d8dcd6;stroke-dasharray:0.8,1.32;stroke-dashoffset:0;stroke-width:0.8;"/>
     </g>
     <g id="line2d_66">
      <g>
       <use style="stroke:#000000;stroke-width:0.8;" x="117" xlink:href="#m81af130c70" y="324.973048"/>
      </g>
     </g>
     <g id="text_9">
      <!-- 1.6 -->
      <defs>
       <path d="M 33.015625 40.375 
Q 26.375 40.375 22.484375 35.828125 
Q 18.609375 31.296875 18.609375 23.390625 
Q 18.609375 15.53125 22.484375 10.953125 
Q 26.375 6.390625 33.015625 6.390625 
Q 39.65625 6.390625 43.53125 10.953125 
Q 47.40625 15.53125 47.40625 23.390625 
Q 47.40625 31.296875 43.53125 35.828125 
Q 39.65625 40.375 33.015625 40.375 
z
M 52.59375 71.296875 
L 52.59375 62.3125 
Q 48.875 64.0625 45.09375 64.984375 
Q 41.3125 65.921875 37.59375 65.921875 
Q 27.828125 65.921875 22.671875 59.328125 
Q 17.53125 52.734375 16.796875 39.40625 
Q 19.671875 43.65625 24.015625 45.921875 
Q 28.375 48.1875 33.59375 48.1875 
Q 44.578125 48.1875 50.953125 41.515625 
Q 57.328125 34.859375 57.328125 23.390625 
Q 57.328125 12.15625 50.6875 5.359375 
Q 44.046875 -1.421875 33.015625 -1.421875 
Q 20.359375 -1.421875 13.671875 8.265625 
Q 6.984375 17.96875 6.984375 36.375 
Q 6.984375 53.65625 15.1875 63.9375 
Q 23.390625 74.21875 37.203125 74.21875 
Q 40.921875 74.21875 44.703125 73.484375 
Q 48.484375 72.75 52.59375 71.296875 
z
" id="DejaVuSans-54"/>
      </defs>
      <g transform="translate(94.096875 328.772267)scale(0.1 -0.1)">
       <use xlink:href="#DejaVuSans-49"/>
       <use x="63.623047" xlink:href="#DejaVuSans-46"/>
       <use x="95.410156" xlink:href="#DejaVuSans-54"/>
      </g>
     </g>
    </g>
    <g id="ytick_5">
     <g id="line2d_67">
      <path clip-path="url(#p3abc18e870)" d="M 117 267.359192 
L 842.4 267.359192 
" style="fill:none;stroke:#d8dcd6;stroke-dasharray:0.8,1.32;stroke-dashoffset:0;stroke-width:0.8;"/>
     </g>
     <g id="line2d_68">
      <g>
       <use style="stroke:#000000;stroke-width:0.8;" x="117" xlink:href="#m81af130c70" y="267.359192"/>
      </g>
     </g>
     <g id="text_10">
      <!-- 1.8 -->
      <defs>
       <path d="M 31.78125 34.625 
Q 24.75 34.625 20.71875 30.859375 
Q 16.703125 27.09375 16.703125 20.515625 
Q 16.703125 13.921875 20.71875 10.15625 
Q 24.75 6.390625 31.78125 6.390625 
Q 38.8125 6.390625 42.859375 10.171875 
Q 46.921875 13.96875 46.921875 20.515625 
Q 46.921875 27.09375 42.890625 30.859375 
Q 38.875 34.625 31.78125 34.625 
z
M 21.921875 38.8125 
Q 15.578125 40.375 12.03125 44.71875 
Q 8.5 49.078125 8.5 55.328125 
Q 8.5 64.0625 14.71875 69.140625 
Q 20.953125 74.21875 31.78125 74.21875 
Q 42.671875 74.21875 48.875 69.140625 
Q 55.078125 64.0625 55.078125 55.328125 
Q 55.078125 49.078125 51.53125 44.71875 
Q 48 40.375 41.703125 38.8125 
Q 48.828125 37.15625 52.796875 32.3125 
Q 56.78125 27.484375 56.78125 20.515625 
Q 56.78125 9.90625 50.3125 4.234375 
Q 43.84375 -1.421875 31.78125 -1.421875 
Q 19.734375 -1.421875 13.25 4.234375 
Q 6.78125 9.90625 6.78125 20.515625 
Q 6.78125 27.484375 10.78125 32.3125 
Q 14.796875 37.15625 21.921875 38.8125 
z
M 18.3125 54.390625 
Q 18.3125 48.734375 21.84375 45.5625 
Q 25.390625 42.390625 31.78125 42.390625 
Q 38.140625 42.390625 41.71875 45.5625 
Q 45.3125 48.734375 45.3125 54.390625 
Q 45.3125 60.0625 41.71875 63.234375 
Q 38.140625 66.40625 31.78125 66.40625 
Q 25.390625 66.40625 21.84375 63.234375 
Q 18.3125 60.0625 18.3125 54.390625 
z
" id="DejaVuSans-56"/>
      </defs>
      <g transform="translate(94.096875 271.15841)scale(0.1 -0.1)">
       <use xlink:href="#DejaVuSans-49"/>
       <use x="63.623047" xlink:href="#DejaVuSans-46"/>
       <use x="95.410156" xlink:href="#DejaVuSans-56"/>
      </g>
     </g>
    </g>
    <g id="ytick_6">
     <g id="line2d_69">
      <path clip-path="url(#p3abc18e870)" d="M 117 209.745336 
L 842.4 209.745336 
" style="fill:none;stroke:#d8dcd6;stroke-dasharray:0.8,1.32;stroke-dashoffset:0;stroke-width:0.8;"/>
     </g>
     <g id="line2d_70">
      <g>
       <use style="stroke:#000000;stroke-width:0.8;" x="117" xlink:href="#m81af130c70" y="209.745336"/>
      </g>
     </g>
     <g id="text_11">
      <!-- 2.0 -->
      <g transform="translate(94.096875 213.544554)scale(0.1 -0.1)">
       <use xlink:href="#DejaVuSans-50"/>
       <use x="63.623047" xlink:href="#DejaVuSans-46"/>
       <use x="95.410156" xlink:href="#DejaVuSans-48"/>
      </g>
     </g>
    </g>
    <g id="ytick_7">
     <g id="line2d_71">
      <path clip-path="url(#p3abc18e870)" d="M 117 152.131479 
L 842.4 152.131479 
" style="fill:none;stroke:#d8dcd6;stroke-dasharray:0.8,1.32;stroke-dashoffset:0;stroke-width:0.8;"/>
     </g>
     <g id="line2d_72">
      <g>
       <use style="stroke:#000000;stroke-width:0.8;" x="117" xlink:href="#m81af130c70" y="152.131479"/>
      </g>
     </g>
     <g id="text_12">
      <!-- 2.2 -->
      <g transform="translate(94.096875 155.930698)scale(0.1 -0.1)">
       <use xlink:href="#DejaVuSans-50"/>
       <use x="63.623047" xlink:href="#DejaVuSans-46"/>
       <use x="95.410156" xlink:href="#DejaVuSans-50"/>
      </g>
     </g>
    </g>
    <g id="ytick_8">
     <g id="line2d_73">
      <path clip-path="url(#p3abc18e870)" d="M 117 94.517623 
L 842.4 94.517623 
" style="fill:none;stroke:#d8dcd6;stroke-dasharray:0.8,1.32;stroke-dashoffset:0;stroke-width:0.8;"/>
     </g>
     <g id="line2d_74">
      <g>
       <use style="stroke:#000000;stroke-width:0.8;" x="117" xlink:href="#m81af130c70" y="94.517623"/>
      </g>
     </g>
     <g id="text_13">
      <!-- 2.4 -->
      <g transform="translate(94.096875 98.316842)scale(0.1 -0.1)">
       <use xlink:href="#DejaVuSans-50"/>
       <use x="63.623047" xlink:href="#DejaVuSans-46"/>
       <use x="95.410156" xlink:href="#DejaVuSans-52"/>
      </g>
     </g>
    </g>
    <g id="ytick_9">
     <g id="line2d_75">
      <path clip-path="url(#p3abc18e870)" d="M 117 512.21808 
L 842.4 512.21808 
" style="fill:none;stroke:#d8dcd6;stroke-dasharray:0.8,1.32;stroke-dashoffset:0;stroke-width:0.8;"/>
     </g>
     <g id="line2d_76">
      <defs>
       <path d="M 0 0 
L -2 0 
" id="m52119cce7b" style="stroke:#000000;stroke-width:0.6;"/>
      </defs>
      <g>
       <use style="stroke:#000000;stroke-width:0.6;" x="117" xlink:href="#m52119cce7b" y="512.21808"/>
      </g>
     </g>
    </g>
    <g id="ytick_10">
     <g id="line2d_77">
      <path clip-path="url(#p3abc18e870)" d="M 117 483.411152 
L 842.4 483.411152 
" style="fill:none;stroke:#d8dcd6;stroke-dasharray:0.8,1.32;stroke-dashoffset:0;stroke-width:0.8;"/>
     </g>
     <g id="line2d_78">
      <g>
       <use style="stroke:#000000;stroke-width:0.6;" x="117" xlink:href="#m52119cce7b" y="483.411152"/>
      </g>
     </g>
    </g>
    <g id="ytick_11">
     <g id="line2d_79">
      <path clip-path="url(#p3abc18e870)" d="M 117 469.007688 
L 842.4 469.007688 
" style="fill:none;stroke:#d8dcd6;stroke-dasharray:0.8,1.32;stroke-dashoffset:0;stroke-width:0.8;"/>
     </g>
     <g id="line2d_80">
      <g>
       <use style="stroke:#000000;stroke-width:0.6;" x="117" xlink:href="#m52119cce7b" y="469.007688"/>
      </g>
     </g>
    </g>
    <g id="ytick_12">
     <g id="line2d_81">
      <path clip-path="url(#p3abc18e870)" d="M 117 454.604224 
L 842.4 454.604224 
" style="fill:none;stroke:#d8dcd6;stroke-dasharray:0.8,1.32;stroke-dashoffset:0;stroke-width:0.8;"/>
     </g>
     <g id="line2d_82">
      <g>
       <use style="stroke:#000000;stroke-width:0.6;" x="117" xlink:href="#m52119cce7b" y="454.604224"/>
      </g>
     </g>
    </g>
    <g id="ytick_13">
     <g id="line2d_83">
      <path clip-path="url(#p3abc18e870)" d="M 117 425.797296 
L 842.4 425.797296 
" style="fill:none;stroke:#d8dcd6;stroke-dasharray:0.8,1.32;stroke-dashoffset:0;stroke-width:0.8;"/>
     </g>
     <g id="line2d_84">
      <g>
       <use style="stroke:#000000;stroke-width:0.6;" x="117" xlink:href="#m52119cce7b" y="425.797296"/>
      </g>
     </g>
    </g>
    <g id="ytick_14">
     <g id="line2d_85">
      <path clip-path="url(#p3abc18e870)" d="M 117 411.393832 
L 842.4 411.393832 
" style="fill:none;stroke:#d8dcd6;stroke-dasharray:0.8,1.32;stroke-dashoffset:0;stroke-width:0.8;"/>
     </g>
     <g id="line2d_86">
      <g>
       <use style="stroke:#000000;stroke-width:0.6;" x="117" xlink:href="#m52119cce7b" y="411.393832"/>
      </g>
     </g>
    </g>
    <g id="ytick_15">
     <g id="line2d_87">
      <path clip-path="url(#p3abc18e870)" d="M 117 396.990368 
L 842.4 396.990368 
" style="fill:none;stroke:#d8dcd6;stroke-dasharray:0.8,1.32;stroke-dashoffset:0;stroke-width:0.8;"/>
     </g>
     <g id="line2d_88">
      <g>
       <use style="stroke:#000000;stroke-width:0.6;" x="117" xlink:href="#m52119cce7b" y="396.990368"/>
      </g>
     </g>
    </g>
    <g id="ytick_16">
     <g id="line2d_89">
      <path clip-path="url(#p3abc18e870)" d="M 117 368.18344 
L 842.4 368.18344 
" style="fill:none;stroke:#d8dcd6;stroke-dasharray:0.8,1.32;stroke-dashoffset:0;stroke-width:0.8;"/>
     </g>
     <g id="line2d_90">
      <g>
       <use style="stroke:#000000;stroke-width:0.6;" x="117" xlink:href="#m52119cce7b" y="368.18344"/>
      </g>
     </g>
    </g>
    <g id="ytick_17">
     <g id="line2d_91">
      <path clip-path="url(#p3abc18e870)" d="M 117 353.779976 
L 842.4 353.779976 
" style="fill:none;stroke:#d8dcd6;stroke-dasharray:0.8,1.32;stroke-dashoffset:0;stroke-width:0.8;"/>
     </g>
     <g id="line2d_92">
      <g>
       <use style="stroke:#000000;stroke-width:0.6;" x="117" xlink:href="#m52119cce7b" y="353.779976"/>
      </g>
     </g>
    </g>
    <g id="ytick_18">
     <g id="line2d_93">
      <path clip-path="url(#p3abc18e870)" d="M 117 339.376512 
L 842.4 339.376512 
" style="fill:none;stroke:#d8dcd6;stroke-dasharray:0.8,1.32;stroke-dashoffset:0;stroke-width:0.8;"/>
     </g>
     <g id="line2d_94">
      <g>
       <use style="stroke:#000000;stroke-width:0.6;" x="117" xlink:href="#m52119cce7b" y="339.376512"/>
      </g>
     </g>
    </g>
    <g id="ytick_19">
     <g id="line2d_95">
      <path clip-path="url(#p3abc18e870)" d="M 117 310.569584 
L 842.4 310.569584 
" style="fill:none;stroke:#d8dcd6;stroke-dasharray:0.8,1.32;stroke-dashoffset:0;stroke-width:0.8;"/>
     </g>
     <g id="line2d_96">
      <g>
       <use style="stroke:#000000;stroke-width:0.6;" x="117" xlink:href="#m52119cce7b" y="310.569584"/>
      </g>
     </g>
    </g>
    <g id="ytick_20">
     <g id="line2d_97">
      <path clip-path="url(#p3abc18e870)" d="M 117 296.16612 
L 842.4 296.16612 
" style="fill:none;stroke:#d8dcd6;stroke-dasharray:0.8,1.32;stroke-dashoffset:0;stroke-width:0.8;"/>
     </g>
     <g id="line2d_98">
      <g>
       <use style="stroke:#000000;stroke-width:0.6;" x="117" xlink:href="#m52119cce7b" y="296.16612"/>
      </g>
     </g>
    </g>
    <g id="ytick_21">
     <g id="line2d_99">
      <path clip-path="url(#p3abc18e870)" d="M 117 281.762656 
L 842.4 281.762656 
" style="fill:none;stroke:#d8dcd6;stroke-dasharray:0.8,1.32;stroke-dashoffset:0;stroke-width:0.8;"/>
     </g>
     <g id="line2d_100">
      <g>
       <use style="stroke:#000000;stroke-width:0.6;" x="117" xlink:href="#m52119cce7b" y="281.762656"/>
      </g>
     </g>
    </g>
    <g id="ytick_22">
     <g id="line2d_101">
      <path clip-path="url(#p3abc18e870)" d="M 117 252.955728 
L 842.4 252.955728 
" style="fill:none;stroke:#d8dcd6;stroke-dasharray:0.8,1.32;stroke-dashoffset:0;stroke-width:0.8;"/>
     </g>
     <g id="line2d_102">
      <g>
       <use style="stroke:#000000;stroke-width:0.6;" x="117" xlink:href="#m52119cce7b" y="252.955728"/>
      </g>
     </g>
    </g>
    <g id="ytick_23">
     <g id="line2d_103">
      <path clip-path="url(#p3abc18e870)" d="M 117 238.552264 
L 842.4 238.552264 
" style="fill:none;stroke:#d8dcd6;stroke-dasharray:0.8,1.32;stroke-dashoffset:0;stroke-width:0.8;"/>
     </g>
     <g id="line2d_104">
      <g>
       <use style="stroke:#000000;stroke-width:0.6;" x="117" xlink:href="#m52119cce7b" y="238.552264"/>
      </g>
     </g>
    </g>
    <g id="ytick_24">
     <g id="line2d_105">
      <path clip-path="url(#p3abc18e870)" d="M 117 224.1488 
L 842.4 224.1488 
" style="fill:none;stroke:#d8dcd6;stroke-dasharray:0.8,1.32;stroke-dashoffset:0;stroke-width:0.8;"/>
     </g>
     <g id="line2d_106">
      <g>
       <use style="stroke:#000000;stroke-width:0.6;" x="117" xlink:href="#m52119cce7b" y="224.1488"/>
      </g>
     </g>
    </g>
    <g id="ytick_25">
     <g id="line2d_107">
      <path clip-path="url(#p3abc18e870)" d="M 117 195.341872 
L 842.4 195.341872 
" style="fill:none;stroke:#d8dcd6;stroke-dasharray:0.8,1.32;stroke-dashoffset:0;stroke-width:0.8;"/>
     </g>
     <g id="line2d_108">
      <g>
       <use style="stroke:#000000;stroke-width:0.6;" x="117" xlink:href="#m52119cce7b" y="195.341872"/>
      </g>
     </g>
    </g>
    <g id="ytick_26">
     <g id="line2d_109">
      <path clip-path="url(#p3abc18e870)" d="M 117 180.938408 
L 842.4 180.938408 
" style="fill:none;stroke:#d8dcd6;stroke-dasharray:0.8,1.32;stroke-dashoffset:0;stroke-width:0.8;"/>
     </g>
     <g id="line2d_110">
      <g>
       <use style="stroke:#000000;stroke-width:0.6;" x="117" xlink:href="#m52119cce7b" y="180.938408"/>
      </g>
     </g>
    </g>
    <g id="ytick_27">
     <g id="line2d_111">
      <path clip-path="url(#p3abc18e870)" d="M 117 166.534943 
L 842.4 166.534943 
" style="fill:none;stroke:#d8dcd6;stroke-dasharray:0.8,1.32;stroke-dashoffset:0;stroke-width:0.8;"/>
     </g>
     <g id="line2d_112">
      <g>
       <use style="stroke:#000000;stroke-width:0.6;" x="117" xlink:href="#m52119cce7b" y="166.534943"/>
      </g>
     </g>
    </g>
    <g id="ytick_28">
     <g id="line2d_113">
      <path clip-path="url(#p3abc18e870)" d="M 117 137.728015 
L 842.4 137.728015 
" style="fill:none;stroke:#d8dcd6;stroke-dasharray:0.8,1.32;stroke-dashoffset:0;stroke-width:0.8;"/>
     </g>
     <g id="line2d_114">
      <g>
       <use style="stroke:#000000;stroke-width:0.6;" x="117" xlink:href="#m52119cce7b" y="137.728015"/>
      </g>
     </g>
    </g>
    <g id="ytick_29">
     <g id="line2d_115">
      <path clip-path="url(#p3abc18e870)" d="M 117 123.324551 
L 842.4 123.324551 
" style="fill:none;stroke:#d8dcd6;stroke-dasharray:0.8,1.32;stroke-dashoffset:0;stroke-width:0.8;"/>
     </g>
     <g id="line2d_116">
      <g>
       <use style="stroke:#000000;stroke-width:0.6;" x="117" xlink:href="#m52119cce7b" y="123.324551"/>
      </g>
     </g>
    </g>
    <g id="ytick_30">
     <g id="line2d_117">
      <path clip-path="url(#p3abc18e870)" d="M 117 108.921087 
L 842.4 108.921087 
" style="fill:none;stroke:#d8dcd6;stroke-dasharray:0.8,1.32;stroke-dashoffset:0;stroke-width:0.8;"/>
     </g>
     <g id="line2d_118">
      <g>
       <use style="stroke:#000000;stroke-width:0.6;" x="117" xlink:href="#m52119cce7b" y="108.921087"/>
      </g>
     </g>
    </g>
    <g id="ytick_31">
     <g id="line2d_119">
      <path clip-path="url(#p3abc18e870)" d="M 117 80.114159 
L 842.4 80.114159 
" style="fill:none;stroke:#d8dcd6;stroke-dasharray:0.8,1.32;stroke-dashoffset:0;stroke-width:0.8;"/>
     </g>
     <g id="line2d_120">
      <g>
       <use style="stroke:#000000;stroke-width:0.6;" x="117" xlink:href="#m52119cce7b" y="80.114159"/>
      </g>
     </g>
    </g>
    <g id="text_14">
     <!-- (avg) growth factor -->
     <defs>
      <path d="M 31 75.875 
Q 24.46875 64.65625 21.28125 53.65625 
Q 18.109375 42.671875 18.109375 31.390625 
Q 18.109375 20.125 21.3125 9.0625 
Q 24.515625 -2 31 -13.1875 
L 23.1875 -13.1875 
Q 15.875 -1.703125 12.234375 9.375 
Q 8.59375 20.453125 8.59375 31.390625 
Q 8.59375 42.28125 12.203125 53.3125 
Q 15.828125 64.359375 23.1875 75.875 
z
" id="DejaVuSans-40"/>
      <path d="M 34.28125 27.484375 
Q 23.390625 27.484375 19.1875 25 
Q 14.984375 22.515625 14.984375 16.5 
Q 14.984375 11.71875 18.140625 8.90625 
Q 21.296875 6.109375 26.703125 6.109375 
Q 34.1875 6.109375 38.703125 11.40625 
Q 43.21875 16.703125 43.21875 25.484375 
L 43.21875 27.484375 
z
M 52.203125 31.203125 
L 52.203125 0 
L 43.21875 0 
L 43.21875 8.296875 
Q 40.140625 3.328125 35.546875 0.953125 
Q 30.953125 -1.421875 24.3125 -1.421875 
Q 15.921875 -1.421875 10.953125 3.296875 
Q 6 8.015625 6 15.921875 
Q 6 25.140625 12.171875 29.828125 
Q 18.359375 34.515625 30.609375 34.515625 
L 43.21875 34.515625 
L 43.21875 35.40625 
Q 43.21875 41.609375 39.140625 45 
Q 35.0625 48.390625 27.6875 48.390625 
Q 23 48.390625 18.546875 47.265625 
Q 14.109375 46.140625 10.015625 43.890625 
L 10.015625 52.203125 
Q 14.9375 54.109375 19.578125 55.046875 
Q 24.21875 56 28.609375 56 
Q 40.484375 56 46.34375 49.84375 
Q 52.203125 43.703125 52.203125 31.203125 
z
" id="DejaVuSans-97"/>
      <path d="M 2.984375 54.6875 
L 12.5 54.6875 
L 29.59375 8.796875 
L 46.6875 54.6875 
L 56.203125 54.6875 
L 35.6875 0 
L 23.484375 0 
z
" id="DejaVuSans-118"/>
      <path d="M 45.40625 27.984375 
Q 45.40625 37.75 41.375 43.109375 
Q 37.359375 48.484375 30.078125 48.484375 
Q 22.859375 48.484375 18.828125 43.109375 
Q 14.796875 37.75 14.796875 27.984375 
Q 14.796875 18.265625 18.828125 12.890625 
Q 22.859375 7.515625 30.078125 7.515625 
Q 37.359375 7.515625 41.375 12.890625 
Q 45.40625 18.265625 45.40625 27.984375 
z
M 54.390625 6.78125 
Q 54.390625 -7.171875 48.1875 -13.984375 
Q 42 -20.796875 29.203125 -20.796875 
Q 24.46875 -20.796875 20.265625 -20.09375 
Q 16.0625 -19.390625 12.109375 -17.921875 
L 12.109375 -9.1875 
Q 16.0625 -11.328125 19.921875 -12.34375 
Q 23.78125 -13.375 27.78125 -13.375 
Q 36.625 -13.375 41.015625 -8.765625 
Q 45.40625 -4.15625 45.40625 5.171875 
L 45.40625 9.625 
Q 42.625 4.78125 38.28125 2.390625 
Q 33.9375 0 27.875 0 
Q 17.828125 0 11.671875 7.65625 
Q 5.515625 15.328125 5.515625 27.984375 
Q 5.515625 40.671875 11.671875 48.328125 
Q 17.828125 56 27.875 56 
Q 33.9375 56 38.28125 53.609375 
Q 42.625 51.21875 45.40625 46.390625 
L 45.40625 54.6875 
L 54.390625 54.6875 
z
" id="DejaVuSans-103"/>
      <path d="M 8.015625 75.875 
L 15.828125 75.875 
Q 23.140625 64.359375 26.78125 53.3125 
Q 30.421875 42.28125 30.421875 31.390625 
Q 30.421875 20.453125 26.78125 9.375 
Q 23.140625 -1.703125 15.828125 -13.1875 
L 8.015625 -13.1875 
Q 14.5 -2 17.703125 9.0625 
Q 20.90625 20.125 20.90625 31.390625 
Q 20.90625 42.671875 17.703125 53.65625 
Q 14.5 64.65625 8.015625 75.875 
z
" id="DejaVuSans-41"/>
      <path id="DejaVuSans-32"/>
      <path d="M 41.109375 46.296875 
Q 39.59375 47.171875 37.8125 47.578125 
Q 36.03125 48 33.890625 48 
Q 26.265625 48 22.1875 43.046875 
Q 18.109375 38.09375 18.109375 28.8125 
L 18.109375 0 
L 9.078125 0 
L 9.078125 54.6875 
L 18.109375 54.6875 
L 18.109375 46.1875 
Q 20.953125 51.171875 25.484375 53.578125 
Q 30.03125 56 36.53125 56 
Q 37.453125 56 38.578125 55.875 
Q 39.703125 55.765625 41.0625 55.515625 
z
" id="DejaVuSans-114"/>
      <path d="M 30.609375 48.390625 
Q 23.390625 48.390625 19.1875 42.75 
Q 14.984375 37.109375 14.984375 27.296875 
Q 14.984375 17.484375 19.15625 11.84375 
Q 23.34375 6.203125 30.609375 6.203125 
Q 37.796875 6.203125 41.984375 11.859375 
Q 46.1875 17.53125 46.1875 27.296875 
Q 46.1875 37.015625 41.984375 42.703125 
Q 37.796875 48.390625 30.609375 48.390625 
z
M 30.609375 56 
Q 42.328125 56 49.015625 48.375 
Q 55.71875 40.765625 55.71875 27.296875 
Q 55.71875 13.875 49.015625 6.21875 
Q 42.328125 -1.421875 30.609375 -1.421875 
Q 18.84375 -1.421875 12.171875 6.21875 
Q 5.515625 13.875 5.515625 27.296875 
Q 5.515625 40.765625 12.171875 48.375 
Q 18.84375 56 30.609375 56 
z
" id="DejaVuSans-111"/>
      <path d="M 4.203125 54.6875 
L 13.1875 54.6875 
L 24.421875 12.015625 
L 35.59375 54.6875 
L 46.1875 54.6875 
L 57.421875 12.015625 
L 68.609375 54.6875 
L 77.59375 54.6875 
L 63.28125 0 
L 52.6875 0 
L 40.921875 44.828125 
L 29.109375 0 
L 18.5 0 
z
" id="DejaVuSans-119"/>
      <path d="M 18.3125 70.21875 
L 18.3125 54.6875 
L 36.8125 54.6875 
L 36.8125 47.703125 
L 18.3125 47.703125 
L 18.3125 18.015625 
Q 18.3125 11.328125 20.140625 9.421875 
Q 21.96875 7.515625 27.59375 7.515625 
L 36.8125 7.515625 
L 36.8125 0 
L 27.59375 0 
Q 17.1875 0 13.234375 3.875 
Q 9.28125 7.765625 9.28125 18.015625 
L 9.28125 47.703125 
L 2.6875 47.703125 
L 2.6875 54.6875 
L 9.28125 54.6875 
L 9.28125 70.21875 
z
" id="DejaVuSans-116"/>
      <path d="M 54.890625 33.015625 
L 54.890625 0 
L 45.90625 0 
L 45.90625 32.71875 
Q 45.90625 40.484375 42.875 44.328125 
Q 39.84375 48.1875 33.796875 48.1875 
Q 26.515625 48.1875 22.3125 43.546875 
Q 18.109375 38.921875 18.109375 30.90625 
L 18.109375 0 
L 9.078125 0 
L 9.078125 75.984375 
L 18.109375 75.984375 
L 18.109375 46.1875 
Q 21.34375 51.125 25.703125 53.5625 
Q 30.078125 56 35.796875 56 
Q 45.21875 56 50.046875 50.171875 
Q 54.890625 44.34375 54.890625 33.015625 
z
" id="DejaVuSans-104"/>
      <path d="M 37.109375 75.984375 
L 37.109375 68.5 
L 28.515625 68.5 
Q 23.6875 68.5 21.796875 66.546875 
Q 19.921875 64.59375 19.921875 59.515625 
L 19.921875 54.6875 
L 34.71875 54.6875 
L 34.71875 47.703125 
L 19.921875 47.703125 
L 19.921875 0 
L 10.890625 0 
L 10.890625 47.703125 
L 2.296875 47.703125 
L 2.296875 54.6875 
L 10.890625 54.6875 
L 10.890625 58.5 
Q 10.890625 67.625 15.140625 71.796875 
Q 19.390625 75.984375 28.609375 75.984375 
z
" id="DejaVuSans-102"/>
      <path d="M 48.78125 52.59375 
L 48.78125 44.1875 
Q 44.96875 46.296875 41.140625 47.34375 
Q 37.3125 48.390625 33.40625 48.390625 
Q 24.65625 48.390625 19.8125 42.84375 
Q 14.984375 37.3125 14.984375 27.296875 
Q 14.984375 17.28125 19.8125 11.734375 
Q 24.65625 6.203125 33.40625 6.203125 
Q 37.3125 6.203125 41.140625 7.25 
Q 44.96875 8.296875 48.78125 10.40625 
L 48.78125 2.09375 
Q 45.015625 0.34375 40.984375 -0.53125 
Q 36.96875 -1.421875 32.421875 -1.421875 
Q 20.0625 -1.421875 12.78125 6.34375 
Q 5.515625 14.109375 5.515625 27.296875 
Q 5.515625 40.671875 12.859375 48.328125 
Q 20.21875 56 33.015625 56 
Q 37.15625 56 41.109375 55.140625 
Q 45.0625 54.296875 48.78125 52.59375 
z
" id="DejaVuSans-99"/>
     </defs>
     <g transform="translate(88.017187 339.200312)rotate(-90)scale(0.1 -0.1)">
      <use xlink:href="#DejaVuSans-40"/>
      <use x="39.013672" xlink:href="#DejaVuSans-97"/>
      <use x="100.292969" xlink:href="#DejaVuSans-118"/>
      <use x="159.472656" xlink:href="#DejaVuSans-103"/>
      <use x="222.949219" xlink:href="#DejaVuSans-41"/>
      <use x="261.962891" xlink:href="#DejaVuSans-32"/>
      <use x="293.75" xlink:href="#DejaVuSans-103"/>
      <use x="357.226562" xlink:href="#DejaVuSans-114"/>
      <use x="396.089844" xlink:href="#DejaVuSans-111"/>
      <use x="457.271484" xlink:href="#DejaVuSans-119"/>
      <use x="539.058594" xlink:href="#DejaVuSans-116"/>
      <use x="578.267578" xlink:href="#DejaVuSans-104"/>
      <use x="641.646484" xlink:href="#DejaVuSans-32"/>
      <use x="673.433594" xlink:href="#DejaVuSans-102"/>
      <use x="708.638672" xlink:href="#DejaVuSans-97"/>
      <use x="769.917969" xlink:href="#DejaVuSans-99"/>
      <use x="824.898438" xlink:href="#DejaVuSans-116"/>
      <use x="864.107422" xlink:href="#DejaVuSans-111"/>
      <use x="925.289062" xlink:href="#DejaVuSans-114"/>
     </g>
    </g>
   </g>
   <g id="line2d_121">
    <path clip-path="url(#p3abc18e870)" d="M 149.972727 209.745336 
L 175.336364 353.779976 
L 200.7 305.768429 
L 226.063636 209.745336 
L 251.427273 296.16612 
L 276.790909 311.416846 
L 302.154545 425.797296 
L 327.518182 341.43415 
L 352.881818 492.48 
L 378.245455 89.28 
L 403.609091 363.526681 
L 428.972727 358.95045 
L 454.336364 444.985302 
L 479.7 336.933819 
L 505.063636 449.172524 
L 530.427273 402.099783 
L 555.790909 423.888403 
L 581.154545 406.118546 
L 606.518182 417.993237 
L 631.881818 406.767663 
L 657.245455 435.862893 
L 682.609091 411.742634 
L 707.972727 441.101224 
L 733.336364 446.800285 
L 758.7 450.494555 
L 784.063636 458.278528 
L 809.427273 459.154135 
" style="fill:none;stroke:#1f77b4;stroke-linecap:square;stroke-width:1.5;"/>
    <defs>
     <path d="M 0 3 
C 0.795609 3 1.55874 2.683901 2.12132 2.12132 
C 2.683901 1.55874 3 0.795609 3 0 
C 3 -0.795609 2.683901 -1.55874 2.12132 -2.12132 
C 1.55874 -2.683901 0.795609 -3 0 -3 
C -0.795609 -3 -1.55874 -2.683901 -2.12132 -2.12132 
C -2.683901 -1.55874 -3 -0.795609 -3 0 
C -3 0.795609 -2.683901 1.55874 -2.12132 2.12132 
C -1.55874 2.683901 -0.795609 3 0 3 
z
" id="mbf2dcfe148" style="stroke:#1f77b4;"/>
    </defs>
    <g clip-path="url(#p3abc18e870)">
     <use style="fill:#1f77b4;stroke:#1f77b4;" x="149.972727" xlink:href="#mbf2dcfe148" y="209.745336"/>
     <use style="fill:#1f77b4;stroke:#1f77b4;" x="175.336364" xlink:href="#mbf2dcfe148" y="353.779976"/>
     <use style="fill:#1f77b4;stroke:#1f77b4;" x="200.7" xlink:href="#mbf2dcfe148" y="305.768429"/>
     <use style="fill:#1f77b4;stroke:#1f77b4;" x="226.063636" xlink:href="#mbf2dcfe148" y="209.745336"/>
     <use style="fill:#1f77b4;stroke:#1f77b4;" x="251.427273" xlink:href="#mbf2dcfe148" y="296.16612"/>
     <use style="fill:#1f77b4;stroke:#1f77b4;" x="276.790909" xlink:href="#mbf2dcfe148" y="311.416846"/>
     <use style="fill:#1f77b4;stroke:#1f77b4;" x="302.154545" xlink:href="#mbf2dcfe148" y="425.797296"/>
     <use style="fill:#1f77b4;stroke:#1f77b4;" x="327.518182" xlink:href="#mbf2dcfe148" y="341.43415"/>
     <use style="fill:#1f77b4;stroke:#1f77b4;" x="352.881818" xlink:href="#mbf2dcfe148" y="492.48"/>
     <use style="fill:#1f77b4;stroke:#1f77b4;" x="378.245455" xlink:href="#mbf2dcfe148" y="89.28"/>
     <use style="fill:#1f77b4;stroke:#1f77b4;" x="403.609091" xlink:href="#mbf2dcfe148" y="363.526681"/>
     <use style="fill:#1f77b4;stroke:#1f77b4;" x="428.972727" xlink:href="#mbf2dcfe148" y="358.95045"/>
     <use style="fill:#1f77b4;stroke:#1f77b4;" x="454.336364" xlink:href="#mbf2dcfe148" y="444.985302"/>
     <use style="fill:#1f77b4;stroke:#1f77b4;" x="479.7" xlink:href="#mbf2dcfe148" y="336.933819"/>
     <use style="fill:#1f77b4;stroke:#1f77b4;" x="505.063636" xlink:href="#mbf2dcfe148" y="449.172524"/>
     <use style="fill:#1f77b4;stroke:#1f77b4;" x="530.427273" xlink:href="#mbf2dcfe148" y="402.099783"/>
     <use style="fill:#1f77b4;stroke:#1f77b4;" x="555.790909" xlink:href="#mbf2dcfe148" y="423.888403"/>
     <use style="fill:#1f77b4;stroke:#1f77b4;" x="581.154545" xlink:href="#mbf2dcfe148" y="406.118546"/>
     <use style="fill:#1f77b4;stroke:#1f77b4;" x="606.518182" xlink:href="#mbf2dcfe148" y="417.993237"/>
     <use style="fill:#1f77b4;stroke:#1f77b4;" x="631.881818" xlink:href="#mbf2dcfe148" y="406.767663"/>
     <use style="fill:#1f77b4;stroke:#1f77b4;" x="657.245455" xlink:href="#mbf2dcfe148" y="435.862893"/>
     <use style="fill:#1f77b4;stroke:#1f77b4;" x="682.609091" xlink:href="#mbf2dcfe148" y="411.742634"/>
     <use style="fill:#1f77b4;stroke:#1f77b4;" x="707.972727" xlink:href="#mbf2dcfe148" y="441.101224"/>
     <use style="fill:#1f77b4;stroke:#1f77b4;" x="733.336364" xlink:href="#mbf2dcfe148" y="446.800285"/>
     <use style="fill:#1f77b4;stroke:#1f77b4;" x="758.7" xlink:href="#mbf2dcfe148" y="450.494555"/>
     <use style="fill:#1f77b4;stroke:#1f77b4;" x="784.063636" xlink:href="#mbf2dcfe148" y="458.278528"/>
     <use style="fill:#1f77b4;stroke:#1f77b4;" x="809.427273" xlink:href="#mbf2dcfe148" y="459.154135"/>
    </g>
   </g>
   <g id="line2d_122">
    <path clip-path="url(#p3abc18e870)" d="M 226.063636 273.616226 
L 251.427273 294.012374 
L 276.790909 282.376167 
L 302.154545 317.317157 
L 327.518182 346.751591 
L 352.881818 399.538813 
L 378.245455 360.60841 
L 403.609091 343.307152 
L 428.972727 347.733743 
L 454.336364 330.98718 
L 479.7 378.301105 
L 505.063636 400.751274 
L 530.427273 410.874621 
L 555.790909 405.202636 
L 581.154545 420.801561 
L 606.518182 412.628527 
L 631.881818 413.768696 
L 657.245455 416.884933 
L 682.609091 418.258747 
L 707.972727 424.172759 
L 733.336364 434.124679 
L 758.7 437.859833 
L 784.063636 449.226528 
L 809.427273 453.722666 
" style="fill:none;stroke:#ff7f0e;stroke-linecap:square;stroke-width:1.5;"/>
    <defs>
     <path d="M 0 3 
C 0.795609 3 1.55874 2.683901 2.12132 2.12132 
C 2.683901 1.55874 3 0.795609 3 0 
C 3 -0.795609 2.683901 -1.55874 2.12132 -2.12132 
C 1.55874 -2.683901 0.795609 -3 0 -3 
C -0.795609 -3 -1.55874 -2.683901 -2.12132 -2.12132 
C -2.683901 -1.55874 -3 -0.795609 -3 0 
C -3 0.795609 -2.683901 1.55874 -2.12132 2.12132 
C -1.55874 2.683901 -0.795609 3 0 3 
z
" id="m232593736b" style="stroke:#ff7f0e;"/>
    </defs>
    <g clip-path="url(#p3abc18e870)">
     <use style="fill:#ff7f0e;stroke:#ff7f0e;" x="226.063636" xlink:href="#m232593736b" y="273.616226"/>
     <use style="fill:#ff7f0e;stroke:#ff7f0e;" x="251.427273" xlink:href="#m232593736b" y="294.012374"/>
     <use style="fill:#ff7f0e;stroke:#ff7f0e;" x="276.790909" xlink:href="#m232593736b" y="282.376167"/>
     <use style="fill:#ff7f0e;stroke:#ff7f0e;" x="302.154545" xlink:href="#m232593736b" y="317.317157"/>
     <use style="fill:#ff7f0e;stroke:#ff7f0e;" x="327.518182" xlink:href="#m232593736b" y="346.751591"/>
     <use style="fill:#ff7f0e;stroke:#ff7f0e;" x="352.881818" xlink:href="#m232593736b" y="399.538813"/>
     <use style="fill:#ff7f0e;stroke:#ff7f0e;" x="378.245455" xlink:href="#m232593736b" y="360.60841"/>
     <use style="fill:#ff7f0e;stroke:#ff7f0e;" x="403.609091" xlink:href="#m232593736b" y="343.307152"/>
     <use style="fill:#ff7f0e;stroke:#ff7f0e;" x="428.972727" xlink:href="#m232593736b" y="347.733743"/>
     <use style="fill:#ff7f0e;stroke:#ff7f0e;" x="454.336364" xlink:href="#m232593736b" y="330.98718"/>
     <use style="fill:#ff7f0e;stroke:#ff7f0e;" x="479.7" xlink:href="#m232593736b" y="378.301105"/>
     <use style="fill:#ff7f0e;stroke:#ff7f0e;" x="505.063636" xlink:href="#m232593736b" y="400.751274"/>
     <use style="fill:#ff7f0e;stroke:#ff7f0e;" x="530.427273" xlink:href="#m232593736b" y="410.874621"/>
     <use style="fill:#ff7f0e;stroke:#ff7f0e;" x="555.790909" xlink:href="#m232593736b" y="405.202636"/>
     <use style="fill:#ff7f0e;stroke:#ff7f0e;" x="581.154545" xlink:href="#m232593736b" y="420.801561"/>
     <use style="fill:#ff7f0e;stroke:#ff7f0e;" x="606.518182" xlink:href="#m232593736b" y="412.628527"/>
     <use style="fill:#ff7f0e;stroke:#ff7f0e;" x="631.881818" xlink:href="#m232593736b" y="413.768696"/>
     <use style="fill:#ff7f0e;stroke:#ff7f0e;" x="657.245455" xlink:href="#m232593736b" y="416.884933"/>
     <use style="fill:#ff7f0e;stroke:#ff7f0e;" x="682.609091" xlink:href="#m232593736b" y="418.258747"/>
     <use style="fill:#ff7f0e;stroke:#ff7f0e;" x="707.972727" xlink:href="#m232593736b" y="424.172759"/>
     <use style="fill:#ff7f0e;stroke:#ff7f0e;" x="733.336364" xlink:href="#m232593736b" y="434.124679"/>
     <use style="fill:#ff7f0e;stroke:#ff7f0e;" x="758.7" xlink:href="#m232593736b" y="437.859833"/>
     <use style="fill:#ff7f0e;stroke:#ff7f0e;" x="784.063636" xlink:href="#m232593736b" y="449.226528"/>
     <use style="fill:#ff7f0e;stroke:#ff7f0e;" x="809.427273" xlink:href="#m232593736b" y="453.722666"/>
    </g>
   </g>
   <g id="line2d_123">
    <path clip-path="url(#p3abc18e870)" d="M 302.154545 307.167727 
L 327.518182 324.590237 
L 352.881818 349.408257 
L 378.245455 325.572776 
L 403.609091 345.544436 
L 428.972727 354.091128 
L 454.336364 374.010429 
L 479.7 360.825835 
L 505.063636 377.353192 
L 530.427273 361.37689 
L 555.790909 399.273932 
L 581.154545 405.100413 
L 606.518182 413.111613 
L 631.881818 407.409881 
L 657.245455 420.631859 
L 682.609091 415.090206 
L 707.972727 420.723608 
L 733.336364 424.118588 
L 758.7 430.483852 
L 784.063636 436.323612 
L 809.427273 443.671416 
" style="fill:none;stroke:#2ca02c;stroke-linecap:square;stroke-width:1.5;"/>
    <defs>
     <path d="M 0 3 
C 0.795609 3 1.55874 2.683901 2.12132 2.12132 
C 2.683901 1.55874 3 0.795609 3 0 
C 3 -0.795609 2.683901 -1.55874 2.12132 -2.12132 
C 1.55874 -2.683901 0.795609 -3 0 -3 
C -0.795609 -3 -1.55874 -2.683901 -2.12132 -2.12132 
C -2.683901 -1.55874 -3 -0.795609 -3 0 
C -3 0.795609 -2.683901 1.55874 -2.12132 2.12132 
C -1.55874 2.683901 -0.795609 3 0 3 
z
" id="mdc1619e3c2" style="stroke:#2ca02c;"/>
    </defs>
    <g clip-path="url(#p3abc18e870)">
     <use style="fill:#2ca02c;stroke:#2ca02c;" x="302.154545" xlink:href="#mdc1619e3c2" y="307.167727"/>
     <use style="fill:#2ca02c;stroke:#2ca02c;" x="327.518182" xlink:href="#mdc1619e3c2" y="324.590237"/>
     <use style="fill:#2ca02c;stroke:#2ca02c;" x="352.881818" xlink:href="#mdc1619e3c2" y="349.408257"/>
     <use style="fill:#2ca02c;stroke:#2ca02c;" x="378.245455" xlink:href="#mdc1619e3c2" y="325.572776"/>
     <use style="fill:#2ca02c;stroke:#2ca02c;" x="403.609091" xlink:href="#mdc1619e3c2" y="345.544436"/>
     <use style="fill:#2ca02c;stroke:#2ca02c;" x="428.972727" xlink:href="#mdc1619e3c2" y="354.091128"/>
     <use style="fill:#2ca02c;stroke:#2ca02c;" x="454.336364" xlink:href="#mdc1619e3c2" y="374.010429"/>
     <use style="fill:#2ca02c;stroke:#2ca02c;" x="479.7" xlink:href="#mdc1619e3c2" y="360.825835"/>
     <use style="fill:#2ca02c;stroke:#2ca02c;" x="505.063636" xlink:href="#mdc1619e3c2" y="377.353192"/>
     <use style="fill:#2ca02c;stroke:#2ca02c;" x="530.427273" xlink:href="#mdc1619e3c2" y="361.37689"/>
     <use style="fill:#2ca02c;stroke:#2ca02c;" x="555.790909" xlink:href="#mdc1619e3c2" y="399.273932"/>
     <use style="fill:#2ca02c;stroke:#2ca02c;" x="581.154545" xlink:href="#mdc1619e3c2" y="405.100413"/>
     <use style="fill:#2ca02c;stroke:#2ca02c;" x="606.518182" xlink:href="#mdc1619e3c2" y="413.111613"/>
     <use style="fill:#2ca02c;stroke:#2ca02c;" x="631.881818" xlink:href="#mdc1619e3c2" y="407.409881"/>
     <use style="fill:#2ca02c;stroke:#2ca02c;" x="657.245455" xlink:href="#mdc1619e3c2" y="420.631859"/>
     <use style="fill:#2ca02c;stroke:#2ca02c;" x="682.609091" xlink:href="#mdc1619e3c2" y="415.090206"/>
     <use style="fill:#2ca02c;stroke:#2ca02c;" x="707.972727" xlink:href="#mdc1619e3c2" y="420.723608"/>
     <use style="fill:#2ca02c;stroke:#2ca02c;" x="733.336364" xlink:href="#mdc1619e3c2" y="424.118588"/>
     <use style="fill:#2ca02c;stroke:#2ca02c;" x="758.7" xlink:href="#mdc1619e3c2" y="430.483852"/>
     <use style="fill:#2ca02c;stroke:#2ca02c;" x="784.063636" xlink:href="#mdc1619e3c2" y="436.323612"/>
     <use style="fill:#2ca02c;stroke:#2ca02c;" x="809.427273" xlink:href="#mdc1619e3c2" y="443.671416"/>
    </g>
   </g>
   <g id="line2d_124">
    <path clip-path="url(#p3abc18e870)" d="M 479.7 334.79392 
L 505.063636 351.772593 
L 530.427273 355.43417 
L 555.790909 364.029815 
L 581.154545 376.403746 
L 606.518182 384.685222 
L 631.881818 391.063172 
L 657.245455 391.861914 
L 682.609091 396.678799 
L 707.972727 392.166865 
L 733.336364 411.902516 
L 758.7 418.011001 
L 784.063636 424.904138 
L 809.427273 425.997065 
" style="fill:none;stroke:#d62728;stroke-linecap:square;stroke-width:1.5;"/>
    <defs>
     <path d="M 0 3 
C 0.795609 3 1.55874 2.683901 2.12132 2.12132 
C 2.683901 1.55874 3 0.795609 3 0 
C 3 -0.795609 2.683901 -1.55874 2.12132 -2.12132 
C 1.55874 -2.683901 0.795609 -3 0 -3 
C -0.795609 -3 -1.55874 -2.683901 -2.12132 -2.12132 
C -2.683901 -1.55874 -3 -0.795609 -3 0 
C -3 0.795609 -2.683901 1.55874 -2.12132 2.12132 
C -1.55874 2.683901 -0.795609 3 0 3 
z
" id="m0daf88196a" style="stroke:#d62728;"/>
    </defs>
    <g clip-path="url(#p3abc18e870)">
     <use style="fill:#d62728;stroke:#d62728;" x="479.7" xlink:href="#m0daf88196a" y="334.79392"/>
     <use style="fill:#d62728;stroke:#d62728;" x="505.063636" xlink:href="#m0daf88196a" y="351.772593"/>
     <use style="fill:#d62728;stroke:#d62728;" x="530.427273" xlink:href="#m0daf88196a" y="355.43417"/>
     <use style="fill:#d62728;stroke:#d62728;" x="555.790909" xlink:href="#m0daf88196a" y="364.029815"/>
     <use style="fill:#d62728;stroke:#d62728;" x="581.154545" xlink:href="#m0daf88196a" y="376.403746"/>
     <use style="fill:#d62728;stroke:#d62728;" x="606.518182" xlink:href="#m0daf88196a" y="384.685222"/>
     <use style="fill:#d62728;stroke:#d62728;" x="631.881818" xlink:href="#m0daf88196a" y="391.063172"/>
     <use style="fill:#d62728;stroke:#d62728;" x="657.245455" xlink:href="#m0daf88196a" y="391.861914"/>
     <use style="fill:#d62728;stroke:#d62728;" x="682.609091" xlink:href="#m0daf88196a" y="396.678799"/>
     <use style="fill:#d62728;stroke:#d62728;" x="707.972727" xlink:href="#m0daf88196a" y="392.166865"/>
     <use style="fill:#d62728;stroke:#d62728;" x="733.336364" xlink:href="#m0daf88196a" y="411.902516"/>
     <use style="fill:#d62728;stroke:#d62728;" x="758.7" xlink:href="#m0daf88196a" y="418.011001"/>
     <use style="fill:#d62728;stroke:#d62728;" x="784.063636" xlink:href="#m0daf88196a" y="424.904138"/>
     <use style="fill:#d62728;stroke:#d62728;" x="809.427273" xlink:href="#m0daf88196a" y="425.997065"/>
    </g>
   </g>
   <g id="patch_3">
    <path d="M 117 512.64 
L 117 69.12 
" style="fill:none;stroke:#000000;stroke-linecap:square;stroke-linejoin:miter;stroke-width:0.8;"/>
   </g>
   <g id="patch_4">
    <path d="M 842.4 512.64 
L 842.4 69.12 
" style="fill:none;stroke:#000000;stroke-linecap:square;stroke-linejoin:miter;stroke-width:0.8;"/>
   </g>
   <g id="patch_5">
    <path d="M 117 512.64 
L 842.4 512.64 
" style="fill:none;stroke:#000000;stroke-linecap:square;stroke-linejoin:miter;stroke-width:0.8;"/>
   </g>
   <g id="patch_6">
    <path d="M 117 69.12 
L 842.4 69.12 
" style="fill:none;stroke:#000000;stroke-linecap:square;stroke-linejoin:miter;stroke-width:0.8;"/>
   </g>
   <g id="text_15">
    <!-- Confirmed cases, growth rate in Spain (2020-01-22..2020-03-30) -->
    <defs>
     <path d="M 64.40625 67.28125 
L 64.40625 56.890625 
Q 59.421875 61.53125 53.78125 63.8125 
Q 48.140625 66.109375 41.796875 66.109375 
Q 29.296875 66.109375 22.65625 58.46875 
Q 16.015625 50.828125 16.015625 36.375 
Q 16.015625 21.96875 22.65625 14.328125 
Q 29.296875 6.6875 41.796875 6.6875 
Q 48.140625 6.6875 53.78125 8.984375 
Q 59.421875 11.28125 64.40625 15.921875 
L 64.40625 5.609375 
Q 59.234375 2.09375 53.4375 0.328125 
Q 47.65625 -1.421875 41.21875 -1.421875 
Q 24.65625 -1.421875 15.125 8.703125 
Q 5.609375 18.84375 5.609375 36.375 
Q 5.609375 53.953125 15.125 64.078125 
Q 24.65625 74.21875 41.21875 74.21875 
Q 47.75 74.21875 53.53125 72.484375 
Q 59.328125 70.75 64.40625 67.28125 
z
" id="DejaVuSans-67"/>
     <path d="M 54.890625 33.015625 
L 54.890625 0 
L 45.90625 0 
L 45.90625 32.71875 
Q 45.90625 40.484375 42.875 44.328125 
Q 39.84375 48.1875 33.796875 48.1875 
Q 26.515625 48.1875 22.3125 43.546875 
Q 18.109375 38.921875 18.109375 30.90625 
L 18.109375 0 
L 9.078125 0 
L 9.078125 54.6875 
L 18.109375 54.6875 
L 18.109375 46.1875 
Q 21.34375 51.125 25.703125 53.5625 
Q 30.078125 56 35.796875 56 
Q 45.21875 56 50.046875 50.171875 
Q 54.890625 44.34375 54.890625 33.015625 
z
" id="DejaVuSans-110"/>
     <path d="M 9.421875 54.6875 
L 18.40625 54.6875 
L 18.40625 0 
L 9.421875 0 
z
M 9.421875 75.984375 
L 18.40625 75.984375 
L 18.40625 64.59375 
L 9.421875 64.59375 
z
" id="DejaVuSans-105"/>
     <path d="M 52 44.1875 
Q 55.375 50.25 60.0625 53.125 
Q 64.75 56 71.09375 56 
Q 79.640625 56 84.28125 50.015625 
Q 88.921875 44.046875 88.921875 33.015625 
L 88.921875 0 
L 79.890625 0 
L 79.890625 32.71875 
Q 79.890625 40.578125 77.09375 44.375 
Q 74.3125 48.1875 68.609375 48.1875 
Q 61.625 48.1875 57.5625 43.546875 
Q 53.515625 38.921875 53.515625 30.90625 
L 53.515625 0 
L 44.484375 0 
L 44.484375 32.71875 
Q 44.484375 40.625 41.703125 44.40625 
Q 38.921875 48.1875 33.109375 48.1875 
Q 26.21875 48.1875 22.15625 43.53125 
Q 18.109375 38.875 18.109375 30.90625 
L 18.109375 0 
L 9.078125 0 
L 9.078125 54.6875 
L 18.109375 54.6875 
L 18.109375 46.1875 
Q 21.1875 51.21875 25.484375 53.609375 
Q 29.78125 56 35.6875 56 
Q 41.65625 56 45.828125 52.96875 
Q 50 49.953125 52 44.1875 
z
" id="DejaVuSans-109"/>
     <path d="M 56.203125 29.59375 
L 56.203125 25.203125 
L 14.890625 25.203125 
Q 15.484375 15.921875 20.484375 11.0625 
Q 25.484375 6.203125 34.421875 6.203125 
Q 39.59375 6.203125 44.453125 7.46875 
Q 49.3125 8.734375 54.109375 11.28125 
L 54.109375 2.78125 
Q 49.265625 0.734375 44.1875 -0.34375 
Q 39.109375 -1.421875 33.890625 -1.421875 
Q 20.796875 -1.421875 13.15625 6.1875 
Q 5.515625 13.8125 5.515625 26.8125 
Q 5.515625 40.234375 12.765625 48.109375 
Q 20.015625 56 32.328125 56 
Q 43.359375 56 49.78125 48.890625 
Q 56.203125 41.796875 56.203125 29.59375 
z
M 47.21875 32.234375 
Q 47.125 39.59375 43.09375 43.984375 
Q 39.0625 48.390625 32.421875 48.390625 
Q 24.90625 48.390625 20.390625 44.140625 
Q 15.875 39.890625 15.1875 32.171875 
z
" id="DejaVuSans-101"/>
     <path d="M 45.40625 46.390625 
L 45.40625 75.984375 
L 54.390625 75.984375 
L 54.390625 0 
L 45.40625 0 
L 45.40625 8.203125 
Q 42.578125 3.328125 38.25 0.953125 
Q 33.9375 -1.421875 27.875 -1.421875 
Q 17.96875 -1.421875 11.734375 6.484375 
Q 5.515625 14.40625 5.515625 27.296875 
Q 5.515625 40.1875 11.734375 48.09375 
Q 17.96875 56 27.875 56 
Q 33.9375 56 38.25 53.625 
Q 42.578125 51.265625 45.40625 46.390625 
z
M 14.796875 27.296875 
Q 14.796875 17.390625 18.875 11.75 
Q 22.953125 6.109375 30.078125 6.109375 
Q 37.203125 6.109375 41.296875 11.75 
Q 45.40625 17.390625 45.40625 27.296875 
Q 45.40625 37.203125 41.296875 42.84375 
Q 37.203125 48.484375 30.078125 48.484375 
Q 22.953125 48.484375 18.875 42.84375 
Q 14.796875 37.203125 14.796875 27.296875 
z
" id="DejaVuSans-100"/>
     <path d="M 44.28125 53.078125 
L 44.28125 44.578125 
Q 40.484375 46.53125 36.375 47.5 
Q 32.28125 48.484375 27.875 48.484375 
Q 21.1875 48.484375 17.84375 46.4375 
Q 14.5 44.390625 14.5 40.28125 
Q 14.5 37.15625 16.890625 35.375 
Q 19.28125 33.59375 26.515625 31.984375 
L 29.59375 31.296875 
Q 39.15625 29.25 43.1875 25.515625 
Q 47.21875 21.78125 47.21875 15.09375 
Q 47.21875 7.46875 41.1875 3.015625 
Q 35.15625 -1.421875 24.609375 -1.421875 
Q 20.21875 -1.421875 15.453125 -0.5625 
Q 10.6875 0.296875 5.421875 2 
L 5.421875 11.28125 
Q 10.40625 8.6875 15.234375 7.390625 
Q 20.0625 6.109375 24.8125 6.109375 
Q 31.15625 6.109375 34.5625 8.28125 
Q 37.984375 10.453125 37.984375 14.40625 
Q 37.984375 18.0625 35.515625 20.015625 
Q 33.0625 21.96875 24.703125 23.78125 
L 21.578125 24.515625 
Q 13.234375 26.265625 9.515625 29.90625 
Q 5.8125 33.546875 5.8125 39.890625 
Q 5.8125 47.609375 11.28125 51.796875 
Q 16.75 56 26.8125 56 
Q 31.78125 56 36.171875 55.265625 
Q 40.578125 54.546875 44.28125 53.078125 
z
" id="DejaVuSans-115"/>
     <path d="M 11.71875 12.40625 
L 22.015625 12.40625 
L 22.015625 4 
L 14.015625 -11.625 
L 7.71875 -11.625 
L 11.71875 4 
z
" id="DejaVuSans-44"/>
     <path d="M 53.515625 70.515625 
L 53.515625 60.890625 
Q 47.90625 63.578125 42.921875 64.890625 
Q 37.9375 66.21875 33.296875 66.21875 
Q 25.25 66.21875 20.875 63.09375 
Q 16.5 59.96875 16.5 54.203125 
Q 16.5 49.359375 19.40625 46.890625 
Q 22.3125 44.4375 30.421875 42.921875 
L 36.375 41.703125 
Q 47.40625 39.59375 52.65625 34.296875 
Q 57.90625 29 57.90625 20.125 
Q 57.90625 9.515625 50.796875 4.046875 
Q 43.703125 -1.421875 29.984375 -1.421875 
Q 24.8125 -1.421875 18.96875 -0.25 
Q 13.140625 0.921875 6.890625 3.21875 
L 6.890625 13.375 
Q 12.890625 10.015625 18.65625 8.296875 
Q 24.421875 6.59375 29.984375 6.59375 
Q 38.421875 6.59375 43.015625 9.90625 
Q 47.609375 13.234375 47.609375 19.390625 
Q 47.609375 24.75 44.3125 27.78125 
Q 41.015625 30.8125 33.5 32.328125 
L 27.484375 33.5 
Q 16.453125 35.6875 11.515625 40.375 
Q 6.59375 45.0625 6.59375 53.421875 
Q 6.59375 63.09375 13.40625 68.65625 
Q 20.21875 74.21875 32.171875 74.21875 
Q 37.3125 74.21875 42.625 73.28125 
Q 47.953125 72.359375 53.515625 70.515625 
z
" id="DejaVuSans-83"/>
     <path d="M 18.109375 8.203125 
L 18.109375 -20.796875 
L 9.078125 -20.796875 
L 9.078125 54.6875 
L 18.109375 54.6875 
L 18.109375 46.390625 
Q 20.953125 51.265625 25.265625 53.625 
Q 29.59375 56 35.59375 56 
Q 45.5625 56 51.78125 48.09375 
Q 58.015625 40.1875 58.015625 27.296875 
Q 58.015625 14.40625 51.78125 6.484375 
Q 45.5625 -1.421875 35.59375 -1.421875 
Q 29.59375 -1.421875 25.265625 0.953125 
Q 20.953125 3.328125 18.109375 8.203125 
z
M 48.6875 27.296875 
Q 48.6875 37.203125 44.609375 42.84375 
Q 40.53125 48.484375 33.40625 48.484375 
Q 26.265625 48.484375 22.1875 42.84375 
Q 18.109375 37.203125 18.109375 27.296875 
Q 18.109375 17.390625 22.1875 11.75 
Q 26.265625 6.109375 33.40625 6.109375 
Q 40.53125 6.109375 44.609375 11.75 
Q 48.6875 17.390625 48.6875 27.296875 
z
" id="DejaVuSans-112"/>
    </defs>
    <g transform="translate(284.754375 63.12)scale(0.12 -0.12)">
     <use xlink:href="#DejaVuSans-67"/>
     <use x="69.824219" xlink:href="#DejaVuSans-111"/>
     <use x="131.005859" xlink:href="#DejaVuSans-110"/>
     <use x="194.384766" xlink:href="#DejaVuSans-102"/>
     <use x="229.589844" xlink:href="#DejaVuSans-105"/>
     <use x="257.373047" xlink:href="#DejaVuSans-114"/>
     <use x="296.736328" xlink:href="#DejaVuSans-109"/>
     <use x="394.148438" xlink:href="#DejaVuSans-101"/>
     <use x="455.671875" xlink:href="#DejaVuSans-100"/>
     <use x="519.148438" xlink:href="#DejaVuSans-32"/>
     <use x="550.935547" xlink:href="#DejaVuSans-99"/>
     <use x="605.916016" xlink:href="#DejaVuSans-97"/>
     <use x="667.195312" xlink:href="#DejaVuSans-115"/>
     <use x="719.294922" xlink:href="#DejaVuSans-101"/>
     <use x="780.818359" xlink:href="#DejaVuSans-115"/>
     <use x="832.917969" xlink:href="#DejaVuSans-44"/>
     <use x="864.705078" xlink:href="#DejaVuSans-32"/>
     <use x="896.492188" xlink:href="#DejaVuSans-103"/>
     <use x="959.96875" xlink:href="#DejaVuSans-114"/>
     <use x="998.832031" xlink:href="#DejaVuSans-111"/>
     <use x="1060.013672" xlink:href="#DejaVuSans-119"/>
     <use x="1141.800781" xlink:href="#DejaVuSans-116"/>
     <use x="1181.009766" xlink:href="#DejaVuSans-104"/>
     <use x="1244.388672" xlink:href="#DejaVuSans-32"/>
     <use x="1276.175781" xlink:href="#DejaVuSans-114"/>
     <use x="1317.289062" xlink:href="#DejaVuSans-97"/>
     <use x="1378.568359" xlink:href="#DejaVuSans-116"/>
     <use x="1417.777344" xlink:href="#DejaVuSans-101"/>
     <use x="1479.300781" xlink:href="#DejaVuSans-32"/>
     <use x="1511.087891" xlink:href="#DejaVuSans-105"/>
     <use x="1538.871094" xlink:href="#DejaVuSans-110"/>
     <use x="1602.25" xlink:href="#DejaVuSans-32"/>
     <use x="1634.037109" xlink:href="#DejaVuSans-83"/>
     <use x="1697.513672" xlink:href="#DejaVuSans-112"/>
     <use x="1760.990234" xlink:href="#DejaVuSans-97"/>
     <use x="1822.269531" xlink:href="#DejaVuSans-105"/>
     <use x="1850.052734" xlink:href="#DejaVuSans-110"/>
     <use x="1913.431641" xlink:href="#DejaVuSans-32"/>
     <use x="1945.21875" xlink:href="#DejaVuSans-40"/>
     <use x="1984.232422" xlink:href="#DejaVuSans-50"/>
     <use x="2047.855469" xlink:href="#DejaVuSans-48"/>
     <use x="2111.478516" xlink:href="#DejaVuSans-50"/>
     <use x="2175.101562" xlink:href="#DejaVuSans-48"/>
     <use x="2238.724609" xlink:href="#DejaVuSans-45"/>
     <use x="2274.808594" xlink:href="#DejaVuSans-48"/>
     <use x="2338.431641" xlink:href="#DejaVuSans-49"/>
     <use x="2402.054688" xlink:href="#DejaVuSans-45"/>
     <use x="2438.138672" xlink:href="#DejaVuSans-50"/>
     <use x="2501.761719" xlink:href="#DejaVuSans-50"/>
     <use x="2565.384766" xlink:href="#DejaVuSans-46"/>
     <use x="2597.171875" xlink:href="#DejaVuSans-46"/>
     <use x="2628.958984" xlink:href="#DejaVuSans-50"/>
     <use x="2692.582031" xlink:href="#DejaVuSans-48"/>
     <use x="2756.205078" xlink:href="#DejaVuSans-50"/>
     <use x="2819.828125" xlink:href="#DejaVuSans-48"/>
     <use x="2883.451172" xlink:href="#DejaVuSans-45"/>
     <use x="2919.535156" xlink:href="#DejaVuSans-48"/>
     <use x="2983.158203" xlink:href="#DejaVuSans-51"/>
     <use x="3046.78125" xlink:href="#DejaVuSans-45"/>
     <use x="3082.865234" xlink:href="#DejaVuSans-51"/>
     <use x="3146.488281" xlink:href="#DejaVuSans-48"/>
     <use x="3210.111328" xlink:href="#DejaVuSans-41"/>
    </g>
   </g>
   <g id="legend_1">
    <g id="patch_7">
     <path d="M 750.5 150.5325 
L 835.4 150.5325 
Q 837.4 150.5325 837.4 148.5325 
L 837.4 76.12 
Q 837.4 74.12 835.4 74.12 
L 750.5 74.12 
Q 748.5 74.12 748.5 76.12 
L 748.5 148.5325 
Q 748.5 150.5325 750.5 150.5325 
z
" style="fill:#ffffff;opacity:0.8;stroke:#cccccc;stroke-linejoin:miter;"/>
    </g>
    <g id="text_16">
     <!-- Avg over $n$ days -->
     <defs>
      <path d="M 34.1875 63.1875 
L 20.796875 26.90625 
L 47.609375 26.90625 
z
M 28.609375 72.90625 
L 39.796875 72.90625 
L 67.578125 0 
L 57.328125 0 
L 50.6875 18.703125 
L 17.828125 18.703125 
L 11.1875 0 
L 0.78125 0 
z
" id="DejaVuSans-65"/>
      <path d="M 55.71875 33.015625 
L 49.3125 0 
L 40.28125 0 
L 46.6875 32.671875 
Q 47.125 34.96875 47.359375 36.71875 
Q 47.609375 38.484375 47.609375 39.5 
Q 47.609375 43.609375 45.015625 45.890625 
Q 42.4375 48.1875 37.796875 48.1875 
Q 30.5625 48.1875 25.34375 43.375 
Q 20.125 38.578125 18.5 30.328125 
L 12.5 0 
L 3.515625 0 
L 14.109375 54.6875 
L 23.09375 54.6875 
L 21.296875 46.09375 
Q 25.046875 50.828125 30.3125 53.40625 
Q 35.59375 56 41.40625 56 
Q 48.640625 56 52.609375 52.09375 
Q 56.59375 48.1875 56.59375 41.109375 
Q 56.59375 39.359375 56.375 37.359375 
Q 56.15625 35.359375 55.71875 33.015625 
z
" id="DejaVuSans-Oblique-110"/>
      <path d="M 32.171875 -5.078125 
Q 28.375 -14.84375 24.75 -17.8125 
Q 21.140625 -20.796875 15.09375 -20.796875 
L 7.90625 -20.796875 
L 7.90625 -13.28125 
L 13.1875 -13.28125 
Q 16.890625 -13.28125 18.9375 -11.515625 
Q 21 -9.765625 23.484375 -3.21875 
L 25.09375 0.875 
L 2.984375 54.6875 
L 12.5 54.6875 
L 29.59375 11.921875 
L 46.6875 54.6875 
L 56.203125 54.6875 
z
" id="DejaVuSans-121"/>
     </defs>
     <g transform="translate(752.5 85.72)scale(0.1 -0.1)">
      <use transform="translate(0 0.015625)" xlink:href="#DejaVuSans-65"/>
      <use transform="translate(68.408203 0.015625)" xlink:href="#DejaVuSans-118"/>
      <use transform="translate(127.587891 0.015625)" xlink:href="#DejaVuSans-103"/>
      <use transform="translate(191.064453 0.015625)" xlink:href="#DejaVuSans-32"/>
      <use transform="translate(222.851562 0.015625)" xlink:href="#DejaVuSans-111"/>
      <use transform="translate(284.033203 0.015625)" xlink:href="#DejaVuSans-118"/>
      <use transform="translate(343.212891 0.015625)" xlink:href="#DejaVuSans-101"/>
      <use transform="translate(404.736328 0.015625)" xlink:href="#DejaVuSans-114"/>
      <use transform="translate(445.849609 0.015625)" xlink:href="#DejaVuSans-32"/>
      <use transform="translate(477.636719 0.015625)" xlink:href="#DejaVuSans-Oblique-110"/>
      <use transform="translate(541.015625 0.015625)" xlink:href="#DejaVuSans-32"/>
      <use transform="translate(572.802734 0.015625)" xlink:href="#DejaVuSans-100"/>
      <use transform="translate(636.279297 0.015625)" xlink:href="#DejaVuSans-97"/>
      <use transform="translate(697.558594 0.015625)" xlink:href="#DejaVuSans-121"/>
      <use transform="translate(756.738281 0.015625)" xlink:href="#DejaVuSans-115"/>
     </g>
    </g>
    <g id="line2d_125">
     <path d="M 759.196094 96.918438 
L 779.196094 96.918438 
" style="fill:none;stroke:#1f77b4;stroke-linecap:square;stroke-width:1.5;"/>
    </g>
    <g id="line2d_126">
     <g>
      <use style="fill:#1f77b4;stroke:#1f77b4;" x="769.196094" xlink:href="#mbf2dcfe148" y="96.918438"/>
     </g>
    </g>
    <g id="text_17">
     <!-- 1 days -->
     <g transform="translate(787.196094 100.418438)scale(0.1 -0.1)">
      <use xlink:href="#DejaVuSans-49"/>
      <use x="63.623047" xlink:href="#DejaVuSans-32"/>
      <use x="95.410156" xlink:href="#DejaVuSans-100"/>
      <use x="158.886719" xlink:href="#DejaVuSans-97"/>
      <use x="220.166016" xlink:href="#DejaVuSans-121"/>
      <use x="279.345703" xlink:href="#DejaVuSans-115"/>
     </g>
    </g>
    <g id="line2d_127">
     <path d="M 759.196094 111.596563 
L 779.196094 111.596563 
" style="fill:none;stroke:#ff7f0e;stroke-linecap:square;stroke-width:1.5;"/>
    </g>
    <g id="line2d_128">
     <g>
      <use style="fill:#ff7f0e;stroke:#ff7f0e;" x="769.196094" xlink:href="#m232593736b" y="111.596563"/>
     </g>
    </g>
    <g id="text_18">
     <!-- 4 days -->
     <g transform="translate(787.196094 115.096563)scale(0.1 -0.1)">
      <use xlink:href="#DejaVuSans-52"/>
      <use x="63.623047" xlink:href="#DejaVuSans-32"/>
      <use x="95.410156" xlink:href="#DejaVuSans-100"/>
      <use x="158.886719" xlink:href="#DejaVuSans-97"/>
      <use x="220.166016" xlink:href="#DejaVuSans-121"/>
      <use x="279.345703" xlink:href="#DejaVuSans-115"/>
     </g>
    </g>
    <g id="line2d_129">
     <path d="M 759.196094 126.274688 
L 779.196094 126.274688 
" style="fill:none;stroke:#2ca02c;stroke-linecap:square;stroke-width:1.5;"/>
    </g>
    <g id="line2d_130">
     <g>
      <use style="fill:#2ca02c;stroke:#2ca02c;" x="769.196094" xlink:href="#mdc1619e3c2" y="126.274688"/>
     </g>
    </g>
    <g id="text_19">
     <!-- 7 days -->
     <g transform="translate(787.196094 129.774688)scale(0.1 -0.1)">
      <use xlink:href="#DejaVuSans-55"/>
      <use x="63.623047" xlink:href="#DejaVuSans-32"/>
      <use x="95.410156" xlink:href="#DejaVuSans-100"/>
      <use x="158.886719" xlink:href="#DejaVuSans-97"/>
      <use x="220.166016" xlink:href="#DejaVuSans-121"/>
      <use x="279.345703" xlink:href="#DejaVuSans-115"/>
     </g>
    </g>
    <g id="line2d_131">
     <path d="M 759.196094 140.952813 
L 779.196094 140.952813 
" style="fill:none;stroke:#d62728;stroke-linecap:square;stroke-width:1.5;"/>
    </g>
    <g id="line2d_132">
     <g>
      <use style="fill:#d62728;stroke:#d62728;" x="769.196094" xlink:href="#m0daf88196a" y="140.952813"/>
     </g>
    </g>
    <g id="text_20">
     <!-- 14 days -->
     <g transform="translate(787.196094 144.452813)scale(0.1 -0.1)">
      <use xlink:href="#DejaVuSans-49"/>
      <use x="63.623047" xlink:href="#DejaVuSans-52"/>
      <use x="127.246094" xlink:href="#DejaVuSans-32"/>
      <use x="159.033203" xlink:href="#DejaVuSans-100"/>
      <use x="222.509766" xlink:href="#DejaVuSans-97"/>
      <use x="283.789062" xlink:href="#DejaVuSans-121"/>
      <use x="342.96875" xlink:href="#DejaVuSans-115"/>
     </g>
    </g>
   </g>
  </g>
 </g>
 <defs>
  <clipPath id="p3abc18e870">
   <rect height="443.52" width="725.4" x="117" y="69.12"/>
  </clipPath>
 </defs>
</svg>
