<?xml version="1.0" encoding="utf-8" standalone="no"?>
<!DOCTYPE svg PUBLIC "-//W3C//DTD SVG 1.1//EN"
  "http://www.w3.org/Graphics/SVG/1.1/DTD/svg11.dtd">
<!-- Created with matplotlib (https://matplotlib.org/) -->
<svg height="576pt" version="1.1" viewBox="0 0 936 576" width="936pt" xmlns="http://www.w3.org/2000/svg" xmlns:xlink="http://www.w3.org/1999/xlink">
 <defs>
  <style type="text/css">
*{stroke-linecap:butt;stroke-linejoin:round;}
  </style>
 </defs>
 <g id="figure_1">
  <g id="patch_1">
   <path d="M 0 576 
L 936 576 
L 936 0 
L 0 0 
z
" style="fill:#ffffff;"/>
  </g>
  <g id="axes_1">
   <g id="patch_2">
    <path d="M 117 512.64 
L 842.4 512.64 
L 842.4 69.12 
L 117 69.12 
z
" style="fill:#ffffff;"/>
   </g>
   <g id="matplotlib.axis_1">
    <g id="xtick_1">
     <g id="line2d_1">
      <path clip-path="url(#pec3a1bbf12)" d="M 117.804213 512.64 
L 117.804213 69.12 
" style="fill:none;stroke:#d8dcd6;stroke-dasharray:0.8,1.32;stroke-dashoffset:0;stroke-width:0.8;"/>
     </g>
     <g id="line2d_2">
      <defs>
       <path d="M 0 0 
L 0 3.5 
" id="m5078228e08" style="stroke:#000000;stroke-width:0.8;"/>
      </defs>
      <g>
       <use style="stroke:#000000;stroke-width:0.8;" x="117.804213" xlink:href="#m5078228e08" y="512.64"/>
      </g>
     </g>
     <g id="text_1">
      <!-- 2020-02-21 -->
      <defs>
       <path d="M 19.1875 8.296875 
L 53.609375 8.296875 
L 53.609375 0 
L 7.328125 0 
L 7.328125 8.296875 
Q 12.9375 14.109375 22.625 23.890625 
Q 32.328125 33.6875 34.8125 36.53125 
Q 39.546875 41.84375 41.421875 45.53125 
Q 43.3125 49.21875 43.3125 52.78125 
Q 43.3125 58.59375 39.234375 62.25 
Q 35.15625 65.921875 28.609375 65.921875 
Q 23.96875 65.921875 18.8125 64.3125 
Q 13.671875 62.703125 7.8125 59.421875 
L 7.8125 69.390625 
Q 13.765625 71.78125 18.9375 73 
Q 24.125 74.21875 28.421875 74.21875 
Q 39.75 74.21875 46.484375 68.546875 
Q 53.21875 62.890625 53.21875 53.421875 
Q 53.21875 48.921875 51.53125 44.890625 
Q 49.859375 40.875 45.40625 35.40625 
Q 44.1875 33.984375 37.640625 27.21875 
Q 31.109375 20.453125 19.1875 8.296875 
z
" id="DejaVuSans-50"/>
       <path d="M 31.78125 66.40625 
Q 24.171875 66.40625 20.328125 58.90625 
Q 16.5 51.421875 16.5 36.375 
Q 16.5 21.390625 20.328125 13.890625 
Q 24.171875 6.390625 31.78125 6.390625 
Q 39.453125 6.390625 43.28125 13.890625 
Q 47.125 21.390625 47.125 36.375 
Q 47.125 51.421875 43.28125 58.90625 
Q 39.453125 66.40625 31.78125 66.40625 
z
M 31.78125 74.21875 
Q 44.046875 74.21875 50.515625 64.515625 
Q 56.984375 54.828125 56.984375 36.375 
Q 56.984375 17.96875 50.515625 8.265625 
Q 44.046875 -1.421875 31.78125 -1.421875 
Q 19.53125 -1.421875 13.0625 8.265625 
Q 6.59375 17.96875 6.59375 36.375 
Q 6.59375 54.828125 13.0625 64.515625 
Q 19.53125 74.21875 31.78125 74.21875 
z
" id="DejaVuSans-48"/>
       <path d="M 4.890625 31.390625 
L 31.203125 31.390625 
L 31.203125 23.390625 
L 4.890625 23.390625 
z
" id="DejaVuSans-45"/>
       <path d="M 12.40625 8.296875 
L 28.515625 8.296875 
L 28.515625 63.921875 
L 10.984375 60.40625 
L 10.984375 69.390625 
L 28.421875 72.90625 
L 38.28125 72.90625 
L 38.28125 8.296875 
L 54.390625 8.296875 
L 54.390625 0 
L 12.40625 0 
z
" id="DejaVuSans-49"/>
      </defs>
      <g transform="translate(88.7464 527.238438)scale(0.1 -0.1)">
       <use xlink:href="#DejaVuSans-50"/>
       <use x="63.623047" xlink:href="#DejaVuSans-48"/>
       <use x="127.246094" xlink:href="#DejaVuSans-50"/>
       <use x="190.869141" xlink:href="#DejaVuSans-48"/>
       <use x="254.492188" xlink:href="#DejaVuSans-45"/>
       <use x="290.576172" xlink:href="#DejaVuSans-48"/>
       <use x="354.199219" xlink:href="#DejaVuSans-50"/>
       <use x="417.822266" xlink:href="#DejaVuSans-45"/>
       <use x="453.90625" xlink:href="#DejaVuSans-50"/>
       <use x="517.529297" xlink:href="#DejaVuSans-49"/>
      </g>
     </g>
    </g>
    <g id="xtick_2">
     <g id="line2d_3">
      <path clip-path="url(#pec3a1bbf12)" d="M 278.646785 512.64 
L 278.646785 69.12 
" style="fill:none;stroke:#d8dcd6;stroke-dasharray:0.8,1.32;stroke-dashoffset:0;stroke-width:0.8;"/>
     </g>
     <g id="line2d_4">
      <g>
       <use style="stroke:#000000;stroke-width:0.8;" x="278.646785" xlink:href="#m5078228e08" y="512.64"/>
      </g>
     </g>
     <g id="text_2">
      <!-- 2020-03-02 -->
      <defs>
       <path d="M 40.578125 39.3125 
Q 47.65625 37.796875 51.625 33 
Q 55.609375 28.21875 55.609375 21.1875 
Q 55.609375 10.40625 48.1875 4.484375 
Q 40.765625 -1.421875 27.09375 -1.421875 
Q 22.515625 -1.421875 17.65625 -0.515625 
Q 12.796875 0.390625 7.625 2.203125 
L 7.625 11.71875 
Q 11.71875 9.328125 16.59375 8.109375 
Q 21.484375 6.890625 26.8125 6.890625 
Q 36.078125 6.890625 40.9375 10.546875 
Q 45.796875 14.203125 45.796875 21.1875 
Q 45.796875 27.640625 41.28125 31.265625 
Q 36.765625 34.90625 28.71875 34.90625 
L 20.21875 34.90625 
L 20.21875 43.015625 
L 29.109375 43.015625 
Q 36.375 43.015625 40.234375 45.921875 
Q 44.09375 48.828125 44.09375 54.296875 
Q 44.09375 59.90625 40.109375 62.90625 
Q 36.140625 65.921875 28.71875 65.921875 
Q 24.65625 65.921875 20.015625 65.03125 
Q 15.375 64.15625 9.8125 62.3125 
L 9.8125 71.09375 
Q 15.4375 72.65625 20.34375 73.4375 
Q 25.25 74.21875 29.59375 74.21875 
Q 40.828125 74.21875 47.359375 69.109375 
Q 53.90625 64.015625 53.90625 55.328125 
Q 53.90625 49.265625 50.4375 45.09375 
Q 46.96875 40.921875 40.578125 39.3125 
z
" id="DejaVuSans-51"/>
      </defs>
      <g transform="translate(249.588972 527.238438)scale(0.1 -0.1)">
       <use xlink:href="#DejaVuSans-50"/>
       <use x="63.623047" xlink:href="#DejaVuSans-48"/>
       <use x="127.246094" xlink:href="#DejaVuSans-50"/>
       <use x="190.869141" xlink:href="#DejaVuSans-48"/>
       <use x="254.492188" xlink:href="#DejaVuSans-45"/>
       <use x="290.576172" xlink:href="#DejaVuSans-48"/>
       <use x="354.199219" xlink:href="#DejaVuSans-51"/>
       <use x="417.822266" xlink:href="#DejaVuSans-45"/>
       <use x="453.90625" xlink:href="#DejaVuSans-48"/>
       <use x="517.529297" xlink:href="#DejaVuSans-50"/>
      </g>
     </g>
    </g>
    <g id="xtick_3">
     <g id="line2d_5">
      <path clip-path="url(#pec3a1bbf12)" d="M 439.489357 512.64 
L 439.489357 69.12 
" style="fill:none;stroke:#d8dcd6;stroke-dasharray:0.8,1.32;stroke-dashoffset:0;stroke-width:0.8;"/>
     </g>
     <g id="line2d_6">
      <g>
       <use style="stroke:#000000;stroke-width:0.8;" x="439.489357" xlink:href="#m5078228e08" y="512.64"/>
      </g>
     </g>
     <g id="text_3">
      <!-- 2020-03-12 -->
      <g transform="translate(410.431544 527.238438)scale(0.1 -0.1)">
       <use xlink:href="#DejaVuSans-50"/>
       <use x="63.623047" xlink:href="#DejaVuSans-48"/>
       <use x="127.246094" xlink:href="#DejaVuSans-50"/>
       <use x="190.869141" xlink:href="#DejaVuSans-48"/>
       <use x="254.492188" xlink:href="#DejaVuSans-45"/>
       <use x="290.576172" xlink:href="#DejaVuSans-48"/>
       <use x="354.199219" xlink:href="#DejaVuSans-51"/>
       <use x="417.822266" xlink:href="#DejaVuSans-45"/>
       <use x="453.90625" xlink:href="#DejaVuSans-49"/>
       <use x="517.529297" xlink:href="#DejaVuSans-50"/>
      </g>
     </g>
    </g>
    <g id="xtick_4">
     <g id="line2d_7">
      <path clip-path="url(#pec3a1bbf12)" d="M 600.331929 512.64 
L 600.331929 69.12 
" style="fill:none;stroke:#d8dcd6;stroke-dasharray:0.8,1.32;stroke-dashoffset:0;stroke-width:0.8;"/>
     </g>
     <g id="line2d_8">
      <g>
       <use style="stroke:#000000;stroke-width:0.8;" x="600.331929" xlink:href="#m5078228e08" y="512.64"/>
      </g>
     </g>
     <g id="text_4">
      <!-- 2020-03-22 -->
      <g transform="translate(571.274117 527.238438)scale(0.1 -0.1)">
       <use xlink:href="#DejaVuSans-50"/>
       <use x="63.623047" xlink:href="#DejaVuSans-48"/>
       <use x="127.246094" xlink:href="#DejaVuSans-50"/>
       <use x="190.869141" xlink:href="#DejaVuSans-48"/>
       <use x="254.492188" xlink:href="#DejaVuSans-45"/>
       <use x="290.576172" xlink:href="#DejaVuSans-48"/>
       <use x="354.199219" xlink:href="#DejaVuSans-51"/>
       <use x="417.822266" xlink:href="#DejaVuSans-45"/>
       <use x="453.90625" xlink:href="#DejaVuSans-50"/>
       <use x="517.529297" xlink:href="#DejaVuSans-50"/>
      </g>
     </g>
    </g>
    <g id="xtick_5">
     <g id="line2d_9">
      <path clip-path="url(#pec3a1bbf12)" d="M 761.174501 512.64 
L 761.174501 69.12 
" style="fill:none;stroke:#d8dcd6;stroke-dasharray:0.8,1.32;stroke-dashoffset:0;stroke-width:0.8;"/>
     </g>
     <g id="line2d_10">
      <g>
       <use style="stroke:#000000;stroke-width:0.8;" x="761.174501" xlink:href="#m5078228e08" y="512.64"/>
      </g>
     </g>
     <g id="text_5">
      <!-- 2020-04-01 -->
      <defs>
       <path d="M 37.796875 64.3125 
L 12.890625 25.390625 
L 37.796875 25.390625 
z
M 35.203125 72.90625 
L 47.609375 72.90625 
L 47.609375 25.390625 
L 58.015625 25.390625 
L 58.015625 17.1875 
L 47.609375 17.1875 
L 47.609375 0 
L 37.796875 0 
L 37.796875 17.1875 
L 4.890625 17.1875 
L 4.890625 26.703125 
z
" id="DejaVuSans-52"/>
      </defs>
      <g transform="translate(732.116689 527.238438)scale(0.1 -0.1)">
       <use xlink:href="#DejaVuSans-50"/>
       <use x="63.623047" xlink:href="#DejaVuSans-48"/>
       <use x="127.246094" xlink:href="#DejaVuSans-50"/>
       <use x="190.869141" xlink:href="#DejaVuSans-48"/>
       <use x="254.492188" xlink:href="#DejaVuSans-45"/>
       <use x="290.576172" xlink:href="#DejaVuSans-48"/>
       <use x="354.199219" xlink:href="#DejaVuSans-52"/>
       <use x="417.822266" xlink:href="#DejaVuSans-45"/>
       <use x="453.90625" xlink:href="#DejaVuSans-48"/>
       <use x="517.529297" xlink:href="#DejaVuSans-49"/>
      </g>
     </g>
    </g>
    <g id="xtick_6">
     <g id="line2d_11">
      <path clip-path="url(#pec3a1bbf12)" d="M 149.972727 512.64 
L 149.972727 69.12 
" style="fill:none;stroke:#d8dcd6;stroke-dasharray:0.8,1.32;stroke-dashoffset:0;stroke-width:0.8;"/>
     </g>
     <g id="line2d_12">
      <defs>
       <path d="M 0 0 
L 0 2 
" id="m5b73b95a4a" style="stroke:#000000;stroke-width:0.6;"/>
      </defs>
      <g>
       <use style="stroke:#000000;stroke-width:0.6;" x="149.972727" xlink:href="#m5b73b95a4a" y="512.64"/>
      </g>
     </g>
    </g>
    <g id="xtick_7">
     <g id="line2d_13">
      <path clip-path="url(#pec3a1bbf12)" d="M 182.141242 512.64 
L 182.141242 69.12 
" style="fill:none;stroke:#d8dcd6;stroke-dasharray:0.8,1.32;stroke-dashoffset:0;stroke-width:0.8;"/>
     </g>
     <g id="line2d_14">
      <g>
       <use style="stroke:#000000;stroke-width:0.6;" x="182.141242" xlink:href="#m5b73b95a4a" y="512.64"/>
      </g>
     </g>
    </g>
    <g id="xtick_8">
     <g id="line2d_15">
      <path clip-path="url(#pec3a1bbf12)" d="M 214.309756 512.64 
L 214.309756 69.12 
" style="fill:none;stroke:#d8dcd6;stroke-dasharray:0.8,1.32;stroke-dashoffset:0;stroke-width:0.8;"/>
     </g>
     <g id="line2d_16">
      <g>
       <use style="stroke:#000000;stroke-width:0.6;" x="214.309756" xlink:href="#m5b73b95a4a" y="512.64"/>
      </g>
     </g>
    </g>
    <g id="xtick_9">
     <g id="line2d_17">
      <path clip-path="url(#pec3a1bbf12)" d="M 246.478271 512.64 
L 246.478271 69.12 
" style="fill:none;stroke:#d8dcd6;stroke-dasharray:0.8,1.32;stroke-dashoffset:0;stroke-width:0.8;"/>
     </g>
     <g id="line2d_18">
      <g>
       <use style="stroke:#000000;stroke-width:0.6;" x="246.478271" xlink:href="#m5b73b95a4a" y="512.64"/>
      </g>
     </g>
    </g>
    <g id="xtick_10">
     <g id="line2d_19">
      <path clip-path="url(#pec3a1bbf12)" d="M 310.815299 512.64 
L 310.815299 69.12 
" style="fill:none;stroke:#d8dcd6;stroke-dasharray:0.8,1.32;stroke-dashoffset:0;stroke-width:0.8;"/>
     </g>
     <g id="line2d_20">
      <g>
       <use style="stroke:#000000;stroke-width:0.6;" x="310.815299" xlink:href="#m5b73b95a4a" y="512.64"/>
      </g>
     </g>
    </g>
    <g id="xtick_11">
     <g id="line2d_21">
      <path clip-path="url(#pec3a1bbf12)" d="M 342.983814 512.64 
L 342.983814 69.12 
" style="fill:none;stroke:#d8dcd6;stroke-dasharray:0.8,1.32;stroke-dashoffset:0;stroke-width:0.8;"/>
     </g>
     <g id="line2d_22">
      <g>
       <use style="stroke:#000000;stroke-width:0.6;" x="342.983814" xlink:href="#m5b73b95a4a" y="512.64"/>
      </g>
     </g>
    </g>
    <g id="xtick_12">
     <g id="line2d_23">
      <path clip-path="url(#pec3a1bbf12)" d="M 375.152328 512.64 
L 375.152328 69.12 
" style="fill:none;stroke:#d8dcd6;stroke-dasharray:0.8,1.32;stroke-dashoffset:0;stroke-width:0.8;"/>
     </g>
     <g id="line2d_24">
      <g>
       <use style="stroke:#000000;stroke-width:0.6;" x="375.152328" xlink:href="#m5b73b95a4a" y="512.64"/>
      </g>
     </g>
    </g>
    <g id="xtick_13">
     <g id="line2d_25">
      <path clip-path="url(#pec3a1bbf12)" d="M 407.320843 512.64 
L 407.320843 69.12 
" style="fill:none;stroke:#d8dcd6;stroke-dasharray:0.8,1.32;stroke-dashoffset:0;stroke-width:0.8;"/>
     </g>
     <g id="line2d_26">
      <g>
       <use style="stroke:#000000;stroke-width:0.6;" x="407.320843" xlink:href="#m5b73b95a4a" y="512.64"/>
      </g>
     </g>
    </g>
    <g id="xtick_14">
     <g id="line2d_27">
      <path clip-path="url(#pec3a1bbf12)" d="M 471.657871 512.64 
L 471.657871 69.12 
" style="fill:none;stroke:#d8dcd6;stroke-dasharray:0.8,1.32;stroke-dashoffset:0;stroke-width:0.8;"/>
     </g>
     <g id="line2d_28">
      <g>
       <use style="stroke:#000000;stroke-width:0.6;" x="471.657871" xlink:href="#m5b73b95a4a" y="512.64"/>
      </g>
     </g>
    </g>
    <g id="xtick_15">
     <g id="line2d_29">
      <path clip-path="url(#pec3a1bbf12)" d="M 503.826386 512.64 
L 503.826386 69.12 
" style="fill:none;stroke:#d8dcd6;stroke-dasharray:0.8,1.32;stroke-dashoffset:0;stroke-width:0.8;"/>
     </g>
     <g id="line2d_30">
      <g>
       <use style="stroke:#000000;stroke-width:0.6;" x="503.826386" xlink:href="#m5b73b95a4a" y="512.64"/>
      </g>
     </g>
    </g>
    <g id="xtick_16">
     <g id="line2d_31">
      <path clip-path="url(#pec3a1bbf12)" d="M 535.9949 512.64 
L 535.9949 69.12 
" style="fill:none;stroke:#d8dcd6;stroke-dasharray:0.8,1.32;stroke-dashoffset:0;stroke-width:0.8;"/>
     </g>
     <g id="line2d_32">
      <g>
       <use style="stroke:#000000;stroke-width:0.6;" x="535.9949" xlink:href="#m5b73b95a4a" y="512.64"/>
      </g>
     </g>
    </g>
    <g id="xtick_17">
     <g id="line2d_33">
      <path clip-path="url(#pec3a1bbf12)" d="M 568.163415 512.64 
L 568.163415 69.12 
" style="fill:none;stroke:#d8dcd6;stroke-dasharray:0.8,1.32;stroke-dashoffset:0;stroke-width:0.8;"/>
     </g>
     <g id="line2d_34">
      <g>
       <use style="stroke:#000000;stroke-width:0.6;" x="568.163415" xlink:href="#m5b73b95a4a" y="512.64"/>
      </g>
     </g>
    </g>
    <g id="xtick_18">
     <g id="line2d_35">
      <path clip-path="url(#pec3a1bbf12)" d="M 632.500443 512.64 
L 632.500443 69.12 
" style="fill:none;stroke:#d8dcd6;stroke-dasharray:0.8,1.32;stroke-dashoffset:0;stroke-width:0.8;"/>
     </g>
     <g id="line2d_36">
      <g>
       <use style="stroke:#000000;stroke-width:0.6;" x="632.500443" xlink:href="#m5b73b95a4a" y="512.64"/>
      </g>
     </g>
    </g>
    <g id="xtick_19">
     <g id="line2d_37">
      <path clip-path="url(#pec3a1bbf12)" d="M 664.668958 512.64 
L 664.668958 69.12 
" style="fill:none;stroke:#d8dcd6;stroke-dasharray:0.8,1.32;stroke-dashoffset:0;stroke-width:0.8;"/>
     </g>
     <g id="line2d_38">
      <g>
       <use style="stroke:#000000;stroke-width:0.6;" x="664.668958" xlink:href="#m5b73b95a4a" y="512.64"/>
      </g>
     </g>
    </g>
    <g id="xtick_20">
     <g id="line2d_39">
      <path clip-path="url(#pec3a1bbf12)" d="M 696.837472 512.64 
L 696.837472 69.12 
" style="fill:none;stroke:#d8dcd6;stroke-dasharray:0.8,1.32;stroke-dashoffset:0;stroke-width:0.8;"/>
     </g>
     <g id="line2d_40">
      <g>
       <use style="stroke:#000000;stroke-width:0.6;" x="696.837472" xlink:href="#m5b73b95a4a" y="512.64"/>
      </g>
     </g>
    </g>
    <g id="xtick_21">
     <g id="line2d_41">
      <path clip-path="url(#pec3a1bbf12)" d="M 729.005987 512.64 
L 729.005987 69.12 
" style="fill:none;stroke:#d8dcd6;stroke-dasharray:0.8,1.32;stroke-dashoffset:0;stroke-width:0.8;"/>
     </g>
     <g id="line2d_42">
      <g>
       <use style="stroke:#000000;stroke-width:0.6;" x="729.005987" xlink:href="#m5b73b95a4a" y="512.64"/>
      </g>
     </g>
    </g>
    <g id="xtick_22">
     <g id="line2d_43">
      <path clip-path="url(#pec3a1bbf12)" d="M 793.343016 512.64 
L 793.343016 69.12 
" style="fill:none;stroke:#d8dcd6;stroke-dasharray:0.8,1.32;stroke-dashoffset:0;stroke-width:0.8;"/>
     </g>
     <g id="line2d_44">
      <g>
       <use style="stroke:#000000;stroke-width:0.6;" x="793.343016" xlink:href="#m5b73b95a4a" y="512.64"/>
      </g>
     </g>
    </g>
    <g id="xtick_23">
     <g id="line2d_45">
      <path clip-path="url(#pec3a1bbf12)" d="M 825.51153 512.64 
L 825.51153 69.12 
" style="fill:none;stroke:#d8dcd6;stroke-dasharray:0.8,1.32;stroke-dashoffset:0;stroke-width:0.8;"/>
     </g>
     <g id="line2d_46">
      <g>
       <use style="stroke:#000000;stroke-width:0.6;" x="825.51153" xlink:href="#m5b73b95a4a" y="512.64"/>
      </g>
     </g>
    </g>
   </g>
   <g id="matplotlib.axis_2">
    <g id="ytick_1">
     <g id="line2d_47">
      <path clip-path="url(#pec3a1bbf12)" d="M 117 419.083064 
L 842.4 419.083064 
" style="fill:none;stroke:#d8dcd6;stroke-dasharray:0.8,1.32;stroke-dashoffset:0;stroke-width:0.8;"/>
     </g>
     <g id="line2d_48">
      <defs>
       <path d="M 0 0 
L -3.5 0 
" id="ma7893cfc88" style="stroke:#000000;stroke-width:0.8;"/>
      </defs>
      <g>
       <use style="stroke:#000000;stroke-width:0.8;" x="117" xlink:href="#ma7893cfc88" y="419.083064"/>
      </g>
     </g>
     <g id="text_6">
      <!-- 20 -->
      <g transform="translate(97.275 422.882283)scale(0.1 -0.1)">
       <use xlink:href="#DejaVuSans-50"/>
       <use x="63.623047" xlink:href="#DejaVuSans-48"/>
      </g>
     </g>
    </g>
    <g id="ytick_2">
     <g id="line2d_49">
      <path clip-path="url(#pec3a1bbf12)" d="M 117 320.756005 
L 842.4 320.756005 
" style="fill:none;stroke:#d8dcd6;stroke-dasharray:0.8,1.32;stroke-dashoffset:0;stroke-width:0.8;"/>
     </g>
     <g id="line2d_50">
      <g>
       <use style="stroke:#000000;stroke-width:0.8;" x="117" xlink:href="#ma7893cfc88" y="320.756005"/>
      </g>
     </g>
     <g id="text_7">
      <!-- 40 -->
      <g transform="translate(97.275 324.555223)scale(0.1 -0.1)">
       <use xlink:href="#DejaVuSans-52"/>
       <use x="63.623047" xlink:href="#DejaVuSans-48"/>
      </g>
     </g>
    </g>
    <g id="ytick_3">
     <g id="line2d_51">
      <path clip-path="url(#pec3a1bbf12)" d="M 117 222.428945 
L 842.4 222.428945 
" style="fill:none;stroke:#d8dcd6;stroke-dasharray:0.8,1.32;stroke-dashoffset:0;stroke-width:0.8;"/>
     </g>
     <g id="line2d_52">
      <g>
       <use style="stroke:#000000;stroke-width:0.8;" x="117" xlink:href="#ma7893cfc88" y="222.428945"/>
      </g>
     </g>
     <g id="text_8">
      <!-- 60 -->
      <defs>
       <path d="M 33.015625 40.375 
Q 26.375 40.375 22.484375 35.828125 
Q 18.609375 31.296875 18.609375 23.390625 
Q 18.609375 15.53125 22.484375 10.953125 
Q 26.375 6.390625 33.015625 6.390625 
Q 39.65625 6.390625 43.53125 10.953125 
Q 47.40625 15.53125 47.40625 23.390625 
Q 47.40625 31.296875 43.53125 35.828125 
Q 39.65625 40.375 33.015625 40.375 
z
M 52.59375 71.296875 
L 52.59375 62.3125 
Q 48.875 64.0625 45.09375 64.984375 
Q 41.3125 65.921875 37.59375 65.921875 
Q 27.828125 65.921875 22.671875 59.328125 
Q 17.53125 52.734375 16.796875 39.40625 
Q 19.671875 43.65625 24.015625 45.921875 
Q 28.375 48.1875 33.59375 48.1875 
Q 44.578125 48.1875 50.953125 41.515625 
Q 57.328125 34.859375 57.328125 23.390625 
Q 57.328125 12.15625 50.6875 5.359375 
Q 44.046875 -1.421875 33.015625 -1.421875 
Q 20.359375 -1.421875 13.671875 8.265625 
Q 6.984375 17.96875 6.984375 36.375 
Q 6.984375 53.65625 15.1875 63.9375 
Q 23.390625 74.21875 37.203125 74.21875 
Q 40.921875 74.21875 44.703125 73.484375 
Q 48.484375 72.75 52.59375 71.296875 
z
" id="DejaVuSans-54"/>
      </defs>
      <g transform="translate(97.275 226.228164)scale(0.1 -0.1)">
       <use xlink:href="#DejaVuSans-54"/>
       <use x="63.623047" xlink:href="#DejaVuSans-48"/>
      </g>
     </g>
    </g>
    <g id="ytick_4">
     <g id="line2d_53">
      <path clip-path="url(#pec3a1bbf12)" d="M 117 124.101886 
L 842.4 124.101886 
" style="fill:none;stroke:#d8dcd6;stroke-dasharray:0.8,1.32;stroke-dashoffset:0;stroke-width:0.8;"/>
     </g>
     <g id="line2d_54">
      <g>
       <use style="stroke:#000000;stroke-width:0.8;" x="117" xlink:href="#ma7893cfc88" y="124.101886"/>
      </g>
     </g>
     <g id="text_9">
      <!-- 80 -->
      <defs>
       <path d="M 31.78125 34.625 
Q 24.75 34.625 20.71875 30.859375 
Q 16.703125 27.09375 16.703125 20.515625 
Q 16.703125 13.921875 20.71875 10.15625 
Q 24.75 6.390625 31.78125 6.390625 
Q 38.8125 6.390625 42.859375 10.171875 
Q 46.921875 13.96875 46.921875 20.515625 
Q 46.921875 27.09375 42.890625 30.859375 
Q 38.875 34.625 31.78125 34.625 
z
M 21.921875 38.8125 
Q 15.578125 40.375 12.03125 44.71875 
Q 8.5 49.078125 8.5 55.328125 
Q 8.5 64.0625 14.71875 69.140625 
Q 20.953125 74.21875 31.78125 74.21875 
Q 42.671875 74.21875 48.875 69.140625 
Q 55.078125 64.0625 55.078125 55.328125 
Q 55.078125 49.078125 51.53125 44.71875 
Q 48 40.375 41.703125 38.8125 
Q 48.828125 37.15625 52.796875 32.3125 
Q 56.78125 27.484375 56.78125 20.515625 
Q 56.78125 9.90625 50.3125 4.234375 
Q 43.84375 -1.421875 31.78125 -1.421875 
Q 19.734375 -1.421875 13.25 4.234375 
Q 6.78125 9.90625 6.78125 20.515625 
Q 6.78125 27.484375 10.78125 32.3125 
Q 14.796875 37.15625 21.921875 38.8125 
z
M 18.3125 54.390625 
Q 18.3125 48.734375 21.84375 45.5625 
Q 25.390625 42.390625 31.78125 42.390625 
Q 38.140625 42.390625 41.71875 45.5625 
Q 45.3125 48.734375 45.3125 54.390625 
Q 45.3125 60.0625 41.71875 63.234375 
Q 38.140625 66.40625 31.78125 66.40625 
Q 25.390625 66.40625 21.84375 63.234375 
Q 18.3125 60.0625 18.3125 54.390625 
z
" id="DejaVuSans-56"/>
      </defs>
      <g transform="translate(97.275 127.901104)scale(0.1 -0.1)">
       <use xlink:href="#DejaVuSans-56"/>
       <use x="63.623047" xlink:href="#DejaVuSans-48"/>
      </g>
     </g>
    </g>
    <g id="ytick_5">
     <g id="line2d_55">
      <path clip-path="url(#pec3a1bbf12)" d="M 117 492.828359 
L 842.4 492.828359 
" style="fill:none;stroke:#d8dcd6;stroke-dasharray:0.8,1.32;stroke-dashoffset:0;stroke-width:0.8;"/>
     </g>
     <g id="line2d_56">
      <defs>
       <path d="M 0 0 
L -2 0 
" id="mf224516def" style="stroke:#000000;stroke-width:0.6;"/>
      </defs>
      <g>
       <use style="stroke:#000000;stroke-width:0.6;" x="117" xlink:href="#mf224516def" y="492.828359"/>
      </g>
     </g>
    </g>
    <g id="ytick_6">
     <g id="line2d_57">
      <path clip-path="url(#pec3a1bbf12)" d="M 117 468.246594 
L 842.4 468.246594 
" style="fill:none;stroke:#d8dcd6;stroke-dasharray:0.8,1.32;stroke-dashoffset:0;stroke-width:0.8;"/>
     </g>
     <g id="line2d_58">
      <g>
       <use style="stroke:#000000;stroke-width:0.6;" x="117" xlink:href="#mf224516def" y="468.246594"/>
      </g>
     </g>
    </g>
    <g id="ytick_7">
     <g id="line2d_59">
      <path clip-path="url(#pec3a1bbf12)" d="M 117 443.664829 
L 842.4 443.664829 
" style="fill:none;stroke:#d8dcd6;stroke-dasharray:0.8,1.32;stroke-dashoffset:0;stroke-width:0.8;"/>
     </g>
     <g id="line2d_60">
      <g>
       <use style="stroke:#000000;stroke-width:0.6;" x="117" xlink:href="#mf224516def" y="443.664829"/>
      </g>
     </g>
    </g>
    <g id="ytick_8">
     <g id="line2d_61">
      <path clip-path="url(#pec3a1bbf12)" d="M 117 394.501299 
L 842.4 394.501299 
" style="fill:none;stroke:#d8dcd6;stroke-dasharray:0.8,1.32;stroke-dashoffset:0;stroke-width:0.8;"/>
     </g>
     <g id="line2d_62">
      <g>
       <use style="stroke:#000000;stroke-width:0.6;" x="117" xlink:href="#mf224516def" y="394.501299"/>
      </g>
     </g>
    </g>
    <g id="ytick_9">
     <g id="line2d_63">
      <path clip-path="url(#pec3a1bbf12)" d="M 117 369.919534 
L 842.4 369.919534 
" style="fill:none;stroke:#d8dcd6;stroke-dasharray:0.8,1.32;stroke-dashoffset:0;stroke-width:0.8;"/>
     </g>
     <g id="line2d_64">
      <g>
       <use style="stroke:#000000;stroke-width:0.6;" x="117" xlink:href="#mf224516def" y="369.919534"/>
      </g>
     </g>
    </g>
    <g id="ytick_10">
     <g id="line2d_65">
      <path clip-path="url(#pec3a1bbf12)" d="M 117 345.337769 
L 842.4 345.337769 
" style="fill:none;stroke:#d8dcd6;stroke-dasharray:0.8,1.32;stroke-dashoffset:0;stroke-width:0.8;"/>
     </g>
     <g id="line2d_66">
      <g>
       <use style="stroke:#000000;stroke-width:0.6;" x="117" xlink:href="#mf224516def" y="345.337769"/>
      </g>
     </g>
    </g>
    <g id="ytick_11">
     <g id="line2d_67">
      <path clip-path="url(#pec3a1bbf12)" d="M 117 296.17424 
L 842.4 296.17424 
" style="fill:none;stroke:#d8dcd6;stroke-dasharray:0.8,1.32;stroke-dashoffset:0;stroke-width:0.8;"/>
     </g>
     <g id="line2d_68">
      <g>
       <use style="stroke:#000000;stroke-width:0.6;" x="117" xlink:href="#mf224516def" y="296.17424"/>
      </g>
     </g>
    </g>
    <g id="ytick_12">
     <g id="line2d_69">
      <path clip-path="url(#pec3a1bbf12)" d="M 117 271.592475 
L 842.4 271.592475 
" style="fill:none;stroke:#d8dcd6;stroke-dasharray:0.8,1.32;stroke-dashoffset:0;stroke-width:0.8;"/>
     </g>
     <g id="line2d_70">
      <g>
       <use style="stroke:#000000;stroke-width:0.6;" x="117" xlink:href="#mf224516def" y="271.592475"/>
      </g>
     </g>
    </g>
    <g id="ytick_13">
     <g id="line2d_71">
      <path clip-path="url(#pec3a1bbf12)" d="M 117 247.01071 
L 842.4 247.01071 
" style="fill:none;stroke:#d8dcd6;stroke-dasharray:0.8,1.32;stroke-dashoffset:0;stroke-width:0.8;"/>
     </g>
     <g id="line2d_72">
      <g>
       <use style="stroke:#000000;stroke-width:0.6;" x="117" xlink:href="#mf224516def" y="247.01071"/>
      </g>
     </g>
    </g>
    <g id="ytick_14">
     <g id="line2d_73">
      <path clip-path="url(#pec3a1bbf12)" d="M 117 197.84718 
L 842.4 197.84718 
" style="fill:none;stroke:#d8dcd6;stroke-dasharray:0.8,1.32;stroke-dashoffset:0;stroke-width:0.8;"/>
     </g>
     <g id="line2d_74">
      <g>
       <use style="stroke:#000000;stroke-width:0.6;" x="117" xlink:href="#mf224516def" y="197.84718"/>
      </g>
     </g>
    </g>
    <g id="ytick_15">
     <g id="line2d_75">
      <path clip-path="url(#pec3a1bbf12)" d="M 117 173.265415 
L 842.4 173.265415 
" style="fill:none;stroke:#d8dcd6;stroke-dasharray:0.8,1.32;stroke-dashoffset:0;stroke-width:0.8;"/>
     </g>
     <g id="line2d_76">
      <g>
       <use style="stroke:#000000;stroke-width:0.6;" x="117" xlink:href="#mf224516def" y="173.265415"/>
      </g>
     </g>
    </g>
    <g id="ytick_16">
     <g id="line2d_77">
      <path clip-path="url(#pec3a1bbf12)" d="M 117 148.683651 
L 842.4 148.683651 
" style="fill:none;stroke:#d8dcd6;stroke-dasharray:0.8,1.32;stroke-dashoffset:0;stroke-width:0.8;"/>
     </g>
     <g id="line2d_78">
      <g>
       <use style="stroke:#000000;stroke-width:0.6;" x="117" xlink:href="#mf224516def" y="148.683651"/>
      </g>
     </g>
    </g>
    <g id="ytick_17">
     <g id="line2d_79">
      <path clip-path="url(#pec3a1bbf12)" d="M 117 99.520121 
L 842.4 99.520121 
" style="fill:none;stroke:#d8dcd6;stroke-dasharray:0.8,1.32;stroke-dashoffset:0;stroke-width:0.8;"/>
     </g>
     <g id="line2d_80">
      <g>
       <use style="stroke:#000000;stroke-width:0.6;" x="117" xlink:href="#mf224516def" y="99.520121"/>
      </g>
     </g>
    </g>
    <g id="ytick_18">
     <g id="line2d_81">
      <path clip-path="url(#pec3a1bbf12)" d="M 117 74.938356 
L 842.4 74.938356 
" style="fill:none;stroke:#d8dcd6;stroke-dasharray:0.8,1.32;stroke-dashoffset:0;stroke-width:0.8;"/>
     </g>
     <g id="line2d_82">
      <g>
       <use style="stroke:#000000;stroke-width:0.6;" x="117" xlink:href="#mf224516def" y="74.938356"/>
      </g>
     </g>
    </g>
    <g id="text_10">
     <!-- (backw avg) growth in percent per day -->
     <defs>
      <path d="M 31 75.875 
Q 24.46875 64.65625 21.28125 53.65625 
Q 18.109375 42.671875 18.109375 31.390625 
Q 18.109375 20.125 21.3125 9.0625 
Q 24.515625 -2 31 -13.1875 
L 23.1875 -13.1875 
Q 15.875 -1.703125 12.234375 9.375 
Q 8.59375 20.453125 8.59375 31.390625 
Q 8.59375 42.28125 12.203125 53.3125 
Q 15.828125 64.359375 23.1875 75.875 
z
" id="DejaVuSans-40"/>
      <path d="M 48.6875 27.296875 
Q 48.6875 37.203125 44.609375 42.84375 
Q 40.53125 48.484375 33.40625 48.484375 
Q 26.265625 48.484375 22.1875 42.84375 
Q 18.109375 37.203125 18.109375 27.296875 
Q 18.109375 17.390625 22.1875 11.75 
Q 26.265625 6.109375 33.40625 6.109375 
Q 40.53125 6.109375 44.609375 11.75 
Q 48.6875 17.390625 48.6875 27.296875 
z
M 18.109375 46.390625 
Q 20.953125 51.265625 25.265625 53.625 
Q 29.59375 56 35.59375 56 
Q 45.5625 56 51.78125 48.09375 
Q 58.015625 40.1875 58.015625 27.296875 
Q 58.015625 14.40625 51.78125 6.484375 
Q 45.5625 -1.421875 35.59375 -1.421875 
Q 29.59375 -1.421875 25.265625 0.953125 
Q 20.953125 3.328125 18.109375 8.203125 
L 18.109375 0 
L 9.078125 0 
L 9.078125 75.984375 
L 18.109375 75.984375 
z
" id="DejaVuSans-98"/>
      <path d="M 34.28125 27.484375 
Q 23.390625 27.484375 19.1875 25 
Q 14.984375 22.515625 14.984375 16.5 
Q 14.984375 11.71875 18.140625 8.90625 
Q 21.296875 6.109375 26.703125 6.109375 
Q 34.1875 6.109375 38.703125 11.40625 
Q 43.21875 16.703125 43.21875 25.484375 
L 43.21875 27.484375 
z
M 52.203125 31.203125 
L 52.203125 0 
L 43.21875 0 
L 43.21875 8.296875 
Q 40.140625 3.328125 35.546875 0.953125 
Q 30.953125 -1.421875 24.3125 -1.421875 
Q 15.921875 -1.421875 10.953125 3.296875 
Q 6 8.015625 6 15.921875 
Q 6 25.140625 12.171875 29.828125 
Q 18.359375 34.515625 30.609375 34.515625 
L 43.21875 34.515625 
L 43.21875 35.40625 
Q 43.21875 41.609375 39.140625 45 
Q 35.0625 48.390625 27.6875 48.390625 
Q 23 48.390625 18.546875 47.265625 
Q 14.109375 46.140625 10.015625 43.890625 
L 10.015625 52.203125 
Q 14.9375 54.109375 19.578125 55.046875 
Q 24.21875 56 28.609375 56 
Q 40.484375 56 46.34375 49.84375 
Q 52.203125 43.703125 52.203125 31.203125 
z
" id="DejaVuSans-97"/>
      <path d="M 48.78125 52.59375 
L 48.78125 44.1875 
Q 44.96875 46.296875 41.140625 47.34375 
Q 37.3125 48.390625 33.40625 48.390625 
Q 24.65625 48.390625 19.8125 42.84375 
Q 14.984375 37.3125 14.984375 27.296875 
Q 14.984375 17.28125 19.8125 11.734375 
Q 24.65625 6.203125 33.40625 6.203125 
Q 37.3125 6.203125 41.140625 7.25 
Q 44.96875 8.296875 48.78125 10.40625 
L 48.78125 2.09375 
Q 45.015625 0.34375 40.984375 -0.53125 
Q 36.96875 -1.421875 32.421875 -1.421875 
Q 20.0625 -1.421875 12.78125 6.34375 
Q 5.515625 14.109375 5.515625 27.296875 
Q 5.515625 40.671875 12.859375 48.328125 
Q 20.21875 56 33.015625 56 
Q 37.15625 56 41.109375 55.140625 
Q 45.0625 54.296875 48.78125 52.59375 
z
" id="DejaVuSans-99"/>
      <path d="M 9.078125 75.984375 
L 18.109375 75.984375 
L 18.109375 31.109375 
L 44.921875 54.6875 
L 56.390625 54.6875 
L 27.390625 29.109375 
L 57.625 0 
L 45.90625 0 
L 18.109375 26.703125 
L 18.109375 0 
L 9.078125 0 
z
" id="DejaVuSans-107"/>
      <path d="M 4.203125 54.6875 
L 13.1875 54.6875 
L 24.421875 12.015625 
L 35.59375 54.6875 
L 46.1875 54.6875 
L 57.421875 12.015625 
L 68.609375 54.6875 
L 77.59375 54.6875 
L 63.28125 0 
L 52.6875 0 
L 40.921875 44.828125 
L 29.109375 0 
L 18.5 0 
z
" id="DejaVuSans-119"/>
      <path id="DejaVuSans-32"/>
      <path d="M 2.984375 54.6875 
L 12.5 54.6875 
L 29.59375 8.796875 
L 46.6875 54.6875 
L 56.203125 54.6875 
L 35.6875 0 
L 23.484375 0 
z
" id="DejaVuSans-118"/>
      <path d="M 45.40625 27.984375 
Q 45.40625 37.75 41.375 43.109375 
Q 37.359375 48.484375 30.078125 48.484375 
Q 22.859375 48.484375 18.828125 43.109375 
Q 14.796875 37.75 14.796875 27.984375 
Q 14.796875 18.265625 18.828125 12.890625 
Q 22.859375 7.515625 30.078125 7.515625 
Q 37.359375 7.515625 41.375 12.890625 
Q 45.40625 18.265625 45.40625 27.984375 
z
M 54.390625 6.78125 
Q 54.390625 -7.171875 48.1875 -13.984375 
Q 42 -20.796875 29.203125 -20.796875 
Q 24.46875 -20.796875 20.265625 -20.09375 
Q 16.0625 -19.390625 12.109375 -17.921875 
L 12.109375 -9.1875 
Q 16.0625 -11.328125 19.921875 -12.34375 
Q 23.78125 -13.375 27.78125 -13.375 
Q 36.625 -13.375 41.015625 -8.765625 
Q 45.40625 -4.15625 45.40625 5.171875 
L 45.40625 9.625 
Q 42.625 4.78125 38.28125 2.390625 
Q 33.9375 0 27.875 0 
Q 17.828125 0 11.671875 7.65625 
Q 5.515625 15.328125 5.515625 27.984375 
Q 5.515625 40.671875 11.671875 48.328125 
Q 17.828125 56 27.875 56 
Q 33.9375 56 38.28125 53.609375 
Q 42.625 51.21875 45.40625 46.390625 
L 45.40625 54.6875 
L 54.390625 54.6875 
z
" id="DejaVuSans-103"/>
      <path d="M 8.015625 75.875 
L 15.828125 75.875 
Q 23.140625 64.359375 26.78125 53.3125 
Q 30.421875 42.28125 30.421875 31.390625 
Q 30.421875 20.453125 26.78125 9.375 
Q 23.140625 -1.703125 15.828125 -13.1875 
L 8.015625 -13.1875 
Q 14.5 -2 17.703125 9.0625 
Q 20.90625 20.125 20.90625 31.390625 
Q 20.90625 42.671875 17.703125 53.65625 
Q 14.5 64.65625 8.015625 75.875 
z
" id="DejaVuSans-41"/>
      <path d="M 41.109375 46.296875 
Q 39.59375 47.171875 37.8125 47.578125 
Q 36.03125 48 33.890625 48 
Q 26.265625 48 22.1875 43.046875 
Q 18.109375 38.09375 18.109375 28.8125 
L 18.109375 0 
L 9.078125 0 
L 9.078125 54.6875 
L 18.109375 54.6875 
L 18.109375 46.1875 
Q 20.953125 51.171875 25.484375 53.578125 
Q 30.03125 56 36.53125 56 
Q 37.453125 56 38.578125 55.875 
Q 39.703125 55.765625 41.0625 55.515625 
z
" id="DejaVuSans-114"/>
      <path d="M 30.609375 48.390625 
Q 23.390625 48.390625 19.1875 42.75 
Q 14.984375 37.109375 14.984375 27.296875 
Q 14.984375 17.484375 19.15625 11.84375 
Q 23.34375 6.203125 30.609375 6.203125 
Q 37.796875 6.203125 41.984375 11.859375 
Q 46.1875 17.53125 46.1875 27.296875 
Q 46.1875 37.015625 41.984375 42.703125 
Q 37.796875 48.390625 30.609375 48.390625 
z
M 30.609375 56 
Q 42.328125 56 49.015625 48.375 
Q 55.71875 40.765625 55.71875 27.296875 
Q 55.71875 13.875 49.015625 6.21875 
Q 42.328125 -1.421875 30.609375 -1.421875 
Q 18.84375 -1.421875 12.171875 6.21875 
Q 5.515625 13.875 5.515625 27.296875 
Q 5.515625 40.765625 12.171875 48.375 
Q 18.84375 56 30.609375 56 
z
" id="DejaVuSans-111"/>
      <path d="M 18.3125 70.21875 
L 18.3125 54.6875 
L 36.8125 54.6875 
L 36.8125 47.703125 
L 18.3125 47.703125 
L 18.3125 18.015625 
Q 18.3125 11.328125 20.140625 9.421875 
Q 21.96875 7.515625 27.59375 7.515625 
L 36.8125 7.515625 
L 36.8125 0 
L 27.59375 0 
Q 17.1875 0 13.234375 3.875 
Q 9.28125 7.765625 9.28125 18.015625 
L 9.28125 47.703125 
L 2.6875 47.703125 
L 2.6875 54.6875 
L 9.28125 54.6875 
L 9.28125 70.21875 
z
" id="DejaVuSans-116"/>
      <path d="M 54.890625 33.015625 
L 54.890625 0 
L 45.90625 0 
L 45.90625 32.71875 
Q 45.90625 40.484375 42.875 44.328125 
Q 39.84375 48.1875 33.796875 48.1875 
Q 26.515625 48.1875 22.3125 43.546875 
Q 18.109375 38.921875 18.109375 30.90625 
L 18.109375 0 
L 9.078125 0 
L 9.078125 75.984375 
L 18.109375 75.984375 
L 18.109375 46.1875 
Q 21.34375 51.125 25.703125 53.5625 
Q 30.078125 56 35.796875 56 
Q 45.21875 56 50.046875 50.171875 
Q 54.890625 44.34375 54.890625 33.015625 
z
" id="DejaVuSans-104"/>
      <path d="M 9.421875 54.6875 
L 18.40625 54.6875 
L 18.40625 0 
L 9.421875 0 
z
M 9.421875 75.984375 
L 18.40625 75.984375 
L 18.40625 64.59375 
L 9.421875 64.59375 
z
" id="DejaVuSans-105"/>
      <path d="M 54.890625 33.015625 
L 54.890625 0 
L 45.90625 0 
L 45.90625 32.71875 
Q 45.90625 40.484375 42.875 44.328125 
Q 39.84375 48.1875 33.796875 48.1875 
Q 26.515625 48.1875 22.3125 43.546875 
Q 18.109375 38.921875 18.109375 30.90625 
L 18.109375 0 
L 9.078125 0 
L 9.078125 54.6875 
L 18.109375 54.6875 
L 18.109375 46.1875 
Q 21.34375 51.125 25.703125 53.5625 
Q 30.078125 56 35.796875 56 
Q 45.21875 56 50.046875 50.171875 
Q 54.890625 44.34375 54.890625 33.015625 
z
" id="DejaVuSans-110"/>
      <path d="M 18.109375 8.203125 
L 18.109375 -20.796875 
L 9.078125 -20.796875 
L 9.078125 54.6875 
L 18.109375 54.6875 
L 18.109375 46.390625 
Q 20.953125 51.265625 25.265625 53.625 
Q 29.59375 56 35.59375 56 
Q 45.5625 56 51.78125 48.09375 
Q 58.015625 40.1875 58.015625 27.296875 
Q 58.015625 14.40625 51.78125 6.484375 
Q 45.5625 -1.421875 35.59375 -1.421875 
Q 29.59375 -1.421875 25.265625 0.953125 
Q 20.953125 3.328125 18.109375 8.203125 
z
M 48.6875 27.296875 
Q 48.6875 37.203125 44.609375 42.84375 
Q 40.53125 48.484375 33.40625 48.484375 
Q 26.265625 48.484375 22.1875 42.84375 
Q 18.109375 37.203125 18.109375 27.296875 
Q 18.109375 17.390625 22.1875 11.75 
Q 26.265625 6.109375 33.40625 6.109375 
Q 40.53125 6.109375 44.609375 11.75 
Q 48.6875 17.390625 48.6875 27.296875 
z
" id="DejaVuSans-112"/>
      <path d="M 56.203125 29.59375 
L 56.203125 25.203125 
L 14.890625 25.203125 
Q 15.484375 15.921875 20.484375 11.0625 
Q 25.484375 6.203125 34.421875 6.203125 
Q 39.59375 6.203125 44.453125 7.46875 
Q 49.3125 8.734375 54.109375 11.28125 
L 54.109375 2.78125 
Q 49.265625 0.734375 44.1875 -0.34375 
Q 39.109375 -1.421875 33.890625 -1.421875 
Q 20.796875 -1.421875 13.15625 6.1875 
Q 5.515625 13.8125 5.515625 26.8125 
Q 5.515625 40.234375 12.765625 48.109375 
Q 20.015625 56 32.328125 56 
Q 43.359375 56 49.78125 48.890625 
Q 56.203125 41.796875 56.203125 29.59375 
z
M 47.21875 32.234375 
Q 47.125 39.59375 43.09375 43.984375 
Q 39.0625 48.390625 32.421875 48.390625 
Q 24.90625 48.390625 20.390625 44.140625 
Q 15.875 39.890625 15.1875 32.171875 
z
" id="DejaVuSans-101"/>
      <path d="M 45.40625 46.390625 
L 45.40625 75.984375 
L 54.390625 75.984375 
L 54.390625 0 
L 45.40625 0 
L 45.40625 8.203125 
Q 42.578125 3.328125 38.25 0.953125 
Q 33.9375 -1.421875 27.875 -1.421875 
Q 17.96875 -1.421875 11.734375 6.484375 
Q 5.515625 14.40625 5.515625 27.296875 
Q 5.515625 40.1875 11.734375 48.09375 
Q 17.96875 56 27.875 56 
Q 33.9375 56 38.25 53.625 
Q 42.578125 51.265625 45.40625 46.390625 
z
M 14.796875 27.296875 
Q 14.796875 17.390625 18.875 11.75 
Q 22.953125 6.109375 30.078125 6.109375 
Q 37.203125 6.109375 41.296875 11.75 
Q 45.40625 17.390625 45.40625 27.296875 
Q 45.40625 37.203125 41.296875 42.84375 
Q 37.203125 48.484375 30.078125 48.484375 
Q 22.953125 48.484375 18.875 42.84375 
Q 14.796875 37.203125 14.796875 27.296875 
z
" id="DejaVuSans-100"/>
      <path d="M 32.171875 -5.078125 
Q 28.375 -14.84375 24.75 -17.8125 
Q 21.140625 -20.796875 15.09375 -20.796875 
L 7.90625 -20.796875 
L 7.90625 -13.28125 
L 13.1875 -13.28125 
Q 16.890625 -13.28125 18.9375 -11.515625 
Q 21 -9.765625 23.484375 -3.21875 
L 25.09375 0.875 
L 2.984375 54.6875 
L 12.5 54.6875 
L 29.59375 11.921875 
L 46.6875 54.6875 
L 56.203125 54.6875 
z
" id="DejaVuSans-121"/>
     </defs>
     <g transform="translate(91.195312 388.090156)rotate(-90)scale(0.1 -0.1)">
      <use xlink:href="#DejaVuSans-40"/>
      <use x="39.013672" xlink:href="#DejaVuSans-98"/>
      <use x="102.490234" xlink:href="#DejaVuSans-97"/>
      <use x="163.769531" xlink:href="#DejaVuSans-99"/>
      <use x="218.75" xlink:href="#DejaVuSans-107"/>
      <use x="276.660156" xlink:href="#DejaVuSans-119"/>
      <use x="358.447266" xlink:href="#DejaVuSans-32"/>
      <use x="390.234375" xlink:href="#DejaVuSans-97"/>
      <use x="451.513672" xlink:href="#DejaVuSans-118"/>
      <use x="510.693359" xlink:href="#DejaVuSans-103"/>
      <use x="574.169922" xlink:href="#DejaVuSans-41"/>
      <use x="613.183594" xlink:href="#DejaVuSans-32"/>
      <use x="644.970703" xlink:href="#DejaVuSans-103"/>
      <use x="708.447266" xlink:href="#DejaVuSans-114"/>
      <use x="747.310547" xlink:href="#DejaVuSans-111"/>
      <use x="808.492188" xlink:href="#DejaVuSans-119"/>
      <use x="890.279297" xlink:href="#DejaVuSans-116"/>
      <use x="929.488281" xlink:href="#DejaVuSans-104"/>
      <use x="992.867188" xlink:href="#DejaVuSans-32"/>
      <use x="1024.654297" xlink:href="#DejaVuSans-105"/>
      <use x="1052.4375" xlink:href="#DejaVuSans-110"/>
      <use x="1115.816406" xlink:href="#DejaVuSans-32"/>
      <use x="1147.603516" xlink:href="#DejaVuSans-112"/>
      <use x="1211.080078" xlink:href="#DejaVuSans-101"/>
      <use x="1272.603516" xlink:href="#DejaVuSans-114"/>
      <use x="1311.466797" xlink:href="#DejaVuSans-99"/>
      <use x="1366.447266" xlink:href="#DejaVuSans-101"/>
      <use x="1427.970703" xlink:href="#DejaVuSans-110"/>
      <use x="1491.349609" xlink:href="#DejaVuSans-116"/>
      <use x="1530.558594" xlink:href="#DejaVuSans-32"/>
      <use x="1562.345703" xlink:href="#DejaVuSans-112"/>
      <use x="1625.822266" xlink:href="#DejaVuSans-101"/>
      <use x="1687.345703" xlink:href="#DejaVuSans-114"/>
      <use x="1728.458984" xlink:href="#DejaVuSans-32"/>
      <use x="1760.246094" xlink:href="#DejaVuSans-100"/>
      <use x="1823.722656" xlink:href="#DejaVuSans-97"/>
      <use x="1885.001953" xlink:href="#DejaVuSans-121"/>
     </g>
    </g>
   </g>
   <g id="line2d_83">
    <path clip-path="url(#pec3a1bbf12)" d="M 149.972727 157.508107 
L 166.056984 89.28 
L 182.141242 111.44628 
L 198.225499 365.343717 
L 214.309756 368.031418 
L 230.394013 358.673055 
L 246.478271 366.923355 
L 262.562528 383.479809 
L 278.646785 350.712264 
L 294.731042 259.63946 
L 310.815299 303.811371 
L 326.899557 336.130175 
L 342.983814 341.955652 
L 359.068071 392.18038 
L 375.152328 338.928652 
L 391.236585 316.009746 
L 407.320843 363.514287 
L 423.4051 351.984989 
L 439.489357 446.210376 
L 455.573614 400.760355 
L 471.657871 360.078902 
L 487.742129 421.359229 
L 503.826386 407.405306 
L 519.910643 430.744083 
L 535.9949 431.508594 
L 552.079157 435.627596 
L 568.163415 436.986226 
L 584.247672 423.80656 
L 600.331929 436.098336 
L 616.416186 457.299647 
L 632.500443 460.385137 
L 648.584701 462.764653 
L 664.668958 469.466901 
L 680.753215 466.599951 
L 696.837472 465.997523 
L 712.921729 474.970988 
L 729.005987 480.351102 
L 745.090244 481.142041 
L 761.174501 485.290605 
L 777.258758 488.829021 
L 793.343016 489.677108 
L 809.427273 492.48 
" style="fill:none;stroke:#1f77b4;stroke-linecap:square;stroke-width:1.5;"/>
    <defs>
     <path d="M 0 3 
C 0.795609 3 1.55874 2.683901 2.12132 2.12132 
C 2.683901 1.55874 3 0.795609 3 0 
C 3 -0.795609 2.683901 -1.55874 2.12132 -2.12132 
C 1.55874 -2.683901 0.795609 -3 0 -3 
C -0.795609 -3 -1.55874 -2.683901 -2.12132 -2.12132 
C -2.683901 -1.55874 -3 -0.795609 -3 0 
C -3 0.795609 -2.683901 1.55874 -2.12132 2.12132 
C -1.55874 2.683901 -0.795609 3 0 3 
z
" id="m2dca0f81cf" style="stroke:#1f77b4;"/>
    </defs>
    <g clip-path="url(#pec3a1bbf12)">
     <use style="fill:#1f77b4;stroke:#1f77b4;" x="149.972727" xlink:href="#m2dca0f81cf" y="157.508107"/>
     <use style="fill:#1f77b4;stroke:#1f77b4;" x="166.056984" xlink:href="#m2dca0f81cf" y="89.28"/>
     <use style="fill:#1f77b4;stroke:#1f77b4;" x="182.141242" xlink:href="#m2dca0f81cf" y="111.44628"/>
     <use style="fill:#1f77b4;stroke:#1f77b4;" x="198.225499" xlink:href="#m2dca0f81cf" y="365.343717"/>
     <use style="fill:#1f77b4;stroke:#1f77b4;" x="214.309756" xlink:href="#m2dca0f81cf" y="368.031418"/>
     <use style="fill:#1f77b4;stroke:#1f77b4;" x="230.394013" xlink:href="#m2dca0f81cf" y="358.673055"/>
     <use style="fill:#1f77b4;stroke:#1f77b4;" x="246.478271" xlink:href="#m2dca0f81cf" y="366.923355"/>
     <use style="fill:#1f77b4;stroke:#1f77b4;" x="262.562528" xlink:href="#m2dca0f81cf" y="383.479809"/>
     <use style="fill:#1f77b4;stroke:#1f77b4;" x="278.646785" xlink:href="#m2dca0f81cf" y="350.712264"/>
     <use style="fill:#1f77b4;stroke:#1f77b4;" x="294.731042" xlink:href="#m2dca0f81cf" y="259.63946"/>
     <use style="fill:#1f77b4;stroke:#1f77b4;" x="310.815299" xlink:href="#m2dca0f81cf" y="303.811371"/>
     <use style="fill:#1f77b4;stroke:#1f77b4;" x="326.899557" xlink:href="#m2dca0f81cf" y="336.130175"/>
     <use style="fill:#1f77b4;stroke:#1f77b4;" x="342.983814" xlink:href="#m2dca0f81cf" y="341.955652"/>
     <use style="fill:#1f77b4;stroke:#1f77b4;" x="359.068071" xlink:href="#m2dca0f81cf" y="392.18038"/>
     <use style="fill:#1f77b4;stroke:#1f77b4;" x="375.152328" xlink:href="#m2dca0f81cf" y="338.928652"/>
     <use style="fill:#1f77b4;stroke:#1f77b4;" x="391.236585" xlink:href="#m2dca0f81cf" y="316.009746"/>
     <use style="fill:#1f77b4;stroke:#1f77b4;" x="407.320843" xlink:href="#m2dca0f81cf" y="363.514287"/>
     <use style="fill:#1f77b4;stroke:#1f77b4;" x="423.4051" xlink:href="#m2dca0f81cf" y="351.984989"/>
     <use style="fill:#1f77b4;stroke:#1f77b4;" x="439.489357" xlink:href="#m2dca0f81cf" y="446.210376"/>
     <use style="fill:#1f77b4;stroke:#1f77b4;" x="455.573614" xlink:href="#m2dca0f81cf" y="400.760355"/>
     <use style="fill:#1f77b4;stroke:#1f77b4;" x="471.657871" xlink:href="#m2dca0f81cf" y="360.078902"/>
     <use style="fill:#1f77b4;stroke:#1f77b4;" x="487.742129" xlink:href="#m2dca0f81cf" y="421.359229"/>
     <use style="fill:#1f77b4;stroke:#1f77b4;" x="503.826386" xlink:href="#m2dca0f81cf" y="407.405306"/>
     <use style="fill:#1f77b4;stroke:#1f77b4;" x="519.910643" xlink:href="#m2dca0f81cf" y="430.744083"/>
     <use style="fill:#1f77b4;stroke:#1f77b4;" x="535.9949" xlink:href="#m2dca0f81cf" y="431.508594"/>
     <use style="fill:#1f77b4;stroke:#1f77b4;" x="552.079157" xlink:href="#m2dca0f81cf" y="435.627596"/>
     <use style="fill:#1f77b4;stroke:#1f77b4;" x="568.163415" xlink:href="#m2dca0f81cf" y="436.986226"/>
     <use style="fill:#1f77b4;stroke:#1f77b4;" x="584.247672" xlink:href="#m2dca0f81cf" y="423.80656"/>
     <use style="fill:#1f77b4;stroke:#1f77b4;" x="600.331929" xlink:href="#m2dca0f81cf" y="436.098336"/>
     <use style="fill:#1f77b4;stroke:#1f77b4;" x="616.416186" xlink:href="#m2dca0f81cf" y="457.299647"/>
     <use style="fill:#1f77b4;stroke:#1f77b4;" x="632.500443" xlink:href="#m2dca0f81cf" y="460.385137"/>
     <use style="fill:#1f77b4;stroke:#1f77b4;" x="648.584701" xlink:href="#m2dca0f81cf" y="462.764653"/>
     <use style="fill:#1f77b4;stroke:#1f77b4;" x="664.668958" xlink:href="#m2dca0f81cf" y="469.466901"/>
     <use style="fill:#1f77b4;stroke:#1f77b4;" x="680.753215" xlink:href="#m2dca0f81cf" y="466.599951"/>
     <use style="fill:#1f77b4;stroke:#1f77b4;" x="696.837472" xlink:href="#m2dca0f81cf" y="465.997523"/>
     <use style="fill:#1f77b4;stroke:#1f77b4;" x="712.921729" xlink:href="#m2dca0f81cf" y="474.970988"/>
     <use style="fill:#1f77b4;stroke:#1f77b4;" x="729.005987" xlink:href="#m2dca0f81cf" y="480.351102"/>
     <use style="fill:#1f77b4;stroke:#1f77b4;" x="745.090244" xlink:href="#m2dca0f81cf" y="481.142041"/>
     <use style="fill:#1f77b4;stroke:#1f77b4;" x="761.174501" xlink:href="#m2dca0f81cf" y="485.290605"/>
     <use style="fill:#1f77b4;stroke:#1f77b4;" x="777.258758" xlink:href="#m2dca0f81cf" y="488.829021"/>
     <use style="fill:#1f77b4;stroke:#1f77b4;" x="793.343016" xlink:href="#m2dca0f81cf" y="489.677108"/>
     <use style="fill:#1f77b4;stroke:#1f77b4;" x="809.427273" xlink:href="#m2dca0f81cf" y="492.48"/>
    </g>
   </g>
   <g id="line2d_84">
    <path clip-path="url(#pec3a1bbf12)" d="M 182.141242 134.780494 
L 198.225499 239.594598 
L 214.309756 250.51156 
L 230.394013 362.016982 
L 246.478271 367.477626 
L 262.562528 371.197016 
L 278.646785 358.868332 
L 294.731042 324.353813 
L 310.815299 327.665234 
L 326.899557 298.913957 
L 342.983814 323.148621 
L 359.068071 364.764511 
L 375.152328 340.443865 
L 391.236585 355.20333 
L 407.320843 351.336338 
L 423.4051 334.237063 
L 439.489357 406.278845 
L 455.573614 376.842884 
L 471.657871 404.677073 
L 487.742129 411.148495 
L 503.826386 384.190005 
L 519.910643 426.070541 
L 535.9949 419.580135 
L 552.079157 433.191016 
L 568.163415 434.253935 
L 584.247672 429.747229 
L 600.331929 436.542453 
L 616.416186 440.799815 
L 632.500443 448.373226 
L 648.584701 460.03895 
L 664.668958 464.944967 
L 680.753215 464.68568 
L 696.837472 467.734991 
L 712.921729 470.801743 
L 729.005987 473.222373 
L 745.090244 478.06548 
L 761.174501 482.826649 
L 777.258758 484.999626 
L 793.343016 487.488468 
L 809.427273 490.657725 
" style="fill:none;stroke:#ff7f0e;stroke-linecap:square;stroke-width:1.5;"/>
    <defs>
     <path d="M 0 3 
C 0.795609 3 1.55874 2.683901 2.12132 2.12132 
C 2.683901 1.55874 3 0.795609 3 0 
C 3 -0.795609 2.683901 -1.55874 2.12132 -2.12132 
C 1.55874 -2.683901 0.795609 -3 0 -3 
C -0.795609 -3 -1.55874 -2.683901 -2.12132 -2.12132 
C -2.683901 -1.55874 -3 -0.795609 -3 0 
C -3 0.795609 -2.683901 1.55874 -2.12132 2.12132 
C -1.55874 2.683901 -0.795609 3 0 3 
z
" id="mf9828af161" style="stroke:#ff7f0e;"/>
    </defs>
    <g clip-path="url(#pec3a1bbf12)">
     <use style="fill:#ff7f0e;stroke:#ff7f0e;" x="182.141242" xlink:href="#mf9828af161" y="134.780494"/>
     <use style="fill:#ff7f0e;stroke:#ff7f0e;" x="198.225499" xlink:href="#mf9828af161" y="239.594598"/>
     <use style="fill:#ff7f0e;stroke:#ff7f0e;" x="214.309756" xlink:href="#mf9828af161" y="250.51156"/>
     <use style="fill:#ff7f0e;stroke:#ff7f0e;" x="230.394013" xlink:href="#mf9828af161" y="362.016982"/>
     <use style="fill:#ff7f0e;stroke:#ff7f0e;" x="246.478271" xlink:href="#mf9828af161" y="367.477626"/>
     <use style="fill:#ff7f0e;stroke:#ff7f0e;" x="262.562528" xlink:href="#mf9828af161" y="371.197016"/>
     <use style="fill:#ff7f0e;stroke:#ff7f0e;" x="278.646785" xlink:href="#mf9828af161" y="358.868332"/>
     <use style="fill:#ff7f0e;stroke:#ff7f0e;" x="294.731042" xlink:href="#mf9828af161" y="324.353813"/>
     <use style="fill:#ff7f0e;stroke:#ff7f0e;" x="310.815299" xlink:href="#mf9828af161" y="327.665234"/>
     <use style="fill:#ff7f0e;stroke:#ff7f0e;" x="326.899557" xlink:href="#mf9828af161" y="298.913957"/>
     <use style="fill:#ff7f0e;stroke:#ff7f0e;" x="342.983814" xlink:href="#mf9828af161" y="323.148621"/>
     <use style="fill:#ff7f0e;stroke:#ff7f0e;" x="359.068071" xlink:href="#mf9828af161" y="364.764511"/>
     <use style="fill:#ff7f0e;stroke:#ff7f0e;" x="375.152328" xlink:href="#mf9828af161" y="340.443865"/>
     <use style="fill:#ff7f0e;stroke:#ff7f0e;" x="391.236585" xlink:href="#mf9828af161" y="355.20333"/>
     <use style="fill:#ff7f0e;stroke:#ff7f0e;" x="407.320843" xlink:href="#mf9828af161" y="351.336338"/>
     <use style="fill:#ff7f0e;stroke:#ff7f0e;" x="423.4051" xlink:href="#mf9828af161" y="334.237063"/>
     <use style="fill:#ff7f0e;stroke:#ff7f0e;" x="439.489357" xlink:href="#mf9828af161" y="406.278845"/>
     <use style="fill:#ff7f0e;stroke:#ff7f0e;" x="455.573614" xlink:href="#mf9828af161" y="376.842884"/>
     <use style="fill:#ff7f0e;stroke:#ff7f0e;" x="471.657871" xlink:href="#mf9828af161" y="404.677073"/>
     <use style="fill:#ff7f0e;stroke:#ff7f0e;" x="487.742129" xlink:href="#mf9828af161" y="411.148495"/>
     <use style="fill:#ff7f0e;stroke:#ff7f0e;" x="503.826386" xlink:href="#mf9828af161" y="384.190005"/>
     <use style="fill:#ff7f0e;stroke:#ff7f0e;" x="519.910643" xlink:href="#mf9828af161" y="426.070541"/>
     <use style="fill:#ff7f0e;stroke:#ff7f0e;" x="535.9949" xlink:href="#mf9828af161" y="419.580135"/>
     <use style="fill:#ff7f0e;stroke:#ff7f0e;" x="552.079157" xlink:href="#mf9828af161" y="433.191016"/>
     <use style="fill:#ff7f0e;stroke:#ff7f0e;" x="568.163415" xlink:href="#mf9828af161" y="434.253935"/>
     <use style="fill:#ff7f0e;stroke:#ff7f0e;" x="584.247672" xlink:href="#mf9828af161" y="429.747229"/>
     <use style="fill:#ff7f0e;stroke:#ff7f0e;" x="600.331929" xlink:href="#mf9828af161" y="436.542453"/>
     <use style="fill:#ff7f0e;stroke:#ff7f0e;" x="616.416186" xlink:href="#mf9828af161" y="440.799815"/>
     <use style="fill:#ff7f0e;stroke:#ff7f0e;" x="632.500443" xlink:href="#mf9828af161" y="448.373226"/>
     <use style="fill:#ff7f0e;stroke:#ff7f0e;" x="648.584701" xlink:href="#mf9828af161" y="460.03895"/>
     <use style="fill:#ff7f0e;stroke:#ff7f0e;" x="664.668958" xlink:href="#mf9828af161" y="464.944967"/>
     <use style="fill:#ff7f0e;stroke:#ff7f0e;" x="680.753215" xlink:href="#mf9828af161" y="464.68568"/>
     <use style="fill:#ff7f0e;stroke:#ff7f0e;" x="696.837472" xlink:href="#mf9828af161" y="467.734991"/>
     <use style="fill:#ff7f0e;stroke:#ff7f0e;" x="712.921729" xlink:href="#mf9828af161" y="470.801743"/>
     <use style="fill:#ff7f0e;stroke:#ff7f0e;" x="729.005987" xlink:href="#mf9828af161" y="473.222373"/>
     <use style="fill:#ff7f0e;stroke:#ff7f0e;" x="745.090244" xlink:href="#mf9828af161" y="478.06548"/>
     <use style="fill:#ff7f0e;stroke:#ff7f0e;" x="761.174501" xlink:href="#mf9828af161" y="482.826649"/>
     <use style="fill:#ff7f0e;stroke:#ff7f0e;" x="777.258758" xlink:href="#mf9828af161" y="484.999626"/>
     <use style="fill:#ff7f0e;stroke:#ff7f0e;" x="793.343016" xlink:href="#mf9828af161" y="487.488468"/>
     <use style="fill:#ff7f0e;stroke:#ff7f0e;" x="809.427273" xlink:href="#mf9828af161" y="490.657725"/>
    </g>
   </g>
   <g id="line2d_85">
    <path clip-path="url(#pec3a1bbf12)" d="M 230.394013 249.538866 
L 246.478271 288.680144 
L 262.562528 313.595953 
L 278.646785 354.321665 
L 294.731042 348.541352 
L 310.815299 337.019113 
L 326.899557 339.311915 
L 342.983814 332.128337 
L 359.068071 346.946684 
L 375.152328 318.691275 
L 391.236585 337.157234 
L 407.320843 347.50305 
L 423.4051 350.603324 
L 439.489357 380.419667 
L 455.573614 367.736943 
L 471.657871 371.241677 
L 487.742129 391.342238 
L 503.826386 396.499243 
L 519.910643 410.450167 
L 535.9949 418.665592 
L 552.079157 407.255771 
L 568.163415 428.932416 
L 584.247672 424.767807 
L 600.331929 433.127099 
L 616.416186 439.042571 
L 632.500443 441.720148 
L 648.584701 448.032205 
L 664.668958 451.494485 
L 680.753215 456.488007 
L 696.837472 463.287236 
L 712.921729 467.469323 
L 729.005987 469.901487 
L 745.090244 473.404143 
L 761.174501 476.349202 
L 777.258758 478.967669 
L 793.343016 482.925015 
L 809.427273 486.485716 
" style="fill:none;stroke:#2ca02c;stroke-linecap:square;stroke-width:1.5;"/>
    <defs>
     <path d="M 0 3 
C 0.795609 3 1.55874 2.683901 2.12132 2.12132 
C 2.683901 1.55874 3 0.795609 3 0 
C 3 -0.795609 2.683901 -1.55874 2.12132 -2.12132 
C 1.55874 -2.683901 0.795609 -3 0 -3 
C -0.795609 -3 -1.55874 -2.683901 -2.12132 -2.12132 
C -2.683901 -1.55874 -3 -0.795609 -3 0 
C -3 0.795609 -2.683901 1.55874 -2.12132 2.12132 
C -1.55874 2.683901 -0.795609 3 0 3 
z
" id="m3fec7e231d" style="stroke:#2ca02c;"/>
    </defs>
    <g clip-path="url(#pec3a1bbf12)">
     <use style="fill:#2ca02c;stroke:#2ca02c;" x="230.394013" xlink:href="#m3fec7e231d" y="249.538866"/>
     <use style="fill:#2ca02c;stroke:#2ca02c;" x="246.478271" xlink:href="#m3fec7e231d" y="288.680144"/>
     <use style="fill:#2ca02c;stroke:#2ca02c;" x="262.562528" xlink:href="#m3fec7e231d" y="313.595953"/>
     <use style="fill:#2ca02c;stroke:#2ca02c;" x="278.646785" xlink:href="#m3fec7e231d" y="354.321665"/>
     <use style="fill:#2ca02c;stroke:#2ca02c;" x="294.731042" xlink:href="#m3fec7e231d" y="348.541352"/>
     <use style="fill:#2ca02c;stroke:#2ca02c;" x="310.815299" xlink:href="#m3fec7e231d" y="337.019113"/>
     <use style="fill:#2ca02c;stroke:#2ca02c;" x="326.899557" xlink:href="#m3fec7e231d" y="339.311915"/>
     <use style="fill:#2ca02c;stroke:#2ca02c;" x="342.983814" xlink:href="#m3fec7e231d" y="332.128337"/>
     <use style="fill:#2ca02c;stroke:#2ca02c;" x="359.068071" xlink:href="#m3fec7e231d" y="346.946684"/>
     <use style="fill:#2ca02c;stroke:#2ca02c;" x="375.152328" xlink:href="#m3fec7e231d" y="318.691275"/>
     <use style="fill:#2ca02c;stroke:#2ca02c;" x="391.236585" xlink:href="#m3fec7e231d" y="337.157234"/>
     <use style="fill:#2ca02c;stroke:#2ca02c;" x="407.320843" xlink:href="#m3fec7e231d" y="347.50305"/>
     <use style="fill:#2ca02c;stroke:#2ca02c;" x="423.4051" xlink:href="#m3fec7e231d" y="350.603324"/>
     <use style="fill:#2ca02c;stroke:#2ca02c;" x="439.489357" xlink:href="#m3fec7e231d" y="380.419667"/>
     <use style="fill:#2ca02c;stroke:#2ca02c;" x="455.573614" xlink:href="#m3fec7e231d" y="367.736943"/>
     <use style="fill:#2ca02c;stroke:#2ca02c;" x="471.657871" xlink:href="#m3fec7e231d" y="371.241677"/>
     <use style="fill:#2ca02c;stroke:#2ca02c;" x="487.742129" xlink:href="#m3fec7e231d" y="391.342238"/>
     <use style="fill:#2ca02c;stroke:#2ca02c;" x="503.826386" xlink:href="#m3fec7e231d" y="396.499243"/>
     <use style="fill:#2ca02c;stroke:#2ca02c;" x="519.910643" xlink:href="#m3fec7e231d" y="410.450167"/>
     <use style="fill:#2ca02c;stroke:#2ca02c;" x="535.9949" xlink:href="#m3fec7e231d" y="418.665592"/>
     <use style="fill:#2ca02c;stroke:#2ca02c;" x="552.079157" xlink:href="#m3fec7e231d" y="407.255771"/>
     <use style="fill:#2ca02c;stroke:#2ca02c;" x="568.163415" xlink:href="#m3fec7e231d" y="428.932416"/>
     <use style="fill:#2ca02c;stroke:#2ca02c;" x="584.247672" xlink:href="#m3fec7e231d" y="424.767807"/>
     <use style="fill:#2ca02c;stroke:#2ca02c;" x="600.331929" xlink:href="#m3fec7e231d" y="433.127099"/>
     <use style="fill:#2ca02c;stroke:#2ca02c;" x="616.416186" xlink:href="#m3fec7e231d" y="439.042571"/>
     <use style="fill:#2ca02c;stroke:#2ca02c;" x="632.500443" xlink:href="#m3fec7e231d" y="441.720148"/>
     <use style="fill:#2ca02c;stroke:#2ca02c;" x="648.584701" xlink:href="#m3fec7e231d" y="448.032205"/>
     <use style="fill:#2ca02c;stroke:#2ca02c;" x="664.668958" xlink:href="#m3fec7e231d" y="451.494485"/>
     <use style="fill:#2ca02c;stroke:#2ca02c;" x="680.753215" xlink:href="#m3fec7e231d" y="456.488007"/>
     <use style="fill:#2ca02c;stroke:#2ca02c;" x="696.837472" xlink:href="#m3fec7e231d" y="463.287236"/>
     <use style="fill:#2ca02c;stroke:#2ca02c;" x="712.921729" xlink:href="#m3fec7e231d" y="467.469323"/>
     <use style="fill:#2ca02c;stroke:#2ca02c;" x="729.005987" xlink:href="#m3fec7e231d" y="469.901487"/>
     <use style="fill:#2ca02c;stroke:#2ca02c;" x="745.090244" xlink:href="#m3fec7e231d" y="473.404143"/>
     <use style="fill:#2ca02c;stroke:#2ca02c;" x="761.174501" xlink:href="#m3fec7e231d" y="476.349202"/>
     <use style="fill:#2ca02c;stroke:#2ca02c;" x="777.258758" xlink:href="#m3fec7e231d" y="478.967669"/>
     <use style="fill:#2ca02c;stroke:#2ca02c;" x="793.343016" xlink:href="#m3fec7e231d" y="482.925015"/>
     <use style="fill:#2ca02c;stroke:#2ca02c;" x="809.427273" xlink:href="#m3fec7e231d" y="486.485716"/>
    </g>
   </g>
   <g id="line2d_86">
    <path clip-path="url(#pec3a1bbf12)" d="M 342.983814 292.021738 
L 359.068071 318.427625 
L 375.152328 316.148298 
L 391.236585 345.794972 
L 407.320843 348.022405 
L 423.4051 343.845894 
L 439.489357 360.191254 
L 455.573614 350.173153 
L 471.657871 359.207708 
L 487.742129 356.026315 
L 503.826386 367.514018 
L 519.910643 379.763192 
L 535.9949 385.562516 
L 552.079157 393.984065 
L 568.163415 399.101663 
L 584.247672 398.591123 
L 600.331929 412.600469 
L 616.416186 418.153665 
L 632.500443 426.29486 
L 648.584701 433.53618 
L 664.668958 429.797303 
L 680.753215 442.877829 
L 696.837472 444.355869 
L 712.921729 450.56212 
L 729.005987 454.686712 
L 745.090244 457.789732 
L 761.174501 462.374022 
L 777.258758 465.404596 
L 793.343016 469.86852 
L 809.427273 475.01243 
" style="fill:none;stroke:#d62728;stroke-linecap:square;stroke-width:1.5;"/>
    <defs>
     <path d="M 0 3 
C 0.795609 3 1.55874 2.683901 2.12132 2.12132 
C 2.683901 1.55874 3 0.795609 3 0 
C 3 -0.795609 2.683901 -1.55874 2.12132 -2.12132 
C 1.55874 -2.683901 0.795609 -3 0 -3 
C -0.795609 -3 -1.55874 -2.683901 -2.12132 -2.12132 
C -2.683901 -1.55874 -3 -0.795609 -3 0 
C -3 0.795609 -2.683901 1.55874 -2.12132 2.12132 
C -1.55874 2.683901 -0.795609 3 0 3 
z
" id="m9bedb4a1fd" style="stroke:#d62728;"/>
    </defs>
    <g clip-path="url(#pec3a1bbf12)">
     <use style="fill:#d62728;stroke:#d62728;" x="342.983814" xlink:href="#m9bedb4a1fd" y="292.021738"/>
     <use style="fill:#d62728;stroke:#d62728;" x="359.068071" xlink:href="#m9bedb4a1fd" y="318.427625"/>
     <use style="fill:#d62728;stroke:#d62728;" x="375.152328" xlink:href="#m9bedb4a1fd" y="316.148298"/>
     <use style="fill:#d62728;stroke:#d62728;" x="391.236585" xlink:href="#m9bedb4a1fd" y="345.794972"/>
     <use style="fill:#d62728;stroke:#d62728;" x="407.320843" xlink:href="#m9bedb4a1fd" y="348.022405"/>
     <use style="fill:#d62728;stroke:#d62728;" x="423.4051" xlink:href="#m9bedb4a1fd" y="343.845894"/>
     <use style="fill:#d62728;stroke:#d62728;" x="439.489357" xlink:href="#m9bedb4a1fd" y="360.191254"/>
     <use style="fill:#d62728;stroke:#d62728;" x="455.573614" xlink:href="#m9bedb4a1fd" y="350.173153"/>
     <use style="fill:#d62728;stroke:#d62728;" x="471.657871" xlink:href="#m9bedb4a1fd" y="359.207708"/>
     <use style="fill:#d62728;stroke:#d62728;" x="487.742129" xlink:href="#m9bedb4a1fd" y="356.026315"/>
     <use style="fill:#d62728;stroke:#d62728;" x="503.826386" xlink:href="#m9bedb4a1fd" y="367.514018"/>
     <use style="fill:#d62728;stroke:#d62728;" x="519.910643" xlink:href="#m9bedb4a1fd" y="379.763192"/>
     <use style="fill:#d62728;stroke:#d62728;" x="535.9949" xlink:href="#m9bedb4a1fd" y="385.562516"/>
     <use style="fill:#d62728;stroke:#d62728;" x="552.079157" xlink:href="#m9bedb4a1fd" y="393.984065"/>
     <use style="fill:#d62728;stroke:#d62728;" x="568.163415" xlink:href="#m9bedb4a1fd" y="399.101663"/>
     <use style="fill:#d62728;stroke:#d62728;" x="584.247672" xlink:href="#m9bedb4a1fd" y="398.591123"/>
     <use style="fill:#d62728;stroke:#d62728;" x="600.331929" xlink:href="#m9bedb4a1fd" y="412.600469"/>
     <use style="fill:#d62728;stroke:#d62728;" x="616.416186" xlink:href="#m9bedb4a1fd" y="418.153665"/>
     <use style="fill:#d62728;stroke:#d62728;" x="632.500443" xlink:href="#m9bedb4a1fd" y="426.29486"/>
     <use style="fill:#d62728;stroke:#d62728;" x="648.584701" xlink:href="#m9bedb4a1fd" y="433.53618"/>
     <use style="fill:#d62728;stroke:#d62728;" x="664.668958" xlink:href="#m9bedb4a1fd" y="429.797303"/>
     <use style="fill:#d62728;stroke:#d62728;" x="680.753215" xlink:href="#m9bedb4a1fd" y="442.877829"/>
     <use style="fill:#d62728;stroke:#d62728;" x="696.837472" xlink:href="#m9bedb4a1fd" y="444.355869"/>
     <use style="fill:#d62728;stroke:#d62728;" x="712.921729" xlink:href="#m9bedb4a1fd" y="450.56212"/>
     <use style="fill:#d62728;stroke:#d62728;" x="729.005987" xlink:href="#m9bedb4a1fd" y="454.686712"/>
     <use style="fill:#d62728;stroke:#d62728;" x="745.090244" xlink:href="#m9bedb4a1fd" y="457.789732"/>
     <use style="fill:#d62728;stroke:#d62728;" x="761.174501" xlink:href="#m9bedb4a1fd" y="462.374022"/>
     <use style="fill:#d62728;stroke:#d62728;" x="777.258758" xlink:href="#m9bedb4a1fd" y="465.404596"/>
     <use style="fill:#d62728;stroke:#d62728;" x="793.343016" xlink:href="#m9bedb4a1fd" y="469.86852"/>
     <use style="fill:#d62728;stroke:#d62728;" x="809.427273" xlink:href="#m9bedb4a1fd" y="475.01243"/>
    </g>
   </g>
   <g id="patch_3">
    <path d="M 117 512.64 
L 117 69.12 
" style="fill:none;stroke:#000000;stroke-linecap:square;stroke-linejoin:miter;stroke-width:0.8;"/>
   </g>
   <g id="patch_4">
    <path d="M 842.4 512.64 
L 842.4 69.12 
" style="fill:none;stroke:#000000;stroke-linecap:square;stroke-linejoin:miter;stroke-width:0.8;"/>
   </g>
   <g id="patch_5">
    <path d="M 117 512.64 
L 842.4 512.64 
" style="fill:none;stroke:#000000;stroke-linecap:square;stroke-linejoin:miter;stroke-width:0.8;"/>
   </g>
   <g id="patch_6">
    <path d="M 117 69.12 
L 842.4 69.12 
" style="fill:none;stroke:#000000;stroke-linecap:square;stroke-linejoin:miter;stroke-width:0.8;"/>
   </g>
   <g id="text_11">
    <!-- Fatalities, daily growth rate in Italy (2020-01-22..2020-04-04) -->
    <defs>
     <path d="M 9.8125 72.90625 
L 51.703125 72.90625 
L 51.703125 64.59375 
L 19.671875 64.59375 
L 19.671875 43.109375 
L 48.578125 43.109375 
L 48.578125 34.8125 
L 19.671875 34.8125 
L 19.671875 0 
L 9.8125 0 
z
" id="DejaVuSans-70"/>
     <path d="M 9.421875 75.984375 
L 18.40625 75.984375 
L 18.40625 0 
L 9.421875 0 
z
" id="DejaVuSans-108"/>
     <path d="M 44.28125 53.078125 
L 44.28125 44.578125 
Q 40.484375 46.53125 36.375 47.5 
Q 32.28125 48.484375 27.875 48.484375 
Q 21.1875 48.484375 17.84375 46.4375 
Q 14.5 44.390625 14.5 40.28125 
Q 14.5 37.15625 16.890625 35.375 
Q 19.28125 33.59375 26.515625 31.984375 
L 29.59375 31.296875 
Q 39.15625 29.25 43.1875 25.515625 
Q 47.21875 21.78125 47.21875 15.09375 
Q 47.21875 7.46875 41.1875 3.015625 
Q 35.15625 -1.421875 24.609375 -1.421875 
Q 20.21875 -1.421875 15.453125 -0.5625 
Q 10.6875 0.296875 5.421875 2 
L 5.421875 11.28125 
Q 10.40625 8.6875 15.234375 7.390625 
Q 20.0625 6.109375 24.8125 6.109375 
Q 31.15625 6.109375 34.5625 8.28125 
Q 37.984375 10.453125 37.984375 14.40625 
Q 37.984375 18.0625 35.515625 20.015625 
Q 33.0625 21.96875 24.703125 23.78125 
L 21.578125 24.515625 
Q 13.234375 26.265625 9.515625 29.90625 
Q 5.8125 33.546875 5.8125 39.890625 
Q 5.8125 47.609375 11.28125 51.796875 
Q 16.75 56 26.8125 56 
Q 31.78125 56 36.171875 55.265625 
Q 40.578125 54.546875 44.28125 53.078125 
z
" id="DejaVuSans-115"/>
     <path d="M 11.71875 12.40625 
L 22.015625 12.40625 
L 22.015625 4 
L 14.015625 -11.625 
L 7.71875 -11.625 
L 11.71875 4 
z
" id="DejaVuSans-44"/>
     <path d="M 9.8125 72.90625 
L 19.671875 72.90625 
L 19.671875 0 
L 9.8125 0 
z
" id="DejaVuSans-73"/>
     <path d="M 10.6875 12.40625 
L 21 12.40625 
L 21 0 
L 10.6875 0 
z
" id="DejaVuSans-46"/>
    </defs>
    <g transform="translate(295.419375 63.12)scale(0.12 -0.12)">
     <use xlink:href="#DejaVuSans-70"/>
     <use x="48.394531" xlink:href="#DejaVuSans-97"/>
     <use x="109.673828" xlink:href="#DejaVuSans-116"/>
     <use x="148.882812" xlink:href="#DejaVuSans-97"/>
     <use x="210.162109" xlink:href="#DejaVuSans-108"/>
     <use x="237.945312" xlink:href="#DejaVuSans-105"/>
     <use x="265.728516" xlink:href="#DejaVuSans-116"/>
     <use x="304.9375" xlink:href="#DejaVuSans-105"/>
     <use x="332.720703" xlink:href="#DejaVuSans-101"/>
     <use x="394.244141" xlink:href="#DejaVuSans-115"/>
     <use x="446.34375" xlink:href="#DejaVuSans-44"/>
     <use x="478.130859" xlink:href="#DejaVuSans-32"/>
     <use x="509.917969" xlink:href="#DejaVuSans-100"/>
     <use x="573.394531" xlink:href="#DejaVuSans-97"/>
     <use x="634.673828" xlink:href="#DejaVuSans-105"/>
     <use x="662.457031" xlink:href="#DejaVuSans-108"/>
     <use x="690.240234" xlink:href="#DejaVuSans-121"/>
     <use x="749.419922" xlink:href="#DejaVuSans-32"/>
     <use x="781.207031" xlink:href="#DejaVuSans-103"/>
     <use x="844.683594" xlink:href="#DejaVuSans-114"/>
     <use x="883.546875" xlink:href="#DejaVuSans-111"/>
     <use x="944.728516" xlink:href="#DejaVuSans-119"/>
     <use x="1026.515625" xlink:href="#DejaVuSans-116"/>
     <use x="1065.724609" xlink:href="#DejaVuSans-104"/>
     <use x="1129.103516" xlink:href="#DejaVuSans-32"/>
     <use x="1160.890625" xlink:href="#DejaVuSans-114"/>
     <use x="1202.003906" xlink:href="#DejaVuSans-97"/>
     <use x="1263.283203" xlink:href="#DejaVuSans-116"/>
     <use x="1302.492188" xlink:href="#DejaVuSans-101"/>
     <use x="1364.015625" xlink:href="#DejaVuSans-32"/>
     <use x="1395.802734" xlink:href="#DejaVuSans-105"/>
     <use x="1423.585938" xlink:href="#DejaVuSans-110"/>
     <use x="1486.964844" xlink:href="#DejaVuSans-32"/>
     <use x="1518.751953" xlink:href="#DejaVuSans-73"/>
     <use x="1548.244141" xlink:href="#DejaVuSans-116"/>
     <use x="1587.453125" xlink:href="#DejaVuSans-97"/>
     <use x="1648.732422" xlink:href="#DejaVuSans-108"/>
     <use x="1676.515625" xlink:href="#DejaVuSans-121"/>
     <use x="1735.695312" xlink:href="#DejaVuSans-32"/>
     <use x="1767.482422" xlink:href="#DejaVuSans-40"/>
     <use x="1806.496094" xlink:href="#DejaVuSans-50"/>
     <use x="1870.119141" xlink:href="#DejaVuSans-48"/>
     <use x="1933.742188" xlink:href="#DejaVuSans-50"/>
     <use x="1997.365234" xlink:href="#DejaVuSans-48"/>
     <use x="2060.988281" xlink:href="#DejaVuSans-45"/>
     <use x="2097.072266" xlink:href="#DejaVuSans-48"/>
     <use x="2160.695312" xlink:href="#DejaVuSans-49"/>
     <use x="2224.318359" xlink:href="#DejaVuSans-45"/>
     <use x="2260.402344" xlink:href="#DejaVuSans-50"/>
     <use x="2324.025391" xlink:href="#DejaVuSans-50"/>
     <use x="2387.648438" xlink:href="#DejaVuSans-46"/>
     <use x="2419.435547" xlink:href="#DejaVuSans-46"/>
     <use x="2451.222656" xlink:href="#DejaVuSans-50"/>
     <use x="2514.845703" xlink:href="#DejaVuSans-48"/>
     <use x="2578.46875" xlink:href="#DejaVuSans-50"/>
     <use x="2642.091797" xlink:href="#DejaVuSans-48"/>
     <use x="2705.714844" xlink:href="#DejaVuSans-45"/>
     <use x="2741.798828" xlink:href="#DejaVuSans-48"/>
     <use x="2805.421875" xlink:href="#DejaVuSans-52"/>
     <use x="2869.044922" xlink:href="#DejaVuSans-45"/>
     <use x="2905.128906" xlink:href="#DejaVuSans-48"/>
     <use x="2968.751953" xlink:href="#DejaVuSans-52"/>
     <use x="3032.375" xlink:href="#DejaVuSans-41"/>
    </g>
   </g>
   <g id="legend_1">
    <g id="patch_7">
     <path d="M 750.5 150.5325 
L 835.4 150.5325 
Q 837.4 150.5325 837.4 148.5325 
L 837.4 76.12 
Q 837.4 74.12 835.4 74.12 
L 750.5 74.12 
Q 748.5 74.12 748.5 76.12 
L 748.5 148.5325 
Q 748.5 150.5325 750.5 150.5325 
z
" style="fill:#ffffff;opacity:0.8;stroke:#cccccc;stroke-linejoin:miter;"/>
    </g>
    <g id="text_12">
     <!-- Avg over $n$ days -->
     <defs>
      <path d="M 34.1875 63.1875 
L 20.796875 26.90625 
L 47.609375 26.90625 
z
M 28.609375 72.90625 
L 39.796875 72.90625 
L 67.578125 0 
L 57.328125 0 
L 50.6875 18.703125 
L 17.828125 18.703125 
L 11.1875 0 
L 0.78125 0 
z
" id="DejaVuSans-65"/>
      <path d="M 55.71875 33.015625 
L 49.3125 0 
L 40.28125 0 
L 46.6875 32.671875 
Q 47.125 34.96875 47.359375 36.71875 
Q 47.609375 38.484375 47.609375 39.5 
Q 47.609375 43.609375 45.015625 45.890625 
Q 42.4375 48.1875 37.796875 48.1875 
Q 30.5625 48.1875 25.34375 43.375 
Q 20.125 38.578125 18.5 30.328125 
L 12.5 0 
L 3.515625 0 
L 14.109375 54.6875 
L 23.09375 54.6875 
L 21.296875 46.09375 
Q 25.046875 50.828125 30.3125 53.40625 
Q 35.59375 56 41.40625 56 
Q 48.640625 56 52.609375 52.09375 
Q 56.59375 48.1875 56.59375 41.109375 
Q 56.59375 39.359375 56.375 37.359375 
Q 56.15625 35.359375 55.71875 33.015625 
z
" id="DejaVuSans-Oblique-110"/>
     </defs>
     <g transform="translate(752.5 85.72)scale(0.1 -0.1)">
      <use transform="translate(0 0.015625)" xlink:href="#DejaVuSans-65"/>
      <use transform="translate(68.408203 0.015625)" xlink:href="#DejaVuSans-118"/>
      <use transform="translate(127.587891 0.015625)" xlink:href="#DejaVuSans-103"/>
      <use transform="translate(191.064453 0.015625)" xlink:href="#DejaVuSans-32"/>
      <use transform="translate(222.851562 0.015625)" xlink:href="#DejaVuSans-111"/>
      <use transform="translate(284.033203 0.015625)" xlink:href="#DejaVuSans-118"/>
      <use transform="translate(343.212891 0.015625)" xlink:href="#DejaVuSans-101"/>
      <use transform="translate(404.736328 0.015625)" xlink:href="#DejaVuSans-114"/>
      <use transform="translate(445.849609 0.015625)" xlink:href="#DejaVuSans-32"/>
      <use transform="translate(477.636719 0.015625)" xlink:href="#DejaVuSans-Oblique-110"/>
      <use transform="translate(541.015625 0.015625)" xlink:href="#DejaVuSans-32"/>
      <use transform="translate(572.802734 0.015625)" xlink:href="#DejaVuSans-100"/>
      <use transform="translate(636.279297 0.015625)" xlink:href="#DejaVuSans-97"/>
      <use transform="translate(697.558594 0.015625)" xlink:href="#DejaVuSans-121"/>
      <use transform="translate(756.738281 0.015625)" xlink:href="#DejaVuSans-115"/>
     </g>
    </g>
    <g id="line2d_87">
     <path d="M 759.196094 96.918438 
L 779.196094 96.918438 
" style="fill:none;stroke:#1f77b4;stroke-linecap:square;stroke-width:1.5;"/>
    </g>
    <g id="line2d_88">
     <g>
      <use style="fill:#1f77b4;stroke:#1f77b4;" x="769.196094" xlink:href="#m2dca0f81cf" y="96.918438"/>
     </g>
    </g>
    <g id="text_13">
     <!-- 2 days -->
     <g transform="translate(787.196094 100.418438)scale(0.1 -0.1)">
      <use xlink:href="#DejaVuSans-50"/>
      <use x="63.623047" xlink:href="#DejaVuSans-32"/>
      <use x="95.410156" xlink:href="#DejaVuSans-100"/>
      <use x="158.886719" xlink:href="#DejaVuSans-97"/>
      <use x="220.166016" xlink:href="#DejaVuSans-121"/>
      <use x="279.345703" xlink:href="#DejaVuSans-115"/>
     </g>
    </g>
    <g id="line2d_89">
     <path d="M 759.196094 111.596563 
L 779.196094 111.596563 
" style="fill:none;stroke:#ff7f0e;stroke-linecap:square;stroke-width:1.5;"/>
    </g>
    <g id="line2d_90">
     <g>
      <use style="fill:#ff7f0e;stroke:#ff7f0e;" x="769.196094" xlink:href="#mf9828af161" y="111.596563"/>
     </g>
    </g>
    <g id="text_14">
     <!-- 4 days -->
     <g transform="translate(787.196094 115.096563)scale(0.1 -0.1)">
      <use xlink:href="#DejaVuSans-52"/>
      <use x="63.623047" xlink:href="#DejaVuSans-32"/>
      <use x="95.410156" xlink:href="#DejaVuSans-100"/>
      <use x="158.886719" xlink:href="#DejaVuSans-97"/>
      <use x="220.166016" xlink:href="#DejaVuSans-121"/>
      <use x="279.345703" xlink:href="#DejaVuSans-115"/>
     </g>
    </g>
    <g id="line2d_91">
     <path d="M 759.196094 126.274688 
L 779.196094 126.274688 
" style="fill:none;stroke:#2ca02c;stroke-linecap:square;stroke-width:1.5;"/>
    </g>
    <g id="line2d_92">
     <g>
      <use style="fill:#2ca02c;stroke:#2ca02c;" x="769.196094" xlink:href="#m3fec7e231d" y="126.274688"/>
     </g>
    </g>
    <g id="text_15">
     <!-- 7 days -->
     <defs>
      <path d="M 8.203125 72.90625 
L 55.078125 72.90625 
L 55.078125 68.703125 
L 28.609375 0 
L 18.3125 0 
L 43.21875 64.59375 
L 8.203125 64.59375 
z
" id="DejaVuSans-55"/>
     </defs>
     <g transform="translate(787.196094 129.774688)scale(0.1 -0.1)">
      <use xlink:href="#DejaVuSans-55"/>
      <use x="63.623047" xlink:href="#DejaVuSans-32"/>
      <use x="95.410156" xlink:href="#DejaVuSans-100"/>
      <use x="158.886719" xlink:href="#DejaVuSans-97"/>
      <use x="220.166016" xlink:href="#DejaVuSans-121"/>
      <use x="279.345703" xlink:href="#DejaVuSans-115"/>
     </g>
    </g>
    <g id="line2d_93">
     <path d="M 759.196094 140.952813 
L 779.196094 140.952813 
" style="fill:none;stroke:#d62728;stroke-linecap:square;stroke-width:1.5;"/>
    </g>
    <g id="line2d_94">
     <g>
      <use style="fill:#d62728;stroke:#d62728;" x="769.196094" xlink:href="#m9bedb4a1fd" y="140.952813"/>
     </g>
    </g>
    <g id="text_16">
     <!-- 14 days -->
     <g transform="translate(787.196094 144.452813)scale(0.1 -0.1)">
      <use xlink:href="#DejaVuSans-49"/>
      <use x="63.623047" xlink:href="#DejaVuSans-52"/>
      <use x="127.246094" xlink:href="#DejaVuSans-32"/>
      <use x="159.033203" xlink:href="#DejaVuSans-100"/>
      <use x="222.509766" xlink:href="#DejaVuSans-97"/>
      <use x="283.789062" xlink:href="#DejaVuSans-121"/>
      <use x="342.96875" xlink:href="#DejaVuSans-115"/>
     </g>
    </g>
   </g>
  </g>
 </g>
 <defs>
  <clipPath id="pec3a1bbf12">
   <rect height="443.52" width="725.4" x="117" y="69.12"/>
  </clipPath>
 </defs>
</svg>
