<?xml version="1.0" encoding="utf-8" standalone="no"?>
<!DOCTYPE svg PUBLIC "-//W3C//DTD SVG 1.1//EN"
  "http://www.w3.org/Graphics/SVG/1.1/DTD/svg11.dtd">
<!-- Created with matplotlib (https://matplotlib.org/) -->
<svg height="576pt" version="1.1" viewBox="0 0 936 576" width="936pt" xmlns="http://www.w3.org/2000/svg" xmlns:xlink="http://www.w3.org/1999/xlink">
 <defs>
  <style type="text/css">
*{stroke-linecap:butt;stroke-linejoin:round;}
  </style>
 </defs>
 <g id="figure_1">
  <g id="patch_1">
   <path d="M 0 576 
L 936 576 
L 936 0 
L 0 0 
z
" style="fill:#ffffff;"/>
  </g>
  <g id="axes_1">
   <g id="patch_2">
    <path d="M 117 512.64 
L 842.4 512.64 
L 842.4 69.12 
L 117 69.12 
z
" style="fill:#ffffff;"/>
   </g>
   <g id="matplotlib.axis_1">
    <g id="xtick_1">
     <g id="line2d_1">
      <path clip-path="url(#p3bdbd30df4)" d="M 198.821212 512.64 
L 198.821212 69.12 
" style="fill:none;stroke:#d8dcd6;stroke-dasharray:0.8,1.32;stroke-dashoffset:0;stroke-width:0.8;"/>
     </g>
     <g id="line2d_2">
      <defs>
       <path d="M 0 0 
L 0 3.5 
" id="md55ed496ea" style="stroke:#000000;stroke-width:0.8;"/>
      </defs>
      <g>
       <use style="stroke:#000000;stroke-width:0.8;" x="198.821212" xlink:href="#md55ed496ea" y="512.64"/>
      </g>
     </g>
     <g id="text_1">
      <!-- 2020-03-02 -->
      <defs>
       <path d="M 19.1875 8.296875 
L 53.609375 8.296875 
L 53.609375 0 
L 7.328125 0 
L 7.328125 8.296875 
Q 12.9375 14.109375 22.625 23.890625 
Q 32.328125 33.6875 34.8125 36.53125 
Q 39.546875 41.84375 41.421875 45.53125 
Q 43.3125 49.21875 43.3125 52.78125 
Q 43.3125 58.59375 39.234375 62.25 
Q 35.15625 65.921875 28.609375 65.921875 
Q 23.96875 65.921875 18.8125 64.3125 
Q 13.671875 62.703125 7.8125 59.421875 
L 7.8125 69.390625 
Q 13.765625 71.78125 18.9375 73 
Q 24.125 74.21875 28.421875 74.21875 
Q 39.75 74.21875 46.484375 68.546875 
Q 53.21875 62.890625 53.21875 53.421875 
Q 53.21875 48.921875 51.53125 44.890625 
Q 49.859375 40.875 45.40625 35.40625 
Q 44.1875 33.984375 37.640625 27.21875 
Q 31.109375 20.453125 19.1875 8.296875 
z
" id="DejaVuSans-50"/>
       <path d="M 31.78125 66.40625 
Q 24.171875 66.40625 20.328125 58.90625 
Q 16.5 51.421875 16.5 36.375 
Q 16.5 21.390625 20.328125 13.890625 
Q 24.171875 6.390625 31.78125 6.390625 
Q 39.453125 6.390625 43.28125 13.890625 
Q 47.125 21.390625 47.125 36.375 
Q 47.125 51.421875 43.28125 58.90625 
Q 39.453125 66.40625 31.78125 66.40625 
z
M 31.78125 74.21875 
Q 44.046875 74.21875 50.515625 64.515625 
Q 56.984375 54.828125 56.984375 36.375 
Q 56.984375 17.96875 50.515625 8.265625 
Q 44.046875 -1.421875 31.78125 -1.421875 
Q 19.53125 -1.421875 13.0625 8.265625 
Q 6.59375 17.96875 6.59375 36.375 
Q 6.59375 54.828125 13.0625 64.515625 
Q 19.53125 74.21875 31.78125 74.21875 
z
" id="DejaVuSans-48"/>
       <path d="M 4.890625 31.390625 
L 31.203125 31.390625 
L 31.203125 23.390625 
L 4.890625 23.390625 
z
" id="DejaVuSans-45"/>
       <path d="M 40.578125 39.3125 
Q 47.65625 37.796875 51.625 33 
Q 55.609375 28.21875 55.609375 21.1875 
Q 55.609375 10.40625 48.1875 4.484375 
Q 40.765625 -1.421875 27.09375 -1.421875 
Q 22.515625 -1.421875 17.65625 -0.515625 
Q 12.796875 0.390625 7.625 2.203125 
L 7.625 11.71875 
Q 11.71875 9.328125 16.59375 8.109375 
Q 21.484375 6.890625 26.8125 6.890625 
Q 36.078125 6.890625 40.9375 10.546875 
Q 45.796875 14.203125 45.796875 21.1875 
Q 45.796875 27.640625 41.28125 31.265625 
Q 36.765625 34.90625 28.71875 34.90625 
L 20.21875 34.90625 
L 20.21875 43.015625 
L 29.109375 43.015625 
Q 36.375 43.015625 40.234375 45.921875 
Q 44.09375 48.828125 44.09375 54.296875 
Q 44.09375 59.90625 40.109375 62.90625 
Q 36.140625 65.921875 28.71875 65.921875 
Q 24.65625 65.921875 20.015625 65.03125 
Q 15.375 64.15625 9.8125 62.3125 
L 9.8125 71.09375 
Q 15.4375 72.65625 20.34375 73.4375 
Q 25.25 74.21875 29.59375 74.21875 
Q 40.828125 74.21875 47.359375 69.109375 
Q 53.90625 64.015625 53.90625 55.328125 
Q 53.90625 49.265625 50.4375 45.09375 
Q 46.96875 40.921875 40.578125 39.3125 
z
" id="DejaVuSans-51"/>
      </defs>
      <g transform="translate(152.965263 562.816745)rotate(-40)scale(0.1 -0.1)">
       <use xlink:href="#DejaVuSans-50"/>
       <use x="63.623047" xlink:href="#DejaVuSans-48"/>
       <use x="127.246094" xlink:href="#DejaVuSans-50"/>
       <use x="190.869141" xlink:href="#DejaVuSans-48"/>
       <use x="254.492188" xlink:href="#DejaVuSans-45"/>
       <use x="290.576172" xlink:href="#DejaVuSans-48"/>
       <use x="354.199219" xlink:href="#DejaVuSans-51"/>
       <use x="417.822266" xlink:href="#DejaVuSans-45"/>
       <use x="453.90625" xlink:href="#DejaVuSans-48"/>
       <use x="517.529297" xlink:href="#DejaVuSans-50"/>
      </g>
     </g>
    </g>
    <g id="xtick_2">
     <g id="line2d_3">
      <path clip-path="url(#p3bdbd30df4)" d="M 320.942424 512.64 
L 320.942424 69.12 
" style="fill:none;stroke:#d8dcd6;stroke-dasharray:0.8,1.32;stroke-dashoffset:0;stroke-width:0.8;"/>
     </g>
     <g id="line2d_4">
      <g>
       <use style="stroke:#000000;stroke-width:0.8;" x="320.942424" xlink:href="#md55ed496ea" y="512.64"/>
      </g>
     </g>
     <g id="text_2">
      <!-- 2020-03-12 -->
      <defs>
       <path d="M 12.40625 8.296875 
L 28.515625 8.296875 
L 28.515625 63.921875 
L 10.984375 60.40625 
L 10.984375 69.390625 
L 28.421875 72.90625 
L 38.28125 72.90625 
L 38.28125 8.296875 
L 54.390625 8.296875 
L 54.390625 0 
L 12.40625 0 
z
" id="DejaVuSans-49"/>
      </defs>
      <g transform="translate(275.086475 562.816745)rotate(-40)scale(0.1 -0.1)">
       <use xlink:href="#DejaVuSans-50"/>
       <use x="63.623047" xlink:href="#DejaVuSans-48"/>
       <use x="127.246094" xlink:href="#DejaVuSans-50"/>
       <use x="190.869141" xlink:href="#DejaVuSans-48"/>
       <use x="254.492188" xlink:href="#DejaVuSans-45"/>
       <use x="290.576172" xlink:href="#DejaVuSans-48"/>
       <use x="354.199219" xlink:href="#DejaVuSans-51"/>
       <use x="417.822266" xlink:href="#DejaVuSans-45"/>
       <use x="453.90625" xlink:href="#DejaVuSans-49"/>
       <use x="517.529297" xlink:href="#DejaVuSans-50"/>
      </g>
     </g>
    </g>
    <g id="xtick_3">
     <g id="line2d_5">
      <path clip-path="url(#p3bdbd30df4)" d="M 443.063636 512.64 
L 443.063636 69.12 
" style="fill:none;stroke:#d8dcd6;stroke-dasharray:0.8,1.32;stroke-dashoffset:0;stroke-width:0.8;"/>
     </g>
     <g id="line2d_6">
      <g>
       <use style="stroke:#000000;stroke-width:0.8;" x="443.063636" xlink:href="#md55ed496ea" y="512.64"/>
      </g>
     </g>
     <g id="text_3">
      <!-- 2020-03-22 -->
      <g transform="translate(397.207687 562.816745)rotate(-40)scale(0.1 -0.1)">
       <use xlink:href="#DejaVuSans-50"/>
       <use x="63.623047" xlink:href="#DejaVuSans-48"/>
       <use x="127.246094" xlink:href="#DejaVuSans-50"/>
       <use x="190.869141" xlink:href="#DejaVuSans-48"/>
       <use x="254.492188" xlink:href="#DejaVuSans-45"/>
       <use x="290.576172" xlink:href="#DejaVuSans-48"/>
       <use x="354.199219" xlink:href="#DejaVuSans-51"/>
       <use x="417.822266" xlink:href="#DejaVuSans-45"/>
       <use x="453.90625" xlink:href="#DejaVuSans-50"/>
       <use x="517.529297" xlink:href="#DejaVuSans-50"/>
      </g>
     </g>
    </g>
    <g id="xtick_4">
     <g id="line2d_7">
      <path clip-path="url(#p3bdbd30df4)" d="M 565.184848 512.64 
L 565.184848 69.12 
" style="fill:none;stroke:#d8dcd6;stroke-dasharray:0.8,1.32;stroke-dashoffset:0;stroke-width:0.8;"/>
     </g>
     <g id="line2d_8">
      <g>
       <use style="stroke:#000000;stroke-width:0.8;" x="565.184848" xlink:href="#md55ed496ea" y="512.64"/>
      </g>
     </g>
     <g id="text_4">
      <!-- 2020-04-01 -->
      <defs>
       <path d="M 37.796875 64.3125 
L 12.890625 25.390625 
L 37.796875 25.390625 
z
M 35.203125 72.90625 
L 47.609375 72.90625 
L 47.609375 25.390625 
L 58.015625 25.390625 
L 58.015625 17.1875 
L 47.609375 17.1875 
L 47.609375 0 
L 37.796875 0 
L 37.796875 17.1875 
L 4.890625 17.1875 
L 4.890625 26.703125 
z
" id="DejaVuSans-52"/>
      </defs>
      <g transform="translate(519.3289 562.816745)rotate(-40)scale(0.1 -0.1)">
       <use xlink:href="#DejaVuSans-50"/>
       <use x="63.623047" xlink:href="#DejaVuSans-48"/>
       <use x="127.246094" xlink:href="#DejaVuSans-50"/>
       <use x="190.869141" xlink:href="#DejaVuSans-48"/>
       <use x="254.492188" xlink:href="#DejaVuSans-45"/>
       <use x="290.576172" xlink:href="#DejaVuSans-48"/>
       <use x="354.199219" xlink:href="#DejaVuSans-52"/>
       <use x="417.822266" xlink:href="#DejaVuSans-45"/>
       <use x="453.90625" xlink:href="#DejaVuSans-48"/>
       <use x="517.529297" xlink:href="#DejaVuSans-49"/>
      </g>
     </g>
    </g>
    <g id="xtick_5">
     <g id="line2d_9">
      <path clip-path="url(#p3bdbd30df4)" d="M 687.306061 512.64 
L 687.306061 69.12 
" style="fill:none;stroke:#d8dcd6;stroke-dasharray:0.8,1.32;stroke-dashoffset:0;stroke-width:0.8;"/>
     </g>
     <g id="line2d_10">
      <g>
       <use style="stroke:#000000;stroke-width:0.8;" x="687.306061" xlink:href="#md55ed496ea" y="512.64"/>
      </g>
     </g>
     <g id="text_5">
      <!-- 2020-04-11 -->
      <g transform="translate(641.450112 562.816745)rotate(-40)scale(0.1 -0.1)">
       <use xlink:href="#DejaVuSans-50"/>
       <use x="63.623047" xlink:href="#DejaVuSans-48"/>
       <use x="127.246094" xlink:href="#DejaVuSans-50"/>
       <use x="190.869141" xlink:href="#DejaVuSans-48"/>
       <use x="254.492188" xlink:href="#DejaVuSans-45"/>
       <use x="290.576172" xlink:href="#DejaVuSans-48"/>
       <use x="354.199219" xlink:href="#DejaVuSans-52"/>
       <use x="417.822266" xlink:href="#DejaVuSans-45"/>
       <use x="453.90625" xlink:href="#DejaVuSans-49"/>
       <use x="517.529297" xlink:href="#DejaVuSans-49"/>
      </g>
     </g>
    </g>
    <g id="xtick_6">
     <g id="line2d_11">
      <path clip-path="url(#p3bdbd30df4)" d="M 809.427273 512.64 
L 809.427273 69.12 
" style="fill:none;stroke:#d8dcd6;stroke-dasharray:0.8,1.32;stroke-dashoffset:0;stroke-width:0.8;"/>
     </g>
     <g id="line2d_12">
      <g>
       <use style="stroke:#000000;stroke-width:0.8;" x="809.427273" xlink:href="#md55ed496ea" y="512.64"/>
      </g>
     </g>
     <g id="text_6">
      <!-- 2020-04-21 -->
      <g transform="translate(763.571324 562.816745)rotate(-40)scale(0.1 -0.1)">
       <use xlink:href="#DejaVuSans-50"/>
       <use x="63.623047" xlink:href="#DejaVuSans-48"/>
       <use x="127.246094" xlink:href="#DejaVuSans-50"/>
       <use x="190.869141" xlink:href="#DejaVuSans-48"/>
       <use x="254.492188" xlink:href="#DejaVuSans-45"/>
       <use x="290.576172" xlink:href="#DejaVuSans-48"/>
       <use x="354.199219" xlink:href="#DejaVuSans-52"/>
       <use x="417.822266" xlink:href="#DejaVuSans-45"/>
       <use x="453.90625" xlink:href="#DejaVuSans-50"/>
       <use x="517.529297" xlink:href="#DejaVuSans-49"/>
      </g>
     </g>
    </g>
    <g id="xtick_7">
     <g id="line2d_13">
      <path clip-path="url(#p3bdbd30df4)" d="M 125.548485 512.64 
L 125.548485 69.12 
" style="fill:none;stroke:#d8dcd6;stroke-dasharray:0.8,1.32;stroke-dashoffset:0;stroke-width:0.8;"/>
     </g>
     <g id="line2d_14">
      <defs>
       <path d="M 0 0 
L 0 2 
" id="m76725e560d" style="stroke:#000000;stroke-width:0.6;"/>
      </defs>
      <g>
       <use style="stroke:#000000;stroke-width:0.6;" x="125.548485" xlink:href="#m76725e560d" y="512.64"/>
      </g>
     </g>
    </g>
    <g id="xtick_8">
     <g id="line2d_15">
      <path clip-path="url(#p3bdbd30df4)" d="M 149.972727 512.64 
L 149.972727 69.12 
" style="fill:none;stroke:#d8dcd6;stroke-dasharray:0.8,1.32;stroke-dashoffset:0;stroke-width:0.8;"/>
     </g>
     <g id="line2d_16">
      <g>
       <use style="stroke:#000000;stroke-width:0.6;" x="149.972727" xlink:href="#m76725e560d" y="512.64"/>
      </g>
     </g>
    </g>
    <g id="xtick_9">
     <g id="line2d_17">
      <path clip-path="url(#p3bdbd30df4)" d="M 174.39697 512.64 
L 174.39697 69.12 
" style="fill:none;stroke:#d8dcd6;stroke-dasharray:0.8,1.32;stroke-dashoffset:0;stroke-width:0.8;"/>
     </g>
     <g id="line2d_18">
      <g>
       <use style="stroke:#000000;stroke-width:0.6;" x="174.39697" xlink:href="#m76725e560d" y="512.64"/>
      </g>
     </g>
    </g>
    <g id="xtick_10">
     <g id="line2d_19">
      <path clip-path="url(#p3bdbd30df4)" d="M 223.245455 512.64 
L 223.245455 69.12 
" style="fill:none;stroke:#d8dcd6;stroke-dasharray:0.8,1.32;stroke-dashoffset:0;stroke-width:0.8;"/>
     </g>
     <g id="line2d_20">
      <g>
       <use style="stroke:#000000;stroke-width:0.6;" x="223.245455" xlink:href="#m76725e560d" y="512.64"/>
      </g>
     </g>
    </g>
    <g id="xtick_11">
     <g id="line2d_21">
      <path clip-path="url(#p3bdbd30df4)" d="M 247.669697 512.64 
L 247.669697 69.12 
" style="fill:none;stroke:#d8dcd6;stroke-dasharray:0.8,1.32;stroke-dashoffset:0;stroke-width:0.8;"/>
     </g>
     <g id="line2d_22">
      <g>
       <use style="stroke:#000000;stroke-width:0.6;" x="247.669697" xlink:href="#m76725e560d" y="512.64"/>
      </g>
     </g>
    </g>
    <g id="xtick_12">
     <g id="line2d_23">
      <path clip-path="url(#p3bdbd30df4)" d="M 272.093939 512.64 
L 272.093939 69.12 
" style="fill:none;stroke:#d8dcd6;stroke-dasharray:0.8,1.32;stroke-dashoffset:0;stroke-width:0.8;"/>
     </g>
     <g id="line2d_24">
      <g>
       <use style="stroke:#000000;stroke-width:0.6;" x="272.093939" xlink:href="#m76725e560d" y="512.64"/>
      </g>
     </g>
    </g>
    <g id="xtick_13">
     <g id="line2d_25">
      <path clip-path="url(#p3bdbd30df4)" d="M 296.518182 512.64 
L 296.518182 69.12 
" style="fill:none;stroke:#d8dcd6;stroke-dasharray:0.8,1.32;stroke-dashoffset:0;stroke-width:0.8;"/>
     </g>
     <g id="line2d_26">
      <g>
       <use style="stroke:#000000;stroke-width:0.6;" x="296.518182" xlink:href="#m76725e560d" y="512.64"/>
      </g>
     </g>
    </g>
    <g id="xtick_14">
     <g id="line2d_27">
      <path clip-path="url(#p3bdbd30df4)" d="M 345.366667 512.64 
L 345.366667 69.12 
" style="fill:none;stroke:#d8dcd6;stroke-dasharray:0.8,1.32;stroke-dashoffset:0;stroke-width:0.8;"/>
     </g>
     <g id="line2d_28">
      <g>
       <use style="stroke:#000000;stroke-width:0.6;" x="345.366667" xlink:href="#m76725e560d" y="512.64"/>
      </g>
     </g>
    </g>
    <g id="xtick_15">
     <g id="line2d_29">
      <path clip-path="url(#p3bdbd30df4)" d="M 369.790909 512.64 
L 369.790909 69.12 
" style="fill:none;stroke:#d8dcd6;stroke-dasharray:0.8,1.32;stroke-dashoffset:0;stroke-width:0.8;"/>
     </g>
     <g id="line2d_30">
      <g>
       <use style="stroke:#000000;stroke-width:0.6;" x="369.790909" xlink:href="#m76725e560d" y="512.64"/>
      </g>
     </g>
    </g>
    <g id="xtick_16">
     <g id="line2d_31">
      <path clip-path="url(#p3bdbd30df4)" d="M 394.215152 512.64 
L 394.215152 69.12 
" style="fill:none;stroke:#d8dcd6;stroke-dasharray:0.8,1.32;stroke-dashoffset:0;stroke-width:0.8;"/>
     </g>
     <g id="line2d_32">
      <g>
       <use style="stroke:#000000;stroke-width:0.6;" x="394.215152" xlink:href="#m76725e560d" y="512.64"/>
      </g>
     </g>
    </g>
    <g id="xtick_17">
     <g id="line2d_33">
      <path clip-path="url(#p3bdbd30df4)" d="M 418.639394 512.64 
L 418.639394 69.12 
" style="fill:none;stroke:#d8dcd6;stroke-dasharray:0.8,1.32;stroke-dashoffset:0;stroke-width:0.8;"/>
     </g>
     <g id="line2d_34">
      <g>
       <use style="stroke:#000000;stroke-width:0.6;" x="418.639394" xlink:href="#m76725e560d" y="512.64"/>
      </g>
     </g>
    </g>
    <g id="xtick_18">
     <g id="line2d_35">
      <path clip-path="url(#p3bdbd30df4)" d="M 467.487879 512.64 
L 467.487879 69.12 
" style="fill:none;stroke:#d8dcd6;stroke-dasharray:0.8,1.32;stroke-dashoffset:0;stroke-width:0.8;"/>
     </g>
     <g id="line2d_36">
      <g>
       <use style="stroke:#000000;stroke-width:0.6;" x="467.487879" xlink:href="#m76725e560d" y="512.64"/>
      </g>
     </g>
    </g>
    <g id="xtick_19">
     <g id="line2d_37">
      <path clip-path="url(#p3bdbd30df4)" d="M 491.912121 512.64 
L 491.912121 69.12 
" style="fill:none;stroke:#d8dcd6;stroke-dasharray:0.8,1.32;stroke-dashoffset:0;stroke-width:0.8;"/>
     </g>
     <g id="line2d_38">
      <g>
       <use style="stroke:#000000;stroke-width:0.6;" x="491.912121" xlink:href="#m76725e560d" y="512.64"/>
      </g>
     </g>
    </g>
    <g id="xtick_20">
     <g id="line2d_39">
      <path clip-path="url(#p3bdbd30df4)" d="M 516.336364 512.64 
L 516.336364 69.12 
" style="fill:none;stroke:#d8dcd6;stroke-dasharray:0.8,1.32;stroke-dashoffset:0;stroke-width:0.8;"/>
     </g>
     <g id="line2d_40">
      <g>
       <use style="stroke:#000000;stroke-width:0.6;" x="516.336364" xlink:href="#m76725e560d" y="512.64"/>
      </g>
     </g>
    </g>
    <g id="xtick_21">
     <g id="line2d_41">
      <path clip-path="url(#p3bdbd30df4)" d="M 540.760606 512.64 
L 540.760606 69.12 
" style="fill:none;stroke:#d8dcd6;stroke-dasharray:0.8,1.32;stroke-dashoffset:0;stroke-width:0.8;"/>
     </g>
     <g id="line2d_42">
      <g>
       <use style="stroke:#000000;stroke-width:0.6;" x="540.760606" xlink:href="#m76725e560d" y="512.64"/>
      </g>
     </g>
    </g>
    <g id="xtick_22">
     <g id="line2d_43">
      <path clip-path="url(#p3bdbd30df4)" d="M 589.609091 512.64 
L 589.609091 69.12 
" style="fill:none;stroke:#d8dcd6;stroke-dasharray:0.8,1.32;stroke-dashoffset:0;stroke-width:0.8;"/>
     </g>
     <g id="line2d_44">
      <g>
       <use style="stroke:#000000;stroke-width:0.6;" x="589.609091" xlink:href="#m76725e560d" y="512.64"/>
      </g>
     </g>
    </g>
    <g id="xtick_23">
     <g id="line2d_45">
      <path clip-path="url(#p3bdbd30df4)" d="M 614.033333 512.64 
L 614.033333 69.12 
" style="fill:none;stroke:#d8dcd6;stroke-dasharray:0.8,1.32;stroke-dashoffset:0;stroke-width:0.8;"/>
     </g>
     <g id="line2d_46">
      <g>
       <use style="stroke:#000000;stroke-width:0.6;" x="614.033333" xlink:href="#m76725e560d" y="512.64"/>
      </g>
     </g>
    </g>
    <g id="xtick_24">
     <g id="line2d_47">
      <path clip-path="url(#p3bdbd30df4)" d="M 638.457576 512.64 
L 638.457576 69.12 
" style="fill:none;stroke:#d8dcd6;stroke-dasharray:0.8,1.32;stroke-dashoffset:0;stroke-width:0.8;"/>
     </g>
     <g id="line2d_48">
      <g>
       <use style="stroke:#000000;stroke-width:0.6;" x="638.457576" xlink:href="#m76725e560d" y="512.64"/>
      </g>
     </g>
    </g>
    <g id="xtick_25">
     <g id="line2d_49">
      <path clip-path="url(#p3bdbd30df4)" d="M 662.881818 512.64 
L 662.881818 69.12 
" style="fill:none;stroke:#d8dcd6;stroke-dasharray:0.8,1.32;stroke-dashoffset:0;stroke-width:0.8;"/>
     </g>
     <g id="line2d_50">
      <g>
       <use style="stroke:#000000;stroke-width:0.6;" x="662.881818" xlink:href="#m76725e560d" y="512.64"/>
      </g>
     </g>
    </g>
    <g id="xtick_26">
     <g id="line2d_51">
      <path clip-path="url(#p3bdbd30df4)" d="M 711.730303 512.64 
L 711.730303 69.12 
" style="fill:none;stroke:#d8dcd6;stroke-dasharray:0.8,1.32;stroke-dashoffset:0;stroke-width:0.8;"/>
     </g>
     <g id="line2d_52">
      <g>
       <use style="stroke:#000000;stroke-width:0.6;" x="711.730303" xlink:href="#m76725e560d" y="512.64"/>
      </g>
     </g>
    </g>
    <g id="xtick_27">
     <g id="line2d_53">
      <path clip-path="url(#p3bdbd30df4)" d="M 736.154545 512.64 
L 736.154545 69.12 
" style="fill:none;stroke:#d8dcd6;stroke-dasharray:0.8,1.32;stroke-dashoffset:0;stroke-width:0.8;"/>
     </g>
     <g id="line2d_54">
      <g>
       <use style="stroke:#000000;stroke-width:0.6;" x="736.154545" xlink:href="#m76725e560d" y="512.64"/>
      </g>
     </g>
    </g>
    <g id="xtick_28">
     <g id="line2d_55">
      <path clip-path="url(#p3bdbd30df4)" d="M 760.578788 512.64 
L 760.578788 69.12 
" style="fill:none;stroke:#d8dcd6;stroke-dasharray:0.8,1.32;stroke-dashoffset:0;stroke-width:0.8;"/>
     </g>
     <g id="line2d_56">
      <g>
       <use style="stroke:#000000;stroke-width:0.6;" x="760.578788" xlink:href="#m76725e560d" y="512.64"/>
      </g>
     </g>
    </g>
    <g id="xtick_29">
     <g id="line2d_57">
      <path clip-path="url(#p3bdbd30df4)" d="M 785.00303 512.64 
L 785.00303 69.12 
" style="fill:none;stroke:#d8dcd6;stroke-dasharray:0.8,1.32;stroke-dashoffset:0;stroke-width:0.8;"/>
     </g>
     <g id="line2d_58">
      <g>
       <use style="stroke:#000000;stroke-width:0.6;" x="785.00303" xlink:href="#m76725e560d" y="512.64"/>
      </g>
     </g>
    </g>
    <g id="xtick_30">
     <g id="line2d_59">
      <path clip-path="url(#p3bdbd30df4)" d="M 833.851515 512.64 
L 833.851515 69.12 
" style="fill:none;stroke:#d8dcd6;stroke-dasharray:0.8,1.32;stroke-dashoffset:0;stroke-width:0.8;"/>
     </g>
     <g id="line2d_60">
      <g>
       <use style="stroke:#000000;stroke-width:0.6;" x="833.851515" xlink:href="#m76725e560d" y="512.64"/>
      </g>
     </g>
    </g>
   </g>
   <g id="matplotlib.axis_2">
    <g id="ytick_1">
     <g id="line2d_61">
      <path clip-path="url(#p3bdbd30df4)" d="M 117 512.64 
L 842.4 512.64 
" style="fill:none;stroke:#d8dcd6;stroke-dasharray:0.8,1.32;stroke-dashoffset:0;stroke-width:0.8;"/>
     </g>
     <g id="line2d_62">
      <defs>
       <path d="M 0 0 
L -3.5 0 
" id="m7ca9a054bf" style="stroke:#000000;stroke-width:0.8;"/>
      </defs>
      <g>
       <use style="stroke:#000000;stroke-width:0.8;" x="117" xlink:href="#m7ca9a054bf" y="512.64"/>
      </g>
     </g>
     <g id="text_7">
      <!-- 0 -->
      <g transform="translate(103.6375 516.439219)scale(0.1 -0.1)">
       <use xlink:href="#DejaVuSans-48"/>
      </g>
     </g>
    </g>
    <g id="ytick_2">
     <g id="line2d_63">
      <path clip-path="url(#p3bdbd30df4)" d="M 117 438.72 
L 842.4 438.72 
" style="fill:none;stroke:#d8dcd6;stroke-dasharray:0.8,1.32;stroke-dashoffset:0;stroke-width:0.8;"/>
     </g>
     <g id="line2d_64">
      <g>
       <use style="stroke:#000000;stroke-width:0.8;" x="117" xlink:href="#m7ca9a054bf" y="438.72"/>
      </g>
     </g>
     <g id="text_8">
      <!-- 10 -->
      <g transform="translate(97.275 442.519219)scale(0.1 -0.1)">
       <use xlink:href="#DejaVuSans-49"/>
       <use x="63.623047" xlink:href="#DejaVuSans-48"/>
      </g>
     </g>
    </g>
    <g id="ytick_3">
     <g id="line2d_65">
      <path clip-path="url(#p3bdbd30df4)" d="M 117 364.8 
L 842.4 364.8 
" style="fill:none;stroke:#d8dcd6;stroke-dasharray:0.8,1.32;stroke-dashoffset:0;stroke-width:0.8;"/>
     </g>
     <g id="line2d_66">
      <g>
       <use style="stroke:#000000;stroke-width:0.8;" x="117" xlink:href="#m7ca9a054bf" y="364.8"/>
      </g>
     </g>
     <g id="text_9">
      <!-- 20 -->
      <g transform="translate(97.275 368.599219)scale(0.1 -0.1)">
       <use xlink:href="#DejaVuSans-50"/>
       <use x="63.623047" xlink:href="#DejaVuSans-48"/>
      </g>
     </g>
    </g>
    <g id="ytick_4">
     <g id="line2d_67">
      <path clip-path="url(#p3bdbd30df4)" d="M 117 290.88 
L 842.4 290.88 
" style="fill:none;stroke:#d8dcd6;stroke-dasharray:0.8,1.32;stroke-dashoffset:0;stroke-width:0.8;"/>
     </g>
     <g id="line2d_68">
      <g>
       <use style="stroke:#000000;stroke-width:0.8;" x="117" xlink:href="#m7ca9a054bf" y="290.88"/>
      </g>
     </g>
     <g id="text_10">
      <!-- 30 -->
      <g transform="translate(97.275 294.679219)scale(0.1 -0.1)">
       <use xlink:href="#DejaVuSans-51"/>
       <use x="63.623047" xlink:href="#DejaVuSans-48"/>
      </g>
     </g>
    </g>
    <g id="ytick_5">
     <g id="line2d_69">
      <path clip-path="url(#p3bdbd30df4)" d="M 117 216.96 
L 842.4 216.96 
" style="fill:none;stroke:#d8dcd6;stroke-dasharray:0.8,1.32;stroke-dashoffset:0;stroke-width:0.8;"/>
     </g>
     <g id="line2d_70">
      <g>
       <use style="stroke:#000000;stroke-width:0.8;" x="117" xlink:href="#m7ca9a054bf" y="216.96"/>
      </g>
     </g>
     <g id="text_11">
      <!-- 40 -->
      <g transform="translate(97.275 220.759219)scale(0.1 -0.1)">
       <use xlink:href="#DejaVuSans-52"/>
       <use x="63.623047" xlink:href="#DejaVuSans-48"/>
      </g>
     </g>
    </g>
    <g id="ytick_6">
     <g id="line2d_71">
      <path clip-path="url(#p3bdbd30df4)" d="M 117 143.04 
L 842.4 143.04 
" style="fill:none;stroke:#d8dcd6;stroke-dasharray:0.8,1.32;stroke-dashoffset:0;stroke-width:0.8;"/>
     </g>
     <g id="line2d_72">
      <g>
       <use style="stroke:#000000;stroke-width:0.8;" x="117" xlink:href="#m7ca9a054bf" y="143.04"/>
      </g>
     </g>
     <g id="text_12">
      <!-- 50 -->
      <defs>
       <path d="M 10.796875 72.90625 
L 49.515625 72.90625 
L 49.515625 64.59375 
L 19.828125 64.59375 
L 19.828125 46.734375 
Q 21.96875 47.46875 24.109375 47.828125 
Q 26.265625 48.1875 28.421875 48.1875 
Q 40.625 48.1875 47.75 41.5 
Q 54.890625 34.8125 54.890625 23.390625 
Q 54.890625 11.625 47.5625 5.09375 
Q 40.234375 -1.421875 26.90625 -1.421875 
Q 22.3125 -1.421875 17.546875 -0.640625 
Q 12.796875 0.140625 7.71875 1.703125 
L 7.71875 11.625 
Q 12.109375 9.234375 16.796875 8.0625 
Q 21.484375 6.890625 26.703125 6.890625 
Q 35.15625 6.890625 40.078125 11.328125 
Q 45.015625 15.765625 45.015625 23.390625 
Q 45.015625 31 40.078125 35.4375 
Q 35.15625 39.890625 26.703125 39.890625 
Q 22.75 39.890625 18.8125 39.015625 
Q 14.890625 38.140625 10.796875 36.28125 
z
" id="DejaVuSans-53"/>
      </defs>
      <g transform="translate(97.275 146.839219)scale(0.1 -0.1)">
       <use xlink:href="#DejaVuSans-53"/>
       <use x="63.623047" xlink:href="#DejaVuSans-48"/>
      </g>
     </g>
    </g>
    <g id="ytick_7">
     <g id="line2d_73">
      <path clip-path="url(#p3bdbd30df4)" d="M 117 69.12 
L 842.4 69.12 
" style="fill:none;stroke:#d8dcd6;stroke-dasharray:0.8,1.32;stroke-dashoffset:0;stroke-width:0.8;"/>
     </g>
     <g id="line2d_74">
      <g>
       <use style="stroke:#000000;stroke-width:0.8;" x="117" xlink:href="#m7ca9a054bf" y="69.12"/>
      </g>
     </g>
     <g id="text_13">
      <!-- 60 -->
      <defs>
       <path d="M 33.015625 40.375 
Q 26.375 40.375 22.484375 35.828125 
Q 18.609375 31.296875 18.609375 23.390625 
Q 18.609375 15.53125 22.484375 10.953125 
Q 26.375 6.390625 33.015625 6.390625 
Q 39.65625 6.390625 43.53125 10.953125 
Q 47.40625 15.53125 47.40625 23.390625 
Q 47.40625 31.296875 43.53125 35.828125 
Q 39.65625 40.375 33.015625 40.375 
z
M 52.59375 71.296875 
L 52.59375 62.3125 
Q 48.875 64.0625 45.09375 64.984375 
Q 41.3125 65.921875 37.59375 65.921875 
Q 27.828125 65.921875 22.671875 59.328125 
Q 17.53125 52.734375 16.796875 39.40625 
Q 19.671875 43.65625 24.015625 45.921875 
Q 28.375 48.1875 33.59375 48.1875 
Q 44.578125 48.1875 50.953125 41.515625 
Q 57.328125 34.859375 57.328125 23.390625 
Q 57.328125 12.15625 50.6875 5.359375 
Q 44.046875 -1.421875 33.015625 -1.421875 
Q 20.359375 -1.421875 13.671875 8.265625 
Q 6.984375 17.96875 6.984375 36.375 
Q 6.984375 53.65625 15.1875 63.9375 
Q 23.390625 74.21875 37.203125 74.21875 
Q 40.921875 74.21875 44.703125 73.484375 
Q 48.484375 72.75 52.59375 71.296875 
z
" id="DejaVuSans-54"/>
      </defs>
      <g transform="translate(97.275 72.919219)scale(0.1 -0.1)">
       <use xlink:href="#DejaVuSans-54"/>
       <use x="63.623047" xlink:href="#DejaVuSans-48"/>
      </g>
     </g>
    </g>
    <g id="ytick_8">
     <g id="line2d_75">
      <path clip-path="url(#p3bdbd30df4)" d="M 117 497.856 
L 842.4 497.856 
" style="fill:none;stroke:#d8dcd6;stroke-dasharray:0.8,1.32;stroke-dashoffset:0;stroke-width:0.8;"/>
     </g>
     <g id="line2d_76">
      <defs>
       <path d="M 0 0 
L -2 0 
" id="mb85723dab8" style="stroke:#000000;stroke-width:0.6;"/>
      </defs>
      <g>
       <use style="stroke:#000000;stroke-width:0.6;" x="117" xlink:href="#mb85723dab8" y="497.856"/>
      </g>
     </g>
    </g>
    <g id="ytick_9">
     <g id="line2d_77">
      <path clip-path="url(#p3bdbd30df4)" d="M 117 483.072 
L 842.4 483.072 
" style="fill:none;stroke:#d8dcd6;stroke-dasharray:0.8,1.32;stroke-dashoffset:0;stroke-width:0.8;"/>
     </g>
     <g id="line2d_78">
      <g>
       <use style="stroke:#000000;stroke-width:0.6;" x="117" xlink:href="#mb85723dab8" y="483.072"/>
      </g>
     </g>
    </g>
    <g id="ytick_10">
     <g id="line2d_79">
      <path clip-path="url(#p3bdbd30df4)" d="M 117 468.288 
L 842.4 468.288 
" style="fill:none;stroke:#d8dcd6;stroke-dasharray:0.8,1.32;stroke-dashoffset:0;stroke-width:0.8;"/>
     </g>
     <g id="line2d_80">
      <g>
       <use style="stroke:#000000;stroke-width:0.6;" x="117" xlink:href="#mb85723dab8" y="468.288"/>
      </g>
     </g>
    </g>
    <g id="ytick_11">
     <g id="line2d_81">
      <path clip-path="url(#p3bdbd30df4)" d="M 117 453.504 
L 842.4 453.504 
" style="fill:none;stroke:#d8dcd6;stroke-dasharray:0.8,1.32;stroke-dashoffset:0;stroke-width:0.8;"/>
     </g>
     <g id="line2d_82">
      <g>
       <use style="stroke:#000000;stroke-width:0.6;" x="117" xlink:href="#mb85723dab8" y="453.504"/>
      </g>
     </g>
    </g>
    <g id="ytick_12">
     <g id="line2d_83">
      <path clip-path="url(#p3bdbd30df4)" d="M 117 423.936 
L 842.4 423.936 
" style="fill:none;stroke:#d8dcd6;stroke-dasharray:0.8,1.32;stroke-dashoffset:0;stroke-width:0.8;"/>
     </g>
     <g id="line2d_84">
      <g>
       <use style="stroke:#000000;stroke-width:0.6;" x="117" xlink:href="#mb85723dab8" y="423.936"/>
      </g>
     </g>
    </g>
    <g id="ytick_13">
     <g id="line2d_85">
      <path clip-path="url(#p3bdbd30df4)" d="M 117 409.152 
L 842.4 409.152 
" style="fill:none;stroke:#d8dcd6;stroke-dasharray:0.8,1.32;stroke-dashoffset:0;stroke-width:0.8;"/>
     </g>
     <g id="line2d_86">
      <g>
       <use style="stroke:#000000;stroke-width:0.6;" x="117" xlink:href="#mb85723dab8" y="409.152"/>
      </g>
     </g>
    </g>
    <g id="ytick_14">
     <g id="line2d_87">
      <path clip-path="url(#p3bdbd30df4)" d="M 117 394.368 
L 842.4 394.368 
" style="fill:none;stroke:#d8dcd6;stroke-dasharray:0.8,1.32;stroke-dashoffset:0;stroke-width:0.8;"/>
     </g>
     <g id="line2d_88">
      <g>
       <use style="stroke:#000000;stroke-width:0.6;" x="117" xlink:href="#mb85723dab8" y="394.368"/>
      </g>
     </g>
    </g>
    <g id="ytick_15">
     <g id="line2d_89">
      <path clip-path="url(#p3bdbd30df4)" d="M 117 379.584 
L 842.4 379.584 
" style="fill:none;stroke:#d8dcd6;stroke-dasharray:0.8,1.32;stroke-dashoffset:0;stroke-width:0.8;"/>
     </g>
     <g id="line2d_90">
      <g>
       <use style="stroke:#000000;stroke-width:0.6;" x="117" xlink:href="#mb85723dab8" y="379.584"/>
      </g>
     </g>
    </g>
    <g id="ytick_16">
     <g id="line2d_91">
      <path clip-path="url(#p3bdbd30df4)" d="M 117 350.016 
L 842.4 350.016 
" style="fill:none;stroke:#d8dcd6;stroke-dasharray:0.8,1.32;stroke-dashoffset:0;stroke-width:0.8;"/>
     </g>
     <g id="line2d_92">
      <g>
       <use style="stroke:#000000;stroke-width:0.6;" x="117" xlink:href="#mb85723dab8" y="350.016"/>
      </g>
     </g>
    </g>
    <g id="ytick_17">
     <g id="line2d_93">
      <path clip-path="url(#p3bdbd30df4)" d="M 117 335.232 
L 842.4 335.232 
" style="fill:none;stroke:#d8dcd6;stroke-dasharray:0.8,1.32;stroke-dashoffset:0;stroke-width:0.8;"/>
     </g>
     <g id="line2d_94">
      <g>
       <use style="stroke:#000000;stroke-width:0.6;" x="117" xlink:href="#mb85723dab8" y="335.232"/>
      </g>
     </g>
    </g>
    <g id="ytick_18">
     <g id="line2d_95">
      <path clip-path="url(#p3bdbd30df4)" d="M 117 320.448 
L 842.4 320.448 
" style="fill:none;stroke:#d8dcd6;stroke-dasharray:0.8,1.32;stroke-dashoffset:0;stroke-width:0.8;"/>
     </g>
     <g id="line2d_96">
      <g>
       <use style="stroke:#000000;stroke-width:0.6;" x="117" xlink:href="#mb85723dab8" y="320.448"/>
      </g>
     </g>
    </g>
    <g id="ytick_19">
     <g id="line2d_97">
      <path clip-path="url(#p3bdbd30df4)" d="M 117 305.664 
L 842.4 305.664 
" style="fill:none;stroke:#d8dcd6;stroke-dasharray:0.8,1.32;stroke-dashoffset:0;stroke-width:0.8;"/>
     </g>
     <g id="line2d_98">
      <g>
       <use style="stroke:#000000;stroke-width:0.6;" x="117" xlink:href="#mb85723dab8" y="305.664"/>
      </g>
     </g>
    </g>
    <g id="ytick_20">
     <g id="line2d_99">
      <path clip-path="url(#p3bdbd30df4)" d="M 117 276.096 
L 842.4 276.096 
" style="fill:none;stroke:#d8dcd6;stroke-dasharray:0.8,1.32;stroke-dashoffset:0;stroke-width:0.8;"/>
     </g>
     <g id="line2d_100">
      <g>
       <use style="stroke:#000000;stroke-width:0.6;" x="117" xlink:href="#mb85723dab8" y="276.096"/>
      </g>
     </g>
    </g>
    <g id="ytick_21">
     <g id="line2d_101">
      <path clip-path="url(#p3bdbd30df4)" d="M 117 261.312 
L 842.4 261.312 
" style="fill:none;stroke:#d8dcd6;stroke-dasharray:0.8,1.32;stroke-dashoffset:0;stroke-width:0.8;"/>
     </g>
     <g id="line2d_102">
      <g>
       <use style="stroke:#000000;stroke-width:0.6;" x="117" xlink:href="#mb85723dab8" y="261.312"/>
      </g>
     </g>
    </g>
    <g id="ytick_22">
     <g id="line2d_103">
      <path clip-path="url(#p3bdbd30df4)" d="M 117 246.528 
L 842.4 246.528 
" style="fill:none;stroke:#d8dcd6;stroke-dasharray:0.8,1.32;stroke-dashoffset:0;stroke-width:0.8;"/>
     </g>
     <g id="line2d_104">
      <g>
       <use style="stroke:#000000;stroke-width:0.6;" x="117" xlink:href="#mb85723dab8" y="246.528"/>
      </g>
     </g>
    </g>
    <g id="ytick_23">
     <g id="line2d_105">
      <path clip-path="url(#p3bdbd30df4)" d="M 117 231.744 
L 842.4 231.744 
" style="fill:none;stroke:#d8dcd6;stroke-dasharray:0.8,1.32;stroke-dashoffset:0;stroke-width:0.8;"/>
     </g>
     <g id="line2d_106">
      <g>
       <use style="stroke:#000000;stroke-width:0.6;" x="117" xlink:href="#mb85723dab8" y="231.744"/>
      </g>
     </g>
    </g>
    <g id="ytick_24">
     <g id="line2d_107">
      <path clip-path="url(#p3bdbd30df4)" d="M 117 202.176 
L 842.4 202.176 
" style="fill:none;stroke:#d8dcd6;stroke-dasharray:0.8,1.32;stroke-dashoffset:0;stroke-width:0.8;"/>
     </g>
     <g id="line2d_108">
      <g>
       <use style="stroke:#000000;stroke-width:0.6;" x="117" xlink:href="#mb85723dab8" y="202.176"/>
      </g>
     </g>
    </g>
    <g id="ytick_25">
     <g id="line2d_109">
      <path clip-path="url(#p3bdbd30df4)" d="M 117 187.392 
L 842.4 187.392 
" style="fill:none;stroke:#d8dcd6;stroke-dasharray:0.8,1.32;stroke-dashoffset:0;stroke-width:0.8;"/>
     </g>
     <g id="line2d_110">
      <g>
       <use style="stroke:#000000;stroke-width:0.6;" x="117" xlink:href="#mb85723dab8" y="187.392"/>
      </g>
     </g>
    </g>
    <g id="ytick_26">
     <g id="line2d_111">
      <path clip-path="url(#p3bdbd30df4)" d="M 117 172.608 
L 842.4 172.608 
" style="fill:none;stroke:#d8dcd6;stroke-dasharray:0.8,1.32;stroke-dashoffset:0;stroke-width:0.8;"/>
     </g>
     <g id="line2d_112">
      <g>
       <use style="stroke:#000000;stroke-width:0.6;" x="117" xlink:href="#mb85723dab8" y="172.608"/>
      </g>
     </g>
    </g>
    <g id="ytick_27">
     <g id="line2d_113">
      <path clip-path="url(#p3bdbd30df4)" d="M 117 157.824 
L 842.4 157.824 
" style="fill:none;stroke:#d8dcd6;stroke-dasharray:0.8,1.32;stroke-dashoffset:0;stroke-width:0.8;"/>
     </g>
     <g id="line2d_114">
      <g>
       <use style="stroke:#000000;stroke-width:0.6;" x="117" xlink:href="#mb85723dab8" y="157.824"/>
      </g>
     </g>
    </g>
    <g id="ytick_28">
     <g id="line2d_115">
      <path clip-path="url(#p3bdbd30df4)" d="M 117 128.256 
L 842.4 128.256 
" style="fill:none;stroke:#d8dcd6;stroke-dasharray:0.8,1.32;stroke-dashoffset:0;stroke-width:0.8;"/>
     </g>
     <g id="line2d_116">
      <g>
       <use style="stroke:#000000;stroke-width:0.6;" x="117" xlink:href="#mb85723dab8" y="128.256"/>
      </g>
     </g>
    </g>
    <g id="ytick_29">
     <g id="line2d_117">
      <path clip-path="url(#p3bdbd30df4)" d="M 117 113.472 
L 842.4 113.472 
" style="fill:none;stroke:#d8dcd6;stroke-dasharray:0.8,1.32;stroke-dashoffset:0;stroke-width:0.8;"/>
     </g>
     <g id="line2d_118">
      <g>
       <use style="stroke:#000000;stroke-width:0.6;" x="117" xlink:href="#mb85723dab8" y="113.472"/>
      </g>
     </g>
    </g>
    <g id="ytick_30">
     <g id="line2d_119">
      <path clip-path="url(#p3bdbd30df4)" d="M 117 98.688 
L 842.4 98.688 
" style="fill:none;stroke:#d8dcd6;stroke-dasharray:0.8,1.32;stroke-dashoffset:0;stroke-width:0.8;"/>
     </g>
     <g id="line2d_120">
      <g>
       <use style="stroke:#000000;stroke-width:0.6;" x="117" xlink:href="#mb85723dab8" y="98.688"/>
      </g>
     </g>
    </g>
    <g id="ytick_31">
     <g id="line2d_121">
      <path clip-path="url(#p3bdbd30df4)" d="M 117 83.904 
L 842.4 83.904 
" style="fill:none;stroke:#d8dcd6;stroke-dasharray:0.8,1.32;stroke-dashoffset:0;stroke-width:0.8;"/>
     </g>
     <g id="line2d_122">
      <g>
       <use style="stroke:#000000;stroke-width:0.6;" x="117" xlink:href="#mb85723dab8" y="83.904"/>
      </g>
     </g>
    </g>
    <g id="text_14">
     <!-- (backw avg) growth in percent per day -->
     <defs>
      <path d="M 31 75.875 
Q 24.46875 64.65625 21.28125 53.65625 
Q 18.109375 42.671875 18.109375 31.390625 
Q 18.109375 20.125 21.3125 9.0625 
Q 24.515625 -2 31 -13.1875 
L 23.1875 -13.1875 
Q 15.875 -1.703125 12.234375 9.375 
Q 8.59375 20.453125 8.59375 31.390625 
Q 8.59375 42.28125 12.203125 53.3125 
Q 15.828125 64.359375 23.1875 75.875 
z
" id="DejaVuSans-40"/>
      <path d="M 48.6875 27.296875 
Q 48.6875 37.203125 44.609375 42.84375 
Q 40.53125 48.484375 33.40625 48.484375 
Q 26.265625 48.484375 22.1875 42.84375 
Q 18.109375 37.203125 18.109375 27.296875 
Q 18.109375 17.390625 22.1875 11.75 
Q 26.265625 6.109375 33.40625 6.109375 
Q 40.53125 6.109375 44.609375 11.75 
Q 48.6875 17.390625 48.6875 27.296875 
z
M 18.109375 46.390625 
Q 20.953125 51.265625 25.265625 53.625 
Q 29.59375 56 35.59375 56 
Q 45.5625 56 51.78125 48.09375 
Q 58.015625 40.1875 58.015625 27.296875 
Q 58.015625 14.40625 51.78125 6.484375 
Q 45.5625 -1.421875 35.59375 -1.421875 
Q 29.59375 -1.421875 25.265625 0.953125 
Q 20.953125 3.328125 18.109375 8.203125 
L 18.109375 0 
L 9.078125 0 
L 9.078125 75.984375 
L 18.109375 75.984375 
z
" id="DejaVuSans-98"/>
      <path d="M 34.28125 27.484375 
Q 23.390625 27.484375 19.1875 25 
Q 14.984375 22.515625 14.984375 16.5 
Q 14.984375 11.71875 18.140625 8.90625 
Q 21.296875 6.109375 26.703125 6.109375 
Q 34.1875 6.109375 38.703125 11.40625 
Q 43.21875 16.703125 43.21875 25.484375 
L 43.21875 27.484375 
z
M 52.203125 31.203125 
L 52.203125 0 
L 43.21875 0 
L 43.21875 8.296875 
Q 40.140625 3.328125 35.546875 0.953125 
Q 30.953125 -1.421875 24.3125 -1.421875 
Q 15.921875 -1.421875 10.953125 3.296875 
Q 6 8.015625 6 15.921875 
Q 6 25.140625 12.171875 29.828125 
Q 18.359375 34.515625 30.609375 34.515625 
L 43.21875 34.515625 
L 43.21875 35.40625 
Q 43.21875 41.609375 39.140625 45 
Q 35.0625 48.390625 27.6875 48.390625 
Q 23 48.390625 18.546875 47.265625 
Q 14.109375 46.140625 10.015625 43.890625 
L 10.015625 52.203125 
Q 14.9375 54.109375 19.578125 55.046875 
Q 24.21875 56 28.609375 56 
Q 40.484375 56 46.34375 49.84375 
Q 52.203125 43.703125 52.203125 31.203125 
z
" id="DejaVuSans-97"/>
      <path d="M 48.78125 52.59375 
L 48.78125 44.1875 
Q 44.96875 46.296875 41.140625 47.34375 
Q 37.3125 48.390625 33.40625 48.390625 
Q 24.65625 48.390625 19.8125 42.84375 
Q 14.984375 37.3125 14.984375 27.296875 
Q 14.984375 17.28125 19.8125 11.734375 
Q 24.65625 6.203125 33.40625 6.203125 
Q 37.3125 6.203125 41.140625 7.25 
Q 44.96875 8.296875 48.78125 10.40625 
L 48.78125 2.09375 
Q 45.015625 0.34375 40.984375 -0.53125 
Q 36.96875 -1.421875 32.421875 -1.421875 
Q 20.0625 -1.421875 12.78125 6.34375 
Q 5.515625 14.109375 5.515625 27.296875 
Q 5.515625 40.671875 12.859375 48.328125 
Q 20.21875 56 33.015625 56 
Q 37.15625 56 41.109375 55.140625 
Q 45.0625 54.296875 48.78125 52.59375 
z
" id="DejaVuSans-99"/>
      <path d="M 9.078125 75.984375 
L 18.109375 75.984375 
L 18.109375 31.109375 
L 44.921875 54.6875 
L 56.390625 54.6875 
L 27.390625 29.109375 
L 57.625 0 
L 45.90625 0 
L 18.109375 26.703125 
L 18.109375 0 
L 9.078125 0 
z
" id="DejaVuSans-107"/>
      <path d="M 4.203125 54.6875 
L 13.1875 54.6875 
L 24.421875 12.015625 
L 35.59375 54.6875 
L 46.1875 54.6875 
L 57.421875 12.015625 
L 68.609375 54.6875 
L 77.59375 54.6875 
L 63.28125 0 
L 52.6875 0 
L 40.921875 44.828125 
L 29.109375 0 
L 18.5 0 
z
" id="DejaVuSans-119"/>
      <path id="DejaVuSans-32"/>
      <path d="M 2.984375 54.6875 
L 12.5 54.6875 
L 29.59375 8.796875 
L 46.6875 54.6875 
L 56.203125 54.6875 
L 35.6875 0 
L 23.484375 0 
z
" id="DejaVuSans-118"/>
      <path d="M 45.40625 27.984375 
Q 45.40625 37.75 41.375 43.109375 
Q 37.359375 48.484375 30.078125 48.484375 
Q 22.859375 48.484375 18.828125 43.109375 
Q 14.796875 37.75 14.796875 27.984375 
Q 14.796875 18.265625 18.828125 12.890625 
Q 22.859375 7.515625 30.078125 7.515625 
Q 37.359375 7.515625 41.375 12.890625 
Q 45.40625 18.265625 45.40625 27.984375 
z
M 54.390625 6.78125 
Q 54.390625 -7.171875 48.1875 -13.984375 
Q 42 -20.796875 29.203125 -20.796875 
Q 24.46875 -20.796875 20.265625 -20.09375 
Q 16.0625 -19.390625 12.109375 -17.921875 
L 12.109375 -9.1875 
Q 16.0625 -11.328125 19.921875 -12.34375 
Q 23.78125 -13.375 27.78125 -13.375 
Q 36.625 -13.375 41.015625 -8.765625 
Q 45.40625 -4.15625 45.40625 5.171875 
L 45.40625 9.625 
Q 42.625 4.78125 38.28125 2.390625 
Q 33.9375 0 27.875 0 
Q 17.828125 0 11.671875 7.65625 
Q 5.515625 15.328125 5.515625 27.984375 
Q 5.515625 40.671875 11.671875 48.328125 
Q 17.828125 56 27.875 56 
Q 33.9375 56 38.28125 53.609375 
Q 42.625 51.21875 45.40625 46.390625 
L 45.40625 54.6875 
L 54.390625 54.6875 
z
" id="DejaVuSans-103"/>
      <path d="M 8.015625 75.875 
L 15.828125 75.875 
Q 23.140625 64.359375 26.78125 53.3125 
Q 30.421875 42.28125 30.421875 31.390625 
Q 30.421875 20.453125 26.78125 9.375 
Q 23.140625 -1.703125 15.828125 -13.1875 
L 8.015625 -13.1875 
Q 14.5 -2 17.703125 9.0625 
Q 20.90625 20.125 20.90625 31.390625 
Q 20.90625 42.671875 17.703125 53.65625 
Q 14.5 64.65625 8.015625 75.875 
z
" id="DejaVuSans-41"/>
      <path d="M 41.109375 46.296875 
Q 39.59375 47.171875 37.8125 47.578125 
Q 36.03125 48 33.890625 48 
Q 26.265625 48 22.1875 43.046875 
Q 18.109375 38.09375 18.109375 28.8125 
L 18.109375 0 
L 9.078125 0 
L 9.078125 54.6875 
L 18.109375 54.6875 
L 18.109375 46.1875 
Q 20.953125 51.171875 25.484375 53.578125 
Q 30.03125 56 36.53125 56 
Q 37.453125 56 38.578125 55.875 
Q 39.703125 55.765625 41.0625 55.515625 
z
" id="DejaVuSans-114"/>
      <path d="M 30.609375 48.390625 
Q 23.390625 48.390625 19.1875 42.75 
Q 14.984375 37.109375 14.984375 27.296875 
Q 14.984375 17.484375 19.15625 11.84375 
Q 23.34375 6.203125 30.609375 6.203125 
Q 37.796875 6.203125 41.984375 11.859375 
Q 46.1875 17.53125 46.1875 27.296875 
Q 46.1875 37.015625 41.984375 42.703125 
Q 37.796875 48.390625 30.609375 48.390625 
z
M 30.609375 56 
Q 42.328125 56 49.015625 48.375 
Q 55.71875 40.765625 55.71875 27.296875 
Q 55.71875 13.875 49.015625 6.21875 
Q 42.328125 -1.421875 30.609375 -1.421875 
Q 18.84375 -1.421875 12.171875 6.21875 
Q 5.515625 13.875 5.515625 27.296875 
Q 5.515625 40.765625 12.171875 48.375 
Q 18.84375 56 30.609375 56 
z
" id="DejaVuSans-111"/>
      <path d="M 18.3125 70.21875 
L 18.3125 54.6875 
L 36.8125 54.6875 
L 36.8125 47.703125 
L 18.3125 47.703125 
L 18.3125 18.015625 
Q 18.3125 11.328125 20.140625 9.421875 
Q 21.96875 7.515625 27.59375 7.515625 
L 36.8125 7.515625 
L 36.8125 0 
L 27.59375 0 
Q 17.1875 0 13.234375 3.875 
Q 9.28125 7.765625 9.28125 18.015625 
L 9.28125 47.703125 
L 2.6875 47.703125 
L 2.6875 54.6875 
L 9.28125 54.6875 
L 9.28125 70.21875 
z
" id="DejaVuSans-116"/>
      <path d="M 54.890625 33.015625 
L 54.890625 0 
L 45.90625 0 
L 45.90625 32.71875 
Q 45.90625 40.484375 42.875 44.328125 
Q 39.84375 48.1875 33.796875 48.1875 
Q 26.515625 48.1875 22.3125 43.546875 
Q 18.109375 38.921875 18.109375 30.90625 
L 18.109375 0 
L 9.078125 0 
L 9.078125 75.984375 
L 18.109375 75.984375 
L 18.109375 46.1875 
Q 21.34375 51.125 25.703125 53.5625 
Q 30.078125 56 35.796875 56 
Q 45.21875 56 50.046875 50.171875 
Q 54.890625 44.34375 54.890625 33.015625 
z
" id="DejaVuSans-104"/>
      <path d="M 9.421875 54.6875 
L 18.40625 54.6875 
L 18.40625 0 
L 9.421875 0 
z
M 9.421875 75.984375 
L 18.40625 75.984375 
L 18.40625 64.59375 
L 9.421875 64.59375 
z
" id="DejaVuSans-105"/>
      <path d="M 54.890625 33.015625 
L 54.890625 0 
L 45.90625 0 
L 45.90625 32.71875 
Q 45.90625 40.484375 42.875 44.328125 
Q 39.84375 48.1875 33.796875 48.1875 
Q 26.515625 48.1875 22.3125 43.546875 
Q 18.109375 38.921875 18.109375 30.90625 
L 18.109375 0 
L 9.078125 0 
L 9.078125 54.6875 
L 18.109375 54.6875 
L 18.109375 46.1875 
Q 21.34375 51.125 25.703125 53.5625 
Q 30.078125 56 35.796875 56 
Q 45.21875 56 50.046875 50.171875 
Q 54.890625 44.34375 54.890625 33.015625 
z
" id="DejaVuSans-110"/>
      <path d="M 18.109375 8.203125 
L 18.109375 -20.796875 
L 9.078125 -20.796875 
L 9.078125 54.6875 
L 18.109375 54.6875 
L 18.109375 46.390625 
Q 20.953125 51.265625 25.265625 53.625 
Q 29.59375 56 35.59375 56 
Q 45.5625 56 51.78125 48.09375 
Q 58.015625 40.1875 58.015625 27.296875 
Q 58.015625 14.40625 51.78125 6.484375 
Q 45.5625 -1.421875 35.59375 -1.421875 
Q 29.59375 -1.421875 25.265625 0.953125 
Q 20.953125 3.328125 18.109375 8.203125 
z
M 48.6875 27.296875 
Q 48.6875 37.203125 44.609375 42.84375 
Q 40.53125 48.484375 33.40625 48.484375 
Q 26.265625 48.484375 22.1875 42.84375 
Q 18.109375 37.203125 18.109375 27.296875 
Q 18.109375 17.390625 22.1875 11.75 
Q 26.265625 6.109375 33.40625 6.109375 
Q 40.53125 6.109375 44.609375 11.75 
Q 48.6875 17.390625 48.6875 27.296875 
z
" id="DejaVuSans-112"/>
      <path d="M 56.203125 29.59375 
L 56.203125 25.203125 
L 14.890625 25.203125 
Q 15.484375 15.921875 20.484375 11.0625 
Q 25.484375 6.203125 34.421875 6.203125 
Q 39.59375 6.203125 44.453125 7.46875 
Q 49.3125 8.734375 54.109375 11.28125 
L 54.109375 2.78125 
Q 49.265625 0.734375 44.1875 -0.34375 
Q 39.109375 -1.421875 33.890625 -1.421875 
Q 20.796875 -1.421875 13.15625 6.1875 
Q 5.515625 13.8125 5.515625 26.8125 
Q 5.515625 40.234375 12.765625 48.109375 
Q 20.015625 56 32.328125 56 
Q 43.359375 56 49.78125 48.890625 
Q 56.203125 41.796875 56.203125 29.59375 
z
M 47.21875 32.234375 
Q 47.125 39.59375 43.09375 43.984375 
Q 39.0625 48.390625 32.421875 48.390625 
Q 24.90625 48.390625 20.390625 44.140625 
Q 15.875 39.890625 15.1875 32.171875 
z
" id="DejaVuSans-101"/>
      <path d="M 45.40625 46.390625 
L 45.40625 75.984375 
L 54.390625 75.984375 
L 54.390625 0 
L 45.40625 0 
L 45.40625 8.203125 
Q 42.578125 3.328125 38.25 0.953125 
Q 33.9375 -1.421875 27.875 -1.421875 
Q 17.96875 -1.421875 11.734375 6.484375 
Q 5.515625 14.40625 5.515625 27.296875 
Q 5.515625 40.1875 11.734375 48.09375 
Q 17.96875 56 27.875 56 
Q 33.9375 56 38.25 53.625 
Q 42.578125 51.265625 45.40625 46.390625 
z
M 14.796875 27.296875 
Q 14.796875 17.390625 18.875 11.75 
Q 22.953125 6.109375 30.078125 6.109375 
Q 37.203125 6.109375 41.296875 11.75 
Q 45.40625 17.390625 45.40625 27.296875 
Q 45.40625 37.203125 41.296875 42.84375 
Q 37.203125 48.484375 30.078125 48.484375 
Q 22.953125 48.484375 18.875 42.84375 
Q 14.796875 37.203125 14.796875 27.296875 
z
" id="DejaVuSans-100"/>
      <path d="M 32.171875 -5.078125 
Q 28.375 -14.84375 24.75 -17.8125 
Q 21.140625 -20.796875 15.09375 -20.796875 
L 7.90625 -20.796875 
L 7.90625 -13.28125 
L 13.1875 -13.28125 
Q 16.890625 -13.28125 18.9375 -11.515625 
Q 21 -9.765625 23.484375 -3.21875 
L 25.09375 0.875 
L 2.984375 54.6875 
L 12.5 54.6875 
L 29.59375 11.921875 
L 46.6875 54.6875 
L 56.203125 54.6875 
z
" id="DejaVuSans-121"/>
     </defs>
     <g transform="translate(91.195312 388.090156)rotate(-90)scale(0.1 -0.1)">
      <use xlink:href="#DejaVuSans-40"/>
      <use x="39.013672" xlink:href="#DejaVuSans-98"/>
      <use x="102.490234" xlink:href="#DejaVuSans-97"/>
      <use x="163.769531" xlink:href="#DejaVuSans-99"/>
      <use x="218.75" xlink:href="#DejaVuSans-107"/>
      <use x="276.660156" xlink:href="#DejaVuSans-119"/>
      <use x="358.447266" xlink:href="#DejaVuSans-32"/>
      <use x="390.234375" xlink:href="#DejaVuSans-97"/>
      <use x="451.513672" xlink:href="#DejaVuSans-118"/>
      <use x="510.693359" xlink:href="#DejaVuSans-103"/>
      <use x="574.169922" xlink:href="#DejaVuSans-41"/>
      <use x="613.183594" xlink:href="#DejaVuSans-32"/>
      <use x="644.970703" xlink:href="#DejaVuSans-103"/>
      <use x="708.447266" xlink:href="#DejaVuSans-114"/>
      <use x="747.310547" xlink:href="#DejaVuSans-111"/>
      <use x="808.492188" xlink:href="#DejaVuSans-119"/>
      <use x="890.279297" xlink:href="#DejaVuSans-116"/>
      <use x="929.488281" xlink:href="#DejaVuSans-104"/>
      <use x="992.867188" xlink:href="#DejaVuSans-32"/>
      <use x="1024.654297" xlink:href="#DejaVuSans-105"/>
      <use x="1052.4375" xlink:href="#DejaVuSans-110"/>
      <use x="1115.816406" xlink:href="#DejaVuSans-32"/>
      <use x="1147.603516" xlink:href="#DejaVuSans-112"/>
      <use x="1211.080078" xlink:href="#DejaVuSans-101"/>
      <use x="1272.603516" xlink:href="#DejaVuSans-114"/>
      <use x="1311.466797" xlink:href="#DejaVuSans-99"/>
      <use x="1366.447266" xlink:href="#DejaVuSans-101"/>
      <use x="1427.970703" xlink:href="#DejaVuSans-110"/>
      <use x="1491.349609" xlink:href="#DejaVuSans-116"/>
      <use x="1530.558594" xlink:href="#DejaVuSans-32"/>
      <use x="1562.345703" xlink:href="#DejaVuSans-112"/>
      <use x="1625.822266" xlink:href="#DejaVuSans-101"/>
      <use x="1687.345703" xlink:href="#DejaVuSans-114"/>
      <use x="1728.458984" xlink:href="#DejaVuSans-32"/>
      <use x="1760.246094" xlink:href="#DejaVuSans-100"/>
      <use x="1823.722656" xlink:href="#DejaVuSans-97"/>
      <use x="1885.001953" xlink:href="#DejaVuSans-121"/>
     </g>
    </g>
   </g>
   <g id="line2d_123">
    <path clip-path="url(#p3bdbd30df4)" d="M 172.605644 -1 
L 174.39697 143.04 
L 181.455775 -1 
M 192.220578 -1 
L 198.821212 122.693349 
L 211.033333 187.270328 
L 223.245455 169.761999 
L 235.457576 197.160826 
L 247.669697 111.990298 
L 259.881818 118.456386 
L 272.093939 324.220175 
L 284.306061 378.606552 
L 296.518182 359.58754 
L 308.730303 275.839691 
L 320.942424 400.025536 
L 333.154545 274.82772 
L 345.366667 184.634908 
L 357.578788 224.506532 
L 369.790909 311.329669 
L 382.00303 432.936929 
L 394.215152 384.621461 
L 406.427273 343.718657 
L 418.639394 274.431771 
L 430.851515 312.882295 
L 443.063636 373.532611 
L 455.275758 396.907156 
L 467.487879 402.076763 
L 479.7 429.033883 
L 491.912121 443.502427 
L 504.124242 446.6949 
L 516.336364 444.868397 
L 528.548485 460.15536 
L 540.760606 465.661543 
L 552.972727 469.626214 
L 565.184848 470.963378 
L 577.39697 464.73426 
L 589.609091 475.347644 
L 601.821212 480.401545 
L 614.033333 484.993064 
L 626.245455 492.159079 
L 638.457576 492.711993 
L 650.669697 485.442114 
L 662.881818 483.357038 
L 675.093939 492.729387 
L 687.306061 496.586406 
L 699.518182 499.745484 
L 711.730303 504.136019 
L 723.942424 505.101746 
L 736.154545 503.374617 
L 748.366667 501.382356 
L 760.578788 502.299087 
L 772.790909 503.406512 
L 785.00303 503.658622 
L 797.215152 505.392505 
L 809.427273 508.348893 
" style="fill:none;stroke:#1f77b4;stroke-linecap:square;stroke-width:1.5;"/>
    <defs>
     <path d="M 0 3 
C 0.795609 3 1.55874 2.683901 2.12132 2.12132 
C 2.683901 1.55874 3 0.795609 3 0 
C 3 -0.795609 2.683901 -1.55874 2.12132 -2.12132 
C 1.55874 -2.683901 0.795609 -3 0 -3 
C -0.795609 -3 -1.55874 -2.683901 -2.12132 -2.12132 
C -2.683901 -1.55874 -3 -0.795609 -3 0 
C -3 0.795609 -2.683901 1.55874 -2.12132 2.12132 
C -1.55874 2.683901 -0.795609 3 0 3 
z
" id="m12250688e2" style="stroke:#1f77b4;"/>
    </defs>
    <g clip-path="url(#p3bdbd30df4)">
     <use style="fill:#1f77b4;stroke:#1f77b4;" x="172.605644" xlink:href="#m12250688e2" y="-1"/>
     <use style="fill:#1f77b4;stroke:#1f77b4;" x="174.39697" xlink:href="#m12250688e2" y="143.04"/>
     <use style="fill:#1f77b4;stroke:#1f77b4;" x="181.455775" xlink:href="#m12250688e2" y="-1"/>
     <use style="fill:#1f77b4;stroke:#1f77b4;" x="192.220578" xlink:href="#m12250688e2" y="-1"/>
     <use style="fill:#1f77b4;stroke:#1f77b4;" x="198.821212" xlink:href="#m12250688e2" y="122.693349"/>
     <use style="fill:#1f77b4;stroke:#1f77b4;" x="211.033333" xlink:href="#m12250688e2" y="187.270328"/>
     <use style="fill:#1f77b4;stroke:#1f77b4;" x="223.245455" xlink:href="#m12250688e2" y="169.761999"/>
     <use style="fill:#1f77b4;stroke:#1f77b4;" x="235.457576" xlink:href="#m12250688e2" y="197.160826"/>
     <use style="fill:#1f77b4;stroke:#1f77b4;" x="247.669697" xlink:href="#m12250688e2" y="111.990298"/>
     <use style="fill:#1f77b4;stroke:#1f77b4;" x="259.881818" xlink:href="#m12250688e2" y="118.456386"/>
     <use style="fill:#1f77b4;stroke:#1f77b4;" x="272.093939" xlink:href="#m12250688e2" y="324.220175"/>
     <use style="fill:#1f77b4;stroke:#1f77b4;" x="284.306061" xlink:href="#m12250688e2" y="378.606552"/>
     <use style="fill:#1f77b4;stroke:#1f77b4;" x="296.518182" xlink:href="#m12250688e2" y="359.58754"/>
     <use style="fill:#1f77b4;stroke:#1f77b4;" x="308.730303" xlink:href="#m12250688e2" y="275.839691"/>
     <use style="fill:#1f77b4;stroke:#1f77b4;" x="320.942424" xlink:href="#m12250688e2" y="400.025536"/>
     <use style="fill:#1f77b4;stroke:#1f77b4;" x="333.154545" xlink:href="#m12250688e2" y="274.82772"/>
     <use style="fill:#1f77b4;stroke:#1f77b4;" x="345.366667" xlink:href="#m12250688e2" y="184.634908"/>
     <use style="fill:#1f77b4;stroke:#1f77b4;" x="357.578788" xlink:href="#m12250688e2" y="224.506532"/>
     <use style="fill:#1f77b4;stroke:#1f77b4;" x="369.790909" xlink:href="#m12250688e2" y="311.329669"/>
     <use style="fill:#1f77b4;stroke:#1f77b4;" x="382.00303" xlink:href="#m12250688e2" y="432.936929"/>
     <use style="fill:#1f77b4;stroke:#1f77b4;" x="394.215152" xlink:href="#m12250688e2" y="384.621461"/>
     <use style="fill:#1f77b4;stroke:#1f77b4;" x="406.427273" xlink:href="#m12250688e2" y="343.718657"/>
     <use style="fill:#1f77b4;stroke:#1f77b4;" x="418.639394" xlink:href="#m12250688e2" y="274.431771"/>
     <use style="fill:#1f77b4;stroke:#1f77b4;" x="430.851515" xlink:href="#m12250688e2" y="312.882295"/>
     <use style="fill:#1f77b4;stroke:#1f77b4;" x="443.063636" xlink:href="#m12250688e2" y="373.532611"/>
     <use style="fill:#1f77b4;stroke:#1f77b4;" x="455.275758" xlink:href="#m12250688e2" y="396.907156"/>
     <use style="fill:#1f77b4;stroke:#1f77b4;" x="467.487879" xlink:href="#m12250688e2" y="402.076763"/>
     <use style="fill:#1f77b4;stroke:#1f77b4;" x="479.7" xlink:href="#m12250688e2" y="429.033883"/>
     <use style="fill:#1f77b4;stroke:#1f77b4;" x="491.912121" xlink:href="#m12250688e2" y="443.502427"/>
     <use style="fill:#1f77b4;stroke:#1f77b4;" x="504.124242" xlink:href="#m12250688e2" y="446.6949"/>
     <use style="fill:#1f77b4;stroke:#1f77b4;" x="516.336364" xlink:href="#m12250688e2" y="444.868397"/>
     <use style="fill:#1f77b4;stroke:#1f77b4;" x="528.548485" xlink:href="#m12250688e2" y="460.15536"/>
     <use style="fill:#1f77b4;stroke:#1f77b4;" x="540.760606" xlink:href="#m12250688e2" y="465.661543"/>
     <use style="fill:#1f77b4;stroke:#1f77b4;" x="552.972727" xlink:href="#m12250688e2" y="469.626214"/>
     <use style="fill:#1f77b4;stroke:#1f77b4;" x="565.184848" xlink:href="#m12250688e2" y="470.963378"/>
     <use style="fill:#1f77b4;stroke:#1f77b4;" x="577.39697" xlink:href="#m12250688e2" y="464.73426"/>
     <use style="fill:#1f77b4;stroke:#1f77b4;" x="589.609091" xlink:href="#m12250688e2" y="475.347644"/>
     <use style="fill:#1f77b4;stroke:#1f77b4;" x="601.821212" xlink:href="#m12250688e2" y="480.401545"/>
     <use style="fill:#1f77b4;stroke:#1f77b4;" x="614.033333" xlink:href="#m12250688e2" y="484.993064"/>
     <use style="fill:#1f77b4;stroke:#1f77b4;" x="626.245455" xlink:href="#m12250688e2" y="492.159079"/>
     <use style="fill:#1f77b4;stroke:#1f77b4;" x="638.457576" xlink:href="#m12250688e2" y="492.711993"/>
     <use style="fill:#1f77b4;stroke:#1f77b4;" x="650.669697" xlink:href="#m12250688e2" y="485.442114"/>
     <use style="fill:#1f77b4;stroke:#1f77b4;" x="662.881818" xlink:href="#m12250688e2" y="483.357038"/>
     <use style="fill:#1f77b4;stroke:#1f77b4;" x="675.093939" xlink:href="#m12250688e2" y="492.729387"/>
     <use style="fill:#1f77b4;stroke:#1f77b4;" x="687.306061" xlink:href="#m12250688e2" y="496.586406"/>
     <use style="fill:#1f77b4;stroke:#1f77b4;" x="699.518182" xlink:href="#m12250688e2" y="499.745484"/>
     <use style="fill:#1f77b4;stroke:#1f77b4;" x="711.730303" xlink:href="#m12250688e2" y="504.136019"/>
     <use style="fill:#1f77b4;stroke:#1f77b4;" x="723.942424" xlink:href="#m12250688e2" y="505.101746"/>
     <use style="fill:#1f77b4;stroke:#1f77b4;" x="736.154545" xlink:href="#m12250688e2" y="503.374617"/>
     <use style="fill:#1f77b4;stroke:#1f77b4;" x="748.366667" xlink:href="#m12250688e2" y="501.382356"/>
     <use style="fill:#1f77b4;stroke:#1f77b4;" x="760.578788" xlink:href="#m12250688e2" y="502.299087"/>
     <use style="fill:#1f77b4;stroke:#1f77b4;" x="772.790909" xlink:href="#m12250688e2" y="503.406512"/>
     <use style="fill:#1f77b4;stroke:#1f77b4;" x="785.00303" xlink:href="#m12250688e2" y="503.658622"/>
     <use style="fill:#1f77b4;stroke:#1f77b4;" x="797.215152" xlink:href="#m12250688e2" y="505.392505"/>
     <use style="fill:#1f77b4;stroke:#1f77b4;" x="809.427273" xlink:href="#m12250688e2" y="508.348893"/>
    </g>
   </g>
   <g id="line2d_124">
    <path clip-path="url(#p3bdbd30df4)" d="M 195.932314 -1 
L 198.821212 132.912922 
L 211.033333 49.474606 
L 223.245455 146.478181 
L 235.457576 192.227117 
L 247.669697 141.251738 
L 259.881818 158.516583 
L 272.093939 223.566115 
L 284.306061 256.999067 
L 296.518182 342.075706 
L 308.730303 328.651983 
L 320.942424 380.040969 
L 333.154545 275.333837 
L 345.366667 298.393235 
L 357.578788 249.983017 
L 369.790909 249.983017 
L 382.00303 334.623269 
L 394.215152 348.718749 
L 406.427273 389.480819 
L 418.639394 331.173646 
L 430.851515 328.429186 
L 443.063636 325.306207 
L 455.275758 355.879185 
L 467.487879 387.922568 
L 479.7 413.124331 
L 491.912121 423.048378 
L 504.124242 437.912292 
L 516.336364 444.185701 
L 528.548485 453.453496 
L 540.760606 455.332819 
L 552.972727 464.905035 
L 565.184848 468.316945 
L 577.39697 467.18405 
L 589.609091 473.158597 
L 601.821212 472.607278 
L 614.033333 480.185425 
L 626.245455 486.302884 
L 638.457576 488.86229 
L 650.669697 488.807988 
L 662.881818 488.048838 
L 675.093939 489.094453 
L 687.306061 490.000438 
L 699.518182 496.245579 
L 711.730303 500.370693 
L 723.942424 502.4284 
L 736.154545 503.755415 
L 748.366667 503.244361 
L 760.578788 502.837045 
L 772.790909 502.395117 
L 785.00303 502.979163 
L 797.215152 504.400168 
L 809.427273 506.007445 
" style="fill:none;stroke:#ff7f0e;stroke-linecap:square;stroke-width:1.5;"/>
    <defs>
     <path d="M 0 3 
C 0.795609 3 1.55874 2.683901 2.12132 2.12132 
C 2.683901 1.55874 3 0.795609 3 0 
C 3 -0.795609 2.683901 -1.55874 2.12132 -2.12132 
C 1.55874 -2.683901 0.795609 -3 0 -3 
C -0.795609 -3 -1.55874 -2.683901 -2.12132 -2.12132 
C -2.683901 -1.55874 -3 -0.795609 -3 0 
C -3 0.795609 -2.683901 1.55874 -2.12132 2.12132 
C -1.55874 2.683901 -0.795609 3 0 3 
z
" id="m7976e06bbf" style="stroke:#ff7f0e;"/>
    </defs>
    <g clip-path="url(#p3bdbd30df4)">
     <use style="fill:#ff7f0e;stroke:#ff7f0e;" x="195.932314" xlink:href="#m7976e06bbf" y="-1"/>
     <use style="fill:#ff7f0e;stroke:#ff7f0e;" x="198.821212" xlink:href="#m7976e06bbf" y="132.912922"/>
     <use style="fill:#ff7f0e;stroke:#ff7f0e;" x="211.033333" xlink:href="#m7976e06bbf" y="49.474606"/>
     <use style="fill:#ff7f0e;stroke:#ff7f0e;" x="223.245455" xlink:href="#m7976e06bbf" y="146.478181"/>
     <use style="fill:#ff7f0e;stroke:#ff7f0e;" x="235.457576" xlink:href="#m7976e06bbf" y="192.227117"/>
     <use style="fill:#ff7f0e;stroke:#ff7f0e;" x="247.669697" xlink:href="#m7976e06bbf" y="141.251738"/>
     <use style="fill:#ff7f0e;stroke:#ff7f0e;" x="259.881818" xlink:href="#m7976e06bbf" y="158.516583"/>
     <use style="fill:#ff7f0e;stroke:#ff7f0e;" x="272.093939" xlink:href="#m7976e06bbf" y="223.566115"/>
     <use style="fill:#ff7f0e;stroke:#ff7f0e;" x="284.306061" xlink:href="#m7976e06bbf" y="256.999067"/>
     <use style="fill:#ff7f0e;stroke:#ff7f0e;" x="296.518182" xlink:href="#m7976e06bbf" y="342.075706"/>
     <use style="fill:#ff7f0e;stroke:#ff7f0e;" x="308.730303" xlink:href="#m7976e06bbf" y="328.651983"/>
     <use style="fill:#ff7f0e;stroke:#ff7f0e;" x="320.942424" xlink:href="#m7976e06bbf" y="380.040969"/>
     <use style="fill:#ff7f0e;stroke:#ff7f0e;" x="333.154545" xlink:href="#m7976e06bbf" y="275.333837"/>
     <use style="fill:#ff7f0e;stroke:#ff7f0e;" x="345.366667" xlink:href="#m7976e06bbf" y="298.393235"/>
     <use style="fill:#ff7f0e;stroke:#ff7f0e;" x="357.578788" xlink:href="#m7976e06bbf" y="249.983017"/>
     <use style="fill:#ff7f0e;stroke:#ff7f0e;" x="369.790909" xlink:href="#m7976e06bbf" y="249.983017"/>
     <use style="fill:#ff7f0e;stroke:#ff7f0e;" x="382.00303" xlink:href="#m7976e06bbf" y="334.623269"/>
     <use style="fill:#ff7f0e;stroke:#ff7f0e;" x="394.215152" xlink:href="#m7976e06bbf" y="348.718749"/>
     <use style="fill:#ff7f0e;stroke:#ff7f0e;" x="406.427273" xlink:href="#m7976e06bbf" y="389.480819"/>
     <use style="fill:#ff7f0e;stroke:#ff7f0e;" x="418.639394" xlink:href="#m7976e06bbf" y="331.173646"/>
     <use style="fill:#ff7f0e;stroke:#ff7f0e;" x="430.851515" xlink:href="#m7976e06bbf" y="328.429186"/>
     <use style="fill:#ff7f0e;stroke:#ff7f0e;" x="443.063636" xlink:href="#m7976e06bbf" y="325.306207"/>
     <use style="fill:#ff7f0e;stroke:#ff7f0e;" x="455.275758" xlink:href="#m7976e06bbf" y="355.879185"/>
     <use style="fill:#ff7f0e;stroke:#ff7f0e;" x="467.487879" xlink:href="#m7976e06bbf" y="387.922568"/>
     <use style="fill:#ff7f0e;stroke:#ff7f0e;" x="479.7" xlink:href="#m7976e06bbf" y="413.124331"/>
     <use style="fill:#ff7f0e;stroke:#ff7f0e;" x="491.912121" xlink:href="#m7976e06bbf" y="423.048378"/>
     <use style="fill:#ff7f0e;stroke:#ff7f0e;" x="504.124242" xlink:href="#m7976e06bbf" y="437.912292"/>
     <use style="fill:#ff7f0e;stroke:#ff7f0e;" x="516.336364" xlink:href="#m7976e06bbf" y="444.185701"/>
     <use style="fill:#ff7f0e;stroke:#ff7f0e;" x="528.548485" xlink:href="#m7976e06bbf" y="453.453496"/>
     <use style="fill:#ff7f0e;stroke:#ff7f0e;" x="540.760606" xlink:href="#m7976e06bbf" y="455.332819"/>
     <use style="fill:#ff7f0e;stroke:#ff7f0e;" x="552.972727" xlink:href="#m7976e06bbf" y="464.905035"/>
     <use style="fill:#ff7f0e;stroke:#ff7f0e;" x="565.184848" xlink:href="#m7976e06bbf" y="468.316945"/>
     <use style="fill:#ff7f0e;stroke:#ff7f0e;" x="577.39697" xlink:href="#m7976e06bbf" y="467.18405"/>
     <use style="fill:#ff7f0e;stroke:#ff7f0e;" x="589.609091" xlink:href="#m7976e06bbf" y="473.158597"/>
     <use style="fill:#ff7f0e;stroke:#ff7f0e;" x="601.821212" xlink:href="#m7976e06bbf" y="472.607278"/>
     <use style="fill:#ff7f0e;stroke:#ff7f0e;" x="614.033333" xlink:href="#m7976e06bbf" y="480.185425"/>
     <use style="fill:#ff7f0e;stroke:#ff7f0e;" x="626.245455" xlink:href="#m7976e06bbf" y="486.302884"/>
     <use style="fill:#ff7f0e;stroke:#ff7f0e;" x="638.457576" xlink:href="#m7976e06bbf" y="488.86229"/>
     <use style="fill:#ff7f0e;stroke:#ff7f0e;" x="650.669697" xlink:href="#m7976e06bbf" y="488.807988"/>
     <use style="fill:#ff7f0e;stroke:#ff7f0e;" x="662.881818" xlink:href="#m7976e06bbf" y="488.048838"/>
     <use style="fill:#ff7f0e;stroke:#ff7f0e;" x="675.093939" xlink:href="#m7976e06bbf" y="489.094453"/>
     <use style="fill:#ff7f0e;stroke:#ff7f0e;" x="687.306061" xlink:href="#m7976e06bbf" y="490.000438"/>
     <use style="fill:#ff7f0e;stroke:#ff7f0e;" x="699.518182" xlink:href="#m7976e06bbf" y="496.245579"/>
     <use style="fill:#ff7f0e;stroke:#ff7f0e;" x="711.730303" xlink:href="#m7976e06bbf" y="500.370693"/>
     <use style="fill:#ff7f0e;stroke:#ff7f0e;" x="723.942424" xlink:href="#m7976e06bbf" y="502.4284"/>
     <use style="fill:#ff7f0e;stroke:#ff7f0e;" x="736.154545" xlink:href="#m7976e06bbf" y="503.755415"/>
     <use style="fill:#ff7f0e;stroke:#ff7f0e;" x="748.366667" xlink:href="#m7976e06bbf" y="503.244361"/>
     <use style="fill:#ff7f0e;stroke:#ff7f0e;" x="760.578788" xlink:href="#m7976e06bbf" y="502.837045"/>
     <use style="fill:#ff7f0e;stroke:#ff7f0e;" x="772.790909" xlink:href="#m7976e06bbf" y="502.395117"/>
     <use style="fill:#ff7f0e;stroke:#ff7f0e;" x="785.00303" xlink:href="#m7976e06bbf" y="502.979163"/>
     <use style="fill:#ff7f0e;stroke:#ff7f0e;" x="797.215152" xlink:href="#m7976e06bbf" y="504.400168"/>
     <use style="fill:#ff7f0e;stroke:#ff7f0e;" x="809.427273" xlink:href="#m7976e06bbf" y="506.007445"/>
    </g>
   </g>
   <g id="line2d_125">
    <path clip-path="url(#p3bdbd30df4)" d="M 228.987356 -1 
L 235.457576 171.419905 
L 247.669697 69.709681 
L 259.881818 164.62931 
L 272.093939 191.680019 
L 284.306061 241.605284 
L 296.518182 243.838857 
L 308.730303 270.951083 
L 320.942424 303.52247 
L 333.154545 313.215359 
L 345.366667 319.68456 
L 357.578788 285.431087 
L 369.790909 299.706542 
L 382.00303 308.829413 
L 394.215152 331.317159 
L 406.427273 291.424626 
L 418.639394 331.210587 
L 430.851515 325.921294 
L 443.063636 371.525751 
L 455.275758 350.818265 
L 467.487879 362.172232 
L 479.7 364.250589 
L 491.912121 391.273015 
L 504.124242 412.08143 
L 516.336364 427.724329 
L 528.548485 436.628394 
L 540.760606 447.230661 
L 552.972727 455.69439 
L 565.184848 459.165216 
L 577.39697 461.726036 
L 589.609091 467.32949 
L 601.821212 471.826657 
L 614.033333 474.441907 
L 626.245455 479.430211 
L 638.457576 481.067521 
L 650.669697 483.549526 
L 662.881818 486.322535 
L 675.093939 488.503076 
L 687.306061 490.94609 
L 699.518182 492.727908 
L 711.730303 494.393011 
L 723.942424 496.288591 
L 736.154545 499.499635 
L 748.366667 501.395014 
L 760.578788 502.221739 
L 772.790909 503.337486 
L 785.00303 503.338174 
L 797.215152 503.697081 
L 809.427273 504.269569 
" style="fill:none;stroke:#2ca02c;stroke-linecap:square;stroke-width:1.5;"/>
    <defs>
     <path d="M 0 3 
C 0.795609 3 1.55874 2.683901 2.12132 2.12132 
C 2.683901 1.55874 3 0.795609 3 0 
C 3 -0.795609 2.683901 -1.55874 2.12132 -2.12132 
C 1.55874 -2.683901 0.795609 -3 0 -3 
C -0.795609 -3 -1.55874 -2.683901 -2.12132 -2.12132 
C -2.683901 -1.55874 -3 -0.795609 -3 0 
C -3 0.795609 -2.683901 1.55874 -2.12132 2.12132 
C -1.55874 2.683901 -0.795609 3 0 3 
z
" id="mae2af1fc7a" style="stroke:#2ca02c;"/>
    </defs>
    <g clip-path="url(#p3bdbd30df4)">
     <use style="fill:#2ca02c;stroke:#2ca02c;" x="228.987356" xlink:href="#mae2af1fc7a" y="-1"/>
     <use style="fill:#2ca02c;stroke:#2ca02c;" x="235.457576" xlink:href="#mae2af1fc7a" y="171.419905"/>
     <use style="fill:#2ca02c;stroke:#2ca02c;" x="247.669697" xlink:href="#mae2af1fc7a" y="69.709681"/>
     <use style="fill:#2ca02c;stroke:#2ca02c;" x="259.881818" xlink:href="#mae2af1fc7a" y="164.62931"/>
     <use style="fill:#2ca02c;stroke:#2ca02c;" x="272.093939" xlink:href="#mae2af1fc7a" y="191.680019"/>
     <use style="fill:#2ca02c;stroke:#2ca02c;" x="284.306061" xlink:href="#mae2af1fc7a" y="241.605284"/>
     <use style="fill:#2ca02c;stroke:#2ca02c;" x="296.518182" xlink:href="#mae2af1fc7a" y="243.838857"/>
     <use style="fill:#2ca02c;stroke:#2ca02c;" x="308.730303" xlink:href="#mae2af1fc7a" y="270.951083"/>
     <use style="fill:#2ca02c;stroke:#2ca02c;" x="320.942424" xlink:href="#mae2af1fc7a" y="303.52247"/>
     <use style="fill:#2ca02c;stroke:#2ca02c;" x="333.154545" xlink:href="#mae2af1fc7a" y="313.215359"/>
     <use style="fill:#2ca02c;stroke:#2ca02c;" x="345.366667" xlink:href="#mae2af1fc7a" y="319.68456"/>
     <use style="fill:#2ca02c;stroke:#2ca02c;" x="357.578788" xlink:href="#mae2af1fc7a" y="285.431087"/>
     <use style="fill:#2ca02c;stroke:#2ca02c;" x="369.790909" xlink:href="#mae2af1fc7a" y="299.706542"/>
     <use style="fill:#2ca02c;stroke:#2ca02c;" x="382.00303" xlink:href="#mae2af1fc7a" y="308.829413"/>
     <use style="fill:#2ca02c;stroke:#2ca02c;" x="394.215152" xlink:href="#mae2af1fc7a" y="331.317159"/>
     <use style="fill:#2ca02c;stroke:#2ca02c;" x="406.427273" xlink:href="#mae2af1fc7a" y="291.424626"/>
     <use style="fill:#2ca02c;stroke:#2ca02c;" x="418.639394" xlink:href="#mae2af1fc7a" y="331.210587"/>
     <use style="fill:#2ca02c;stroke:#2ca02c;" x="430.851515" xlink:href="#mae2af1fc7a" y="325.921294"/>
     <use style="fill:#2ca02c;stroke:#2ca02c;" x="443.063636" xlink:href="#mae2af1fc7a" y="371.525751"/>
     <use style="fill:#2ca02c;stroke:#2ca02c;" x="455.275758" xlink:href="#mae2af1fc7a" y="350.818265"/>
     <use style="fill:#2ca02c;stroke:#2ca02c;" x="467.487879" xlink:href="#mae2af1fc7a" y="362.172232"/>
     <use style="fill:#2ca02c;stroke:#2ca02c;" x="479.7" xlink:href="#mae2af1fc7a" y="364.250589"/>
     <use style="fill:#2ca02c;stroke:#2ca02c;" x="491.912121" xlink:href="#mae2af1fc7a" y="391.273015"/>
     <use style="fill:#2ca02c;stroke:#2ca02c;" x="504.124242" xlink:href="#mae2af1fc7a" y="412.08143"/>
     <use style="fill:#2ca02c;stroke:#2ca02c;" x="516.336364" xlink:href="#mae2af1fc7a" y="427.724329"/>
     <use style="fill:#2ca02c;stroke:#2ca02c;" x="528.548485" xlink:href="#mae2af1fc7a" y="436.628394"/>
     <use style="fill:#2ca02c;stroke:#2ca02c;" x="540.760606" xlink:href="#mae2af1fc7a" y="447.230661"/>
     <use style="fill:#2ca02c;stroke:#2ca02c;" x="552.972727" xlink:href="#mae2af1fc7a" y="455.69439"/>
     <use style="fill:#2ca02c;stroke:#2ca02c;" x="565.184848" xlink:href="#mae2af1fc7a" y="459.165216"/>
     <use style="fill:#2ca02c;stroke:#2ca02c;" x="577.39697" xlink:href="#mae2af1fc7a" y="461.726036"/>
     <use style="fill:#2ca02c;stroke:#2ca02c;" x="589.609091" xlink:href="#mae2af1fc7a" y="467.32949"/>
     <use style="fill:#2ca02c;stroke:#2ca02c;" x="601.821212" xlink:href="#mae2af1fc7a" y="471.826657"/>
     <use style="fill:#2ca02c;stroke:#2ca02c;" x="614.033333" xlink:href="#mae2af1fc7a" y="474.441907"/>
     <use style="fill:#2ca02c;stroke:#2ca02c;" x="626.245455" xlink:href="#mae2af1fc7a" y="479.430211"/>
     <use style="fill:#2ca02c;stroke:#2ca02c;" x="638.457576" xlink:href="#mae2af1fc7a" y="481.067521"/>
     <use style="fill:#2ca02c;stroke:#2ca02c;" x="650.669697" xlink:href="#mae2af1fc7a" y="483.549526"/>
     <use style="fill:#2ca02c;stroke:#2ca02c;" x="662.881818" xlink:href="#mae2af1fc7a" y="486.322535"/>
     <use style="fill:#2ca02c;stroke:#2ca02c;" x="675.093939" xlink:href="#mae2af1fc7a" y="488.503076"/>
     <use style="fill:#2ca02c;stroke:#2ca02c;" x="687.306061" xlink:href="#mae2af1fc7a" y="490.94609"/>
     <use style="fill:#2ca02c;stroke:#2ca02c;" x="699.518182" xlink:href="#mae2af1fc7a" y="492.727908"/>
     <use style="fill:#2ca02c;stroke:#2ca02c;" x="711.730303" xlink:href="#mae2af1fc7a" y="494.393011"/>
     <use style="fill:#2ca02c;stroke:#2ca02c;" x="723.942424" xlink:href="#mae2af1fc7a" y="496.288591"/>
     <use style="fill:#2ca02c;stroke:#2ca02c;" x="736.154545" xlink:href="#mae2af1fc7a" y="499.499635"/>
     <use style="fill:#2ca02c;stroke:#2ca02c;" x="748.366667" xlink:href="#mae2af1fc7a" y="501.395014"/>
     <use style="fill:#2ca02c;stroke:#2ca02c;" x="760.578788" xlink:href="#mae2af1fc7a" y="502.221739"/>
     <use style="fill:#2ca02c;stroke:#2ca02c;" x="772.790909" xlink:href="#mae2af1fc7a" y="503.337486"/>
     <use style="fill:#2ca02c;stroke:#2ca02c;" x="785.00303" xlink:href="#mae2af1fc7a" y="503.338174"/>
     <use style="fill:#2ca02c;stroke:#2ca02c;" x="797.215152" xlink:href="#mae2af1fc7a" y="503.697081"/>
     <use style="fill:#2ca02c;stroke:#2ca02c;" x="809.427273" xlink:href="#mae2af1fc7a" y="504.269569"/>
    </g>
   </g>
   <g id="line2d_126">
    <path clip-path="url(#p3bdbd30df4)" d="M 296.518182 101.087135 
L 308.730303 77.538424 
L 320.942424 239.623958 
L 333.154545 198.475559 
L 345.366667 245.13778 
L 357.578788 239.640388 
L 369.790909 271.086069 
L 382.00303 276.875514 
L 394.215152 301.613368 
L 406.427273 297.492717 
L 418.639394 322.256517 
L 430.851515 322.80816 
L 443.063636 329.482403 
L 455.275758 325.614898 
L 467.487879 335.88906 
L 479.7 347.933851 
L 491.912121 342.718577 
L 504.124242 372.575285 
L 516.336364 378.304588 
L 528.548485 404.702235 
L 540.760606 400.388004 
L 552.972727 410.231369 
L 565.184848 413.049356 
L 577.39697 427.251623 
L 589.609091 440.175399 
L 601.821212 450.078677 
L 614.033333 455.759635 
L 626.245455 463.494816 
L 638.457576 468.483679 
L 650.669697 471.452605 
L 662.881818 474.121517 
L 675.093939 477.988697 
L 687.306061 481.445684 
L 699.518182 483.639315 
L 711.730303 486.948198 
L 723.942424 488.716005 
L 736.154545 491.566407 
L 748.366667 493.89624 
L 760.578788 495.393506 
L 772.790909 497.16722 
L 785.00303 498.051709 
L 797.215152 499.05942 
L 809.427273 500.289674 
" style="fill:none;stroke:#d62728;stroke-linecap:square;stroke-width:1.5;"/>
    <defs>
     <path d="M 0 3 
C 0.795609 3 1.55874 2.683901 2.12132 2.12132 
C 2.683901 1.55874 3 0.795609 3 0 
C 3 -0.795609 2.683901 -1.55874 2.12132 -2.12132 
C 1.55874 -2.683901 0.795609 -3 0 -3 
C -0.795609 -3 -1.55874 -2.683901 -2.12132 -2.12132 
C -2.683901 -1.55874 -3 -0.795609 -3 0 
C -3 0.795609 -2.683901 1.55874 -2.12132 2.12132 
C -1.55874 2.683901 -0.795609 3 0 3 
z
" id="m96ae54f028" style="stroke:#d62728;"/>
    </defs>
    <g clip-path="url(#p3bdbd30df4)">
     <use style="fill:#d62728;stroke:#d62728;" x="296.518182" xlink:href="#m96ae54f028" y="101.087135"/>
     <use style="fill:#d62728;stroke:#d62728;" x="308.730303" xlink:href="#m96ae54f028" y="77.538424"/>
     <use style="fill:#d62728;stroke:#d62728;" x="320.942424" xlink:href="#m96ae54f028" y="239.623958"/>
     <use style="fill:#d62728;stroke:#d62728;" x="333.154545" xlink:href="#m96ae54f028" y="198.475559"/>
     <use style="fill:#d62728;stroke:#d62728;" x="345.366667" xlink:href="#m96ae54f028" y="245.13778"/>
     <use style="fill:#d62728;stroke:#d62728;" x="357.578788" xlink:href="#m96ae54f028" y="239.640388"/>
     <use style="fill:#d62728;stroke:#d62728;" x="369.790909" xlink:href="#m96ae54f028" y="271.086069"/>
     <use style="fill:#d62728;stroke:#d62728;" x="382.00303" xlink:href="#m96ae54f028" y="276.875514"/>
     <use style="fill:#d62728;stroke:#d62728;" x="394.215152" xlink:href="#m96ae54f028" y="301.613368"/>
     <use style="fill:#d62728;stroke:#d62728;" x="406.427273" xlink:href="#m96ae54f028" y="297.492717"/>
     <use style="fill:#d62728;stroke:#d62728;" x="418.639394" xlink:href="#m96ae54f028" y="322.256517"/>
     <use style="fill:#d62728;stroke:#d62728;" x="430.851515" xlink:href="#m96ae54f028" y="322.80816"/>
     <use style="fill:#d62728;stroke:#d62728;" x="443.063636" xlink:href="#m96ae54f028" y="329.482403"/>
     <use style="fill:#d62728;stroke:#d62728;" x="455.275758" xlink:href="#m96ae54f028" y="325.614898"/>
     <use style="fill:#d62728;stroke:#d62728;" x="467.487879" xlink:href="#m96ae54f028" y="335.88906"/>
     <use style="fill:#d62728;stroke:#d62728;" x="479.7" xlink:href="#m96ae54f028" y="347.933851"/>
     <use style="fill:#d62728;stroke:#d62728;" x="491.912121" xlink:href="#m96ae54f028" y="342.718577"/>
     <use style="fill:#d62728;stroke:#d62728;" x="504.124242" xlink:href="#m96ae54f028" y="372.575285"/>
     <use style="fill:#d62728;stroke:#d62728;" x="516.336364" xlink:href="#m96ae54f028" y="378.304588"/>
     <use style="fill:#d62728;stroke:#d62728;" x="528.548485" xlink:href="#m96ae54f028" y="404.702235"/>
     <use style="fill:#d62728;stroke:#d62728;" x="540.760606" xlink:href="#m96ae54f028" y="400.388004"/>
     <use style="fill:#d62728;stroke:#d62728;" x="552.972727" xlink:href="#m96ae54f028" y="410.231369"/>
     <use style="fill:#d62728;stroke:#d62728;" x="565.184848" xlink:href="#m96ae54f028" y="413.049356"/>
     <use style="fill:#d62728;stroke:#d62728;" x="577.39697" xlink:href="#m96ae54f028" y="427.251623"/>
     <use style="fill:#d62728;stroke:#d62728;" x="589.609091" xlink:href="#m96ae54f028" y="440.175399"/>
     <use style="fill:#d62728;stroke:#d62728;" x="601.821212" xlink:href="#m96ae54f028" y="450.078677"/>
     <use style="fill:#d62728;stroke:#d62728;" x="614.033333" xlink:href="#m96ae54f028" y="455.759635"/>
     <use style="fill:#d62728;stroke:#d62728;" x="626.245455" xlink:href="#m96ae54f028" y="463.494816"/>
     <use style="fill:#d62728;stroke:#d62728;" x="638.457576" xlink:href="#m96ae54f028" y="468.483679"/>
     <use style="fill:#d62728;stroke:#d62728;" x="650.669697" xlink:href="#m96ae54f028" y="471.452605"/>
     <use style="fill:#d62728;stroke:#d62728;" x="662.881818" xlink:href="#m96ae54f028" y="474.121517"/>
     <use style="fill:#d62728;stroke:#d62728;" x="675.093939" xlink:href="#m96ae54f028" y="477.988697"/>
     <use style="fill:#d62728;stroke:#d62728;" x="687.306061" xlink:href="#m96ae54f028" y="481.445684"/>
     <use style="fill:#d62728;stroke:#d62728;" x="699.518182" xlink:href="#m96ae54f028" y="483.639315"/>
     <use style="fill:#d62728;stroke:#d62728;" x="711.730303" xlink:href="#m96ae54f028" y="486.948198"/>
     <use style="fill:#d62728;stroke:#d62728;" x="723.942424" xlink:href="#m96ae54f028" y="488.716005"/>
     <use style="fill:#d62728;stroke:#d62728;" x="736.154545" xlink:href="#m96ae54f028" y="491.566407"/>
     <use style="fill:#d62728;stroke:#d62728;" x="748.366667" xlink:href="#m96ae54f028" y="493.89624"/>
     <use style="fill:#d62728;stroke:#d62728;" x="760.578788" xlink:href="#m96ae54f028" y="495.393506"/>
     <use style="fill:#d62728;stroke:#d62728;" x="772.790909" xlink:href="#m96ae54f028" y="497.16722"/>
     <use style="fill:#d62728;stroke:#d62728;" x="785.00303" xlink:href="#m96ae54f028" y="498.051709"/>
     <use style="fill:#d62728;stroke:#d62728;" x="797.215152" xlink:href="#m96ae54f028" y="499.05942"/>
     <use style="fill:#d62728;stroke:#d62728;" x="809.427273" xlink:href="#m96ae54f028" y="500.289674"/>
    </g>
   </g>
   <g id="patch_3">
    <path d="M 117 512.64 
L 117 69.12 
" style="fill:none;stroke:#000000;stroke-linecap:square;stroke-linejoin:miter;stroke-width:0.8;"/>
   </g>
   <g id="patch_4">
    <path d="M 842.4 512.64 
L 842.4 69.12 
" style="fill:none;stroke:#000000;stroke-linecap:square;stroke-linejoin:miter;stroke-width:0.8;"/>
   </g>
   <g id="patch_5">
    <path d="M 117 512.64 
L 842.4 512.64 
" style="fill:none;stroke:#000000;stroke-linecap:square;stroke-linejoin:miter;stroke-width:0.8;"/>
   </g>
   <g id="patch_6">
    <path d="M 117 69.12 
L 842.4 69.12 
" style="fill:none;stroke:#000000;stroke-linecap:square;stroke-linejoin:miter;stroke-width:0.8;"/>
   </g>
   <g id="text_15">
    <!-- Confirmed cases, daily growth rate in Switzerland (2020-01-22..2020-04-21) -->
    <defs>
     <path d="M 64.40625 67.28125 
L 64.40625 56.890625 
Q 59.421875 61.53125 53.78125 63.8125 
Q 48.140625 66.109375 41.796875 66.109375 
Q 29.296875 66.109375 22.65625 58.46875 
Q 16.015625 50.828125 16.015625 36.375 
Q 16.015625 21.96875 22.65625 14.328125 
Q 29.296875 6.6875 41.796875 6.6875 
Q 48.140625 6.6875 53.78125 8.984375 
Q 59.421875 11.28125 64.40625 15.921875 
L 64.40625 5.609375 
Q 59.234375 2.09375 53.4375 0.328125 
Q 47.65625 -1.421875 41.21875 -1.421875 
Q 24.65625 -1.421875 15.125 8.703125 
Q 5.609375 18.84375 5.609375 36.375 
Q 5.609375 53.953125 15.125 64.078125 
Q 24.65625 74.21875 41.21875 74.21875 
Q 47.75 74.21875 53.53125 72.484375 
Q 59.328125 70.75 64.40625 67.28125 
z
" id="DejaVuSans-67"/>
     <path d="M 37.109375 75.984375 
L 37.109375 68.5 
L 28.515625 68.5 
Q 23.6875 68.5 21.796875 66.546875 
Q 19.921875 64.59375 19.921875 59.515625 
L 19.921875 54.6875 
L 34.71875 54.6875 
L 34.71875 47.703125 
L 19.921875 47.703125 
L 19.921875 0 
L 10.890625 0 
L 10.890625 47.703125 
L 2.296875 47.703125 
L 2.296875 54.6875 
L 10.890625 54.6875 
L 10.890625 58.5 
Q 10.890625 67.625 15.140625 71.796875 
Q 19.390625 75.984375 28.609375 75.984375 
z
" id="DejaVuSans-102"/>
     <path d="M 52 44.1875 
Q 55.375 50.25 60.0625 53.125 
Q 64.75 56 71.09375 56 
Q 79.640625 56 84.28125 50.015625 
Q 88.921875 44.046875 88.921875 33.015625 
L 88.921875 0 
L 79.890625 0 
L 79.890625 32.71875 
Q 79.890625 40.578125 77.09375 44.375 
Q 74.3125 48.1875 68.609375 48.1875 
Q 61.625 48.1875 57.5625 43.546875 
Q 53.515625 38.921875 53.515625 30.90625 
L 53.515625 0 
L 44.484375 0 
L 44.484375 32.71875 
Q 44.484375 40.625 41.703125 44.40625 
Q 38.921875 48.1875 33.109375 48.1875 
Q 26.21875 48.1875 22.15625 43.53125 
Q 18.109375 38.875 18.109375 30.90625 
L 18.109375 0 
L 9.078125 0 
L 9.078125 54.6875 
L 18.109375 54.6875 
L 18.109375 46.1875 
Q 21.1875 51.21875 25.484375 53.609375 
Q 29.78125 56 35.6875 56 
Q 41.65625 56 45.828125 52.96875 
Q 50 49.953125 52 44.1875 
z
" id="DejaVuSans-109"/>
     <path d="M 44.28125 53.078125 
L 44.28125 44.578125 
Q 40.484375 46.53125 36.375 47.5 
Q 32.28125 48.484375 27.875 48.484375 
Q 21.1875 48.484375 17.84375 46.4375 
Q 14.5 44.390625 14.5 40.28125 
Q 14.5 37.15625 16.890625 35.375 
Q 19.28125 33.59375 26.515625 31.984375 
L 29.59375 31.296875 
Q 39.15625 29.25 43.1875 25.515625 
Q 47.21875 21.78125 47.21875 15.09375 
Q 47.21875 7.46875 41.1875 3.015625 
Q 35.15625 -1.421875 24.609375 -1.421875 
Q 20.21875 -1.421875 15.453125 -0.5625 
Q 10.6875 0.296875 5.421875 2 
L 5.421875 11.28125 
Q 10.40625 8.6875 15.234375 7.390625 
Q 20.0625 6.109375 24.8125 6.109375 
Q 31.15625 6.109375 34.5625 8.28125 
Q 37.984375 10.453125 37.984375 14.40625 
Q 37.984375 18.0625 35.515625 20.015625 
Q 33.0625 21.96875 24.703125 23.78125 
L 21.578125 24.515625 
Q 13.234375 26.265625 9.515625 29.90625 
Q 5.8125 33.546875 5.8125 39.890625 
Q 5.8125 47.609375 11.28125 51.796875 
Q 16.75 56 26.8125 56 
Q 31.78125 56 36.171875 55.265625 
Q 40.578125 54.546875 44.28125 53.078125 
z
" id="DejaVuSans-115"/>
     <path d="M 11.71875 12.40625 
L 22.015625 12.40625 
L 22.015625 4 
L 14.015625 -11.625 
L 7.71875 -11.625 
L 11.71875 4 
z
" id="DejaVuSans-44"/>
     <path d="M 9.421875 75.984375 
L 18.40625 75.984375 
L 18.40625 0 
L 9.421875 0 
z
" id="DejaVuSans-108"/>
     <path d="M 53.515625 70.515625 
L 53.515625 60.890625 
Q 47.90625 63.578125 42.921875 64.890625 
Q 37.9375 66.21875 33.296875 66.21875 
Q 25.25 66.21875 20.875 63.09375 
Q 16.5 59.96875 16.5 54.203125 
Q 16.5 49.359375 19.40625 46.890625 
Q 22.3125 44.4375 30.421875 42.921875 
L 36.375 41.703125 
Q 47.40625 39.59375 52.65625 34.296875 
Q 57.90625 29 57.90625 20.125 
Q 57.90625 9.515625 50.796875 4.046875 
Q 43.703125 -1.421875 29.984375 -1.421875 
Q 24.8125 -1.421875 18.96875 -0.25 
Q 13.140625 0.921875 6.890625 3.21875 
L 6.890625 13.375 
Q 12.890625 10.015625 18.65625 8.296875 
Q 24.421875 6.59375 29.984375 6.59375 
Q 38.421875 6.59375 43.015625 9.90625 
Q 47.609375 13.234375 47.609375 19.390625 
Q 47.609375 24.75 44.3125 27.78125 
Q 41.015625 30.8125 33.5 32.328125 
L 27.484375 33.5 
Q 16.453125 35.6875 11.515625 40.375 
Q 6.59375 45.0625 6.59375 53.421875 
Q 6.59375 63.09375 13.40625 68.65625 
Q 20.21875 74.21875 32.171875 74.21875 
Q 37.3125 74.21875 42.625 73.28125 
Q 47.953125 72.359375 53.515625 70.515625 
z
" id="DejaVuSans-83"/>
     <path d="M 5.515625 54.6875 
L 48.1875 54.6875 
L 48.1875 46.484375 
L 14.40625 7.171875 
L 48.1875 7.171875 
L 48.1875 0 
L 4.296875 0 
L 4.296875 8.203125 
L 38.09375 47.515625 
L 5.515625 47.515625 
z
" id="DejaVuSans-122"/>
     <path d="M 10.6875 12.40625 
L 21 12.40625 
L 21 0 
L 10.6875 0 
z
" id="DejaVuSans-46"/>
    </defs>
    <g transform="translate(250.243125 63.12)scale(0.12 -0.12)">
     <use xlink:href="#DejaVuSans-67"/>
     <use x="69.824219" xlink:href="#DejaVuSans-111"/>
     <use x="131.005859" xlink:href="#DejaVuSans-110"/>
     <use x="194.384766" xlink:href="#DejaVuSans-102"/>
     <use x="229.589844" xlink:href="#DejaVuSans-105"/>
     <use x="257.373047" xlink:href="#DejaVuSans-114"/>
     <use x="296.736328" xlink:href="#DejaVuSans-109"/>
     <use x="394.148438" xlink:href="#DejaVuSans-101"/>
     <use x="455.671875" xlink:href="#DejaVuSans-100"/>
     <use x="519.148438" xlink:href="#DejaVuSans-32"/>
     <use x="550.935547" xlink:href="#DejaVuSans-99"/>
     <use x="605.916016" xlink:href="#DejaVuSans-97"/>
     <use x="667.195312" xlink:href="#DejaVuSans-115"/>
     <use x="719.294922" xlink:href="#DejaVuSans-101"/>
     <use x="780.818359" xlink:href="#DejaVuSans-115"/>
     <use x="832.917969" xlink:href="#DejaVuSans-44"/>
     <use x="864.705078" xlink:href="#DejaVuSans-32"/>
     <use x="896.492188" xlink:href="#DejaVuSans-100"/>
     <use x="959.96875" xlink:href="#DejaVuSans-97"/>
     <use x="1021.248047" xlink:href="#DejaVuSans-105"/>
     <use x="1049.03125" xlink:href="#DejaVuSans-108"/>
     <use x="1076.814453" xlink:href="#DejaVuSans-121"/>
     <use x="1135.994141" xlink:href="#DejaVuSans-32"/>
     <use x="1167.78125" xlink:href="#DejaVuSans-103"/>
     <use x="1231.257812" xlink:href="#DejaVuSans-114"/>
     <use x="1270.121094" xlink:href="#DejaVuSans-111"/>
     <use x="1331.302734" xlink:href="#DejaVuSans-119"/>
     <use x="1413.089844" xlink:href="#DejaVuSans-116"/>
     <use x="1452.298828" xlink:href="#DejaVuSans-104"/>
     <use x="1515.677734" xlink:href="#DejaVuSans-32"/>
     <use x="1547.464844" xlink:href="#DejaVuSans-114"/>
     <use x="1588.578125" xlink:href="#DejaVuSans-97"/>
     <use x="1649.857422" xlink:href="#DejaVuSans-116"/>
     <use x="1689.066406" xlink:href="#DejaVuSans-101"/>
     <use x="1750.589844" xlink:href="#DejaVuSans-32"/>
     <use x="1782.376953" xlink:href="#DejaVuSans-105"/>
     <use x="1810.160156" xlink:href="#DejaVuSans-110"/>
     <use x="1873.539062" xlink:href="#DejaVuSans-32"/>
     <use x="1905.326172" xlink:href="#DejaVuSans-83"/>
     <use x="1968.802734" xlink:href="#DejaVuSans-119"/>
     <use x="2050.589844" xlink:href="#DejaVuSans-105"/>
     <use x="2078.373047" xlink:href="#DejaVuSans-116"/>
     <use x="2117.582031" xlink:href="#DejaVuSans-122"/>
     <use x="2170.072266" xlink:href="#DejaVuSans-101"/>
     <use x="2231.595703" xlink:href="#DejaVuSans-114"/>
     <use x="2272.708984" xlink:href="#DejaVuSans-108"/>
     <use x="2300.492188" xlink:href="#DejaVuSans-97"/>
     <use x="2361.771484" xlink:href="#DejaVuSans-110"/>
     <use x="2425.150391" xlink:href="#DejaVuSans-100"/>
     <use x="2488.626953" xlink:href="#DejaVuSans-32"/>
     <use x="2520.414062" xlink:href="#DejaVuSans-40"/>
     <use x="2559.427734" xlink:href="#DejaVuSans-50"/>
     <use x="2623.050781" xlink:href="#DejaVuSans-48"/>
     <use x="2686.673828" xlink:href="#DejaVuSans-50"/>
     <use x="2750.296875" xlink:href="#DejaVuSans-48"/>
     <use x="2813.919922" xlink:href="#DejaVuSans-45"/>
     <use x="2850.003906" xlink:href="#DejaVuSans-48"/>
     <use x="2913.626953" xlink:href="#DejaVuSans-49"/>
     <use x="2977.25" xlink:href="#DejaVuSans-45"/>
     <use x="3013.333984" xlink:href="#DejaVuSans-50"/>
     <use x="3076.957031" xlink:href="#DejaVuSans-50"/>
     <use x="3140.580078" xlink:href="#DejaVuSans-46"/>
     <use x="3172.367188" xlink:href="#DejaVuSans-46"/>
     <use x="3204.154297" xlink:href="#DejaVuSans-50"/>
     <use x="3267.777344" xlink:href="#DejaVuSans-48"/>
     <use x="3331.400391" xlink:href="#DejaVuSans-50"/>
     <use x="3395.023438" xlink:href="#DejaVuSans-48"/>
     <use x="3458.646484" xlink:href="#DejaVuSans-45"/>
     <use x="3494.730469" xlink:href="#DejaVuSans-48"/>
     <use x="3558.353516" xlink:href="#DejaVuSans-52"/>
     <use x="3621.976562" xlink:href="#DejaVuSans-45"/>
     <use x="3658.060547" xlink:href="#DejaVuSans-50"/>
     <use x="3721.683594" xlink:href="#DejaVuSans-49"/>
     <use x="3785.306641" xlink:href="#DejaVuSans-41"/>
    </g>
   </g>
   <g id="legend_1">
    <g id="patch_7">
     <path d="M 750.5 150.5325 
L 835.4 150.5325 
Q 837.4 150.5325 837.4 148.5325 
L 837.4 76.12 
Q 837.4 74.12 835.4 74.12 
L 750.5 74.12 
Q 748.5 74.12 748.5 76.12 
L 748.5 148.5325 
Q 748.5 150.5325 750.5 150.5325 
z
" style="fill:#ffffff;opacity:0.8;stroke:#cccccc;stroke-linejoin:miter;"/>
    </g>
    <g id="text_16">
     <!-- Avg over $n$ days -->
     <defs>
      <path d="M 34.1875 63.1875 
L 20.796875 26.90625 
L 47.609375 26.90625 
z
M 28.609375 72.90625 
L 39.796875 72.90625 
L 67.578125 0 
L 57.328125 0 
L 50.6875 18.703125 
L 17.828125 18.703125 
L 11.1875 0 
L 0.78125 0 
z
" id="DejaVuSans-65"/>
      <path d="M 55.71875 33.015625 
L 49.3125 0 
L 40.28125 0 
L 46.6875 32.671875 
Q 47.125 34.96875 47.359375 36.71875 
Q 47.609375 38.484375 47.609375 39.5 
Q 47.609375 43.609375 45.015625 45.890625 
Q 42.4375 48.1875 37.796875 48.1875 
Q 30.5625 48.1875 25.34375 43.375 
Q 20.125 38.578125 18.5 30.328125 
L 12.5 0 
L 3.515625 0 
L 14.109375 54.6875 
L 23.09375 54.6875 
L 21.296875 46.09375 
Q 25.046875 50.828125 30.3125 53.40625 
Q 35.59375 56 41.40625 56 
Q 48.640625 56 52.609375 52.09375 
Q 56.59375 48.1875 56.59375 41.109375 
Q 56.59375 39.359375 56.375 37.359375 
Q 56.15625 35.359375 55.71875 33.015625 
z
" id="DejaVuSans-Oblique-110"/>
     </defs>
     <g transform="translate(752.5 85.72)scale(0.1 -0.1)">
      <use transform="translate(0 0.015625)" xlink:href="#DejaVuSans-65"/>
      <use transform="translate(68.408203 0.015625)" xlink:href="#DejaVuSans-118"/>
      <use transform="translate(127.587891 0.015625)" xlink:href="#DejaVuSans-103"/>
      <use transform="translate(191.064453 0.015625)" xlink:href="#DejaVuSans-32"/>
      <use transform="translate(222.851562 0.015625)" xlink:href="#DejaVuSans-111"/>
      <use transform="translate(284.033203 0.015625)" xlink:href="#DejaVuSans-118"/>
      <use transform="translate(343.212891 0.015625)" xlink:href="#DejaVuSans-101"/>
      <use transform="translate(404.736328 0.015625)" xlink:href="#DejaVuSans-114"/>
      <use transform="translate(445.849609 0.015625)" xlink:href="#DejaVuSans-32"/>
      <use transform="translate(477.636719 0.015625)" xlink:href="#DejaVuSans-Oblique-110"/>
      <use transform="translate(541.015625 0.015625)" xlink:href="#DejaVuSans-32"/>
      <use transform="translate(572.802734 0.015625)" xlink:href="#DejaVuSans-100"/>
      <use transform="translate(636.279297 0.015625)" xlink:href="#DejaVuSans-97"/>
      <use transform="translate(697.558594 0.015625)" xlink:href="#DejaVuSans-121"/>
      <use transform="translate(756.738281 0.015625)" xlink:href="#DejaVuSans-115"/>
     </g>
    </g>
    <g id="line2d_127">
     <path d="M 759.196094 96.918438 
L 779.196094 96.918438 
" style="fill:none;stroke:#1f77b4;stroke-linecap:square;stroke-width:1.5;"/>
    </g>
    <g id="line2d_128">
     <g>
      <use style="fill:#1f77b4;stroke:#1f77b4;" x="769.196094" xlink:href="#m12250688e2" y="96.918438"/>
     </g>
    </g>
    <g id="text_17">
     <!-- 2 days -->
     <g transform="translate(787.196094 100.418438)scale(0.1 -0.1)">
      <use xlink:href="#DejaVuSans-50"/>
      <use x="63.623047" xlink:href="#DejaVuSans-32"/>
      <use x="95.410156" xlink:href="#DejaVuSans-100"/>
      <use x="158.886719" xlink:href="#DejaVuSans-97"/>
      <use x="220.166016" xlink:href="#DejaVuSans-121"/>
      <use x="279.345703" xlink:href="#DejaVuSans-115"/>
     </g>
    </g>
    <g id="line2d_129">
     <path d="M 759.196094 111.596563 
L 779.196094 111.596563 
" style="fill:none;stroke:#ff7f0e;stroke-linecap:square;stroke-width:1.5;"/>
    </g>
    <g id="line2d_130">
     <g>
      <use style="fill:#ff7f0e;stroke:#ff7f0e;" x="769.196094" xlink:href="#m7976e06bbf" y="111.596563"/>
     </g>
    </g>
    <g id="text_18">
     <!-- 4 days -->
     <g transform="translate(787.196094 115.096563)scale(0.1 -0.1)">
      <use xlink:href="#DejaVuSans-52"/>
      <use x="63.623047" xlink:href="#DejaVuSans-32"/>
      <use x="95.410156" xlink:href="#DejaVuSans-100"/>
      <use x="158.886719" xlink:href="#DejaVuSans-97"/>
      <use x="220.166016" xlink:href="#DejaVuSans-121"/>
      <use x="279.345703" xlink:href="#DejaVuSans-115"/>
     </g>
    </g>
    <g id="line2d_131">
     <path d="M 759.196094 126.274688 
L 779.196094 126.274688 
" style="fill:none;stroke:#2ca02c;stroke-linecap:square;stroke-width:1.5;"/>
    </g>
    <g id="line2d_132">
     <g>
      <use style="fill:#2ca02c;stroke:#2ca02c;" x="769.196094" xlink:href="#mae2af1fc7a" y="126.274688"/>
     </g>
    </g>
    <g id="text_19">
     <!-- 7 days -->
     <defs>
      <path d="M 8.203125 72.90625 
L 55.078125 72.90625 
L 55.078125 68.703125 
L 28.609375 0 
L 18.3125 0 
L 43.21875 64.59375 
L 8.203125 64.59375 
z
" id="DejaVuSans-55"/>
     </defs>
     <g transform="translate(787.196094 129.774688)scale(0.1 -0.1)">
      <use xlink:href="#DejaVuSans-55"/>
      <use x="63.623047" xlink:href="#DejaVuSans-32"/>
      <use x="95.410156" xlink:href="#DejaVuSans-100"/>
      <use x="158.886719" xlink:href="#DejaVuSans-97"/>
      <use x="220.166016" xlink:href="#DejaVuSans-121"/>
      <use x="279.345703" xlink:href="#DejaVuSans-115"/>
     </g>
    </g>
    <g id="line2d_133">
     <path d="M 759.196094 140.952813 
L 779.196094 140.952813 
" style="fill:none;stroke:#d62728;stroke-linecap:square;stroke-width:1.5;"/>
    </g>
    <g id="line2d_134">
     <g>
      <use style="fill:#d62728;stroke:#d62728;" x="769.196094" xlink:href="#m96ae54f028" y="140.952813"/>
     </g>
    </g>
    <g id="text_20">
     <!-- 14 days -->
     <g transform="translate(787.196094 144.452813)scale(0.1 -0.1)">
      <use xlink:href="#DejaVuSans-49"/>
      <use x="63.623047" xlink:href="#DejaVuSans-52"/>
      <use x="127.246094" xlink:href="#DejaVuSans-32"/>
      <use x="159.033203" xlink:href="#DejaVuSans-100"/>
      <use x="222.509766" xlink:href="#DejaVuSans-97"/>
      <use x="283.789062" xlink:href="#DejaVuSans-121"/>
      <use x="342.96875" xlink:href="#DejaVuSans-115"/>
     </g>
    </g>
   </g>
  </g>
 </g>
 <defs>
  <clipPath id="p3bdbd30df4">
   <rect height="443.52" width="725.4" x="117" y="69.12"/>
  </clipPath>
 </defs>
</svg>
