<?xml version="1.0" encoding="utf-8" standalone="no"?>
<!DOCTYPE svg PUBLIC "-//W3C//DTD SVG 1.1//EN"
  "http://www.w3.org/Graphics/SVG/1.1/DTD/svg11.dtd">
<!-- Created with matplotlib (https://matplotlib.org/) -->
<svg height="576pt" version="1.1" viewBox="0 0 936 576" width="936pt" xmlns="http://www.w3.org/2000/svg" xmlns:xlink="http://www.w3.org/1999/xlink">
 <defs>
  <style type="text/css">
*{stroke-linecap:butt;stroke-linejoin:round;}
  </style>
 </defs>
 <g id="figure_1">
  <g id="patch_1">
   <path d="M 0 576 
L 936 576 
L 936 0 
L 0 0 
z
" style="fill:#ffffff;"/>
  </g>
  <g id="axes_1">
   <g id="patch_2">
    <path d="M 117 512.64 
L 842.4 512.64 
L 842.4 69.12 
L 117 69.12 
z
" style="fill:#ffffff;"/>
   </g>
   <g id="matplotlib.axis_1">
    <g id="xtick_1">
     <g id="line2d_1">
      <path clip-path="url(#pbfa56f7501)" d="M 259.881818 512.64 
L 259.881818 69.12 
" style="fill:none;stroke:#d8dcd6;stroke-dasharray:0.8,1.32;stroke-dashoffset:0;stroke-width:0.8;"/>
     </g>
     <g id="line2d_2">
      <defs>
       <path d="M 0 0 
L 0 3.5 
" id="m87982c889b" style="stroke:#000000;stroke-width:0.8;"/>
      </defs>
      <g>
       <use style="stroke:#000000;stroke-width:0.8;" x="259.881818" xlink:href="#m87982c889b" y="512.64"/>
      </g>
     </g>
     <g id="text_1">
      <!-- 2020-03-12 -->
      <defs>
       <path d="M 19.1875 8.296875 
L 53.609375 8.296875 
L 53.609375 0 
L 7.328125 0 
L 7.328125 8.296875 
Q 12.9375 14.109375 22.625 23.890625 
Q 32.328125 33.6875 34.8125 36.53125 
Q 39.546875 41.84375 41.421875 45.53125 
Q 43.3125 49.21875 43.3125 52.78125 
Q 43.3125 58.59375 39.234375 62.25 
Q 35.15625 65.921875 28.609375 65.921875 
Q 23.96875 65.921875 18.8125 64.3125 
Q 13.671875 62.703125 7.8125 59.421875 
L 7.8125 69.390625 
Q 13.765625 71.78125 18.9375 73 
Q 24.125 74.21875 28.421875 74.21875 
Q 39.75 74.21875 46.484375 68.546875 
Q 53.21875 62.890625 53.21875 53.421875 
Q 53.21875 48.921875 51.53125 44.890625 
Q 49.859375 40.875 45.40625 35.40625 
Q 44.1875 33.984375 37.640625 27.21875 
Q 31.109375 20.453125 19.1875 8.296875 
z
" id="DejaVuSans-50"/>
       <path d="M 31.78125 66.40625 
Q 24.171875 66.40625 20.328125 58.90625 
Q 16.5 51.421875 16.5 36.375 
Q 16.5 21.390625 20.328125 13.890625 
Q 24.171875 6.390625 31.78125 6.390625 
Q 39.453125 6.390625 43.28125 13.890625 
Q 47.125 21.390625 47.125 36.375 
Q 47.125 51.421875 43.28125 58.90625 
Q 39.453125 66.40625 31.78125 66.40625 
z
M 31.78125 74.21875 
Q 44.046875 74.21875 50.515625 64.515625 
Q 56.984375 54.828125 56.984375 36.375 
Q 56.984375 17.96875 50.515625 8.265625 
Q 44.046875 -1.421875 31.78125 -1.421875 
Q 19.53125 -1.421875 13.0625 8.265625 
Q 6.59375 17.96875 6.59375 36.375 
Q 6.59375 54.828125 13.0625 64.515625 
Q 19.53125 74.21875 31.78125 74.21875 
z
" id="DejaVuSans-48"/>
       <path d="M 4.890625 31.390625 
L 31.203125 31.390625 
L 31.203125 23.390625 
L 4.890625 23.390625 
z
" id="DejaVuSans-45"/>
       <path d="M 40.578125 39.3125 
Q 47.65625 37.796875 51.625 33 
Q 55.609375 28.21875 55.609375 21.1875 
Q 55.609375 10.40625 48.1875 4.484375 
Q 40.765625 -1.421875 27.09375 -1.421875 
Q 22.515625 -1.421875 17.65625 -0.515625 
Q 12.796875 0.390625 7.625 2.203125 
L 7.625 11.71875 
Q 11.71875 9.328125 16.59375 8.109375 
Q 21.484375 6.890625 26.8125 6.890625 
Q 36.078125 6.890625 40.9375 10.546875 
Q 45.796875 14.203125 45.796875 21.1875 
Q 45.796875 27.640625 41.28125 31.265625 
Q 36.765625 34.90625 28.71875 34.90625 
L 20.21875 34.90625 
L 20.21875 43.015625 
L 29.109375 43.015625 
Q 36.375 43.015625 40.234375 45.921875 
Q 44.09375 48.828125 44.09375 54.296875 
Q 44.09375 59.90625 40.109375 62.90625 
Q 36.140625 65.921875 28.71875 65.921875 
Q 24.65625 65.921875 20.015625 65.03125 
Q 15.375 64.15625 9.8125 62.3125 
L 9.8125 71.09375 
Q 15.4375 72.65625 20.34375 73.4375 
Q 25.25 74.21875 29.59375 74.21875 
Q 40.828125 74.21875 47.359375 69.109375 
Q 53.90625 64.015625 53.90625 55.328125 
Q 53.90625 49.265625 50.4375 45.09375 
Q 46.96875 40.921875 40.578125 39.3125 
z
" id="DejaVuSans-51"/>
       <path d="M 12.40625 8.296875 
L 28.515625 8.296875 
L 28.515625 63.921875 
L 10.984375 60.40625 
L 10.984375 69.390625 
L 28.421875 72.90625 
L 38.28125 72.90625 
L 38.28125 8.296875 
L 54.390625 8.296875 
L 54.390625 0 
L 12.40625 0 
z
" id="DejaVuSans-49"/>
      </defs>
      <g transform="translate(214.025869 562.816745)rotate(-40)scale(0.1 -0.1)">
       <use xlink:href="#DejaVuSans-50"/>
       <use x="63.623047" xlink:href="#DejaVuSans-48"/>
       <use x="127.246094" xlink:href="#DejaVuSans-50"/>
       <use x="190.869141" xlink:href="#DejaVuSans-48"/>
       <use x="254.492188" xlink:href="#DejaVuSans-45"/>
       <use x="290.576172" xlink:href="#DejaVuSans-48"/>
       <use x="354.199219" xlink:href="#DejaVuSans-51"/>
       <use x="417.822266" xlink:href="#DejaVuSans-45"/>
       <use x="453.90625" xlink:href="#DejaVuSans-49"/>
       <use x="517.529297" xlink:href="#DejaVuSans-50"/>
      </g>
     </g>
    </g>
    <g id="xtick_2">
     <g id="line2d_3">
      <path clip-path="url(#pbfa56f7501)" d="M 416.894805 512.64 
L 416.894805 69.12 
" style="fill:none;stroke:#d8dcd6;stroke-dasharray:0.8,1.32;stroke-dashoffset:0;stroke-width:0.8;"/>
     </g>
     <g id="line2d_4">
      <g>
       <use style="stroke:#000000;stroke-width:0.8;" x="416.894805" xlink:href="#m87982c889b" y="512.64"/>
      </g>
     </g>
     <g id="text_2">
      <!-- 2020-03-22 -->
      <g transform="translate(371.038856 562.816745)rotate(-40)scale(0.1 -0.1)">
       <use xlink:href="#DejaVuSans-50"/>
       <use x="63.623047" xlink:href="#DejaVuSans-48"/>
       <use x="127.246094" xlink:href="#DejaVuSans-50"/>
       <use x="190.869141" xlink:href="#DejaVuSans-48"/>
       <use x="254.492188" xlink:href="#DejaVuSans-45"/>
       <use x="290.576172" xlink:href="#DejaVuSans-48"/>
       <use x="354.199219" xlink:href="#DejaVuSans-51"/>
       <use x="417.822266" xlink:href="#DejaVuSans-45"/>
       <use x="453.90625" xlink:href="#DejaVuSans-50"/>
       <use x="517.529297" xlink:href="#DejaVuSans-50"/>
      </g>
     </g>
    </g>
    <g id="xtick_3">
     <g id="line2d_5">
      <path clip-path="url(#pbfa56f7501)" d="M 573.907792 512.64 
L 573.907792 69.12 
" style="fill:none;stroke:#d8dcd6;stroke-dasharray:0.8,1.32;stroke-dashoffset:0;stroke-width:0.8;"/>
     </g>
     <g id="line2d_6">
      <g>
       <use style="stroke:#000000;stroke-width:0.8;" x="573.907792" xlink:href="#m87982c889b" y="512.64"/>
      </g>
     </g>
     <g id="text_3">
      <!-- 2020-04-01 -->
      <defs>
       <path d="M 37.796875 64.3125 
L 12.890625 25.390625 
L 37.796875 25.390625 
z
M 35.203125 72.90625 
L 47.609375 72.90625 
L 47.609375 25.390625 
L 58.015625 25.390625 
L 58.015625 17.1875 
L 47.609375 17.1875 
L 47.609375 0 
L 37.796875 0 
L 37.796875 17.1875 
L 4.890625 17.1875 
L 4.890625 26.703125 
z
" id="DejaVuSans-52"/>
      </defs>
      <g transform="translate(528.051843 562.816745)rotate(-40)scale(0.1 -0.1)">
       <use xlink:href="#DejaVuSans-50"/>
       <use x="63.623047" xlink:href="#DejaVuSans-48"/>
       <use x="127.246094" xlink:href="#DejaVuSans-50"/>
       <use x="190.869141" xlink:href="#DejaVuSans-48"/>
       <use x="254.492188" xlink:href="#DejaVuSans-45"/>
       <use x="290.576172" xlink:href="#DejaVuSans-48"/>
       <use x="354.199219" xlink:href="#DejaVuSans-52"/>
       <use x="417.822266" xlink:href="#DejaVuSans-45"/>
       <use x="453.90625" xlink:href="#DejaVuSans-48"/>
       <use x="517.529297" xlink:href="#DejaVuSans-49"/>
      </g>
     </g>
    </g>
    <g id="xtick_4">
     <g id="line2d_7">
      <path clip-path="url(#pbfa56f7501)" d="M 730.920779 512.64 
L 730.920779 69.12 
" style="fill:none;stroke:#d8dcd6;stroke-dasharray:0.8,1.32;stroke-dashoffset:0;stroke-width:0.8;"/>
     </g>
     <g id="line2d_8">
      <g>
       <use style="stroke:#000000;stroke-width:0.8;" x="730.920779" xlink:href="#m87982c889b" y="512.64"/>
      </g>
     </g>
     <g id="text_4">
      <!-- 2020-04-11 -->
      <g transform="translate(685.06483 562.816745)rotate(-40)scale(0.1 -0.1)">
       <use xlink:href="#DejaVuSans-50"/>
       <use x="63.623047" xlink:href="#DejaVuSans-48"/>
       <use x="127.246094" xlink:href="#DejaVuSans-50"/>
       <use x="190.869141" xlink:href="#DejaVuSans-48"/>
       <use x="254.492188" xlink:href="#DejaVuSans-45"/>
       <use x="290.576172" xlink:href="#DejaVuSans-48"/>
       <use x="354.199219" xlink:href="#DejaVuSans-52"/>
       <use x="417.822266" xlink:href="#DejaVuSans-45"/>
       <use x="453.90625" xlink:href="#DejaVuSans-49"/>
       <use x="517.529297" xlink:href="#DejaVuSans-49"/>
      </g>
     </g>
    </g>
    <g id="xtick_5">
     <g id="line2d_9">
      <path clip-path="url(#pbfa56f7501)" d="M 134.271429 512.64 
L 134.271429 69.12 
" style="fill:none;stroke:#d8dcd6;stroke-dasharray:0.8,1.32;stroke-dashoffset:0;stroke-width:0.8;"/>
     </g>
     <g id="line2d_10">
      <defs>
       <path d="M 0 0 
L 0 2 
" id="m6528f9057a" style="stroke:#000000;stroke-width:0.6;"/>
      </defs>
      <g>
       <use style="stroke:#000000;stroke-width:0.6;" x="134.271429" xlink:href="#m6528f9057a" y="512.64"/>
      </g>
     </g>
    </g>
    <g id="xtick_6">
     <g id="line2d_11">
      <path clip-path="url(#pbfa56f7501)" d="M 165.674026 512.64 
L 165.674026 69.12 
" style="fill:none;stroke:#d8dcd6;stroke-dasharray:0.8,1.32;stroke-dashoffset:0;stroke-width:0.8;"/>
     </g>
     <g id="line2d_12">
      <g>
       <use style="stroke:#000000;stroke-width:0.6;" x="165.674026" xlink:href="#m6528f9057a" y="512.64"/>
      </g>
     </g>
    </g>
    <g id="xtick_7">
     <g id="line2d_13">
      <path clip-path="url(#pbfa56f7501)" d="M 197.076623 512.64 
L 197.076623 69.12 
" style="fill:none;stroke:#d8dcd6;stroke-dasharray:0.8,1.32;stroke-dashoffset:0;stroke-width:0.8;"/>
     </g>
     <g id="line2d_14">
      <g>
       <use style="stroke:#000000;stroke-width:0.6;" x="197.076623" xlink:href="#m6528f9057a" y="512.64"/>
      </g>
     </g>
    </g>
    <g id="xtick_8">
     <g id="line2d_15">
      <path clip-path="url(#pbfa56f7501)" d="M 228.479221 512.64 
L 228.479221 69.12 
" style="fill:none;stroke:#d8dcd6;stroke-dasharray:0.8,1.32;stroke-dashoffset:0;stroke-width:0.8;"/>
     </g>
     <g id="line2d_16">
      <g>
       <use style="stroke:#000000;stroke-width:0.6;" x="228.479221" xlink:href="#m6528f9057a" y="512.64"/>
      </g>
     </g>
    </g>
    <g id="xtick_9">
     <g id="line2d_17">
      <path clip-path="url(#pbfa56f7501)" d="M 291.284416 512.64 
L 291.284416 69.12 
" style="fill:none;stroke:#d8dcd6;stroke-dasharray:0.8,1.32;stroke-dashoffset:0;stroke-width:0.8;"/>
     </g>
     <g id="line2d_18">
      <g>
       <use style="stroke:#000000;stroke-width:0.6;" x="291.284416" xlink:href="#m6528f9057a" y="512.64"/>
      </g>
     </g>
    </g>
    <g id="xtick_10">
     <g id="line2d_19">
      <path clip-path="url(#pbfa56f7501)" d="M 322.687013 512.64 
L 322.687013 69.12 
" style="fill:none;stroke:#d8dcd6;stroke-dasharray:0.8,1.32;stroke-dashoffset:0;stroke-width:0.8;"/>
     </g>
     <g id="line2d_20">
      <g>
       <use style="stroke:#000000;stroke-width:0.6;" x="322.687013" xlink:href="#m6528f9057a" y="512.64"/>
      </g>
     </g>
    </g>
    <g id="xtick_11">
     <g id="line2d_21">
      <path clip-path="url(#pbfa56f7501)" d="M 354.08961 512.64 
L 354.08961 69.12 
" style="fill:none;stroke:#d8dcd6;stroke-dasharray:0.8,1.32;stroke-dashoffset:0;stroke-width:0.8;"/>
     </g>
     <g id="line2d_22">
      <g>
       <use style="stroke:#000000;stroke-width:0.6;" x="354.08961" xlink:href="#m6528f9057a" y="512.64"/>
      </g>
     </g>
    </g>
    <g id="xtick_12">
     <g id="line2d_23">
      <path clip-path="url(#pbfa56f7501)" d="M 385.492208 512.64 
L 385.492208 69.12 
" style="fill:none;stroke:#d8dcd6;stroke-dasharray:0.8,1.32;stroke-dashoffset:0;stroke-width:0.8;"/>
     </g>
     <g id="line2d_24">
      <g>
       <use style="stroke:#000000;stroke-width:0.6;" x="385.492208" xlink:href="#m6528f9057a" y="512.64"/>
      </g>
     </g>
    </g>
    <g id="xtick_13">
     <g id="line2d_25">
      <path clip-path="url(#pbfa56f7501)" d="M 448.297403 512.64 
L 448.297403 69.12 
" style="fill:none;stroke:#d8dcd6;stroke-dasharray:0.8,1.32;stroke-dashoffset:0;stroke-width:0.8;"/>
     </g>
     <g id="line2d_26">
      <g>
       <use style="stroke:#000000;stroke-width:0.6;" x="448.297403" xlink:href="#m6528f9057a" y="512.64"/>
      </g>
     </g>
    </g>
    <g id="xtick_14">
     <g id="line2d_27">
      <path clip-path="url(#pbfa56f7501)" d="M 479.7 512.64 
L 479.7 69.12 
" style="fill:none;stroke:#d8dcd6;stroke-dasharray:0.8,1.32;stroke-dashoffset:0;stroke-width:0.8;"/>
     </g>
     <g id="line2d_28">
      <g>
       <use style="stroke:#000000;stroke-width:0.6;" x="479.7" xlink:href="#m6528f9057a" y="512.64"/>
      </g>
     </g>
    </g>
    <g id="xtick_15">
     <g id="line2d_29">
      <path clip-path="url(#pbfa56f7501)" d="M 511.102597 512.64 
L 511.102597 69.12 
" style="fill:none;stroke:#d8dcd6;stroke-dasharray:0.8,1.32;stroke-dashoffset:0;stroke-width:0.8;"/>
     </g>
     <g id="line2d_30">
      <g>
       <use style="stroke:#000000;stroke-width:0.6;" x="511.102597" xlink:href="#m6528f9057a" y="512.64"/>
      </g>
     </g>
    </g>
    <g id="xtick_16">
     <g id="line2d_31">
      <path clip-path="url(#pbfa56f7501)" d="M 542.505195 512.64 
L 542.505195 69.12 
" style="fill:none;stroke:#d8dcd6;stroke-dasharray:0.8,1.32;stroke-dashoffset:0;stroke-width:0.8;"/>
     </g>
     <g id="line2d_32">
      <g>
       <use style="stroke:#000000;stroke-width:0.6;" x="542.505195" xlink:href="#m6528f9057a" y="512.64"/>
      </g>
     </g>
    </g>
    <g id="xtick_17">
     <g id="line2d_33">
      <path clip-path="url(#pbfa56f7501)" d="M 605.31039 512.64 
L 605.31039 69.12 
" style="fill:none;stroke:#d8dcd6;stroke-dasharray:0.8,1.32;stroke-dashoffset:0;stroke-width:0.8;"/>
     </g>
     <g id="line2d_34">
      <g>
       <use style="stroke:#000000;stroke-width:0.6;" x="605.31039" xlink:href="#m6528f9057a" y="512.64"/>
      </g>
     </g>
    </g>
    <g id="xtick_18">
     <g id="line2d_35">
      <path clip-path="url(#pbfa56f7501)" d="M 636.712987 512.64 
L 636.712987 69.12 
" style="fill:none;stroke:#d8dcd6;stroke-dasharray:0.8,1.32;stroke-dashoffset:0;stroke-width:0.8;"/>
     </g>
     <g id="line2d_36">
      <g>
       <use style="stroke:#000000;stroke-width:0.6;" x="636.712987" xlink:href="#m6528f9057a" y="512.64"/>
      </g>
     </g>
    </g>
    <g id="xtick_19">
     <g id="line2d_37">
      <path clip-path="url(#pbfa56f7501)" d="M 668.115584 512.64 
L 668.115584 69.12 
" style="fill:none;stroke:#d8dcd6;stroke-dasharray:0.8,1.32;stroke-dashoffset:0;stroke-width:0.8;"/>
     </g>
     <g id="line2d_38">
      <g>
       <use style="stroke:#000000;stroke-width:0.6;" x="668.115584" xlink:href="#m6528f9057a" y="512.64"/>
      </g>
     </g>
    </g>
    <g id="xtick_20">
     <g id="line2d_39">
      <path clip-path="url(#pbfa56f7501)" d="M 699.518182 512.64 
L 699.518182 69.12 
" style="fill:none;stroke:#d8dcd6;stroke-dasharray:0.8,1.32;stroke-dashoffset:0;stroke-width:0.8;"/>
     </g>
     <g id="line2d_40">
      <g>
       <use style="stroke:#000000;stroke-width:0.6;" x="699.518182" xlink:href="#m6528f9057a" y="512.64"/>
      </g>
     </g>
    </g>
    <g id="xtick_21">
     <g id="line2d_41">
      <path clip-path="url(#pbfa56f7501)" d="M 762.323377 512.64 
L 762.323377 69.12 
" style="fill:none;stroke:#d8dcd6;stroke-dasharray:0.8,1.32;stroke-dashoffset:0;stroke-width:0.8;"/>
     </g>
     <g id="line2d_42">
      <g>
       <use style="stroke:#000000;stroke-width:0.6;" x="762.323377" xlink:href="#m6528f9057a" y="512.64"/>
      </g>
     </g>
    </g>
    <g id="xtick_22">
     <g id="line2d_43">
      <path clip-path="url(#pbfa56f7501)" d="M 793.725974 512.64 
L 793.725974 69.12 
" style="fill:none;stroke:#d8dcd6;stroke-dasharray:0.8,1.32;stroke-dashoffset:0;stroke-width:0.8;"/>
     </g>
     <g id="line2d_44">
      <g>
       <use style="stroke:#000000;stroke-width:0.6;" x="793.725974" xlink:href="#m6528f9057a" y="512.64"/>
      </g>
     </g>
    </g>
    <g id="xtick_23">
     <g id="line2d_45">
      <path clip-path="url(#pbfa56f7501)" d="M 825.128571 512.64 
L 825.128571 69.12 
" style="fill:none;stroke:#d8dcd6;stroke-dasharray:0.8,1.32;stroke-dashoffset:0;stroke-width:0.8;"/>
     </g>
     <g id="line2d_46">
      <g>
       <use style="stroke:#000000;stroke-width:0.6;" x="825.128571" xlink:href="#m6528f9057a" y="512.64"/>
      </g>
     </g>
    </g>
   </g>
   <g id="matplotlib.axis_2">
    <g id="ytick_1">
     <g id="line2d_47">
      <path clip-path="url(#pbfa56f7501)" d="M 117 512.64 
L 842.4 512.64 
" style="fill:none;stroke:#d8dcd6;stroke-dasharray:0.8,1.32;stroke-dashoffset:0;stroke-width:0.8;"/>
     </g>
     <g id="line2d_48">
      <defs>
       <path d="M 0 0 
L -3.5 0 
" id="m63a77ae84e" style="stroke:#000000;stroke-width:0.8;"/>
      </defs>
      <g>
       <use style="stroke:#000000;stroke-width:0.8;" x="117" xlink:href="#m63a77ae84e" y="512.64"/>
      </g>
     </g>
     <g id="text_5">
      <!-- 0 -->
      <g transform="translate(103.6375 516.439219)scale(0.1 -0.1)">
       <use xlink:href="#DejaVuSans-48"/>
      </g>
     </g>
    </g>
    <g id="ytick_2">
     <g id="line2d_49">
      <path clip-path="url(#pbfa56f7501)" d="M 117 438.72 
L 842.4 438.72 
" style="fill:none;stroke:#d8dcd6;stroke-dasharray:0.8,1.32;stroke-dashoffset:0;stroke-width:0.8;"/>
     </g>
     <g id="line2d_50">
      <g>
       <use style="stroke:#000000;stroke-width:0.8;" x="117" xlink:href="#m63a77ae84e" y="438.72"/>
      </g>
     </g>
     <g id="text_6">
      <!-- 10 -->
      <g transform="translate(97.275 442.519219)scale(0.1 -0.1)">
       <use xlink:href="#DejaVuSans-49"/>
       <use x="63.623047" xlink:href="#DejaVuSans-48"/>
      </g>
     </g>
    </g>
    <g id="ytick_3">
     <g id="line2d_51">
      <path clip-path="url(#pbfa56f7501)" d="M 117 364.8 
L 842.4 364.8 
" style="fill:none;stroke:#d8dcd6;stroke-dasharray:0.8,1.32;stroke-dashoffset:0;stroke-width:0.8;"/>
     </g>
     <g id="line2d_52">
      <g>
       <use style="stroke:#000000;stroke-width:0.8;" x="117" xlink:href="#m63a77ae84e" y="364.8"/>
      </g>
     </g>
     <g id="text_7">
      <!-- 20 -->
      <g transform="translate(97.275 368.599219)scale(0.1 -0.1)">
       <use xlink:href="#DejaVuSans-50"/>
       <use x="63.623047" xlink:href="#DejaVuSans-48"/>
      </g>
     </g>
    </g>
    <g id="ytick_4">
     <g id="line2d_53">
      <path clip-path="url(#pbfa56f7501)" d="M 117 290.88 
L 842.4 290.88 
" style="fill:none;stroke:#d8dcd6;stroke-dasharray:0.8,1.32;stroke-dashoffset:0;stroke-width:0.8;"/>
     </g>
     <g id="line2d_54">
      <g>
       <use style="stroke:#000000;stroke-width:0.8;" x="117" xlink:href="#m63a77ae84e" y="290.88"/>
      </g>
     </g>
     <g id="text_8">
      <!-- 30 -->
      <g transform="translate(97.275 294.679219)scale(0.1 -0.1)">
       <use xlink:href="#DejaVuSans-51"/>
       <use x="63.623047" xlink:href="#DejaVuSans-48"/>
      </g>
     </g>
    </g>
    <g id="ytick_5">
     <g id="line2d_55">
      <path clip-path="url(#pbfa56f7501)" d="M 117 216.96 
L 842.4 216.96 
" style="fill:none;stroke:#d8dcd6;stroke-dasharray:0.8,1.32;stroke-dashoffset:0;stroke-width:0.8;"/>
     </g>
     <g id="line2d_56">
      <g>
       <use style="stroke:#000000;stroke-width:0.8;" x="117" xlink:href="#m63a77ae84e" y="216.96"/>
      </g>
     </g>
     <g id="text_9">
      <!-- 40 -->
      <g transform="translate(97.275 220.759219)scale(0.1 -0.1)">
       <use xlink:href="#DejaVuSans-52"/>
       <use x="63.623047" xlink:href="#DejaVuSans-48"/>
      </g>
     </g>
    </g>
    <g id="ytick_6">
     <g id="line2d_57">
      <path clip-path="url(#pbfa56f7501)" d="M 117 143.04 
L 842.4 143.04 
" style="fill:none;stroke:#d8dcd6;stroke-dasharray:0.8,1.32;stroke-dashoffset:0;stroke-width:0.8;"/>
     </g>
     <g id="line2d_58">
      <g>
       <use style="stroke:#000000;stroke-width:0.8;" x="117" xlink:href="#m63a77ae84e" y="143.04"/>
      </g>
     </g>
     <g id="text_10">
      <!-- 50 -->
      <defs>
       <path d="M 10.796875 72.90625 
L 49.515625 72.90625 
L 49.515625 64.59375 
L 19.828125 64.59375 
L 19.828125 46.734375 
Q 21.96875 47.46875 24.109375 47.828125 
Q 26.265625 48.1875 28.421875 48.1875 
Q 40.625 48.1875 47.75 41.5 
Q 54.890625 34.8125 54.890625 23.390625 
Q 54.890625 11.625 47.5625 5.09375 
Q 40.234375 -1.421875 26.90625 -1.421875 
Q 22.3125 -1.421875 17.546875 -0.640625 
Q 12.796875 0.140625 7.71875 1.703125 
L 7.71875 11.625 
Q 12.109375 9.234375 16.796875 8.0625 
Q 21.484375 6.890625 26.703125 6.890625 
Q 35.15625 6.890625 40.078125 11.328125 
Q 45.015625 15.765625 45.015625 23.390625 
Q 45.015625 31 40.078125 35.4375 
Q 35.15625 39.890625 26.703125 39.890625 
Q 22.75 39.890625 18.8125 39.015625 
Q 14.890625 38.140625 10.796875 36.28125 
z
" id="DejaVuSans-53"/>
      </defs>
      <g transform="translate(97.275 146.839219)scale(0.1 -0.1)">
       <use xlink:href="#DejaVuSans-53"/>
       <use x="63.623047" xlink:href="#DejaVuSans-48"/>
      </g>
     </g>
    </g>
    <g id="ytick_7">
     <g id="line2d_59">
      <path clip-path="url(#pbfa56f7501)" d="M 117 69.12 
L 842.4 69.12 
" style="fill:none;stroke:#d8dcd6;stroke-dasharray:0.8,1.32;stroke-dashoffset:0;stroke-width:0.8;"/>
     </g>
     <g id="line2d_60">
      <g>
       <use style="stroke:#000000;stroke-width:0.8;" x="117" xlink:href="#m63a77ae84e" y="69.12"/>
      </g>
     </g>
     <g id="text_11">
      <!-- 60 -->
      <defs>
       <path d="M 33.015625 40.375 
Q 26.375 40.375 22.484375 35.828125 
Q 18.609375 31.296875 18.609375 23.390625 
Q 18.609375 15.53125 22.484375 10.953125 
Q 26.375 6.390625 33.015625 6.390625 
Q 39.65625 6.390625 43.53125 10.953125 
Q 47.40625 15.53125 47.40625 23.390625 
Q 47.40625 31.296875 43.53125 35.828125 
Q 39.65625 40.375 33.015625 40.375 
z
M 52.59375 71.296875 
L 52.59375 62.3125 
Q 48.875 64.0625 45.09375 64.984375 
Q 41.3125 65.921875 37.59375 65.921875 
Q 27.828125 65.921875 22.671875 59.328125 
Q 17.53125 52.734375 16.796875 39.40625 
Q 19.671875 43.65625 24.015625 45.921875 
Q 28.375 48.1875 33.59375 48.1875 
Q 44.578125 48.1875 50.953125 41.515625 
Q 57.328125 34.859375 57.328125 23.390625 
Q 57.328125 12.15625 50.6875 5.359375 
Q 44.046875 -1.421875 33.015625 -1.421875 
Q 20.359375 -1.421875 13.671875 8.265625 
Q 6.984375 17.96875 6.984375 36.375 
Q 6.984375 53.65625 15.1875 63.9375 
Q 23.390625 74.21875 37.203125 74.21875 
Q 40.921875 74.21875 44.703125 73.484375 
Q 48.484375 72.75 52.59375 71.296875 
z
" id="DejaVuSans-54"/>
      </defs>
      <g transform="translate(97.275 72.919219)scale(0.1 -0.1)">
       <use xlink:href="#DejaVuSans-54"/>
       <use x="63.623047" xlink:href="#DejaVuSans-48"/>
      </g>
     </g>
    </g>
    <g id="ytick_8">
     <g id="line2d_61">
      <path clip-path="url(#pbfa56f7501)" d="M 117 497.856 
L 842.4 497.856 
" style="fill:none;stroke:#d8dcd6;stroke-dasharray:0.8,1.32;stroke-dashoffset:0;stroke-width:0.8;"/>
     </g>
     <g id="line2d_62">
      <defs>
       <path d="M 0 0 
L -2 0 
" id="mef9a5be670" style="stroke:#000000;stroke-width:0.6;"/>
      </defs>
      <g>
       <use style="stroke:#000000;stroke-width:0.6;" x="117" xlink:href="#mef9a5be670" y="497.856"/>
      </g>
     </g>
    </g>
    <g id="ytick_9">
     <g id="line2d_63">
      <path clip-path="url(#pbfa56f7501)" d="M 117 483.072 
L 842.4 483.072 
" style="fill:none;stroke:#d8dcd6;stroke-dasharray:0.8,1.32;stroke-dashoffset:0;stroke-width:0.8;"/>
     </g>
     <g id="line2d_64">
      <g>
       <use style="stroke:#000000;stroke-width:0.6;" x="117" xlink:href="#mef9a5be670" y="483.072"/>
      </g>
     </g>
    </g>
    <g id="ytick_10">
     <g id="line2d_65">
      <path clip-path="url(#pbfa56f7501)" d="M 117 468.288 
L 842.4 468.288 
" style="fill:none;stroke:#d8dcd6;stroke-dasharray:0.8,1.32;stroke-dashoffset:0;stroke-width:0.8;"/>
     </g>
     <g id="line2d_66">
      <g>
       <use style="stroke:#000000;stroke-width:0.6;" x="117" xlink:href="#mef9a5be670" y="468.288"/>
      </g>
     </g>
    </g>
    <g id="ytick_11">
     <g id="line2d_67">
      <path clip-path="url(#pbfa56f7501)" d="M 117 453.504 
L 842.4 453.504 
" style="fill:none;stroke:#d8dcd6;stroke-dasharray:0.8,1.32;stroke-dashoffset:0;stroke-width:0.8;"/>
     </g>
     <g id="line2d_68">
      <g>
       <use style="stroke:#000000;stroke-width:0.6;" x="117" xlink:href="#mef9a5be670" y="453.504"/>
      </g>
     </g>
    </g>
    <g id="ytick_12">
     <g id="line2d_69">
      <path clip-path="url(#pbfa56f7501)" d="M 117 423.936 
L 842.4 423.936 
" style="fill:none;stroke:#d8dcd6;stroke-dasharray:0.8,1.32;stroke-dashoffset:0;stroke-width:0.8;"/>
     </g>
     <g id="line2d_70">
      <g>
       <use style="stroke:#000000;stroke-width:0.6;" x="117" xlink:href="#mef9a5be670" y="423.936"/>
      </g>
     </g>
    </g>
    <g id="ytick_13">
     <g id="line2d_71">
      <path clip-path="url(#pbfa56f7501)" d="M 117 409.152 
L 842.4 409.152 
" style="fill:none;stroke:#d8dcd6;stroke-dasharray:0.8,1.32;stroke-dashoffset:0;stroke-width:0.8;"/>
     </g>
     <g id="line2d_72">
      <g>
       <use style="stroke:#000000;stroke-width:0.6;" x="117" xlink:href="#mef9a5be670" y="409.152"/>
      </g>
     </g>
    </g>
    <g id="ytick_14">
     <g id="line2d_73">
      <path clip-path="url(#pbfa56f7501)" d="M 117 394.368 
L 842.4 394.368 
" style="fill:none;stroke:#d8dcd6;stroke-dasharray:0.8,1.32;stroke-dashoffset:0;stroke-width:0.8;"/>
     </g>
     <g id="line2d_74">
      <g>
       <use style="stroke:#000000;stroke-width:0.6;" x="117" xlink:href="#mef9a5be670" y="394.368"/>
      </g>
     </g>
    </g>
    <g id="ytick_15">
     <g id="line2d_75">
      <path clip-path="url(#pbfa56f7501)" d="M 117 379.584 
L 842.4 379.584 
" style="fill:none;stroke:#d8dcd6;stroke-dasharray:0.8,1.32;stroke-dashoffset:0;stroke-width:0.8;"/>
     </g>
     <g id="line2d_76">
      <g>
       <use style="stroke:#000000;stroke-width:0.6;" x="117" xlink:href="#mef9a5be670" y="379.584"/>
      </g>
     </g>
    </g>
    <g id="ytick_16">
     <g id="line2d_77">
      <path clip-path="url(#pbfa56f7501)" d="M 117 350.016 
L 842.4 350.016 
" style="fill:none;stroke:#d8dcd6;stroke-dasharray:0.8,1.32;stroke-dashoffset:0;stroke-width:0.8;"/>
     </g>
     <g id="line2d_78">
      <g>
       <use style="stroke:#000000;stroke-width:0.6;" x="117" xlink:href="#mef9a5be670" y="350.016"/>
      </g>
     </g>
    </g>
    <g id="ytick_17">
     <g id="line2d_79">
      <path clip-path="url(#pbfa56f7501)" d="M 117 335.232 
L 842.4 335.232 
" style="fill:none;stroke:#d8dcd6;stroke-dasharray:0.8,1.32;stroke-dashoffset:0;stroke-width:0.8;"/>
     </g>
     <g id="line2d_80">
      <g>
       <use style="stroke:#000000;stroke-width:0.6;" x="117" xlink:href="#mef9a5be670" y="335.232"/>
      </g>
     </g>
    </g>
    <g id="ytick_18">
     <g id="line2d_81">
      <path clip-path="url(#pbfa56f7501)" d="M 117 320.448 
L 842.4 320.448 
" style="fill:none;stroke:#d8dcd6;stroke-dasharray:0.8,1.32;stroke-dashoffset:0;stroke-width:0.8;"/>
     </g>
     <g id="line2d_82">
      <g>
       <use style="stroke:#000000;stroke-width:0.6;" x="117" xlink:href="#mef9a5be670" y="320.448"/>
      </g>
     </g>
    </g>
    <g id="ytick_19">
     <g id="line2d_83">
      <path clip-path="url(#pbfa56f7501)" d="M 117 305.664 
L 842.4 305.664 
" style="fill:none;stroke:#d8dcd6;stroke-dasharray:0.8,1.32;stroke-dashoffset:0;stroke-width:0.8;"/>
     </g>
     <g id="line2d_84">
      <g>
       <use style="stroke:#000000;stroke-width:0.6;" x="117" xlink:href="#mef9a5be670" y="305.664"/>
      </g>
     </g>
    </g>
    <g id="ytick_20">
     <g id="line2d_85">
      <path clip-path="url(#pbfa56f7501)" d="M 117 276.096 
L 842.4 276.096 
" style="fill:none;stroke:#d8dcd6;stroke-dasharray:0.8,1.32;stroke-dashoffset:0;stroke-width:0.8;"/>
     </g>
     <g id="line2d_86">
      <g>
       <use style="stroke:#000000;stroke-width:0.6;" x="117" xlink:href="#mef9a5be670" y="276.096"/>
      </g>
     </g>
    </g>
    <g id="ytick_21">
     <g id="line2d_87">
      <path clip-path="url(#pbfa56f7501)" d="M 117 261.312 
L 842.4 261.312 
" style="fill:none;stroke:#d8dcd6;stroke-dasharray:0.8,1.32;stroke-dashoffset:0;stroke-width:0.8;"/>
     </g>
     <g id="line2d_88">
      <g>
       <use style="stroke:#000000;stroke-width:0.6;" x="117" xlink:href="#mef9a5be670" y="261.312"/>
      </g>
     </g>
    </g>
    <g id="ytick_22">
     <g id="line2d_89">
      <path clip-path="url(#pbfa56f7501)" d="M 117 246.528 
L 842.4 246.528 
" style="fill:none;stroke:#d8dcd6;stroke-dasharray:0.8,1.32;stroke-dashoffset:0;stroke-width:0.8;"/>
     </g>
     <g id="line2d_90">
      <g>
       <use style="stroke:#000000;stroke-width:0.6;" x="117" xlink:href="#mef9a5be670" y="246.528"/>
      </g>
     </g>
    </g>
    <g id="ytick_23">
     <g id="line2d_91">
      <path clip-path="url(#pbfa56f7501)" d="M 117 231.744 
L 842.4 231.744 
" style="fill:none;stroke:#d8dcd6;stroke-dasharray:0.8,1.32;stroke-dashoffset:0;stroke-width:0.8;"/>
     </g>
     <g id="line2d_92">
      <g>
       <use style="stroke:#000000;stroke-width:0.6;" x="117" xlink:href="#mef9a5be670" y="231.744"/>
      </g>
     </g>
    </g>
    <g id="ytick_24">
     <g id="line2d_93">
      <path clip-path="url(#pbfa56f7501)" d="M 117 202.176 
L 842.4 202.176 
" style="fill:none;stroke:#d8dcd6;stroke-dasharray:0.8,1.32;stroke-dashoffset:0;stroke-width:0.8;"/>
     </g>
     <g id="line2d_94">
      <g>
       <use style="stroke:#000000;stroke-width:0.6;" x="117" xlink:href="#mef9a5be670" y="202.176"/>
      </g>
     </g>
    </g>
    <g id="ytick_25">
     <g id="line2d_95">
      <path clip-path="url(#pbfa56f7501)" d="M 117 187.392 
L 842.4 187.392 
" style="fill:none;stroke:#d8dcd6;stroke-dasharray:0.8,1.32;stroke-dashoffset:0;stroke-width:0.8;"/>
     </g>
     <g id="line2d_96">
      <g>
       <use style="stroke:#000000;stroke-width:0.6;" x="117" xlink:href="#mef9a5be670" y="187.392"/>
      </g>
     </g>
    </g>
    <g id="ytick_26">
     <g id="line2d_97">
      <path clip-path="url(#pbfa56f7501)" d="M 117 172.608 
L 842.4 172.608 
" style="fill:none;stroke:#d8dcd6;stroke-dasharray:0.8,1.32;stroke-dashoffset:0;stroke-width:0.8;"/>
     </g>
     <g id="line2d_98">
      <g>
       <use style="stroke:#000000;stroke-width:0.6;" x="117" xlink:href="#mef9a5be670" y="172.608"/>
      </g>
     </g>
    </g>
    <g id="ytick_27">
     <g id="line2d_99">
      <path clip-path="url(#pbfa56f7501)" d="M 117 157.824 
L 842.4 157.824 
" style="fill:none;stroke:#d8dcd6;stroke-dasharray:0.8,1.32;stroke-dashoffset:0;stroke-width:0.8;"/>
     </g>
     <g id="line2d_100">
      <g>
       <use style="stroke:#000000;stroke-width:0.6;" x="117" xlink:href="#mef9a5be670" y="157.824"/>
      </g>
     </g>
    </g>
    <g id="ytick_28">
     <g id="line2d_101">
      <path clip-path="url(#pbfa56f7501)" d="M 117 128.256 
L 842.4 128.256 
" style="fill:none;stroke:#d8dcd6;stroke-dasharray:0.8,1.32;stroke-dashoffset:0;stroke-width:0.8;"/>
     </g>
     <g id="line2d_102">
      <g>
       <use style="stroke:#000000;stroke-width:0.6;" x="117" xlink:href="#mef9a5be670" y="128.256"/>
      </g>
     </g>
    </g>
    <g id="ytick_29">
     <g id="line2d_103">
      <path clip-path="url(#pbfa56f7501)" d="M 117 113.472 
L 842.4 113.472 
" style="fill:none;stroke:#d8dcd6;stroke-dasharray:0.8,1.32;stroke-dashoffset:0;stroke-width:0.8;"/>
     </g>
     <g id="line2d_104">
      <g>
       <use style="stroke:#000000;stroke-width:0.6;" x="117" xlink:href="#mef9a5be670" y="113.472"/>
      </g>
     </g>
    </g>
    <g id="ytick_30">
     <g id="line2d_105">
      <path clip-path="url(#pbfa56f7501)" d="M 117 98.688 
L 842.4 98.688 
" style="fill:none;stroke:#d8dcd6;stroke-dasharray:0.8,1.32;stroke-dashoffset:0;stroke-width:0.8;"/>
     </g>
     <g id="line2d_106">
      <g>
       <use style="stroke:#000000;stroke-width:0.6;" x="117" xlink:href="#mef9a5be670" y="98.688"/>
      </g>
     </g>
    </g>
    <g id="ytick_31">
     <g id="line2d_107">
      <path clip-path="url(#pbfa56f7501)" d="M 117 83.904 
L 842.4 83.904 
" style="fill:none;stroke:#d8dcd6;stroke-dasharray:0.8,1.32;stroke-dashoffset:0;stroke-width:0.8;"/>
     </g>
     <g id="line2d_108">
      <g>
       <use style="stroke:#000000;stroke-width:0.6;" x="117" xlink:href="#mef9a5be670" y="83.904"/>
      </g>
     </g>
    </g>
    <g id="text_12">
     <!-- (backw avg) growth in percent per day -->
     <defs>
      <path d="M 31 75.875 
Q 24.46875 64.65625 21.28125 53.65625 
Q 18.109375 42.671875 18.109375 31.390625 
Q 18.109375 20.125 21.3125 9.0625 
Q 24.515625 -2 31 -13.1875 
L 23.1875 -13.1875 
Q 15.875 -1.703125 12.234375 9.375 
Q 8.59375 20.453125 8.59375 31.390625 
Q 8.59375 42.28125 12.203125 53.3125 
Q 15.828125 64.359375 23.1875 75.875 
z
" id="DejaVuSans-40"/>
      <path d="M 48.6875 27.296875 
Q 48.6875 37.203125 44.609375 42.84375 
Q 40.53125 48.484375 33.40625 48.484375 
Q 26.265625 48.484375 22.1875 42.84375 
Q 18.109375 37.203125 18.109375 27.296875 
Q 18.109375 17.390625 22.1875 11.75 
Q 26.265625 6.109375 33.40625 6.109375 
Q 40.53125 6.109375 44.609375 11.75 
Q 48.6875 17.390625 48.6875 27.296875 
z
M 18.109375 46.390625 
Q 20.953125 51.265625 25.265625 53.625 
Q 29.59375 56 35.59375 56 
Q 45.5625 56 51.78125 48.09375 
Q 58.015625 40.1875 58.015625 27.296875 
Q 58.015625 14.40625 51.78125 6.484375 
Q 45.5625 -1.421875 35.59375 -1.421875 
Q 29.59375 -1.421875 25.265625 0.953125 
Q 20.953125 3.328125 18.109375 8.203125 
L 18.109375 0 
L 9.078125 0 
L 9.078125 75.984375 
L 18.109375 75.984375 
z
" id="DejaVuSans-98"/>
      <path d="M 34.28125 27.484375 
Q 23.390625 27.484375 19.1875 25 
Q 14.984375 22.515625 14.984375 16.5 
Q 14.984375 11.71875 18.140625 8.90625 
Q 21.296875 6.109375 26.703125 6.109375 
Q 34.1875 6.109375 38.703125 11.40625 
Q 43.21875 16.703125 43.21875 25.484375 
L 43.21875 27.484375 
z
M 52.203125 31.203125 
L 52.203125 0 
L 43.21875 0 
L 43.21875 8.296875 
Q 40.140625 3.328125 35.546875 0.953125 
Q 30.953125 -1.421875 24.3125 -1.421875 
Q 15.921875 -1.421875 10.953125 3.296875 
Q 6 8.015625 6 15.921875 
Q 6 25.140625 12.171875 29.828125 
Q 18.359375 34.515625 30.609375 34.515625 
L 43.21875 34.515625 
L 43.21875 35.40625 
Q 43.21875 41.609375 39.140625 45 
Q 35.0625 48.390625 27.6875 48.390625 
Q 23 48.390625 18.546875 47.265625 
Q 14.109375 46.140625 10.015625 43.890625 
L 10.015625 52.203125 
Q 14.9375 54.109375 19.578125 55.046875 
Q 24.21875 56 28.609375 56 
Q 40.484375 56 46.34375 49.84375 
Q 52.203125 43.703125 52.203125 31.203125 
z
" id="DejaVuSans-97"/>
      <path d="M 48.78125 52.59375 
L 48.78125 44.1875 
Q 44.96875 46.296875 41.140625 47.34375 
Q 37.3125 48.390625 33.40625 48.390625 
Q 24.65625 48.390625 19.8125 42.84375 
Q 14.984375 37.3125 14.984375 27.296875 
Q 14.984375 17.28125 19.8125 11.734375 
Q 24.65625 6.203125 33.40625 6.203125 
Q 37.3125 6.203125 41.140625 7.25 
Q 44.96875 8.296875 48.78125 10.40625 
L 48.78125 2.09375 
Q 45.015625 0.34375 40.984375 -0.53125 
Q 36.96875 -1.421875 32.421875 -1.421875 
Q 20.0625 -1.421875 12.78125 6.34375 
Q 5.515625 14.109375 5.515625 27.296875 
Q 5.515625 40.671875 12.859375 48.328125 
Q 20.21875 56 33.015625 56 
Q 37.15625 56 41.109375 55.140625 
Q 45.0625 54.296875 48.78125 52.59375 
z
" id="DejaVuSans-99"/>
      <path d="M 9.078125 75.984375 
L 18.109375 75.984375 
L 18.109375 31.109375 
L 44.921875 54.6875 
L 56.390625 54.6875 
L 27.390625 29.109375 
L 57.625 0 
L 45.90625 0 
L 18.109375 26.703125 
L 18.109375 0 
L 9.078125 0 
z
" id="DejaVuSans-107"/>
      <path d="M 4.203125 54.6875 
L 13.1875 54.6875 
L 24.421875 12.015625 
L 35.59375 54.6875 
L 46.1875 54.6875 
L 57.421875 12.015625 
L 68.609375 54.6875 
L 77.59375 54.6875 
L 63.28125 0 
L 52.6875 0 
L 40.921875 44.828125 
L 29.109375 0 
L 18.5 0 
z
" id="DejaVuSans-119"/>
      <path id="DejaVuSans-32"/>
      <path d="M 2.984375 54.6875 
L 12.5 54.6875 
L 29.59375 8.796875 
L 46.6875 54.6875 
L 56.203125 54.6875 
L 35.6875 0 
L 23.484375 0 
z
" id="DejaVuSans-118"/>
      <path d="M 45.40625 27.984375 
Q 45.40625 37.75 41.375 43.109375 
Q 37.359375 48.484375 30.078125 48.484375 
Q 22.859375 48.484375 18.828125 43.109375 
Q 14.796875 37.75 14.796875 27.984375 
Q 14.796875 18.265625 18.828125 12.890625 
Q 22.859375 7.515625 30.078125 7.515625 
Q 37.359375 7.515625 41.375 12.890625 
Q 45.40625 18.265625 45.40625 27.984375 
z
M 54.390625 6.78125 
Q 54.390625 -7.171875 48.1875 -13.984375 
Q 42 -20.796875 29.203125 -20.796875 
Q 24.46875 -20.796875 20.265625 -20.09375 
Q 16.0625 -19.390625 12.109375 -17.921875 
L 12.109375 -9.1875 
Q 16.0625 -11.328125 19.921875 -12.34375 
Q 23.78125 -13.375 27.78125 -13.375 
Q 36.625 -13.375 41.015625 -8.765625 
Q 45.40625 -4.15625 45.40625 5.171875 
L 45.40625 9.625 
Q 42.625 4.78125 38.28125 2.390625 
Q 33.9375 0 27.875 0 
Q 17.828125 0 11.671875 7.65625 
Q 5.515625 15.328125 5.515625 27.984375 
Q 5.515625 40.671875 11.671875 48.328125 
Q 17.828125 56 27.875 56 
Q 33.9375 56 38.28125 53.609375 
Q 42.625 51.21875 45.40625 46.390625 
L 45.40625 54.6875 
L 54.390625 54.6875 
z
" id="DejaVuSans-103"/>
      <path d="M 8.015625 75.875 
L 15.828125 75.875 
Q 23.140625 64.359375 26.78125 53.3125 
Q 30.421875 42.28125 30.421875 31.390625 
Q 30.421875 20.453125 26.78125 9.375 
Q 23.140625 -1.703125 15.828125 -13.1875 
L 8.015625 -13.1875 
Q 14.5 -2 17.703125 9.0625 
Q 20.90625 20.125 20.90625 31.390625 
Q 20.90625 42.671875 17.703125 53.65625 
Q 14.5 64.65625 8.015625 75.875 
z
" id="DejaVuSans-41"/>
      <path d="M 41.109375 46.296875 
Q 39.59375 47.171875 37.8125 47.578125 
Q 36.03125 48 33.890625 48 
Q 26.265625 48 22.1875 43.046875 
Q 18.109375 38.09375 18.109375 28.8125 
L 18.109375 0 
L 9.078125 0 
L 9.078125 54.6875 
L 18.109375 54.6875 
L 18.109375 46.1875 
Q 20.953125 51.171875 25.484375 53.578125 
Q 30.03125 56 36.53125 56 
Q 37.453125 56 38.578125 55.875 
Q 39.703125 55.765625 41.0625 55.515625 
z
" id="DejaVuSans-114"/>
      <path d="M 30.609375 48.390625 
Q 23.390625 48.390625 19.1875 42.75 
Q 14.984375 37.109375 14.984375 27.296875 
Q 14.984375 17.484375 19.15625 11.84375 
Q 23.34375 6.203125 30.609375 6.203125 
Q 37.796875 6.203125 41.984375 11.859375 
Q 46.1875 17.53125 46.1875 27.296875 
Q 46.1875 37.015625 41.984375 42.703125 
Q 37.796875 48.390625 30.609375 48.390625 
z
M 30.609375 56 
Q 42.328125 56 49.015625 48.375 
Q 55.71875 40.765625 55.71875 27.296875 
Q 55.71875 13.875 49.015625 6.21875 
Q 42.328125 -1.421875 30.609375 -1.421875 
Q 18.84375 -1.421875 12.171875 6.21875 
Q 5.515625 13.875 5.515625 27.296875 
Q 5.515625 40.765625 12.171875 48.375 
Q 18.84375 56 30.609375 56 
z
" id="DejaVuSans-111"/>
      <path d="M 18.3125 70.21875 
L 18.3125 54.6875 
L 36.8125 54.6875 
L 36.8125 47.703125 
L 18.3125 47.703125 
L 18.3125 18.015625 
Q 18.3125 11.328125 20.140625 9.421875 
Q 21.96875 7.515625 27.59375 7.515625 
L 36.8125 7.515625 
L 36.8125 0 
L 27.59375 0 
Q 17.1875 0 13.234375 3.875 
Q 9.28125 7.765625 9.28125 18.015625 
L 9.28125 47.703125 
L 2.6875 47.703125 
L 2.6875 54.6875 
L 9.28125 54.6875 
L 9.28125 70.21875 
z
" id="DejaVuSans-116"/>
      <path d="M 54.890625 33.015625 
L 54.890625 0 
L 45.90625 0 
L 45.90625 32.71875 
Q 45.90625 40.484375 42.875 44.328125 
Q 39.84375 48.1875 33.796875 48.1875 
Q 26.515625 48.1875 22.3125 43.546875 
Q 18.109375 38.921875 18.109375 30.90625 
L 18.109375 0 
L 9.078125 0 
L 9.078125 75.984375 
L 18.109375 75.984375 
L 18.109375 46.1875 
Q 21.34375 51.125 25.703125 53.5625 
Q 30.078125 56 35.796875 56 
Q 45.21875 56 50.046875 50.171875 
Q 54.890625 44.34375 54.890625 33.015625 
z
" id="DejaVuSans-104"/>
      <path d="M 9.421875 54.6875 
L 18.40625 54.6875 
L 18.40625 0 
L 9.421875 0 
z
M 9.421875 75.984375 
L 18.40625 75.984375 
L 18.40625 64.59375 
L 9.421875 64.59375 
z
" id="DejaVuSans-105"/>
      <path d="M 54.890625 33.015625 
L 54.890625 0 
L 45.90625 0 
L 45.90625 32.71875 
Q 45.90625 40.484375 42.875 44.328125 
Q 39.84375 48.1875 33.796875 48.1875 
Q 26.515625 48.1875 22.3125 43.546875 
Q 18.109375 38.921875 18.109375 30.90625 
L 18.109375 0 
L 9.078125 0 
L 9.078125 54.6875 
L 18.109375 54.6875 
L 18.109375 46.1875 
Q 21.34375 51.125 25.703125 53.5625 
Q 30.078125 56 35.796875 56 
Q 45.21875 56 50.046875 50.171875 
Q 54.890625 44.34375 54.890625 33.015625 
z
" id="DejaVuSans-110"/>
      <path d="M 18.109375 8.203125 
L 18.109375 -20.796875 
L 9.078125 -20.796875 
L 9.078125 54.6875 
L 18.109375 54.6875 
L 18.109375 46.390625 
Q 20.953125 51.265625 25.265625 53.625 
Q 29.59375 56 35.59375 56 
Q 45.5625 56 51.78125 48.09375 
Q 58.015625 40.1875 58.015625 27.296875 
Q 58.015625 14.40625 51.78125 6.484375 
Q 45.5625 -1.421875 35.59375 -1.421875 
Q 29.59375 -1.421875 25.265625 0.953125 
Q 20.953125 3.328125 18.109375 8.203125 
z
M 48.6875 27.296875 
Q 48.6875 37.203125 44.609375 42.84375 
Q 40.53125 48.484375 33.40625 48.484375 
Q 26.265625 48.484375 22.1875 42.84375 
Q 18.109375 37.203125 18.109375 27.296875 
Q 18.109375 17.390625 22.1875 11.75 
Q 26.265625 6.109375 33.40625 6.109375 
Q 40.53125 6.109375 44.609375 11.75 
Q 48.6875 17.390625 48.6875 27.296875 
z
" id="DejaVuSans-112"/>
      <path d="M 56.203125 29.59375 
L 56.203125 25.203125 
L 14.890625 25.203125 
Q 15.484375 15.921875 20.484375 11.0625 
Q 25.484375 6.203125 34.421875 6.203125 
Q 39.59375 6.203125 44.453125 7.46875 
Q 49.3125 8.734375 54.109375 11.28125 
L 54.109375 2.78125 
Q 49.265625 0.734375 44.1875 -0.34375 
Q 39.109375 -1.421875 33.890625 -1.421875 
Q 20.796875 -1.421875 13.15625 6.1875 
Q 5.515625 13.8125 5.515625 26.8125 
Q 5.515625 40.234375 12.765625 48.109375 
Q 20.015625 56 32.328125 56 
Q 43.359375 56 49.78125 48.890625 
Q 56.203125 41.796875 56.203125 29.59375 
z
M 47.21875 32.234375 
Q 47.125 39.59375 43.09375 43.984375 
Q 39.0625 48.390625 32.421875 48.390625 
Q 24.90625 48.390625 20.390625 44.140625 
Q 15.875 39.890625 15.1875 32.171875 
z
" id="DejaVuSans-101"/>
      <path d="M 45.40625 46.390625 
L 45.40625 75.984375 
L 54.390625 75.984375 
L 54.390625 0 
L 45.40625 0 
L 45.40625 8.203125 
Q 42.578125 3.328125 38.25 0.953125 
Q 33.9375 -1.421875 27.875 -1.421875 
Q 17.96875 -1.421875 11.734375 6.484375 
Q 5.515625 14.40625 5.515625 27.296875 
Q 5.515625 40.1875 11.734375 48.09375 
Q 17.96875 56 27.875 56 
Q 33.9375 56 38.25 53.625 
Q 42.578125 51.265625 45.40625 46.390625 
z
M 14.796875 27.296875 
Q 14.796875 17.390625 18.875 11.75 
Q 22.953125 6.109375 30.078125 6.109375 
Q 37.203125 6.109375 41.296875 11.75 
Q 45.40625 17.390625 45.40625 27.296875 
Q 45.40625 37.203125 41.296875 42.84375 
Q 37.203125 48.484375 30.078125 48.484375 
Q 22.953125 48.484375 18.875 42.84375 
Q 14.796875 37.203125 14.796875 27.296875 
z
" id="DejaVuSans-100"/>
      <path d="M 32.171875 -5.078125 
Q 28.375 -14.84375 24.75 -17.8125 
Q 21.140625 -20.796875 15.09375 -20.796875 
L 7.90625 -20.796875 
L 7.90625 -13.28125 
L 13.1875 -13.28125 
Q 16.890625 -13.28125 18.9375 -11.515625 
Q 21 -9.765625 23.484375 -3.21875 
L 25.09375 0.875 
L 2.984375 54.6875 
L 12.5 54.6875 
L 29.59375 11.921875 
L 46.6875 54.6875 
L 56.203125 54.6875 
z
" id="DejaVuSans-121"/>
     </defs>
     <g transform="translate(91.195312 388.090156)rotate(-90)scale(0.1 -0.1)">
      <use xlink:href="#DejaVuSans-40"/>
      <use x="39.013672" xlink:href="#DejaVuSans-98"/>
      <use x="102.490234" xlink:href="#DejaVuSans-97"/>
      <use x="163.769531" xlink:href="#DejaVuSans-99"/>
      <use x="218.75" xlink:href="#DejaVuSans-107"/>
      <use x="276.660156" xlink:href="#DejaVuSans-119"/>
      <use x="358.447266" xlink:href="#DejaVuSans-32"/>
      <use x="390.234375" xlink:href="#DejaVuSans-97"/>
      <use x="451.513672" xlink:href="#DejaVuSans-118"/>
      <use x="510.693359" xlink:href="#DejaVuSans-103"/>
      <use x="574.169922" xlink:href="#DejaVuSans-41"/>
      <use x="613.183594" xlink:href="#DejaVuSans-32"/>
      <use x="644.970703" xlink:href="#DejaVuSans-103"/>
      <use x="708.447266" xlink:href="#DejaVuSans-114"/>
      <use x="747.310547" xlink:href="#DejaVuSans-111"/>
      <use x="808.492188" xlink:href="#DejaVuSans-119"/>
      <use x="890.279297" xlink:href="#DejaVuSans-116"/>
      <use x="929.488281" xlink:href="#DejaVuSans-104"/>
      <use x="992.867188" xlink:href="#DejaVuSans-32"/>
      <use x="1024.654297" xlink:href="#DejaVuSans-105"/>
      <use x="1052.4375" xlink:href="#DejaVuSans-110"/>
      <use x="1115.816406" xlink:href="#DejaVuSans-32"/>
      <use x="1147.603516" xlink:href="#DejaVuSans-112"/>
      <use x="1211.080078" xlink:href="#DejaVuSans-101"/>
      <use x="1272.603516" xlink:href="#DejaVuSans-114"/>
      <use x="1311.466797" xlink:href="#DejaVuSans-99"/>
      <use x="1366.447266" xlink:href="#DejaVuSans-101"/>
      <use x="1427.970703" xlink:href="#DejaVuSans-110"/>
      <use x="1491.349609" xlink:href="#DejaVuSans-116"/>
      <use x="1530.558594" xlink:href="#DejaVuSans-32"/>
      <use x="1562.345703" xlink:href="#DejaVuSans-112"/>
      <use x="1625.822266" xlink:href="#DejaVuSans-101"/>
      <use x="1687.345703" xlink:href="#DejaVuSans-114"/>
      <use x="1728.458984" xlink:href="#DejaVuSans-32"/>
      <use x="1760.246094" xlink:href="#DejaVuSans-100"/>
      <use x="1823.722656" xlink:href="#DejaVuSans-97"/>
      <use x="1885.001953" xlink:href="#DejaVuSans-121"/>
     </g>
    </g>
   </g>
   <g id="line2d_109">
    <path clip-path="url(#pbfa56f7501)" d="M 153.842234 -1 
L 165.674026 83.062177 
L 172.97385 -1 
M 210.795411 -1 
L 212.777922 14.921817 
L 228.479221 191.191408 
L 244.180519 225.290673 
L 259.881818 325.203761 
L 275.583117 91.752095 
L 281.866361 -1 
M 298.507285 -1 
L 306.985714 162.194928 
L 322.687013 272.896323 
L 338.388312 247.971929 
L 354.08961 254.156181 
L 369.790909 329.401545 
L 385.492208 295.394806 
L 401.193506 300.415652 
L 416.894805 292.699875 
L 432.596104 293.519934 
L 448.297403 317.084016 
L 463.998701 323.23746 
L 479.7 330.212276 
L 495.401299 374.453139 
L 511.102597 386.487528 
L 526.803896 401.260045 
L 542.505195 412.312622 
L 558.206494 427.323122 
L 573.907792 436.517819 
L 589.609091 434.500776 
L 605.31039 444.477115 
L 621.011688 457.579106 
L 636.712987 466.45529 
L 652.414286 470.703883 
L 668.115584 472.670195 
L 683.816883 473.478735 
L 699.518182 476.623229 
L 715.219481 481.105082 
L 730.920779 485.410166 
L 746.622078 487.153806 
L 762.323377 487.472858 
L 778.024675 494.667358 
L 793.725974 493.082371 
L 809.427273 487.302941 
" style="fill:none;stroke:#1f77b4;stroke-linecap:square;stroke-width:1.5;"/>
    <defs>
     <path d="M -3 0 
L 3 0 
M 0 3 
L 0 -3 
" id="m2e6179194d" style="stroke:#1f77b4;"/>
    </defs>
    <g clip-path="url(#pbfa56f7501)">
     <use style="fill:#1f77b4;stroke:#1f77b4;" x="153.842234" xlink:href="#m2e6179194d" y="-1"/>
     <use style="fill:#1f77b4;stroke:#1f77b4;" x="165.674026" xlink:href="#m2e6179194d" y="83.062177"/>
     <use style="fill:#1f77b4;stroke:#1f77b4;" x="172.97385" xlink:href="#m2e6179194d" y="-1"/>
     <use style="fill:#1f77b4;stroke:#1f77b4;" x="210.795411" xlink:href="#m2e6179194d" y="-1"/>
     <use style="fill:#1f77b4;stroke:#1f77b4;" x="212.777922" xlink:href="#m2e6179194d" y="14.921817"/>
     <use style="fill:#1f77b4;stroke:#1f77b4;" x="228.479221" xlink:href="#m2e6179194d" y="191.191408"/>
     <use style="fill:#1f77b4;stroke:#1f77b4;" x="244.180519" xlink:href="#m2e6179194d" y="225.290673"/>
     <use style="fill:#1f77b4;stroke:#1f77b4;" x="259.881818" xlink:href="#m2e6179194d" y="325.203761"/>
     <use style="fill:#1f77b4;stroke:#1f77b4;" x="275.583117" xlink:href="#m2e6179194d" y="91.752095"/>
     <use style="fill:#1f77b4;stroke:#1f77b4;" x="281.866361" xlink:href="#m2e6179194d" y="-1"/>
     <use style="fill:#1f77b4;stroke:#1f77b4;" x="298.507285" xlink:href="#m2e6179194d" y="-1"/>
     <use style="fill:#1f77b4;stroke:#1f77b4;" x="306.985714" xlink:href="#m2e6179194d" y="162.194928"/>
     <use style="fill:#1f77b4;stroke:#1f77b4;" x="322.687013" xlink:href="#m2e6179194d" y="272.896323"/>
     <use style="fill:#1f77b4;stroke:#1f77b4;" x="338.388312" xlink:href="#m2e6179194d" y="247.971929"/>
     <use style="fill:#1f77b4;stroke:#1f77b4;" x="354.08961" xlink:href="#m2e6179194d" y="254.156181"/>
     <use style="fill:#1f77b4;stroke:#1f77b4;" x="369.790909" xlink:href="#m2e6179194d" y="329.401545"/>
     <use style="fill:#1f77b4;stroke:#1f77b4;" x="385.492208" xlink:href="#m2e6179194d" y="295.394806"/>
     <use style="fill:#1f77b4;stroke:#1f77b4;" x="401.193506" xlink:href="#m2e6179194d" y="300.415652"/>
     <use style="fill:#1f77b4;stroke:#1f77b4;" x="416.894805" xlink:href="#m2e6179194d" y="292.699875"/>
     <use style="fill:#1f77b4;stroke:#1f77b4;" x="432.596104" xlink:href="#m2e6179194d" y="293.519934"/>
     <use style="fill:#1f77b4;stroke:#1f77b4;" x="448.297403" xlink:href="#m2e6179194d" y="317.084016"/>
     <use style="fill:#1f77b4;stroke:#1f77b4;" x="463.998701" xlink:href="#m2e6179194d" y="323.23746"/>
     <use style="fill:#1f77b4;stroke:#1f77b4;" x="479.7" xlink:href="#m2e6179194d" y="330.212276"/>
     <use style="fill:#1f77b4;stroke:#1f77b4;" x="495.401299" xlink:href="#m2e6179194d" y="374.453139"/>
     <use style="fill:#1f77b4;stroke:#1f77b4;" x="511.102597" xlink:href="#m2e6179194d" y="386.487528"/>
     <use style="fill:#1f77b4;stroke:#1f77b4;" x="526.803896" xlink:href="#m2e6179194d" y="401.260045"/>
     <use style="fill:#1f77b4;stroke:#1f77b4;" x="542.505195" xlink:href="#m2e6179194d" y="412.312622"/>
     <use style="fill:#1f77b4;stroke:#1f77b4;" x="558.206494" xlink:href="#m2e6179194d" y="427.323122"/>
     <use style="fill:#1f77b4;stroke:#1f77b4;" x="573.907792" xlink:href="#m2e6179194d" y="436.517819"/>
     <use style="fill:#1f77b4;stroke:#1f77b4;" x="589.609091" xlink:href="#m2e6179194d" y="434.500776"/>
     <use style="fill:#1f77b4;stroke:#1f77b4;" x="605.31039" xlink:href="#m2e6179194d" y="444.477115"/>
     <use style="fill:#1f77b4;stroke:#1f77b4;" x="621.011688" xlink:href="#m2e6179194d" y="457.579106"/>
     <use style="fill:#1f77b4;stroke:#1f77b4;" x="636.712987" xlink:href="#m2e6179194d" y="466.45529"/>
     <use style="fill:#1f77b4;stroke:#1f77b4;" x="652.414286" xlink:href="#m2e6179194d" y="470.703883"/>
     <use style="fill:#1f77b4;stroke:#1f77b4;" x="668.115584" xlink:href="#m2e6179194d" y="472.670195"/>
     <use style="fill:#1f77b4;stroke:#1f77b4;" x="683.816883" xlink:href="#m2e6179194d" y="473.478735"/>
     <use style="fill:#1f77b4;stroke:#1f77b4;" x="699.518182" xlink:href="#m2e6179194d" y="476.623229"/>
     <use style="fill:#1f77b4;stroke:#1f77b4;" x="715.219481" xlink:href="#m2e6179194d" y="481.105082"/>
     <use style="fill:#1f77b4;stroke:#1f77b4;" x="730.920779" xlink:href="#m2e6179194d" y="485.410166"/>
     <use style="fill:#1f77b4;stroke:#1f77b4;" x="746.622078" xlink:href="#m2e6179194d" y="487.153806"/>
     <use style="fill:#1f77b4;stroke:#1f77b4;" x="762.323377" xlink:href="#m2e6179194d" y="487.472858"/>
     <use style="fill:#1f77b4;stroke:#1f77b4;" x="778.024675" xlink:href="#m2e6179194d" y="494.667358"/>
     <use style="fill:#1f77b4;stroke:#1f77b4;" x="793.725974" xlink:href="#m2e6179194d" y="493.082371"/>
     <use style="fill:#1f77b4;stroke:#1f77b4;" x="809.427273" xlink:href="#m2e6179194d" y="487.302941"/>
    </g>
   </g>
   <g id="line2d_110">
    <path clip-path="url(#pbfa56f7501)" d="M 219.640116 -1 
L 228.479221 49.474606 
L 244.180519 125.004818 
L 259.881818 260.459436 
L 275.583117 160.562099 
L 291.284416 116.166218 
L 306.985714 127.525067 
L 322.687013 84.552561 
L 338.388312 205.962427 
L 354.08961 263.570671 
L 369.790909 289.547678 
L 385.492208 274.993086 
L 401.193506 315.020697 
L 416.894805 294.048289 
L 432.596104 296.974018 
L 448.297403 304.970436 
L 463.998701 308.495711 
L 479.7 323.671357 
L 495.401299 349.208476 
L 511.102597 358.793065 
L 526.803896 387.960566 
L 542.505195 399.497879 
L 558.206494 414.39297 
L 573.907792 424.503737 
L 589.609091 430.919794 
L 605.31039 440.507227 
L 621.011688 446.122567 
L 636.712987 455.542025 
L 652.414286 464.168831 
L 668.115584 469.568914 
L 683.816883 472.092543 
L 699.518182 474.649225 
L 715.219481 477.301295 
L 730.920779 481.029218 
L 746.622078 484.135401 
L 762.323377 486.442207 
L 778.024675 490.919855 
L 793.725974 490.28278 
L 809.427273 490.99406 
" style="fill:none;stroke:#ff7f0e;stroke-linecap:square;stroke-width:1.5;"/>
    <defs>
     <path d="M -3 0 
L 3 0 
M 0 3 
L 0 -3 
" id="mdfc2d4f957" style="stroke:#ff7f0e;"/>
    </defs>
    <g clip-path="url(#pbfa56f7501)">
     <use style="fill:#ff7f0e;stroke:#ff7f0e;" x="219.640116" xlink:href="#mdfc2d4f957" y="-1"/>
     <use style="fill:#ff7f0e;stroke:#ff7f0e;" x="228.479221" xlink:href="#mdfc2d4f957" y="49.474606"/>
     <use style="fill:#ff7f0e;stroke:#ff7f0e;" x="244.180519" xlink:href="#mdfc2d4f957" y="125.004818"/>
     <use style="fill:#ff7f0e;stroke:#ff7f0e;" x="259.881818" xlink:href="#mdfc2d4f957" y="260.459436"/>
     <use style="fill:#ff7f0e;stroke:#ff7f0e;" x="275.583117" xlink:href="#mdfc2d4f957" y="160.562099"/>
     <use style="fill:#ff7f0e;stroke:#ff7f0e;" x="291.284416" xlink:href="#mdfc2d4f957" y="116.166218"/>
     <use style="fill:#ff7f0e;stroke:#ff7f0e;" x="306.985714" xlink:href="#mdfc2d4f957" y="127.525067"/>
     <use style="fill:#ff7f0e;stroke:#ff7f0e;" x="322.687013" xlink:href="#mdfc2d4f957" y="84.552561"/>
     <use style="fill:#ff7f0e;stroke:#ff7f0e;" x="338.388312" xlink:href="#mdfc2d4f957" y="205.962427"/>
     <use style="fill:#ff7f0e;stroke:#ff7f0e;" x="354.08961" xlink:href="#mdfc2d4f957" y="263.570671"/>
     <use style="fill:#ff7f0e;stroke:#ff7f0e;" x="369.790909" xlink:href="#mdfc2d4f957" y="289.547678"/>
     <use style="fill:#ff7f0e;stroke:#ff7f0e;" x="385.492208" xlink:href="#mdfc2d4f957" y="274.993086"/>
     <use style="fill:#ff7f0e;stroke:#ff7f0e;" x="401.193506" xlink:href="#mdfc2d4f957" y="315.020697"/>
     <use style="fill:#ff7f0e;stroke:#ff7f0e;" x="416.894805" xlink:href="#mdfc2d4f957" y="294.048289"/>
     <use style="fill:#ff7f0e;stroke:#ff7f0e;" x="432.596104" xlink:href="#mdfc2d4f957" y="296.974018"/>
     <use style="fill:#ff7f0e;stroke:#ff7f0e;" x="448.297403" xlink:href="#mdfc2d4f957" y="304.970436"/>
     <use style="fill:#ff7f0e;stroke:#ff7f0e;" x="463.998701" xlink:href="#mdfc2d4f957" y="308.495711"/>
     <use style="fill:#ff7f0e;stroke:#ff7f0e;" x="479.7" xlink:href="#mdfc2d4f957" y="323.671357"/>
     <use style="fill:#ff7f0e;stroke:#ff7f0e;" x="495.401299" xlink:href="#mdfc2d4f957" y="349.208476"/>
     <use style="fill:#ff7f0e;stroke:#ff7f0e;" x="511.102597" xlink:href="#mdfc2d4f957" y="358.793065"/>
     <use style="fill:#ff7f0e;stroke:#ff7f0e;" x="526.803896" xlink:href="#mdfc2d4f957" y="387.960566"/>
     <use style="fill:#ff7f0e;stroke:#ff7f0e;" x="542.505195" xlink:href="#mdfc2d4f957" y="399.497879"/>
     <use style="fill:#ff7f0e;stroke:#ff7f0e;" x="558.206494" xlink:href="#mdfc2d4f957" y="414.39297"/>
     <use style="fill:#ff7f0e;stroke:#ff7f0e;" x="573.907792" xlink:href="#mdfc2d4f957" y="424.503737"/>
     <use style="fill:#ff7f0e;stroke:#ff7f0e;" x="589.609091" xlink:href="#mdfc2d4f957" y="430.919794"/>
     <use style="fill:#ff7f0e;stroke:#ff7f0e;" x="605.31039" xlink:href="#mdfc2d4f957" y="440.507227"/>
     <use style="fill:#ff7f0e;stroke:#ff7f0e;" x="621.011688" xlink:href="#mdfc2d4f957" y="446.122567"/>
     <use style="fill:#ff7f0e;stroke:#ff7f0e;" x="636.712987" xlink:href="#mdfc2d4f957" y="455.542025"/>
     <use style="fill:#ff7f0e;stroke:#ff7f0e;" x="652.414286" xlink:href="#mdfc2d4f957" y="464.168831"/>
     <use style="fill:#ff7f0e;stroke:#ff7f0e;" x="668.115584" xlink:href="#mdfc2d4f957" y="469.568914"/>
     <use style="fill:#ff7f0e;stroke:#ff7f0e;" x="683.816883" xlink:href="#mdfc2d4f957" y="472.092543"/>
     <use style="fill:#ff7f0e;stroke:#ff7f0e;" x="699.518182" xlink:href="#mdfc2d4f957" y="474.649225"/>
     <use style="fill:#ff7f0e;stroke:#ff7f0e;" x="715.219481" xlink:href="#mdfc2d4f957" y="477.301295"/>
     <use style="fill:#ff7f0e;stroke:#ff7f0e;" x="730.920779" xlink:href="#mdfc2d4f957" y="481.029218"/>
     <use style="fill:#ff7f0e;stroke:#ff7f0e;" x="746.622078" xlink:href="#mdfc2d4f957" y="484.135401"/>
     <use style="fill:#ff7f0e;stroke:#ff7f0e;" x="762.323377" xlink:href="#mdfc2d4f957" y="486.442207"/>
     <use style="fill:#ff7f0e;stroke:#ff7f0e;" x="778.024675" xlink:href="#mdfc2d4f957" y="490.919855"/>
     <use style="fill:#ff7f0e;stroke:#ff7f0e;" x="793.725974" xlink:href="#mdfc2d4f957" y="490.28278"/>
     <use style="fill:#ff7f0e;stroke:#ff7f0e;" x="809.427273" xlink:href="#mdfc2d4f957" y="490.99406"/>
    </g>
   </g>
   <g id="line2d_111">
    <path clip-path="url(#pbfa56f7501)" d="M 228.479221 23.430667 
L 244.180519 68.137688 
L 259.881818 131.821954 
L 275.583117 70.658931 
L 291.284416 121.907197 
L 306.985714 143.838431 
L 322.687013 194.952343 
L 338.388312 161.120023 
L 354.08961 203.530037 
L 369.790909 162.534057 
L 385.492208 259.779739 
L 401.193506 274.730775 
L 416.894805 295.287909 
L 432.596104 280.656986 
L 448.297403 314.585234 
L 463.998701 300.365078 
L 479.7 314.820666 
L 495.401299 323.532352 
L 511.102597 339.865934 
L 526.803896 354.851045 
L 542.505195 373.705875 
L 558.206494 386.441702 
L 573.907792 405.747543 
L 589.609091 415.630445 
L 605.31039 425.617243 
L 621.011688 435.862801 
L 636.712987 444.229242 
L 652.414286 452.497621 
L 668.115584 457.177301 
L 683.816883 463.023011 
L 699.518182 469.100325 
L 715.219481 473.41785 
L 730.920779 477.03679 
L 746.622078 479.335301 
L 762.323377 481.825972 
L 778.024675 485.630303 
L 793.725974 487.417515 
L 809.427273 488.661153 
" style="fill:none;stroke:#2ca02c;stroke-linecap:square;stroke-width:1.5;"/>
    <defs>
     <path d="M -3 0 
L 3 0 
M 0 3 
L 0 -3 
" id="m76e0e4c285" style="stroke:#2ca02c;"/>
    </defs>
    <g clip-path="url(#pbfa56f7501)">
     <use style="fill:#2ca02c;stroke:#2ca02c;" x="228.479221" xlink:href="#m76e0e4c285" y="23.430667"/>
     <use style="fill:#2ca02c;stroke:#2ca02c;" x="244.180519" xlink:href="#m76e0e4c285" y="68.137688"/>
     <use style="fill:#2ca02c;stroke:#2ca02c;" x="259.881818" xlink:href="#m76e0e4c285" y="131.821954"/>
     <use style="fill:#2ca02c;stroke:#2ca02c;" x="275.583117" xlink:href="#m76e0e4c285" y="70.658931"/>
     <use style="fill:#2ca02c;stroke:#2ca02c;" x="291.284416" xlink:href="#m76e0e4c285" y="121.907197"/>
     <use style="fill:#2ca02c;stroke:#2ca02c;" x="306.985714" xlink:href="#m76e0e4c285" y="143.838431"/>
     <use style="fill:#2ca02c;stroke:#2ca02c;" x="322.687013" xlink:href="#m76e0e4c285" y="194.952343"/>
     <use style="fill:#2ca02c;stroke:#2ca02c;" x="338.388312" xlink:href="#m76e0e4c285" y="161.120023"/>
     <use style="fill:#2ca02c;stroke:#2ca02c;" x="354.08961" xlink:href="#m76e0e4c285" y="203.530037"/>
     <use style="fill:#2ca02c;stroke:#2ca02c;" x="369.790909" xlink:href="#m76e0e4c285" y="162.534057"/>
     <use style="fill:#2ca02c;stroke:#2ca02c;" x="385.492208" xlink:href="#m76e0e4c285" y="259.779739"/>
     <use style="fill:#2ca02c;stroke:#2ca02c;" x="401.193506" xlink:href="#m76e0e4c285" y="274.730775"/>
     <use style="fill:#2ca02c;stroke:#2ca02c;" x="416.894805" xlink:href="#m76e0e4c285" y="295.287909"/>
     <use style="fill:#2ca02c;stroke:#2ca02c;" x="432.596104" xlink:href="#m76e0e4c285" y="280.656986"/>
     <use style="fill:#2ca02c;stroke:#2ca02c;" x="448.297403" xlink:href="#m76e0e4c285" y="314.585234"/>
     <use style="fill:#2ca02c;stroke:#2ca02c;" x="463.998701" xlink:href="#m76e0e4c285" y="300.365078"/>
     <use style="fill:#2ca02c;stroke:#2ca02c;" x="479.7" xlink:href="#m76e0e4c285" y="314.820666"/>
     <use style="fill:#2ca02c;stroke:#2ca02c;" x="495.401299" xlink:href="#m76e0e4c285" y="323.532352"/>
     <use style="fill:#2ca02c;stroke:#2ca02c;" x="511.102597" xlink:href="#m76e0e4c285" y="339.865934"/>
     <use style="fill:#2ca02c;stroke:#2ca02c;" x="526.803896" xlink:href="#m76e0e4c285" y="354.851045"/>
     <use style="fill:#2ca02c;stroke:#2ca02c;" x="542.505195" xlink:href="#m76e0e4c285" y="373.705875"/>
     <use style="fill:#2ca02c;stroke:#2ca02c;" x="558.206494" xlink:href="#m76e0e4c285" y="386.441702"/>
     <use style="fill:#2ca02c;stroke:#2ca02c;" x="573.907792" xlink:href="#m76e0e4c285" y="405.747543"/>
     <use style="fill:#2ca02c;stroke:#2ca02c;" x="589.609091" xlink:href="#m76e0e4c285" y="415.630445"/>
     <use style="fill:#2ca02c;stroke:#2ca02c;" x="605.31039" xlink:href="#m76e0e4c285" y="425.617243"/>
     <use style="fill:#2ca02c;stroke:#2ca02c;" x="621.011688" xlink:href="#m76e0e4c285" y="435.862801"/>
     <use style="fill:#2ca02c;stroke:#2ca02c;" x="636.712987" xlink:href="#m76e0e4c285" y="444.229242"/>
     <use style="fill:#2ca02c;stroke:#2ca02c;" x="652.414286" xlink:href="#m76e0e4c285" y="452.497621"/>
     <use style="fill:#2ca02c;stroke:#2ca02c;" x="668.115584" xlink:href="#m76e0e4c285" y="457.177301"/>
     <use style="fill:#2ca02c;stroke:#2ca02c;" x="683.816883" xlink:href="#m76e0e4c285" y="463.023011"/>
     <use style="fill:#2ca02c;stroke:#2ca02c;" x="699.518182" xlink:href="#m76e0e4c285" y="469.100325"/>
     <use style="fill:#2ca02c;stroke:#2ca02c;" x="715.219481" xlink:href="#m76e0e4c285" y="473.41785"/>
     <use style="fill:#2ca02c;stroke:#2ca02c;" x="730.920779" xlink:href="#m76e0e4c285" y="477.03679"/>
     <use style="fill:#2ca02c;stroke:#2ca02c;" x="746.622078" xlink:href="#m76e0e4c285" y="479.335301"/>
     <use style="fill:#2ca02c;stroke:#2ca02c;" x="762.323377" xlink:href="#m76e0e4c285" y="481.825972"/>
     <use style="fill:#2ca02c;stroke:#2ca02c;" x="778.024675" xlink:href="#m76e0e4c285" y="485.630303"/>
     <use style="fill:#2ca02c;stroke:#2ca02c;" x="793.725974" xlink:href="#m76e0e4c285" y="487.417515"/>
     <use style="fill:#2ca02c;stroke:#2ca02c;" x="809.427273" xlink:href="#m76e0e4c285" y="488.661153"/>
    </g>
   </g>
   <g id="line2d_112">
    <path clip-path="url(#pbfa56f7501)" d="M 338.388312 94.320843 
L 354.08961 137.888956 
L 369.790909 147.284744 
L 385.492208 169.341594 
L 401.193506 201.09371 
L 416.894805 222.344387 
L 432.596104 238.710521 
L 448.297403 240.760133 
L 463.998701 253.120499 
L 479.7 241.542653 
L 495.401299 292.185308 
L 511.102597 307.859983 
L 526.803896 325.548113 
L 542.505195 328.352617 
L 558.206494 351.229829 
L 573.907792 354.602153 
L 589.609091 366.659499 
L 605.31039 376.060973 
L 621.011688 389.198682 
L 636.712987 400.712554 
L 652.414286 414.027479 
L 668.115584 422.563359 
L 683.816883 434.887061 
L 699.518182 442.807 
L 715.219481 449.873607 
L 730.920779 456.716266 
L 746.622078 461.977287 
L 762.323377 467.298831 
L 778.024675 471.533479 
L 793.725974 475.316052 
L 809.427273 478.942618 
" style="fill:none;stroke:#d62728;stroke-linecap:square;stroke-width:1.5;"/>
    <defs>
     <path d="M -3 0 
L 3 0 
M 0 3 
L 0 -3 
" id="mab2b15dbde" style="stroke:#d62728;"/>
    </defs>
    <g clip-path="url(#pbfa56f7501)">
     <use style="fill:#d62728;stroke:#d62728;" x="338.388312" xlink:href="#mab2b15dbde" y="94.320843"/>
     <use style="fill:#d62728;stroke:#d62728;" x="354.08961" xlink:href="#mab2b15dbde" y="137.888956"/>
     <use style="fill:#d62728;stroke:#d62728;" x="369.790909" xlink:href="#mab2b15dbde" y="147.284744"/>
     <use style="fill:#d62728;stroke:#d62728;" x="385.492208" xlink:href="#mab2b15dbde" y="169.341594"/>
     <use style="fill:#d62728;stroke:#d62728;" x="401.193506" xlink:href="#mab2b15dbde" y="201.09371"/>
     <use style="fill:#d62728;stroke:#d62728;" x="416.894805" xlink:href="#mab2b15dbde" y="222.344387"/>
     <use style="fill:#d62728;stroke:#d62728;" x="432.596104" xlink:href="#mab2b15dbde" y="238.710521"/>
     <use style="fill:#d62728;stroke:#d62728;" x="448.297403" xlink:href="#mab2b15dbde" y="240.760133"/>
     <use style="fill:#d62728;stroke:#d62728;" x="463.998701" xlink:href="#mab2b15dbde" y="253.120499"/>
     <use style="fill:#d62728;stroke:#d62728;" x="479.7" xlink:href="#mab2b15dbde" y="241.542653"/>
     <use style="fill:#d62728;stroke:#d62728;" x="495.401299" xlink:href="#mab2b15dbde" y="292.185308"/>
     <use style="fill:#d62728;stroke:#d62728;" x="511.102597" xlink:href="#mab2b15dbde" y="307.859983"/>
     <use style="fill:#d62728;stroke:#d62728;" x="526.803896" xlink:href="#mab2b15dbde" y="325.548113"/>
     <use style="fill:#d62728;stroke:#d62728;" x="542.505195" xlink:href="#mab2b15dbde" y="328.352617"/>
     <use style="fill:#d62728;stroke:#d62728;" x="558.206494" xlink:href="#mab2b15dbde" y="351.229829"/>
     <use style="fill:#d62728;stroke:#d62728;" x="573.907792" xlink:href="#mab2b15dbde" y="354.602153"/>
     <use style="fill:#d62728;stroke:#d62728;" x="589.609091" xlink:href="#mab2b15dbde" y="366.659499"/>
     <use style="fill:#d62728;stroke:#d62728;" x="605.31039" xlink:href="#mab2b15dbde" y="376.060973"/>
     <use style="fill:#d62728;stroke:#d62728;" x="621.011688" xlink:href="#mab2b15dbde" y="389.198682"/>
     <use style="fill:#d62728;stroke:#d62728;" x="636.712987" xlink:href="#mab2b15dbde" y="400.712554"/>
     <use style="fill:#d62728;stroke:#d62728;" x="652.414286" xlink:href="#mab2b15dbde" y="414.027479"/>
     <use style="fill:#d62728;stroke:#d62728;" x="668.115584" xlink:href="#mab2b15dbde" y="422.563359"/>
     <use style="fill:#d62728;stroke:#d62728;" x="683.816883" xlink:href="#mab2b15dbde" y="434.887061"/>
     <use style="fill:#d62728;stroke:#d62728;" x="699.518182" xlink:href="#mab2b15dbde" y="442.807"/>
     <use style="fill:#d62728;stroke:#d62728;" x="715.219481" xlink:href="#mab2b15dbde" y="449.873607"/>
     <use style="fill:#d62728;stroke:#d62728;" x="730.920779" xlink:href="#mab2b15dbde" y="456.716266"/>
     <use style="fill:#d62728;stroke:#d62728;" x="746.622078" xlink:href="#mab2b15dbde" y="461.977287"/>
     <use style="fill:#d62728;stroke:#d62728;" x="762.323377" xlink:href="#mab2b15dbde" y="467.298831"/>
     <use style="fill:#d62728;stroke:#d62728;" x="778.024675" xlink:href="#mab2b15dbde" y="471.533479"/>
     <use style="fill:#d62728;stroke:#d62728;" x="793.725974" xlink:href="#mab2b15dbde" y="475.316052"/>
     <use style="fill:#d62728;stroke:#d62728;" x="809.427273" xlink:href="#mab2b15dbde" y="478.942618"/>
    </g>
   </g>
   <g id="patch_3">
    <path d="M 117 512.64 
L 117 69.12 
" style="fill:none;stroke:#000000;stroke-linecap:square;stroke-linejoin:miter;stroke-width:0.8;"/>
   </g>
   <g id="patch_4">
    <path d="M 842.4 512.64 
L 842.4 69.12 
" style="fill:none;stroke:#000000;stroke-linecap:square;stroke-linejoin:miter;stroke-width:0.8;"/>
   </g>
   <g id="patch_5">
    <path d="M 117 512.64 
L 842.4 512.64 
" style="fill:none;stroke:#000000;stroke-linecap:square;stroke-linejoin:miter;stroke-width:0.8;"/>
   </g>
   <g id="patch_6">
    <path d="M 117 69.12 
L 842.4 69.12 
" style="fill:none;stroke:#000000;stroke-linecap:square;stroke-linejoin:miter;stroke-width:0.8;"/>
   </g>
   <g id="text_13">
    <!-- Fatalities, daily growth rate in Spain (2020-01-22..2020-04-16) -->
    <defs>
     <path d="M 9.8125 72.90625 
L 51.703125 72.90625 
L 51.703125 64.59375 
L 19.671875 64.59375 
L 19.671875 43.109375 
L 48.578125 43.109375 
L 48.578125 34.8125 
L 19.671875 34.8125 
L 19.671875 0 
L 9.8125 0 
z
" id="DejaVuSans-70"/>
     <path d="M 9.421875 75.984375 
L 18.40625 75.984375 
L 18.40625 0 
L 9.421875 0 
z
" id="DejaVuSans-108"/>
     <path d="M 44.28125 53.078125 
L 44.28125 44.578125 
Q 40.484375 46.53125 36.375 47.5 
Q 32.28125 48.484375 27.875 48.484375 
Q 21.1875 48.484375 17.84375 46.4375 
Q 14.5 44.390625 14.5 40.28125 
Q 14.5 37.15625 16.890625 35.375 
Q 19.28125 33.59375 26.515625 31.984375 
L 29.59375 31.296875 
Q 39.15625 29.25 43.1875 25.515625 
Q 47.21875 21.78125 47.21875 15.09375 
Q 47.21875 7.46875 41.1875 3.015625 
Q 35.15625 -1.421875 24.609375 -1.421875 
Q 20.21875 -1.421875 15.453125 -0.5625 
Q 10.6875 0.296875 5.421875 2 
L 5.421875 11.28125 
Q 10.40625 8.6875 15.234375 7.390625 
Q 20.0625 6.109375 24.8125 6.109375 
Q 31.15625 6.109375 34.5625 8.28125 
Q 37.984375 10.453125 37.984375 14.40625 
Q 37.984375 18.0625 35.515625 20.015625 
Q 33.0625 21.96875 24.703125 23.78125 
L 21.578125 24.515625 
Q 13.234375 26.265625 9.515625 29.90625 
Q 5.8125 33.546875 5.8125 39.890625 
Q 5.8125 47.609375 11.28125 51.796875 
Q 16.75 56 26.8125 56 
Q 31.78125 56 36.171875 55.265625 
Q 40.578125 54.546875 44.28125 53.078125 
z
" id="DejaVuSans-115"/>
     <path d="M 11.71875 12.40625 
L 22.015625 12.40625 
L 22.015625 4 
L 14.015625 -11.625 
L 7.71875 -11.625 
L 11.71875 4 
z
" id="DejaVuSans-44"/>
     <path d="M 53.515625 70.515625 
L 53.515625 60.890625 
Q 47.90625 63.578125 42.921875 64.890625 
Q 37.9375 66.21875 33.296875 66.21875 
Q 25.25 66.21875 20.875 63.09375 
Q 16.5 59.96875 16.5 54.203125 
Q 16.5 49.359375 19.40625 46.890625 
Q 22.3125 44.4375 30.421875 42.921875 
L 36.375 41.703125 
Q 47.40625 39.59375 52.65625 34.296875 
Q 57.90625 29 57.90625 20.125 
Q 57.90625 9.515625 50.796875 4.046875 
Q 43.703125 -1.421875 29.984375 -1.421875 
Q 24.8125 -1.421875 18.96875 -0.25 
Q 13.140625 0.921875 6.890625 3.21875 
L 6.890625 13.375 
Q 12.890625 10.015625 18.65625 8.296875 
Q 24.421875 6.59375 29.984375 6.59375 
Q 38.421875 6.59375 43.015625 9.90625 
Q 47.609375 13.234375 47.609375 19.390625 
Q 47.609375 24.75 44.3125 27.78125 
Q 41.015625 30.8125 33.5 32.328125 
L 27.484375 33.5 
Q 16.453125 35.6875 11.515625 40.375 
Q 6.59375 45.0625 6.59375 53.421875 
Q 6.59375 63.09375 13.40625 68.65625 
Q 20.21875 74.21875 32.171875 74.21875 
Q 37.3125 74.21875 42.625 73.28125 
Q 47.953125 72.359375 53.515625 70.515625 
z
" id="DejaVuSans-83"/>
     <path d="M 10.6875 12.40625 
L 21 12.40625 
L 21 0 
L 10.6875 0 
z
" id="DejaVuSans-46"/>
    </defs>
    <g transform="translate(291.672188 63.12)scale(0.12 -0.12)">
     <use xlink:href="#DejaVuSans-70"/>
     <use x="48.394531" xlink:href="#DejaVuSans-97"/>
     <use x="109.673828" xlink:href="#DejaVuSans-116"/>
     <use x="148.882812" xlink:href="#DejaVuSans-97"/>
     <use x="210.162109" xlink:href="#DejaVuSans-108"/>
     <use x="237.945312" xlink:href="#DejaVuSans-105"/>
     <use x="265.728516" xlink:href="#DejaVuSans-116"/>
     <use x="304.9375" xlink:href="#DejaVuSans-105"/>
     <use x="332.720703" xlink:href="#DejaVuSans-101"/>
     <use x="394.244141" xlink:href="#DejaVuSans-115"/>
     <use x="446.34375" xlink:href="#DejaVuSans-44"/>
     <use x="478.130859" xlink:href="#DejaVuSans-32"/>
     <use x="509.917969" xlink:href="#DejaVuSans-100"/>
     <use x="573.394531" xlink:href="#DejaVuSans-97"/>
     <use x="634.673828" xlink:href="#DejaVuSans-105"/>
     <use x="662.457031" xlink:href="#DejaVuSans-108"/>
     <use x="690.240234" xlink:href="#DejaVuSans-121"/>
     <use x="749.419922" xlink:href="#DejaVuSans-32"/>
     <use x="781.207031" xlink:href="#DejaVuSans-103"/>
     <use x="844.683594" xlink:href="#DejaVuSans-114"/>
     <use x="883.546875" xlink:href="#DejaVuSans-111"/>
     <use x="944.728516" xlink:href="#DejaVuSans-119"/>
     <use x="1026.515625" xlink:href="#DejaVuSans-116"/>
     <use x="1065.724609" xlink:href="#DejaVuSans-104"/>
     <use x="1129.103516" xlink:href="#DejaVuSans-32"/>
     <use x="1160.890625" xlink:href="#DejaVuSans-114"/>
     <use x="1202.003906" xlink:href="#DejaVuSans-97"/>
     <use x="1263.283203" xlink:href="#DejaVuSans-116"/>
     <use x="1302.492188" xlink:href="#DejaVuSans-101"/>
     <use x="1364.015625" xlink:href="#DejaVuSans-32"/>
     <use x="1395.802734" xlink:href="#DejaVuSans-105"/>
     <use x="1423.585938" xlink:href="#DejaVuSans-110"/>
     <use x="1486.964844" xlink:href="#DejaVuSans-32"/>
     <use x="1518.751953" xlink:href="#DejaVuSans-83"/>
     <use x="1582.228516" xlink:href="#DejaVuSans-112"/>
     <use x="1645.705078" xlink:href="#DejaVuSans-97"/>
     <use x="1706.984375" xlink:href="#DejaVuSans-105"/>
     <use x="1734.767578" xlink:href="#DejaVuSans-110"/>
     <use x="1798.146484" xlink:href="#DejaVuSans-32"/>
     <use x="1829.933594" xlink:href="#DejaVuSans-40"/>
     <use x="1868.947266" xlink:href="#DejaVuSans-50"/>
     <use x="1932.570312" xlink:href="#DejaVuSans-48"/>
     <use x="1996.193359" xlink:href="#DejaVuSans-50"/>
     <use x="2059.816406" xlink:href="#DejaVuSans-48"/>
     <use x="2123.439453" xlink:href="#DejaVuSans-45"/>
     <use x="2159.523438" xlink:href="#DejaVuSans-48"/>
     <use x="2223.146484" xlink:href="#DejaVuSans-49"/>
     <use x="2286.769531" xlink:href="#DejaVuSans-45"/>
     <use x="2322.853516" xlink:href="#DejaVuSans-50"/>
     <use x="2386.476562" xlink:href="#DejaVuSans-50"/>
     <use x="2450.099609" xlink:href="#DejaVuSans-46"/>
     <use x="2481.886719" xlink:href="#DejaVuSans-46"/>
     <use x="2513.673828" xlink:href="#DejaVuSans-50"/>
     <use x="2577.296875" xlink:href="#DejaVuSans-48"/>
     <use x="2640.919922" xlink:href="#DejaVuSans-50"/>
     <use x="2704.542969" xlink:href="#DejaVuSans-48"/>
     <use x="2768.166016" xlink:href="#DejaVuSans-45"/>
     <use x="2804.25" xlink:href="#DejaVuSans-48"/>
     <use x="2867.873047" xlink:href="#DejaVuSans-52"/>
     <use x="2931.496094" xlink:href="#DejaVuSans-45"/>
     <use x="2967.580078" xlink:href="#DejaVuSans-49"/>
     <use x="3031.203125" xlink:href="#DejaVuSans-54"/>
     <use x="3094.826172" xlink:href="#DejaVuSans-41"/>
    </g>
   </g>
   <g id="legend_1">
    <g id="patch_7">
     <path d="M 750.5 150.5325 
L 835.4 150.5325 
Q 837.4 150.5325 837.4 148.5325 
L 837.4 76.12 
Q 837.4 74.12 835.4 74.12 
L 750.5 74.12 
Q 748.5 74.12 748.5 76.12 
L 748.5 148.5325 
Q 748.5 150.5325 750.5 150.5325 
z
" style="fill:#ffffff;opacity:0.8;stroke:#cccccc;stroke-linejoin:miter;"/>
    </g>
    <g id="text_14">
     <!-- Avg over $n$ days -->
     <defs>
      <path d="M 34.1875 63.1875 
L 20.796875 26.90625 
L 47.609375 26.90625 
z
M 28.609375 72.90625 
L 39.796875 72.90625 
L 67.578125 0 
L 57.328125 0 
L 50.6875 18.703125 
L 17.828125 18.703125 
L 11.1875 0 
L 0.78125 0 
z
" id="DejaVuSans-65"/>
      <path d="M 55.71875 33.015625 
L 49.3125 0 
L 40.28125 0 
L 46.6875 32.671875 
Q 47.125 34.96875 47.359375 36.71875 
Q 47.609375 38.484375 47.609375 39.5 
Q 47.609375 43.609375 45.015625 45.890625 
Q 42.4375 48.1875 37.796875 48.1875 
Q 30.5625 48.1875 25.34375 43.375 
Q 20.125 38.578125 18.5 30.328125 
L 12.5 0 
L 3.515625 0 
L 14.109375 54.6875 
L 23.09375 54.6875 
L 21.296875 46.09375 
Q 25.046875 50.828125 30.3125 53.40625 
Q 35.59375 56 41.40625 56 
Q 48.640625 56 52.609375 52.09375 
Q 56.59375 48.1875 56.59375 41.109375 
Q 56.59375 39.359375 56.375 37.359375 
Q 56.15625 35.359375 55.71875 33.015625 
z
" id="DejaVuSans-Oblique-110"/>
     </defs>
     <g transform="translate(752.5 85.72)scale(0.1 -0.1)">
      <use transform="translate(0 0.015625)" xlink:href="#DejaVuSans-65"/>
      <use transform="translate(68.408203 0.015625)" xlink:href="#DejaVuSans-118"/>
      <use transform="translate(127.587891 0.015625)" xlink:href="#DejaVuSans-103"/>
      <use transform="translate(191.064453 0.015625)" xlink:href="#DejaVuSans-32"/>
      <use transform="translate(222.851562 0.015625)" xlink:href="#DejaVuSans-111"/>
      <use transform="translate(284.033203 0.015625)" xlink:href="#DejaVuSans-118"/>
      <use transform="translate(343.212891 0.015625)" xlink:href="#DejaVuSans-101"/>
      <use transform="translate(404.736328 0.015625)" xlink:href="#DejaVuSans-114"/>
      <use transform="translate(445.849609 0.015625)" xlink:href="#DejaVuSans-32"/>
      <use transform="translate(477.636719 0.015625)" xlink:href="#DejaVuSans-Oblique-110"/>
      <use transform="translate(541.015625 0.015625)" xlink:href="#DejaVuSans-32"/>
      <use transform="translate(572.802734 0.015625)" xlink:href="#DejaVuSans-100"/>
      <use transform="translate(636.279297 0.015625)" xlink:href="#DejaVuSans-97"/>
      <use transform="translate(697.558594 0.015625)" xlink:href="#DejaVuSans-121"/>
      <use transform="translate(756.738281 0.015625)" xlink:href="#DejaVuSans-115"/>
     </g>
    </g>
    <g id="line2d_113">
     <path d="M 759.196094 96.918438 
L 779.196094 96.918438 
" style="fill:none;stroke:#1f77b4;stroke-linecap:square;stroke-width:1.5;"/>
    </g>
    <g id="line2d_114">
     <g>
      <use style="fill:#1f77b4;stroke:#1f77b4;" x="769.196094" xlink:href="#m2e6179194d" y="96.918438"/>
     </g>
    </g>
    <g id="text_15">
     <!-- 2 days -->
     <g transform="translate(787.196094 100.418438)scale(0.1 -0.1)">
      <use xlink:href="#DejaVuSans-50"/>
      <use x="63.623047" xlink:href="#DejaVuSans-32"/>
      <use x="95.410156" xlink:href="#DejaVuSans-100"/>
      <use x="158.886719" xlink:href="#DejaVuSans-97"/>
      <use x="220.166016" xlink:href="#DejaVuSans-121"/>
      <use x="279.345703" xlink:href="#DejaVuSans-115"/>
     </g>
    </g>
    <g id="line2d_115">
     <path d="M 759.196094 111.596563 
L 779.196094 111.596563 
" style="fill:none;stroke:#ff7f0e;stroke-linecap:square;stroke-width:1.5;"/>
    </g>
    <g id="line2d_116">
     <g>
      <use style="fill:#ff7f0e;stroke:#ff7f0e;" x="769.196094" xlink:href="#mdfc2d4f957" y="111.596563"/>
     </g>
    </g>
    <g id="text_16">
     <!-- 4 days -->
     <g transform="translate(787.196094 115.096563)scale(0.1 -0.1)">
      <use xlink:href="#DejaVuSans-52"/>
      <use x="63.623047" xlink:href="#DejaVuSans-32"/>
      <use x="95.410156" xlink:href="#DejaVuSans-100"/>
      <use x="158.886719" xlink:href="#DejaVuSans-97"/>
      <use x="220.166016" xlink:href="#DejaVuSans-121"/>
      <use x="279.345703" xlink:href="#DejaVuSans-115"/>
     </g>
    </g>
    <g id="line2d_117">
     <path d="M 759.196094 126.274688 
L 779.196094 126.274688 
" style="fill:none;stroke:#2ca02c;stroke-linecap:square;stroke-width:1.5;"/>
    </g>
    <g id="line2d_118">
     <g>
      <use style="fill:#2ca02c;stroke:#2ca02c;" x="769.196094" xlink:href="#m76e0e4c285" y="126.274688"/>
     </g>
    </g>
    <g id="text_17">
     <!-- 7 days -->
     <defs>
      <path d="M 8.203125 72.90625 
L 55.078125 72.90625 
L 55.078125 68.703125 
L 28.609375 0 
L 18.3125 0 
L 43.21875 64.59375 
L 8.203125 64.59375 
z
" id="DejaVuSans-55"/>
     </defs>
     <g transform="translate(787.196094 129.774688)scale(0.1 -0.1)">
      <use xlink:href="#DejaVuSans-55"/>
      <use x="63.623047" xlink:href="#DejaVuSans-32"/>
      <use x="95.410156" xlink:href="#DejaVuSans-100"/>
      <use x="158.886719" xlink:href="#DejaVuSans-97"/>
      <use x="220.166016" xlink:href="#DejaVuSans-121"/>
      <use x="279.345703" xlink:href="#DejaVuSans-115"/>
     </g>
    </g>
    <g id="line2d_119">
     <path d="M 759.196094 140.952813 
L 779.196094 140.952813 
" style="fill:none;stroke:#d62728;stroke-linecap:square;stroke-width:1.5;"/>
    </g>
    <g id="line2d_120">
     <g>
      <use style="fill:#d62728;stroke:#d62728;" x="769.196094" xlink:href="#mab2b15dbde" y="140.952813"/>
     </g>
    </g>
    <g id="text_18">
     <!-- 14 days -->
     <g transform="translate(787.196094 144.452813)scale(0.1 -0.1)">
      <use xlink:href="#DejaVuSans-49"/>
      <use x="63.623047" xlink:href="#DejaVuSans-52"/>
      <use x="127.246094" xlink:href="#DejaVuSans-32"/>
      <use x="159.033203" xlink:href="#DejaVuSans-100"/>
      <use x="222.509766" xlink:href="#DejaVuSans-97"/>
      <use x="283.789062" xlink:href="#DejaVuSans-121"/>
      <use x="342.96875" xlink:href="#DejaVuSans-115"/>
     </g>
    </g>
   </g>
  </g>
 </g>
 <defs>
  <clipPath id="pbfa56f7501">
   <rect height="443.52" width="725.4" x="117" y="69.12"/>
  </clipPath>
 </defs>
</svg>
