<?xml version="1.0" encoding="utf-8" standalone="no"?>
<!DOCTYPE svg PUBLIC "-//W3C//DTD SVG 1.1//EN"
  "http://www.w3.org/Graphics/SVG/1.1/DTD/svg11.dtd">
<!-- Created with matplotlib (https://matplotlib.org/) -->
<svg height="576pt" version="1.1" viewBox="0 0 936 576" width="936pt" xmlns="http://www.w3.org/2000/svg" xmlns:xlink="http://www.w3.org/1999/xlink">
 <defs>
  <style type="text/css">
*{stroke-linecap:butt;stroke-linejoin:round;}
  </style>
 </defs>
 <g id="figure_1">
  <g id="patch_1">
   <path d="M 0 576 
L 936 576 
L 936 0 
L 0 0 
z
" style="fill:#ffffff;"/>
  </g>
  <g id="axes_1">
   <g id="patch_2">
    <path d="M 117 512.64 
L 842.4 512.64 
L 842.4 69.12 
L 117 69.12 
z
" style="fill:#ffffff;"/>
   </g>
   <g id="matplotlib.axis_1">
    <g id="xtick_1">
     <g id="line2d_1">
      <path clip-path="url(#p30d3c4dcde)" d="M 208.159893 512.64 
L 208.159893 69.12 
" style="fill:none;stroke:#d8dcd6;stroke-dasharray:0.8,1.32;stroke-dashoffset:0;stroke-width:0.8;"/>
     </g>
     <g id="line2d_2">
      <defs>
       <path d="M 0 0 
L 0 3.5 
" id="mb4ee7aa85f" style="stroke:#000000;stroke-width:0.8;"/>
      </defs>
      <g>
       <use style="stroke:#000000;stroke-width:0.8;" x="208.159893" xlink:href="#mb4ee7aa85f" y="512.64"/>
      </g>
     </g>
    </g>
    <g id="xtick_2">
     <g id="line2d_3">
      <path clip-path="url(#p30d3c4dcde)" d="M 305.138503 512.64 
L 305.138503 69.12 
" style="fill:none;stroke:#d8dcd6;stroke-dasharray:0.8,1.32;stroke-dashoffset:0;stroke-width:0.8;"/>
     </g>
     <g id="line2d_4">
      <g>
       <use style="stroke:#000000;stroke-width:0.8;" x="305.138503" xlink:href="#mb4ee7aa85f" y="512.64"/>
      </g>
     </g>
     <g id="text_1">
      <!-- 2020-03-17 -->
      <defs>
       <path d="M 19.1875 8.296875 
L 53.609375 8.296875 
L 53.609375 0 
L 7.328125 0 
L 7.328125 8.296875 
Q 12.9375 14.109375 22.625 23.890625 
Q 32.328125 33.6875 34.8125 36.53125 
Q 39.546875 41.84375 41.421875 45.53125 
Q 43.3125 49.21875 43.3125 52.78125 
Q 43.3125 58.59375 39.234375 62.25 
Q 35.15625 65.921875 28.609375 65.921875 
Q 23.96875 65.921875 18.8125 64.3125 
Q 13.671875 62.703125 7.8125 59.421875 
L 7.8125 69.390625 
Q 13.765625 71.78125 18.9375 73 
Q 24.125 74.21875 28.421875 74.21875 
Q 39.75 74.21875 46.484375 68.546875 
Q 53.21875 62.890625 53.21875 53.421875 
Q 53.21875 48.921875 51.53125 44.890625 
Q 49.859375 40.875 45.40625 35.40625 
Q 44.1875 33.984375 37.640625 27.21875 
Q 31.109375 20.453125 19.1875 8.296875 
z
" id="DejaVuSans-50"/>
       <path d="M 31.78125 66.40625 
Q 24.171875 66.40625 20.328125 58.90625 
Q 16.5 51.421875 16.5 36.375 
Q 16.5 21.390625 20.328125 13.890625 
Q 24.171875 6.390625 31.78125 6.390625 
Q 39.453125 6.390625 43.28125 13.890625 
Q 47.125 21.390625 47.125 36.375 
Q 47.125 51.421875 43.28125 58.90625 
Q 39.453125 66.40625 31.78125 66.40625 
z
M 31.78125 74.21875 
Q 44.046875 74.21875 50.515625 64.515625 
Q 56.984375 54.828125 56.984375 36.375 
Q 56.984375 17.96875 50.515625 8.265625 
Q 44.046875 -1.421875 31.78125 -1.421875 
Q 19.53125 -1.421875 13.0625 8.265625 
Q 6.59375 17.96875 6.59375 36.375 
Q 6.59375 54.828125 13.0625 64.515625 
Q 19.53125 74.21875 31.78125 74.21875 
z
" id="DejaVuSans-48"/>
       <path d="M 4.890625 31.390625 
L 31.203125 31.390625 
L 31.203125 23.390625 
L 4.890625 23.390625 
z
" id="DejaVuSans-45"/>
       <path d="M 40.578125 39.3125 
Q 47.65625 37.796875 51.625 33 
Q 55.609375 28.21875 55.609375 21.1875 
Q 55.609375 10.40625 48.1875 4.484375 
Q 40.765625 -1.421875 27.09375 -1.421875 
Q 22.515625 -1.421875 17.65625 -0.515625 
Q 12.796875 0.390625 7.625 2.203125 
L 7.625 11.71875 
Q 11.71875 9.328125 16.59375 8.109375 
Q 21.484375 6.890625 26.8125 6.890625 
Q 36.078125 6.890625 40.9375 10.546875 
Q 45.796875 14.203125 45.796875 21.1875 
Q 45.796875 27.640625 41.28125 31.265625 
Q 36.765625 34.90625 28.71875 34.90625 
L 20.21875 34.90625 
L 20.21875 43.015625 
L 29.109375 43.015625 
Q 36.375 43.015625 40.234375 45.921875 
Q 44.09375 48.828125 44.09375 54.296875 
Q 44.09375 59.90625 40.109375 62.90625 
Q 36.140625 65.921875 28.71875 65.921875 
Q 24.65625 65.921875 20.015625 65.03125 
Q 15.375 64.15625 9.8125 62.3125 
L 9.8125 71.09375 
Q 15.4375 72.65625 20.34375 73.4375 
Q 25.25 74.21875 29.59375 74.21875 
Q 40.828125 74.21875 47.359375 69.109375 
Q 53.90625 64.015625 53.90625 55.328125 
Q 53.90625 49.265625 50.4375 45.09375 
Q 46.96875 40.921875 40.578125 39.3125 
z
" id="DejaVuSans-51"/>
       <path d="M 12.40625 8.296875 
L 28.515625 8.296875 
L 28.515625 63.921875 
L 10.984375 60.40625 
L 10.984375 69.390625 
L 28.421875 72.90625 
L 38.28125 72.90625 
L 38.28125 8.296875 
L 54.390625 8.296875 
L 54.390625 0 
L 12.40625 0 
z
" id="DejaVuSans-49"/>
       <path d="M 8.203125 72.90625 
L 55.078125 72.90625 
L 55.078125 68.703125 
L 28.609375 0 
L 18.3125 0 
L 43.21875 64.59375 
L 8.203125 64.59375 
z
" id="DejaVuSans-55"/>
      </defs>
      <g transform="translate(276.08069 527.238438)scale(0.1 -0.1)">
       <use xlink:href="#DejaVuSans-50"/>
       <use x="63.623047" xlink:href="#DejaVuSans-48"/>
       <use x="127.246094" xlink:href="#DejaVuSans-50"/>
       <use x="190.869141" xlink:href="#DejaVuSans-48"/>
       <use x="254.492188" xlink:href="#DejaVuSans-45"/>
       <use x="290.576172" xlink:href="#DejaVuSans-48"/>
       <use x="354.199219" xlink:href="#DejaVuSans-51"/>
       <use x="417.822266" xlink:href="#DejaVuSans-45"/>
       <use x="453.90625" xlink:href="#DejaVuSans-49"/>
       <use x="517.529297" xlink:href="#DejaVuSans-55"/>
      </g>
     </g>
    </g>
    <g id="xtick_3">
     <g id="line2d_5">
      <path clip-path="url(#p30d3c4dcde)" d="M 402.117112 512.64 
L 402.117112 69.12 
" style="fill:none;stroke:#d8dcd6;stroke-dasharray:0.8,1.32;stroke-dashoffset:0;stroke-width:0.8;"/>
     </g>
     <g id="line2d_6">
      <g>
       <use style="stroke:#000000;stroke-width:0.8;" x="402.117112" xlink:href="#mb4ee7aa85f" y="512.64"/>
      </g>
     </g>
    </g>
    <g id="xtick_4">
     <g id="line2d_7">
      <path clip-path="url(#p30d3c4dcde)" d="M 499.095722 512.64 
L 499.095722 69.12 
" style="fill:none;stroke:#d8dcd6;stroke-dasharray:0.8,1.32;stroke-dashoffset:0;stroke-width:0.8;"/>
     </g>
     <g id="line2d_8">
      <g>
       <use style="stroke:#000000;stroke-width:0.8;" x="499.095722" xlink:href="#mb4ee7aa85f" y="512.64"/>
      </g>
     </g>
     <g id="text_2">
      <!-- 2020-03-22 -->
      <g transform="translate(470.037909 527.238438)scale(0.1 -0.1)">
       <use xlink:href="#DejaVuSans-50"/>
       <use x="63.623047" xlink:href="#DejaVuSans-48"/>
       <use x="127.246094" xlink:href="#DejaVuSans-50"/>
       <use x="190.869141" xlink:href="#DejaVuSans-48"/>
       <use x="254.492188" xlink:href="#DejaVuSans-45"/>
       <use x="290.576172" xlink:href="#DejaVuSans-48"/>
       <use x="354.199219" xlink:href="#DejaVuSans-51"/>
       <use x="417.822266" xlink:href="#DejaVuSans-45"/>
       <use x="453.90625" xlink:href="#DejaVuSans-50"/>
       <use x="517.529297" xlink:href="#DejaVuSans-50"/>
      </g>
     </g>
    </g>
    <g id="xtick_5">
     <g id="line2d_9">
      <path clip-path="url(#p30d3c4dcde)" d="M 596.074332 512.64 
L 596.074332 69.12 
" style="fill:none;stroke:#d8dcd6;stroke-dasharray:0.8,1.32;stroke-dashoffset:0;stroke-width:0.8;"/>
     </g>
     <g id="line2d_10">
      <g>
       <use style="stroke:#000000;stroke-width:0.8;" x="596.074332" xlink:href="#mb4ee7aa85f" y="512.64"/>
      </g>
     </g>
    </g>
    <g id="xtick_6">
     <g id="line2d_11">
      <path clip-path="url(#p30d3c4dcde)" d="M 693.052941 512.64 
L 693.052941 69.12 
" style="fill:none;stroke:#d8dcd6;stroke-dasharray:0.8,1.32;stroke-dashoffset:0;stroke-width:0.8;"/>
     </g>
     <g id="line2d_12">
      <g>
       <use style="stroke:#000000;stroke-width:0.8;" x="693.052941" xlink:href="#mb4ee7aa85f" y="512.64"/>
      </g>
     </g>
     <g id="text_3">
      <!-- 2020-03-27 -->
      <g transform="translate(663.995129 527.238438)scale(0.1 -0.1)">
       <use xlink:href="#DejaVuSans-50"/>
       <use x="63.623047" xlink:href="#DejaVuSans-48"/>
       <use x="127.246094" xlink:href="#DejaVuSans-50"/>
       <use x="190.869141" xlink:href="#DejaVuSans-48"/>
       <use x="254.492188" xlink:href="#DejaVuSans-45"/>
       <use x="290.576172" xlink:href="#DejaVuSans-48"/>
       <use x="354.199219" xlink:href="#DejaVuSans-51"/>
       <use x="417.822266" xlink:href="#DejaVuSans-45"/>
       <use x="453.90625" xlink:href="#DejaVuSans-50"/>
       <use x="517.529297" xlink:href="#DejaVuSans-55"/>
      </g>
     </g>
    </g>
    <g id="xtick_7">
     <g id="line2d_13">
      <path clip-path="url(#p30d3c4dcde)" d="M 790.031551 512.64 
L 790.031551 69.12 
" style="fill:none;stroke:#d8dcd6;stroke-dasharray:0.8,1.32;stroke-dashoffset:0;stroke-width:0.8;"/>
     </g>
     <g id="line2d_14">
      <g>
       <use style="stroke:#000000;stroke-width:0.8;" x="790.031551" xlink:href="#mb4ee7aa85f" y="512.64"/>
      </g>
     </g>
    </g>
    <g id="xtick_8">
     <g id="line2d_15">
      <path clip-path="url(#p30d3c4dcde)" d="M 130.577005 512.64 
L 130.577005 69.12 
" style="fill:none;stroke:#d8dcd6;stroke-dasharray:0.8,1.32;stroke-dashoffset:0;stroke-width:0.8;"/>
     </g>
     <g id="line2d_16">
      <defs>
       <path d="M 0 0 
L 0 2 
" id="m238d52c67a" style="stroke:#000000;stroke-width:0.6;"/>
      </defs>
      <g>
       <use style="stroke:#000000;stroke-width:0.6;" x="130.577005" xlink:href="#m238d52c67a" y="512.64"/>
      </g>
     </g>
    </g>
    <g id="xtick_9">
     <g id="line2d_17">
      <path clip-path="url(#p30d3c4dcde)" d="M 149.972727 512.64 
L 149.972727 69.12 
" style="fill:none;stroke:#d8dcd6;stroke-dasharray:0.8,1.32;stroke-dashoffset:0;stroke-width:0.8;"/>
     </g>
     <g id="line2d_18">
      <g>
       <use style="stroke:#000000;stroke-width:0.6;" x="149.972727" xlink:href="#m238d52c67a" y="512.64"/>
      </g>
     </g>
    </g>
    <g id="xtick_10">
     <g id="line2d_19">
      <path clip-path="url(#p30d3c4dcde)" d="M 169.368449 512.64 
L 169.368449 69.12 
" style="fill:none;stroke:#d8dcd6;stroke-dasharray:0.8,1.32;stroke-dashoffset:0;stroke-width:0.8;"/>
     </g>
     <g id="line2d_20">
      <g>
       <use style="stroke:#000000;stroke-width:0.6;" x="169.368449" xlink:href="#m238d52c67a" y="512.64"/>
      </g>
     </g>
    </g>
    <g id="xtick_11">
     <g id="line2d_21">
      <path clip-path="url(#p30d3c4dcde)" d="M 188.764171 512.64 
L 188.764171 69.12 
" style="fill:none;stroke:#d8dcd6;stroke-dasharray:0.8,1.32;stroke-dashoffset:0;stroke-width:0.8;"/>
     </g>
     <g id="line2d_22">
      <g>
       <use style="stroke:#000000;stroke-width:0.6;" x="188.764171" xlink:href="#m238d52c67a" y="512.64"/>
      </g>
     </g>
    </g>
    <g id="xtick_12">
     <g id="line2d_23">
      <path clip-path="url(#p30d3c4dcde)" d="M 227.555615 512.64 
L 227.555615 69.12 
" style="fill:none;stroke:#d8dcd6;stroke-dasharray:0.8,1.32;stroke-dashoffset:0;stroke-width:0.8;"/>
     </g>
     <g id="line2d_24">
      <g>
       <use style="stroke:#000000;stroke-width:0.6;" x="227.555615" xlink:href="#m238d52c67a" y="512.64"/>
      </g>
     </g>
    </g>
    <g id="xtick_13">
     <g id="line2d_25">
      <path clip-path="url(#p30d3c4dcde)" d="M 246.951337 512.64 
L 246.951337 69.12 
" style="fill:none;stroke:#d8dcd6;stroke-dasharray:0.8,1.32;stroke-dashoffset:0;stroke-width:0.8;"/>
     </g>
     <g id="line2d_26">
      <g>
       <use style="stroke:#000000;stroke-width:0.6;" x="246.951337" xlink:href="#m238d52c67a" y="512.64"/>
      </g>
     </g>
    </g>
    <g id="xtick_14">
     <g id="line2d_27">
      <path clip-path="url(#p30d3c4dcde)" d="M 266.347059 512.64 
L 266.347059 69.12 
" style="fill:none;stroke:#d8dcd6;stroke-dasharray:0.8,1.32;stroke-dashoffset:0;stroke-width:0.8;"/>
     </g>
     <g id="line2d_28">
      <g>
       <use style="stroke:#000000;stroke-width:0.6;" x="266.347059" xlink:href="#m238d52c67a" y="512.64"/>
      </g>
     </g>
    </g>
    <g id="xtick_15">
     <g id="line2d_29">
      <path clip-path="url(#p30d3c4dcde)" d="M 285.742781 512.64 
L 285.742781 69.12 
" style="fill:none;stroke:#d8dcd6;stroke-dasharray:0.8,1.32;stroke-dashoffset:0;stroke-width:0.8;"/>
     </g>
     <g id="line2d_30">
      <g>
       <use style="stroke:#000000;stroke-width:0.6;" x="285.742781" xlink:href="#m238d52c67a" y="512.64"/>
      </g>
     </g>
    </g>
    <g id="xtick_16">
     <g id="line2d_31">
      <path clip-path="url(#p30d3c4dcde)" d="M 324.534225 512.64 
L 324.534225 69.12 
" style="fill:none;stroke:#d8dcd6;stroke-dasharray:0.8,1.32;stroke-dashoffset:0;stroke-width:0.8;"/>
     </g>
     <g id="line2d_32">
      <g>
       <use style="stroke:#000000;stroke-width:0.6;" x="324.534225" xlink:href="#m238d52c67a" y="512.64"/>
      </g>
     </g>
    </g>
    <g id="xtick_17">
     <g id="line2d_33">
      <path clip-path="url(#p30d3c4dcde)" d="M 343.929947 512.64 
L 343.929947 69.12 
" style="fill:none;stroke:#d8dcd6;stroke-dasharray:0.8,1.32;stroke-dashoffset:0;stroke-width:0.8;"/>
     </g>
     <g id="line2d_34">
      <g>
       <use style="stroke:#000000;stroke-width:0.6;" x="343.929947" xlink:href="#m238d52c67a" y="512.64"/>
      </g>
     </g>
    </g>
    <g id="xtick_18">
     <g id="line2d_35">
      <path clip-path="url(#p30d3c4dcde)" d="M 363.325668 512.64 
L 363.325668 69.12 
" style="fill:none;stroke:#d8dcd6;stroke-dasharray:0.8,1.32;stroke-dashoffset:0;stroke-width:0.8;"/>
     </g>
     <g id="line2d_36">
      <g>
       <use style="stroke:#000000;stroke-width:0.6;" x="363.325668" xlink:href="#m238d52c67a" y="512.64"/>
      </g>
     </g>
    </g>
    <g id="xtick_19">
     <g id="line2d_37">
      <path clip-path="url(#p30d3c4dcde)" d="M 382.72139 512.64 
L 382.72139 69.12 
" style="fill:none;stroke:#d8dcd6;stroke-dasharray:0.8,1.32;stroke-dashoffset:0;stroke-width:0.8;"/>
     </g>
     <g id="line2d_38">
      <g>
       <use style="stroke:#000000;stroke-width:0.6;" x="382.72139" xlink:href="#m238d52c67a" y="512.64"/>
      </g>
     </g>
    </g>
    <g id="xtick_20">
     <g id="line2d_39">
      <path clip-path="url(#p30d3c4dcde)" d="M 421.512834 512.64 
L 421.512834 69.12 
" style="fill:none;stroke:#d8dcd6;stroke-dasharray:0.8,1.32;stroke-dashoffset:0;stroke-width:0.8;"/>
     </g>
     <g id="line2d_40">
      <g>
       <use style="stroke:#000000;stroke-width:0.6;" x="421.512834" xlink:href="#m238d52c67a" y="512.64"/>
      </g>
     </g>
    </g>
    <g id="xtick_21">
     <g id="line2d_41">
      <path clip-path="url(#p30d3c4dcde)" d="M 440.908556 512.64 
L 440.908556 69.12 
" style="fill:none;stroke:#d8dcd6;stroke-dasharray:0.8,1.32;stroke-dashoffset:0;stroke-width:0.8;"/>
     </g>
     <g id="line2d_42">
      <g>
       <use style="stroke:#000000;stroke-width:0.6;" x="440.908556" xlink:href="#m238d52c67a" y="512.64"/>
      </g>
     </g>
    </g>
    <g id="xtick_22">
     <g id="line2d_43">
      <path clip-path="url(#p30d3c4dcde)" d="M 460.304278 512.64 
L 460.304278 69.12 
" style="fill:none;stroke:#d8dcd6;stroke-dasharray:0.8,1.32;stroke-dashoffset:0;stroke-width:0.8;"/>
     </g>
     <g id="line2d_44">
      <g>
       <use style="stroke:#000000;stroke-width:0.6;" x="460.304278" xlink:href="#m238d52c67a" y="512.64"/>
      </g>
     </g>
    </g>
    <g id="xtick_23">
     <g id="line2d_45">
      <path clip-path="url(#p30d3c4dcde)" d="M 479.7 512.64 
L 479.7 69.12 
" style="fill:none;stroke:#d8dcd6;stroke-dasharray:0.8,1.32;stroke-dashoffset:0;stroke-width:0.8;"/>
     </g>
     <g id="line2d_46">
      <g>
       <use style="stroke:#000000;stroke-width:0.6;" x="479.7" xlink:href="#m238d52c67a" y="512.64"/>
      </g>
     </g>
    </g>
    <g id="xtick_24">
     <g id="line2d_47">
      <path clip-path="url(#p30d3c4dcde)" d="M 518.491444 512.64 
L 518.491444 69.12 
" style="fill:none;stroke:#d8dcd6;stroke-dasharray:0.8,1.32;stroke-dashoffset:0;stroke-width:0.8;"/>
     </g>
     <g id="line2d_48">
      <g>
       <use style="stroke:#000000;stroke-width:0.6;" x="518.491444" xlink:href="#m238d52c67a" y="512.64"/>
      </g>
     </g>
    </g>
    <g id="xtick_25">
     <g id="line2d_49">
      <path clip-path="url(#p30d3c4dcde)" d="M 537.887166 512.64 
L 537.887166 69.12 
" style="fill:none;stroke:#d8dcd6;stroke-dasharray:0.8,1.32;stroke-dashoffset:0;stroke-width:0.8;"/>
     </g>
     <g id="line2d_50">
      <g>
       <use style="stroke:#000000;stroke-width:0.6;" x="537.887166" xlink:href="#m238d52c67a" y="512.64"/>
      </g>
     </g>
    </g>
    <g id="xtick_26">
     <g id="line2d_51">
      <path clip-path="url(#p30d3c4dcde)" d="M 557.282888 512.64 
L 557.282888 69.12 
" style="fill:none;stroke:#d8dcd6;stroke-dasharray:0.8,1.32;stroke-dashoffset:0;stroke-width:0.8;"/>
     </g>
     <g id="line2d_52">
      <g>
       <use style="stroke:#000000;stroke-width:0.6;" x="557.282888" xlink:href="#m238d52c67a" y="512.64"/>
      </g>
     </g>
    </g>
    <g id="xtick_27">
     <g id="line2d_53">
      <path clip-path="url(#p30d3c4dcde)" d="M 576.67861 512.64 
L 576.67861 69.12 
" style="fill:none;stroke:#d8dcd6;stroke-dasharray:0.8,1.32;stroke-dashoffset:0;stroke-width:0.8;"/>
     </g>
     <g id="line2d_54">
      <g>
       <use style="stroke:#000000;stroke-width:0.6;" x="576.67861" xlink:href="#m238d52c67a" y="512.64"/>
      </g>
     </g>
    </g>
    <g id="xtick_28">
     <g id="line2d_55">
      <path clip-path="url(#p30d3c4dcde)" d="M 615.470053 512.64 
L 615.470053 69.12 
" style="fill:none;stroke:#d8dcd6;stroke-dasharray:0.8,1.32;stroke-dashoffset:0;stroke-width:0.8;"/>
     </g>
     <g id="line2d_56">
      <g>
       <use style="stroke:#000000;stroke-width:0.6;" x="615.470053" xlink:href="#m238d52c67a" y="512.64"/>
      </g>
     </g>
    </g>
    <g id="xtick_29">
     <g id="line2d_57">
      <path clip-path="url(#p30d3c4dcde)" d="M 634.865775 512.64 
L 634.865775 69.12 
" style="fill:none;stroke:#d8dcd6;stroke-dasharray:0.8,1.32;stroke-dashoffset:0;stroke-width:0.8;"/>
     </g>
     <g id="line2d_58">
      <g>
       <use style="stroke:#000000;stroke-width:0.6;" x="634.865775" xlink:href="#m238d52c67a" y="512.64"/>
      </g>
     </g>
    </g>
    <g id="xtick_30">
     <g id="line2d_59">
      <path clip-path="url(#p30d3c4dcde)" d="M 654.261497 512.64 
L 654.261497 69.12 
" style="fill:none;stroke:#d8dcd6;stroke-dasharray:0.8,1.32;stroke-dashoffset:0;stroke-width:0.8;"/>
     </g>
     <g id="line2d_60">
      <g>
       <use style="stroke:#000000;stroke-width:0.6;" x="654.261497" xlink:href="#m238d52c67a" y="512.64"/>
      </g>
     </g>
    </g>
    <g id="xtick_31">
     <g id="line2d_61">
      <path clip-path="url(#p30d3c4dcde)" d="M 673.657219 512.64 
L 673.657219 69.12 
" style="fill:none;stroke:#d8dcd6;stroke-dasharray:0.8,1.32;stroke-dashoffset:0;stroke-width:0.8;"/>
     </g>
     <g id="line2d_62">
      <g>
       <use style="stroke:#000000;stroke-width:0.6;" x="673.657219" xlink:href="#m238d52c67a" y="512.64"/>
      </g>
     </g>
    </g>
    <g id="xtick_32">
     <g id="line2d_63">
      <path clip-path="url(#p30d3c4dcde)" d="M 712.448663 512.64 
L 712.448663 69.12 
" style="fill:none;stroke:#d8dcd6;stroke-dasharray:0.8,1.32;stroke-dashoffset:0;stroke-width:0.8;"/>
     </g>
     <g id="line2d_64">
      <g>
       <use style="stroke:#000000;stroke-width:0.6;" x="712.448663" xlink:href="#m238d52c67a" y="512.64"/>
      </g>
     </g>
    </g>
    <g id="xtick_33">
     <g id="line2d_65">
      <path clip-path="url(#p30d3c4dcde)" d="M 731.844385 512.64 
L 731.844385 69.12 
" style="fill:none;stroke:#d8dcd6;stroke-dasharray:0.8,1.32;stroke-dashoffset:0;stroke-width:0.8;"/>
     </g>
     <g id="line2d_66">
      <g>
       <use style="stroke:#000000;stroke-width:0.6;" x="731.844385" xlink:href="#m238d52c67a" y="512.64"/>
      </g>
     </g>
    </g>
    <g id="xtick_34">
     <g id="line2d_67">
      <path clip-path="url(#p30d3c4dcde)" d="M 751.240107 512.64 
L 751.240107 69.12 
" style="fill:none;stroke:#d8dcd6;stroke-dasharray:0.8,1.32;stroke-dashoffset:0;stroke-width:0.8;"/>
     </g>
     <g id="line2d_68">
      <g>
       <use style="stroke:#000000;stroke-width:0.6;" x="751.240107" xlink:href="#m238d52c67a" y="512.64"/>
      </g>
     </g>
    </g>
    <g id="xtick_35">
     <g id="line2d_69">
      <path clip-path="url(#p30d3c4dcde)" d="M 770.635829 512.64 
L 770.635829 69.12 
" style="fill:none;stroke:#d8dcd6;stroke-dasharray:0.8,1.32;stroke-dashoffset:0;stroke-width:0.8;"/>
     </g>
     <g id="line2d_70">
      <g>
       <use style="stroke:#000000;stroke-width:0.6;" x="770.635829" xlink:href="#m238d52c67a" y="512.64"/>
      </g>
     </g>
    </g>
    <g id="xtick_36">
     <g id="line2d_71">
      <path clip-path="url(#p30d3c4dcde)" d="M 809.427273 512.64 
L 809.427273 69.12 
" style="fill:none;stroke:#d8dcd6;stroke-dasharray:0.8,1.32;stroke-dashoffset:0;stroke-width:0.8;"/>
     </g>
     <g id="line2d_72">
      <g>
       <use style="stroke:#000000;stroke-width:0.6;" x="809.427273" xlink:href="#m238d52c67a" y="512.64"/>
      </g>
     </g>
    </g>
    <g id="xtick_37">
     <g id="line2d_73">
      <path clip-path="url(#p30d3c4dcde)" d="M 828.822995 512.64 
L 828.822995 69.12 
" style="fill:none;stroke:#d8dcd6;stroke-dasharray:0.8,1.32;stroke-dashoffset:0;stroke-width:0.8;"/>
     </g>
     <g id="line2d_74">
      <g>
       <use style="stroke:#000000;stroke-width:0.6;" x="828.822995" xlink:href="#m238d52c67a" y="512.64"/>
      </g>
     </g>
    </g>
   </g>
   <g id="matplotlib.axis_2">
    <g id="ytick_1">
     <g id="line2d_75">
      <path clip-path="url(#p30d3c4dcde)" d="M 117 492.48 
L 842.4 492.48 
" style="fill:none;stroke:#d8dcd6;stroke-dasharray:0.8,1.32;stroke-dashoffset:0;stroke-width:0.8;"/>
     </g>
     <g id="line2d_76">
      <defs>
       <path d="M 0 0 
L -3.5 0 
" id="m2665d8dfd6" style="stroke:#000000;stroke-width:0.8;"/>
      </defs>
      <g>
       <use style="stroke:#000000;stroke-width:0.8;" x="117" xlink:href="#m2665d8dfd6" y="492.48"/>
      </g>
     </g>
     <g id="text_4">
      <!-- 1.0 -->
      <defs>
       <path d="M 10.6875 12.40625 
L 21 12.40625 
L 21 0 
L 10.6875 0 
z
" id="DejaVuSans-46"/>
      </defs>
      <g transform="translate(94.096875 496.279219)scale(0.1 -0.1)">
       <use xlink:href="#DejaVuSans-49"/>
       <use x="63.623047" xlink:href="#DejaVuSans-46"/>
       <use x="95.410156" xlink:href="#DejaVuSans-48"/>
      </g>
     </g>
    </g>
    <g id="ytick_2">
     <g id="line2d_77">
      <path clip-path="url(#p30d3c4dcde)" d="M 117 441.194714 
L 842.4 441.194714 
" style="fill:none;stroke:#d8dcd6;stroke-dasharray:0.8,1.32;stroke-dashoffset:0;stroke-width:0.8;"/>
     </g>
     <g id="line2d_78">
      <g>
       <use style="stroke:#000000;stroke-width:0.8;" x="117" xlink:href="#m2665d8dfd6" y="441.194714"/>
      </g>
     </g>
     <g id="text_5">
      <!-- 1.1 -->
      <g transform="translate(94.096875 444.993933)scale(0.1 -0.1)">
       <use xlink:href="#DejaVuSans-49"/>
       <use x="63.623047" xlink:href="#DejaVuSans-46"/>
       <use x="95.410156" xlink:href="#DejaVuSans-49"/>
      </g>
     </g>
    </g>
    <g id="ytick_3">
     <g id="line2d_79">
      <path clip-path="url(#p30d3c4dcde)" d="M 117 389.909428 
L 842.4 389.909428 
" style="fill:none;stroke:#d8dcd6;stroke-dasharray:0.8,1.32;stroke-dashoffset:0;stroke-width:0.8;"/>
     </g>
     <g id="line2d_80">
      <g>
       <use style="stroke:#000000;stroke-width:0.8;" x="117" xlink:href="#m2665d8dfd6" y="389.909428"/>
      </g>
     </g>
     <g id="text_6">
      <!-- 1.2 -->
      <g transform="translate(94.096875 393.708647)scale(0.1 -0.1)">
       <use xlink:href="#DejaVuSans-49"/>
       <use x="63.623047" xlink:href="#DejaVuSans-46"/>
       <use x="95.410156" xlink:href="#DejaVuSans-50"/>
      </g>
     </g>
    </g>
    <g id="ytick_4">
     <g id="line2d_81">
      <path clip-path="url(#p30d3c4dcde)" d="M 117 338.624143 
L 842.4 338.624143 
" style="fill:none;stroke:#d8dcd6;stroke-dasharray:0.8,1.32;stroke-dashoffset:0;stroke-width:0.8;"/>
     </g>
     <g id="line2d_82">
      <g>
       <use style="stroke:#000000;stroke-width:0.8;" x="117" xlink:href="#m2665d8dfd6" y="338.624143"/>
      </g>
     </g>
     <g id="text_7">
      <!-- 1.3 -->
      <g transform="translate(94.096875 342.423361)scale(0.1 -0.1)">
       <use xlink:href="#DejaVuSans-49"/>
       <use x="63.623047" xlink:href="#DejaVuSans-46"/>
       <use x="95.410156" xlink:href="#DejaVuSans-51"/>
      </g>
     </g>
    </g>
    <g id="ytick_5">
     <g id="line2d_83">
      <path clip-path="url(#p30d3c4dcde)" d="M 117 287.338857 
L 842.4 287.338857 
" style="fill:none;stroke:#d8dcd6;stroke-dasharray:0.8,1.32;stroke-dashoffset:0;stroke-width:0.8;"/>
     </g>
     <g id="line2d_84">
      <g>
       <use style="stroke:#000000;stroke-width:0.8;" x="117" xlink:href="#m2665d8dfd6" y="287.338857"/>
      </g>
     </g>
     <g id="text_8">
      <!-- 1.4 -->
      <defs>
       <path d="M 37.796875 64.3125 
L 12.890625 25.390625 
L 37.796875 25.390625 
z
M 35.203125 72.90625 
L 47.609375 72.90625 
L 47.609375 25.390625 
L 58.015625 25.390625 
L 58.015625 17.1875 
L 47.609375 17.1875 
L 47.609375 0 
L 37.796875 0 
L 37.796875 17.1875 
L 4.890625 17.1875 
L 4.890625 26.703125 
z
" id="DejaVuSans-52"/>
      </defs>
      <g transform="translate(94.096875 291.138076)scale(0.1 -0.1)">
       <use xlink:href="#DejaVuSans-49"/>
       <use x="63.623047" xlink:href="#DejaVuSans-46"/>
       <use x="95.410156" xlink:href="#DejaVuSans-52"/>
      </g>
     </g>
    </g>
    <g id="ytick_6">
     <g id="line2d_85">
      <path clip-path="url(#p30d3c4dcde)" d="M 117 236.053571 
L 842.4 236.053571 
" style="fill:none;stroke:#d8dcd6;stroke-dasharray:0.8,1.32;stroke-dashoffset:0;stroke-width:0.8;"/>
     </g>
     <g id="line2d_86">
      <g>
       <use style="stroke:#000000;stroke-width:0.8;" x="117" xlink:href="#m2665d8dfd6" y="236.053571"/>
      </g>
     </g>
     <g id="text_9">
      <!-- 1.5 -->
      <defs>
       <path d="M 10.796875 72.90625 
L 49.515625 72.90625 
L 49.515625 64.59375 
L 19.828125 64.59375 
L 19.828125 46.734375 
Q 21.96875 47.46875 24.109375 47.828125 
Q 26.265625 48.1875 28.421875 48.1875 
Q 40.625 48.1875 47.75 41.5 
Q 54.890625 34.8125 54.890625 23.390625 
Q 54.890625 11.625 47.5625 5.09375 
Q 40.234375 -1.421875 26.90625 -1.421875 
Q 22.3125 -1.421875 17.546875 -0.640625 
Q 12.796875 0.140625 7.71875 1.703125 
L 7.71875 11.625 
Q 12.109375 9.234375 16.796875 8.0625 
Q 21.484375 6.890625 26.703125 6.890625 
Q 35.15625 6.890625 40.078125 11.328125 
Q 45.015625 15.765625 45.015625 23.390625 
Q 45.015625 31 40.078125 35.4375 
Q 35.15625 39.890625 26.703125 39.890625 
Q 22.75 39.890625 18.8125 39.015625 
Q 14.890625 38.140625 10.796875 36.28125 
z
" id="DejaVuSans-53"/>
      </defs>
      <g transform="translate(94.096875 239.85279)scale(0.1 -0.1)">
       <use xlink:href="#DejaVuSans-49"/>
       <use x="63.623047" xlink:href="#DejaVuSans-46"/>
       <use x="95.410156" xlink:href="#DejaVuSans-53"/>
      </g>
     </g>
    </g>
    <g id="ytick_7">
     <g id="line2d_87">
      <path clip-path="url(#p30d3c4dcde)" d="M 117 184.768285 
L 842.4 184.768285 
" style="fill:none;stroke:#d8dcd6;stroke-dasharray:0.8,1.32;stroke-dashoffset:0;stroke-width:0.8;"/>
     </g>
     <g id="line2d_88">
      <g>
       <use style="stroke:#000000;stroke-width:0.8;" x="117" xlink:href="#m2665d8dfd6" y="184.768285"/>
      </g>
     </g>
     <g id="text_10">
      <!-- 1.6 -->
      <defs>
       <path d="M 33.015625 40.375 
Q 26.375 40.375 22.484375 35.828125 
Q 18.609375 31.296875 18.609375 23.390625 
Q 18.609375 15.53125 22.484375 10.953125 
Q 26.375 6.390625 33.015625 6.390625 
Q 39.65625 6.390625 43.53125 10.953125 
Q 47.40625 15.53125 47.40625 23.390625 
Q 47.40625 31.296875 43.53125 35.828125 
Q 39.65625 40.375 33.015625 40.375 
z
M 52.59375 71.296875 
L 52.59375 62.3125 
Q 48.875 64.0625 45.09375 64.984375 
Q 41.3125 65.921875 37.59375 65.921875 
Q 27.828125 65.921875 22.671875 59.328125 
Q 17.53125 52.734375 16.796875 39.40625 
Q 19.671875 43.65625 24.015625 45.921875 
Q 28.375 48.1875 33.59375 48.1875 
Q 44.578125 48.1875 50.953125 41.515625 
Q 57.328125 34.859375 57.328125 23.390625 
Q 57.328125 12.15625 50.6875 5.359375 
Q 44.046875 -1.421875 33.015625 -1.421875 
Q 20.359375 -1.421875 13.671875 8.265625 
Q 6.984375 17.96875 6.984375 36.375 
Q 6.984375 53.65625 15.1875 63.9375 
Q 23.390625 74.21875 37.203125 74.21875 
Q 40.921875 74.21875 44.703125 73.484375 
Q 48.484375 72.75 52.59375 71.296875 
z
" id="DejaVuSans-54"/>
      </defs>
      <g transform="translate(94.096875 188.567504)scale(0.1 -0.1)">
       <use xlink:href="#DejaVuSans-49"/>
       <use x="63.623047" xlink:href="#DejaVuSans-46"/>
       <use x="95.410156" xlink:href="#DejaVuSans-54"/>
      </g>
     </g>
    </g>
    <g id="ytick_8">
     <g id="line2d_89">
      <path clip-path="url(#p30d3c4dcde)" d="M 117 133.482999 
L 842.4 133.482999 
" style="fill:none;stroke:#d8dcd6;stroke-dasharray:0.8,1.32;stroke-dashoffset:0;stroke-width:0.8;"/>
     </g>
     <g id="line2d_90">
      <g>
       <use style="stroke:#000000;stroke-width:0.8;" x="117" xlink:href="#m2665d8dfd6" y="133.482999"/>
      </g>
     </g>
     <g id="text_11">
      <!-- 1.7 -->
      <g transform="translate(94.096875 137.282218)scale(0.1 -0.1)">
       <use xlink:href="#DejaVuSans-49"/>
       <use x="63.623047" xlink:href="#DejaVuSans-46"/>
       <use x="95.410156" xlink:href="#DejaVuSans-55"/>
      </g>
     </g>
    </g>
    <g id="ytick_9">
     <g id="line2d_91">
      <path clip-path="url(#p30d3c4dcde)" d="M 117 82.197714 
L 842.4 82.197714 
" style="fill:none;stroke:#d8dcd6;stroke-dasharray:0.8,1.32;stroke-dashoffset:0;stroke-width:0.8;"/>
     </g>
     <g id="line2d_92">
      <g>
       <use style="stroke:#000000;stroke-width:0.8;" x="117" xlink:href="#m2665d8dfd6" y="82.197714"/>
      </g>
     </g>
     <g id="text_12">
      <!-- 1.8 -->
      <defs>
       <path d="M 31.78125 34.625 
Q 24.75 34.625 20.71875 30.859375 
Q 16.703125 27.09375 16.703125 20.515625 
Q 16.703125 13.921875 20.71875 10.15625 
Q 24.75 6.390625 31.78125 6.390625 
Q 38.8125 6.390625 42.859375 10.171875 
Q 46.921875 13.96875 46.921875 20.515625 
Q 46.921875 27.09375 42.890625 30.859375 
Q 38.875 34.625 31.78125 34.625 
z
M 21.921875 38.8125 
Q 15.578125 40.375 12.03125 44.71875 
Q 8.5 49.078125 8.5 55.328125 
Q 8.5 64.0625 14.71875 69.140625 
Q 20.953125 74.21875 31.78125 74.21875 
Q 42.671875 74.21875 48.875 69.140625 
Q 55.078125 64.0625 55.078125 55.328125 
Q 55.078125 49.078125 51.53125 44.71875 
Q 48 40.375 41.703125 38.8125 
Q 48.828125 37.15625 52.796875 32.3125 
Q 56.78125 27.484375 56.78125 20.515625 
Q 56.78125 9.90625 50.3125 4.234375 
Q 43.84375 -1.421875 31.78125 -1.421875 
Q 19.734375 -1.421875 13.25 4.234375 
Q 6.78125 9.90625 6.78125 20.515625 
Q 6.78125 27.484375 10.78125 32.3125 
Q 14.796875 37.15625 21.921875 38.8125 
z
M 18.3125 54.390625 
Q 18.3125 48.734375 21.84375 45.5625 
Q 25.390625 42.390625 31.78125 42.390625 
Q 38.140625 42.390625 41.71875 45.5625 
Q 45.3125 48.734375 45.3125 54.390625 
Q 45.3125 60.0625 41.71875 63.234375 
Q 38.140625 66.40625 31.78125 66.40625 
Q 25.390625 66.40625 21.84375 63.234375 
Q 18.3125 60.0625 18.3125 54.390625 
z
" id="DejaVuSans-56"/>
      </defs>
      <g transform="translate(94.096875 85.996932)scale(0.1 -0.1)">
       <use xlink:href="#DejaVuSans-49"/>
       <use x="63.623047" xlink:href="#DejaVuSans-46"/>
       <use x="95.410156" xlink:href="#DejaVuSans-56"/>
      </g>
     </g>
    </g>
    <g id="ytick_10">
     <g id="line2d_93">
      <path clip-path="url(#p30d3c4dcde)" d="M 117 502.737057 
L 842.4 502.737057 
" style="fill:none;stroke:#d8dcd6;stroke-dasharray:0.8,1.32;stroke-dashoffset:0;stroke-width:0.8;"/>
     </g>
     <g id="line2d_94">
      <defs>
       <path d="M 0 0 
L -2 0 
" id="m2650591bae" style="stroke:#000000;stroke-width:0.6;"/>
      </defs>
      <g>
       <use style="stroke:#000000;stroke-width:0.6;" x="117" xlink:href="#m2650591bae" y="502.737057"/>
      </g>
     </g>
    </g>
    <g id="ytick_11">
     <g id="line2d_95">
      <path clip-path="url(#p30d3c4dcde)" d="M 117 482.222943 
L 842.4 482.222943 
" style="fill:none;stroke:#d8dcd6;stroke-dasharray:0.8,1.32;stroke-dashoffset:0;stroke-width:0.8;"/>
     </g>
     <g id="line2d_96">
      <g>
       <use style="stroke:#000000;stroke-width:0.6;" x="117" xlink:href="#m2650591bae" y="482.222943"/>
      </g>
     </g>
    </g>
    <g id="ytick_12">
     <g id="line2d_97">
      <path clip-path="url(#p30d3c4dcde)" d="M 117 471.965886 
L 842.4 471.965886 
" style="fill:none;stroke:#d8dcd6;stroke-dasharray:0.8,1.32;stroke-dashoffset:0;stroke-width:0.8;"/>
     </g>
     <g id="line2d_98">
      <g>
       <use style="stroke:#000000;stroke-width:0.6;" x="117" xlink:href="#m2650591bae" y="471.965886"/>
      </g>
     </g>
    </g>
    <g id="ytick_13">
     <g id="line2d_99">
      <path clip-path="url(#p30d3c4dcde)" d="M 117 461.708829 
L 842.4 461.708829 
" style="fill:none;stroke:#d8dcd6;stroke-dasharray:0.8,1.32;stroke-dashoffset:0;stroke-width:0.8;"/>
     </g>
     <g id="line2d_100">
      <g>
       <use style="stroke:#000000;stroke-width:0.6;" x="117" xlink:href="#m2650591bae" y="461.708829"/>
      </g>
     </g>
    </g>
    <g id="ytick_14">
     <g id="line2d_101">
      <path clip-path="url(#p30d3c4dcde)" d="M 117 451.451771 
L 842.4 451.451771 
" style="fill:none;stroke:#d8dcd6;stroke-dasharray:0.8,1.32;stroke-dashoffset:0;stroke-width:0.8;"/>
     </g>
     <g id="line2d_102">
      <g>
       <use style="stroke:#000000;stroke-width:0.6;" x="117" xlink:href="#m2650591bae" y="451.451771"/>
      </g>
     </g>
    </g>
    <g id="ytick_15">
     <g id="line2d_103">
      <path clip-path="url(#p30d3c4dcde)" d="M 117 430.937657 
L 842.4 430.937657 
" style="fill:none;stroke:#d8dcd6;stroke-dasharray:0.8,1.32;stroke-dashoffset:0;stroke-width:0.8;"/>
     </g>
     <g id="line2d_104">
      <g>
       <use style="stroke:#000000;stroke-width:0.6;" x="117" xlink:href="#m2650591bae" y="430.937657"/>
      </g>
     </g>
    </g>
    <g id="ytick_16">
     <g id="line2d_105">
      <path clip-path="url(#p30d3c4dcde)" d="M 117 420.6806 
L 842.4 420.6806 
" style="fill:none;stroke:#d8dcd6;stroke-dasharray:0.8,1.32;stroke-dashoffset:0;stroke-width:0.8;"/>
     </g>
     <g id="line2d_106">
      <g>
       <use style="stroke:#000000;stroke-width:0.6;" x="117" xlink:href="#m2650591bae" y="420.6806"/>
      </g>
     </g>
    </g>
    <g id="ytick_17">
     <g id="line2d_107">
      <path clip-path="url(#p30d3c4dcde)" d="M 117 410.423543 
L 842.4 410.423543 
" style="fill:none;stroke:#d8dcd6;stroke-dasharray:0.8,1.32;stroke-dashoffset:0;stroke-width:0.8;"/>
     </g>
     <g id="line2d_108">
      <g>
       <use style="stroke:#000000;stroke-width:0.6;" x="117" xlink:href="#m2650591bae" y="410.423543"/>
      </g>
     </g>
    </g>
    <g id="ytick_18">
     <g id="line2d_109">
      <path clip-path="url(#p30d3c4dcde)" d="M 117 400.166486 
L 842.4 400.166486 
" style="fill:none;stroke:#d8dcd6;stroke-dasharray:0.8,1.32;stroke-dashoffset:0;stroke-width:0.8;"/>
     </g>
     <g id="line2d_110">
      <g>
       <use style="stroke:#000000;stroke-width:0.6;" x="117" xlink:href="#m2650591bae" y="400.166486"/>
      </g>
     </g>
    </g>
    <g id="ytick_19">
     <g id="line2d_111">
      <path clip-path="url(#p30d3c4dcde)" d="M 117 379.652371 
L 842.4 379.652371 
" style="fill:none;stroke:#d8dcd6;stroke-dasharray:0.8,1.32;stroke-dashoffset:0;stroke-width:0.8;"/>
     </g>
     <g id="line2d_112">
      <g>
       <use style="stroke:#000000;stroke-width:0.6;" x="117" xlink:href="#m2650591bae" y="379.652371"/>
      </g>
     </g>
    </g>
    <g id="ytick_20">
     <g id="line2d_113">
      <path clip-path="url(#p30d3c4dcde)" d="M 117 369.395314 
L 842.4 369.395314 
" style="fill:none;stroke:#d8dcd6;stroke-dasharray:0.8,1.32;stroke-dashoffset:0;stroke-width:0.8;"/>
     </g>
     <g id="line2d_114">
      <g>
       <use style="stroke:#000000;stroke-width:0.6;" x="117" xlink:href="#m2650591bae" y="369.395314"/>
      </g>
     </g>
    </g>
    <g id="ytick_21">
     <g id="line2d_115">
      <path clip-path="url(#p30d3c4dcde)" d="M 117 359.138257 
L 842.4 359.138257 
" style="fill:none;stroke:#d8dcd6;stroke-dasharray:0.8,1.32;stroke-dashoffset:0;stroke-width:0.8;"/>
     </g>
     <g id="line2d_116">
      <g>
       <use style="stroke:#000000;stroke-width:0.6;" x="117" xlink:href="#m2650591bae" y="359.138257"/>
      </g>
     </g>
    </g>
    <g id="ytick_22">
     <g id="line2d_117">
      <path clip-path="url(#p30d3c4dcde)" d="M 117 348.8812 
L 842.4 348.8812 
" style="fill:none;stroke:#d8dcd6;stroke-dasharray:0.8,1.32;stroke-dashoffset:0;stroke-width:0.8;"/>
     </g>
     <g id="line2d_118">
      <g>
       <use style="stroke:#000000;stroke-width:0.6;" x="117" xlink:href="#m2650591bae" y="348.8812"/>
      </g>
     </g>
    </g>
    <g id="ytick_23">
     <g id="line2d_119">
      <path clip-path="url(#p30d3c4dcde)" d="M 117 328.367085 
L 842.4 328.367085 
" style="fill:none;stroke:#d8dcd6;stroke-dasharray:0.8,1.32;stroke-dashoffset:0;stroke-width:0.8;"/>
     </g>
     <g id="line2d_120">
      <g>
       <use style="stroke:#000000;stroke-width:0.6;" x="117" xlink:href="#m2650591bae" y="328.367085"/>
      </g>
     </g>
    </g>
    <g id="ytick_24">
     <g id="line2d_121">
      <path clip-path="url(#p30d3c4dcde)" d="M 117 318.110028 
L 842.4 318.110028 
" style="fill:none;stroke:#d8dcd6;stroke-dasharray:0.8,1.32;stroke-dashoffset:0;stroke-width:0.8;"/>
     </g>
     <g id="line2d_122">
      <g>
       <use style="stroke:#000000;stroke-width:0.6;" x="117" xlink:href="#m2650591bae" y="318.110028"/>
      </g>
     </g>
    </g>
    <g id="ytick_25">
     <g id="line2d_123">
      <path clip-path="url(#p30d3c4dcde)" d="M 117 307.852971 
L 842.4 307.852971 
" style="fill:none;stroke:#d8dcd6;stroke-dasharray:0.8,1.32;stroke-dashoffset:0;stroke-width:0.8;"/>
     </g>
     <g id="line2d_124">
      <g>
       <use style="stroke:#000000;stroke-width:0.6;" x="117" xlink:href="#m2650591bae" y="307.852971"/>
      </g>
     </g>
    </g>
    <g id="ytick_26">
     <g id="line2d_125">
      <path clip-path="url(#p30d3c4dcde)" d="M 117 297.595914 
L 842.4 297.595914 
" style="fill:none;stroke:#d8dcd6;stroke-dasharray:0.8,1.32;stroke-dashoffset:0;stroke-width:0.8;"/>
     </g>
     <g id="line2d_126">
      <g>
       <use style="stroke:#000000;stroke-width:0.6;" x="117" xlink:href="#m2650591bae" y="297.595914"/>
      </g>
     </g>
    </g>
    <g id="ytick_27">
     <g id="line2d_127">
      <path clip-path="url(#p30d3c4dcde)" d="M 117 277.0818 
L 842.4 277.0818 
" style="fill:none;stroke:#d8dcd6;stroke-dasharray:0.8,1.32;stroke-dashoffset:0;stroke-width:0.8;"/>
     </g>
     <g id="line2d_128">
      <g>
       <use style="stroke:#000000;stroke-width:0.6;" x="117" xlink:href="#m2650591bae" y="277.0818"/>
      </g>
     </g>
    </g>
    <g id="ytick_28">
     <g id="line2d_129">
      <path clip-path="url(#p30d3c4dcde)" d="M 117 266.824743 
L 842.4 266.824743 
" style="fill:none;stroke:#d8dcd6;stroke-dasharray:0.8,1.32;stroke-dashoffset:0;stroke-width:0.8;"/>
     </g>
     <g id="line2d_130">
      <g>
       <use style="stroke:#000000;stroke-width:0.6;" x="117" xlink:href="#m2650591bae" y="266.824743"/>
      </g>
     </g>
    </g>
    <g id="ytick_29">
     <g id="line2d_131">
      <path clip-path="url(#p30d3c4dcde)" d="M 117 256.567685 
L 842.4 256.567685 
" style="fill:none;stroke:#d8dcd6;stroke-dasharray:0.8,1.32;stroke-dashoffset:0;stroke-width:0.8;"/>
     </g>
     <g id="line2d_132">
      <g>
       <use style="stroke:#000000;stroke-width:0.6;" x="117" xlink:href="#m2650591bae" y="256.567685"/>
      </g>
     </g>
    </g>
    <g id="ytick_30">
     <g id="line2d_133">
      <path clip-path="url(#p30d3c4dcde)" d="M 117 246.310628 
L 842.4 246.310628 
" style="fill:none;stroke:#d8dcd6;stroke-dasharray:0.8,1.32;stroke-dashoffset:0;stroke-width:0.8;"/>
     </g>
     <g id="line2d_134">
      <g>
       <use style="stroke:#000000;stroke-width:0.6;" x="117" xlink:href="#m2650591bae" y="246.310628"/>
      </g>
     </g>
    </g>
    <g id="ytick_31">
     <g id="line2d_135">
      <path clip-path="url(#p30d3c4dcde)" d="M 117 225.796514 
L 842.4 225.796514 
" style="fill:none;stroke:#d8dcd6;stroke-dasharray:0.8,1.32;stroke-dashoffset:0;stroke-width:0.8;"/>
     </g>
     <g id="line2d_136">
      <g>
       <use style="stroke:#000000;stroke-width:0.6;" x="117" xlink:href="#m2650591bae" y="225.796514"/>
      </g>
     </g>
    </g>
    <g id="ytick_32">
     <g id="line2d_137">
      <path clip-path="url(#p30d3c4dcde)" d="M 117 215.539457 
L 842.4 215.539457 
" style="fill:none;stroke:#d8dcd6;stroke-dasharray:0.8,1.32;stroke-dashoffset:0;stroke-width:0.8;"/>
     </g>
     <g id="line2d_138">
      <g>
       <use style="stroke:#000000;stroke-width:0.6;" x="117" xlink:href="#m2650591bae" y="215.539457"/>
      </g>
     </g>
    </g>
    <g id="ytick_33">
     <g id="line2d_139">
      <path clip-path="url(#p30d3c4dcde)" d="M 117 205.2824 
L 842.4 205.2824 
" style="fill:none;stroke:#d8dcd6;stroke-dasharray:0.8,1.32;stroke-dashoffset:0;stroke-width:0.8;"/>
     </g>
     <g id="line2d_140">
      <g>
       <use style="stroke:#000000;stroke-width:0.6;" x="117" xlink:href="#m2650591bae" y="205.2824"/>
      </g>
     </g>
    </g>
    <g id="ytick_34">
     <g id="line2d_141">
      <path clip-path="url(#p30d3c4dcde)" d="M 117 195.025342 
L 842.4 195.025342 
" style="fill:none;stroke:#d8dcd6;stroke-dasharray:0.8,1.32;stroke-dashoffset:0;stroke-width:0.8;"/>
     </g>
     <g id="line2d_142">
      <g>
       <use style="stroke:#000000;stroke-width:0.6;" x="117" xlink:href="#m2650591bae" y="195.025342"/>
      </g>
     </g>
    </g>
    <g id="ytick_35">
     <g id="line2d_143">
      <path clip-path="url(#p30d3c4dcde)" d="M 117 174.511228 
L 842.4 174.511228 
" style="fill:none;stroke:#d8dcd6;stroke-dasharray:0.8,1.32;stroke-dashoffset:0;stroke-width:0.8;"/>
     </g>
     <g id="line2d_144">
      <g>
       <use style="stroke:#000000;stroke-width:0.6;" x="117" xlink:href="#m2650591bae" y="174.511228"/>
      </g>
     </g>
    </g>
    <g id="ytick_36">
     <g id="line2d_145">
      <path clip-path="url(#p30d3c4dcde)" d="M 117 164.254171 
L 842.4 164.254171 
" style="fill:none;stroke:#d8dcd6;stroke-dasharray:0.8,1.32;stroke-dashoffset:0;stroke-width:0.8;"/>
     </g>
     <g id="line2d_146">
      <g>
       <use style="stroke:#000000;stroke-width:0.6;" x="117" xlink:href="#m2650591bae" y="164.254171"/>
      </g>
     </g>
    </g>
    <g id="ytick_37">
     <g id="line2d_147">
      <path clip-path="url(#p30d3c4dcde)" d="M 117 153.997114 
L 842.4 153.997114 
" style="fill:none;stroke:#d8dcd6;stroke-dasharray:0.8,1.32;stroke-dashoffset:0;stroke-width:0.8;"/>
     </g>
     <g id="line2d_148">
      <g>
       <use style="stroke:#000000;stroke-width:0.6;" x="117" xlink:href="#m2650591bae" y="153.997114"/>
      </g>
     </g>
    </g>
    <g id="ytick_38">
     <g id="line2d_149">
      <path clip-path="url(#p30d3c4dcde)" d="M 117 143.740057 
L 842.4 143.740057 
" style="fill:none;stroke:#d8dcd6;stroke-dasharray:0.8,1.32;stroke-dashoffset:0;stroke-width:0.8;"/>
     </g>
     <g id="line2d_150">
      <g>
       <use style="stroke:#000000;stroke-width:0.6;" x="117" xlink:href="#m2650591bae" y="143.740057"/>
      </g>
     </g>
    </g>
    <g id="ytick_39">
     <g id="line2d_151">
      <path clip-path="url(#p30d3c4dcde)" d="M 117 123.225942 
L 842.4 123.225942 
" style="fill:none;stroke:#d8dcd6;stroke-dasharray:0.8,1.32;stroke-dashoffset:0;stroke-width:0.8;"/>
     </g>
     <g id="line2d_152">
      <g>
       <use style="stroke:#000000;stroke-width:0.6;" x="117" xlink:href="#m2650591bae" y="123.225942"/>
      </g>
     </g>
    </g>
    <g id="ytick_40">
     <g id="line2d_153">
      <path clip-path="url(#p30d3c4dcde)" d="M 117 112.968885 
L 842.4 112.968885 
" style="fill:none;stroke:#d8dcd6;stroke-dasharray:0.8,1.32;stroke-dashoffset:0;stroke-width:0.8;"/>
     </g>
     <g id="line2d_154">
      <g>
       <use style="stroke:#000000;stroke-width:0.6;" x="117" xlink:href="#m2650591bae" y="112.968885"/>
      </g>
     </g>
    </g>
    <g id="ytick_41">
     <g id="line2d_155">
      <path clip-path="url(#p30d3c4dcde)" d="M 117 102.711828 
L 842.4 102.711828 
" style="fill:none;stroke:#d8dcd6;stroke-dasharray:0.8,1.32;stroke-dashoffset:0;stroke-width:0.8;"/>
     </g>
     <g id="line2d_156">
      <g>
       <use style="stroke:#000000;stroke-width:0.6;" x="117" xlink:href="#m2650591bae" y="102.711828"/>
      </g>
     </g>
    </g>
    <g id="ytick_42">
     <g id="line2d_157">
      <path clip-path="url(#p30d3c4dcde)" d="M 117 92.454771 
L 842.4 92.454771 
" style="fill:none;stroke:#d8dcd6;stroke-dasharray:0.8,1.32;stroke-dashoffset:0;stroke-width:0.8;"/>
     </g>
     <g id="line2d_158">
      <g>
       <use style="stroke:#000000;stroke-width:0.6;" x="117" xlink:href="#m2650591bae" y="92.454771"/>
      </g>
     </g>
    </g>
    <g id="ytick_43">
     <g id="line2d_159">
      <path clip-path="url(#p30d3c4dcde)" d="M 117 71.940657 
L 842.4 71.940657 
" style="fill:none;stroke:#d8dcd6;stroke-dasharray:0.8,1.32;stroke-dashoffset:0;stroke-width:0.8;"/>
     </g>
     <g id="line2d_160">
      <g>
       <use style="stroke:#000000;stroke-width:0.6;" x="117" xlink:href="#m2650591bae" y="71.940657"/>
      </g>
     </g>
    </g>
    <g id="text_13">
     <!-- (backw avg) growth factor per day -->
     <defs>
      <path d="M 31 75.875 
Q 24.46875 64.65625 21.28125 53.65625 
Q 18.109375 42.671875 18.109375 31.390625 
Q 18.109375 20.125 21.3125 9.0625 
Q 24.515625 -2 31 -13.1875 
L 23.1875 -13.1875 
Q 15.875 -1.703125 12.234375 9.375 
Q 8.59375 20.453125 8.59375 31.390625 
Q 8.59375 42.28125 12.203125 53.3125 
Q 15.828125 64.359375 23.1875 75.875 
z
" id="DejaVuSans-40"/>
      <path d="M 48.6875 27.296875 
Q 48.6875 37.203125 44.609375 42.84375 
Q 40.53125 48.484375 33.40625 48.484375 
Q 26.265625 48.484375 22.1875 42.84375 
Q 18.109375 37.203125 18.109375 27.296875 
Q 18.109375 17.390625 22.1875 11.75 
Q 26.265625 6.109375 33.40625 6.109375 
Q 40.53125 6.109375 44.609375 11.75 
Q 48.6875 17.390625 48.6875 27.296875 
z
M 18.109375 46.390625 
Q 20.953125 51.265625 25.265625 53.625 
Q 29.59375 56 35.59375 56 
Q 45.5625 56 51.78125 48.09375 
Q 58.015625 40.1875 58.015625 27.296875 
Q 58.015625 14.40625 51.78125 6.484375 
Q 45.5625 -1.421875 35.59375 -1.421875 
Q 29.59375 -1.421875 25.265625 0.953125 
Q 20.953125 3.328125 18.109375 8.203125 
L 18.109375 0 
L 9.078125 0 
L 9.078125 75.984375 
L 18.109375 75.984375 
z
" id="DejaVuSans-98"/>
      <path d="M 34.28125 27.484375 
Q 23.390625 27.484375 19.1875 25 
Q 14.984375 22.515625 14.984375 16.5 
Q 14.984375 11.71875 18.140625 8.90625 
Q 21.296875 6.109375 26.703125 6.109375 
Q 34.1875 6.109375 38.703125 11.40625 
Q 43.21875 16.703125 43.21875 25.484375 
L 43.21875 27.484375 
z
M 52.203125 31.203125 
L 52.203125 0 
L 43.21875 0 
L 43.21875 8.296875 
Q 40.140625 3.328125 35.546875 0.953125 
Q 30.953125 -1.421875 24.3125 -1.421875 
Q 15.921875 -1.421875 10.953125 3.296875 
Q 6 8.015625 6 15.921875 
Q 6 25.140625 12.171875 29.828125 
Q 18.359375 34.515625 30.609375 34.515625 
L 43.21875 34.515625 
L 43.21875 35.40625 
Q 43.21875 41.609375 39.140625 45 
Q 35.0625 48.390625 27.6875 48.390625 
Q 23 48.390625 18.546875 47.265625 
Q 14.109375 46.140625 10.015625 43.890625 
L 10.015625 52.203125 
Q 14.9375 54.109375 19.578125 55.046875 
Q 24.21875 56 28.609375 56 
Q 40.484375 56 46.34375 49.84375 
Q 52.203125 43.703125 52.203125 31.203125 
z
" id="DejaVuSans-97"/>
      <path d="M 48.78125 52.59375 
L 48.78125 44.1875 
Q 44.96875 46.296875 41.140625 47.34375 
Q 37.3125 48.390625 33.40625 48.390625 
Q 24.65625 48.390625 19.8125 42.84375 
Q 14.984375 37.3125 14.984375 27.296875 
Q 14.984375 17.28125 19.8125 11.734375 
Q 24.65625 6.203125 33.40625 6.203125 
Q 37.3125 6.203125 41.140625 7.25 
Q 44.96875 8.296875 48.78125 10.40625 
L 48.78125 2.09375 
Q 45.015625 0.34375 40.984375 -0.53125 
Q 36.96875 -1.421875 32.421875 -1.421875 
Q 20.0625 -1.421875 12.78125 6.34375 
Q 5.515625 14.109375 5.515625 27.296875 
Q 5.515625 40.671875 12.859375 48.328125 
Q 20.21875 56 33.015625 56 
Q 37.15625 56 41.109375 55.140625 
Q 45.0625 54.296875 48.78125 52.59375 
z
" id="DejaVuSans-99"/>
      <path d="M 9.078125 75.984375 
L 18.109375 75.984375 
L 18.109375 31.109375 
L 44.921875 54.6875 
L 56.390625 54.6875 
L 27.390625 29.109375 
L 57.625 0 
L 45.90625 0 
L 18.109375 26.703125 
L 18.109375 0 
L 9.078125 0 
z
" id="DejaVuSans-107"/>
      <path d="M 4.203125 54.6875 
L 13.1875 54.6875 
L 24.421875 12.015625 
L 35.59375 54.6875 
L 46.1875 54.6875 
L 57.421875 12.015625 
L 68.609375 54.6875 
L 77.59375 54.6875 
L 63.28125 0 
L 52.6875 0 
L 40.921875 44.828125 
L 29.109375 0 
L 18.5 0 
z
" id="DejaVuSans-119"/>
      <path id="DejaVuSans-32"/>
      <path d="M 2.984375 54.6875 
L 12.5 54.6875 
L 29.59375 8.796875 
L 46.6875 54.6875 
L 56.203125 54.6875 
L 35.6875 0 
L 23.484375 0 
z
" id="DejaVuSans-118"/>
      <path d="M 45.40625 27.984375 
Q 45.40625 37.75 41.375 43.109375 
Q 37.359375 48.484375 30.078125 48.484375 
Q 22.859375 48.484375 18.828125 43.109375 
Q 14.796875 37.75 14.796875 27.984375 
Q 14.796875 18.265625 18.828125 12.890625 
Q 22.859375 7.515625 30.078125 7.515625 
Q 37.359375 7.515625 41.375 12.890625 
Q 45.40625 18.265625 45.40625 27.984375 
z
M 54.390625 6.78125 
Q 54.390625 -7.171875 48.1875 -13.984375 
Q 42 -20.796875 29.203125 -20.796875 
Q 24.46875 -20.796875 20.265625 -20.09375 
Q 16.0625 -19.390625 12.109375 -17.921875 
L 12.109375 -9.1875 
Q 16.0625 -11.328125 19.921875 -12.34375 
Q 23.78125 -13.375 27.78125 -13.375 
Q 36.625 -13.375 41.015625 -8.765625 
Q 45.40625 -4.15625 45.40625 5.171875 
L 45.40625 9.625 
Q 42.625 4.78125 38.28125 2.390625 
Q 33.9375 0 27.875 0 
Q 17.828125 0 11.671875 7.65625 
Q 5.515625 15.328125 5.515625 27.984375 
Q 5.515625 40.671875 11.671875 48.328125 
Q 17.828125 56 27.875 56 
Q 33.9375 56 38.28125 53.609375 
Q 42.625 51.21875 45.40625 46.390625 
L 45.40625 54.6875 
L 54.390625 54.6875 
z
" id="DejaVuSans-103"/>
      <path d="M 8.015625 75.875 
L 15.828125 75.875 
Q 23.140625 64.359375 26.78125 53.3125 
Q 30.421875 42.28125 30.421875 31.390625 
Q 30.421875 20.453125 26.78125 9.375 
Q 23.140625 -1.703125 15.828125 -13.1875 
L 8.015625 -13.1875 
Q 14.5 -2 17.703125 9.0625 
Q 20.90625 20.125 20.90625 31.390625 
Q 20.90625 42.671875 17.703125 53.65625 
Q 14.5 64.65625 8.015625 75.875 
z
" id="DejaVuSans-41"/>
      <path d="M 41.109375 46.296875 
Q 39.59375 47.171875 37.8125 47.578125 
Q 36.03125 48 33.890625 48 
Q 26.265625 48 22.1875 43.046875 
Q 18.109375 38.09375 18.109375 28.8125 
L 18.109375 0 
L 9.078125 0 
L 9.078125 54.6875 
L 18.109375 54.6875 
L 18.109375 46.1875 
Q 20.953125 51.171875 25.484375 53.578125 
Q 30.03125 56 36.53125 56 
Q 37.453125 56 38.578125 55.875 
Q 39.703125 55.765625 41.0625 55.515625 
z
" id="DejaVuSans-114"/>
      <path d="M 30.609375 48.390625 
Q 23.390625 48.390625 19.1875 42.75 
Q 14.984375 37.109375 14.984375 27.296875 
Q 14.984375 17.484375 19.15625 11.84375 
Q 23.34375 6.203125 30.609375 6.203125 
Q 37.796875 6.203125 41.984375 11.859375 
Q 46.1875 17.53125 46.1875 27.296875 
Q 46.1875 37.015625 41.984375 42.703125 
Q 37.796875 48.390625 30.609375 48.390625 
z
M 30.609375 56 
Q 42.328125 56 49.015625 48.375 
Q 55.71875 40.765625 55.71875 27.296875 
Q 55.71875 13.875 49.015625 6.21875 
Q 42.328125 -1.421875 30.609375 -1.421875 
Q 18.84375 -1.421875 12.171875 6.21875 
Q 5.515625 13.875 5.515625 27.296875 
Q 5.515625 40.765625 12.171875 48.375 
Q 18.84375 56 30.609375 56 
z
" id="DejaVuSans-111"/>
      <path d="M 18.3125 70.21875 
L 18.3125 54.6875 
L 36.8125 54.6875 
L 36.8125 47.703125 
L 18.3125 47.703125 
L 18.3125 18.015625 
Q 18.3125 11.328125 20.140625 9.421875 
Q 21.96875 7.515625 27.59375 7.515625 
L 36.8125 7.515625 
L 36.8125 0 
L 27.59375 0 
Q 17.1875 0 13.234375 3.875 
Q 9.28125 7.765625 9.28125 18.015625 
L 9.28125 47.703125 
L 2.6875 47.703125 
L 2.6875 54.6875 
L 9.28125 54.6875 
L 9.28125 70.21875 
z
" id="DejaVuSans-116"/>
      <path d="M 54.890625 33.015625 
L 54.890625 0 
L 45.90625 0 
L 45.90625 32.71875 
Q 45.90625 40.484375 42.875 44.328125 
Q 39.84375 48.1875 33.796875 48.1875 
Q 26.515625 48.1875 22.3125 43.546875 
Q 18.109375 38.921875 18.109375 30.90625 
L 18.109375 0 
L 9.078125 0 
L 9.078125 75.984375 
L 18.109375 75.984375 
L 18.109375 46.1875 
Q 21.34375 51.125 25.703125 53.5625 
Q 30.078125 56 35.796875 56 
Q 45.21875 56 50.046875 50.171875 
Q 54.890625 44.34375 54.890625 33.015625 
z
" id="DejaVuSans-104"/>
      <path d="M 37.109375 75.984375 
L 37.109375 68.5 
L 28.515625 68.5 
Q 23.6875 68.5 21.796875 66.546875 
Q 19.921875 64.59375 19.921875 59.515625 
L 19.921875 54.6875 
L 34.71875 54.6875 
L 34.71875 47.703125 
L 19.921875 47.703125 
L 19.921875 0 
L 10.890625 0 
L 10.890625 47.703125 
L 2.296875 47.703125 
L 2.296875 54.6875 
L 10.890625 54.6875 
L 10.890625 58.5 
Q 10.890625 67.625 15.140625 71.796875 
Q 19.390625 75.984375 28.609375 75.984375 
z
" id="DejaVuSans-102"/>
      <path d="M 18.109375 8.203125 
L 18.109375 -20.796875 
L 9.078125 -20.796875 
L 9.078125 54.6875 
L 18.109375 54.6875 
L 18.109375 46.390625 
Q 20.953125 51.265625 25.265625 53.625 
Q 29.59375 56 35.59375 56 
Q 45.5625 56 51.78125 48.09375 
Q 58.015625 40.1875 58.015625 27.296875 
Q 58.015625 14.40625 51.78125 6.484375 
Q 45.5625 -1.421875 35.59375 -1.421875 
Q 29.59375 -1.421875 25.265625 0.953125 
Q 20.953125 3.328125 18.109375 8.203125 
z
M 48.6875 27.296875 
Q 48.6875 37.203125 44.609375 42.84375 
Q 40.53125 48.484375 33.40625 48.484375 
Q 26.265625 48.484375 22.1875 42.84375 
Q 18.109375 37.203125 18.109375 27.296875 
Q 18.109375 17.390625 22.1875 11.75 
Q 26.265625 6.109375 33.40625 6.109375 
Q 40.53125 6.109375 44.609375 11.75 
Q 48.6875 17.390625 48.6875 27.296875 
z
" id="DejaVuSans-112"/>
      <path d="M 56.203125 29.59375 
L 56.203125 25.203125 
L 14.890625 25.203125 
Q 15.484375 15.921875 20.484375 11.0625 
Q 25.484375 6.203125 34.421875 6.203125 
Q 39.59375 6.203125 44.453125 7.46875 
Q 49.3125 8.734375 54.109375 11.28125 
L 54.109375 2.78125 
Q 49.265625 0.734375 44.1875 -0.34375 
Q 39.109375 -1.421875 33.890625 -1.421875 
Q 20.796875 -1.421875 13.15625 6.1875 
Q 5.515625 13.8125 5.515625 26.8125 
Q 5.515625 40.234375 12.765625 48.109375 
Q 20.015625 56 32.328125 56 
Q 43.359375 56 49.78125 48.890625 
Q 56.203125 41.796875 56.203125 29.59375 
z
M 47.21875 32.234375 
Q 47.125 39.59375 43.09375 43.984375 
Q 39.0625 48.390625 32.421875 48.390625 
Q 24.90625 48.390625 20.390625 44.140625 
Q 15.875 39.890625 15.1875 32.171875 
z
" id="DejaVuSans-101"/>
      <path d="M 45.40625 46.390625 
L 45.40625 75.984375 
L 54.390625 75.984375 
L 54.390625 0 
L 45.40625 0 
L 45.40625 8.203125 
Q 42.578125 3.328125 38.25 0.953125 
Q 33.9375 -1.421875 27.875 -1.421875 
Q 17.96875 -1.421875 11.734375 6.484375 
Q 5.515625 14.40625 5.515625 27.296875 
Q 5.515625 40.1875 11.734375 48.09375 
Q 17.96875 56 27.875 56 
Q 33.9375 56 38.25 53.625 
Q 42.578125 51.265625 45.40625 46.390625 
z
M 14.796875 27.296875 
Q 14.796875 17.390625 18.875 11.75 
Q 22.953125 6.109375 30.078125 6.109375 
Q 37.203125 6.109375 41.296875 11.75 
Q 45.40625 17.390625 45.40625 27.296875 
Q 45.40625 37.203125 41.296875 42.84375 
Q 37.203125 48.484375 30.078125 48.484375 
Q 22.953125 48.484375 18.875 42.84375 
Q 14.796875 37.203125 14.796875 27.296875 
z
" id="DejaVuSans-100"/>
      <path d="M 32.171875 -5.078125 
Q 28.375 -14.84375 24.75 -17.8125 
Q 21.140625 -20.796875 15.09375 -20.796875 
L 7.90625 -20.796875 
L 7.90625 -13.28125 
L 13.1875 -13.28125 
Q 16.890625 -13.28125 18.9375 -11.515625 
Q 21 -9.765625 23.484375 -3.21875 
L 25.09375 0.875 
L 2.984375 54.6875 
L 12.5 54.6875 
L 29.59375 11.921875 
L 46.6875 54.6875 
L 56.203125 54.6875 
z
" id="DejaVuSans-121"/>
     </defs>
     <g transform="translate(88.017187 377.443281)rotate(-90)scale(0.1 -0.1)">
      <use xlink:href="#DejaVuSans-40"/>
      <use x="39.013672" xlink:href="#DejaVuSans-98"/>
      <use x="102.490234" xlink:href="#DejaVuSans-97"/>
      <use x="163.769531" xlink:href="#DejaVuSans-99"/>
      <use x="218.75" xlink:href="#DejaVuSans-107"/>
      <use x="276.660156" xlink:href="#DejaVuSans-119"/>
      <use x="358.447266" xlink:href="#DejaVuSans-32"/>
      <use x="390.234375" xlink:href="#DejaVuSans-97"/>
      <use x="451.513672" xlink:href="#DejaVuSans-118"/>
      <use x="510.693359" xlink:href="#DejaVuSans-103"/>
      <use x="574.169922" xlink:href="#DejaVuSans-41"/>
      <use x="613.183594" xlink:href="#DejaVuSans-32"/>
      <use x="644.970703" xlink:href="#DejaVuSans-103"/>
      <use x="708.447266" xlink:href="#DejaVuSans-114"/>
      <use x="747.310547" xlink:href="#DejaVuSans-111"/>
      <use x="808.492188" xlink:href="#DejaVuSans-119"/>
      <use x="890.279297" xlink:href="#DejaVuSans-116"/>
      <use x="929.488281" xlink:href="#DejaVuSans-104"/>
      <use x="992.867188" xlink:href="#DejaVuSans-32"/>
      <use x="1024.654297" xlink:href="#DejaVuSans-102"/>
      <use x="1059.859375" xlink:href="#DejaVuSans-97"/>
      <use x="1121.138672" xlink:href="#DejaVuSans-99"/>
      <use x="1176.119141" xlink:href="#DejaVuSans-116"/>
      <use x="1215.328125" xlink:href="#DejaVuSans-111"/>
      <use x="1276.509766" xlink:href="#DejaVuSans-114"/>
      <use x="1317.623047" xlink:href="#DejaVuSans-32"/>
      <use x="1349.410156" xlink:href="#DejaVuSans-112"/>
      <use x="1412.886719" xlink:href="#DejaVuSans-101"/>
      <use x="1474.410156" xlink:href="#DejaVuSans-114"/>
      <use x="1515.523438" xlink:href="#DejaVuSans-32"/>
      <use x="1547.310547" xlink:href="#DejaVuSans-100"/>
      <use x="1610.787109" xlink:href="#DejaVuSans-97"/>
      <use x="1672.066406" xlink:href="#DejaVuSans-121"/>
     </g>
    </g>
   </g>
   <g id="line2d_161">
    <path clip-path="url(#p30d3c4dcde)" d="M 149.972727 492.48 
L 188.764171 413.141387 
L 227.555615 413.141387 
L 266.347059 431.945932 
L 305.138503 194.44129 
L 343.929947 147.165887 
L 382.72139 262.13846 
L 421.512834 171.594804 
L 460.304278 89.28 
L 499.095722 275.165272 
L 537.887166 417.57734 
L 576.67861 351.235999 
L 615.470053 275.940103 
L 654.261497 316.642179 
L 693.052941 351.853761 
L 731.844385 355.69879 
L 770.635829 379.03274 
L 809.427273 387.08288 
" style="fill:none;stroke:#1f77b4;stroke-linecap:square;stroke-width:1.5;"/>
    <defs>
     <path d="M 0 3 
C 0.795609 3 1.55874 2.683901 2.12132 2.12132 
C 2.683901 1.55874 3 0.795609 3 0 
C 3 -0.795609 2.683901 -1.55874 2.12132 -2.12132 
C 1.55874 -2.683901 0.795609 -3 0 -3 
C -0.795609 -3 -1.55874 -2.683901 -2.12132 -2.12132 
C -2.683901 -1.55874 -3 -0.795609 -3 0 
C -3 0.795609 -2.683901 1.55874 -2.12132 2.12132 
C -1.55874 2.683901 -0.795609 3 0 3 
z
" id="m02da0cf70d" style="stroke:#1f77b4;"/>
    </defs>
    <g clip-path="url(#p30d3c4dcde)">
     <use style="fill:#1f77b4;stroke:#1f77b4;" x="149.972727" xlink:href="#m02da0cf70d" y="492.48"/>
     <use style="fill:#1f77b4;stroke:#1f77b4;" x="188.764171" xlink:href="#m02da0cf70d" y="413.141387"/>
     <use style="fill:#1f77b4;stroke:#1f77b4;" x="227.555615" xlink:href="#m02da0cf70d" y="413.141387"/>
     <use style="fill:#1f77b4;stroke:#1f77b4;" x="266.347059" xlink:href="#m02da0cf70d" y="431.945932"/>
     <use style="fill:#1f77b4;stroke:#1f77b4;" x="305.138503" xlink:href="#m02da0cf70d" y="194.44129"/>
     <use style="fill:#1f77b4;stroke:#1f77b4;" x="343.929947" xlink:href="#m02da0cf70d" y="147.165887"/>
     <use style="fill:#1f77b4;stroke:#1f77b4;" x="382.72139" xlink:href="#m02da0cf70d" y="262.13846"/>
     <use style="fill:#1f77b4;stroke:#1f77b4;" x="421.512834" xlink:href="#m02da0cf70d" y="171.594804"/>
     <use style="fill:#1f77b4;stroke:#1f77b4;" x="460.304278" xlink:href="#m02da0cf70d" y="89.28"/>
     <use style="fill:#1f77b4;stroke:#1f77b4;" x="499.095722" xlink:href="#m02da0cf70d" y="275.165272"/>
     <use style="fill:#1f77b4;stroke:#1f77b4;" x="537.887166" xlink:href="#m02da0cf70d" y="417.57734"/>
     <use style="fill:#1f77b4;stroke:#1f77b4;" x="576.67861" xlink:href="#m02da0cf70d" y="351.235999"/>
     <use style="fill:#1f77b4;stroke:#1f77b4;" x="615.470053" xlink:href="#m02da0cf70d" y="275.940103"/>
     <use style="fill:#1f77b4;stroke:#1f77b4;" x="654.261497" xlink:href="#m02da0cf70d" y="316.642179"/>
     <use style="fill:#1f77b4;stroke:#1f77b4;" x="693.052941" xlink:href="#m02da0cf70d" y="351.853761"/>
     <use style="fill:#1f77b4;stroke:#1f77b4;" x="731.844385" xlink:href="#m02da0cf70d" y="355.69879"/>
     <use style="fill:#1f77b4;stroke:#1f77b4;" x="770.635829" xlink:href="#m02da0cf70d" y="379.03274"/>
     <use style="fill:#1f77b4;stroke:#1f77b4;" x="809.427273" xlink:href="#m02da0cf70d" y="387.08288"/>
    </g>
   </g>
   <g id="line2d_162">
    <path clip-path="url(#p30d3c4dcde)" d="M 227.555615 454.236597 
L 266.347059 422.619509 
L 305.138503 312.365997 
L 343.929947 303.861745 
L 382.72139 229.02746 
L 421.512834 159.46853 
L 460.304278 180.223561 
L 499.095722 225.096674 
L 537.887166 271.565101 
L 576.67861 314.246521 
L 615.470053 350.577471 
L 654.261497 334.161933 
L 693.052941 314.939551 
L 731.844385 336.455494 
L 770.635829 365.587568 
L 809.427273 371.585078 
" style="fill:none;stroke:#ff7f0e;stroke-linecap:square;stroke-width:1.5;"/>
    <defs>
     <path d="M 0 3 
C 0.795609 3 1.55874 2.683901 2.12132 2.12132 
C 2.683901 1.55874 3 0.795609 3 0 
C 3 -0.795609 2.683901 -1.55874 2.12132 -2.12132 
C 1.55874 -2.683901 0.795609 -3 0 -3 
C -0.795609 -3 -1.55874 -2.683901 -2.12132 -2.12132 
C -2.683901 -1.55874 -3 -0.795609 -3 0 
C -3 0.795609 -2.683901 1.55874 -2.12132 2.12132 
C -1.55874 2.683901 -0.795609 3 0 3 
z
" id="me8cb1cee2d" style="stroke:#ff7f0e;"/>
    </defs>
    <g clip-path="url(#p30d3c4dcde)">
     <use style="fill:#ff7f0e;stroke:#ff7f0e;" x="227.555615" xlink:href="#me8cb1cee2d" y="454.236597"/>
     <use style="fill:#ff7f0e;stroke:#ff7f0e;" x="266.347059" xlink:href="#me8cb1cee2d" y="422.619509"/>
     <use style="fill:#ff7f0e;stroke:#ff7f0e;" x="305.138503" xlink:href="#me8cb1cee2d" y="312.365997"/>
     <use style="fill:#ff7f0e;stroke:#ff7f0e;" x="343.929947" xlink:href="#me8cb1cee2d" y="303.861745"/>
     <use style="fill:#ff7f0e;stroke:#ff7f0e;" x="382.72139" xlink:href="#me8cb1cee2d" y="229.02746"/>
     <use style="fill:#ff7f0e;stroke:#ff7f0e;" x="421.512834" xlink:href="#me8cb1cee2d" y="159.46853"/>
     <use style="fill:#ff7f0e;stroke:#ff7f0e;" x="460.304278" xlink:href="#me8cb1cee2d" y="180.223561"/>
     <use style="fill:#ff7f0e;stroke:#ff7f0e;" x="499.095722" xlink:href="#me8cb1cee2d" y="225.096674"/>
     <use style="fill:#ff7f0e;stroke:#ff7f0e;" x="537.887166" xlink:href="#me8cb1cee2d" y="271.565101"/>
     <use style="fill:#ff7f0e;stroke:#ff7f0e;" x="576.67861" xlink:href="#me8cb1cee2d" y="314.246521"/>
     <use style="fill:#ff7f0e;stroke:#ff7f0e;" x="615.470053" xlink:href="#me8cb1cee2d" y="350.577471"/>
     <use style="fill:#ff7f0e;stroke:#ff7f0e;" x="654.261497" xlink:href="#me8cb1cee2d" y="334.161933"/>
     <use style="fill:#ff7f0e;stroke:#ff7f0e;" x="693.052941" xlink:href="#me8cb1cee2d" y="314.939551"/>
     <use style="fill:#ff7f0e;stroke:#ff7f0e;" x="731.844385" xlink:href="#me8cb1cee2d" y="336.455494"/>
     <use style="fill:#ff7f0e;stroke:#ff7f0e;" x="770.635829" xlink:href="#me8cb1cee2d" y="365.587568"/>
     <use style="fill:#ff7f0e;stroke:#ff7f0e;" x="809.427273" xlink:href="#me8cb1cee2d" y="371.585078"/>
    </g>
   </g>
   <g id="line2d_163">
    <path clip-path="url(#p30d3c4dcde)" d="M 343.929947 366.238215 
L 382.72139 328.12643 
L 421.512834 271.053333 
L 460.304278 238.232759 
L 499.095722 225.771857 
L 537.887166 232.78897 
L 576.67861 272.192645 
L 615.470053 267.855357 
L 654.261497 287.974569 
L 693.052941 317.440005 
L 731.844385 355.064284 
L 770.635829 346.946564 
L 809.427273 345.598405 
" style="fill:none;stroke:#2ca02c;stroke-linecap:square;stroke-width:1.5;"/>
    <defs>
     <path d="M 0 3 
C 0.795609 3 1.55874 2.683901 2.12132 2.12132 
C 2.683901 1.55874 3 0.795609 3 0 
C 3 -0.795609 2.683901 -1.55874 2.12132 -2.12132 
C 1.55874 -2.683901 0.795609 -3 0 -3 
C -0.795609 -3 -1.55874 -2.683901 -2.12132 -2.12132 
C -2.683901 -1.55874 -3 -0.795609 -3 0 
C -3 0.795609 -2.683901 1.55874 -2.12132 2.12132 
C -1.55874 2.683901 -0.795609 3 0 3 
z
" id="m0846f7d94e" style="stroke:#2ca02c;"/>
    </defs>
    <g clip-path="url(#p30d3c4dcde)">
     <use style="fill:#2ca02c;stroke:#2ca02c;" x="343.929947" xlink:href="#m0846f7d94e" y="366.238215"/>
     <use style="fill:#2ca02c;stroke:#2ca02c;" x="382.72139" xlink:href="#m0846f7d94e" y="328.12643"/>
     <use style="fill:#2ca02c;stroke:#2ca02c;" x="421.512834" xlink:href="#m0846f7d94e" y="271.053333"/>
     <use style="fill:#2ca02c;stroke:#2ca02c;" x="460.304278" xlink:href="#m0846f7d94e" y="238.232759"/>
     <use style="fill:#2ca02c;stroke:#2ca02c;" x="499.095722" xlink:href="#m0846f7d94e" y="225.771857"/>
     <use style="fill:#2ca02c;stroke:#2ca02c;" x="537.887166" xlink:href="#m0846f7d94e" y="232.78897"/>
     <use style="fill:#2ca02c;stroke:#2ca02c;" x="576.67861" xlink:href="#m0846f7d94e" y="272.192645"/>
     <use style="fill:#2ca02c;stroke:#2ca02c;" x="615.470053" xlink:href="#m0846f7d94e" y="267.855357"/>
     <use style="fill:#2ca02c;stroke:#2ca02c;" x="654.261497" xlink:href="#m0846f7d94e" y="287.974569"/>
     <use style="fill:#2ca02c;stroke:#2ca02c;" x="693.052941" xlink:href="#m0846f7d94e" y="317.440005"/>
     <use style="fill:#2ca02c;stroke:#2ca02c;" x="731.844385" xlink:href="#m0846f7d94e" y="355.064284"/>
     <use style="fill:#2ca02c;stroke:#2ca02c;" x="770.635829" xlink:href="#m0846f7d94e" y="346.946564"/>
     <use style="fill:#2ca02c;stroke:#2ca02c;" x="809.427273" xlink:href="#m0846f7d94e" y="345.598405"/>
    </g>
   </g>
   <g id="line2d_164">
    <path clip-path="url(#p30d3c4dcde)" d="M 615.470053 318.806879 
L 654.261497 308.33957 
L 693.052941 294.625016 
L 731.844385 299.060186 
L 770.635829 288.916584 
L 809.427273 291.418424 
" style="fill:none;stroke:#d62728;stroke-linecap:square;stroke-width:1.5;"/>
    <defs>
     <path d="M 0 3 
C 0.795609 3 1.55874 2.683901 2.12132 2.12132 
C 2.683901 1.55874 3 0.795609 3 0 
C 3 -0.795609 2.683901 -1.55874 2.12132 -2.12132 
C 1.55874 -2.683901 0.795609 -3 0 -3 
C -0.795609 -3 -1.55874 -2.683901 -2.12132 -2.12132 
C -2.683901 -1.55874 -3 -0.795609 -3 0 
C -3 0.795609 -2.683901 1.55874 -2.12132 2.12132 
C -1.55874 2.683901 -0.795609 3 0 3 
z
" id="m4b24b6650e" style="stroke:#d62728;"/>
    </defs>
    <g clip-path="url(#p30d3c4dcde)">
     <use style="fill:#d62728;stroke:#d62728;" x="615.470053" xlink:href="#m4b24b6650e" y="318.806879"/>
     <use style="fill:#d62728;stroke:#d62728;" x="654.261497" xlink:href="#m4b24b6650e" y="308.33957"/>
     <use style="fill:#d62728;stroke:#d62728;" x="693.052941" xlink:href="#m4b24b6650e" y="294.625016"/>
     <use style="fill:#d62728;stroke:#d62728;" x="731.844385" xlink:href="#m4b24b6650e" y="299.060186"/>
     <use style="fill:#d62728;stroke:#d62728;" x="770.635829" xlink:href="#m4b24b6650e" y="288.916584"/>
     <use style="fill:#d62728;stroke:#d62728;" x="809.427273" xlink:href="#m4b24b6650e" y="291.418424"/>
    </g>
   </g>
   <g id="patch_3">
    <path d="M 117 512.64 
L 117 69.12 
" style="fill:none;stroke:#000000;stroke-linecap:square;stroke-linejoin:miter;stroke-width:0.8;"/>
   </g>
   <g id="patch_4">
    <path d="M 842.4 512.64 
L 842.4 69.12 
" style="fill:none;stroke:#000000;stroke-linecap:square;stroke-linejoin:miter;stroke-width:0.8;"/>
   </g>
   <g id="patch_5">
    <path d="M 117 512.64 
L 842.4 512.64 
" style="fill:none;stroke:#000000;stroke-linecap:square;stroke-linejoin:miter;stroke-width:0.8;"/>
   </g>
   <g id="patch_6">
    <path d="M 117 69.12 
L 842.4 69.12 
" style="fill:none;stroke:#000000;stroke-linecap:square;stroke-linejoin:miter;stroke-width:0.8;"/>
   </g>
   <g id="text_14">
    <!-- Fatalities, daily growth rate in Belgium (2020-01-22..2020-03-30) -->
    <defs>
     <path d="M 9.8125 72.90625 
L 51.703125 72.90625 
L 51.703125 64.59375 
L 19.671875 64.59375 
L 19.671875 43.109375 
L 48.578125 43.109375 
L 48.578125 34.8125 
L 19.671875 34.8125 
L 19.671875 0 
L 9.8125 0 
z
" id="DejaVuSans-70"/>
     <path d="M 9.421875 75.984375 
L 18.40625 75.984375 
L 18.40625 0 
L 9.421875 0 
z
" id="DejaVuSans-108"/>
     <path d="M 9.421875 54.6875 
L 18.40625 54.6875 
L 18.40625 0 
L 9.421875 0 
z
M 9.421875 75.984375 
L 18.40625 75.984375 
L 18.40625 64.59375 
L 9.421875 64.59375 
z
" id="DejaVuSans-105"/>
     <path d="M 44.28125 53.078125 
L 44.28125 44.578125 
Q 40.484375 46.53125 36.375 47.5 
Q 32.28125 48.484375 27.875 48.484375 
Q 21.1875 48.484375 17.84375 46.4375 
Q 14.5 44.390625 14.5 40.28125 
Q 14.5 37.15625 16.890625 35.375 
Q 19.28125 33.59375 26.515625 31.984375 
L 29.59375 31.296875 
Q 39.15625 29.25 43.1875 25.515625 
Q 47.21875 21.78125 47.21875 15.09375 
Q 47.21875 7.46875 41.1875 3.015625 
Q 35.15625 -1.421875 24.609375 -1.421875 
Q 20.21875 -1.421875 15.453125 -0.5625 
Q 10.6875 0.296875 5.421875 2 
L 5.421875 11.28125 
Q 10.40625 8.6875 15.234375 7.390625 
Q 20.0625 6.109375 24.8125 6.109375 
Q 31.15625 6.109375 34.5625 8.28125 
Q 37.984375 10.453125 37.984375 14.40625 
Q 37.984375 18.0625 35.515625 20.015625 
Q 33.0625 21.96875 24.703125 23.78125 
L 21.578125 24.515625 
Q 13.234375 26.265625 9.515625 29.90625 
Q 5.8125 33.546875 5.8125 39.890625 
Q 5.8125 47.609375 11.28125 51.796875 
Q 16.75 56 26.8125 56 
Q 31.78125 56 36.171875 55.265625 
Q 40.578125 54.546875 44.28125 53.078125 
z
" id="DejaVuSans-115"/>
     <path d="M 11.71875 12.40625 
L 22.015625 12.40625 
L 22.015625 4 
L 14.015625 -11.625 
L 7.71875 -11.625 
L 11.71875 4 
z
" id="DejaVuSans-44"/>
     <path d="M 54.890625 33.015625 
L 54.890625 0 
L 45.90625 0 
L 45.90625 32.71875 
Q 45.90625 40.484375 42.875 44.328125 
Q 39.84375 48.1875 33.796875 48.1875 
Q 26.515625 48.1875 22.3125 43.546875 
Q 18.109375 38.921875 18.109375 30.90625 
L 18.109375 0 
L 9.078125 0 
L 9.078125 54.6875 
L 18.109375 54.6875 
L 18.109375 46.1875 
Q 21.34375 51.125 25.703125 53.5625 
Q 30.078125 56 35.796875 56 
Q 45.21875 56 50.046875 50.171875 
Q 54.890625 44.34375 54.890625 33.015625 
z
" id="DejaVuSans-110"/>
     <path d="M 19.671875 34.8125 
L 19.671875 8.109375 
L 35.5 8.109375 
Q 43.453125 8.109375 47.28125 11.40625 
Q 51.125 14.703125 51.125 21.484375 
Q 51.125 28.328125 47.28125 31.5625 
Q 43.453125 34.8125 35.5 34.8125 
z
M 19.671875 64.796875 
L 19.671875 42.828125 
L 34.28125 42.828125 
Q 41.5 42.828125 45.03125 45.53125 
Q 48.578125 48.25 48.578125 53.8125 
Q 48.578125 59.328125 45.03125 62.0625 
Q 41.5 64.796875 34.28125 64.796875 
z
M 9.8125 72.90625 
L 35.015625 72.90625 
Q 46.296875 72.90625 52.390625 68.21875 
Q 58.5 63.53125 58.5 54.890625 
Q 58.5 48.1875 55.375 44.234375 
Q 52.25 40.28125 46.1875 39.3125 
Q 53.46875 37.75 57.5 32.78125 
Q 61.53125 27.828125 61.53125 20.40625 
Q 61.53125 10.640625 54.890625 5.3125 
Q 48.25 0 35.984375 0 
L 9.8125 0 
z
" id="DejaVuSans-66"/>
     <path d="M 8.5 21.578125 
L 8.5 54.6875 
L 17.484375 54.6875 
L 17.484375 21.921875 
Q 17.484375 14.15625 20.5 10.265625 
Q 23.53125 6.390625 29.59375 6.390625 
Q 36.859375 6.390625 41.078125 11.03125 
Q 45.3125 15.671875 45.3125 23.6875 
L 45.3125 54.6875 
L 54.296875 54.6875 
L 54.296875 0 
L 45.3125 0 
L 45.3125 8.40625 
Q 42.046875 3.421875 37.71875 1 
Q 33.40625 -1.421875 27.6875 -1.421875 
Q 18.265625 -1.421875 13.375 4.4375 
Q 8.5 10.296875 8.5 21.578125 
z
M 31.109375 56 
z
" id="DejaVuSans-117"/>
     <path d="M 52 44.1875 
Q 55.375 50.25 60.0625 53.125 
Q 64.75 56 71.09375 56 
Q 79.640625 56 84.28125 50.015625 
Q 88.921875 44.046875 88.921875 33.015625 
L 88.921875 0 
L 79.890625 0 
L 79.890625 32.71875 
Q 79.890625 40.578125 77.09375 44.375 
Q 74.3125 48.1875 68.609375 48.1875 
Q 61.625 48.1875 57.5625 43.546875 
Q 53.515625 38.921875 53.515625 30.90625 
L 53.515625 0 
L 44.484375 0 
L 44.484375 32.71875 
Q 44.484375 40.625 41.703125 44.40625 
Q 38.921875 48.1875 33.109375 48.1875 
Q 26.21875 48.1875 22.15625 43.53125 
Q 18.109375 38.875 18.109375 30.90625 
L 18.109375 0 
L 9.078125 0 
L 9.078125 54.6875 
L 18.109375 54.6875 
L 18.109375 46.1875 
Q 21.1875 51.21875 25.484375 53.609375 
Q 29.78125 56 35.6875 56 
Q 41.65625 56 45.828125 52.96875 
Q 50 49.953125 52 44.1875 
z
" id="DejaVuSans-109"/>
    </defs>
    <g transform="translate(283.838437 63.12)scale(0.12 -0.12)">
     <use xlink:href="#DejaVuSans-70"/>
     <use x="48.394531" xlink:href="#DejaVuSans-97"/>
     <use x="109.673828" xlink:href="#DejaVuSans-116"/>
     <use x="148.882812" xlink:href="#DejaVuSans-97"/>
     <use x="210.162109" xlink:href="#DejaVuSans-108"/>
     <use x="237.945312" xlink:href="#DejaVuSans-105"/>
     <use x="265.728516" xlink:href="#DejaVuSans-116"/>
     <use x="304.9375" xlink:href="#DejaVuSans-105"/>
     <use x="332.720703" xlink:href="#DejaVuSans-101"/>
     <use x="394.244141" xlink:href="#DejaVuSans-115"/>
     <use x="446.34375" xlink:href="#DejaVuSans-44"/>
     <use x="478.130859" xlink:href="#DejaVuSans-32"/>
     <use x="509.917969" xlink:href="#DejaVuSans-100"/>
     <use x="573.394531" xlink:href="#DejaVuSans-97"/>
     <use x="634.673828" xlink:href="#DejaVuSans-105"/>
     <use x="662.457031" xlink:href="#DejaVuSans-108"/>
     <use x="690.240234" xlink:href="#DejaVuSans-121"/>
     <use x="749.419922" xlink:href="#DejaVuSans-32"/>
     <use x="781.207031" xlink:href="#DejaVuSans-103"/>
     <use x="844.683594" xlink:href="#DejaVuSans-114"/>
     <use x="883.546875" xlink:href="#DejaVuSans-111"/>
     <use x="944.728516" xlink:href="#DejaVuSans-119"/>
     <use x="1026.515625" xlink:href="#DejaVuSans-116"/>
     <use x="1065.724609" xlink:href="#DejaVuSans-104"/>
     <use x="1129.103516" xlink:href="#DejaVuSans-32"/>
     <use x="1160.890625" xlink:href="#DejaVuSans-114"/>
     <use x="1202.003906" xlink:href="#DejaVuSans-97"/>
     <use x="1263.283203" xlink:href="#DejaVuSans-116"/>
     <use x="1302.492188" xlink:href="#DejaVuSans-101"/>
     <use x="1364.015625" xlink:href="#DejaVuSans-32"/>
     <use x="1395.802734" xlink:href="#DejaVuSans-105"/>
     <use x="1423.585938" xlink:href="#DejaVuSans-110"/>
     <use x="1486.964844" xlink:href="#DejaVuSans-32"/>
     <use x="1518.751953" xlink:href="#DejaVuSans-66"/>
     <use x="1587.355469" xlink:href="#DejaVuSans-101"/>
     <use x="1648.878906" xlink:href="#DejaVuSans-108"/>
     <use x="1676.662109" xlink:href="#DejaVuSans-103"/>
     <use x="1740.138672" xlink:href="#DejaVuSans-105"/>
     <use x="1767.921875" xlink:href="#DejaVuSans-117"/>
     <use x="1831.300781" xlink:href="#DejaVuSans-109"/>
     <use x="1928.712891" xlink:href="#DejaVuSans-32"/>
     <use x="1960.5" xlink:href="#DejaVuSans-40"/>
     <use x="1999.513672" xlink:href="#DejaVuSans-50"/>
     <use x="2063.136719" xlink:href="#DejaVuSans-48"/>
     <use x="2126.759766" xlink:href="#DejaVuSans-50"/>
     <use x="2190.382812" xlink:href="#DejaVuSans-48"/>
     <use x="2254.005859" xlink:href="#DejaVuSans-45"/>
     <use x="2290.089844" xlink:href="#DejaVuSans-48"/>
     <use x="2353.712891" xlink:href="#DejaVuSans-49"/>
     <use x="2417.335938" xlink:href="#DejaVuSans-45"/>
     <use x="2453.419922" xlink:href="#DejaVuSans-50"/>
     <use x="2517.042969" xlink:href="#DejaVuSans-50"/>
     <use x="2580.666016" xlink:href="#DejaVuSans-46"/>
     <use x="2612.453125" xlink:href="#DejaVuSans-46"/>
     <use x="2644.240234" xlink:href="#DejaVuSans-50"/>
     <use x="2707.863281" xlink:href="#DejaVuSans-48"/>
     <use x="2771.486328" xlink:href="#DejaVuSans-50"/>
     <use x="2835.109375" xlink:href="#DejaVuSans-48"/>
     <use x="2898.732422" xlink:href="#DejaVuSans-45"/>
     <use x="2934.816406" xlink:href="#DejaVuSans-48"/>
     <use x="2998.439453" xlink:href="#DejaVuSans-51"/>
     <use x="3062.0625" xlink:href="#DejaVuSans-45"/>
     <use x="3098.146484" xlink:href="#DejaVuSans-51"/>
     <use x="3161.769531" xlink:href="#DejaVuSans-48"/>
     <use x="3225.392578" xlink:href="#DejaVuSans-41"/>
    </g>
   </g>
   <g id="legend_1">
    <g id="patch_7">
     <path d="M 750.5 150.5325 
L 835.4 150.5325 
Q 837.4 150.5325 837.4 148.5325 
L 837.4 76.12 
Q 837.4 74.12 835.4 74.12 
L 750.5 74.12 
Q 748.5 74.12 748.5 76.12 
L 748.5 148.5325 
Q 748.5 150.5325 750.5 150.5325 
z
" style="fill:#ffffff;opacity:0.8;stroke:#cccccc;stroke-linejoin:miter;"/>
    </g>
    <g id="text_15">
     <!-- Avg over $n$ days -->
     <defs>
      <path d="M 34.1875 63.1875 
L 20.796875 26.90625 
L 47.609375 26.90625 
z
M 28.609375 72.90625 
L 39.796875 72.90625 
L 67.578125 0 
L 57.328125 0 
L 50.6875 18.703125 
L 17.828125 18.703125 
L 11.1875 0 
L 0.78125 0 
z
" id="DejaVuSans-65"/>
      <path d="M 55.71875 33.015625 
L 49.3125 0 
L 40.28125 0 
L 46.6875 32.671875 
Q 47.125 34.96875 47.359375 36.71875 
Q 47.609375 38.484375 47.609375 39.5 
Q 47.609375 43.609375 45.015625 45.890625 
Q 42.4375 48.1875 37.796875 48.1875 
Q 30.5625 48.1875 25.34375 43.375 
Q 20.125 38.578125 18.5 30.328125 
L 12.5 0 
L 3.515625 0 
L 14.109375 54.6875 
L 23.09375 54.6875 
L 21.296875 46.09375 
Q 25.046875 50.828125 30.3125 53.40625 
Q 35.59375 56 41.40625 56 
Q 48.640625 56 52.609375 52.09375 
Q 56.59375 48.1875 56.59375 41.109375 
Q 56.59375 39.359375 56.375 37.359375 
Q 56.15625 35.359375 55.71875 33.015625 
z
" id="DejaVuSans-Oblique-110"/>
     </defs>
     <g transform="translate(752.5 85.72)scale(0.1 -0.1)">
      <use transform="translate(0 0.015625)" xlink:href="#DejaVuSans-65"/>
      <use transform="translate(68.408203 0.015625)" xlink:href="#DejaVuSans-118"/>
      <use transform="translate(127.587891 0.015625)" xlink:href="#DejaVuSans-103"/>
      <use transform="translate(191.064453 0.015625)" xlink:href="#DejaVuSans-32"/>
      <use transform="translate(222.851562 0.015625)" xlink:href="#DejaVuSans-111"/>
      <use transform="translate(284.033203 0.015625)" xlink:href="#DejaVuSans-118"/>
      <use transform="translate(343.212891 0.015625)" xlink:href="#DejaVuSans-101"/>
      <use transform="translate(404.736328 0.015625)" xlink:href="#DejaVuSans-114"/>
      <use transform="translate(445.849609 0.015625)" xlink:href="#DejaVuSans-32"/>
      <use transform="translate(477.636719 0.015625)" xlink:href="#DejaVuSans-Oblique-110"/>
      <use transform="translate(541.015625 0.015625)" xlink:href="#DejaVuSans-32"/>
      <use transform="translate(572.802734 0.015625)" xlink:href="#DejaVuSans-100"/>
      <use transform="translate(636.279297 0.015625)" xlink:href="#DejaVuSans-97"/>
      <use transform="translate(697.558594 0.015625)" xlink:href="#DejaVuSans-121"/>
      <use transform="translate(756.738281 0.015625)" xlink:href="#DejaVuSans-115"/>
     </g>
    </g>
    <g id="line2d_165">
     <path d="M 759.196094 96.918438 
L 779.196094 96.918438 
" style="fill:none;stroke:#1f77b4;stroke-linecap:square;stroke-width:1.5;"/>
    </g>
    <g id="line2d_166">
     <g>
      <use style="fill:#1f77b4;stroke:#1f77b4;" x="769.196094" xlink:href="#m02da0cf70d" y="96.918438"/>
     </g>
    </g>
    <g id="text_16">
     <!-- 2 days -->
     <g transform="translate(787.196094 100.418438)scale(0.1 -0.1)">
      <use xlink:href="#DejaVuSans-50"/>
      <use x="63.623047" xlink:href="#DejaVuSans-32"/>
      <use x="95.410156" xlink:href="#DejaVuSans-100"/>
      <use x="158.886719" xlink:href="#DejaVuSans-97"/>
      <use x="220.166016" xlink:href="#DejaVuSans-121"/>
      <use x="279.345703" xlink:href="#DejaVuSans-115"/>
     </g>
    </g>
    <g id="line2d_167">
     <path d="M 759.196094 111.596563 
L 779.196094 111.596563 
" style="fill:none;stroke:#ff7f0e;stroke-linecap:square;stroke-width:1.5;"/>
    </g>
    <g id="line2d_168">
     <g>
      <use style="fill:#ff7f0e;stroke:#ff7f0e;" x="769.196094" xlink:href="#me8cb1cee2d" y="111.596563"/>
     </g>
    </g>
    <g id="text_17">
     <!-- 4 days -->
     <g transform="translate(787.196094 115.096563)scale(0.1 -0.1)">
      <use xlink:href="#DejaVuSans-52"/>
      <use x="63.623047" xlink:href="#DejaVuSans-32"/>
      <use x="95.410156" xlink:href="#DejaVuSans-100"/>
      <use x="158.886719" xlink:href="#DejaVuSans-97"/>
      <use x="220.166016" xlink:href="#DejaVuSans-121"/>
      <use x="279.345703" xlink:href="#DejaVuSans-115"/>
     </g>
    </g>
    <g id="line2d_169">
     <path d="M 759.196094 126.274688 
L 779.196094 126.274688 
" style="fill:none;stroke:#2ca02c;stroke-linecap:square;stroke-width:1.5;"/>
    </g>
    <g id="line2d_170">
     <g>
      <use style="fill:#2ca02c;stroke:#2ca02c;" x="769.196094" xlink:href="#m0846f7d94e" y="126.274688"/>
     </g>
    </g>
    <g id="text_18">
     <!-- 7 days -->
     <g transform="translate(787.196094 129.774688)scale(0.1 -0.1)">
      <use xlink:href="#DejaVuSans-55"/>
      <use x="63.623047" xlink:href="#DejaVuSans-32"/>
      <use x="95.410156" xlink:href="#DejaVuSans-100"/>
      <use x="158.886719" xlink:href="#DejaVuSans-97"/>
      <use x="220.166016" xlink:href="#DejaVuSans-121"/>
      <use x="279.345703" xlink:href="#DejaVuSans-115"/>
     </g>
    </g>
    <g id="line2d_171">
     <path d="M 759.196094 140.952813 
L 779.196094 140.952813 
" style="fill:none;stroke:#d62728;stroke-linecap:square;stroke-width:1.5;"/>
    </g>
    <g id="line2d_172">
     <g>
      <use style="fill:#d62728;stroke:#d62728;" x="769.196094" xlink:href="#m4b24b6650e" y="140.952813"/>
     </g>
    </g>
    <g id="text_19">
     <!-- 14 days -->
     <g transform="translate(787.196094 144.452813)scale(0.1 -0.1)">
      <use xlink:href="#DejaVuSans-49"/>
      <use x="63.623047" xlink:href="#DejaVuSans-52"/>
      <use x="127.246094" xlink:href="#DejaVuSans-32"/>
      <use x="159.033203" xlink:href="#DejaVuSans-100"/>
      <use x="222.509766" xlink:href="#DejaVuSans-97"/>
      <use x="283.789062" xlink:href="#DejaVuSans-121"/>
      <use x="342.96875" xlink:href="#DejaVuSans-115"/>
     </g>
    </g>
   </g>
  </g>
 </g>
 <defs>
  <clipPath id="p30d3c4dcde">
   <rect height="443.52" width="725.4" x="117" y="69.12"/>
  </clipPath>
 </defs>
</svg>
