<?xml version="1.0" encoding="utf-8" standalone="no"?>
<!DOCTYPE svg PUBLIC "-//W3C//DTD SVG 1.1//EN"
  "http://www.w3.org/Graphics/SVG/1.1/DTD/svg11.dtd">
<!-- Created with matplotlib (https://matplotlib.org/) -->
<svg height="576pt" version="1.1" viewBox="0 0 936 576" width="936pt" xmlns="http://www.w3.org/2000/svg" xmlns:xlink="http://www.w3.org/1999/xlink">
 <defs>
  <style type="text/css">
*{stroke-linecap:butt;stroke-linejoin:round;}
  </style>
 </defs>
 <g id="figure_1">
  <g id="patch_1">
   <path d="M 0 576 
L 936 576 
L 936 0 
L 0 0 
z
" style="fill:#ffffff;"/>
  </g>
  <g id="axes_1">
   <g id="patch_2">
    <path d="M 117 512.64 
L 842.4 512.64 
L 842.4 69.12 
L 117 69.12 
z
" style="fill:#ffffff;"/>
   </g>
   <g id="matplotlib.axis_1">
    <g id="xtick_1">
     <g id="line2d_1">
      <path clip-path="url(#p3b78af2b57)" d="M 118.57013 512.64 
L 118.57013 69.12 
" style="fill:none;stroke:#d8dcd6;stroke-dasharray:0.8,1.32;stroke-dashoffset:0;stroke-width:0.8;"/>
     </g>
     <g id="line2d_2">
      <defs>
       <path d="M 0 0 
L 0 3.5 
" id="m9f23defd18" style="stroke:#000000;stroke-width:0.8;"/>
      </defs>
      <g>
       <use style="stroke:#000000;stroke-width:0.8;" x="118.57013" xlink:href="#m9f23defd18" y="512.64"/>
      </g>
     </g>
     <g id="text_1">
      <!-- 2020-02-21 -->
      <defs>
       <path d="M 19.1875 8.296875 
L 53.609375 8.296875 
L 53.609375 0 
L 7.328125 0 
L 7.328125 8.296875 
Q 12.9375 14.109375 22.625 23.890625 
Q 32.328125 33.6875 34.8125 36.53125 
Q 39.546875 41.84375 41.421875 45.53125 
Q 43.3125 49.21875 43.3125 52.78125 
Q 43.3125 58.59375 39.234375 62.25 
Q 35.15625 65.921875 28.609375 65.921875 
Q 23.96875 65.921875 18.8125 64.3125 
Q 13.671875 62.703125 7.8125 59.421875 
L 7.8125 69.390625 
Q 13.765625 71.78125 18.9375 73 
Q 24.125 74.21875 28.421875 74.21875 
Q 39.75 74.21875 46.484375 68.546875 
Q 53.21875 62.890625 53.21875 53.421875 
Q 53.21875 48.921875 51.53125 44.890625 
Q 49.859375 40.875 45.40625 35.40625 
Q 44.1875 33.984375 37.640625 27.21875 
Q 31.109375 20.453125 19.1875 8.296875 
z
" id="DejaVuSans-50"/>
       <path d="M 31.78125 66.40625 
Q 24.171875 66.40625 20.328125 58.90625 
Q 16.5 51.421875 16.5 36.375 
Q 16.5 21.390625 20.328125 13.890625 
Q 24.171875 6.390625 31.78125 6.390625 
Q 39.453125 6.390625 43.28125 13.890625 
Q 47.125 21.390625 47.125 36.375 
Q 47.125 51.421875 43.28125 58.90625 
Q 39.453125 66.40625 31.78125 66.40625 
z
M 31.78125 74.21875 
Q 44.046875 74.21875 50.515625 64.515625 
Q 56.984375 54.828125 56.984375 36.375 
Q 56.984375 17.96875 50.515625 8.265625 
Q 44.046875 -1.421875 31.78125 -1.421875 
Q 19.53125 -1.421875 13.0625 8.265625 
Q 6.59375 17.96875 6.59375 36.375 
Q 6.59375 54.828125 13.0625 64.515625 
Q 19.53125 74.21875 31.78125 74.21875 
z
" id="DejaVuSans-48"/>
       <path d="M 4.890625 31.390625 
L 31.203125 31.390625 
L 31.203125 23.390625 
L 4.890625 23.390625 
z
" id="DejaVuSans-45"/>
       <path d="M 12.40625 8.296875 
L 28.515625 8.296875 
L 28.515625 63.921875 
L 10.984375 60.40625 
L 10.984375 69.390625 
L 28.421875 72.90625 
L 38.28125 72.90625 
L 38.28125 8.296875 
L 54.390625 8.296875 
L 54.390625 0 
L 12.40625 0 
z
" id="DejaVuSans-49"/>
      </defs>
      <g transform="translate(89.512317 527.238438)scale(0.1 -0.1)">
       <use xlink:href="#DejaVuSans-50"/>
       <use x="63.623047" xlink:href="#DejaVuSans-48"/>
       <use x="127.246094" xlink:href="#DejaVuSans-50"/>
       <use x="190.869141" xlink:href="#DejaVuSans-48"/>
       <use x="254.492188" xlink:href="#DejaVuSans-45"/>
       <use x="290.576172" xlink:href="#DejaVuSans-48"/>
       <use x="354.199219" xlink:href="#DejaVuSans-50"/>
       <use x="417.822266" xlink:href="#DejaVuSans-45"/>
       <use x="453.90625" xlink:href="#DejaVuSans-50"/>
       <use x="517.529297" xlink:href="#DejaVuSans-49"/>
      </g>
     </g>
    </g>
    <g id="xtick_2">
     <g id="line2d_3">
      <path clip-path="url(#p3b78af2b57)" d="M 275.583117 512.64 
L 275.583117 69.12 
" style="fill:none;stroke:#d8dcd6;stroke-dasharray:0.8,1.32;stroke-dashoffset:0;stroke-width:0.8;"/>
     </g>
     <g id="line2d_4">
      <g>
       <use style="stroke:#000000;stroke-width:0.8;" x="275.583117" xlink:href="#m9f23defd18" y="512.64"/>
      </g>
     </g>
     <g id="text_2">
      <!-- 2020-03-02 -->
      <defs>
       <path d="M 40.578125 39.3125 
Q 47.65625 37.796875 51.625 33 
Q 55.609375 28.21875 55.609375 21.1875 
Q 55.609375 10.40625 48.1875 4.484375 
Q 40.765625 -1.421875 27.09375 -1.421875 
Q 22.515625 -1.421875 17.65625 -0.515625 
Q 12.796875 0.390625 7.625 2.203125 
L 7.625 11.71875 
Q 11.71875 9.328125 16.59375 8.109375 
Q 21.484375 6.890625 26.8125 6.890625 
Q 36.078125 6.890625 40.9375 10.546875 
Q 45.796875 14.203125 45.796875 21.1875 
Q 45.796875 27.640625 41.28125 31.265625 
Q 36.765625 34.90625 28.71875 34.90625 
L 20.21875 34.90625 
L 20.21875 43.015625 
L 29.109375 43.015625 
Q 36.375 43.015625 40.234375 45.921875 
Q 44.09375 48.828125 44.09375 54.296875 
Q 44.09375 59.90625 40.109375 62.90625 
Q 36.140625 65.921875 28.71875 65.921875 
Q 24.65625 65.921875 20.015625 65.03125 
Q 15.375 64.15625 9.8125 62.3125 
L 9.8125 71.09375 
Q 15.4375 72.65625 20.34375 73.4375 
Q 25.25 74.21875 29.59375 74.21875 
Q 40.828125 74.21875 47.359375 69.109375 
Q 53.90625 64.015625 53.90625 55.328125 
Q 53.90625 49.265625 50.4375 45.09375 
Q 46.96875 40.921875 40.578125 39.3125 
z
" id="DejaVuSans-51"/>
      </defs>
      <g transform="translate(246.525304 527.238438)scale(0.1 -0.1)">
       <use xlink:href="#DejaVuSans-50"/>
       <use x="63.623047" xlink:href="#DejaVuSans-48"/>
       <use x="127.246094" xlink:href="#DejaVuSans-50"/>
       <use x="190.869141" xlink:href="#DejaVuSans-48"/>
       <use x="254.492188" xlink:href="#DejaVuSans-45"/>
       <use x="290.576172" xlink:href="#DejaVuSans-48"/>
       <use x="354.199219" xlink:href="#DejaVuSans-51"/>
       <use x="417.822266" xlink:href="#DejaVuSans-45"/>
       <use x="453.90625" xlink:href="#DejaVuSans-48"/>
       <use x="517.529297" xlink:href="#DejaVuSans-50"/>
      </g>
     </g>
    </g>
    <g id="xtick_3">
     <g id="line2d_5">
      <path clip-path="url(#p3b78af2b57)" d="M 432.596104 512.64 
L 432.596104 69.12 
" style="fill:none;stroke:#d8dcd6;stroke-dasharray:0.8,1.32;stroke-dashoffset:0;stroke-width:0.8;"/>
     </g>
     <g id="line2d_6">
      <g>
       <use style="stroke:#000000;stroke-width:0.8;" x="432.596104" xlink:href="#m9f23defd18" y="512.64"/>
      </g>
     </g>
     <g id="text_3">
      <!-- 2020-03-12 -->
      <g transform="translate(403.538291 527.238438)scale(0.1 -0.1)">
       <use xlink:href="#DejaVuSans-50"/>
       <use x="63.623047" xlink:href="#DejaVuSans-48"/>
       <use x="127.246094" xlink:href="#DejaVuSans-50"/>
       <use x="190.869141" xlink:href="#DejaVuSans-48"/>
       <use x="254.492188" xlink:href="#DejaVuSans-45"/>
       <use x="290.576172" xlink:href="#DejaVuSans-48"/>
       <use x="354.199219" xlink:href="#DejaVuSans-51"/>
       <use x="417.822266" xlink:href="#DejaVuSans-45"/>
       <use x="453.90625" xlink:href="#DejaVuSans-49"/>
       <use x="517.529297" xlink:href="#DejaVuSans-50"/>
      </g>
     </g>
    </g>
    <g id="xtick_4">
     <g id="line2d_7">
      <path clip-path="url(#p3b78af2b57)" d="M 589.609091 512.64 
L 589.609091 69.12 
" style="fill:none;stroke:#d8dcd6;stroke-dasharray:0.8,1.32;stroke-dashoffset:0;stroke-width:0.8;"/>
     </g>
     <g id="line2d_8">
      <g>
       <use style="stroke:#000000;stroke-width:0.8;" x="589.609091" xlink:href="#m9f23defd18" y="512.64"/>
      </g>
     </g>
     <g id="text_4">
      <!-- 2020-03-22 -->
      <g transform="translate(560.551278 527.238438)scale(0.1 -0.1)">
       <use xlink:href="#DejaVuSans-50"/>
       <use x="63.623047" xlink:href="#DejaVuSans-48"/>
       <use x="127.246094" xlink:href="#DejaVuSans-50"/>
       <use x="190.869141" xlink:href="#DejaVuSans-48"/>
       <use x="254.492188" xlink:href="#DejaVuSans-45"/>
       <use x="290.576172" xlink:href="#DejaVuSans-48"/>
       <use x="354.199219" xlink:href="#DejaVuSans-51"/>
       <use x="417.822266" xlink:href="#DejaVuSans-45"/>
       <use x="453.90625" xlink:href="#DejaVuSans-50"/>
       <use x="517.529297" xlink:href="#DejaVuSans-50"/>
      </g>
     </g>
    </g>
    <g id="xtick_5">
     <g id="line2d_9">
      <path clip-path="url(#p3b78af2b57)" d="M 746.622078 512.64 
L 746.622078 69.12 
" style="fill:none;stroke:#d8dcd6;stroke-dasharray:0.8,1.32;stroke-dashoffset:0;stroke-width:0.8;"/>
     </g>
     <g id="line2d_10">
      <g>
       <use style="stroke:#000000;stroke-width:0.8;" x="746.622078" xlink:href="#m9f23defd18" y="512.64"/>
      </g>
     </g>
     <g id="text_5">
      <!-- 2020-04-01 -->
      <defs>
       <path d="M 37.796875 64.3125 
L 12.890625 25.390625 
L 37.796875 25.390625 
z
M 35.203125 72.90625 
L 47.609375 72.90625 
L 47.609375 25.390625 
L 58.015625 25.390625 
L 58.015625 17.1875 
L 47.609375 17.1875 
L 47.609375 0 
L 37.796875 0 
L 37.796875 17.1875 
L 4.890625 17.1875 
L 4.890625 26.703125 
z
" id="DejaVuSans-52"/>
      </defs>
      <g transform="translate(717.564265 527.238438)scale(0.1 -0.1)">
       <use xlink:href="#DejaVuSans-50"/>
       <use x="63.623047" xlink:href="#DejaVuSans-48"/>
       <use x="127.246094" xlink:href="#DejaVuSans-50"/>
       <use x="190.869141" xlink:href="#DejaVuSans-48"/>
       <use x="254.492188" xlink:href="#DejaVuSans-45"/>
       <use x="290.576172" xlink:href="#DejaVuSans-48"/>
       <use x="354.199219" xlink:href="#DejaVuSans-52"/>
       <use x="417.822266" xlink:href="#DejaVuSans-45"/>
       <use x="453.90625" xlink:href="#DejaVuSans-48"/>
       <use x="517.529297" xlink:href="#DejaVuSans-49"/>
      </g>
     </g>
    </g>
    <g id="xtick_6">
     <g id="line2d_11">
      <path clip-path="url(#p3b78af2b57)" d="M 149.972727 512.64 
L 149.972727 69.12 
" style="fill:none;stroke:#d8dcd6;stroke-dasharray:0.8,1.32;stroke-dashoffset:0;stroke-width:0.8;"/>
     </g>
     <g id="line2d_12">
      <defs>
       <path d="M 0 0 
L 0 2 
" id="meaac3a379f" style="stroke:#000000;stroke-width:0.6;"/>
      </defs>
      <g>
       <use style="stroke:#000000;stroke-width:0.6;" x="149.972727" xlink:href="#meaac3a379f" y="512.64"/>
      </g>
     </g>
    </g>
    <g id="xtick_7">
     <g id="line2d_13">
      <path clip-path="url(#p3b78af2b57)" d="M 181.375325 512.64 
L 181.375325 69.12 
" style="fill:none;stroke:#d8dcd6;stroke-dasharray:0.8,1.32;stroke-dashoffset:0;stroke-width:0.8;"/>
     </g>
     <g id="line2d_14">
      <g>
       <use style="stroke:#000000;stroke-width:0.6;" x="181.375325" xlink:href="#meaac3a379f" y="512.64"/>
      </g>
     </g>
    </g>
    <g id="xtick_8">
     <g id="line2d_15">
      <path clip-path="url(#p3b78af2b57)" d="M 212.777922 512.64 
L 212.777922 69.12 
" style="fill:none;stroke:#d8dcd6;stroke-dasharray:0.8,1.32;stroke-dashoffset:0;stroke-width:0.8;"/>
     </g>
     <g id="line2d_16">
      <g>
       <use style="stroke:#000000;stroke-width:0.6;" x="212.777922" xlink:href="#meaac3a379f" y="512.64"/>
      </g>
     </g>
    </g>
    <g id="xtick_9">
     <g id="line2d_17">
      <path clip-path="url(#p3b78af2b57)" d="M 244.180519 512.64 
L 244.180519 69.12 
" style="fill:none;stroke:#d8dcd6;stroke-dasharray:0.8,1.32;stroke-dashoffset:0;stroke-width:0.8;"/>
     </g>
     <g id="line2d_18">
      <g>
       <use style="stroke:#000000;stroke-width:0.6;" x="244.180519" xlink:href="#meaac3a379f" y="512.64"/>
      </g>
     </g>
    </g>
    <g id="xtick_10">
     <g id="line2d_19">
      <path clip-path="url(#p3b78af2b57)" d="M 306.985714 512.64 
L 306.985714 69.12 
" style="fill:none;stroke:#d8dcd6;stroke-dasharray:0.8,1.32;stroke-dashoffset:0;stroke-width:0.8;"/>
     </g>
     <g id="line2d_20">
      <g>
       <use style="stroke:#000000;stroke-width:0.6;" x="306.985714" xlink:href="#meaac3a379f" y="512.64"/>
      </g>
     </g>
    </g>
    <g id="xtick_11">
     <g id="line2d_21">
      <path clip-path="url(#p3b78af2b57)" d="M 338.388312 512.64 
L 338.388312 69.12 
" style="fill:none;stroke:#d8dcd6;stroke-dasharray:0.8,1.32;stroke-dashoffset:0;stroke-width:0.8;"/>
     </g>
     <g id="line2d_22">
      <g>
       <use style="stroke:#000000;stroke-width:0.6;" x="338.388312" xlink:href="#meaac3a379f" y="512.64"/>
      </g>
     </g>
    </g>
    <g id="xtick_12">
     <g id="line2d_23">
      <path clip-path="url(#p3b78af2b57)" d="M 369.790909 512.64 
L 369.790909 69.12 
" style="fill:none;stroke:#d8dcd6;stroke-dasharray:0.8,1.32;stroke-dashoffset:0;stroke-width:0.8;"/>
     </g>
     <g id="line2d_24">
      <g>
       <use style="stroke:#000000;stroke-width:0.6;" x="369.790909" xlink:href="#meaac3a379f" y="512.64"/>
      </g>
     </g>
    </g>
    <g id="xtick_13">
     <g id="line2d_25">
      <path clip-path="url(#p3b78af2b57)" d="M 401.193506 512.64 
L 401.193506 69.12 
" style="fill:none;stroke:#d8dcd6;stroke-dasharray:0.8,1.32;stroke-dashoffset:0;stroke-width:0.8;"/>
     </g>
     <g id="line2d_26">
      <g>
       <use style="stroke:#000000;stroke-width:0.6;" x="401.193506" xlink:href="#meaac3a379f" y="512.64"/>
      </g>
     </g>
    </g>
    <g id="xtick_14">
     <g id="line2d_27">
      <path clip-path="url(#p3b78af2b57)" d="M 463.998701 512.64 
L 463.998701 69.12 
" style="fill:none;stroke:#d8dcd6;stroke-dasharray:0.8,1.32;stroke-dashoffset:0;stroke-width:0.8;"/>
     </g>
     <g id="line2d_28">
      <g>
       <use style="stroke:#000000;stroke-width:0.6;" x="463.998701" xlink:href="#meaac3a379f" y="512.64"/>
      </g>
     </g>
    </g>
    <g id="xtick_15">
     <g id="line2d_29">
      <path clip-path="url(#p3b78af2b57)" d="M 495.401299 512.64 
L 495.401299 69.12 
" style="fill:none;stroke:#d8dcd6;stroke-dasharray:0.8,1.32;stroke-dashoffset:0;stroke-width:0.8;"/>
     </g>
     <g id="line2d_30">
      <g>
       <use style="stroke:#000000;stroke-width:0.6;" x="495.401299" xlink:href="#meaac3a379f" y="512.64"/>
      </g>
     </g>
    </g>
    <g id="xtick_16">
     <g id="line2d_31">
      <path clip-path="url(#p3b78af2b57)" d="M 526.803896 512.64 
L 526.803896 69.12 
" style="fill:none;stroke:#d8dcd6;stroke-dasharray:0.8,1.32;stroke-dashoffset:0;stroke-width:0.8;"/>
     </g>
     <g id="line2d_32">
      <g>
       <use style="stroke:#000000;stroke-width:0.6;" x="526.803896" xlink:href="#meaac3a379f" y="512.64"/>
      </g>
     </g>
    </g>
    <g id="xtick_17">
     <g id="line2d_33">
      <path clip-path="url(#p3b78af2b57)" d="M 558.206494 512.64 
L 558.206494 69.12 
" style="fill:none;stroke:#d8dcd6;stroke-dasharray:0.8,1.32;stroke-dashoffset:0;stroke-width:0.8;"/>
     </g>
     <g id="line2d_34">
      <g>
       <use style="stroke:#000000;stroke-width:0.6;" x="558.206494" xlink:href="#meaac3a379f" y="512.64"/>
      </g>
     </g>
    </g>
    <g id="xtick_18">
     <g id="line2d_35">
      <path clip-path="url(#p3b78af2b57)" d="M 621.011688 512.64 
L 621.011688 69.12 
" style="fill:none;stroke:#d8dcd6;stroke-dasharray:0.8,1.32;stroke-dashoffset:0;stroke-width:0.8;"/>
     </g>
     <g id="line2d_36">
      <g>
       <use style="stroke:#000000;stroke-width:0.6;" x="621.011688" xlink:href="#meaac3a379f" y="512.64"/>
      </g>
     </g>
    </g>
    <g id="xtick_19">
     <g id="line2d_37">
      <path clip-path="url(#p3b78af2b57)" d="M 652.414286 512.64 
L 652.414286 69.12 
" style="fill:none;stroke:#d8dcd6;stroke-dasharray:0.8,1.32;stroke-dashoffset:0;stroke-width:0.8;"/>
     </g>
     <g id="line2d_38">
      <g>
       <use style="stroke:#000000;stroke-width:0.6;" x="652.414286" xlink:href="#meaac3a379f" y="512.64"/>
      </g>
     </g>
    </g>
    <g id="xtick_20">
     <g id="line2d_39">
      <path clip-path="url(#p3b78af2b57)" d="M 683.816883 512.64 
L 683.816883 69.12 
" style="fill:none;stroke:#d8dcd6;stroke-dasharray:0.8,1.32;stroke-dashoffset:0;stroke-width:0.8;"/>
     </g>
     <g id="line2d_40">
      <g>
       <use style="stroke:#000000;stroke-width:0.6;" x="683.816883" xlink:href="#meaac3a379f" y="512.64"/>
      </g>
     </g>
    </g>
    <g id="xtick_21">
     <g id="line2d_41">
      <path clip-path="url(#p3b78af2b57)" d="M 715.219481 512.64 
L 715.219481 69.12 
" style="fill:none;stroke:#d8dcd6;stroke-dasharray:0.8,1.32;stroke-dashoffset:0;stroke-width:0.8;"/>
     </g>
     <g id="line2d_42">
      <g>
       <use style="stroke:#000000;stroke-width:0.6;" x="715.219481" xlink:href="#meaac3a379f" y="512.64"/>
      </g>
     </g>
    </g>
    <g id="xtick_22">
     <g id="line2d_43">
      <path clip-path="url(#p3b78af2b57)" d="M 778.024675 512.64 
L 778.024675 69.12 
" style="fill:none;stroke:#d8dcd6;stroke-dasharray:0.8,1.32;stroke-dashoffset:0;stroke-width:0.8;"/>
     </g>
     <g id="line2d_44">
      <g>
       <use style="stroke:#000000;stroke-width:0.6;" x="778.024675" xlink:href="#meaac3a379f" y="512.64"/>
      </g>
     </g>
    </g>
    <g id="xtick_23">
     <g id="line2d_45">
      <path clip-path="url(#p3b78af2b57)" d="M 809.427273 512.64 
L 809.427273 69.12 
" style="fill:none;stroke:#d8dcd6;stroke-dasharray:0.8,1.32;stroke-dashoffset:0;stroke-width:0.8;"/>
     </g>
     <g id="line2d_46">
      <g>
       <use style="stroke:#000000;stroke-width:0.6;" x="809.427273" xlink:href="#meaac3a379f" y="512.64"/>
      </g>
     </g>
    </g>
    <g id="xtick_24">
     <g id="line2d_47">
      <path clip-path="url(#p3b78af2b57)" d="M 840.82987 512.64 
L 840.82987 69.12 
" style="fill:none;stroke:#d8dcd6;stroke-dasharray:0.8,1.32;stroke-dashoffset:0;stroke-width:0.8;"/>
     </g>
     <g id="line2d_48">
      <g>
       <use style="stroke:#000000;stroke-width:0.6;" x="840.82987" xlink:href="#meaac3a379f" y="512.64"/>
      </g>
     </g>
    </g>
   </g>
   <g id="matplotlib.axis_2">
    <g id="ytick_1">
     <g id="line2d_49">
      <path clip-path="url(#p3b78af2b57)" d="M 117 511.706627 
L 842.4 511.706627 
" style="fill:none;stroke:#d8dcd6;stroke-dasharray:0.8,1.32;stroke-dashoffset:0;stroke-width:0.8;"/>
     </g>
     <g id="line2d_50">
      <defs>
       <path d="M 0 0 
L -3.5 0 
" id="m4a583acda3" style="stroke:#000000;stroke-width:0.8;"/>
      </defs>
      <g>
       <use style="stroke:#000000;stroke-width:0.8;" x="117" xlink:href="#m4a583acda3" y="511.706627"/>
      </g>
     </g>
     <g id="text_6">
      <!-- 0 -->
      <g transform="translate(103.6375 515.505845)scale(0.1 -0.1)">
       <use xlink:href="#DejaVuSans-48"/>
      </g>
     </g>
    </g>
    <g id="ytick_2">
     <g id="line2d_51">
      <path clip-path="url(#p3b78af2b57)" d="M 117 437.942189 
L 842.4 437.942189 
" style="fill:none;stroke:#d8dcd6;stroke-dasharray:0.8,1.32;stroke-dashoffset:0;stroke-width:0.8;"/>
     </g>
     <g id="line2d_52">
      <g>
       <use style="stroke:#000000;stroke-width:0.8;" x="117" xlink:href="#m4a583acda3" y="437.942189"/>
      </g>
     </g>
     <g id="text_7">
      <!-- 10 -->
      <g transform="translate(97.275 441.741408)scale(0.1 -0.1)">
       <use xlink:href="#DejaVuSans-49"/>
       <use x="63.623047" xlink:href="#DejaVuSans-48"/>
      </g>
     </g>
    </g>
    <g id="ytick_3">
     <g id="line2d_53">
      <path clip-path="url(#p3b78af2b57)" d="M 117 364.177751 
L 842.4 364.177751 
" style="fill:none;stroke:#d8dcd6;stroke-dasharray:0.8,1.32;stroke-dashoffset:0;stroke-width:0.8;"/>
     </g>
     <g id="line2d_54">
      <g>
       <use style="stroke:#000000;stroke-width:0.8;" x="117" xlink:href="#m4a583acda3" y="364.177751"/>
      </g>
     </g>
     <g id="text_8">
      <!-- 20 -->
      <g transform="translate(97.275 367.97697)scale(0.1 -0.1)">
       <use xlink:href="#DejaVuSans-50"/>
       <use x="63.623047" xlink:href="#DejaVuSans-48"/>
      </g>
     </g>
    </g>
    <g id="ytick_4">
     <g id="line2d_55">
      <path clip-path="url(#p3b78af2b57)" d="M 117 290.413313 
L 842.4 290.413313 
" style="fill:none;stroke:#d8dcd6;stroke-dasharray:0.8,1.32;stroke-dashoffset:0;stroke-width:0.8;"/>
     </g>
     <g id="line2d_56">
      <g>
       <use style="stroke:#000000;stroke-width:0.8;" x="117" xlink:href="#m4a583acda3" y="290.413313"/>
      </g>
     </g>
     <g id="text_9">
      <!-- 30 -->
      <g transform="translate(97.275 294.212532)scale(0.1 -0.1)">
       <use xlink:href="#DejaVuSans-51"/>
       <use x="63.623047" xlink:href="#DejaVuSans-48"/>
      </g>
     </g>
    </g>
    <g id="ytick_5">
     <g id="line2d_57">
      <path clip-path="url(#p3b78af2b57)" d="M 117 216.648876 
L 842.4 216.648876 
" style="fill:none;stroke:#d8dcd6;stroke-dasharray:0.8,1.32;stroke-dashoffset:0;stroke-width:0.8;"/>
     </g>
     <g id="line2d_58">
      <g>
       <use style="stroke:#000000;stroke-width:0.8;" x="117" xlink:href="#m4a583acda3" y="216.648876"/>
      </g>
     </g>
     <g id="text_10">
      <!-- 40 -->
      <g transform="translate(97.275 220.448094)scale(0.1 -0.1)">
       <use xlink:href="#DejaVuSans-52"/>
       <use x="63.623047" xlink:href="#DejaVuSans-48"/>
      </g>
     </g>
    </g>
    <g id="ytick_6">
     <g id="line2d_59">
      <path clip-path="url(#p3b78af2b57)" d="M 117 142.884438 
L 842.4 142.884438 
" style="fill:none;stroke:#d8dcd6;stroke-dasharray:0.8,1.32;stroke-dashoffset:0;stroke-width:0.8;"/>
     </g>
     <g id="line2d_60">
      <g>
       <use style="stroke:#000000;stroke-width:0.8;" x="117" xlink:href="#m4a583acda3" y="142.884438"/>
      </g>
     </g>
     <g id="text_11">
      <!-- 50 -->
      <defs>
       <path d="M 10.796875 72.90625 
L 49.515625 72.90625 
L 49.515625 64.59375 
L 19.828125 64.59375 
L 19.828125 46.734375 
Q 21.96875 47.46875 24.109375 47.828125 
Q 26.265625 48.1875 28.421875 48.1875 
Q 40.625 48.1875 47.75 41.5 
Q 54.890625 34.8125 54.890625 23.390625 
Q 54.890625 11.625 47.5625 5.09375 
Q 40.234375 -1.421875 26.90625 -1.421875 
Q 22.3125 -1.421875 17.546875 -0.640625 
Q 12.796875 0.140625 7.71875 1.703125 
L 7.71875 11.625 
Q 12.109375 9.234375 16.796875 8.0625 
Q 21.484375 6.890625 26.703125 6.890625 
Q 35.15625 6.890625 40.078125 11.328125 
Q 45.015625 15.765625 45.015625 23.390625 
Q 45.015625 31 40.078125 35.4375 
Q 35.15625 39.890625 26.703125 39.890625 
Q 22.75 39.890625 18.8125 39.015625 
Q 14.890625 38.140625 10.796875 36.28125 
z
" id="DejaVuSans-53"/>
      </defs>
      <g transform="translate(97.275 146.683657)scale(0.1 -0.1)">
       <use xlink:href="#DejaVuSans-53"/>
       <use x="63.623047" xlink:href="#DejaVuSans-48"/>
      </g>
     </g>
    </g>
    <g id="ytick_7">
     <g id="line2d_61">
      <path clip-path="url(#p3b78af2b57)" d="M 117 69.12 
L 842.4 69.12 
" style="fill:none;stroke:#d8dcd6;stroke-dasharray:0.8,1.32;stroke-dashoffset:0;stroke-width:0.8;"/>
     </g>
     <g id="line2d_62">
      <g>
       <use style="stroke:#000000;stroke-width:0.8;" x="117" xlink:href="#m4a583acda3" y="69.12"/>
      </g>
     </g>
     <g id="text_12">
      <!-- 60 -->
      <defs>
       <path d="M 33.015625 40.375 
Q 26.375 40.375 22.484375 35.828125 
Q 18.609375 31.296875 18.609375 23.390625 
Q 18.609375 15.53125 22.484375 10.953125 
Q 26.375 6.390625 33.015625 6.390625 
Q 39.65625 6.390625 43.53125 10.953125 
Q 47.40625 15.53125 47.40625 23.390625 
Q 47.40625 31.296875 43.53125 35.828125 
Q 39.65625 40.375 33.015625 40.375 
z
M 52.59375 71.296875 
L 52.59375 62.3125 
Q 48.875 64.0625 45.09375 64.984375 
Q 41.3125 65.921875 37.59375 65.921875 
Q 27.828125 65.921875 22.671875 59.328125 
Q 17.53125 52.734375 16.796875 39.40625 
Q 19.671875 43.65625 24.015625 45.921875 
Q 28.375 48.1875 33.59375 48.1875 
Q 44.578125 48.1875 50.953125 41.515625 
Q 57.328125 34.859375 57.328125 23.390625 
Q 57.328125 12.15625 50.6875 5.359375 
Q 44.046875 -1.421875 33.015625 -1.421875 
Q 20.359375 -1.421875 13.671875 8.265625 
Q 6.984375 17.96875 6.984375 36.375 
Q 6.984375 53.65625 15.1875 63.9375 
Q 23.390625 74.21875 37.203125 74.21875 
Q 40.921875 74.21875 44.703125 73.484375 
Q 48.484375 72.75 52.59375 71.296875 
z
" id="DejaVuSans-54"/>
      </defs>
      <g transform="translate(97.275 72.919219)scale(0.1 -0.1)">
       <use xlink:href="#DejaVuSans-54"/>
       <use x="63.623047" xlink:href="#DejaVuSans-48"/>
      </g>
     </g>
    </g>
    <g id="ytick_8">
     <g id="line2d_63">
      <path clip-path="url(#p3b78af2b57)" d="M 117 496.953739 
L 842.4 496.953739 
" style="fill:none;stroke:#d8dcd6;stroke-dasharray:0.8,1.32;stroke-dashoffset:0;stroke-width:0.8;"/>
     </g>
     <g id="line2d_64">
      <defs>
       <path d="M 0 0 
L -2 0 
" id="m9232ab805b" style="stroke:#000000;stroke-width:0.6;"/>
      </defs>
      <g>
       <use style="stroke:#000000;stroke-width:0.6;" x="117" xlink:href="#m9232ab805b" y="496.953739"/>
      </g>
     </g>
    </g>
    <g id="ytick_9">
     <g id="line2d_65">
      <path clip-path="url(#p3b78af2b57)" d="M 117 482.200851 
L 842.4 482.200851 
" style="fill:none;stroke:#d8dcd6;stroke-dasharray:0.8,1.32;stroke-dashoffset:0;stroke-width:0.8;"/>
     </g>
     <g id="line2d_66">
      <g>
       <use style="stroke:#000000;stroke-width:0.6;" x="117" xlink:href="#m9232ab805b" y="482.200851"/>
      </g>
     </g>
    </g>
    <g id="ytick_10">
     <g id="line2d_67">
      <path clip-path="url(#p3b78af2b57)" d="M 117 467.447964 
L 842.4 467.447964 
" style="fill:none;stroke:#d8dcd6;stroke-dasharray:0.8,1.32;stroke-dashoffset:0;stroke-width:0.8;"/>
     </g>
     <g id="line2d_68">
      <g>
       <use style="stroke:#000000;stroke-width:0.6;" x="117" xlink:href="#m9232ab805b" y="467.447964"/>
      </g>
     </g>
    </g>
    <g id="ytick_11">
     <g id="line2d_69">
      <path clip-path="url(#p3b78af2b57)" d="M 117 452.695076 
L 842.4 452.695076 
" style="fill:none;stroke:#d8dcd6;stroke-dasharray:0.8,1.32;stroke-dashoffset:0;stroke-width:0.8;"/>
     </g>
     <g id="line2d_70">
      <g>
       <use style="stroke:#000000;stroke-width:0.6;" x="117" xlink:href="#m9232ab805b" y="452.695076"/>
      </g>
     </g>
    </g>
    <g id="ytick_12">
     <g id="line2d_71">
      <path clip-path="url(#p3b78af2b57)" d="M 117 423.189301 
L 842.4 423.189301 
" style="fill:none;stroke:#d8dcd6;stroke-dasharray:0.8,1.32;stroke-dashoffset:0;stroke-width:0.8;"/>
     </g>
     <g id="line2d_72">
      <g>
       <use style="stroke:#000000;stroke-width:0.6;" x="117" xlink:href="#m9232ab805b" y="423.189301"/>
      </g>
     </g>
    </g>
    <g id="ytick_13">
     <g id="line2d_73">
      <path clip-path="url(#p3b78af2b57)" d="M 117 408.436414 
L 842.4 408.436414 
" style="fill:none;stroke:#d8dcd6;stroke-dasharray:0.8,1.32;stroke-dashoffset:0;stroke-width:0.8;"/>
     </g>
     <g id="line2d_74">
      <g>
       <use style="stroke:#000000;stroke-width:0.6;" x="117" xlink:href="#m9232ab805b" y="408.436414"/>
      </g>
     </g>
    </g>
    <g id="ytick_14">
     <g id="line2d_75">
      <path clip-path="url(#p3b78af2b57)" d="M 117 393.683526 
L 842.4 393.683526 
" style="fill:none;stroke:#d8dcd6;stroke-dasharray:0.8,1.32;stroke-dashoffset:0;stroke-width:0.8;"/>
     </g>
     <g id="line2d_76">
      <g>
       <use style="stroke:#000000;stroke-width:0.6;" x="117" xlink:href="#m9232ab805b" y="393.683526"/>
      </g>
     </g>
    </g>
    <g id="ytick_15">
     <g id="line2d_77">
      <path clip-path="url(#p3b78af2b57)" d="M 117 378.930639 
L 842.4 378.930639 
" style="fill:none;stroke:#d8dcd6;stroke-dasharray:0.8,1.32;stroke-dashoffset:0;stroke-width:0.8;"/>
     </g>
     <g id="line2d_78">
      <g>
       <use style="stroke:#000000;stroke-width:0.6;" x="117" xlink:href="#m9232ab805b" y="378.930639"/>
      </g>
     </g>
    </g>
    <g id="ytick_16">
     <g id="line2d_79">
      <path clip-path="url(#p3b78af2b57)" d="M 117 349.424863 
L 842.4 349.424863 
" style="fill:none;stroke:#d8dcd6;stroke-dasharray:0.8,1.32;stroke-dashoffset:0;stroke-width:0.8;"/>
     </g>
     <g id="line2d_80">
      <g>
       <use style="stroke:#000000;stroke-width:0.6;" x="117" xlink:href="#m9232ab805b" y="349.424863"/>
      </g>
     </g>
    </g>
    <g id="ytick_17">
     <g id="line2d_81">
      <path clip-path="url(#p3b78af2b57)" d="M 117 334.671976 
L 842.4 334.671976 
" style="fill:none;stroke:#d8dcd6;stroke-dasharray:0.8,1.32;stroke-dashoffset:0;stroke-width:0.8;"/>
     </g>
     <g id="line2d_82">
      <g>
       <use style="stroke:#000000;stroke-width:0.6;" x="117" xlink:href="#m9232ab805b" y="334.671976"/>
      </g>
     </g>
    </g>
    <g id="ytick_18">
     <g id="line2d_83">
      <path clip-path="url(#p3b78af2b57)" d="M 117 319.919088 
L 842.4 319.919088 
" style="fill:none;stroke:#d8dcd6;stroke-dasharray:0.8,1.32;stroke-dashoffset:0;stroke-width:0.8;"/>
     </g>
     <g id="line2d_84">
      <g>
       <use style="stroke:#000000;stroke-width:0.6;" x="117" xlink:href="#m9232ab805b" y="319.919088"/>
      </g>
     </g>
    </g>
    <g id="ytick_19">
     <g id="line2d_85">
      <path clip-path="url(#p3b78af2b57)" d="M 117 305.166201 
L 842.4 305.166201 
" style="fill:none;stroke:#d8dcd6;stroke-dasharray:0.8,1.32;stroke-dashoffset:0;stroke-width:0.8;"/>
     </g>
     <g id="line2d_86">
      <g>
       <use style="stroke:#000000;stroke-width:0.6;" x="117" xlink:href="#m9232ab805b" y="305.166201"/>
      </g>
     </g>
    </g>
    <g id="ytick_20">
     <g id="line2d_87">
      <path clip-path="url(#p3b78af2b57)" d="M 117 275.660426 
L 842.4 275.660426 
" style="fill:none;stroke:#d8dcd6;stroke-dasharray:0.8,1.32;stroke-dashoffset:0;stroke-width:0.8;"/>
     </g>
     <g id="line2d_88">
      <g>
       <use style="stroke:#000000;stroke-width:0.6;" x="117" xlink:href="#m9232ab805b" y="275.660426"/>
      </g>
     </g>
    </g>
    <g id="ytick_21">
     <g id="line2d_89">
      <path clip-path="url(#p3b78af2b57)" d="M 117 260.907538 
L 842.4 260.907538 
" style="fill:none;stroke:#d8dcd6;stroke-dasharray:0.8,1.32;stroke-dashoffset:0;stroke-width:0.8;"/>
     </g>
     <g id="line2d_90">
      <g>
       <use style="stroke:#000000;stroke-width:0.6;" x="117" xlink:href="#m9232ab805b" y="260.907538"/>
      </g>
     </g>
    </g>
    <g id="ytick_22">
     <g id="line2d_91">
      <path clip-path="url(#p3b78af2b57)" d="M 117 246.154651 
L 842.4 246.154651 
" style="fill:none;stroke:#d8dcd6;stroke-dasharray:0.8,1.32;stroke-dashoffset:0;stroke-width:0.8;"/>
     </g>
     <g id="line2d_92">
      <g>
       <use style="stroke:#000000;stroke-width:0.6;" x="117" xlink:href="#m9232ab805b" y="246.154651"/>
      </g>
     </g>
    </g>
    <g id="ytick_23">
     <g id="line2d_93">
      <path clip-path="url(#p3b78af2b57)" d="M 117 231.401763 
L 842.4 231.401763 
" style="fill:none;stroke:#d8dcd6;stroke-dasharray:0.8,1.32;stroke-dashoffset:0;stroke-width:0.8;"/>
     </g>
     <g id="line2d_94">
      <g>
       <use style="stroke:#000000;stroke-width:0.6;" x="117" xlink:href="#m9232ab805b" y="231.401763"/>
      </g>
     </g>
    </g>
    <g id="ytick_24">
     <g id="line2d_95">
      <path clip-path="url(#p3b78af2b57)" d="M 117 201.895988 
L 842.4 201.895988 
" style="fill:none;stroke:#d8dcd6;stroke-dasharray:0.8,1.32;stroke-dashoffset:0;stroke-width:0.8;"/>
     </g>
     <g id="line2d_96">
      <g>
       <use style="stroke:#000000;stroke-width:0.6;" x="117" xlink:href="#m9232ab805b" y="201.895988"/>
      </g>
     </g>
    </g>
    <g id="ytick_25">
     <g id="line2d_97">
      <path clip-path="url(#p3b78af2b57)" d="M 117 187.1431 
L 842.4 187.1431 
" style="fill:none;stroke:#d8dcd6;stroke-dasharray:0.8,1.32;stroke-dashoffset:0;stroke-width:0.8;"/>
     </g>
     <g id="line2d_98">
      <g>
       <use style="stroke:#000000;stroke-width:0.6;" x="117" xlink:href="#m9232ab805b" y="187.1431"/>
      </g>
     </g>
    </g>
    <g id="ytick_26">
     <g id="line2d_99">
      <path clip-path="url(#p3b78af2b57)" d="M 117 172.390213 
L 842.4 172.390213 
" style="fill:none;stroke:#d8dcd6;stroke-dasharray:0.8,1.32;stroke-dashoffset:0;stroke-width:0.8;"/>
     </g>
     <g id="line2d_100">
      <g>
       <use style="stroke:#000000;stroke-width:0.6;" x="117" xlink:href="#m9232ab805b" y="172.390213"/>
      </g>
     </g>
    </g>
    <g id="ytick_27">
     <g id="line2d_101">
      <path clip-path="url(#p3b78af2b57)" d="M 117 157.637325 
L 842.4 157.637325 
" style="fill:none;stroke:#d8dcd6;stroke-dasharray:0.8,1.32;stroke-dashoffset:0;stroke-width:0.8;"/>
     </g>
     <g id="line2d_102">
      <g>
       <use style="stroke:#000000;stroke-width:0.6;" x="117" xlink:href="#m9232ab805b" y="157.637325"/>
      </g>
     </g>
    </g>
    <g id="ytick_28">
     <g id="line2d_103">
      <path clip-path="url(#p3b78af2b57)" d="M 117 128.13155 
L 842.4 128.13155 
" style="fill:none;stroke:#d8dcd6;stroke-dasharray:0.8,1.32;stroke-dashoffset:0;stroke-width:0.8;"/>
     </g>
     <g id="line2d_104">
      <g>
       <use style="stroke:#000000;stroke-width:0.6;" x="117" xlink:href="#m9232ab805b" y="128.13155"/>
      </g>
     </g>
    </g>
    <g id="ytick_29">
     <g id="line2d_105">
      <path clip-path="url(#p3b78af2b57)" d="M 117 113.378663 
L 842.4 113.378663 
" style="fill:none;stroke:#d8dcd6;stroke-dasharray:0.8,1.32;stroke-dashoffset:0;stroke-width:0.8;"/>
     </g>
     <g id="line2d_106">
      <g>
       <use style="stroke:#000000;stroke-width:0.6;" x="117" xlink:href="#m9232ab805b" y="113.378663"/>
      </g>
     </g>
    </g>
    <g id="ytick_30">
     <g id="line2d_107">
      <path clip-path="url(#p3b78af2b57)" d="M 117 98.625775 
L 842.4 98.625775 
" style="fill:none;stroke:#d8dcd6;stroke-dasharray:0.8,1.32;stroke-dashoffset:0;stroke-width:0.8;"/>
     </g>
     <g id="line2d_108">
      <g>
       <use style="stroke:#000000;stroke-width:0.6;" x="117" xlink:href="#m9232ab805b" y="98.625775"/>
      </g>
     </g>
    </g>
    <g id="ytick_31">
     <g id="line2d_109">
      <path clip-path="url(#p3b78af2b57)" d="M 117 83.872888 
L 842.4 83.872888 
" style="fill:none;stroke:#d8dcd6;stroke-dasharray:0.8,1.32;stroke-dashoffset:0;stroke-width:0.8;"/>
     </g>
     <g id="line2d_110">
      <g>
       <use style="stroke:#000000;stroke-width:0.6;" x="117" xlink:href="#m9232ab805b" y="83.872888"/>
      </g>
     </g>
    </g>
    <g id="text_13">
     <!-- (backw avg) growth in percent per day -->
     <defs>
      <path d="M 31 75.875 
Q 24.46875 64.65625 21.28125 53.65625 
Q 18.109375 42.671875 18.109375 31.390625 
Q 18.109375 20.125 21.3125 9.0625 
Q 24.515625 -2 31 -13.1875 
L 23.1875 -13.1875 
Q 15.875 -1.703125 12.234375 9.375 
Q 8.59375 20.453125 8.59375 31.390625 
Q 8.59375 42.28125 12.203125 53.3125 
Q 15.828125 64.359375 23.1875 75.875 
z
" id="DejaVuSans-40"/>
      <path d="M 48.6875 27.296875 
Q 48.6875 37.203125 44.609375 42.84375 
Q 40.53125 48.484375 33.40625 48.484375 
Q 26.265625 48.484375 22.1875 42.84375 
Q 18.109375 37.203125 18.109375 27.296875 
Q 18.109375 17.390625 22.1875 11.75 
Q 26.265625 6.109375 33.40625 6.109375 
Q 40.53125 6.109375 44.609375 11.75 
Q 48.6875 17.390625 48.6875 27.296875 
z
M 18.109375 46.390625 
Q 20.953125 51.265625 25.265625 53.625 
Q 29.59375 56 35.59375 56 
Q 45.5625 56 51.78125 48.09375 
Q 58.015625 40.1875 58.015625 27.296875 
Q 58.015625 14.40625 51.78125 6.484375 
Q 45.5625 -1.421875 35.59375 -1.421875 
Q 29.59375 -1.421875 25.265625 0.953125 
Q 20.953125 3.328125 18.109375 8.203125 
L 18.109375 0 
L 9.078125 0 
L 9.078125 75.984375 
L 18.109375 75.984375 
z
" id="DejaVuSans-98"/>
      <path d="M 34.28125 27.484375 
Q 23.390625 27.484375 19.1875 25 
Q 14.984375 22.515625 14.984375 16.5 
Q 14.984375 11.71875 18.140625 8.90625 
Q 21.296875 6.109375 26.703125 6.109375 
Q 34.1875 6.109375 38.703125 11.40625 
Q 43.21875 16.703125 43.21875 25.484375 
L 43.21875 27.484375 
z
M 52.203125 31.203125 
L 52.203125 0 
L 43.21875 0 
L 43.21875 8.296875 
Q 40.140625 3.328125 35.546875 0.953125 
Q 30.953125 -1.421875 24.3125 -1.421875 
Q 15.921875 -1.421875 10.953125 3.296875 
Q 6 8.015625 6 15.921875 
Q 6 25.140625 12.171875 29.828125 
Q 18.359375 34.515625 30.609375 34.515625 
L 43.21875 34.515625 
L 43.21875 35.40625 
Q 43.21875 41.609375 39.140625 45 
Q 35.0625 48.390625 27.6875 48.390625 
Q 23 48.390625 18.546875 47.265625 
Q 14.109375 46.140625 10.015625 43.890625 
L 10.015625 52.203125 
Q 14.9375 54.109375 19.578125 55.046875 
Q 24.21875 56 28.609375 56 
Q 40.484375 56 46.34375 49.84375 
Q 52.203125 43.703125 52.203125 31.203125 
z
" id="DejaVuSans-97"/>
      <path d="M 48.78125 52.59375 
L 48.78125 44.1875 
Q 44.96875 46.296875 41.140625 47.34375 
Q 37.3125 48.390625 33.40625 48.390625 
Q 24.65625 48.390625 19.8125 42.84375 
Q 14.984375 37.3125 14.984375 27.296875 
Q 14.984375 17.28125 19.8125 11.734375 
Q 24.65625 6.203125 33.40625 6.203125 
Q 37.3125 6.203125 41.140625 7.25 
Q 44.96875 8.296875 48.78125 10.40625 
L 48.78125 2.09375 
Q 45.015625 0.34375 40.984375 -0.53125 
Q 36.96875 -1.421875 32.421875 -1.421875 
Q 20.0625 -1.421875 12.78125 6.34375 
Q 5.515625 14.109375 5.515625 27.296875 
Q 5.515625 40.671875 12.859375 48.328125 
Q 20.21875 56 33.015625 56 
Q 37.15625 56 41.109375 55.140625 
Q 45.0625 54.296875 48.78125 52.59375 
z
" id="DejaVuSans-99"/>
      <path d="M 9.078125 75.984375 
L 18.109375 75.984375 
L 18.109375 31.109375 
L 44.921875 54.6875 
L 56.390625 54.6875 
L 27.390625 29.109375 
L 57.625 0 
L 45.90625 0 
L 18.109375 26.703125 
L 18.109375 0 
L 9.078125 0 
z
" id="DejaVuSans-107"/>
      <path d="M 4.203125 54.6875 
L 13.1875 54.6875 
L 24.421875 12.015625 
L 35.59375 54.6875 
L 46.1875 54.6875 
L 57.421875 12.015625 
L 68.609375 54.6875 
L 77.59375 54.6875 
L 63.28125 0 
L 52.6875 0 
L 40.921875 44.828125 
L 29.109375 0 
L 18.5 0 
z
" id="DejaVuSans-119"/>
      <path id="DejaVuSans-32"/>
      <path d="M 2.984375 54.6875 
L 12.5 54.6875 
L 29.59375 8.796875 
L 46.6875 54.6875 
L 56.203125 54.6875 
L 35.6875 0 
L 23.484375 0 
z
" id="DejaVuSans-118"/>
      <path d="M 45.40625 27.984375 
Q 45.40625 37.75 41.375 43.109375 
Q 37.359375 48.484375 30.078125 48.484375 
Q 22.859375 48.484375 18.828125 43.109375 
Q 14.796875 37.75 14.796875 27.984375 
Q 14.796875 18.265625 18.828125 12.890625 
Q 22.859375 7.515625 30.078125 7.515625 
Q 37.359375 7.515625 41.375 12.890625 
Q 45.40625 18.265625 45.40625 27.984375 
z
M 54.390625 6.78125 
Q 54.390625 -7.171875 48.1875 -13.984375 
Q 42 -20.796875 29.203125 -20.796875 
Q 24.46875 -20.796875 20.265625 -20.09375 
Q 16.0625 -19.390625 12.109375 -17.921875 
L 12.109375 -9.1875 
Q 16.0625 -11.328125 19.921875 -12.34375 
Q 23.78125 -13.375 27.78125 -13.375 
Q 36.625 -13.375 41.015625 -8.765625 
Q 45.40625 -4.15625 45.40625 5.171875 
L 45.40625 9.625 
Q 42.625 4.78125 38.28125 2.390625 
Q 33.9375 0 27.875 0 
Q 17.828125 0 11.671875 7.65625 
Q 5.515625 15.328125 5.515625 27.984375 
Q 5.515625 40.671875 11.671875 48.328125 
Q 17.828125 56 27.875 56 
Q 33.9375 56 38.28125 53.609375 
Q 42.625 51.21875 45.40625 46.390625 
L 45.40625 54.6875 
L 54.390625 54.6875 
z
" id="DejaVuSans-103"/>
      <path d="M 8.015625 75.875 
L 15.828125 75.875 
Q 23.140625 64.359375 26.78125 53.3125 
Q 30.421875 42.28125 30.421875 31.390625 
Q 30.421875 20.453125 26.78125 9.375 
Q 23.140625 -1.703125 15.828125 -13.1875 
L 8.015625 -13.1875 
Q 14.5 -2 17.703125 9.0625 
Q 20.90625 20.125 20.90625 31.390625 
Q 20.90625 42.671875 17.703125 53.65625 
Q 14.5 64.65625 8.015625 75.875 
z
" id="DejaVuSans-41"/>
      <path d="M 41.109375 46.296875 
Q 39.59375 47.171875 37.8125 47.578125 
Q 36.03125 48 33.890625 48 
Q 26.265625 48 22.1875 43.046875 
Q 18.109375 38.09375 18.109375 28.8125 
L 18.109375 0 
L 9.078125 0 
L 9.078125 54.6875 
L 18.109375 54.6875 
L 18.109375 46.1875 
Q 20.953125 51.171875 25.484375 53.578125 
Q 30.03125 56 36.53125 56 
Q 37.453125 56 38.578125 55.875 
Q 39.703125 55.765625 41.0625 55.515625 
z
" id="DejaVuSans-114"/>
      <path d="M 30.609375 48.390625 
Q 23.390625 48.390625 19.1875 42.75 
Q 14.984375 37.109375 14.984375 27.296875 
Q 14.984375 17.484375 19.15625 11.84375 
Q 23.34375 6.203125 30.609375 6.203125 
Q 37.796875 6.203125 41.984375 11.859375 
Q 46.1875 17.53125 46.1875 27.296875 
Q 46.1875 37.015625 41.984375 42.703125 
Q 37.796875 48.390625 30.609375 48.390625 
z
M 30.609375 56 
Q 42.328125 56 49.015625 48.375 
Q 55.71875 40.765625 55.71875 27.296875 
Q 55.71875 13.875 49.015625 6.21875 
Q 42.328125 -1.421875 30.609375 -1.421875 
Q 18.84375 -1.421875 12.171875 6.21875 
Q 5.515625 13.875 5.515625 27.296875 
Q 5.515625 40.765625 12.171875 48.375 
Q 18.84375 56 30.609375 56 
z
" id="DejaVuSans-111"/>
      <path d="M 18.3125 70.21875 
L 18.3125 54.6875 
L 36.8125 54.6875 
L 36.8125 47.703125 
L 18.3125 47.703125 
L 18.3125 18.015625 
Q 18.3125 11.328125 20.140625 9.421875 
Q 21.96875 7.515625 27.59375 7.515625 
L 36.8125 7.515625 
L 36.8125 0 
L 27.59375 0 
Q 17.1875 0 13.234375 3.875 
Q 9.28125 7.765625 9.28125 18.015625 
L 9.28125 47.703125 
L 2.6875 47.703125 
L 2.6875 54.6875 
L 9.28125 54.6875 
L 9.28125 70.21875 
z
" id="DejaVuSans-116"/>
      <path d="M 54.890625 33.015625 
L 54.890625 0 
L 45.90625 0 
L 45.90625 32.71875 
Q 45.90625 40.484375 42.875 44.328125 
Q 39.84375 48.1875 33.796875 48.1875 
Q 26.515625 48.1875 22.3125 43.546875 
Q 18.109375 38.921875 18.109375 30.90625 
L 18.109375 0 
L 9.078125 0 
L 9.078125 75.984375 
L 18.109375 75.984375 
L 18.109375 46.1875 
Q 21.34375 51.125 25.703125 53.5625 
Q 30.078125 56 35.796875 56 
Q 45.21875 56 50.046875 50.171875 
Q 54.890625 44.34375 54.890625 33.015625 
z
" id="DejaVuSans-104"/>
      <path d="M 9.421875 54.6875 
L 18.40625 54.6875 
L 18.40625 0 
L 9.421875 0 
z
M 9.421875 75.984375 
L 18.40625 75.984375 
L 18.40625 64.59375 
L 9.421875 64.59375 
z
" id="DejaVuSans-105"/>
      <path d="M 54.890625 33.015625 
L 54.890625 0 
L 45.90625 0 
L 45.90625 32.71875 
Q 45.90625 40.484375 42.875 44.328125 
Q 39.84375 48.1875 33.796875 48.1875 
Q 26.515625 48.1875 22.3125 43.546875 
Q 18.109375 38.921875 18.109375 30.90625 
L 18.109375 0 
L 9.078125 0 
L 9.078125 54.6875 
L 18.109375 54.6875 
L 18.109375 46.1875 
Q 21.34375 51.125 25.703125 53.5625 
Q 30.078125 56 35.796875 56 
Q 45.21875 56 50.046875 50.171875 
Q 54.890625 44.34375 54.890625 33.015625 
z
" id="DejaVuSans-110"/>
      <path d="M 18.109375 8.203125 
L 18.109375 -20.796875 
L 9.078125 -20.796875 
L 9.078125 54.6875 
L 18.109375 54.6875 
L 18.109375 46.390625 
Q 20.953125 51.265625 25.265625 53.625 
Q 29.59375 56 35.59375 56 
Q 45.5625 56 51.78125 48.09375 
Q 58.015625 40.1875 58.015625 27.296875 
Q 58.015625 14.40625 51.78125 6.484375 
Q 45.5625 -1.421875 35.59375 -1.421875 
Q 29.59375 -1.421875 25.265625 0.953125 
Q 20.953125 3.328125 18.109375 8.203125 
z
M 48.6875 27.296875 
Q 48.6875 37.203125 44.609375 42.84375 
Q 40.53125 48.484375 33.40625 48.484375 
Q 26.265625 48.484375 22.1875 42.84375 
Q 18.109375 37.203125 18.109375 27.296875 
Q 18.109375 17.390625 22.1875 11.75 
Q 26.265625 6.109375 33.40625 6.109375 
Q 40.53125 6.109375 44.609375 11.75 
Q 48.6875 17.390625 48.6875 27.296875 
z
" id="DejaVuSans-112"/>
      <path d="M 56.203125 29.59375 
L 56.203125 25.203125 
L 14.890625 25.203125 
Q 15.484375 15.921875 20.484375 11.0625 
Q 25.484375 6.203125 34.421875 6.203125 
Q 39.59375 6.203125 44.453125 7.46875 
Q 49.3125 8.734375 54.109375 11.28125 
L 54.109375 2.78125 
Q 49.265625 0.734375 44.1875 -0.34375 
Q 39.109375 -1.421875 33.890625 -1.421875 
Q 20.796875 -1.421875 13.15625 6.1875 
Q 5.515625 13.8125 5.515625 26.8125 
Q 5.515625 40.234375 12.765625 48.109375 
Q 20.015625 56 32.328125 56 
Q 43.359375 56 49.78125 48.890625 
Q 56.203125 41.796875 56.203125 29.59375 
z
M 47.21875 32.234375 
Q 47.125 39.59375 43.09375 43.984375 
Q 39.0625 48.390625 32.421875 48.390625 
Q 24.90625 48.390625 20.390625 44.140625 
Q 15.875 39.890625 15.1875 32.171875 
z
" id="DejaVuSans-101"/>
      <path d="M 45.40625 46.390625 
L 45.40625 75.984375 
L 54.390625 75.984375 
L 54.390625 0 
L 45.40625 0 
L 45.40625 8.203125 
Q 42.578125 3.328125 38.25 0.953125 
Q 33.9375 -1.421875 27.875 -1.421875 
Q 17.96875 -1.421875 11.734375 6.484375 
Q 5.515625 14.40625 5.515625 27.296875 
Q 5.515625 40.1875 11.734375 48.09375 
Q 17.96875 56 27.875 56 
Q 33.9375 56 38.25 53.625 
Q 42.578125 51.265625 45.40625 46.390625 
z
M 14.796875 27.296875 
Q 14.796875 17.390625 18.875 11.75 
Q 22.953125 6.109375 30.078125 6.109375 
Q 37.203125 6.109375 41.296875 11.75 
Q 45.40625 17.390625 45.40625 27.296875 
Q 45.40625 37.203125 41.296875 42.84375 
Q 37.203125 48.484375 30.078125 48.484375 
Q 22.953125 48.484375 18.875 42.84375 
Q 14.796875 37.203125 14.796875 27.296875 
z
" id="DejaVuSans-100"/>
      <path d="M 32.171875 -5.078125 
Q 28.375 -14.84375 24.75 -17.8125 
Q 21.140625 -20.796875 15.09375 -20.796875 
L 7.90625 -20.796875 
L 7.90625 -13.28125 
L 13.1875 -13.28125 
Q 16.890625 -13.28125 18.9375 -11.515625 
Q 21 -9.765625 23.484375 -3.21875 
L 25.09375 0.875 
L 2.984375 54.6875 
L 12.5 54.6875 
L 29.59375 11.921875 
L 46.6875 54.6875 
L 56.203125 54.6875 
z
" id="DejaVuSans-121"/>
     </defs>
     <g transform="translate(91.195312 388.090156)rotate(-90)scale(0.1 -0.1)">
      <use xlink:href="#DejaVuSans-40"/>
      <use x="39.013672" xlink:href="#DejaVuSans-98"/>
      <use x="102.490234" xlink:href="#DejaVuSans-97"/>
      <use x="163.769531" xlink:href="#DejaVuSans-99"/>
      <use x="218.75" xlink:href="#DejaVuSans-107"/>
      <use x="276.660156" xlink:href="#DejaVuSans-119"/>
      <use x="358.447266" xlink:href="#DejaVuSans-32"/>
      <use x="390.234375" xlink:href="#DejaVuSans-97"/>
      <use x="451.513672" xlink:href="#DejaVuSans-118"/>
      <use x="510.693359" xlink:href="#DejaVuSans-103"/>
      <use x="574.169922" xlink:href="#DejaVuSans-41"/>
      <use x="613.183594" xlink:href="#DejaVuSans-32"/>
      <use x="644.970703" xlink:href="#DejaVuSans-103"/>
      <use x="708.447266" xlink:href="#DejaVuSans-114"/>
      <use x="747.310547" xlink:href="#DejaVuSans-111"/>
      <use x="808.492188" xlink:href="#DejaVuSans-119"/>
      <use x="890.279297" xlink:href="#DejaVuSans-116"/>
      <use x="929.488281" xlink:href="#DejaVuSans-104"/>
      <use x="992.867188" xlink:href="#DejaVuSans-32"/>
      <use x="1024.654297" xlink:href="#DejaVuSans-105"/>
      <use x="1052.4375" xlink:href="#DejaVuSans-110"/>
      <use x="1115.816406" xlink:href="#DejaVuSans-32"/>
      <use x="1147.603516" xlink:href="#DejaVuSans-112"/>
      <use x="1211.080078" xlink:href="#DejaVuSans-101"/>
      <use x="1272.603516" xlink:href="#DejaVuSans-114"/>
      <use x="1311.466797" xlink:href="#DejaVuSans-99"/>
      <use x="1366.447266" xlink:href="#DejaVuSans-101"/>
      <use x="1427.970703" xlink:href="#DejaVuSans-110"/>
      <use x="1491.349609" xlink:href="#DejaVuSans-116"/>
      <use x="1530.558594" xlink:href="#DejaVuSans-32"/>
      <use x="1562.345703" xlink:href="#DejaVuSans-112"/>
      <use x="1625.822266" xlink:href="#DejaVuSans-101"/>
      <use x="1687.345703" xlink:href="#DejaVuSans-114"/>
      <use x="1728.458984" xlink:href="#DejaVuSans-32"/>
      <use x="1760.246094" xlink:href="#DejaVuSans-100"/>
      <use x="1823.722656" xlink:href="#DejaVuSans-97"/>
      <use x="1885.001953" xlink:href="#DejaVuSans-121"/>
     </g>
    </g>
   </g>
   <g id="line2d_111">
    <path clip-path="url(#p3b78af2b57)" d="M 185.3485 -1 
L 197.076623 283.547805 
L 212.777922 287.580404 
L 228.479221 273.539215 
L 244.180519 285.917878 
L 259.881818 310.759005 
L 275.583117 261.594929 
L 291.284416 124.950262 
L 306.985714 191.225327 
L 322.687013 239.716118 
L 338.388312 248.456601 
L 354.08961 323.813249 
L 369.790909 243.914923 
L 385.492208 209.52764 
L 401.193506 280.802949 
L 416.894805 263.504511 
L 432.596104 404.879282 
L 448.297403 336.686553 
L 463.998701 275.648533 
L 479.7 367.592885 
L 495.401299 346.656567 
L 511.102597 381.67382 
L 526.803896 382.820884 
L 542.505195 389.000991 
L 558.206494 391.039464 
L 573.907792 371.264834 
L 589.609091 389.707285 
L 605.31039 421.517506 
L 621.011688 426.146943 
L 636.712987 429.717144 
L 652.414286 439.773125 
L 668.115584 435.471584 
L 683.816883 434.567706 
L 699.518182 448.031398 
L 715.219481 456.103664 
L 730.920779 457.290381 
L 746.622078 463.514842 
L 762.323377 468.823845 
L 778.024675 470.096305 
L 793.725974 474.301734 
L 809.427273 482.006892 
" style="fill:none;stroke:#1f77b4;stroke-linecap:square;stroke-width:1.5;"/>
    <defs>
     <path d="M 0 3 
C 0.795609 3 1.55874 2.683901 2.12132 2.12132 
C 2.683901 1.55874 3 0.795609 3 0 
C 3 -0.795609 2.683901 -1.55874 2.12132 -2.12132 
C 1.55874 -2.683901 0.795609 -3 0 -3 
C -0.795609 -3 -1.55874 -2.683901 -2.12132 -2.12132 
C -2.683901 -1.55874 -3 -0.795609 -3 0 
C -3 0.795609 -2.683901 1.55874 -2.12132 2.12132 
C -1.55874 2.683901 -0.795609 3 0 3 
z
" id="m3765cc3835" style="stroke:#1f77b4;"/>
    </defs>
    <g clip-path="url(#p3b78af2b57)">
     <use style="fill:#1f77b4;stroke:#1f77b4;" x="185.3485" xlink:href="#m3765cc3835" y="-1"/>
     <use style="fill:#1f77b4;stroke:#1f77b4;" x="197.076623" xlink:href="#m3765cc3835" y="283.547805"/>
     <use style="fill:#1f77b4;stroke:#1f77b4;" x="212.777922" xlink:href="#m3765cc3835" y="287.580404"/>
     <use style="fill:#1f77b4;stroke:#1f77b4;" x="228.479221" xlink:href="#m3765cc3835" y="273.539215"/>
     <use style="fill:#1f77b4;stroke:#1f77b4;" x="244.180519" xlink:href="#m3765cc3835" y="285.917878"/>
     <use style="fill:#1f77b4;stroke:#1f77b4;" x="259.881818" xlink:href="#m3765cc3835" y="310.759005"/>
     <use style="fill:#1f77b4;stroke:#1f77b4;" x="275.583117" xlink:href="#m3765cc3835" y="261.594929"/>
     <use style="fill:#1f77b4;stroke:#1f77b4;" x="291.284416" xlink:href="#m3765cc3835" y="124.950262"/>
     <use style="fill:#1f77b4;stroke:#1f77b4;" x="306.985714" xlink:href="#m3765cc3835" y="191.225327"/>
     <use style="fill:#1f77b4;stroke:#1f77b4;" x="322.687013" xlink:href="#m3765cc3835" y="239.716118"/>
     <use style="fill:#1f77b4;stroke:#1f77b4;" x="338.388312" xlink:href="#m3765cc3835" y="248.456601"/>
     <use style="fill:#1f77b4;stroke:#1f77b4;" x="354.08961" xlink:href="#m3765cc3835" y="323.813249"/>
     <use style="fill:#1f77b4;stroke:#1f77b4;" x="369.790909" xlink:href="#m3765cc3835" y="243.914923"/>
     <use style="fill:#1f77b4;stroke:#1f77b4;" x="385.492208" xlink:href="#m3765cc3835" y="209.52764"/>
     <use style="fill:#1f77b4;stroke:#1f77b4;" x="401.193506" xlink:href="#m3765cc3835" y="280.802949"/>
     <use style="fill:#1f77b4;stroke:#1f77b4;" x="416.894805" xlink:href="#m3765cc3835" y="263.504511"/>
     <use style="fill:#1f77b4;stroke:#1f77b4;" x="432.596104" xlink:href="#m3765cc3835" y="404.879282"/>
     <use style="fill:#1f77b4;stroke:#1f77b4;" x="448.297403" xlink:href="#m3765cc3835" y="336.686553"/>
     <use style="fill:#1f77b4;stroke:#1f77b4;" x="463.998701" xlink:href="#m3765cc3835" y="275.648533"/>
     <use style="fill:#1f77b4;stroke:#1f77b4;" x="479.7" xlink:href="#m3765cc3835" y="367.592885"/>
     <use style="fill:#1f77b4;stroke:#1f77b4;" x="495.401299" xlink:href="#m3765cc3835" y="346.656567"/>
     <use style="fill:#1f77b4;stroke:#1f77b4;" x="511.102597" xlink:href="#m3765cc3835" y="381.67382"/>
     <use style="fill:#1f77b4;stroke:#1f77b4;" x="526.803896" xlink:href="#m3765cc3835" y="382.820884"/>
     <use style="fill:#1f77b4;stroke:#1f77b4;" x="542.505195" xlink:href="#m3765cc3835" y="389.000991"/>
     <use style="fill:#1f77b4;stroke:#1f77b4;" x="558.206494" xlink:href="#m3765cc3835" y="391.039464"/>
     <use style="fill:#1f77b4;stroke:#1f77b4;" x="573.907792" xlink:href="#m3765cc3835" y="371.264834"/>
     <use style="fill:#1f77b4;stroke:#1f77b4;" x="589.609091" xlink:href="#m3765cc3835" y="389.707285"/>
     <use style="fill:#1f77b4;stroke:#1f77b4;" x="605.31039" xlink:href="#m3765cc3835" y="421.517506"/>
     <use style="fill:#1f77b4;stroke:#1f77b4;" x="621.011688" xlink:href="#m3765cc3835" y="426.146943"/>
     <use style="fill:#1f77b4;stroke:#1f77b4;" x="636.712987" xlink:href="#m3765cc3835" y="429.717144"/>
     <use style="fill:#1f77b4;stroke:#1f77b4;" x="652.414286" xlink:href="#m3765cc3835" y="439.773125"/>
     <use style="fill:#1f77b4;stroke:#1f77b4;" x="668.115584" xlink:href="#m3765cc3835" y="435.471584"/>
     <use style="fill:#1f77b4;stroke:#1f77b4;" x="683.816883" xlink:href="#m3765cc3835" y="434.567706"/>
     <use style="fill:#1f77b4;stroke:#1f77b4;" x="699.518182" xlink:href="#m3765cc3835" y="448.031398"/>
     <use style="fill:#1f77b4;stroke:#1f77b4;" x="715.219481" xlink:href="#m3765cc3835" y="456.103664"/>
     <use style="fill:#1f77b4;stroke:#1f77b4;" x="730.920779" xlink:href="#m3765cc3835" y="457.290381"/>
     <use style="fill:#1f77b4;stroke:#1f77b4;" x="746.622078" xlink:href="#m3765cc3835" y="463.514842"/>
     <use style="fill:#1f77b4;stroke:#1f77b4;" x="762.323377" xlink:href="#m3765cc3835" y="468.823845"/>
     <use style="fill:#1f77b4;stroke:#1f77b4;" x="778.024675" xlink:href="#m3765cc3835" y="470.096305"/>
     <use style="fill:#1f77b4;stroke:#1f77b4;" x="793.725974" xlink:href="#m3765cc3835" y="474.301734"/>
     <use style="fill:#1f77b4;stroke:#1f77b4;" x="809.427273" xlink:href="#m3765cc3835" y="482.006892"/>
    </g>
   </g>
   <g id="line2d_112">
    <path clip-path="url(#p3b78af2b57)" d="M 187.504286 -1 
L 197.076623 94.875163 
L 212.777922 111.254857 
L 228.479221 278.556408 
L 244.180519 286.7495 
L 259.881818 292.330034 
L 275.583117 273.832207 
L 291.284416 222.046989 
L 306.985714 227.01541 
L 322.687013 183.877299 
L 338.388312 220.238732 
L 354.08961 282.678771 
L 369.790909 246.188332 
L 385.492208 268.333277 
L 401.193506 262.531284 
L 416.894805 236.875712 
L 432.596104 344.966437 
L 448.297403 300.801033 
L 463.998701 342.563155 
L 479.7 352.272808 
L 495.401299 311.824576 
L 511.102597 374.661687 
L 526.803896 364.923551 
L 542.505195 385.345172 
L 558.206494 386.939964 
L 573.907792 380.178151 
L 589.609091 390.373633 
L 605.31039 396.761334 
L 621.011688 408.124399 
L 636.712987 425.627528 
L 652.414286 432.988463 
L 668.115584 432.599432 
L 683.816883 437.174586 
L 699.518182 441.775908 
L 715.219481 445.407795 
L 730.920779 452.674341 
L 746.622078 459.817949 
L 762.323377 463.07826 
L 778.024675 466.812493 
L 793.725974 471.567612 
L 809.427273 476.07453 
" style="fill:none;stroke:#ff7f0e;stroke-linecap:square;stroke-width:1.5;"/>
    <defs>
     <path d="M 0 3 
C 0.795609 3 1.55874 2.683901 2.12132 2.12132 
C 2.683901 1.55874 3 0.795609 3 0 
C 3 -0.795609 2.683901 -1.55874 2.12132 -2.12132 
C 1.55874 -2.683901 0.795609 -3 0 -3 
C -0.795609 -3 -1.55874 -2.683901 -2.12132 -2.12132 
C -2.683901 -1.55874 -3 -0.795609 -3 0 
C -3 0.795609 -2.683901 1.55874 -2.12132 2.12132 
C -1.55874 2.683901 -0.795609 3 0 3 
z
" id="m9cc714e7c6" style="stroke:#ff7f0e;"/>
    </defs>
    <g clip-path="url(#p3b78af2b57)">
     <use style="fill:#ff7f0e;stroke:#ff7f0e;" x="187.504286" xlink:href="#m9cc714e7c6" y="-1"/>
     <use style="fill:#ff7f0e;stroke:#ff7f0e;" x="197.076623" xlink:href="#m9cc714e7c6" y="94.875163"/>
     <use style="fill:#ff7f0e;stroke:#ff7f0e;" x="212.777922" xlink:href="#m9cc714e7c6" y="111.254857"/>
     <use style="fill:#ff7f0e;stroke:#ff7f0e;" x="228.479221" xlink:href="#m9cc714e7c6" y="278.556408"/>
     <use style="fill:#ff7f0e;stroke:#ff7f0e;" x="244.180519" xlink:href="#m9cc714e7c6" y="286.7495"/>
     <use style="fill:#ff7f0e;stroke:#ff7f0e;" x="259.881818" xlink:href="#m9cc714e7c6" y="292.330034"/>
     <use style="fill:#ff7f0e;stroke:#ff7f0e;" x="275.583117" xlink:href="#m9cc714e7c6" y="273.832207"/>
     <use style="fill:#ff7f0e;stroke:#ff7f0e;" x="291.284416" xlink:href="#m9cc714e7c6" y="222.046989"/>
     <use style="fill:#ff7f0e;stroke:#ff7f0e;" x="306.985714" xlink:href="#m9cc714e7c6" y="227.01541"/>
     <use style="fill:#ff7f0e;stroke:#ff7f0e;" x="322.687013" xlink:href="#m9cc714e7c6" y="183.877299"/>
     <use style="fill:#ff7f0e;stroke:#ff7f0e;" x="338.388312" xlink:href="#m9cc714e7c6" y="220.238732"/>
     <use style="fill:#ff7f0e;stroke:#ff7f0e;" x="354.08961" xlink:href="#m9cc714e7c6" y="282.678771"/>
     <use style="fill:#ff7f0e;stroke:#ff7f0e;" x="369.790909" xlink:href="#m9cc714e7c6" y="246.188332"/>
     <use style="fill:#ff7f0e;stroke:#ff7f0e;" x="385.492208" xlink:href="#m9cc714e7c6" y="268.333277"/>
     <use style="fill:#ff7f0e;stroke:#ff7f0e;" x="401.193506" xlink:href="#m9cc714e7c6" y="262.531284"/>
     <use style="fill:#ff7f0e;stroke:#ff7f0e;" x="416.894805" xlink:href="#m9cc714e7c6" y="236.875712"/>
     <use style="fill:#ff7f0e;stroke:#ff7f0e;" x="432.596104" xlink:href="#m9cc714e7c6" y="344.966437"/>
     <use style="fill:#ff7f0e;stroke:#ff7f0e;" x="448.297403" xlink:href="#m9cc714e7c6" y="300.801033"/>
     <use style="fill:#ff7f0e;stroke:#ff7f0e;" x="463.998701" xlink:href="#m9cc714e7c6" y="342.563155"/>
     <use style="fill:#ff7f0e;stroke:#ff7f0e;" x="479.7" xlink:href="#m9cc714e7c6" y="352.272808"/>
     <use style="fill:#ff7f0e;stroke:#ff7f0e;" x="495.401299" xlink:href="#m9cc714e7c6" y="311.824576"/>
     <use style="fill:#ff7f0e;stroke:#ff7f0e;" x="511.102597" xlink:href="#m9cc714e7c6" y="374.661687"/>
     <use style="fill:#ff7f0e;stroke:#ff7f0e;" x="526.803896" xlink:href="#m9cc714e7c6" y="364.923551"/>
     <use style="fill:#ff7f0e;stroke:#ff7f0e;" x="542.505195" xlink:href="#m9cc714e7c6" y="385.345172"/>
     <use style="fill:#ff7f0e;stroke:#ff7f0e;" x="558.206494" xlink:href="#m9cc714e7c6" y="386.939964"/>
     <use style="fill:#ff7f0e;stroke:#ff7f0e;" x="573.907792" xlink:href="#m9cc714e7c6" y="380.178151"/>
     <use style="fill:#ff7f0e;stroke:#ff7f0e;" x="589.609091" xlink:href="#m9cc714e7c6" y="390.373633"/>
     <use style="fill:#ff7f0e;stroke:#ff7f0e;" x="605.31039" xlink:href="#m9cc714e7c6" y="396.761334"/>
     <use style="fill:#ff7f0e;stroke:#ff7f0e;" x="621.011688" xlink:href="#m9cc714e7c6" y="408.124399"/>
     <use style="fill:#ff7f0e;stroke:#ff7f0e;" x="636.712987" xlink:href="#m9cc714e7c6" y="425.627528"/>
     <use style="fill:#ff7f0e;stroke:#ff7f0e;" x="652.414286" xlink:href="#m9cc714e7c6" y="432.988463"/>
     <use style="fill:#ff7f0e;stroke:#ff7f0e;" x="668.115584" xlink:href="#m9cc714e7c6" y="432.599432"/>
     <use style="fill:#ff7f0e;stroke:#ff7f0e;" x="683.816883" xlink:href="#m9cc714e7c6" y="437.174586"/>
     <use style="fill:#ff7f0e;stroke:#ff7f0e;" x="699.518182" xlink:href="#m9cc714e7c6" y="441.775908"/>
     <use style="fill:#ff7f0e;stroke:#ff7f0e;" x="715.219481" xlink:href="#m9cc714e7c6" y="445.407795"/>
     <use style="fill:#ff7f0e;stroke:#ff7f0e;" x="730.920779" xlink:href="#m9cc714e7c6" y="452.674341"/>
     <use style="fill:#ff7f0e;stroke:#ff7f0e;" x="746.622078" xlink:href="#m9cc714e7c6" y="459.817949"/>
     <use style="fill:#ff7f0e;stroke:#ff7f0e;" x="762.323377" xlink:href="#m9cc714e7c6" y="463.07826"/>
     <use style="fill:#ff7f0e;stroke:#ff7f0e;" x="778.024675" xlink:href="#m9cc714e7c6" y="466.812493"/>
     <use style="fill:#ff7f0e;stroke:#ff7f0e;" x="793.725974" xlink:href="#m9cc714e7c6" y="471.567612"/>
     <use style="fill:#ff7f0e;stroke:#ff7f0e;" x="809.427273" xlink:href="#m9cc714e7c6" y="476.07453"/>
    </g>
   </g>
   <g id="line2d_113">
    <path clip-path="url(#p3b78af2b57)" d="M 228.479221 109.795437 
L 244.180519 168.522596 
L 259.881818 205.90601 
L 275.583117 267.010435 
L 291.284416 258.337715 
L 306.985714 241.049871 
L 322.687013 244.489967 
L 338.388312 233.711803 
L 354.08961 255.945093 
L 369.790909 213.550978 
L 385.492208 241.257106 
L 401.193506 256.779858 
L 416.894805 261.431477 
L 432.596104 306.167601 
L 448.297403 287.138576 
L 463.998701 292.397042 
L 479.7 322.555711 
L 495.401299 330.293226 
L 511.102597 351.225045 
L 526.803896 363.551381 
L 542.505195 346.432206 
L 558.206494 378.955615 
L 573.907792 372.707079 
L 589.609091 385.249272 
L 605.31039 394.124784 
L 621.011688 398.142191 
L 636.712987 407.612735 
L 652.414286 412.807503 
L 668.115584 420.299729 
L 683.816883 430.501221 
L 699.518182 436.775979 
L 715.219481 440.425173 
L 730.920779 445.680521 
L 746.622078 450.099257 
L 762.323377 454.027977 
L 778.024675 459.965537 
L 793.725974 465.307975 
L 809.427273 469.676667 
" style="fill:none;stroke:#2ca02c;stroke-linecap:square;stroke-width:1.5;"/>
    <defs>
     <path d="M 0 3 
C 0.795609 3 1.55874 2.683901 2.12132 2.12132 
C 2.683901 1.55874 3 0.795609 3 0 
C 3 -0.795609 2.683901 -1.55874 2.12132 -2.12132 
C 1.55874 -2.683901 0.795609 -3 0 -3 
C -0.795609 -3 -1.55874 -2.683901 -2.12132 -2.12132 
C -2.683901 -1.55874 -3 -0.795609 -3 0 
C -3 0.795609 -2.683901 1.55874 -2.12132 2.12132 
C -1.55874 2.683901 -0.795609 3 0 3 
z
" id="mef47b3daa9" style="stroke:#2ca02c;"/>
    </defs>
    <g clip-path="url(#p3b78af2b57)">
     <use style="fill:#2ca02c;stroke:#2ca02c;" x="228.479221" xlink:href="#mef47b3daa9" y="109.795437"/>
     <use style="fill:#2ca02c;stroke:#2ca02c;" x="244.180519" xlink:href="#mef47b3daa9" y="168.522596"/>
     <use style="fill:#2ca02c;stroke:#2ca02c;" x="259.881818" xlink:href="#mef47b3daa9" y="205.90601"/>
     <use style="fill:#2ca02c;stroke:#2ca02c;" x="275.583117" xlink:href="#mef47b3daa9" y="267.010435"/>
     <use style="fill:#2ca02c;stroke:#2ca02c;" x="291.284416" xlink:href="#mef47b3daa9" y="258.337715"/>
     <use style="fill:#2ca02c;stroke:#2ca02c;" x="306.985714" xlink:href="#mef47b3daa9" y="241.049871"/>
     <use style="fill:#2ca02c;stroke:#2ca02c;" x="322.687013" xlink:href="#mef47b3daa9" y="244.489967"/>
     <use style="fill:#2ca02c;stroke:#2ca02c;" x="338.388312" xlink:href="#mef47b3daa9" y="233.711803"/>
     <use style="fill:#2ca02c;stroke:#2ca02c;" x="354.08961" xlink:href="#mef47b3daa9" y="255.945093"/>
     <use style="fill:#2ca02c;stroke:#2ca02c;" x="369.790909" xlink:href="#mef47b3daa9" y="213.550978"/>
     <use style="fill:#2ca02c;stroke:#2ca02c;" x="385.492208" xlink:href="#mef47b3daa9" y="241.257106"/>
     <use style="fill:#2ca02c;stroke:#2ca02c;" x="401.193506" xlink:href="#mef47b3daa9" y="256.779858"/>
     <use style="fill:#2ca02c;stroke:#2ca02c;" x="416.894805" xlink:href="#mef47b3daa9" y="261.431477"/>
     <use style="fill:#2ca02c;stroke:#2ca02c;" x="432.596104" xlink:href="#mef47b3daa9" y="306.167601"/>
     <use style="fill:#2ca02c;stroke:#2ca02c;" x="448.297403" xlink:href="#mef47b3daa9" y="287.138576"/>
     <use style="fill:#2ca02c;stroke:#2ca02c;" x="463.998701" xlink:href="#mef47b3daa9" y="292.397042"/>
     <use style="fill:#2ca02c;stroke:#2ca02c;" x="479.7" xlink:href="#mef47b3daa9" y="322.555711"/>
     <use style="fill:#2ca02c;stroke:#2ca02c;" x="495.401299" xlink:href="#mef47b3daa9" y="330.293226"/>
     <use style="fill:#2ca02c;stroke:#2ca02c;" x="511.102597" xlink:href="#mef47b3daa9" y="351.225045"/>
     <use style="fill:#2ca02c;stroke:#2ca02c;" x="526.803896" xlink:href="#mef47b3daa9" y="363.551381"/>
     <use style="fill:#2ca02c;stroke:#2ca02c;" x="542.505195" xlink:href="#mef47b3daa9" y="346.432206"/>
     <use style="fill:#2ca02c;stroke:#2ca02c;" x="558.206494" xlink:href="#mef47b3daa9" y="378.955615"/>
     <use style="fill:#2ca02c;stroke:#2ca02c;" x="573.907792" xlink:href="#mef47b3daa9" y="372.707079"/>
     <use style="fill:#2ca02c;stroke:#2ca02c;" x="589.609091" xlink:href="#mef47b3daa9" y="385.249272"/>
     <use style="fill:#2ca02c;stroke:#2ca02c;" x="605.31039" xlink:href="#mef47b3daa9" y="394.124784"/>
     <use style="fill:#2ca02c;stroke:#2ca02c;" x="621.011688" xlink:href="#mef47b3daa9" y="398.142191"/>
     <use style="fill:#2ca02c;stroke:#2ca02c;" x="636.712987" xlink:href="#mef47b3daa9" y="407.612735"/>
     <use style="fill:#2ca02c;stroke:#2ca02c;" x="652.414286" xlink:href="#mef47b3daa9" y="412.807503"/>
     <use style="fill:#2ca02c;stroke:#2ca02c;" x="668.115584" xlink:href="#mef47b3daa9" y="420.299729"/>
     <use style="fill:#2ca02c;stroke:#2ca02c;" x="683.816883" xlink:href="#mef47b3daa9" y="430.501221"/>
     <use style="fill:#2ca02c;stroke:#2ca02c;" x="699.518182" xlink:href="#mef47b3daa9" y="436.775979"/>
     <use style="fill:#2ca02c;stroke:#2ca02c;" x="715.219481" xlink:href="#mef47b3daa9" y="440.425173"/>
     <use style="fill:#2ca02c;stroke:#2ca02c;" x="730.920779" xlink:href="#mef47b3daa9" y="445.680521"/>
     <use style="fill:#2ca02c;stroke:#2ca02c;" x="746.622078" xlink:href="#mef47b3daa9" y="450.099257"/>
     <use style="fill:#2ca02c;stroke:#2ca02c;" x="762.323377" xlink:href="#mef47b3daa9" y="454.027977"/>
     <use style="fill:#2ca02c;stroke:#2ca02c;" x="778.024675" xlink:href="#mef47b3daa9" y="459.965537"/>
     <use style="fill:#2ca02c;stroke:#2ca02c;" x="793.725974" xlink:href="#mef47b3daa9" y="465.307975"/>
     <use style="fill:#2ca02c;stroke:#2ca02c;" x="809.427273" xlink:href="#mef47b3daa9" y="469.676667"/>
    </g>
   </g>
   <g id="line2d_114">
    <path clip-path="url(#p3b78af2b57)" d="M 338.388312 173.536287 
L 354.08961 213.1554 
L 369.790909 209.735521 
L 385.492208 254.217077 
L 401.193506 257.559092 
L 416.894805 251.2927 
L 432.596104 275.817105 
L 448.297403 260.786053 
L 463.998701 274.341403 
L 479.7 269.568074 
L 495.401299 286.804102 
L 511.102597 305.182633 
L 526.803896 313.883878 
L 542.505195 326.519479 
L 558.206494 334.197869 
L 573.907792 333.431861 
L 589.609091 354.451335 
L 605.31039 362.783291 
L 621.011688 374.998254 
L 636.712987 385.863053 
L 652.414286 380.253281 
L 668.115584 399.879164 
L 683.816883 402.096799 
L 699.518182 411.408592 
L 715.219481 417.597086 
L 730.920779 422.252825 
L 746.622078 429.131044 
L 762.323377 433.678086 
L 778.024675 440.375709 
L 793.725974 448.093577 
L 809.427273 453.396298 
" style="fill:none;stroke:#d62728;stroke-linecap:square;stroke-width:1.5;"/>
    <defs>
     <path d="M 0 3 
C 0.795609 3 1.55874 2.683901 2.12132 2.12132 
C 2.683901 1.55874 3 0.795609 3 0 
C 3 -0.795609 2.683901 -1.55874 2.12132 -2.12132 
C 1.55874 -2.683901 0.795609 -3 0 -3 
C -0.795609 -3 -1.55874 -2.683901 -2.12132 -2.12132 
C -2.683901 -1.55874 -3 -0.795609 -3 0 
C -3 0.795609 -2.683901 1.55874 -2.12132 2.12132 
C -1.55874 2.683901 -0.795609 3 0 3 
z
" id="m03232acba6" style="stroke:#d62728;"/>
    </defs>
    <g clip-path="url(#p3b78af2b57)">
     <use style="fill:#d62728;stroke:#d62728;" x="338.388312" xlink:href="#m03232acba6" y="173.536287"/>
     <use style="fill:#d62728;stroke:#d62728;" x="354.08961" xlink:href="#m03232acba6" y="213.1554"/>
     <use style="fill:#d62728;stroke:#d62728;" x="369.790909" xlink:href="#m03232acba6" y="209.735521"/>
     <use style="fill:#d62728;stroke:#d62728;" x="385.492208" xlink:href="#m03232acba6" y="254.217077"/>
     <use style="fill:#d62728;stroke:#d62728;" x="401.193506" xlink:href="#m03232acba6" y="257.559092"/>
     <use style="fill:#d62728;stroke:#d62728;" x="416.894805" xlink:href="#m03232acba6" y="251.2927"/>
     <use style="fill:#d62728;stroke:#d62728;" x="432.596104" xlink:href="#m03232acba6" y="275.817105"/>
     <use style="fill:#d62728;stroke:#d62728;" x="448.297403" xlink:href="#m03232acba6" y="260.786053"/>
     <use style="fill:#d62728;stroke:#d62728;" x="463.998701" xlink:href="#m03232acba6" y="274.341403"/>
     <use style="fill:#d62728;stroke:#d62728;" x="479.7" xlink:href="#m03232acba6" y="269.568074"/>
     <use style="fill:#d62728;stroke:#d62728;" x="495.401299" xlink:href="#m03232acba6" y="286.804102"/>
     <use style="fill:#d62728;stroke:#d62728;" x="511.102597" xlink:href="#m03232acba6" y="305.182633"/>
     <use style="fill:#d62728;stroke:#d62728;" x="526.803896" xlink:href="#m03232acba6" y="313.883878"/>
     <use style="fill:#d62728;stroke:#d62728;" x="542.505195" xlink:href="#m03232acba6" y="326.519479"/>
     <use style="fill:#d62728;stroke:#d62728;" x="558.206494" xlink:href="#m03232acba6" y="334.197869"/>
     <use style="fill:#d62728;stroke:#d62728;" x="573.907792" xlink:href="#m03232acba6" y="333.431861"/>
     <use style="fill:#d62728;stroke:#d62728;" x="589.609091" xlink:href="#m03232acba6" y="354.451335"/>
     <use style="fill:#d62728;stroke:#d62728;" x="605.31039" xlink:href="#m03232acba6" y="362.783291"/>
     <use style="fill:#d62728;stroke:#d62728;" x="621.011688" xlink:href="#m03232acba6" y="374.998254"/>
     <use style="fill:#d62728;stroke:#d62728;" x="636.712987" xlink:href="#m03232acba6" y="385.863053"/>
     <use style="fill:#d62728;stroke:#d62728;" x="652.414286" xlink:href="#m03232acba6" y="380.253281"/>
     <use style="fill:#d62728;stroke:#d62728;" x="668.115584" xlink:href="#m03232acba6" y="399.879164"/>
     <use style="fill:#d62728;stroke:#d62728;" x="683.816883" xlink:href="#m03232acba6" y="402.096799"/>
     <use style="fill:#d62728;stroke:#d62728;" x="699.518182" xlink:href="#m03232acba6" y="411.408592"/>
     <use style="fill:#d62728;stroke:#d62728;" x="715.219481" xlink:href="#m03232acba6" y="417.597086"/>
     <use style="fill:#d62728;stroke:#d62728;" x="730.920779" xlink:href="#m03232acba6" y="422.252825"/>
     <use style="fill:#d62728;stroke:#d62728;" x="746.622078" xlink:href="#m03232acba6" y="429.131044"/>
     <use style="fill:#d62728;stroke:#d62728;" x="762.323377" xlink:href="#m03232acba6" y="433.678086"/>
     <use style="fill:#d62728;stroke:#d62728;" x="778.024675" xlink:href="#m03232acba6" y="440.375709"/>
     <use style="fill:#d62728;stroke:#d62728;" x="793.725974" xlink:href="#m03232acba6" y="448.093577"/>
     <use style="fill:#d62728;stroke:#d62728;" x="809.427273" xlink:href="#m03232acba6" y="453.396298"/>
    </g>
   </g>
   <g id="patch_3">
    <path d="M 117 512.64 
L 117 69.12 
" style="fill:none;stroke:#000000;stroke-linecap:square;stroke-linejoin:miter;stroke-width:0.8;"/>
   </g>
   <g id="patch_4">
    <path d="M 842.4 512.64 
L 842.4 69.12 
" style="fill:none;stroke:#000000;stroke-linecap:square;stroke-linejoin:miter;stroke-width:0.8;"/>
   </g>
   <g id="patch_5">
    <path d="M 117 512.64 
L 842.4 512.64 
" style="fill:none;stroke:#000000;stroke-linecap:square;stroke-linejoin:miter;stroke-width:0.8;"/>
   </g>
   <g id="patch_6">
    <path d="M 117 69.12 
L 842.4 69.12 
" style="fill:none;stroke:#000000;stroke-linecap:square;stroke-linejoin:miter;stroke-width:0.8;"/>
   </g>
   <g id="text_14">
    <!-- Fatalities, daily growth rate in Italy (2020-01-22..2020-04-05) -->
    <defs>
     <path d="M 9.8125 72.90625 
L 51.703125 72.90625 
L 51.703125 64.59375 
L 19.671875 64.59375 
L 19.671875 43.109375 
L 48.578125 43.109375 
L 48.578125 34.8125 
L 19.671875 34.8125 
L 19.671875 0 
L 9.8125 0 
z
" id="DejaVuSans-70"/>
     <path d="M 9.421875 75.984375 
L 18.40625 75.984375 
L 18.40625 0 
L 9.421875 0 
z
" id="DejaVuSans-108"/>
     <path d="M 44.28125 53.078125 
L 44.28125 44.578125 
Q 40.484375 46.53125 36.375 47.5 
Q 32.28125 48.484375 27.875 48.484375 
Q 21.1875 48.484375 17.84375 46.4375 
Q 14.5 44.390625 14.5 40.28125 
Q 14.5 37.15625 16.890625 35.375 
Q 19.28125 33.59375 26.515625 31.984375 
L 29.59375 31.296875 
Q 39.15625 29.25 43.1875 25.515625 
Q 47.21875 21.78125 47.21875 15.09375 
Q 47.21875 7.46875 41.1875 3.015625 
Q 35.15625 -1.421875 24.609375 -1.421875 
Q 20.21875 -1.421875 15.453125 -0.5625 
Q 10.6875 0.296875 5.421875 2 
L 5.421875 11.28125 
Q 10.40625 8.6875 15.234375 7.390625 
Q 20.0625 6.109375 24.8125 6.109375 
Q 31.15625 6.109375 34.5625 8.28125 
Q 37.984375 10.453125 37.984375 14.40625 
Q 37.984375 18.0625 35.515625 20.015625 
Q 33.0625 21.96875 24.703125 23.78125 
L 21.578125 24.515625 
Q 13.234375 26.265625 9.515625 29.90625 
Q 5.8125 33.546875 5.8125 39.890625 
Q 5.8125 47.609375 11.28125 51.796875 
Q 16.75 56 26.8125 56 
Q 31.78125 56 36.171875 55.265625 
Q 40.578125 54.546875 44.28125 53.078125 
z
" id="DejaVuSans-115"/>
     <path d="M 11.71875 12.40625 
L 22.015625 12.40625 
L 22.015625 4 
L 14.015625 -11.625 
L 7.71875 -11.625 
L 11.71875 4 
z
" id="DejaVuSans-44"/>
     <path d="M 9.8125 72.90625 
L 19.671875 72.90625 
L 19.671875 0 
L 9.8125 0 
z
" id="DejaVuSans-73"/>
     <path d="M 10.6875 12.40625 
L 21 12.40625 
L 21 0 
L 10.6875 0 
z
" id="DejaVuSans-46"/>
    </defs>
    <g transform="translate(295.419375 63.12)scale(0.12 -0.12)">
     <use xlink:href="#DejaVuSans-70"/>
     <use x="48.394531" xlink:href="#DejaVuSans-97"/>
     <use x="109.673828" xlink:href="#DejaVuSans-116"/>
     <use x="148.882812" xlink:href="#DejaVuSans-97"/>
     <use x="210.162109" xlink:href="#DejaVuSans-108"/>
     <use x="237.945312" xlink:href="#DejaVuSans-105"/>
     <use x="265.728516" xlink:href="#DejaVuSans-116"/>
     <use x="304.9375" xlink:href="#DejaVuSans-105"/>
     <use x="332.720703" xlink:href="#DejaVuSans-101"/>
     <use x="394.244141" xlink:href="#DejaVuSans-115"/>
     <use x="446.34375" xlink:href="#DejaVuSans-44"/>
     <use x="478.130859" xlink:href="#DejaVuSans-32"/>
     <use x="509.917969" xlink:href="#DejaVuSans-100"/>
     <use x="573.394531" xlink:href="#DejaVuSans-97"/>
     <use x="634.673828" xlink:href="#DejaVuSans-105"/>
     <use x="662.457031" xlink:href="#DejaVuSans-108"/>
     <use x="690.240234" xlink:href="#DejaVuSans-121"/>
     <use x="749.419922" xlink:href="#DejaVuSans-32"/>
     <use x="781.207031" xlink:href="#DejaVuSans-103"/>
     <use x="844.683594" xlink:href="#DejaVuSans-114"/>
     <use x="883.546875" xlink:href="#DejaVuSans-111"/>
     <use x="944.728516" xlink:href="#DejaVuSans-119"/>
     <use x="1026.515625" xlink:href="#DejaVuSans-116"/>
     <use x="1065.724609" xlink:href="#DejaVuSans-104"/>
     <use x="1129.103516" xlink:href="#DejaVuSans-32"/>
     <use x="1160.890625" xlink:href="#DejaVuSans-114"/>
     <use x="1202.003906" xlink:href="#DejaVuSans-97"/>
     <use x="1263.283203" xlink:href="#DejaVuSans-116"/>
     <use x="1302.492188" xlink:href="#DejaVuSans-101"/>
     <use x="1364.015625" xlink:href="#DejaVuSans-32"/>
     <use x="1395.802734" xlink:href="#DejaVuSans-105"/>
     <use x="1423.585938" xlink:href="#DejaVuSans-110"/>
     <use x="1486.964844" xlink:href="#DejaVuSans-32"/>
     <use x="1518.751953" xlink:href="#DejaVuSans-73"/>
     <use x="1548.244141" xlink:href="#DejaVuSans-116"/>
     <use x="1587.453125" xlink:href="#DejaVuSans-97"/>
     <use x="1648.732422" xlink:href="#DejaVuSans-108"/>
     <use x="1676.515625" xlink:href="#DejaVuSans-121"/>
     <use x="1735.695312" xlink:href="#DejaVuSans-32"/>
     <use x="1767.482422" xlink:href="#DejaVuSans-40"/>
     <use x="1806.496094" xlink:href="#DejaVuSans-50"/>
     <use x="1870.119141" xlink:href="#DejaVuSans-48"/>
     <use x="1933.742188" xlink:href="#DejaVuSans-50"/>
     <use x="1997.365234" xlink:href="#DejaVuSans-48"/>
     <use x="2060.988281" xlink:href="#DejaVuSans-45"/>
     <use x="2097.072266" xlink:href="#DejaVuSans-48"/>
     <use x="2160.695312" xlink:href="#DejaVuSans-49"/>
     <use x="2224.318359" xlink:href="#DejaVuSans-45"/>
     <use x="2260.402344" xlink:href="#DejaVuSans-50"/>
     <use x="2324.025391" xlink:href="#DejaVuSans-50"/>
     <use x="2387.648438" xlink:href="#DejaVuSans-46"/>
     <use x="2419.435547" xlink:href="#DejaVuSans-46"/>
     <use x="2451.222656" xlink:href="#DejaVuSans-50"/>
     <use x="2514.845703" xlink:href="#DejaVuSans-48"/>
     <use x="2578.46875" xlink:href="#DejaVuSans-50"/>
     <use x="2642.091797" xlink:href="#DejaVuSans-48"/>
     <use x="2705.714844" xlink:href="#DejaVuSans-45"/>
     <use x="2741.798828" xlink:href="#DejaVuSans-48"/>
     <use x="2805.421875" xlink:href="#DejaVuSans-52"/>
     <use x="2869.044922" xlink:href="#DejaVuSans-45"/>
     <use x="2905.128906" xlink:href="#DejaVuSans-48"/>
     <use x="2968.751953" xlink:href="#DejaVuSans-53"/>
     <use x="3032.375" xlink:href="#DejaVuSans-41"/>
    </g>
   </g>
   <g id="legend_1">
    <g id="patch_7">
     <path d="M 750.5 150.5325 
L 835.4 150.5325 
Q 837.4 150.5325 837.4 148.5325 
L 837.4 76.12 
Q 837.4 74.12 835.4 74.12 
L 750.5 74.12 
Q 748.5 74.12 748.5 76.12 
L 748.5 148.5325 
Q 748.5 150.5325 750.5 150.5325 
z
" style="fill:#ffffff;opacity:0.8;stroke:#cccccc;stroke-linejoin:miter;"/>
    </g>
    <g id="text_15">
     <!-- Avg over $n$ days -->
     <defs>
      <path d="M 34.1875 63.1875 
L 20.796875 26.90625 
L 47.609375 26.90625 
z
M 28.609375 72.90625 
L 39.796875 72.90625 
L 67.578125 0 
L 57.328125 0 
L 50.6875 18.703125 
L 17.828125 18.703125 
L 11.1875 0 
L 0.78125 0 
z
" id="DejaVuSans-65"/>
      <path d="M 55.71875 33.015625 
L 49.3125 0 
L 40.28125 0 
L 46.6875 32.671875 
Q 47.125 34.96875 47.359375 36.71875 
Q 47.609375 38.484375 47.609375 39.5 
Q 47.609375 43.609375 45.015625 45.890625 
Q 42.4375 48.1875 37.796875 48.1875 
Q 30.5625 48.1875 25.34375 43.375 
Q 20.125 38.578125 18.5 30.328125 
L 12.5 0 
L 3.515625 0 
L 14.109375 54.6875 
L 23.09375 54.6875 
L 21.296875 46.09375 
Q 25.046875 50.828125 30.3125 53.40625 
Q 35.59375 56 41.40625 56 
Q 48.640625 56 52.609375 52.09375 
Q 56.59375 48.1875 56.59375 41.109375 
Q 56.59375 39.359375 56.375 37.359375 
Q 56.15625 35.359375 55.71875 33.015625 
z
" id="DejaVuSans-Oblique-110"/>
     </defs>
     <g transform="translate(752.5 85.72)scale(0.1 -0.1)">
      <use transform="translate(0 0.015625)" xlink:href="#DejaVuSans-65"/>
      <use transform="translate(68.408203 0.015625)" xlink:href="#DejaVuSans-118"/>
      <use transform="translate(127.587891 0.015625)" xlink:href="#DejaVuSans-103"/>
      <use transform="translate(191.064453 0.015625)" xlink:href="#DejaVuSans-32"/>
      <use transform="translate(222.851562 0.015625)" xlink:href="#DejaVuSans-111"/>
      <use transform="translate(284.033203 0.015625)" xlink:href="#DejaVuSans-118"/>
      <use transform="translate(343.212891 0.015625)" xlink:href="#DejaVuSans-101"/>
      <use transform="translate(404.736328 0.015625)" xlink:href="#DejaVuSans-114"/>
      <use transform="translate(445.849609 0.015625)" xlink:href="#DejaVuSans-32"/>
      <use transform="translate(477.636719 0.015625)" xlink:href="#DejaVuSans-Oblique-110"/>
      <use transform="translate(541.015625 0.015625)" xlink:href="#DejaVuSans-32"/>
      <use transform="translate(572.802734 0.015625)" xlink:href="#DejaVuSans-100"/>
      <use transform="translate(636.279297 0.015625)" xlink:href="#DejaVuSans-97"/>
      <use transform="translate(697.558594 0.015625)" xlink:href="#DejaVuSans-121"/>
      <use transform="translate(756.738281 0.015625)" xlink:href="#DejaVuSans-115"/>
     </g>
    </g>
    <g id="line2d_115">
     <path d="M 759.196094 96.918438 
L 779.196094 96.918438 
" style="fill:none;stroke:#1f77b4;stroke-linecap:square;stroke-width:1.5;"/>
    </g>
    <g id="line2d_116">
     <g>
      <use style="fill:#1f77b4;stroke:#1f77b4;" x="769.196094" xlink:href="#m3765cc3835" y="96.918438"/>
     </g>
    </g>
    <g id="text_16">
     <!-- 2 days -->
     <g transform="translate(787.196094 100.418438)scale(0.1 -0.1)">
      <use xlink:href="#DejaVuSans-50"/>
      <use x="63.623047" xlink:href="#DejaVuSans-32"/>
      <use x="95.410156" xlink:href="#DejaVuSans-100"/>
      <use x="158.886719" xlink:href="#DejaVuSans-97"/>
      <use x="220.166016" xlink:href="#DejaVuSans-121"/>
      <use x="279.345703" xlink:href="#DejaVuSans-115"/>
     </g>
    </g>
    <g id="line2d_117">
     <path d="M 759.196094 111.596563 
L 779.196094 111.596563 
" style="fill:none;stroke:#ff7f0e;stroke-linecap:square;stroke-width:1.5;"/>
    </g>
    <g id="line2d_118">
     <g>
      <use style="fill:#ff7f0e;stroke:#ff7f0e;" x="769.196094" xlink:href="#m9cc714e7c6" y="111.596563"/>
     </g>
    </g>
    <g id="text_17">
     <!-- 4 days -->
     <g transform="translate(787.196094 115.096563)scale(0.1 -0.1)">
      <use xlink:href="#DejaVuSans-52"/>
      <use x="63.623047" xlink:href="#DejaVuSans-32"/>
      <use x="95.410156" xlink:href="#DejaVuSans-100"/>
      <use x="158.886719" xlink:href="#DejaVuSans-97"/>
      <use x="220.166016" xlink:href="#DejaVuSans-121"/>
      <use x="279.345703" xlink:href="#DejaVuSans-115"/>
     </g>
    </g>
    <g id="line2d_119">
     <path d="M 759.196094 126.274688 
L 779.196094 126.274688 
" style="fill:none;stroke:#2ca02c;stroke-linecap:square;stroke-width:1.5;"/>
    </g>
    <g id="line2d_120">
     <g>
      <use style="fill:#2ca02c;stroke:#2ca02c;" x="769.196094" xlink:href="#mef47b3daa9" y="126.274688"/>
     </g>
    </g>
    <g id="text_18">
     <!-- 7 days -->
     <defs>
      <path d="M 8.203125 72.90625 
L 55.078125 72.90625 
L 55.078125 68.703125 
L 28.609375 0 
L 18.3125 0 
L 43.21875 64.59375 
L 8.203125 64.59375 
z
" id="DejaVuSans-55"/>
     </defs>
     <g transform="translate(787.196094 129.774688)scale(0.1 -0.1)">
      <use xlink:href="#DejaVuSans-55"/>
      <use x="63.623047" xlink:href="#DejaVuSans-32"/>
      <use x="95.410156" xlink:href="#DejaVuSans-100"/>
      <use x="158.886719" xlink:href="#DejaVuSans-97"/>
      <use x="220.166016" xlink:href="#DejaVuSans-121"/>
      <use x="279.345703" xlink:href="#DejaVuSans-115"/>
     </g>
    </g>
    <g id="line2d_121">
     <path d="M 759.196094 140.952813 
L 779.196094 140.952813 
" style="fill:none;stroke:#d62728;stroke-linecap:square;stroke-width:1.5;"/>
    </g>
    <g id="line2d_122">
     <g>
      <use style="fill:#d62728;stroke:#d62728;" x="769.196094" xlink:href="#m03232acba6" y="140.952813"/>
     </g>
    </g>
    <g id="text_19">
     <!-- 14 days -->
     <g transform="translate(787.196094 144.452813)scale(0.1 -0.1)">
      <use xlink:href="#DejaVuSans-49"/>
      <use x="63.623047" xlink:href="#DejaVuSans-52"/>
      <use x="127.246094" xlink:href="#DejaVuSans-32"/>
      <use x="159.033203" xlink:href="#DejaVuSans-100"/>
      <use x="222.509766" xlink:href="#DejaVuSans-97"/>
      <use x="283.789062" xlink:href="#DejaVuSans-121"/>
      <use x="342.96875" xlink:href="#DejaVuSans-115"/>
     </g>
    </g>
   </g>
  </g>
 </g>
 <defs>
  <clipPath id="p3b78af2b57">
   <rect height="443.52" width="725.4" x="117" y="69.12"/>
  </clipPath>
 </defs>
</svg>
